<?xml version="1.0" encoding="UTF-8" standalone="no"?>
<!DOCTYPE svg PUBLIC "-//W3C//DTD SVG 1.0//EN" "http://www.w3.org/TR/2001/PR-SVG-20010719/DTD/svg10.dtd">
<svg viewBox="239 79 445 193" xmlns="http://www.w3.org/2000/svg" xmlns:xlink="http://www.w3.org/1999/xlink">
  <g>
    <rect style="fill: #90ee90" x="580" y="140" width="102.4" height="28"/>
    <rect style="fill: none; fill-opacity:0; stroke-width: 2; stroke: #000000" x="580" y="140" width="102.4" height="28"/>
    <text font-size="16" style="fill: #000000;text-anchor:middle;font-family:sans-serif;font-style:normal;font-weight:700" x="631.2" y="159">Ball</text>
    <rect style="fill: #90ee90" x="580" y="168" width="102.4" height="8"/>
    <rect style="fill: none; fill-opacity:0; stroke-width: 2; stroke: #000000" x="580" y="168" width="102.4" height="8"/>
    <rect style="fill: #90ee90" x="580" y="176" width="102.4" height="52"/>
    <rect style="fill: none; fill-opacity:0; stroke-width: 2; stroke: #000000" x="580" y="176" width="102.4" height="52"/>
    <text font-size="12.8" style="fill: #000000;text-anchor:start;font-family:monospace;font-style:normal;font-weight:normal" x="583" y="190">+move()</text>
    <text font-size="12.8" style="fill: #000000;text-anchor:start;font-family:monospace;font-style:normal;font-weight:normal" x="583" y="206">+getX(): int</text>
    <text font-size="12.8" style="fill: #000000;text-anchor:start;font-family:monospace;font-style:normal;font-weight:normal" x="583" y="222">+getY(): int</text>
  </g>
  <g>
    <polygon style="fill: #d8e5e5" points="460,80 527.6,80 539.6,92 539.6,130 460,130 "/>
    <polygon style="fill: none; fill-opacity:0; stroke-width: 2; stroke: #bfbfbf" points="460,80 527.6,80 539.6,92 539.6,130 460,130 "/>
    <polyline style="fill: none; fill-opacity:0; stroke-width: 1; stroke: #bfbfbf" points="527.6,80 527.6,92 539.6,92 "/>
    <text font-size="12.8" style="fill: #000000;text-anchor:start;font-family:monospace;font-style:normal;font-weight:normal" x="467" y="104.9">
      <tspan x="467" y="104.9">How many</tspan>
      <tspan x="467" y="120.9">balls?</tspan>
    </text>
  </g>
  <g>
    <polygon style="fill: #e6e6fa" points="460,220 527.6,220 539.6,232 539.6,270 460,270 "/>
    <polygon style="fill: none; fill-opacity:0; stroke-width: 2; stroke: #bfbfbf" points="460,220 527.6,220 539.6,232 539.6,270 460,270 "/>
    <polyline style="fill: none; fill-opacity:0; stroke-width: 1; stroke: #bfbfbf" points="527.6,220 527.6,232 539.6,232 "/>
    <text font-size="12.8" style="fill: #000000;text-anchor:start;font-family:monospace;font-style:normal;font-weight:normal" x="467" y="244.9">
      <tspan x="467" y="244.9">How many</tspan>
      <tspan x="467" y="260.9">arenas?</tspan>
    </text>
  </g>
  <g>
    <rect style="fill: #90ee90" x="240" y="140" width="156.3" height="28"/>
    <rect style="fill: none; fill-opacity:0; stroke-width: 2; stroke: #000000" x="240" y="140" width="156.3" height="28"/>
    <text font-size="16" style="fill: #000000;text-anchor:middle;font-family:sans-serif;font-style:normal;font-weight:700" x="318.15" y="159">BallArena</text>
    <rect style="fill: #90ee90" x="240" y="168" width="156.3" height="8"/>
    <rect style="fill: none; fill-opacity:0; stroke-width: 2; stroke: #000000" x="240" y="168" width="156.3" height="8"/>
    <rect style="fill: #90ee90" x="240" y="176" width="156.3" height="68"/>
    <rect style="fill: none; fill-opacity:0; stroke-width: 2; stroke: #000000" x="240" y="176" width="156.3" height="68"/>
    <text font-size="12.8" style="fill: #000000;text-anchor:start;font-family:monospace;font-style:normal;font-weight:normal" x="243" y="190">+add(Ball)</text>
    <text font-size="12.8" style="fill: #000000;text-anchor:start;font-family:monospace;font-style:normal;font-weight:normal" x="243" y="206">+remove(Ball)</text>
    <text font-size="12.8" style="fill: #000000;text-anchor:start;font-family:monospace;font-style:normal;font-weight:normal" x="243" y="222">+getBalls(): Ball[]</text>
    <text font-size="12.8" style="fill: #000000;text-anchor:start;font-family:monospace;font-style:normal;font-weight:normal" x="243" y="238">+moveAll()</text>
  </g>
  <g>
    <polyline style="fill: none; fill-opacity:0; stroke-width: 2; stroke: #000000" points="421.472,186 411.3,186 579,186 580,186 "/>
    <polygon style="fill: #000000" points="396.3,186 410.3,181.2 424.3,186 410.3,190.8 "/>
    <polygon style="fill: none; fill-opacity:0; stroke-width: 2; stroke: #000000" points="396.3,186 410.3,181.2 424.3,186 410.3,190.8 "/>
    <text font-size="12.7998" style="fill: #000000;text-anchor:middle;font-family:monospace;font-style:normal;font-weight:normal" x="495.15" y="182">balls</text>
    <text font-size="12.7998" style="fill: #000000;text-anchor:start;font-family:monospace;font-style:normal;font-weight:normal" x="428.3" y="182">1</text>
    <text font-size="12.7998" style="fill: #000000;text-anchor:end;font-family:monospace;font-style:normal;font-weight:normal" x="576" y="182">*</text>
  </g>
  <line style="fill: none; fill-opacity:0; stroke-width: 2; stroke-dasharray: 4; stroke: #bfbfbf" x1="460" y1="245" x2="440" y2="200"/>
  <line style="fill: none; fill-opacity:0; stroke-width: 2; stroke-dasharray: 4; stroke: #bfbfbf" x1="539.6" y1="105" x2="560" y2="160"/>
</svg>
