<?xml version="1.0" encoding="UTF-8" standalone="no"?>
<!DOCTYPE svg PUBLIC "-//W3C//DTD SVG 1.0//EN" "http://www.w3.org/TR/2001/PR-SVG-20010719/DTD/svg10.dtd">
<svg viewBox="689 18 352 307" xmlns="http://www.w3.org/2000/svg" xmlns:xlink="http://www.w3.org/1999/xlink">
  <g>
    <rect style="fill: #90ee90" x="690" y="70" width="112.494" height="36"/>
    <rect style="fill: none; fill-opacity:0; stroke-width: 2; stroke: #000000" x="690" y="70" width="112.494" height="36"/>
    <text font-size="12.7998" style="fill: #000000;text-anchor:middle;font-family:sans-serif;font-style:normal;font-weight:normal" x="746.247" y="91.9">
      <tspan x="746.247" y="91.9"> :ArenaPrinter </tspan>
    </text>
    <line style="fill: none; fill-opacity:0; stroke-width: 1; stroke: #000000" x1="700" y1="94.95" x2="792.494" y2="94.95"/>
  </g>
  <g>
    <rect style="fill: #90ee90" x="970" y="70" width="69.9688" height="36"/>
    <rect style="fill: none; fill-opacity:0; stroke-width: 2; stroke: #000000" x="970" y="70" width="69.9688" height="36"/>
    <text font-size="12.7998" style="fill: #000000;text-anchor:middle;font-family:sans-serif;font-style:normal;font-weight:normal" x="1004.98" y="91.9">
      <tspan x="1004.98" y="91.9"> :Arena </tspan>
    </text>
    <line style="fill: none; fill-opacity:0; stroke-width: 1; stroke: #000000" x1="980" y1="94.95" x2="1029.97" y2="94.95"/>
  </g>
  <g>
    <rect style="fill: #90ee90" x="788" y="280" width="56.15" height="36"/>
    <rect style="fill: none; fill-opacity:0; stroke-width: 2; stroke: #000000" x="788" y="280" width="56.15" height="36"/>
    <rect style="fill: #90ee90" x="780" y="288" width="56.15" height="36"/>
    <rect style="fill: none; fill-opacity:0; stroke-width: 2; stroke: #000000" x="780" y="288" width="56.15" height="36"/>
    <text font-size="12.7998" style="fill: #000000;text-anchor:middle;font-family:sans-serif;font-style:normal;font-weight:normal" x="808.075" y="309.9">
      <tspan x="808.075" y="309.9"> :Ball </tspan>
    </text>
    <line style="fill: none; fill-opacity:0; stroke-width: 1; stroke: #000000" x1="794" y1="312.95" x2="830.15" y2="312.95"/>
  </g>
  <g>
    <line style="fill: none; fill-opacity:0; stroke-width: 2; stroke: #000000" x1="752.065" y1="106.913" x2="802.137" y2="269.693"/>
    <polygon style="fill: #000000" points="804.342,276.861 796.623,268.773 802.137,269.693 806.181,265.833 "/>
    <polygon style="fill: none; fill-opacity:0; stroke-width: 2; stroke: #000000" points="804.342,276.861 796.623,268.773 802.137,269.693 806.181,265.833 "/>
  </g>
  <g>
    <line style="fill: none; fill-opacity:0; stroke-width: 2; stroke: #000000" x1="803.493" y1="88" x2="959.266" y2="88"/>
    <polygon style="fill: #000000" points="966.766,88 956.766,93 959.266,88 956.766,83 "/>
    <polygon style="fill: none; fill-opacity:0; stroke-width: 2; stroke: #000000" points="966.766,88 956.766,93 959.266,88 956.766,83 "/>
  </g>
  <g>
    <path style="fill: none; fill-opacity:0; stroke-width: 2; stroke: #000000" d="M 780,70 A 30,30 0 0 0 721.465,60.7394"/>
    <polygon style="fill: #000000" points="720,67.7639 715,57.7639 720,60.2639 725,57.7639 "/>
    <polygon style="fill: none; fill-opacity:0; stroke-width: 2; stroke: #000000" points="720,67.7639 715,57.7639 720,60.2639 725,57.7639 "/>
  </g>
  <text font-size="12.7998" style="fill: #000000;text-anchor:start;font-family:sans-serif;font-style:normal;font-weight:normal" x="700" y="30">
    <tspan x="700" y="30">4. prepareBuffer()</tspan>
  </text>
  <text font-size="12.7998" style="fill: #000000;text-anchor:start;font-family:sans-serif;font-style:normal;font-weight:normal" x="850" y="40">
    <tspan x="850" y="40">1. getWidth()</tspan>
    <tspan x="850" y="56">2. getHeight()</tspan>
    <tspan x="850" y="72">3. getBalls()</tspan>
  </text>
  <text font-size="12.7998" style="fill: #000000;text-anchor:start;font-family:sans-serif;font-style:normal;font-weight:normal" x="800" y="180">
    <tspan x="800" y="180">5. * getPosition</tspan>
    <tspan x="800" y="196">5.1. getX()</tspan>
    <tspan x="800" y="212">5.2. getY()</tspan>
  </text>
</svg>
