<?xml version="1.0" encoding="UTF-8" standalone="no"?>
<!DOCTYPE svg PUBLIC "-//W3C//DTD SVG 1.0//EN" "http://www.w3.org/TR/2001/PR-SVG-20010719/DTD/svg10.dtd">
<svg viewBox="359 119 209 190" xmlns="http://www.w3.org/2000/svg" xmlns:xlink="http://www.w3.org/1999/xlink">
  <g>
    <rect style="fill: #eedd82" x="420" y="120" width="117.2" height="28"/>
    <rect style="fill: none; fill-opacity:0; stroke-width: 2; stroke: #000000" x="420" y="120" width="117.2" height="28"/>
    <text font-size="16" style="fill: #000000;text-anchor:middle;font-family:sans-serif;font-style:italic;font-weight:700" x="478.6" y="139">Comparator</text>
  </g>
  <g>
    <rect style="fill: #90ee90" x="360" y="220" width="158.85" height="28"/>
    <rect style="fill: none; fill-opacity:0; stroke-width: 2; stroke: #000000" x="360" y="220" width="158.85" height="28"/>
    <text font-size="16" style="fill: #000000;text-anchor:middle;font-family:sans-serif;font-style:normal;font-weight:700" x="439.425" y="239">AreaComparator</text>
  </g>
  <g>
    <polyline style="fill: none; fill-opacity:0; stroke-width: 2; stroke-dasharray: 8; stroke: #000000" points="478.6,166.236 478.6,200 439.426,200 439.426,220 "/>
    <polygon style="fill: #ffffff" points="486.6,166.236 478.6,150.236 470.6,166.236 "/>
    <polygon style="fill: none; fill-opacity:0; stroke-width: 2; stroke: #000000" points="486.6,166.236 478.6,150.236 470.6,166.236 "/>
  </g>
  <g>
    <polyline style="fill: none; fill-opacity:0; stroke-width: 2; stroke-dasharray: 8; stroke: #000000" points="478.6,167.221 478.6,200 543.4,200 543.4,279.014 "/>
    <polygon style="fill: #ffffff" points="486.6,167.221 478.6,151.221 470.6,167.221 "/>
    <polygon style="fill: none; fill-opacity:0; stroke-width: 2; stroke: #000000" points="486.6,167.221 478.6,151.221 470.6,167.221 "/>
  </g>
  <g>
    <rect style="fill: #90ee90" x="360" y="280" width="206.8" height="28"/>
    <rect style="fill: none; fill-opacity:0; stroke-width: 2; stroke: #000000" x="360" y="280" width="206.8" height="28"/>
    <text font-size="16" style="fill: #000000;text-anchor:middle;font-family:sans-serif;font-style:normal;font-weight:700" x="463.4" y="299">PerimeterComparator</text>
  </g>
</svg>
