<?xml version="1.0" encoding="UTF-8" standalone="no"?>
<!DOCTYPE svg PUBLIC "-//W3C//DTD SVG 1.0//EN" "http://www.w3.org/TR/2001/PR-SVG-20010719/DTD/svg10.dtd">
<svg viewBox="138 129 557 362" xmlns="http://www.w3.org/2000/svg" xmlns:xlink="http://www.w3.org/1999/xlink">
  <g>
    <rect style="fill: #ffffff" x="140" y="370" width="550" height="100"/>
    <rect style="fill: none; fill-opacity:0; stroke-width: 2; stroke: #000099" x="140" y="370" width="550" height="100"/>
  </g>
  <g>
    <rect style="fill: #90ee90" x="140" y="130" width="112.494" height="36"/>
    <rect style="fill: none; fill-opacity:0; stroke-width: 2; stroke: #000000" x="140" y="130" width="112.494" height="36"/>
    <text font-size="12.8" style="fill: #000000;text-anchor:middle;font-family:sans-serif;font-style:normal;font-weight:normal" x="196.247" y="151.9">
      <tspan x="196.247" y="151.9"> :ArenaPrinter </tspan>
    </text>
    <line style="fill: none; fill-opacity:0; stroke-width: 1; stroke: #000000" x1="150" y1="154.95" x2="242.494" y2="154.95"/>
  </g>
  <g>
    <rect style="fill: #90ee90" x="420" y="130" width="61.8688" height="36"/>
    <rect style="fill: none; fill-opacity:0; stroke-width: 2; stroke: #000000" x="420" y="130" width="61.8688" height="36"/>
    <text font-size="12.8" style="fill: #000000;text-anchor:middle;font-family:sans-serif;font-style:normal;font-weight:normal" x="450.934" y="151.9">
      <tspan x="450.934" y="151.9">:Arena</tspan>
    </text>
    <line style="fill: none; fill-opacity:0; stroke-width: 1; stroke: #000000" x1="430" y1="154.95" x2="471.869" y2="154.95"/>
  </g>
  <g>
    <rect style="fill: #90ee90" x="638" y="130" width="56.15" height="36"/>
    <rect style="fill: none; fill-opacity:0; stroke-width: 2; stroke: #000000" x="638" y="130" width="56.15" height="36"/>
    <rect style="fill: #90ee90" x="630" y="138" width="56.15" height="36"/>
    <rect style="fill: none; fill-opacity:0; stroke-width: 2; stroke: #000000" x="630" y="138" width="56.15" height="36"/>
    <text font-size="12.8" style="fill: #000000;text-anchor:middle;font-family:sans-serif;font-style:normal;font-weight:normal" x="658.075" y="159.9">
      <tspan x="658.075" y="159.9"> :Ball </tspan>
    </text>
    <line style="fill: none; fill-opacity:0; stroke-width: 1; stroke: #000000" x1="644" y1="162.95" x2="680.15" y2="162.95"/>
  </g>
  <g>
    <line style="fill: none; fill-opacity:0; stroke-width: 1; stroke-dasharray: 8; stroke: #000000" x1="196.247" y1="166" x2="196.247" y2="356"/>
    <line style="fill: none; fill-opacity:0; stroke-width: 1; stroke-dasharray: 8; stroke: #000000" x1="196.247" y1="336" x2="196.247" y2="490"/>
    <rect style="fill: #ffffff" x="189.247" y="356" width="14" height="-20"/>
    <rect style="fill: none; fill-opacity:0; stroke-width: 2; stroke: #000000" x="189.247" y="356" width="14" height="-20"/>
  </g>
  <g>
    <line style="fill: none; fill-opacity:0; stroke-width: 1; stroke-dasharray: 8; stroke: #000000" x1="450.934" y1="166" x2="450.934" y2="356"/>
    <line style="fill: none; fill-opacity:0; stroke-width: 1; stroke-dasharray: 8; stroke: #000000" x1="450.934" y1="336" x2="450.934" y2="490"/>
    <rect style="fill: #ffffff" x="443.934" y="356" width="14" height="-20"/>
    <rect style="fill: none; fill-opacity:0; stroke-width: 2; stroke: #000000" x="443.934" y="356" width="14" height="-20"/>
  </g>
  <g>
    <line style="fill: none; fill-opacity:0; stroke-width: 1; stroke-dasharray: 8; stroke: #000000" x1="662.074" y1="174" x2="662.074" y2="364"/>
    <line style="fill: none; fill-opacity:0; stroke-width: 1; stroke-dasharray: 8; stroke: #000000" x1="662.074" y1="344" x2="662.074" y2="490"/>
    <rect style="fill: #ffffff" x="655.074" y="364" width="14" height="-20"/>
    <rect style="fill: none; fill-opacity:0; stroke-width: 2; stroke: #000000" x="655.074" y="364" width="14" height="-20"/>
  </g>
  <g>
    <line style="fill: none; fill-opacity:0; stroke-width: 2; stroke: #000000" x1="433" y1="190" x2="200" y2="190"/>
    <polygon style="fill: #000000" points="433,195 449,190 433,185 "/>
    <polygon style="fill: none; fill-opacity:0; stroke-width: 2; stroke: #000000" points="433,195 449,190 433,185 "/>
    <text font-size="12.7998" style="fill: #000000;text-anchor:middle;font-family:sans-serif;font-style:normal;font-weight:normal" x="325" y="180">getWidth()</text>
  </g>
  <g>
    <line style="fill: none; fill-opacity:0; stroke-width: 2; stroke: #000000" x1="433" y1="220" x2="200" y2="220"/>
    <polygon style="fill: #000000" points="433,225 449,220 433,215 "/>
    <polygon style="fill: none; fill-opacity:0; stroke-width: 2; stroke: #000000" points="433,225 449,220 433,215 "/>
    <text font-size="12.7998" style="fill: #000000;text-anchor:middle;font-family:sans-serif;font-style:normal;font-weight:normal" x="325" y="210">getHeight()</text>
  </g>
  <g>
    <line style="fill: none; fill-opacity:0; stroke-width: 2; stroke: #000000" x1="217" y1="270" x2="230" y2="270"/>
    <polygon style="fill: #000000" points="217,265 201,270 217,275 "/>
    <polygon style="fill: none; fill-opacity:0; stroke-width: 2; stroke: #000000" points="217,265 201,270 217,275 "/>
    <text font-size="12.7998" style="fill: #000000;text-anchor:middle;font-family:sans-serif;font-style:normal;font-weight:normal" x="290" y="260">prepareBuffer()</text>
  </g>
  <g>
    <line style="fill: none; fill-opacity:0; stroke-width: 2; stroke: #000000" x1="433" y1="310" x2="200" y2="310"/>
    <polygon style="fill: #000000" points="433,315 449,310 433,305 "/>
    <polygon style="fill: none; fill-opacity:0; stroke-width: 2; stroke: #000000" points="433,315 449,310 433,305 "/>
    <text font-size="12.7998" style="fill: #000000;text-anchor:middle;font-family:sans-serif;font-style:normal;font-weight:normal" x="330" y="300">getBalls()</text>
  </g>
  <g>
    <line style="fill: none; fill-opacity:0; stroke-width: 2; stroke-dasharray: 8; stroke: #000000" x1="217" y1="340" x2="450" y2="340"/>
    <polygon style="fill: #000000" points="217,335 201,340 217,345 "/>
    <polygon style="fill: none; fill-opacity:0; stroke-width: 2; stroke: #000000" points="217,335 201,340 217,345 "/>
    <text font-size="12.7998" style="fill: #000000;text-anchor:middle;font-family:sans-serif;font-style:normal;font-weight:normal" x="330" y="330">balls</text>
  </g>
  <g>
    <line style="fill: none; fill-opacity:0; stroke-width: 2; stroke: #000000" x1="643" y1="410" x2="200" y2="410"/>
    <polygon style="fill: #000000" points="643,415 659,410 643,405 "/>
    <polygon style="fill: none; fill-opacity:0; stroke-width: 2; stroke: #000000" points="643,415 659,410 643,405 "/>
    <text font-size="12.7998" style="fill: #000000;text-anchor:middle;font-family:sans-serif;font-style:normal;font-weight:normal" x="430" y="400">getX()</text>
  </g>
  <g>
    <line style="fill: none; fill-opacity:0; stroke-width: 2; stroke: #000000" x1="643" y1="450" x2="200" y2="450"/>
    <polygon style="fill: #000000" points="643,455 659,450 643,445 "/>
    <polygon style="fill: none; fill-opacity:0; stroke-width: 2; stroke: #000000" points="643,455 659,450 643,445 "/>
    <text font-size="12.7998" style="fill: #000000;text-anchor:middle;font-family:sans-serif;font-style:normal;font-weight:normal" x="430" y="440">getY()</text>
  </g>
  <text font-size="12.8" style="fill: #000000;text-anchor:start;font-family:sans-serif;font-style:normal;font-weight:normal" x="140" y="381.9">
    <tspan x="140" y="381.9"> loop</tspan>
  </text>
  <polyline style="fill: none; fill-opacity:0; stroke-width: 2; stroke: #000099" points="180,370 180,380 170,390 140,390 "/>
  <polyline style="fill: none; fill-opacity:0; stroke-width: 2; stroke: #000000" points="200,240 230,240 230,270 "/>
</svg>
