<?xml version="1.0" encoding="UTF-8" standalone="no"?>
<!DOCTYPE svg PUBLIC "-//W3C//DTD SVG 1.0//EN" "http://www.w3.org/TR/2001/PR-SVG-20010719/DTD/svg10.dtd">
<svg viewBox="169 79 179 329" xmlns="http://www.w3.org/2000/svg" xmlns:xlink="http://www.w3.org/1999/xlink">
  <g>
    <rect style="fill: #90ee90" x="186.725" y="350" width="63.9" height="28"/>
    <rect style="fill: none; fill-opacity:0; stroke-width: 2; stroke: #000000" x="186.725" y="350" width="63.9" height="28"/>
    <text font-size="16" style="fill: #000000;text-anchor:middle;font-family:sans-serif;font-style:normal;font-weight:700" x="218.675" y="369">Ball</text>
    <rect style="fill: #90ee90" x="186.725" y="378" width="63.9" height="8"/>
    <rect style="fill: none; fill-opacity:0; stroke-width: 2; stroke: #000000" x="186.725" y="378" width="63.9" height="8"/>
    <rect style="fill: #90ee90" x="186.725" y="386" width="63.9" height="20"/>
    <rect style="fill: none; fill-opacity:0; stroke-width: 2; stroke: #000000" x="186.725" y="386" width="63.9" height="20"/>
    <text font-size="12.8" style="fill: #000000;text-anchor:start;font-family:monospace;font-style:normal;font-weight:normal" x="189.725" y="400">+move()</text>
  </g>
  <g>
    <polygon style="fill: #d8e5e5" points="260,260 334,260 346,272 346,313.278 260,313.278 "/>
    <polygon style="fill: none; fill-opacity:0; stroke-width: 2; stroke: #7f7f7f" points="260,260 334,260 346,272 346,313.278 260,313.278 "/>
    <polyline style="fill: none; fill-opacity:0; stroke-width: 1; stroke: #7f7f7f" points="334,260 334,272 346,272 "/>
    <text font-size="14.1111" style="fill: #000000;text-anchor:start;font-family:monospace;font-style:normal;font-weight:normal" x="267" y="286.1">
      <tspan x="267" y="286.1">How many</tspan>
      <tspan x="267" y="303.739">balls?</tspan>
    </text>
  </g>
  <g>
    <polygon style="fill: #d8e5e5" points="260,170 334,170 346,182 346,223.278 260,223.278 "/>
    <polygon style="fill: none; fill-opacity:0; stroke-width: 2; stroke: #7f7f7f" points="260,170 334,170 346,182 346,223.278 260,223.278 "/>
    <polyline style="fill: none; fill-opacity:0; stroke-width: 1; stroke: #7f7f7f" points="334,170 334,182 346,182 "/>
    <text font-size="14.1111" style="fill: #000000;text-anchor:start;font-family:monospace;font-style:normal;font-weight:normal" x="267" y="196.1">
      <tspan x="267" y="196.1">How many</tspan>
      <tspan x="267" y="213.739">arenas?</tspan>
    </text>
  </g>
  <g>
    <rect style="fill: #90ee90" x="170" y="80" width="97.35" height="28"/>
    <rect style="fill: none; fill-opacity:0; stroke-width: 2; stroke: #000000" x="170" y="80" width="97.35" height="28"/>
    <text font-size="16" style="fill: #000000;text-anchor:middle;font-family:sans-serif;font-style:normal;font-weight:700" x="218.675" y="99">BallArena</text>
    <rect style="fill: #90ee90" x="170" y="108" width="97.35" height="8"/>
    <rect style="fill: none; fill-opacity:0; stroke-width: 2; stroke: #000000" x="170" y="108" width="97.35" height="8"/>
    <rect style="fill: #90ee90" x="170" y="116" width="97.35" height="20"/>
    <rect style="fill: none; fill-opacity:0; stroke-width: 2; stroke: #000000" x="170" y="116" width="97.35" height="20"/>
    <text font-size="12.8" style="fill: #000000;text-anchor:start;font-family:monospace;font-style:normal;font-weight:normal" x="173" y="130">+move_all()</text>
  </g>
  <g>
    <polyline style="fill: none; fill-opacity:0; stroke-width: 2; stroke: #000000" points="218.675,162.17 218.675,210 218.675,210 218.675,348.992 "/>
    <polygon style="fill: #000000" points="218.675,136.999 223.475,150.999 218.675,164.999 213.875,150.999 "/>
    <polygon style="fill: none; fill-opacity:0; stroke-width: 2; stroke: #000000" points="218.675,136.999 223.475,150.999 218.675,164.999 213.875,150.999 "/>
    <text font-size="12.7998" style="fill: #000000;text-anchor:middle;font-family:monospace;font-style:normal;font-weight:normal" x="218.675" y="206"/>
    <text font-size="12.7998" style="fill: #000000;text-anchor:start;font-family:monospace;font-style:normal;font-weight:normal" x="229.675" y="148.999">1</text>
    <text font-size="12.7998" style="fill: #000000;text-anchor:start;font-family:monospace;font-style:normal;font-weight:normal" x="222.675" y="344.992">*</text>
  </g>
  <line style="fill: none; fill-opacity:0; stroke-width: 2; stroke-dasharray: 4; stroke: #7f7f7f" x1="260" y1="196.639" x2="240" y2="160"/>
  <line style="fill: none; fill-opacity:0; stroke-width: 2; stroke-dasharray: 4; stroke: #7f7f7f" x1="260" y1="286.638" x2="240" y2="330"/>
</svg>
