<?xml version="1.0" encoding="UTF-8" standalone="no"?>
<!DOCTYPE svg PUBLIC "-//W3C//DTD SVG 1.0//EN" "http://www.w3.org/TR/2001/PR-SVG-20010719/DTD/svg10.dtd">
<svg width="10cm" height="8cm" viewBox="219 139 194 152" xmlns="http://www.w3.org/2000/svg" xmlns:xlink="http://www.w3.org/1999/xlink">
  <g>
    <rect style="fill: #90ee90" x="220" y="140" width="71.6" height="28"/>
    <rect style="fill: none; fill-opacity:0; stroke-width: 2; stroke: #000000" x="220" y="140" width="71.6" height="28"/>
    <text font-size="16" style="fill: #000000;text-anchor:middle;font-family:sans-serif;font-style:normal;font-weight:700" x="255.8" y="159">Ball</text>
    <rect style="fill: #90ee90" x="220" y="168" width="71.6" height="68"/>
    <rect style="fill: none; fill-opacity:0; stroke-width: 2; stroke: #000000" x="220" y="168" width="71.6" height="68"/>
    <text font-size="12.8" style="fill: #000000;text-anchor:start;font-family:monospace;font-style:normal;font-weight:normal" x="223" y="182">-x: int</text>
    <text font-size="12.8" style="fill: #000000;text-anchor:start;font-family:monospace;font-style:normal;font-weight:normal" x="223" y="198">-y: int</text>
    <text font-size="12.8" style="fill: #000000;text-anchor:start;font-family:monospace;font-style:normal;font-weight:normal" x="223" y="214">-dx: int</text>
    <text font-size="12.8" style="fill: #000000;text-anchor:start;font-family:monospace;font-style:normal;font-weight:normal" x="223" y="230">-dy: int</text>
    <rect style="fill: #90ee90" x="220" y="236" width="71.6" height="20"/>
    <rect style="fill: none; fill-opacity:0; stroke-width: 2; stroke: #000000" x="220" y="236" width="71.6" height="20"/>
    <text font-size="12.8" style="fill: #000000;text-anchor:start;font-family:monospace;font-style:normal;font-weight:normal" x="223" y="250">+move()</text>
  </g>
  <g>
    <polygon style="fill: #d8e5e5" points="340,160 399.9,160 411.9,172 411.9,210 340,210 "/>
    <polygon style="fill: none; fill-opacity:0; stroke-width: 2; stroke: #7f7f7f" points="340,160 399.9,160 411.9,172 411.9,210 340,210 "/>
    <polyline style="fill: none; fill-opacity:0; stroke-width: 1; stroke: #7f7f7f" points="399.9,160 399.9,172 411.9,172 "/>
    <text font-size="12.8" style="fill: #000000;text-anchor:start;font-family:monospace;font-style:normal;font-weight:normal" x="347" y="184.9">
      <tspan x="347" y="184.9">Private</tspan>
      <tspan x="347" y="200.9">fields</tspan>
    </text>
  </g>
  <g>
    <polygon style="fill: #d8e5e5" points="340,240 399.9,240 411.9,252 411.9,290 340,290 "/>
    <polygon style="fill: none; fill-opacity:0; stroke-width: 2; stroke: #7f7f7f" points="340,240 399.9,240 411.9,252 411.9,290 340,290 "/>
    <polyline style="fill: none; fill-opacity:0; stroke-width: 1; stroke: #7f7f7f" points="399.9,240 399.9,252 411.9,252 "/>
    <text font-size="12.8" style="fill: #000000;text-anchor:start;font-family:monospace;font-style:normal;font-weight:normal" x="347" y="264.9">
      <tspan x="347" y="264.9">Public</tspan>
      <tspan x="347" y="280.9">methods</tspan>
    </text>
  </g>
  <line style="fill: none; fill-opacity:0; stroke-width: 2; stroke-dasharray: 4; stroke: #000000" x1="340" y1="185" x2="291.6" y2="194"/>
  <line style="fill: none; fill-opacity:0; stroke-width: 2; stroke-dasharray: 4; stroke: #000000" x1="340" y1="265" x2="291.6" y2="246"/>
</svg>
