<?xml version="1.0" encoding="UTF-8" standalone="no"?>
<!DOCTYPE svg PUBLIC "-//W3C//DTD SVG 1.0//EN" "http://www.w3.org/TR/2001/PR-SVG-20010719/DTD/svg10.dtd">
<svg width="9cm" height="9cm" viewBox="317 377 166 165" xmlns="http://www.w3.org/2000/svg" xmlns:xlink="http://www.w3.org/1999/xlink">
  <defs/>
  <g id="Background">
    <rect style="fill: #ff7f50; fill-opacity: 1; stroke-opacity: 1; stroke-width: 2; stroke: #000000" x="360" y="440" width="20" height="20" rx="0" ry="0"/>
    <rect style="fill: #fffff0; fill-opacity: 1; stroke-opacity: 1; stroke-width: 2; stroke: #000000" x="320" y="380" width="20" height="20" rx="0" ry="0"/>
    <rect style="fill: #ff7f50; fill-opacity: 1; stroke-opacity: 1; stroke-width: 2; stroke: #000000" x="340" y="380" width="20" height="20" rx="0" ry="0"/>
    <rect style="fill: #fffff0; fill-opacity: 1; stroke-opacity: 1; stroke-width: 2; stroke: #000000" x="360" y="380" width="20" height="20" rx="0" ry="0"/>
    <rect style="fill: #ff7f50; fill-opacity: 1; stroke-opacity: 1; stroke-width: 2; stroke: #000000" x="380" y="380" width="20" height="20" rx="0" ry="0"/>
    <rect style="fill: #fffff0; fill-opacity: 1; stroke-opacity: 1; stroke-width: 2; stroke: #000000" x="340" y="400" width="20" height="20" rx="0" ry="0"/>
    <rect style="fill: #ff7f50; fill-opacity: 1; stroke-opacity: 1; stroke-width: 2; stroke: #000000" x="360" y="400" width="20" height="20" rx="0" ry="0"/>
    <rect style="fill: #fffff0; fill-opacity: 1; stroke-opacity: 1; stroke-width: 2; stroke: #000000" x="380" y="400" width="20" height="20" rx="0" ry="0"/>
    <rect style="fill: #ff7f50; fill-opacity: 1; stroke-opacity: 1; stroke-width: 2; stroke: #000000" x="320" y="400" width="20" height="20" rx="0" ry="0"/>
    <rect style="fill: #fffff0; fill-opacity: 1; stroke-opacity: 1; stroke-width: 2; stroke: #000000" x="320" y="420" width="20" height="20" rx="0" ry="0"/>
    <rect style="fill: #ff7f50; fill-opacity: 1; stroke-opacity: 1; stroke-width: 2; stroke: #000000" x="340" y="420" width="20" height="20" rx="0" ry="0"/>
    <rect style="fill: #fffff0; fill-opacity: 1; stroke-opacity: 1; stroke-width: 2; stroke: #000000" x="360" y="420" width="20" height="20" rx="0" ry="0"/>
    <rect style="fill: #ff7f50; fill-opacity: 1; stroke-opacity: 1; stroke-width: 2; stroke: #000000" x="380" y="420" width="20" height="20" rx="0" ry="0"/>
    <rect style="fill: #fffff0; fill-opacity: 1; stroke-opacity: 1; stroke-width: 2; stroke: #000000" x="340" y="440" width="20" height="20" rx="0" ry="0"/>
    <rect style="fill: #fffff0; fill-opacity: 1; stroke-opacity: 1; stroke-width: 2; stroke: #000000" x="380" y="440" width="20" height="20" rx="0" ry="0"/>
    <rect style="fill: #ff7f50; fill-opacity: 1; stroke-opacity: 1; stroke-width: 2; stroke: #000000" x="320" y="440" width="20" height="20" rx="0" ry="0"/>
    <text font-size="16.9333" style="fill: #000000; fill-opacity: 1; stroke: none;text-anchor:middle;font-family:sans-serif;font-style:normal;font-weight:normal" x="370" y="415.875">
      <tspan x="370" y="415.875">♛</tspan>
    </text>
    <rect style="fill: #ff7f50; fill-opacity: 1; stroke-opacity: 1; stroke-width: 2; stroke: #000000" x="440" y="440" width="20" height="20" rx="0" ry="0"/>
    <rect style="fill: #fffff0; fill-opacity: 1; stroke-opacity: 1; stroke-width: 2; stroke: #000000" x="400" y="380" width="20" height="20" rx="0" ry="0"/>
    <rect style="fill: #ff7f50; fill-opacity: 1; stroke-opacity: 1; stroke-width: 2; stroke: #000000" x="420" y="380" width="20" height="20" rx="0" ry="0"/>
    <rect style="fill: #fffff0; fill-opacity: 1; stroke-opacity: 1; stroke-width: 2; stroke: #000000" x="440" y="380" width="20" height="20" rx="0" ry="0"/>
    <rect style="fill: #ff7f50; fill-opacity: 1; stroke-opacity: 1; stroke-width: 2; stroke: #000000" x="460" y="380" width="20" height="20" rx="0" ry="0"/>
    <rect style="fill: #fffff0; fill-opacity: 1; stroke-opacity: 1; stroke-width: 2; stroke: #000000" x="420" y="400" width="20" height="20" rx="0" ry="0"/>
    <rect style="fill: #ff7f50; fill-opacity: 1; stroke-opacity: 1; stroke-width: 2; stroke: #000000" x="440" y="400" width="20" height="20" rx="0" ry="0"/>
    <rect style="fill: #fffff0; fill-opacity: 1; stroke-opacity: 1; stroke-width: 2; stroke: #000000" x="460" y="400" width="20" height="20" rx="0" ry="0"/>
    <rect style="fill: #ff7f50; fill-opacity: 1; stroke-opacity: 1; stroke-width: 2; stroke: #000000" x="400" y="400" width="20" height="20" rx="0" ry="0"/>
    <rect style="fill: #fffff0; fill-opacity: 1; stroke-opacity: 1; stroke-width: 2; stroke: #000000" x="400" y="420" width="20" height="20" rx="0" ry="0"/>
    <rect style="fill: #ff7f50; fill-opacity: 1; stroke-opacity: 1; stroke-width: 2; stroke: #000000" x="420" y="420" width="20" height="20" rx="0" ry="0"/>
    <rect style="fill: #fffff0; fill-opacity: 1; stroke-opacity: 1; stroke-width: 2; stroke: #000000" x="440" y="420" width="20" height="20" rx="0" ry="0"/>
    <rect style="fill: #ff7f50; fill-opacity: 1; stroke-opacity: 1; stroke-width: 2; stroke: #000000" x="460" y="420" width="20" height="20" rx="0" ry="0"/>
    <rect style="fill: #fffff0; fill-opacity: 1; stroke-opacity: 1; stroke-width: 2; stroke: #000000" x="420" y="440" width="20" height="20" rx="0" ry="0"/>
    <rect style="fill: #fffff0; fill-opacity: 1; stroke-opacity: 1; stroke-width: 2; stroke: #000000" x="460" y="440" width="20" height="20" rx="0" ry="0"/>
    <rect style="fill: #ff7f50; fill-opacity: 1; stroke-opacity: 1; stroke-width: 2; stroke: #000000" x="400" y="440" width="20" height="20" rx="0" ry="0"/>
    <text font-size="16.9333" style="fill: #000000; fill-opacity: 1; stroke: none;text-anchor:middle;font-family:sans-serif;font-style:normal;font-weight:normal" x="410" y="435.875">
      <tspan x="410" y="435.875">♛</tspan>
    </text>
    <text font-size="16.9333" style="fill: #000000; fill-opacity: 1; stroke: none;text-anchor:middle;font-family:sans-serif;font-style:normal;font-weight:normal" x="450" y="455.875">
      <tspan x="450" y="455.875">♛</tspan>
    </text>
    <rect style="fill: #ff7f50; fill-opacity: 1; stroke-opacity: 1; stroke-width: 2; stroke: #000000" x="360" y="520" width="20" height="20" rx="0" ry="0"/>
    <rect style="fill: #fffff0; fill-opacity: 1; stroke-opacity: 1; stroke-width: 2; stroke: #000000" x="320" y="460" width="20" height="20" rx="0" ry="0"/>
    <rect style="fill: #ff7f50; fill-opacity: 1; stroke-opacity: 1; stroke-width: 2; stroke: #000000" x="340" y="460" width="20" height="20" rx="0" ry="0"/>
    <rect style="fill: #fffff0; fill-opacity: 1; stroke-opacity: 1; stroke-width: 2; stroke: #000000" x="360" y="460" width="20" height="20" rx="0" ry="0"/>
    <rect style="fill: #ff7f50; fill-opacity: 1; stroke-opacity: 1; stroke-width: 2; stroke: #000000" x="380" y="460" width="20" height="20" rx="0" ry="0"/>
    <rect style="fill: #fffff0; fill-opacity: 1; stroke-opacity: 1; stroke-width: 2; stroke: #000000" x="340" y="480" width="20" height="20" rx="0" ry="0"/>
    <rect style="fill: #ff7f50; fill-opacity: 1; stroke-opacity: 1; stroke-width: 2; stroke: #000000" x="360" y="480" width="20" height="20" rx="0" ry="0"/>
    <rect style="fill: #fffff0; fill-opacity: 1; stroke-opacity: 1; stroke-width: 2; stroke: #000000" x="380" y="480" width="20" height="20" rx="0" ry="0"/>
    <rect style="fill: #ff7f50; fill-opacity: 1; stroke-opacity: 1; stroke-width: 2; stroke: #000000" x="320" y="480" width="20" height="20" rx="0" ry="0"/>
    <rect style="fill: #fffff0; fill-opacity: 1; stroke-opacity: 1; stroke-width: 2; stroke: #000000" x="320" y="500" width="20" height="20" rx="0" ry="0"/>
    <rect style="fill: #ff7f50; fill-opacity: 1; stroke-opacity: 1; stroke-width: 2; stroke: #000000" x="340" y="500" width="20" height="20" rx="0" ry="0"/>
    <rect style="fill: #fffff0; fill-opacity: 1; stroke-opacity: 1; stroke-width: 2; stroke: #000000" x="360" y="500" width="20" height="20" rx="0" ry="0"/>
    <rect style="fill: #ff7f50; fill-opacity: 1; stroke-opacity: 1; stroke-width: 2; stroke: #000000" x="380" y="500" width="20" height="20" rx="0" ry="0"/>
    <rect style="fill: #fffff0; fill-opacity: 1; stroke-opacity: 1; stroke-width: 2; stroke: #000000" x="340" y="520" width="20" height="20" rx="0" ry="0"/>
    <rect style="fill: #fffff0; fill-opacity: 1; stroke-opacity: 1; stroke-width: 2; stroke: #000000" x="380" y="520" width="20" height="20" rx="0" ry="0"/>
    <rect style="fill: #ff7f50; fill-opacity: 1; stroke-opacity: 1; stroke-width: 2; stroke: #000000" x="320" y="520" width="20" height="20" rx="0" ry="0"/>
    <text font-size="16.9333" style="fill: #000000; fill-opacity: 1; stroke: none;text-anchor:middle;font-family:sans-serif;font-style:normal;font-weight:normal" x="350" y="475.875">
      <tspan x="350" y="475.875">♛</tspan>
    </text>
    <text font-size="16.9333" style="fill: #000000; fill-opacity: 1; stroke: none;text-anchor:middle;font-family:sans-serif;font-style:normal;font-weight:normal" x="390" y="495.875">
      <tspan x="390" y="495.875">♛</tspan>
    </text>
    <text font-size="16.9333" style="fill: #000000; fill-opacity: 1; stroke: none;text-anchor:middle;font-family:sans-serif;font-style:normal;font-weight:normal" x="470" y="535.875">
      <tspan x="470" y="535.875">♛</tspan>
    </text>
    <rect style="fill: #ff7f50; fill-opacity: 1; stroke-opacity: 1; stroke-width: 2; stroke: #000000" x="440" y="520" width="20" height="20" rx="0" ry="0"/>
    <rect style="fill: #fffff0; fill-opacity: 1; stroke-opacity: 1; stroke-width: 2; stroke: #000000" x="400" y="460" width="20" height="20" rx="0" ry="0"/>
    <rect style="fill: #ff7f50; fill-opacity: 1; stroke-opacity: 1; stroke-width: 2; stroke: #000000" x="420" y="460" width="20" height="20" rx="0" ry="0"/>
    <rect style="fill: #fffff0; fill-opacity: 1; stroke-opacity: 1; stroke-width: 2; stroke: #000000" x="440" y="460" width="20" height="20" rx="0" ry="0"/>
    <rect style="fill: #ff7f50; fill-opacity: 1; stroke-opacity: 1; stroke-width: 2; stroke: #000000" x="460" y="460" width="20" height="20" rx="0" ry="0"/>
    <rect style="fill: #fffff0; fill-opacity: 1; stroke-opacity: 1; stroke-width: 2; stroke: #000000" x="420" y="480" width="20" height="20" rx="0" ry="0"/>
    <rect style="fill: #ff7f50; fill-opacity: 1; stroke-opacity: 1; stroke-width: 2; stroke: #000000" x="440" y="480" width="20" height="20" rx="0" ry="0"/>
    <rect style="fill: #fffff0; fill-opacity: 1; stroke-opacity: 1; stroke-width: 2; stroke: #000000" x="460" y="480" width="20" height="20" rx="0" ry="0"/>
    <rect style="fill: #ff7f50; fill-opacity: 1; stroke-opacity: 1; stroke-width: 2; stroke: #000000" x="400" y="480" width="20" height="20" rx="0" ry="0"/>
    <rect style="fill: #fffff0; fill-opacity: 1; stroke-opacity: 1; stroke-width: 2; stroke: #000000" x="400" y="500" width="20" height="20" rx="0" ry="0"/>
    <rect style="fill: #ff7f50; fill-opacity: 1; stroke-opacity: 1; stroke-width: 2; stroke: #000000" x="420" y="500" width="20" height="20" rx="0" ry="0"/>
    <rect style="fill: #fffff0; fill-opacity: 1; stroke-opacity: 1; stroke-width: 2; stroke: #000000" x="440" y="500" width="20" height="20" rx="0" ry="0"/>
    <rect style="fill: #ff7f50; fill-opacity: 1; stroke-opacity: 1; stroke-width: 2; stroke: #000000" x="460" y="500" width="20" height="20" rx="0" ry="0"/>
    <rect style="fill: #fffff0; fill-opacity: 1; stroke-opacity: 1; stroke-width: 2; stroke: #000000" x="420" y="520" width="20" height="20" rx="0" ry="0"/>
    <rect style="fill: #fffff0; fill-opacity: 1; stroke-opacity: 1; stroke-width: 2; stroke: #000000" x="460" y="520" width="20" height="20" rx="0" ry="0"/>
    <rect style="fill: #ff7f50; fill-opacity: 1; stroke-opacity: 1; stroke-width: 2; stroke: #000000" x="400" y="520" width="20" height="20" rx="0" ry="0"/>
    <text font-size="16.9333" style="fill: #000000; fill-opacity: 1; stroke: none;text-anchor:middle;font-family:sans-serif;font-style:normal;font-weight:normal" x="430" y="515.875">
      <tspan x="430" y="515.875">♛</tspan>
    </text>
    <text font-size="16.9333" style="fill: #000000; fill-opacity: 1; stroke: none;text-anchor:middle;font-family:sans-serif;font-style:normal;font-weight:normal" x="330" y="395.875">
      <tspan x="330" y="395.875">♛</tspan>
    </text>
    <text font-size="16.9333" style="fill: #000000; fill-opacity: 1; stroke: none;text-anchor:middle;font-family:sans-serif;font-style:normal;font-weight:normal" x="470" y="535.875">
      <tspan x="470" y="535.875">♛</tspan>
    </text>
    <g>
      <line style="fill: none; stroke-opacity: 1; stroke-width: 4; stroke: #ff0000" x1="390" y1="479.016" x2="390" y2="391.972"/>
      <polygon style="fill: #ff0000; fill-opacity: 1; stroke-opacity: 1; stroke-width: 4; stroke: #ff0000" fill-rule="evenodd" points="390,384.472 395,394.472 390,391.972 385,394.472 "/>
    </g>
    <g>
      <line style="fill: none; stroke-opacity: 1; stroke-width: 4; stroke: #ff0000" x1="400.997" y1="479.003" x2="471.534" y2="408.466"/>
      <polygon style="fill: #ff0000; fill-opacity: 1; stroke-opacity: 1; stroke-width: 4; stroke: #ff0000" fill-rule="evenodd" points="476.838,403.162 473.302,413.769 471.534,408.466 466.231,406.698 "/>
    </g>
    <g>
      <line style="fill: none; stroke-opacity: 1; stroke-width: 4; stroke: #ff0000" x1="400.997" y1="490" x2="468.028" y2="490"/>
      <polygon style="fill: #ff0000; fill-opacity: 1; stroke-opacity: 1; stroke-width: 4; stroke: #ff0000" fill-rule="evenodd" points="475.528,490 465.528,495 468.028,490 465.528,485 "/>
    </g>
    <g>
      <line style="fill: none; stroke-opacity: 1; stroke-width: 4; stroke: #ff0000" x1="390" y1="500.999" x2="390" y2="528.028"/>
      <polygon style="fill: #ff0000; fill-opacity: 1; stroke-opacity: 1; stroke-width: 4; stroke: #ff0000" fill-rule="evenodd" points="390,535.528 385,525.528 390,528.028 395,525.528 "/>
    </g>
    <g>
      <line style="fill: none; stroke-opacity: 1; stroke-width: 4; stroke: #ff0000" x1="378.998" y1="501.002" x2="348.466" y2="531.534"/>
      <polygon style="fill: #ff0000; fill-opacity: 1; stroke-opacity: 1; stroke-width: 4; stroke: #ff0000" fill-rule="evenodd" points="343.162,536.838 346.698,526.231 348.466,531.534 353.769,533.302 "/>
    </g>
    <g>
      <line style="fill: none; stroke-opacity: 1; stroke-width: 4; stroke: #ff0000" x1="379.028" y1="490" x2="331.972" y2="490"/>
      <polygon style="fill: #ff0000; fill-opacity: 1; stroke-opacity: 1; stroke-width: 4; stroke: #ff0000" fill-rule="evenodd" points="324.472,490 334.472,485 331.972,490 334.472,495 "/>
    </g>
    <g>
      <line style="fill: none; stroke-opacity: 1; stroke-width: 4; stroke: #ff0000" x1="379.028" y1="479.028" x2="328.466" y2="428.466"/>
      <polygon style="fill: #ff0000; fill-opacity: 1; stroke-opacity: 1; stroke-width: 4; stroke: #ff0000" fill-rule="evenodd" points="323.162,423.162 333.769,426.698 328.466,428.466 326.698,433.769 "/>
    </g>
    <g>
      <line style="fill: none; stroke-opacity: 1; stroke-width: 4; stroke: #ff0000" x1="401.002" y1="501.002" x2="431.534" y2="531.534"/>
      <polygon style="fill: #ff0000; fill-opacity: 1; stroke-opacity: 1; stroke-width: 4; stroke: #ff0000" fill-rule="evenodd" points="436.838,536.838 426.231,533.302 431.534,531.534 433.302,526.231 "/>
    </g>
  </g>
</svg>
