<?xml version="1.0" encoding="UTF-8" standalone="no"?>
<!-- Created with Inkscape (http://www.inkscape.org/) -->
<svg xmlns:dc="http://purl.org/dc/elements/1.1/" xmlns:cc="http://creativecommons.org/ns#" xmlns:rdf="http://www.w3.org/1999/02/22-rdf-syntax-ns#" xmlns:svg="http://www.w3.org/2000/svg" xmlns="http://www.w3.org/2000/svg" xmlns:xlink="http://www.w3.org/1999/xlink" xmlns:sodipodi="http://sodipodi.sourceforge.net/DTD/sodipodi-0.dtd" xmlns:inkscape="http://www.inkscape.org/namespaces/inkscape" viewBox="0 0 289.1217 340.96021" id="svg2" version="1.1" inkscape:version="0.48.1 " sodipodi:docname="Dynamic_array.svg">
  <defs id="defs4"/>
  <sodipodi:namedview id="base" pagecolor="#ffffff" bordercolor="#666666" borderopacity="1.0" inkscape:pageopacity="0.0" inkscape:pageshadow="2" inkscape:zoom="1.7494616" inkscape:cx="142.06086" inkscape:cy="170.47994" inkscape:document-units="px" inkscape:current-layer="layer1" showgrid="false" inkscape:window-width="1444" inkscape:window-height="827" inkscape:window-x="125" inkscape:window-y="73" inkscape:window-maximized="0" fit-margin-top="3" fit-margin-left="3" fit-margin-right="8" fit-margin-bottom="3"/>
  <metadata id="metadata7">
    <rdf:RDF>
      <cc:Work rdf:about="">
        <dc:format>image/svg+xml</dc:format>
        <dc:type rdf:resource="http://purl.org/dc/dcmitype/StillImage"/>
        <dc:title/>
      </cc:Work>
    </rdf:RDF>
  </metadata>
  <g inkscape:label="Layer 1" inkscape:groupmode="layer" id="layer1" transform="translate(-62.871823,-135.03563)">
    <rect style="fill:#ffffff;stroke:#000000;stroke-width:1;stroke-miterlimit:4;stroke-opacity:1;stroke-dasharray:none" id="rect2985-17-8" width="28.571428" height="28.571428" x="114.28571" y="138.53563" inkscape:tile-cx="128.57143" inkscape:tile-cy="249.50504" inkscape:tile-w="28.571428" inkscape:tile-h="28.571428" inkscape:tile-x0="114.28571" inkscape:tile-y0="235.21933"/>
    <rect inkscape:tile-y0="235.21933" inkscape:tile-x0="114.28571" y="138.53564" x="142.85715" height="28.571428" width="28.571428" id="use2989-0-7" style="fill:#ffffff;stroke:#c3c3c3;stroke-width:1;stroke-miterlimit:4;stroke-opacity:1;stroke-dasharray:4, 1;stroke-dashoffset:0"/>
    <use transform="translate(-3.2494106e-7,4.5073618e-6)" height="1052.3622" width="744.09448" x="0" y="0" inkscape:tiled-clone-of="#rect2985-17-8" xlink:href="#rect2985-17-8" id="use2987-4-7" style="stroke:#000000;stroke-opacity:1"/>
    <text xml:space="preserve" style="font-size:40px;font-style:normal;font-weight:normal;line-height:125%;letter-spacing:0px;word-spacing:0px;fill:#000000;fill-opacity:1;stroke:none;font-family:Sans" x="118.64367" y="163.95416" id="text3866" sodipodi:linespacing="125%"><tspan sodipodi:role="line" id="tspan3868" x="118.64367" y="163.95416" style="font-size:30px;font-style:normal;font-variant:normal;font-weight:normal;font-stretch:normal;font-family:DejaVu Sans;-inkscape-font-specification:DejaVu Sans">2</tspan></text>
    <g id="g3877" transform="translate(-0.80243568,4.198288)">
      <rect inkscape:tile-y0="235.21933" inkscape:tile-x0="114.28571" inkscape:tile-h="28.571428" inkscape:tile-w="28.571428" inkscape:tile-cy="249.50504" inkscape:tile-cx="128.57143" y="182.47726" x="115.08815" height="28.571428" width="28.571428" id="rect2985-17" style="fill:#ffffff;stroke:#000000;stroke-width:1;stroke-miterlimit:4;stroke-opacity:1;stroke-dasharray:none"/>
      <use style="stroke:#000000;stroke-opacity:1" id="use2987-4" xlink:href="#rect2985-17" inkscape:tiled-clone-of="#rect2985-17" y="0" x="0" width="744.09448" height="1052.3622" transform="translate(-1.4730069e-6,3.8722031e-6)"/>
      <use style="stroke:#000000;stroke-opacity:1" id="use2989-0" transform="translate(28.571424,3.8722031e-6)" xlink:href="#rect2985-17" inkscape:tiled-clone-of="#rect2985-17" y="0" x="0" width="744.09448" height="1052.3622"/>
    </g>
    <text xml:space="preserve" style="font-size:40px;font-style:normal;font-weight:normal;line-height:125%;letter-spacing:0px;word-spacing:0px;fill:#000000;fill-opacity:1;stroke:none;font-family:Sans" x="118.64367" y="211.64116" id="text3866-6" sodipodi:linespacing="125%"><tspan sodipodi:role="line" id="tspan3868-9" x="118.64367" y="211.64116" style="font-size:30px;font-style:normal;font-variant:normal;font-weight:normal;font-stretch:normal;font-family:DejaVu Sans;-inkscape-font-specification:DejaVu Sans">2</tspan></text>
    <text xml:space="preserve" style="font-size:40px;font-style:normal;font-weight:normal;line-height:125%;letter-spacing:0px;word-spacing:0px;fill:#000000;fill-opacity:1;stroke:none;font-family:Sans" x="147.50781" y="211.44341" id="text3866-32" sodipodi:linespacing="125%"><tspan sodipodi:role="line" id="tspan3868-6" x="147.50781" y="211.44341" style="font-size:30px;font-style:normal;font-variant:normal;font-weight:normal;font-stretch:normal;font-family:DejaVu Sans;-inkscape-font-specification:DejaVu Sans">7</tspan></text>
    <rect style="fill:#ffffff;stroke:#000000;stroke-width:1;stroke-miterlimit:4;stroke-opacity:1;stroke-dasharray:none" id="rect2985" width="28.571428" height="28.571428" x="114.28571" y="234.81549" inkscape:tile-cx="128.57143" inkscape:tile-cy="249.50504" inkscape:tile-w="28.571428" inkscape:tile-h="28.571428" inkscape:tile-x0="114.28571" inkscape:tile-y0="235.21933"/>
    <use x="0" y="0" inkscape:tiled-clone-of="#rect2985" xlink:href="#rect2985" id="use2987" style="stroke:#000000;stroke-opacity:1" width="744.09448" height="1052.3622"/>
    <use x="0" y="0" inkscape:tiled-clone-of="#rect2985" xlink:href="#rect2985" transform="translate(28.571428,0)" id="use2989" style="stroke:#000000;stroke-opacity:1" width="744.09448" height="1052.3622"/>
    <rect inkscape:tile-y0="235.21933" inkscape:tile-x0="114.28571" y="234.81549" x="200" height="28.571428" width="28.571428" id="use2993" style="fill:#ffffff;fill-opacity:1;stroke:#c3c3c3;stroke-width:1;stroke-miterlimit:4;stroke-opacity:1;stroke-dasharray:4, 1;stroke-dashoffset:0"/>
    <use x="0" y="0" inkscape:tiled-clone-of="#rect2985" xlink:href="#rect2985" transform="translate(57.142857,0)" id="use2991" style="stroke:#000000;stroke-opacity:1" width="744.09448" height="1052.3622"/>
    <text xml:space="preserve" style="font-size:40px;font-style:normal;font-weight:normal;line-height:125%;letter-spacing:0px;word-spacing:0px;fill:#000000;fill-opacity:1;stroke:none;font-family:Sans" x="118.64367" y="259.45157" id="text3866-3" sodipodi:linespacing="125%"><tspan sodipodi:role="line" id="tspan3868-8" x="118.64367" y="259.45157" style="font-size:30px;font-style:normal;font-variant:normal;font-weight:normal;font-stretch:normal;font-family:DejaVu Sans;-inkscape-font-specification:DejaVu Sans">2</tspan></text>
    <text xml:space="preserve" style="font-size:40px;font-style:normal;font-weight:normal;line-height:125%;letter-spacing:0px;word-spacing:0px;fill:#000000;fill-opacity:1;stroke:none;font-family:Sans" x="147.50781" y="259.25381" id="text3866-32-0" sodipodi:linespacing="125%"><tspan sodipodi:role="line" id="tspan3868-6-8" x="147.50781" y="259.25381" style="font-size:30px;font-style:normal;font-variant:normal;font-weight:normal;font-stretch:normal;font-family:DejaVu Sans;-inkscape-font-specification:DejaVu Sans">7</tspan></text>
    <text xml:space="preserve" style="font-size:40px;font-style:normal;font-weight:normal;line-height:125%;letter-spacing:0px;word-spacing:0px;fill:#000000;fill-opacity:1;stroke:none;font-family:Sans" x="176.00781" y="259.25381" id="text3866-32-8" sodipodi:linespacing="125%"><tspan sodipodi:role="line" id="tspan3868-6-1" x="176.00781" y="259.25381" style="font-size:30px;font-style:normal;font-variant:normal;font-weight:normal;font-stretch:normal;font-family:DejaVu Sans;-inkscape-font-specification:DejaVu Sans">1</tspan></text>
    <g id="g3889" transform="translate(-0.29736048,2.4934311)">
      <rect inkscape:tile-y0="235.21933" inkscape:tile-x0="114.28571" inkscape:tile-h="28.571428" inkscape:tile-w="28.571428" inkscape:tile-cy="249.50504" inkscape:tile-cx="128.57143" y="280.46204" x="114.58308" height="28.571428" width="28.571428" id="rect2985-1" style="fill:#ffffff;stroke:#000000;stroke-width:1;stroke-miterlimit:4;stroke-opacity:1;stroke-dasharray:none"/>
      <use style="stroke:#000000;stroke-opacity:1" id="use2987-7" xlink:href="#rect2985-1" inkscape:tiled-clone-of="#rect2985-1" y="0" x="0" width="744.09448" height="1052.3622" transform="translate(-3.1272566e-6,5.0105963e-6)"/>
      <use style="stroke:#000000;stroke-opacity:1" id="use2989-4" transform="translate(28.57143,5.0105963e-6)" xlink:href="#rect2985-1" inkscape:tiled-clone-of="#rect2985-1" y="0" x="0" width="744.09448" height="1052.3622"/>
      <use style="stroke:#000000;stroke-opacity:1" id="use2991-0" transform="translate(57.14286,5.0105963e-6)" xlink:href="#rect2985-1" inkscape:tiled-clone-of="#rect2985-1" y="0" x="0" width="744.09448" height="1052.3622"/>
      <use style="stroke:#000000;stroke-opacity:1" id="use2993-9" transform="translate(85.71429,5.0105963e-6)" xlink:href="#rect2985-1" inkscape:tiled-clone-of="#rect2985-1" y="0" x="0" width="744.09448" height="1052.3622"/>
    </g>
    <text xml:space="preserve" style="font-size:40px;font-style:normal;font-weight:normal;line-height:125%;letter-spacing:0px;word-spacing:0px;fill:#000000;fill-opacity:1;stroke:none;font-family:Sans" x="118.64367" y="308.00308" id="text3866-9" sodipodi:linespacing="125%"><tspan sodipodi:role="line" id="tspan3868-81" x="118.64367" y="308.00308" style="font-size:30px;font-style:normal;font-variant:normal;font-weight:normal;font-stretch:normal;font-family:DejaVu Sans;-inkscape-font-specification:DejaVu Sans">2</tspan></text>
    <text xml:space="preserve" style="font-size:40px;font-style:normal;font-weight:normal;line-height:125%;letter-spacing:0px;word-spacing:0px;fill:#000000;fill-opacity:1;stroke:none;font-family:Sans" x="147.50781" y="307.80533" id="text3866-32-7" sodipodi:linespacing="125%"><tspan sodipodi:role="line" id="tspan3868-6-0" x="147.50781" y="307.80533" style="font-size:30px;font-style:normal;font-variant:normal;font-weight:normal;font-stretch:normal;font-family:DejaVu Sans;-inkscape-font-specification:DejaVu Sans">7</tspan></text>
    <text xml:space="preserve" style="font-size:40px;font-style:normal;font-weight:normal;line-height:125%;letter-spacing:0px;word-spacing:0px;fill:#000000;fill-opacity:1;stroke:none;font-family:Sans" x="176.00781" y="307.80533" id="text3866-32-8-3" sodipodi:linespacing="125%"><tspan sodipodi:role="line" id="tspan3868-6-1-8" x="176.00781" y="307.80533" style="font-size:30px;font-style:normal;font-variant:normal;font-weight:normal;font-stretch:normal;font-family:DejaVu Sans;-inkscape-font-specification:DejaVu Sans">1</tspan></text>
    <text xml:space="preserve" style="font-size:40px;font-style:normal;font-weight:normal;line-height:125%;letter-spacing:0px;word-spacing:0px;fill:#000000;fill-opacity:1;stroke:none;font-family:Sans" x="204.69287" y="307.79068" id="text3866-32-8-5" sodipodi:linespacing="125%"><tspan sodipodi:role="line" id="tspan3868-6-1-1" x="204.69287" y="307.79068" style="font-size:30px;font-style:normal;font-variant:normal;font-weight:normal;font-stretch:normal;font-family:DejaVu Sans;-inkscape-font-specification:DejaVu Sans">3</tspan></text>
    <g transform="matrix(0.38484605,0,0,0.38484605,-33.418496,45.045865)" id="layer1-5" style="fill:#008000">
      <path inkscape:connector-curvature="0" d="m 314.75,504.65625 c -2.85208,-0.0232 -5.82056,0.31393 -8.875,1.03125 -0.0821,0.0193 -0.16772,0.0427 -0.25,0.0625 -3.58031,0.73713 -6.79602,1.9471 -9.15625,3.5625 -1.51876,0.80037 -3.07482,1.70801 -4.625,2.6875 -0.007,0.005 -0.0238,-0.005 -0.0312,0 -1.99582,0.72813 -6.1574,3.98109 -9.78125,7.28125 -0.0229,0.0204 -0.0397,0.0421 -0.0625,0.0625 -0.0223,0.0204 -0.0402,0.0421 -0.0625,0.0625 -0.74252,0.65233 -1.44594,1.31466 -2.125,1.96875 -0.0308,0.0297 -0.0631,0.064 -0.0937,0.0937 -2.23269,2.16029 -4.09477,4.27547 -5.3125,6.21875 -0.004,0.007 -0.0233,-0.004 -0.0312,0 -0.2987,-0.0941 -0.6346,-0.20345 -0.96875,-0.375 -0.33027,-0.16955 -0.64436,-0.38826 -0.96875,-0.625 -0.011,-0.007 -0.0202,-0.0238 -0.0312,-0.0312 -0.18174,-0.13434 -0.36177,-0.25287 -0.53125,-0.40625 -0.22853,-0.20682 -0.57273,-0.45208 -0.96875,-0.65625 -0.0301,-0.0155 -0.0629,-0.0158 -0.0937,-0.0312 -0.0513,-0.034 -0.10469,-0.0608 -0.15625,-0.0937 -0.007,-0.004 -0.0242,0.004 -0.0312,0 C 268.4622,524.11296 266.10168,523.634 264,523.875 c -0.43868,0 -0.87494,0.0364 -1.28125,0.125 -0.0199,0.004 -0.0427,-0.005 -0.0625,0 -1.25525,0.0979 -1.94649,0.53072 -2.71875,1.53125 -0.008,0.0109 -0.0228,0.0202 -0.0312,0.0312 -0.98452,0.86621 -1.6163,2.03238 -1.8125,3.4375 -0.0364,0.17539 -0.052,0.36516 -0.0625,0.53125 -0.005,0.10751 -0.0312,0.20245 -0.0312,0.3125 0,0.17702 0.0612,0.36869 0.125,0.5625 0.005,0.0193 -0.005,0.0433 0,0.0625 0.0181,0.0512 0.0404,0.10427 0.0625,0.15625 0.0496,0.14166 0.11318,0.27103 0.1875,0.40625 0.0519,0.0945 0.0922,0.18963 0.15625,0.28125 0.0609,0.0879 0.14676,0.16456 0.21875,0.25 0.042,0.0497 0.0792,0.10731 0.125,0.15625 0.005,0.006 0.0259,-0.006 0.0312,0 0.0342,0.0361 0.0574,0.0893 0.0937,0.125 1.33766,1.54085 3.73862,3.03125 5.4375,3.03125 0.0867,0 0.19894,0.0125 0.3125,0.0312 1.57593,0.7344 3.15948,1.48679 4.34375,2.09375 0.96465,0.49439 2.12146,0.94678 3.21875,1.28125 0.0401,0.0122 0.085,0.0193 0.125,0.0312 0.5121,0.16649 1.03469,0.27928 1.5,0.375 0.10796,0.0216 0.20937,0.0448 0.3125,0.0625 0.12896,0.0219 0.25402,0.0478 0.375,0.0625 0.0401,0.005 0.086,-0.004 0.125,0 0.0432,0.004 0.0831,-0.003 0.125,0 0.1671,0.0158 0.32646,0.0625 0.46875,0.0625 0.0868,0 0.1653,-0.003 0.25,0 0.26598,0.008 0.54428,0.0316 0.78125,0.0625 0.29927,0.0387 0.58212,0.0919 0.8125,0.15625 0.23688,0.0727 0.42977,0.15406 0.5625,0.25 0.0384,0.024 0.0643,0.0373 0.0937,0.0625 0.019,0.0207 0.0493,0.0411 0.0625,0.0625 0.004,0.005 -0.003,0.026 0,0.0312 0.0205,0.0408 0.0643,0.0823 0.0625,0.125 10e-4,0.009 0,0.0217 0,0.0312 -0.006,0.0603 -0.0347,0.10917 -0.0625,0.1875 -0.007,0.0117 0.007,0.0188 0,0.0312 -0.002,0.004 -0.0296,-0.004 -0.0312,0 -0.002,0.006 0.002,0.0255 0,0.0312 -0.005,0.0114 0.006,0.0193 0,0.0312 -0.51293,0.82777 -2.49339,2.97331 -4.84375,5.21875 -1.28172,1.22451 -2.23755,2.09218 -2.90625,2.8125 l -0.8125,0.65625 c -0.22661,0.14129 -0.4248,0.25 -0.53125,0.25 -0.15332,0 -0.19546,0.1091 -0.1875,0.3125 l -0.5,0.40625 0.71875,0.78125 c 0.0678,0.46726 0.41627,0.89125 0.9375,1.5 0.42228,0.49318 0.87154,0.87811 1.34375,1.1875 0.19641,0.12868 0.38906,0.2468 0.59375,0.34375 0.1113,0.0527 0.23004,0.1129 0.34375,0.15625 0.61751,0.25558 1.26,0.34542 1.96875,0.28125 0.16503,-0.0149 0.33004,-0.0302 0.5,-0.0625 0.01,-0.002 0.0213,0.002 0.0312,0 0.0517,-5.7e-4 0.10458,0.002 0.15625,0 0.0192,-0.004 0.0432,0.004 0.0625,0 1.49219,-0.0768 2.99199,-0.777 4.21875,-2.09375 0.11914,-0.12788 0.23007,-0.24664 0.34375,-0.375 0.54976,-0.45626 1.08392,-0.98442 1.65625,-1.5625 1.45144,-1.46602 2.55943,-2.42893 3.46875,-2.96875 0.0215,-0.0123 0.0412,-0.0194 0.0625,-0.0312 0.0883,-0.0512 0.16545,-0.0818 0.25,-0.125 0.009,-0.004 0.0227,0.004 0.0312,0 0.69854,-0.18731 1.38378,-0.27726 1.875,-0.25 0.0401,0.0141 0.0856,0.0144 0.125,0.0312 0.0688,0.0295 0.27267,0.0592 0.375,0.0937 0.0784,0.0265 0.18446,0.0645 0.28125,0.0937 0.0236,0.007 0.038,0.0242 0.0625,0.0312 0.0376,0.0145 0.0496,0.0158 0.0937,0.0312 0.0464,0.0133 0.0754,0.0175 0.125,0.0312 0.15533,0.042 0.25451,0.0793 0.4375,0.125 0.0254,0.007 0.0362,0.0239 0.0625,0.0312 2.55896,0.71992 9.26836,2.02732 14.40625,2.84375 0.50846,0.11746 1.04386,0.2447 1.40625,0.34375 0.15569,0.0426 0.2507,0.0868 0.375,0.125 0.0365,0.0119 0.0919,0.0198 0.125,0.0312 0.037,0.0119 0.0916,0.0198 0.125,0.0312 0.0967,0.0375 0.20092,0.0947 0.25,0.125 0.0319,0.015 0.1033,0.0178 0.125,0.0312 0.0726,0.0288 0.14824,0.0627 0.28125,0.0937 0.0396,0.0112 0.0469,0.0199 0.0937,0.0312 2.34078,0.56959 13.47452,1.40953 19.875,1.5625 0.60844,0.0876 1.19234,0.16072 1.59375,0.25 1.90875,0.42451 3.12128,0.3746 2.8125,-0.125 -0.0375,-0.0607 -0.0208,-0.1262 0.0312,-0.1875 0.71563,-0.0424 1.42715,-0.0945 2.15625,-0.15625 3.88256,-0.32889 7.81347,-0.90008 10.625,-1.53125 0.0354,-0.007 0.0588,-0.0241 0.0937,-0.0312 1.83366,-0.41644 3.21135,-0.82358 3.6875,-1.21875 0.12397,-0.10288 0.23301,-0.16975 0.34375,-0.25 0.57287,-0.14682 1.43811,0.20012 2.71875,1.125 0.83523,1.19245 2.79192,2.97521 4.34375,3.96875 0.62055,0.39731 1.23204,0.70096 1.84375,0.96875 1.0648,0.57987 2.00751,0.8916 2.84375,0.875 0.0101,0.002 0.0212,-0.002 0.0312,0 0.68785,0.10374 1.29259,0.0363 1.78125,-0.1875 0.0229,-0.007 0.04,-0.024 0.0625,-0.0312 0.68152,-0.21911 1.16668,-0.62569 1.40625,-1.25 0.12039,-0.31374 0.0823,-0.82287 -0.0937,-1.4375 -0.0391,-0.79792 -0.54262,-1.81857 -1.5625,-3.46875 -0.16195,-0.26204 -0.3323,-0.47261 -0.5,-0.71875 -0.56472,-0.94706 -1.14406,-1.78116 -1.6875,-2.28125 l -1.375,-1.9375 c 0.15134,-0.20107 0.33646,-0.38962 0.5625,-0.5625 l 2.28125,0 c 1.22862,0.009 3.08877,0.22234 4.8125,0.5 0.21203,0.0455 0.40564,0.075 0.625,0.125 0.5527,0.12599 1.04527,0.19189 1.53125,0.28125 0.14921,0.0274 0.32726,0.0699 0.46875,0.0937 0.60296,0.12434 1.12602,0.1821 1.5625,0.21875 0.0709,0.006 0.15328,0.0276 0.21875,0.0312 0.63625,0.0798 0.9722,0.0441 0.9375,-0.0937 0.0104,-0.009 0.0238,-0.0218 0.0312,-0.0312 0.0112,-0.0111 0.0263,-0.0184 0.0312,-0.0312 0.004,-0.01 -10e-4,-0.0207 0,-0.0312 0.001,-0.0233 -0.0139,-0.0344 -0.0312,-0.0625 -0.005,-0.0124 0.008,-0.018 0,-0.0312 -0.58616,-0.94842 -8.83365,-3.74159 -12.40625,-4.1875 -0.6845,-0.0854 -1.23934,-0.26537 -1.6875,-0.59375 -0.042,-0.0308 -0.0847,-0.0604 -0.125,-0.0937 -0.0466,-0.0443 -0.0797,-0.10779 -0.125,-0.15625 -0.0846,-0.0812 -0.17252,-0.15506 -0.25,-0.25 -0.11879,-0.15423 -0.23607,-0.3152 -0.34375,-0.5 -0.0853,-0.14632 -0.17208,-0.30376 -0.25,-0.46875 -0.004,-0.008 0.004,-0.0228 0,-0.0312 -0.0163,-0.035 -0.0465,-0.0579 -0.0625,-0.0937 -0.1761,-0.41772 -0.32139,-0.89713 -0.46875,-1.46875 -0.12768,-0.49529 -0.32437,-1.00702 -0.53125,-1.5625 -0.0252,-0.0676 -0.0363,-0.15046 -0.0625,-0.21875 -0.33776,-1.25569 -0.98016,-2.55545 -2,-4.125 -1.14285,-2.01922 -2.46303,-3.9285 -3.6875,-5.25 -0.34666,-0.37536 -0.67807,-0.73258 -1,-1 -0.005,-0.004 -0.0263,0.004 -0.0312,0 -0.24229,-0.20015 -0.49218,-0.48346 -0.78125,-0.78125 -0.88669,-0.92208 -1.90748,-2.19552 -2.5625,-3.25 -0.15018,-0.24176 -0.41129,-0.55953 -0.6875,-0.90625 -0.11757,-0.16084 -0.24764,-0.3358 -0.375,-0.5 -1.31865,-1.70007 -3.16034,-3.53085 -5.1875,-5.3125 -0.30785,-0.2873 -0.59905,-0.59807 -0.90625,-0.875 -2.1576,-1.94496 -4.40444,-3.55971 -6.75,-4.84375 -0.0401,-0.0215 -0.0847,-0.0413 -0.125,-0.0625 -0.25825,-0.13992 -0.52074,-0.27432 -0.78125,-0.40625 -0.10364,-0.0525 -0.2085,-0.10503 -0.3125,-0.15625 -0.75927,-0.39732 -1.48726,-0.75052 -2.15625,-1 -0.22246,-0.083 -0.4591,-0.1415 -0.6875,-0.21875 -0.0531,-0.018 -0.10281,-0.0448 -0.15625,-0.0625 -0.3074,-0.11228 -0.6272,-0.17935 -0.9375,-0.28125 -2.96437,-0.9735 -6.05397,-1.50505 -9.28125,-1.53125 z" id="path2459" style="fill:#008000;fill-opacity:1"/>
    </g>
    <use x="0" y="0" inkscape:tiled-clone-of="#rect2985" xlink:href="#rect2985" id="use2987-8" width="1" height="1" transform="translate(-3.2e-7,95.87607)" inkscape:tile-cx="129.29953" inkscape:tile-cy="343.74017" inkscape:tile-w="28.571428" inkscape:tile-h="28.571428" inkscape:tile-x0="115.01381" inkscape:tile-y0="329.45446" style="stroke:#000000;stroke-opacity:1"/>
    <use height="1052.3622" width="744.09448" x="0" y="0" inkscape:tiled-clone-of="#use2987-8" xlink:href="#use2987-8" id="use3058" style="stroke:#000000;stroke-opacity:1"/>
    <use height="1052.3622" width="744.09448" x="0" y="0" inkscape:tiled-clone-of="#use2987-8" xlink:href="#use2987-8" transform="translate(28.571428,0)" id="use3060" style="stroke:#000000;stroke-opacity:1"/>
    <use height="1052.3622" width="744.09448" x="0" y="0" inkscape:tiled-clone-of="#use2987-8" xlink:href="#use2987-8" transform="translate(57.142857,0)" id="use3062" style="stroke:#000000;stroke-opacity:1"/>
    <use height="1052.3622" width="744.09448" x="0" y="0" inkscape:tiled-clone-of="#use2987-8" xlink:href="#use2987-8" transform="translate(85.714285,0)" id="use3064" style="stroke:#000000;stroke-opacity:1"/>
    <rect inkscape:tile-y0="235.21933" inkscape:tile-x0="114.28571" y="331.0954" x="257.14285" height="28.571428" width="28.571428" id="use3068" style="fill:#ffffff;stroke:#c3c3c3;stroke-width:1;stroke-miterlimit:4;stroke-opacity:1;stroke-dasharray:4, 1;stroke-dashoffset:0"/>
    <rect inkscape:tile-y0="235.21933" inkscape:tile-x0="114.28571" y="331.0954" x="285.71429" height="28.571428" width="28.571428" id="use3070" style="fill:#ffffff;stroke:#c3c3c3;stroke-width:1;stroke-miterlimit:4;stroke-opacity:1;stroke-dasharray:4, 1;stroke-dashoffset:0"/>
    <rect inkscape:tile-y0="235.21933" inkscape:tile-x0="114.28571" y="331.0954" x="314.28574" height="28.571428" width="28.571428" id="use3072" style="fill:#ffffff;stroke:#c3c3c3;stroke-width:1;stroke-miterlimit:4;stroke-opacity:1;stroke-dasharray:4, 1;stroke-dashoffset:0"/>
    <use height="1052.3622" width="744.09448" x="0" y="0" inkscape:tiled-clone-of="#use2987-8" xlink:href="#use2987-8" transform="translate(114.28571,0)" id="use3066" style="stroke:#000000;stroke-opacity:1"/>
    <text xml:space="preserve" style="font-size:40px;font-style:normal;font-weight:normal;line-height:125%;letter-spacing:0px;word-spacing:0px;fill:#000000;fill-opacity:1;stroke:none;font-family:Sans" x="118.64367" y="355.93085" id="text3866-7" sodipodi:linespacing="125%"><tspan sodipodi:role="line" id="tspan3868-3" x="118.64367" y="355.93085" style="font-size:30px;font-style:normal;font-variant:normal;font-weight:normal;font-stretch:normal;font-family:DejaVu Sans;-inkscape-font-specification:DejaVu Sans">2</tspan></text>
    <text xml:space="preserve" style="font-size:40px;font-style:normal;font-weight:normal;line-height:125%;letter-spacing:0px;word-spacing:0px;fill:#000000;fill-opacity:1;stroke:none;font-family:Sans" x="147.50781" y="355.73309" id="text3866-32-4" sodipodi:linespacing="125%"><tspan sodipodi:role="line" id="tspan3868-6-81" x="147.50781" y="355.73309" style="font-size:30px;font-style:normal;font-variant:normal;font-weight:normal;font-stretch:normal;font-family:DejaVu Sans;-inkscape-font-specification:DejaVu Sans">7</tspan></text>
    <text xml:space="preserve" style="font-size:40px;font-style:normal;font-weight:normal;line-height:125%;letter-spacing:0px;word-spacing:0px;fill:#000000;fill-opacity:1;stroke:none;font-family:Sans" x="176.00781" y="355.73309" id="text3866-32-8-7" sodipodi:linespacing="125%"><tspan sodipodi:role="line" id="tspan3868-6-1-89" x="176.00781" y="355.73309" style="font-size:30px;font-style:normal;font-variant:normal;font-weight:normal;font-stretch:normal;font-family:DejaVu Sans;-inkscape-font-specification:DejaVu Sans">1</tspan></text>
    <text xml:space="preserve" style="font-size:40px;font-style:normal;font-weight:normal;line-height:125%;letter-spacing:0px;word-spacing:0px;fill:#000000;fill-opacity:1;stroke:none;font-family:Sans" x="204.69287" y="355.71844" id="text3866-32-8-5-9" sodipodi:linespacing="125%"><tspan sodipodi:role="line" id="tspan3868-6-1-1-6" x="204.69287" y="355.71844" style="font-size:30px;font-style:normal;font-variant:normal;font-weight:normal;font-stretch:normal;font-family:DejaVu Sans;-inkscape-font-specification:DejaVu Sans">3</tspan></text>
    <text xml:space="preserve" style="font-size:40px;font-style:normal;font-weight:normal;line-height:125%;letter-spacing:0px;word-spacing:0px;fill:#000000;fill-opacity:1;stroke:none;font-family:Sans" x="233.01514" y="355.71844" id="text3866-32-8-5-6" sodipodi:linespacing="125%"><tspan sodipodi:role="line" id="tspan3868-6-1-1-9" x="233.01514" y="355.71844" style="font-size:30px;font-style:normal;font-variant:normal;font-weight:normal;font-stretch:normal;font-family:DejaVu Sans;-inkscape-font-specification:DejaVu Sans">8</tspan></text>
    <g transform="matrix(0.38484605,0,0,0.38484605,-33.418496,141.32577)" id="layer1-5-5" style="fill:#008000">
      <path inkscape:connector-curvature="0" d="m 314.75,504.65625 c -2.85208,-0.0232 -5.82056,0.31393 -8.875,1.03125 -0.0821,0.0193 -0.16772,0.0427 -0.25,0.0625 -3.58031,0.73713 -6.79602,1.9471 -9.15625,3.5625 -1.51876,0.80037 -3.07482,1.70801 -4.625,2.6875 -0.007,0.005 -0.0238,-0.005 -0.0312,0 -1.99582,0.72813 -6.1574,3.98109 -9.78125,7.28125 -0.0229,0.0204 -0.0397,0.0421 -0.0625,0.0625 -0.0223,0.0204 -0.0402,0.0421 -0.0625,0.0625 -0.74252,0.65233 -1.44594,1.31466 -2.125,1.96875 -0.0308,0.0297 -0.0631,0.064 -0.0937,0.0937 -2.23269,2.16029 -4.09477,4.27547 -5.3125,6.21875 -0.004,0.007 -0.0233,-0.004 -0.0312,0 -0.2987,-0.0941 -0.6346,-0.20345 -0.96875,-0.375 -0.33027,-0.16955 -0.64436,-0.38826 -0.96875,-0.625 -0.011,-0.007 -0.0202,-0.0238 -0.0312,-0.0312 -0.18174,-0.13434 -0.36177,-0.25287 -0.53125,-0.40625 -0.22853,-0.20682 -0.57273,-0.45208 -0.96875,-0.65625 -0.0301,-0.0155 -0.0629,-0.0158 -0.0937,-0.0312 -0.0513,-0.034 -0.10469,-0.0608 -0.15625,-0.0937 -0.007,-0.004 -0.0242,0.004 -0.0312,0 C 268.4622,524.11296 266.10168,523.634 264,523.875 c -0.43868,0 -0.87494,0.0364 -1.28125,0.125 -0.0199,0.004 -0.0427,-0.005 -0.0625,0 -1.25525,0.0979 -1.94649,0.53072 -2.71875,1.53125 -0.008,0.0109 -0.0228,0.0202 -0.0312,0.0312 -0.98452,0.86621 -1.6163,2.03238 -1.8125,3.4375 -0.0364,0.17539 -0.052,0.36516 -0.0625,0.53125 -0.005,0.10751 -0.0312,0.20245 -0.0312,0.3125 0,0.17702 0.0612,0.36869 0.125,0.5625 0.005,0.0193 -0.005,0.0433 0,0.0625 0.0181,0.0512 0.0404,0.10427 0.0625,0.15625 0.0496,0.14166 0.11318,0.27103 0.1875,0.40625 0.0519,0.0945 0.0922,0.18963 0.15625,0.28125 0.0609,0.0879 0.14676,0.16456 0.21875,0.25 0.042,0.0497 0.0792,0.10731 0.125,0.15625 0.005,0.006 0.0259,-0.006 0.0312,0 0.0342,0.0361 0.0574,0.0893 0.0937,0.125 1.33766,1.54085 3.73862,3.03125 5.4375,3.03125 0.0867,0 0.19894,0.0125 0.3125,0.0312 1.57593,0.7344 3.15948,1.48679 4.34375,2.09375 0.96465,0.49439 2.12146,0.94678 3.21875,1.28125 0.0401,0.0122 0.085,0.0193 0.125,0.0312 0.5121,0.16649 1.03469,0.27928 1.5,0.375 0.10796,0.0216 0.20937,0.0448 0.3125,0.0625 0.12896,0.0219 0.25402,0.0478 0.375,0.0625 0.0401,0.005 0.086,-0.004 0.125,0 0.0432,0.004 0.0831,-0.003 0.125,0 0.1671,0.0158 0.32646,0.0625 0.46875,0.0625 0.0868,0 0.1653,-0.003 0.25,0 0.26598,0.008 0.54428,0.0316 0.78125,0.0625 0.29927,0.0387 0.58212,0.0919 0.8125,0.15625 0.23688,0.0727 0.42977,0.15406 0.5625,0.25 0.0384,0.024 0.0643,0.0373 0.0937,0.0625 0.019,0.0207 0.0493,0.0411 0.0625,0.0625 0.004,0.005 -0.003,0.026 0,0.0312 0.0205,0.0408 0.0643,0.0823 0.0625,0.125 10e-4,0.009 0,0.0217 0,0.0312 -0.006,0.0603 -0.0347,0.10917 -0.0625,0.1875 -0.007,0.0117 0.007,0.0188 0,0.0312 -0.002,0.004 -0.0296,-0.004 -0.0312,0 -0.002,0.006 0.002,0.0255 0,0.0312 -0.005,0.0114 0.006,0.0193 0,0.0312 -0.51293,0.82777 -2.49339,2.97331 -4.84375,5.21875 -1.28172,1.22451 -2.23755,2.09218 -2.90625,2.8125 l -0.8125,0.65625 c -0.22661,0.14129 -0.4248,0.25 -0.53125,0.25 -0.15332,0 -0.19546,0.1091 -0.1875,0.3125 l -0.5,0.40625 0.71875,0.78125 c 0.0678,0.46726 0.41627,0.89125 0.9375,1.5 0.42228,0.49318 0.87154,0.87811 1.34375,1.1875 0.19641,0.12868 0.38906,0.2468 0.59375,0.34375 0.1113,0.0527 0.23004,0.1129 0.34375,0.15625 0.61751,0.25558 1.26,0.34542 1.96875,0.28125 0.16503,-0.0149 0.33004,-0.0302 0.5,-0.0625 0.01,-0.002 0.0213,0.002 0.0312,0 0.0517,-5.7e-4 0.10458,0.002 0.15625,0 0.0192,-0.004 0.0432,0.004 0.0625,0 1.49219,-0.0768 2.99199,-0.777 4.21875,-2.09375 0.11914,-0.12788 0.23007,-0.24664 0.34375,-0.375 0.54976,-0.45626 1.08392,-0.98442 1.65625,-1.5625 1.45144,-1.46602 2.55943,-2.42893 3.46875,-2.96875 0.0215,-0.0123 0.0412,-0.0194 0.0625,-0.0312 0.0883,-0.0512 0.16545,-0.0818 0.25,-0.125 0.009,-0.004 0.0227,0.004 0.0312,0 0.69854,-0.18731 1.38378,-0.27726 1.875,-0.25 0.0401,0.0141 0.0856,0.0144 0.125,0.0312 0.0688,0.0295 0.27267,0.0592 0.375,0.0937 0.0784,0.0265 0.18446,0.0645 0.28125,0.0937 0.0236,0.007 0.038,0.0242 0.0625,0.0312 0.0376,0.0145 0.0496,0.0158 0.0937,0.0312 0.0464,0.0133 0.0754,0.0175 0.125,0.0312 0.15533,0.042 0.25451,0.0793 0.4375,0.125 0.0254,0.007 0.0362,0.0239 0.0625,0.0312 2.55896,0.71992 9.26836,2.02732 14.40625,2.84375 0.50846,0.11746 1.04386,0.2447 1.40625,0.34375 0.15569,0.0426 0.2507,0.0868 0.375,0.125 0.0365,0.0119 0.0919,0.0198 0.125,0.0312 0.037,0.0119 0.0916,0.0198 0.125,0.0312 0.0967,0.0375 0.20092,0.0947 0.25,0.125 0.0319,0.015 0.1033,0.0178 0.125,0.0312 0.0726,0.0288 0.14824,0.0627 0.28125,0.0937 0.0396,0.0112 0.0469,0.0199 0.0937,0.0312 2.34078,0.56959 13.47452,1.40953 19.875,1.5625 0.60844,0.0876 1.19234,0.16072 1.59375,0.25 1.90875,0.42451 3.12128,0.3746 2.8125,-0.125 -0.0375,-0.0607 -0.0208,-0.1262 0.0312,-0.1875 0.71563,-0.0424 1.42715,-0.0945 2.15625,-0.15625 3.88256,-0.32889 7.81347,-0.90008 10.625,-1.53125 0.0354,-0.007 0.0588,-0.0241 0.0937,-0.0312 1.83366,-0.41644 3.21135,-0.82358 3.6875,-1.21875 0.12397,-0.10288 0.23301,-0.16975 0.34375,-0.25 0.57287,-0.14682 1.43811,0.20012 2.71875,1.125 0.83523,1.19245 2.79192,2.97521 4.34375,3.96875 0.62055,0.39731 1.23204,0.70096 1.84375,0.96875 1.0648,0.57987 2.00751,0.8916 2.84375,0.875 0.0101,0.002 0.0212,-0.002 0.0312,0 0.68785,0.10374 1.29259,0.0363 1.78125,-0.1875 0.0229,-0.007 0.04,-0.024 0.0625,-0.0312 0.68152,-0.21911 1.16668,-0.62569 1.40625,-1.25 0.12039,-0.31374 0.0823,-0.82287 -0.0937,-1.4375 -0.0391,-0.79792 -0.54262,-1.81857 -1.5625,-3.46875 -0.16195,-0.26204 -0.3323,-0.47261 -0.5,-0.71875 -0.56472,-0.94706 -1.14406,-1.78116 -1.6875,-2.28125 l -1.375,-1.9375 c 0.15134,-0.20107 0.33646,-0.38962 0.5625,-0.5625 l 2.28125,0 c 1.22862,0.009 3.08877,0.22234 4.8125,0.5 0.21203,0.0455 0.40564,0.075 0.625,0.125 0.5527,0.12599 1.04527,0.19189 1.53125,0.28125 0.14921,0.0274 0.32726,0.0699 0.46875,0.0937 0.60296,0.12434 1.12602,0.1821 1.5625,0.21875 0.0709,0.006 0.15328,0.0276 0.21875,0.0312 0.63625,0.0798 0.9722,0.0441 0.9375,-0.0937 0.0104,-0.009 0.0238,-0.0218 0.0312,-0.0312 0.0112,-0.0111 0.0263,-0.0184 0.0312,-0.0312 0.004,-0.01 -10e-4,-0.0207 0,-0.0312 0.001,-0.0233 -0.0139,-0.0344 -0.0312,-0.0625 -0.005,-0.0124 0.008,-0.018 0,-0.0312 -0.58616,-0.94842 -8.83365,-3.74159 -12.40625,-4.1875 -0.6845,-0.0854 -1.23934,-0.26537 -1.6875,-0.59375 -0.042,-0.0308 -0.0847,-0.0604 -0.125,-0.0937 -0.0466,-0.0443 -0.0797,-0.10779 -0.125,-0.15625 -0.0846,-0.0812 -0.17252,-0.15506 -0.25,-0.25 -0.11879,-0.15423 -0.23607,-0.3152 -0.34375,-0.5 -0.0853,-0.14632 -0.17208,-0.30376 -0.25,-0.46875 -0.004,-0.008 0.004,-0.0228 0,-0.0312 -0.0163,-0.035 -0.0465,-0.0579 -0.0625,-0.0937 -0.1761,-0.41772 -0.32139,-0.89713 -0.46875,-1.46875 -0.12768,-0.49529 -0.32437,-1.00702 -0.53125,-1.5625 -0.0252,-0.0676 -0.0363,-0.15046 -0.0625,-0.21875 -0.33776,-1.25569 -0.98016,-2.55545 -2,-4.125 -1.14285,-2.01922 -2.46303,-3.9285 -3.6875,-5.25 -0.34666,-0.37536 -0.67807,-0.73258 -1,-1 -0.005,-0.004 -0.0263,0.004 -0.0312,0 -0.24229,-0.20015 -0.49218,-0.48346 -0.78125,-0.78125 -0.88669,-0.92208 -1.90748,-2.19552 -2.5625,-3.25 -0.15018,-0.24176 -0.41129,-0.55953 -0.6875,-0.90625 -0.11757,-0.16084 -0.24764,-0.3358 -0.375,-0.5 -1.31865,-1.70007 -3.16034,-3.53085 -5.1875,-5.3125 -0.30785,-0.2873 -0.59905,-0.59807 -0.90625,-0.875 -2.1576,-1.94496 -4.40444,-3.55971 -6.75,-4.84375 -0.0401,-0.0215 -0.0847,-0.0413 -0.125,-0.0625 -0.25825,-0.13992 -0.52074,-0.27432 -0.78125,-0.40625 -0.10364,-0.0525 -0.2085,-0.10503 -0.3125,-0.15625 -0.75927,-0.39732 -1.48726,-0.75052 -2.15625,-1 -0.22246,-0.083 -0.4591,-0.1415 -0.6875,-0.21875 -0.0531,-0.018 -0.10281,-0.0448 -0.15625,-0.0625 -0.3074,-0.11228 -0.6272,-0.17935 -0.9375,-0.28125 -2.96437,-0.9735 -6.05397,-1.50505 -9.28125,-1.53125 z" id="path2459-2" style="fill:#008000;fill-opacity:1"/>
    </g>
    <g id="g4475">
      <path inkscape:connector-curvature="0" id="path3985-7" d="m 115.19,414.10732 0,7.32143 169.71303,0 0,-7.14286" style="fill:none;stroke:#000000;stroke-width:1.08859015px;stroke-linecap:butt;stroke-linejoin:miter;stroke-opacity:1"/>
      <text sodipodi:linespacing="125%" id="text4016-3" y="437.50015" x="147.62854" style="font-size:40px;font-style:normal;font-variant:normal;font-weight:normal;font-stretch:normal;line-height:125%;letter-spacing:0px;word-spacing:0px;fill:#000000;fill-opacity:1;stroke:none;font-family:DejaVu Sans;-inkscape-font-specification:DejaVu Sans" xml:space="preserve"><tspan style="font-size:18px" y="437.50015" x="147.62854" id="tspan4018-65" sodipodi:role="line">Logical size</tspan></text>
    </g>
    <g id="g4470">
      <path inkscape:connector-curvature="0" id="path3985-6-3" d="m 115.32425,444.9109 0,7.32143 228.03836,0 0,-7.14286" style="fill:none;stroke:#000000;stroke-width:1.26185882px;stroke-linecap:butt;stroke-linejoin:miter;stroke-opacity:1"/>
      <text sodipodi:linespacing="125%" id="text4016-8-3" y="469.25168" x="190.07997" style="font-size:40px;font-style:normal;font-variant:normal;font-weight:normal;font-stretch:normal;line-height:125%;letter-spacing:0px;word-spacing:0px;fill:#000000;fill-opacity:1;stroke:none;font-family:DejaVu Sans;-inkscape-font-specification:DejaVu Sans" xml:space="preserve"><tspan style="font-size:18px" y="469.25168" x="190.07997" id="tspan4018-6-8" sodipodi:role="line">Capacity</tspan></text>
    </g>
    <use x="0" y="0" inkscape:tiled-clone-of="#rect2985" xlink:href="#rect2985" id="use2987-8-1" width="1" height="1" transform="translate(-3.2494106e-7,144.01598)" inkscape:tile-cx="129.29953" inkscape:tile-cy="343.74017" inkscape:tile-w="28.571428" inkscape:tile-h="28.571428" inkscape:tile-x0="115.01381" inkscape:tile-y0="329.45446" style="stroke:#000000;stroke-opacity:1"/>
    <use height="1052.3622" width="744.09448" x="0" y="0" inkscape:tiled-clone-of="#use2987-8-1" xlink:href="#use2987-8-1" id="use3058-6" style="stroke:#000000;stroke-opacity:1"/>
    <use height="1052.3622" width="744.09448" x="0" y="0" inkscape:tiled-clone-of="#use2987-8-1" xlink:href="#use2987-8-1" transform="translate(28.571428,0)" id="use3060-2" style="stroke:#000000;stroke-opacity:1"/>
    <use height="1052.3622" width="744.09448" x="0" y="0" inkscape:tiled-clone-of="#use2987-8-1" xlink:href="#use2987-8-1" transform="translate(57.142857,0)" id="use3062-7" style="stroke:#000000;stroke-opacity:1"/>
    <use height="1052.3622" width="744.09448" x="0" y="0" inkscape:tiled-clone-of="#use2987-8-1" xlink:href="#use2987-8-1" transform="translate(85.714285,0)" id="use3064-8" style="stroke:#000000;stroke-opacity:1"/>
    <rect inkscape:tile-y0="235.21933" inkscape:tile-x0="114.28571" y="379.23532" x="285.71429" height="28.571428" width="28.571428" id="use3070-0" style="fill:#ffffff;stroke:#c3c3c3;stroke-width:1;stroke-miterlimit:4;stroke-opacity:1;stroke-dasharray:4, 1;stroke-dashoffset:0"/>
    <rect inkscape:tile-y0="235.21933" inkscape:tile-x0="114.28571" y="379.23532" x="314.28574" height="28.571428" width="28.571428" id="use3072-5" style="fill:#ffffff;stroke:#c3c3c3;stroke-width:1;stroke-miterlimit:4;stroke-opacity:1;stroke-dasharray:4, 1;stroke-dashoffset:0"/>
    <use height="1052.3622" width="744.09448" x="0" y="0" inkscape:tiled-clone-of="#use2987-8-1" xlink:href="#use2987-8-1" transform="translate(114.28571,0)" id="use3066-0" style="stroke:#000000;stroke-opacity:1"/>
    <text xml:space="preserve" style="font-size:40px;font-style:normal;font-weight:normal;line-height:125%;letter-spacing:0px;word-spacing:0px;fill:#000000;fill-opacity:1;stroke:none;font-family:Sans" x="118.64368" y="404.07074" id="text3866-7-9" sodipodi:linespacing="125%"><tspan sodipodi:role="line" id="tspan3868-3-9" x="118.64368" y="404.07074" style="font-size:30px;font-style:normal;font-variant:normal;font-weight:normal;font-stretch:normal;font-family:DejaVu Sans;-inkscape-font-specification:DejaVu Sans">2</tspan></text>
    <text xml:space="preserve" style="font-size:40px;font-style:normal;font-weight:normal;line-height:125%;letter-spacing:0px;word-spacing:0px;fill:#000000;fill-opacity:1;stroke:none;font-family:Sans" x="147.5078" y="403.87299" id="text3866-32-4-3" sodipodi:linespacing="125%"><tspan sodipodi:role="line" id="tspan3868-6-81-9" x="147.5078" y="403.87299" style="font-size:30px;font-style:normal;font-variant:normal;font-weight:normal;font-stretch:normal;font-family:DejaVu Sans;-inkscape-font-specification:DejaVu Sans">7</tspan></text>
    <text xml:space="preserve" style="font-size:40px;font-style:normal;font-weight:normal;line-height:125%;letter-spacing:0px;word-spacing:0px;fill:#000000;fill-opacity:1;stroke:none;font-family:Sans" x="176.0078" y="403.87299" id="text3866-32-8-7-2" sodipodi:linespacing="125%"><tspan sodipodi:role="line" id="tspan3868-6-1-89-6" x="176.0078" y="403.87299" style="font-size:30px;font-style:normal;font-variant:normal;font-weight:normal;font-stretch:normal;font-family:DejaVu Sans;-inkscape-font-specification:DejaVu Sans">1</tspan></text>
    <text xml:space="preserve" style="font-size:40px;font-style:normal;font-weight:normal;line-height:125%;letter-spacing:0px;word-spacing:0px;fill:#000000;fill-opacity:1;stroke:none;font-family:Sans" x="204.69286" y="403.85834" id="text3866-32-8-5-9-6" sodipodi:linespacing="125%"><tspan sodipodi:role="line" id="tspan3868-6-1-1-6-5" x="204.69286" y="403.85834" style="font-size:30px;font-style:normal;font-variant:normal;font-weight:normal;font-stretch:normal;font-family:DejaVu Sans;-inkscape-font-specification:DejaVu Sans">3</tspan></text>
    <text xml:space="preserve" style="font-size:40px;font-style:normal;font-weight:normal;line-height:125%;letter-spacing:0px;word-spacing:0px;fill:#000000;fill-opacity:1;stroke:none;font-family:Sans" x="233.01512" y="403.85834" id="text3866-32-8-5-6-9" sodipodi:linespacing="125%"><tspan sodipodi:role="line" id="tspan3868-6-1-1-9-1" x="233.01512" y="403.85834" style="font-size:30px;font-style:normal;font-variant:normal;font-weight:normal;font-stretch:normal;font-family:DejaVu Sans;-inkscape-font-specification:DejaVu Sans">8</tspan></text>
    <rect inkscape:tile-y0="235.21933" inkscape:tile-x0="114.28571" y="379.23532" x="257.14285" height="28.571428" width="28.571428" id="use3068-8" style="fill:#ffffff;stroke:#000000;stroke-width:1;stroke-miterlimit:4;stroke-opacity:1;stroke-dasharray:none"/>
    <text xml:space="preserve" style="font-size:40px;font-style:normal;font-weight:normal;line-height:125%;letter-spacing:0px;word-spacing:0px;fill:#000000;fill-opacity:1;stroke:none;font-family:Sans" x="261.28577" y="403.87299" id="text3866-32-8-5-6-9-8" sodipodi:linespacing="125%"><tspan sodipodi:role="line" id="tspan3868-6-1-1-9-1-7" x="261.28577" y="403.87299" style="font-size:30px;font-style:normal;font-variant:normal;font-weight:normal;font-stretch:normal;font-family:DejaVu Sans;-inkscape-font-specification:DejaVu Sans">4</tspan></text>
  </g>
</svg>
