<?xml version="1.0" encoding="UTF-8" standalone="no"?>
<!DOCTYPE svg PUBLIC "-//W3C//DTD SVG 1.0//EN" "http://www.w3.org/TR/2001/PR-SVG-20010719/DTD/svg10.dtd">
<svg width="9cm" height="6cm" viewBox="235 360 166 101" xmlns="http://www.w3.org/2000/svg" xmlns:xlink="http://www.w3.org/1999/xlink">
  <text font-size="16.9333" style="fill: #000000;text-anchor:middle;font-family:sans-serif;font-style:normal;font-weight:normal" x="270" y="375.875">
    <tspan x="270" y="375.875">Solution</tspan>
  </text>
  <g>
    <rect style="fill: #bfbfbf" x="360" y="440" width="20" height="20"/>
    <rect style="fill: none; fill-opacity:0; stroke-width: 2; stroke: #000000" x="360" y="440" width="20" height="20"/>
  </g>
  <g>
    <rect style="fill: #ffffff" x="320" y="380" width="20" height="20"/>
    <rect style="fill: none; fill-opacity:0; stroke-width: 2; stroke: #000000" x="320" y="380" width="20" height="20"/>
  </g>
  <g>
    <rect style="fill: #bfbfbf" x="340" y="380" width="20" height="20"/>
    <rect style="fill: none; fill-opacity:0; stroke-width: 2; stroke: #000000" x="340" y="380" width="20" height="20"/>
  </g>
  <g>
    <rect style="fill: #ffffff" x="360" y="380" width="20" height="20"/>
    <rect style="fill: none; fill-opacity:0; stroke-width: 2; stroke: #000000" x="360" y="380" width="20" height="20"/>
  </g>
  <g>
    <rect style="fill: #bfbfbf" x="380" y="380" width="20" height="20"/>
    <rect style="fill: none; fill-opacity:0; stroke-width: 2; stroke: #000000" x="380" y="380" width="20" height="20"/>
  </g>
  <g>
    <rect style="fill: #ffffff" x="340" y="400" width="20" height="20"/>
    <rect style="fill: none; fill-opacity:0; stroke-width: 2; stroke: #000000" x="340" y="400" width="20" height="20"/>
  </g>
  <g>
    <rect style="fill: #bfbfbf" x="360" y="400" width="20" height="20"/>
    <rect style="fill: none; fill-opacity:0; stroke-width: 2; stroke: #000000" x="360" y="400" width="20" height="20"/>
  </g>
  <g>
    <rect style="fill: #ffffff" x="380" y="400" width="20" height="20"/>
    <rect style="fill: none; fill-opacity:0; stroke-width: 2; stroke: #000000" x="380" y="400" width="20" height="20"/>
  </g>
  <g>
    <rect style="fill: #bfbfbf" x="320" y="400" width="20" height="20"/>
    <rect style="fill: none; fill-opacity:0; stroke-width: 2; stroke: #000000" x="320" y="400" width="20" height="20"/>
  </g>
  <g>
    <rect style="fill: #ffffff" x="320" y="420" width="20" height="20"/>
    <rect style="fill: none; fill-opacity:0; stroke-width: 2; stroke: #000000" x="320" y="420" width="20" height="20"/>
  </g>
  <g>
    <rect style="fill: #bfbfbf" x="340" y="420" width="20" height="20"/>
    <rect style="fill: none; fill-opacity:0; stroke-width: 2; stroke: #000000" x="340" y="420" width="20" height="20"/>
  </g>
  <g>
    <rect style="fill: #ffffff" x="360" y="420" width="20" height="20"/>
    <rect style="fill: none; fill-opacity:0; stroke-width: 2; stroke: #000000" x="360" y="420" width="20" height="20"/>
  </g>
  <g>
    <rect style="fill: #bfbfbf" x="380" y="420" width="20" height="20"/>
    <rect style="fill: none; fill-opacity:0; stroke-width: 2; stroke: #000000" x="380" y="420" width="20" height="20"/>
  </g>
  <g>
    <rect style="fill: #ffffff" x="340" y="440" width="20" height="20"/>
    <rect style="fill: none; fill-opacity:0; stroke-width: 2; stroke: #000000" x="340" y="440" width="20" height="20"/>
  </g>
  <g>
    <rect style="fill: #ffffff" x="380" y="440" width="20" height="20"/>
    <rect style="fill: none; fill-opacity:0; stroke-width: 2; stroke: #000000" x="380" y="440" width="20" height="20"/>
  </g>
  <g>
    <rect style="fill: #bfbfbf" x="320" y="440" width="20" height="20"/>
    <rect style="fill: none; fill-opacity:0; stroke-width: 2; stroke: #000000" x="320" y="440" width="20" height="20"/>
  </g>
  <text font-size="16.9333" style="fill: #000000;text-anchor:middle;font-family:sans-serif;font-style:normal;font-weight:normal" x="350" y="395.875">
    <tspan x="350" y="395.875">♛</tspan>
  </text>
  <text font-size="16.9333" style="fill: #000000;text-anchor:middle;font-family:sans-serif;font-style:normal;font-weight:normal" x="390" y="415.875">
    <tspan x="390" y="415.875">♛</tspan>
  </text>
  <text font-size="16.9333" style="fill: #000000;text-anchor:middle;font-family:sans-serif;font-style:normal;font-weight:normal" x="330" y="435.875">
    <tspan x="330" y="435.875">♛</tspan>
  </text>
  <text font-size="16.9333" style="fill: #000000;text-anchor:middle;font-family:sans-serif;font-style:normal;font-weight:normal" x="370" y="455.875">
    <tspan x="370" y="455.875">♛</tspan>
  </text>
  <g>
    <rect style="fill: #ffffff" x="260" y="380" width="20" height="20"/>
    <rect style="fill: none; fill-opacity:0; stroke-width: 2; stroke: #000000" x="260" y="380" width="20" height="20"/>
  </g>
  <text font-size="16.9333" style="fill: #000000;text-anchor:middle;font-family:sans-serif;font-style:normal;font-weight:normal" x="270" y="395.875">
    <tspan x="270" y="395.875">1</tspan>
  </text>
  <g>
    <rect style="fill: #ffffff" x="260" y="400" width="20" height="20"/>
    <rect style="fill: none; fill-opacity:0; stroke-width: 2; stroke: #000000" x="260" y="400" width="20" height="20"/>
  </g>
  <g>
    <rect style="fill: #ffffff" x="260" y="420" width="20" height="20"/>
    <rect style="fill: none; fill-opacity:0; stroke-width: 2; stroke: #000000" x="260" y="420" width="20" height="20"/>
  </g>
  <g>
    <rect style="fill: #ffffff" x="260" y="440" width="20" height="20"/>
    <rect style="fill: none; fill-opacity:0; stroke-width: 2; stroke: #000000" x="260" y="440" width="20" height="20"/>
  </g>
  <g>
    <line style="fill: none; fill-opacity:0; stroke-width: 2; stroke-dasharray: 4; stroke: #000000" x1="280" y1="390" x2="310.264" y2="390"/>
    <polygon style="fill: #000000" points="317.764,390 307.764,395 310.264,390 307.764,385 "/>
    <polygon style="fill: none; fill-opacity:0; stroke-width: 2; stroke: #000000" points="317.764,390 307.764,395 310.264,390 307.764,385 "/>
  </g>
  <g>
    <line style="fill: none; fill-opacity:0; stroke-width: 2; stroke-dasharray: 4; stroke: #000000" x1="280" y1="410" x2="310.264" y2="410"/>
    <polygon style="fill: #000000" points="317.764,410 307.764,415 310.264,410 307.764,405 "/>
    <polygon style="fill: none; fill-opacity:0; stroke-width: 2; stroke: #000000" points="317.764,410 307.764,415 310.264,410 307.764,405 "/>
  </g>
  <g>
    <line style="fill: none; fill-opacity:0; stroke-width: 2; stroke-dasharray: 4; stroke: #000000" x1="280" y1="430" x2="310.264" y2="430"/>
    <polygon style="fill: #000000" points="317.764,430 307.764,435 310.264,430 307.764,425 "/>
    <polygon style="fill: none; fill-opacity:0; stroke-width: 2; stroke: #000000" points="317.764,430 307.764,435 310.264,430 307.764,425 "/>
  </g>
  <g>
    <line style="fill: none; fill-opacity:0; stroke-width: 2; stroke-dasharray: 4; stroke: #000000" x1="280" y1="450" x2="309.265" y2="450"/>
    <polygon style="fill: #000000" points="316.765,450 306.765,455 309.265,450 306.765,445 "/>
    <polygon style="fill: none; fill-opacity:0; stroke-width: 2; stroke: #000000" points="316.765,450 306.765,455 309.265,450 306.765,445 "/>
  </g>
  <text font-size="16.9333" style="fill: #000000;text-anchor:middle;font-family:sans-serif;font-style:normal;font-weight:normal" x="270" y="415.875">
    <tspan x="270" y="415.875">3</tspan>
  </text>
  <text font-size="16.9333" style="fill: #000000;text-anchor:middle;font-family:sans-serif;font-style:normal;font-weight:normal" x="270" y="435.875">
    <tspan x="270" y="435.875">0</tspan>
  </text>
  <text font-size="16.9333" style="fill: #000000;text-anchor:middle;font-family:sans-serif;font-style:normal;font-weight:normal" x="270" y="455.875">
    <tspan x="270" y="455.875">2</tspan>
  </text>
</svg>
