<?xml version="1.0" encoding="UTF-8" standalone="no"?>
<!DOCTYPE svg PUBLIC "-//W3C//DTD SVG 1.0//EN" "http://www.w3.org/TR/2001/PR-SVG-20010719/DTD/svg10.dtd">
<svg width="35cm" height="13cm" viewBox="-329 79 689 242" xmlns="http://www.w3.org/2000/svg" xmlns:xlink="http://www.w3.org/1999/xlink">
  <g>
    <path style="fill: none; fill-opacity:0; stroke-width: 2; stroke: #000000" d="M -140 220 C -60,260 120,120 191.279,155.379"/>
    <polygon style="fill: #000000" points="197.997,158.713 186.817,158.746 191.279,155.379 191.263,149.788 "/>
    <polygon style="fill: none; fill-opacity:0; stroke-width: 2; stroke: #000000" points="197.997,158.713 186.817,158.746 191.279,155.379 191.263,149.788 "/>
  </g>
  <g>
    <rect style="fill: #ffff55" x="-318" y="120" width="176" height="200"/>
    <path style="fill: #ffff55" d="M -318,120 A 2,2 0 0 0 -320,122 L -318,122 z"/>
    <path style="fill: #ffff55" d="M -140,122 A 2,2 0 0 0 -142,120 L -142,122 z"/>
    <rect style="fill: #ffff55" x="-320" y="122" width="180" height="196"/>
    <path style="fill: #ffff55" d="M -320,318 A 2,2 0 0 0 -318,320 L -318,318 z"/>
    <path style="fill: #ffff55" d="M -142,320 A 2,2 0 0 0 -140,318 L -142,318 z"/>
    <line style="fill: none; fill-opacity:0; stroke-width: 1; stroke: #7f7f7f" x1="-318" y1="120" x2="-142" y2="120"/>
    <line style="fill: none; fill-opacity:0; stroke-width: 1; stroke: #7f7f7f" x1="-318" y1="320" x2="-142" y2="320"/>
    <path style="fill: none; fill-opacity:0; stroke-width: 1; stroke: #7f7f7f" d="M -318,120 A 2,2 0 0 0 -320,122"/>
    <path style="fill: none; fill-opacity:0; stroke-width: 1; stroke: #7f7f7f" d="M -140,122 A 2,2 0 0 0 -142,120"/>
    <line style="fill: none; fill-opacity:0; stroke-width: 1; stroke: #7f7f7f" x1="-320" y1="122" x2="-320" y2="318"/>
    <line style="fill: none; fill-opacity:0; stroke-width: 1; stroke: #7f7f7f" x1="-140" y1="122" x2="-140" y2="318"/>
    <path style="fill: none; fill-opacity:0; stroke-width: 1; stroke: #7f7f7f" d="M -320,318 A 2,2 0 0 0 -318,320"/>
    <path style="fill: none; fill-opacity:0; stroke-width: 1; stroke: #7f7f7f" d="M -142,320 A 2,2 0 0 0 -140,318"/>
    <text font-size="16.9333" style="fill: #000000;text-anchor:start;font-family:monospace;font-style:normal;font-weight:normal" x="-314.5" y="151.083">
      <tspan x="-314.5" y="151.083">  // ...</tspan>
      <tspan x="-314.5" y="172.25">  int i = 0;</tspan>
      <tspan x="-314.5" y="193.417">  int j = 2;</tspan>
      <tspan x="-314.5" y="214.583">  i = g(j);</tspan>
      <tspan x="-314.5" y="235.75">  // ...</tspan>
      <tspan x="-314.5" y="256.917">  int l = 1;</tspan>
      <tspan x="-314.5" y="278.083">  // ...</tspan>
      <tspan x="-314.5" y="299.25">}</tspan>
    </text>
  </g>
  <g>
    <rect style="fill: #ff5555" x="-318" y="80" width="176" height="40"/>
    <path style="fill: #ff5555" d="M -318,80 A 2,2 0 0 0 -320,82 L -318,82 z"/>
    <path style="fill: #ff5555" d="M -140,82 A 2,2 0 0 0 -142,80 L -142,82 z"/>
    <rect style="fill: #ff5555" x="-320" y="82" width="180" height="36"/>
    <path style="fill: #ff5555" d="M -320,118 A 2,2 0 0 0 -318,120 L -318,118 z"/>
    <path style="fill: #ff5555" d="M -142,120 A 2,2 0 0 0 -140,118 L -142,118 z"/>
    <line style="fill: none; fill-opacity:0; stroke-width: 1; stroke: #7f7f7f" x1="-318" y1="80" x2="-142" y2="80"/>
    <line style="fill: none; fill-opacity:0; stroke-width: 1; stroke: #7f7f7f" x1="-318" y1="120" x2="-142" y2="120"/>
    <path style="fill: none; fill-opacity:0; stroke-width: 1; stroke: #7f7f7f" d="M -318,80 A 2,2 0 0 0 -320,82"/>
    <path style="fill: none; fill-opacity:0; stroke-width: 1; stroke: #7f7f7f" d="M -140,82 A 2,2 0 0 0 -142,80"/>
    <line style="fill: none; fill-opacity:0; stroke-width: 1; stroke: #7f7f7f" x1="-320" y1="82" x2="-320" y2="118"/>
    <line style="fill: none; fill-opacity:0; stroke-width: 1; stroke: #7f7f7f" x1="-140" y1="82" x2="-140" y2="118"/>
    <path style="fill: none; fill-opacity:0; stroke-width: 1; stroke: #7f7f7f" d="M -320,118 A 2,2 0 0 0 -318,120"/>
    <path style="fill: none; fill-opacity:0; stroke-width: 1; stroke: #7f7f7f" d="M -142,120 A 2,2 0 0 0 -140,118"/>
    <text font-size="16.9333" style="fill: #000000;text-anchor:start;font-family:monospace;font-style:normal;font-weight:normal" x="-314.5" y="105.167">
      <tspan x="-314.5" y="105.167">void f() {</tspan>
    </text>
  </g>
  <g>
    <rect style="fill: #ffff55" x="201.414" y="180" width="156" height="100"/>
    <path style="fill: #ffff55" d="M 201.414,180 A 2,2 0 0 0 199.414,182 L 201.414,182 z"/>
    <path style="fill: #ffff55" d="M 359.414,182 A 2,2 0 0 0 357.414,180 L 357.414,182 z"/>
    <rect style="fill: #ffff55" x="199.414" y="182" width="160" height="96"/>
    <path style="fill: #ffff55" d="M 199.414,278 A 2,2 0 0 0 201.414,280 L 201.414,278 z"/>
    <path style="fill: #ffff55" d="M 357.414,280 A 2,2 0 0 0 359.414,278 L 357.414,278 z"/>
    <line style="fill: none; fill-opacity:0; stroke-width: 1; stroke: #7f7f7f" x1="201.414" y1="180" x2="357.414" y2="180"/>
    <line style="fill: none; fill-opacity:0; stroke-width: 1; stroke: #7f7f7f" x1="201.414" y1="280" x2="357.414" y2="280"/>
    <path style="fill: none; fill-opacity:0; stroke-width: 1; stroke: #7f7f7f" d="M 201.414,180 A 2,2 0 0 0 199.414,182"/>
    <path style="fill: none; fill-opacity:0; stroke-width: 1; stroke: #7f7f7f" d="M 359.414,182 A 2,2 0 0 0 357.414,180"/>
    <line style="fill: none; fill-opacity:0; stroke-width: 1; stroke: #7f7f7f" x1="199.414" y1="182" x2="199.414" y2="278"/>
    <line style="fill: none; fill-opacity:0; stroke-width: 1; stroke: #7f7f7f" x1="359.414" y1="182" x2="359.414" y2="278"/>
    <path style="fill: none; fill-opacity:0; stroke-width: 1; stroke: #7f7f7f" d="M 199.414,278 A 2,2 0 0 0 201.414,280"/>
    <path style="fill: none; fill-opacity:0; stroke-width: 1; stroke: #7f7f7f" d="M 357.414,280 A 2,2 0 0 0 359.414,278"/>
    <text font-size="16.9333" style="fill: #000000;text-anchor:start;font-family:monospace;font-style:normal;font-weight:normal" x="204.914" y="214">
      <tspan x="204.914" y="214">  int k = h*h;</tspan>
      <tspan x="204.914" y="235.167">  return k;</tspan>
      <tspan x="204.914" y="256.333">}</tspan>
    </text>
  </g>
  <g>
    <rect style="fill: #ff5555" x="202" y="140" width="155.414" height="39.4142"/>
    <path style="fill: #ff5555" d="M 202,140 A 2,2 0 0 0 200,142 L 202,142 z"/>
    <path style="fill: #ff5555" d="M 359.414,142 A 2,2 0 0 0 357.414,140 L 357.414,142 z"/>
    <rect style="fill: #ff5555" x="200" y="142" width="159.414" height="35.4142"/>
    <path style="fill: #ff5555" d="M 200,177.414 A 2,2 0 0 0 202,179.414 L 202,177.414 z"/>
    <path style="fill: #ff5555" d="M 357.414,179.414 A 2,2 0 0 0 359.414,177.414 L 357.414,177.414 z"/>
    <line style="fill: none; fill-opacity:0; stroke-width: 1; stroke: #7f7f7f" x1="202" y1="140" x2="357.414" y2="140"/>
    <line style="fill: none; fill-opacity:0; stroke-width: 1; stroke: #7f7f7f" x1="202" y1="179.414" x2="357.414" y2="179.414"/>
    <path style="fill: none; fill-opacity:0; stroke-width: 1; stroke: #7f7f7f" d="M 202,140 A 2,2 0 0 0 200,142"/>
    <path style="fill: none; fill-opacity:0; stroke-width: 1; stroke: #7f7f7f" d="M 359.414,142 A 2,2 0 0 0 357.414,140"/>
    <line style="fill: none; fill-opacity:0; stroke-width: 1; stroke: #7f7f7f" x1="200" y1="142" x2="200" y2="177.414"/>
    <line style="fill: none; fill-opacity:0; stroke-width: 1; stroke: #7f7f7f" x1="359.414" y1="142" x2="359.414" y2="177.414"/>
    <path style="fill: none; fill-opacity:0; stroke-width: 1; stroke: #7f7f7f" d="M 200,177.414 A 2,2 0 0 0 202,179.414"/>
    <path style="fill: none; fill-opacity:0; stroke-width: 1; stroke: #7f7f7f" d="M 357.414,179.414 A 2,2 0 0 0 359.414,177.414"/>
    <text font-size="16.9333" style="fill: #000000;text-anchor:start;font-family:monospace;font-style:normal;font-weight:normal" x="205.5" y="164.874">
      <tspan x="205.5" y="164.874">int g(int h) {</tspan>
    </text>
  </g>
  <g>
    <rect style="fill: #ffffff" x="-20" y="130" width="20" height="23.1667"/>
    <rect style="fill: none; fill-opacity:0; stroke-width: 2; stroke: #000000" x="-20" y="130" width="20" height="23.1667"/>
    <text font-size="16.9333" style="fill: #000000;text-anchor:middle;font-family:monospace;font-style:normal;font-weight:normal" x="-10" y="146.75">
      <tspan x="-10" y="146.75">i</tspan>
    </text>
  </g>
  <text font-size="19.7556" style="fill: #000000;text-anchor:middle;font-family:sans-serif;font-style:normal;font-weight:normal" x="-320" y="238.35">
    <tspan x="-320" y="238.35">♣</tspan>
  </text>
  <g>
    <rect style="fill: #ffffff" x="-20" y="160" width="20" height="23.1667"/>
    <rect style="fill: none; fill-opacity:0; stroke-width: 2; stroke: #000000" x="-20" y="160" width="20" height="23.1667"/>
    <text font-size="16.9333" style="fill: #000000;text-anchor:middle;font-family:monospace;font-style:normal;font-weight:normal" x="-10" y="176.75">
      <tspan x="-10" y="176.75">i</tspan>
    </text>
  </g>
  <g>
    <rect style="fill: #ffffff" x="0" y="160" width="20" height="23.1667"/>
    <rect style="fill: none; fill-opacity:0; stroke-width: 2; stroke: #000000" x="0" y="160" width="20" height="23.1667"/>
    <text font-size="16.9333" style="fill: #000000;text-anchor:middle;font-family:monospace;font-style:normal;font-weight:normal" x="10" y="176.75">
      <tspan x="10" y="176.75">j</tspan>
    </text>
  </g>
  <g>
    <rect style="fill: #ffffff" x="-20" y="190" width="20" height="23.1667"/>
    <rect style="fill: none; fill-opacity:0; stroke-width: 2; stroke: #000000" x="-20" y="190" width="20" height="23.1667"/>
    <text font-size="16.9333" style="fill: #000000;text-anchor:middle;font-family:monospace;font-style:normal;font-weight:normal" x="-10" y="206.75">
      <tspan x="-10" y="206.75">i</tspan>
    </text>
  </g>
  <g>
    <rect style="fill: #ffffff" x="0" y="190" width="20" height="23.1667"/>
    <rect style="fill: none; fill-opacity:0; stroke-width: 2; stroke: #000000" x="0" y="190" width="20" height="23.1667"/>
    <text font-size="16.9333" style="fill: #000000;text-anchor:middle;font-family:monospace;font-style:normal;font-weight:normal" x="10" y="206.75">
      <tspan x="10" y="206.75">j</tspan>
    </text>
  </g>
  <g>
    <rect style="fill: #ffffff" x="20" y="190" width="20" height="23.1667"/>
    <rect style="fill: none; fill-opacity:0; stroke-width: 2; stroke: #000000" x="20" y="190" width="20" height="23.1667"/>
    <text font-size="16.9333" style="fill: #000000;text-anchor:middle;font-family:monospace;font-style:normal;font-weight:normal" x="30" y="206.75">
      <tspan x="30" y="206.75">♣</tspan>
    </text>
  </g>
  <g>
    <rect style="fill: #ffffff" x="40" y="190" width="20" height="23.1667"/>
    <rect style="fill: none; fill-opacity:0; stroke-width: 2; stroke: #000000" x="40" y="190" width="20" height="23.1667"/>
    <text font-size="16.9333" style="fill: #000000;text-anchor:middle;font-family:monospace;font-style:normal;font-weight:normal" x="50" y="206.75">
      <tspan x="50" y="206.75">h</tspan>
    </text>
  </g>
  <g>
    <rect style="fill: #ffffff" x="-20" y="220" width="20" height="23.1667"/>
    <rect style="fill: none; fill-opacity:0; stroke-width: 2; stroke: #000000" x="-20" y="220" width="20" height="23.1667"/>
    <text font-size="16.9333" style="fill: #000000;text-anchor:middle;font-family:monospace;font-style:normal;font-weight:normal" x="-10" y="236.75">
      <tspan x="-10" y="236.75">i</tspan>
    </text>
  </g>
  <g>
    <rect style="fill: #ffffff" x="0" y="220" width="20" height="23.1667"/>
    <rect style="fill: none; fill-opacity:0; stroke-width: 2; stroke: #000000" x="0" y="220" width="20" height="23.1667"/>
    <text font-size="16.9333" style="fill: #000000;text-anchor:middle;font-family:monospace;font-style:normal;font-weight:normal" x="10" y="236.75">
      <tspan x="10" y="236.75">j</tspan>
    </text>
  </g>
  <g>
    <rect style="fill: #ffffff" x="20" y="220" width="20" height="23.1667"/>
    <rect style="fill: none; fill-opacity:0; stroke-width: 2; stroke: #000000" x="20" y="220" width="20" height="23.1667"/>
    <text font-size="16.9333" style="fill: #000000;text-anchor:middle;font-family:monospace;font-style:normal;font-weight:normal" x="30" y="236.75">
      <tspan x="30" y="236.75">♣</tspan>
    </text>
  </g>
  <g>
    <rect style="fill: #ffffff" x="40" y="220" width="20" height="23.1667"/>
    <rect style="fill: none; fill-opacity:0; stroke-width: 2; stroke: #000000" x="40" y="220" width="20" height="23.1667"/>
    <text font-size="16.9333" style="fill: #000000;text-anchor:middle;font-family:monospace;font-style:normal;font-weight:normal" x="50" y="236.75">
      <tspan x="50" y="236.75">h</tspan>
    </text>
  </g>
  <g>
    <rect style="fill: #ffffff" x="60" y="220" width="20" height="23.1667"/>
    <rect style="fill: none; fill-opacity:0; stroke-width: 2; stroke: #000000" x="60" y="220" width="20" height="23.1667"/>
    <text font-size="16.9333" style="fill: #000000;text-anchor:middle;font-family:monospace;font-style:normal;font-weight:normal" x="70" y="236.75">
      <tspan x="70" y="236.75">k</tspan>
    </text>
  </g>
  <g>
    <rect style="fill: #ffffff" x="-20" y="250" width="20" height="23.1667"/>
    <rect style="fill: none; fill-opacity:0; stroke-width: 2; stroke: #000000" x="-20" y="250" width="20" height="23.1667"/>
    <text font-size="16.9333" style="fill: #000000;text-anchor:middle;font-family:monospace;font-style:normal;font-weight:normal" x="-10" y="266.75">
      <tspan x="-10" y="266.75">i</tspan>
    </text>
  </g>
  <g>
    <rect style="fill: #ffffff" x="0" y="250" width="20" height="23.1667"/>
    <rect style="fill: none; fill-opacity:0; stroke-width: 2; stroke: #000000" x="0" y="250" width="20" height="23.1667"/>
    <text font-size="16.9333" style="fill: #000000;text-anchor:middle;font-family:monospace;font-style:normal;font-weight:normal" x="10" y="266.75">
      <tspan x="10" y="266.75">j</tspan>
    </text>
  </g>
  <g>
    <rect style="fill: #ffffff" x="-20" y="280" width="20" height="23.1667"/>
    <rect style="fill: none; fill-opacity:0; stroke-width: 2; stroke: #000000" x="-20" y="280" width="20" height="23.1667"/>
    <text font-size="16.9333" style="fill: #000000;text-anchor:middle;font-family:monospace;font-style:normal;font-weight:normal" x="-10" y="296.75">
      <tspan x="-10" y="296.75">i</tspan>
    </text>
  </g>
  <g>
    <rect style="fill: #ffffff" x="0" y="280" width="20" height="23.1667"/>
    <rect style="fill: none; fill-opacity:0; stroke-width: 2; stroke: #000000" x="0" y="280" width="20" height="23.1667"/>
    <text font-size="16.9333" style="fill: #000000;text-anchor:middle;font-family:monospace;font-style:normal;font-weight:normal" x="10" y="296.75">
      <tspan x="10" y="296.75">j</tspan>
    </text>
  </g>
  <g>
    <rect style="fill: #ffffff" x="20" y="280" width="20" height="23.1667"/>
    <rect style="fill: none; fill-opacity:0; stroke-width: 2; stroke: #000000" x="20" y="280" width="20" height="23.1667"/>
    <text font-size="16.9333" style="fill: #000000;text-anchor:middle;font-family:monospace;font-style:normal;font-weight:normal" x="30" y="296.75">
      <tspan x="30" y="296.75">l</tspan>
    </text>
  </g>
</svg>
