<?xml version="1.0" encoding="UTF-8" standalone="no"?>
<!DOCTYPE svg PUBLIC "-//W3C//DTD SVG 1.0//EN" "http://www.w3.org/TR/2001/PR-SVG-20010719/DTD/svg10.dtd">
<svg viewBox="-304 79 657 242" xmlns="http://www.w3.org/2000/svg" xmlns:xlink="http://www.w3.org/1999/xlink">
  <g>
    <path style="fill: none; fill-opacity:0; stroke-width: 2; stroke: #000000" d="M -120 220 C -60,240 100,140 150.764,156.921"/>
    <polygon style="fill: #000000" points="157.879,159.293 146.811,160.874 150.764,156.921 149.973,151.387 "/>
    <polygon style="fill: none; fill-opacity:0; stroke-width: 2; stroke: #000000" points="157.879,159.293 146.811,160.874 150.764,156.921 149.973,151.387 "/>
  </g>
  <g>
    <rect style="fill: #ffff55" x="-218" y="120" width="96" height="200"/>
    <path style="fill: #ffff55" d="M -218,120 A 2,2 0 0 0 -220,122 L -218,122 z"/>
    <path style="fill: #ffff55" d="M -120,122 A 2,2 0 0 0 -122,120 L -122,122 z"/>
    <rect style="fill: #ffff55" x="-220" y="122" width="100" height="196"/>
    <path style="fill: #ffff55" d="M -220,318 A 2,2 0 0 0 -218,320 L -218,318 z"/>
    <path style="fill: #ffff55" d="M -122,320 A 2,2 0 0 0 -120,318 L -122,318 z"/>
    <line style="fill: none; fill-opacity:0; stroke-width: 1; stroke: #7f7f7f" x1="-218" y1="120" x2="-122" y2="120"/>
    <line style="fill: none; fill-opacity:0; stroke-width: 1; stroke: #7f7f7f" x1="-218" y1="320" x2="-122" y2="320"/>
    <path style="fill: none; fill-opacity:0; stroke-width: 1; stroke: #7f7f7f" d="M -218,120 A 2,2 0 0 0 -220,122"/>
    <path style="fill: none; fill-opacity:0; stroke-width: 1; stroke: #7f7f7f" d="M -120,122 A 2,2 0 0 0 -122,120"/>
    <line style="fill: none; fill-opacity:0; stroke-width: 1; stroke: #7f7f7f" x1="-220" y1="122" x2="-220" y2="318"/>
    <line style="fill: none; fill-opacity:0; stroke-width: 1; stroke: #7f7f7f" x1="-120" y1="122" x2="-120" y2="318"/>
    <path style="fill: none; fill-opacity:0; stroke-width: 1; stroke: #7f7f7f" d="M -220,318 A 2,2 0 0 0 -218,320"/>
    <path style="fill: none; fill-opacity:0; stroke-width: 1; stroke: #7f7f7f" d="M -122,320 A 2,2 0 0 0 -120,318"/>
    <text font-size="16.9333" style="fill: #000000;text-anchor:start;font-family:monospace;font-style:normal;font-weight:normal" x="-214.5" y="151.083">
      <tspan x="-214.5" y="151.083"># ...</tspan>
      <tspan x="-214.5" y="172.25">i = 0</tspan>
      <tspan x="-214.5" y="193.417">j = 2</tspan>
      <tspan x="-214.5" y="214.583">i = g(j)</tspan>
      <tspan x="-214.5" y="235.75"></tspan>
      <tspan x="-214.5" y="256.917"># ...</tspan>
      <tspan x="-214.5" y="278.083"></tspan>
      <tspan x="-214.5" y="299.25">l = 1</tspan>
    </text>
  </g>
  <g>
    <rect style="fill: #ff5555" x="-238" y="80" width="116" height="40"/>
    <path style="fill: #ff5555" d="M -238,80 A 2,2 0 0 0 -240,82 L -238,82 z"/>
    <path style="fill: #ff5555" d="M -120,82 A 2,2 0 0 0 -122,80 L -122,82 z"/>
    <rect style="fill: #ff5555" x="-240" y="82" width="120" height="36"/>
    <path style="fill: #ff5555" d="M -240,118 A 2,2 0 0 0 -238,120 L -238,118 z"/>
    <path style="fill: #ff5555" d="M -122,120 A 2,2 0 0 0 -120,118 L -122,118 z"/>
    <line style="fill: none; fill-opacity:0; stroke-width: 1; stroke: #7f7f7f" x1="-238" y1="80" x2="-122" y2="80"/>
    <line style="fill: none; fill-opacity:0; stroke-width: 1; stroke: #7f7f7f" x1="-238" y1="120" x2="-122" y2="120"/>
    <path style="fill: none; fill-opacity:0; stroke-width: 1; stroke: #7f7f7f" d="M -238,80 A 2,2 0 0 0 -240,82"/>
    <path style="fill: none; fill-opacity:0; stroke-width: 1; stroke: #7f7f7f" d="M -120,82 A 2,2 0 0 0 -122,80"/>
    <line style="fill: none; fill-opacity:0; stroke-width: 1; stroke: #7f7f7f" x1="-240" y1="82" x2="-240" y2="118"/>
    <line style="fill: none; fill-opacity:0; stroke-width: 1; stroke: #7f7f7f" x1="-120" y1="82" x2="-120" y2="118"/>
    <path style="fill: none; fill-opacity:0; stroke-width: 1; stroke: #7f7f7f" d="M -240,118 A 2,2 0 0 0 -238,120"/>
    <path style="fill: none; fill-opacity:0; stroke-width: 1; stroke: #7f7f7f" d="M -122,120 A 2,2 0 0 0 -120,118"/>
    <text font-size="16.9333" style="fill: #000000;text-anchor:start;font-family:monospace;font-style:normal;font-weight:normal" x="-234.5" y="105.167">
      <tspan x="-234.5" y="105.167">def f():</tspan>
    </text>
  </g>
  <g>
    <rect style="fill: #ffff55" x="182" y="180" width="96" height="100"/>
    <path style="fill: #ffff55" d="M 182,180 A 2,2 0 0 0 180,182 L 182,182 z"/>
    <path style="fill: #ffff55" d="M 280,182 A 2,2 0 0 0 278,180 L 278,182 z"/>
    <rect style="fill: #ffff55" x="180" y="182" width="100" height="96"/>
    <path style="fill: #ffff55" d="M 180,278 A 2,2 0 0 0 182,280 L 182,278 z"/>
    <path style="fill: #ffff55" d="M 278,280 A 2,2 0 0 0 280,278 L 278,278 z"/>
    <line style="fill: none; fill-opacity:0; stroke-width: 1; stroke: #7f7f7f" x1="182" y1="180" x2="278" y2="180"/>
    <line style="fill: none; fill-opacity:0; stroke-width: 1; stroke: #7f7f7f" x1="182" y1="280" x2="278" y2="280"/>
    <path style="fill: none; fill-opacity:0; stroke-width: 1; stroke: #7f7f7f" d="M 182,180 A 2,2 0 0 0 180,182"/>
    <path style="fill: none; fill-opacity:0; stroke-width: 1; stroke: #7f7f7f" d="M 280,182 A 2,2 0 0 0 278,180"/>
    <line style="fill: none; fill-opacity:0; stroke-width: 1; stroke: #7f7f7f" x1="180" y1="182" x2="180" y2="278"/>
    <line style="fill: none; fill-opacity:0; stroke-width: 1; stroke: #7f7f7f" x1="280" y1="182" x2="280" y2="278"/>
    <path style="fill: none; fill-opacity:0; stroke-width: 1; stroke: #7f7f7f" d="M 180,278 A 2,2 0 0 0 182,280"/>
    <path style="fill: none; fill-opacity:0; stroke-width: 1; stroke: #7f7f7f" d="M 278,280 A 2,2 0 0 0 280,278"/>
    <text font-size="16.9333" style="fill: #000000;text-anchor:start;font-family:monospace;font-style:normal;font-weight:normal" x="185.5" y="224.583">
      <tspan x="185.5" y="224.583">k = h**2</tspan>
      <tspan x="185.5" y="245.75">return k</tspan>
    </text>
  </g>
  <g>
    <rect style="fill: #ff5555" x="162" y="140" width="116" height="40"/>
    <path style="fill: #ff5555" d="M 162,140 A 2,2 0 0 0 160,142 L 162,142 z"/>
    <path style="fill: #ff5555" d="M 280,142 A 2,2 0 0 0 278,140 L 278,142 z"/>
    <rect style="fill: #ff5555" x="160" y="142" width="120" height="36"/>
    <path style="fill: #ff5555" d="M 160,178 A 2,2 0 0 0 162,180 L 162,178 z"/>
    <path style="fill: #ff5555" d="M 278,180 A 2,2 0 0 0 280,178 L 278,178 z"/>
    <line style="fill: none; fill-opacity:0; stroke-width: 1; stroke: #7f7f7f" x1="162" y1="140" x2="278" y2="140"/>
    <line style="fill: none; fill-opacity:0; stroke-width: 1; stroke: #7f7f7f" x1="162" y1="180" x2="278" y2="180"/>
    <path style="fill: none; fill-opacity:0; stroke-width: 1; stroke: #7f7f7f" d="M 162,140 A 2,2 0 0 0 160,142"/>
    <path style="fill: none; fill-opacity:0; stroke-width: 1; stroke: #7f7f7f" d="M 280,142 A 2,2 0 0 0 278,140"/>
    <line style="fill: none; fill-opacity:0; stroke-width: 1; stroke: #7f7f7f" x1="160" y1="142" x2="160" y2="178"/>
    <line style="fill: none; fill-opacity:0; stroke-width: 1; stroke: #7f7f7f" x1="280" y1="142" x2="280" y2="178"/>
    <path style="fill: none; fill-opacity:0; stroke-width: 1; stroke: #7f7f7f" d="M 160,178 A 2,2 0 0 0 162,180"/>
    <path style="fill: none; fill-opacity:0; stroke-width: 1; stroke: #7f7f7f" d="M 278,180 A 2,2 0 0 0 280,178"/>
    <text font-size="16.9333" style="fill: #000000;text-anchor:start;font-family:monospace;font-style:normal;font-weight:normal" x="165.5" y="165.167">
      <tspan x="165.5" y="165.167">def g(h):</tspan>
    </text>
  </g>
  <g>
    <rect style="fill: #ffffff" x="-20" y="130" width="20" height="23.1667"/>
    <rect style="fill: none; fill-opacity:0; stroke-width: 2; stroke: #000000" x="-20" y="130" width="20" height="23.1667"/>
    <text font-size="16.9333" style="fill: #000000;text-anchor:middle;font-family:monospace;font-style:normal;font-weight:normal" x="-10" y="146.75">
      <tspan x="-10" y="146.75">i</tspan>
    </text>
  </g>
  <text font-size="19.7553" style="fill: #000000;text-anchor:middle;font-family:sans-serif;font-style:normal;font-weight:normal" x="-240" y="236.825">
    <tspan x="-240" y="236.825">♣</tspan>
  </text>
  <g>
    <rect style="fill: #ffffff" x="-20" y="160" width="20" height="23.1667"/>
    <rect style="fill: none; fill-opacity:0; stroke-width: 2; stroke: #000000" x="-20" y="160" width="20" height="23.1667"/>
    <text font-size="16.9333" style="fill: #000000;text-anchor:middle;font-family:monospace;font-style:normal;font-weight:normal" x="-10" y="176.75">
      <tspan x="-10" y="176.75">i</tspan>
    </text>
  </g>
  <g>
    <rect style="fill: #ffffff" x="0" y="160" width="20" height="23.1667"/>
    <rect style="fill: none; fill-opacity:0; stroke-width: 2; stroke: #000000" x="0" y="160" width="20" height="23.1667"/>
    <text font-size="16.9333" style="fill: #000000;text-anchor:middle;font-family:monospace;font-style:normal;font-weight:normal" x="10" y="176.75">
      <tspan x="10" y="176.75">j</tspan>
    </text>
  </g>
  <g>
    <rect style="fill: #ffffff" x="-20" y="190" width="20" height="23.1667"/>
    <rect style="fill: none; fill-opacity:0; stroke-width: 2; stroke: #000000" x="-20" y="190" width="20" height="23.1667"/>
    <text font-size="16.9333" style="fill: #000000;text-anchor:middle;font-family:monospace;font-style:normal;font-weight:normal" x="-10" y="206.75">
      <tspan x="-10" y="206.75">i</tspan>
    </text>
  </g>
  <g>
    <rect style="fill: #ffffff" x="0" y="190" width="20" height="23.1667"/>
    <rect style="fill: none; fill-opacity:0; stroke-width: 2; stroke: #000000" x="0" y="190" width="20" height="23.1667"/>
    <text font-size="16.9333" style="fill: #000000;text-anchor:middle;font-family:monospace;font-style:normal;font-weight:normal" x="10" y="206.75">
      <tspan x="10" y="206.75">j</tspan>
    </text>
  </g>
  <g>
    <rect style="fill: #ffffff" x="20" y="190" width="20" height="23.1667"/>
    <rect style="fill: none; fill-opacity:0; stroke-width: 2; stroke: #000000" x="20" y="190" width="20" height="23.1667"/>
    <text font-size="16.9333" style="fill: #000000;text-anchor:middle;font-family:monospace;font-style:normal;font-weight:normal" x="30" y="206.75">
      <tspan x="30" y="206.75">♣</tspan>
    </text>
  </g>
  <g>
    <rect style="fill: #ffffff" x="40" y="190" width="20" height="23.1667"/>
    <rect style="fill: none; fill-opacity:0; stroke-width: 2; stroke: #000000" x="40" y="190" width="20" height="23.1667"/>
    <text font-size="16.9333" style="fill: #000000;text-anchor:middle;font-family:monospace;font-style:normal;font-weight:normal" x="50" y="206.75">
      <tspan x="50" y="206.75">h</tspan>
    </text>
  </g>
  <g>
    <rect style="fill: #ffffff" x="-20" y="220" width="20" height="23.1667"/>
    <rect style="fill: none; fill-opacity:0; stroke-width: 2; stroke: #000000" x="-20" y="220" width="20" height="23.1667"/>
    <text font-size="16.9333" style="fill: #000000;text-anchor:middle;font-family:monospace;font-style:normal;font-weight:normal" x="-10" y="236.75">
      <tspan x="-10" y="236.75">i</tspan>
    </text>
  </g>
  <g>
    <rect style="fill: #ffffff" x="0" y="220" width="20" height="23.1667"/>
    <rect style="fill: none; fill-opacity:0; stroke-width: 2; stroke: #000000" x="0" y="220" width="20" height="23.1667"/>
    <text font-size="16.9333" style="fill: #000000;text-anchor:middle;font-family:monospace;font-style:normal;font-weight:normal" x="10" y="236.75">
      <tspan x="10" y="236.75">j</tspan>
    </text>
  </g>
  <g>
    <rect style="fill: #ffffff" x="20" y="220" width="20" height="23.1667"/>
    <rect style="fill: none; fill-opacity:0; stroke-width: 2; stroke: #000000" x="20" y="220" width="20" height="23.1667"/>
    <text font-size="16.9333" style="fill: #000000;text-anchor:middle;font-family:monospace;font-style:normal;font-weight:normal" x="30" y="236.75">
      <tspan x="30" y="236.75">♣</tspan>
    </text>
  </g>
  <g>
    <rect style="fill: #ffffff" x="40" y="220" width="20" height="23.1667"/>
    <rect style="fill: none; fill-opacity:0; stroke-width: 2; stroke: #000000" x="40" y="220" width="20" height="23.1667"/>
    <text font-size="16.9333" style="fill: #000000;text-anchor:middle;font-family:monospace;font-style:normal;font-weight:normal" x="50" y="236.75">
      <tspan x="50" y="236.75">h</tspan>
    </text>
  </g>
  <g>
    <rect style="fill: #ffffff" x="60" y="220" width="20" height="23.1667"/>
    <rect style="fill: none; fill-opacity:0; stroke-width: 2; stroke: #000000" x="60" y="220" width="20" height="23.1667"/>
    <text font-size="16.9333" style="fill: #000000;text-anchor:middle;font-family:monospace;font-style:normal;font-weight:normal" x="70" y="236.75">
      <tspan x="70" y="236.75">k</tspan>
    </text>
  </g>
  <g>
    <rect style="fill: #ffffff" x="-20" y="250" width="20" height="23.1667"/>
    <rect style="fill: none; fill-opacity:0; stroke-width: 2; stroke: #000000" x="-20" y="250" width="20" height="23.1667"/>
    <text font-size="16.9333" style="fill: #000000;text-anchor:middle;font-family:monospace;font-style:normal;font-weight:normal" x="-10" y="266.75">
      <tspan x="-10" y="266.75">i</tspan>
    </text>
  </g>
  <g>
    <rect style="fill: #ffffff" x="0" y="250" width="20" height="23.1667"/>
    <rect style="fill: none; fill-opacity:0; stroke-width: 2; stroke: #000000" x="0" y="250" width="20" height="23.1667"/>
    <text font-size="16.9333" style="fill: #000000;text-anchor:middle;font-family:monospace;font-style:normal;font-weight:normal" x="10" y="266.75">
      <tspan x="10" y="266.75">j</tspan>
    </text>
  </g>
  <g>
    <rect style="fill: #ffffff" x="-20" y="280" width="20" height="23.1667"/>
    <rect style="fill: none; fill-opacity:0; stroke-width: 2; stroke: #000000" x="-20" y="280" width="20" height="23.1667"/>
    <text font-size="16.9333" style="fill: #000000;text-anchor:middle;font-family:monospace;font-style:normal;font-weight:normal" x="-10" y="296.75">
      <tspan x="-10" y="296.75">i</tspan>
    </text>
  </g>
  <g>
    <rect style="fill: #ffffff" x="0" y="280" width="20" height="23.1667"/>
    <rect style="fill: none; fill-opacity:0; stroke-width: 2; stroke: #000000" x="0" y="280" width="20" height="23.1667"/>
    <text font-size="16.9333" style="fill: #000000;text-anchor:middle;font-family:monospace;font-style:normal;font-weight:normal" x="10" y="296.75">
      <tspan x="10" y="296.75">j</tspan>
    </text>
  </g>
  <g>
    <rect style="fill: #ffffff" x="20" y="280" width="20" height="23.1667"/>
    <rect style="fill: none; fill-opacity:0; stroke-width: 2; stroke: #000000" x="20" y="280" width="20" height="23.1667"/>
    <text font-size="16.9333" style="fill: #000000;text-anchor:middle;font-family:monospace;font-style:normal;font-weight:normal" x="30" y="296.75">
      <tspan x="30" y="296.75">l</tspan>
    </text>
  </g>
  <text font-size="19.7553" style="fill: #000000;text-anchor:middle;font-family:sans-serif;font-style:normal;font-weight:normal" x="-300" y="236.825">
    <tspan x="-300" y="236.825">.</tspan>
  </text>
  <text font-size="19.7553" style="fill: #000000;text-anchor:middle;font-family:sans-serif;font-style:normal;font-weight:normal" x="350" y="236.825">
    <tspan x="350" y="236.825">.</tspan>
  </text>
</svg>
