<?xml version="1.0" encoding="UTF-8" standalone="no"?>
<!DOCTYPE svg PUBLIC "-//W3C//DTD SVG 1.0//EN" "http://www.w3.org/TR/2001/PR-SVG-20010719/DTD/svg10.dtd">
<svg width="14cm" height="21cm" viewBox="20 19 280 402" xmlns="http://www.w3.org/2000/svg" xmlns:xlink="http://www.w3.org/1999/xlink">
  <g>
    <rect style="fill: #ffff55" x="106" y="120" width="128" height="60"/>
    <path style="fill: #ffff55" d="M 106,120 A 6,6 0 0 0 100,126 L 106,126 z"/>
    <path style="fill: #ffff55" d="M 240,126 A 6,6 0 0 0 234,120 L 234,126 z"/>
    <rect style="fill: #ffff55" x="100" y="126" width="140" height="48"/>
    <path style="fill: #ffff55" d="M 100,174 A 6,6 0 0 0 106,180 L 106,174 z"/>
    <path style="fill: #ffff55" d="M 234,180 A 6,6 0 0 0 240,174 L 234,174 z"/>
    <line style="fill: none; fill-opacity:0; stroke-width: 1; stroke: #000000" x1="106" y1="120" x2="234" y2="120"/>
    <line style="fill: none; fill-opacity:0; stroke-width: 1; stroke: #000000" x1="106" y1="180" x2="234" y2="180"/>
    <path style="fill: none; fill-opacity:0; stroke-width: 1; stroke: #000000" d="M 106,120 A 6,6 0 0 0 100,126"/>
    <path style="fill: none; fill-opacity:0; stroke-width: 1; stroke: #000000" d="M 240,126 A 6,6 0 0 0 234,120"/>
    <line style="fill: none; fill-opacity:0; stroke-width: 1; stroke: #000000" x1="100" y1="126" x2="100" y2="174"/>
    <line style="fill: none; fill-opacity:0; stroke-width: 1; stroke: #000000" x1="240" y1="126" x2="240" y2="174"/>
    <path style="fill: none; fill-opacity:0; stroke-width: 1; stroke: #000000" d="M 100,174 A 6,6 0 0 0 106,180"/>
    <path style="fill: none; fill-opacity:0; stroke-width: 1; stroke: #000000" d="M 234,180 A 6,6 0 0 0 240,174"/>
    <text font-size="16.9333" style="fill: #000000;text-anchor:start;font-family:sans-serif;font-style:normal;font-weight:normal" x="105.5" y="144.583">
      <tspan x="105.5" y="144.583">N = 1</tspan>
      <tspan x="105.5" y="165.75">ACC = 6</tspan>
    </text>
  </g>
  <g>
    <rect style="fill: #ffff55" x="106" y="220" width="128" height="60"/>
    <path style="fill: #ffff55" d="M 106,220 A 6,6 0 0 0 100,226 L 106,226 z"/>
    <path style="fill: #ffff55" d="M 240,226 A 6,6 0 0 0 234,220 L 234,226 z"/>
    <rect style="fill: #ffff55" x="100" y="226" width="140" height="48"/>
    <path style="fill: #ffff55" d="M 100,274 A 6,6 0 0 0 106,280 L 106,274 z"/>
    <path style="fill: #ffff55" d="M 234,280 A 6,6 0 0 0 240,274 L 234,274 z"/>
    <line style="fill: none; fill-opacity:0; stroke-width: 1; stroke: #000000" x1="106" y1="220" x2="234" y2="220"/>
    <line style="fill: none; fill-opacity:0; stroke-width: 1; stroke: #000000" x1="106" y1="280" x2="234" y2="280"/>
    <path style="fill: none; fill-opacity:0; stroke-width: 1; stroke: #000000" d="M 106,220 A 6,6 0 0 0 100,226"/>
    <path style="fill: none; fill-opacity:0; stroke-width: 1; stroke: #000000" d="M 240,226 A 6,6 0 0 0 234,220"/>
    <line style="fill: none; fill-opacity:0; stroke-width: 1; stroke: #000000" x1="100" y1="226" x2="100" y2="274"/>
    <line style="fill: none; fill-opacity:0; stroke-width: 1; stroke: #000000" x1="240" y1="226" x2="240" y2="274"/>
    <path style="fill: none; fill-opacity:0; stroke-width: 1; stroke: #000000" d="M 100,274 A 6,6 0 0 0 106,280"/>
    <path style="fill: none; fill-opacity:0; stroke-width: 1; stroke: #000000" d="M 234,280 A 6,6 0 0 0 240,274"/>
    <text font-size="16.9333" style="fill: #000000;text-anchor:start;font-family:sans-serif;font-style:normal;font-weight:normal" x="105.5" y="244.583">
      <tspan x="105.5" y="244.583">N = 2</tspan>
      <tspan x="105.5" y="265.75">ACC = 3</tspan>
    </text>
  </g>
  <g>
    <rect style="fill: #ffff55" x="106" y="320" width="128" height="60"/>
    <path style="fill: #ffff55" d="M 106,320 A 6,6 0 0 0 100,326 L 106,326 z"/>
    <path style="fill: #ffff55" d="M 240,326 A 6,6 0 0 0 234,320 L 234,326 z"/>
    <rect style="fill: #ffff55" x="100" y="326" width="140" height="48"/>
    <path style="fill: #ffff55" d="M 100,374 A 6,6 0 0 0 106,380 L 106,374 z"/>
    <path style="fill: #ffff55" d="M 234,380 A 6,6 0 0 0 240,374 L 234,374 z"/>
    <line style="fill: none; fill-opacity:0; stroke-width: 1; stroke: #000000" x1="106" y1="320" x2="234" y2="320"/>
    <line style="fill: none; fill-opacity:0; stroke-width: 1; stroke: #000000" x1="106" y1="380" x2="234" y2="380"/>
    <path style="fill: none; fill-opacity:0; stroke-width: 1; stroke: #000000" d="M 106,320 A 6,6 0 0 0 100,326"/>
    <path style="fill: none; fill-opacity:0; stroke-width: 1; stroke: #000000" d="M 240,326 A 6,6 0 0 0 234,320"/>
    <line style="fill: none; fill-opacity:0; stroke-width: 1; stroke: #000000" x1="100" y1="326" x2="100" y2="374"/>
    <line style="fill: none; fill-opacity:0; stroke-width: 1; stroke: #000000" x1="240" y1="326" x2="240" y2="374"/>
    <path style="fill: none; fill-opacity:0; stroke-width: 1; stroke: #000000" d="M 100,374 A 6,6 0 0 0 106,380"/>
    <path style="fill: none; fill-opacity:0; stroke-width: 1; stroke: #000000" d="M 234,380 A 6,6 0 0 0 240,374"/>
    <text font-size="16.9333" style="fill: #000000;text-anchor:start;font-family:sans-serif;font-style:normal;font-weight:normal" x="105.5" y="344.583">
      <tspan x="105.5" y="344.583">N = 3</tspan>
      <tspan x="105.5" y="365.75">ACC = 1</tspan>
    </text>
  </g>
  <g>
    <path style="fill: none; fill-opacity:0; stroke-width: 2; stroke: #000000" d="M 60 420 C 60,390 60,360 90.5546,352.361"/>
    <polygon style="fill: #000000" points="97.8307,350.542 89.3419,357.818 90.5546,352.361 86.9166,348.117 "/>
    <polygon style="fill: none; fill-opacity:0; stroke-width: 2; stroke: #000000" points="97.8307,350.542 89.3419,357.818 90.5546,352.361 86.9166,348.117 "/>
  </g>
  <g>
    <path style="fill: none; fill-opacity:0; stroke-width: 2; stroke: #000000" d="M 90.5912,251.644 A 42.5781,42.5781 0 0 0 100,335"/>
    <polygon style="fill: #000000" points="97.768,250.135 88.0891,255.732 90.2818,250.59 87.4836,245.75 "/>
    <polygon style="fill: none; fill-opacity:0; stroke-width: 2; stroke: #000000" points="97.768,250.135 88.0891,255.732 90.2818,250.59 87.4836,245.75 "/>
  </g>
  <g>
    <path style="fill: none; fill-opacity:0; stroke-width: 2; stroke: #000000" d="M 90.5912,151.644 A 42.5781,42.5781 0 0 0 100,235"/>
    <polygon style="fill: #000000" points="97.768,150.135 88.0891,155.732 90.2818,150.59 87.4836,145.75 "/>
    <polygon style="fill: none; fill-opacity:0; stroke-width: 2; stroke: #000000" points="97.768,150.135 88.0891,155.732 90.2818,150.59 87.4836,145.75 "/>
  </g>
  <g>
    <path style="fill: none; fill-opacity:0; stroke-width: 2; stroke: #000000" d="M 249.409,233.356 A 42.5781,42.5781 0 0 0 240,150"/>
    <polygon style="fill: #000000" points="242.232,234.865 251.911,229.268 249.718,234.41 252.516,239.25 "/>
    <polygon style="fill: none; fill-opacity:0; stroke-width: 2; stroke: #000000" points="242.232,234.865 251.911,229.268 249.718,234.41 252.516,239.25 "/>
  </g>
  <g>
    <path style="fill: none; fill-opacity:0; stroke-width: 2; stroke: #000000" d="M 249.409,333.356 A 42.5781,42.5781 0 0 0 240,250"/>
    <polygon style="fill: #000000" points="242.232,334.865 251.911,329.268 249.718,334.41 252.516,339.25 "/>
    <polygon style="fill: none; fill-opacity:0; stroke-width: 2; stroke: #000000" points="242.232,334.865 251.911,329.268 249.718,334.41 252.516,339.25 "/>
  </g>
  <g>
    <path style="fill: none; fill-opacity:0; stroke-width: 2; stroke: #000000" d="M 240 350 C 280,360 280,390 280,410.264"/>
    <polygon style="fill: #000000" points="280,417.764 275,407.764 280,410.264 285,407.764 "/>
    <polygon style="fill: none; fill-opacity:0; stroke-width: 2; stroke: #000000" points="280,417.764 275,407.764 280,410.264 285,407.764 "/>
  </g>
  <text font-size="16.9333" style="fill: #000000;text-anchor:start;font-family:sans-serif;font-style:normal;font-weight:normal" x="20" y="200">
    <tspan x="20" y="200">1, 6</tspan>
  </text>
  <text font-size="16.9333" style="fill: #000000;text-anchor:start;font-family:sans-serif;font-style:normal;font-weight:normal" x="20" y="300">
    <tspan x="20" y="300">2, 3</tspan>
  </text>
  <text font-size="16.9333" style="fill: #000000;text-anchor:start;font-family:sans-serif;font-style:normal;font-weight:normal" x="20" y="400">
    <tspan x="20" y="400">3, 1</tspan>
  </text>
  <text font-size="16.9333" style="fill: #000000;text-anchor:end;font-family:sans-serif;font-style:normal;font-weight:normal" x="300" y="200">
    <tspan x="300" y="200">6</tspan>
  </text>
  <text font-size="16.9333" style="fill: #000000;text-anchor:end;font-family:sans-serif;font-style:normal;font-weight:normal" x="300" y="300">
    <tspan x="300" y="300">6</tspan>
  </text>
  <text font-size="16.9333" style="fill: #000000;text-anchor:end;font-family:sans-serif;font-style:normal;font-weight:normal" x="300" y="400">
    <tspan x="300" y="400">6</tspan>
  </text>
  <g>
    <rect style="fill: #ffff55" x="106" y="20" width="128" height="60"/>
    <path style="fill: #ffff55" d="M 106,20 A 6,6 0 0 0 100,26 L 106,26 z"/>
    <path style="fill: #ffff55" d="M 240,26 A 6,6 0 0 0 234,20 L 234,26 z"/>
    <rect style="fill: #ffff55" x="100" y="26" width="140" height="48"/>
    <path style="fill: #ffff55" d="M 100,74 A 6,6 0 0 0 106,80 L 106,74 z"/>
    <path style="fill: #ffff55" d="M 234,80 A 6,6 0 0 0 240,74 L 234,74 z"/>
    <line style="fill: none; fill-opacity:0; stroke-width: 1; stroke: #000000" x1="106" y1="20" x2="234" y2="20"/>
    <line style="fill: none; fill-opacity:0; stroke-width: 1; stroke: #000000" x1="106" y1="80" x2="234" y2="80"/>
    <path style="fill: none; fill-opacity:0; stroke-width: 1; stroke: #000000" d="M 106,20 A 6,6 0 0 0 100,26"/>
    <path style="fill: none; fill-opacity:0; stroke-width: 1; stroke: #000000" d="M 240,26 A 6,6 0 0 0 234,20"/>
    <line style="fill: none; fill-opacity:0; stroke-width: 1; stroke: #000000" x1="100" y1="26" x2="100" y2="74"/>
    <line style="fill: none; fill-opacity:0; stroke-width: 1; stroke: #000000" x1="240" y1="26" x2="240" y2="74"/>
    <path style="fill: none; fill-opacity:0; stroke-width: 1; stroke: #000000" d="M 100,74 A 6,6 0 0 0 106,80"/>
    <path style="fill: none; fill-opacity:0; stroke-width: 1; stroke: #000000" d="M 234,80 A 6,6 0 0 0 240,74"/>
    <text font-size="16.9333" style="fill: #000000;text-anchor:start;font-family:sans-serif;font-style:normal;font-weight:normal" x="105.5" y="44.5833">
      <tspan x="105.5" y="44.5833">N = 0</tspan>
      <tspan x="105.5" y="65.75">ACC = 6</tspan>
    </text>
  </g>
  <g>
    <path style="fill: none; fill-opacity:0; stroke-width: 2; stroke: #000000" d="M 90.5912,51.644 A 42.5781,42.5781 0 0 0 100,135"/>
    <polygon style="fill: #000000" points="97.768,50.1354 88.0891,55.7317 90.2818,50.5895 87.4836,45.7501 "/>
    <polygon style="fill: none; fill-opacity:0; stroke-width: 2; stroke: #000000" points="97.768,50.1354 88.0891,55.7317 90.2818,50.5895 87.4836,45.7501 "/>
  </g>
  <text font-size="16.9333" style="fill: #000000;text-anchor:start;font-family:sans-serif;font-style:normal;font-weight:normal" x="20" y="100">
    <tspan x="20" y="100">0, 6</tspan>
  </text>
  <g>
    <path style="fill: none; fill-opacity:0; stroke-width: 2; stroke: #000000" d="M 249.409,133.356 A 42.5781,42.5781 0 0 0 240,50"/>
    <polygon style="fill: #000000" points="242.232,134.865 251.911,129.268 249.718,134.41 252.516,139.25 "/>
    <polygon style="fill: none; fill-opacity:0; stroke-width: 2; stroke: #000000" points="242.232,134.865 251.911,129.268 249.718,134.41 252.516,139.25 "/>
  </g>
  <text font-size="16.9333" style="fill: #000000;text-anchor:end;font-family:sans-serif;font-style:normal;font-weight:normal" x="300" y="100">
    <tspan x="300" y="100">6</tspan>
  </text>
</svg>
