<?xml version="1.0" encoding="UTF-8" standalone="no"?>
<!-- Created with Inkscape (http://www.inkscape.org/) -->

<svg
   xmlns:dc="http://purl.org/dc/elements/1.1/"
   xmlns:cc="http://creativecommons.org/ns#"
   xmlns:rdf="http://www.w3.org/1999/02/22-rdf-syntax-ns#"
   xmlns:svg="http://www.w3.org/2000/svg"
   xmlns="http://www.w3.org/2000/svg"
   version="1.1"
   width="411"
   height="215"
   id="svg2">
  <metadata
     id="metadata8">
    <rdf:RDF>
      <cc:Work
         rdf:about="">
        <dc:format>image/svg+xml</dc:format>
        <dc:type
           rdf:resource="http://purl.org/dc/dcmitype/StillImage" />
        <dc:title></dc:title>
      </cc:Work>
    </rdf:RDF>
  </metadata>
  <defs
     id="defs6" />
  <path
     d="m 78.346026,206.75 c -1.899896,-7.28294 -11.933823,-29.11856 -14.64987,-31.88075 -1.422743,-1.44691 -5.324291,-4.45877 -8.670105,-6.69302 -7.310016,-4.88144 -12.765307,-5.93583 -21.948931,-4.24227 -17.882128,3.29765 -20.847144,2.6518 -26.1398161,-5.69387 C 4.2570497,154.01376 4,152.83303 4,144.74785 c 0,-8.70178 0.057642,-8.91324 3.2160019,-11.79796 1.7688011,-1.61555 4.8063011,-3.45933 6.7500001,-4.0973 1.943699,-0.63797 5.223023,-2.03702 7.287388,-3.109 3.263896,-1.69487 5.376669,-1.90306 16.200554,-1.59632 8.198701,0.23233 12.873625,0.77938 13.69661,1.60273 1.359582,1.36019 6.676213,1.66479 8.459914,0.48469 C 65.427774,122.38595 68.240241,94.299 64.09844,81.415156 61.092781,72.065492 60,65.516112 60,56.851908 c 0,-8.800161 1.546366,-13.463005 5.227141,-15.761687 6.115467,-3.819172 22.333843,-5.402846 27.574879,-2.6926 5.366218,2.774979 6.345996,4.864602 7.6441,16.302959 0.70247,6.189945 0.9675,15.067682 0.62093,20.79942 -0.33257,5.5 -0.3712,13.055556 -0.0859,16.790125 l 0.51881,6.790125 2.34375,-3.790125 c 3.16407,-5.11668 6.20219,-7.197618 11.58564,-7.935501 3.74136,-0.51281 5.48162,-0.132149 10.1164,2.212838 6.19641,3.135096 6.9096,4.046308 7.91396,10.111379 l 0.692,4.178839 4.36614,-4.428839 C 142.69694,95.189784 143.13544,95 148.75089,95 c 6.77474,0 7.97484,0.732035 12.13616,7.40281 3.67022,5.8835 4.57877,4.75543 3.71371,-4.610963 -2.18797,-23.690101 -2.13075,-24.591495 1.85172,-29.172157 4.29072,-4.93522 17.77665,-6.287662 23.59557,-2.366292 4.78671,3.225764 6.47898,6.756686 9.46395,19.746602 2.44121,10.623545 2.59144,12.566989 1.97118,25.5 -1.12204,23.39537 -5.7604,40.85614 -13.90328,52.33787 -10.3179,14.54855 -15.25301,18.05721 -31.69435,22.53338 -5.28795,1.43964 -11.17332,3.26887 -13.07861,4.06495 -4.58258,1.91472 -8.75613,8.33918 -9.50052,14.6244 -0.71055,5.99947 -2.30642,6.54561 -2.30642,0.78931 0,-2.52738 1.07526,-6.30058 2.75,-9.65001 3.21345,-6.42681 5.80139,-7.89024 20.88683,-11.81106 10.31985,-2.6822 18.4476,-6.70213 22.47666,-11.11679 6.61098,-7.24368 13.37356,-17.91784 15.60035,-24.62381 3.76667,-11.34334 6.01715,-24.12021 6.71932,-38.14824 0.61018,-12.190339 0.46887,-13.736018 -2.26889,-24.817584 -4.09781,-16.586668 -8.30053,-20.645489 -19.87943,-19.1988 -4.80756,0.600664 -6.28046,1.292295 -9.08509,4.266066 -3.3293,3.530087 -3.34429,3.59006 -2.78686,11.149748 1.76576,23.94641 1.77396,25.54213 0.14181,27.60057 -1.58583,2 -1.58583,2 -3.09947,0 -0.8325,-1.1 -2.963,-4.25 -4.73444,-7 -3.0188,-4.686426 -3.5102,-5.018768 -7.83551,-5.299266 -3.79989,-0.246424 -5.17608,0.173079 -7.79385,2.37579 -5.57637,4.692206 -7.37317,9.614866 -7.88591,21.604876 -0.25122,5.87477 -0.16382,11.84862 0.19423,13.27521 0.85648,3.41247 6.86881,9.99778 10.50179,11.50261 4.55979,1.88872 10.26192,-1.48025 12.52208,-7.39838 0.95799,-2.50846 2.15458,-4.56084 2.65909,-4.56084 2.54447,0 -0.8963,8.92161 -4.54883,11.79469 -6.10926,4.80555 -14.09486,3.14663 -19.94523,-4.14339 L 132.5,137.8026 132.4316,120.6513 c -0.0824,-20.663867 -0.98137,-24.711039 -6.224,-28.01941 -7.26107,-4.582113 -11.87897,-4.532011 -17.00573,0.184505 -6.57613,6.049896 -7.42865,8.864225 -7.57167,24.995435 -0.108,12.18127 0.19181,15.54155 1.75663,19.68817 2.26972,6.01453 4.2698,8.5 6.84006,8.5 3.06888,0 10.61617,-4.92203 13.99571,-9.12741 3.09229,-3.84794 4.77737,-4.84048 4.77737,-2.81395 0,2.26805 -6.38227,8.83156 -11.06708,11.38135 -3.43796,1.87117 -6.06004,2.58732 -8.67953,2.37058 -3.48706,-0.28853 -3.96438,-0.73299 -6.72685,-6.26379 l -2.973459,-5.95322 -0.250239,-22.04678 C 99.16521,101.42105 98.843348,90.6 98.587593,89.5 98.331837,88.4 98.45965,82.505525 98.871621,76.401168 99.587433,65.79467 98.349944,48.979815 96.543742,44.770236 96.135538,43.818866 94.238257,42.074302 92.327562,40.893427 89.373521,39.06773 87.779425,38.815922 81.676785,39.211 c -9.977648,0.645943 -16.262427,3.558577 -18.336057,8.49771 -2.219596,5.286806 -1.2545,19.179135 2.099201,30.217515 2.121315,6.982102 2.557095,10.409788 2.542707,20 -0.0192,12.799995 -1.98711,24.240105 -4.829203,28.073775 -2.328617,3.14105 -8.15027,3.7594 -14.642437,1.55525 C 45.703934,126.60223 40.440889,126 34.919247,126 c -7.692587,0 -9.69791,0.36575 -13.707096,2.5 -2.582931,1.375 -5.194801,2.5 -5.804156,2.5 -0.609355,0 -2.975435,1.35282 -5.257957,3.00627 L 6,137.01254 6,144.5761 c 0,6.80051 0.3085624,8.01203 3.0585947,12.00906 5.4010073,7.8501 8.6777243,8.70071 20.9414053,5.43626 2.506139,-0.66711 7.932348,-1.01059 12.246562,-0.77521 7.313997,0.39905 8.132575,0.6888 14.659453,5.18899 8.551291,5.89599 11.115158,8.68876 13.830063,15.0648 1.170944,2.75 3.95935,9.09128 6.196456,14.09174 C 80.645513,203.89113 82.16564,211 80.22736,211 c -0.424951,0 -1.271552,-1.9125 -1.881334,-4.25 z M 330,207.84174 c 0,-1.73704 1.83036,-7.24954 4.06747,-12.25 2.2371,-5.00046 5.02551,-11.34174 6.19645,-14.09174 2.71491,-6.37604 5.27877,-9.16881 13.83007,-15.0648 6.52687,-4.50019 7.34545,-4.78994 14.65945,-5.18899 4.31421,-0.23538 9.74042,0.1081 12.24656,0.77521 12.26368,3.26445 15.5404,2.41384 20.94141,-5.43626 C 404.69144,152.58813 405,151.37661 405,144.5761 l 0,-7.56356 -4.15004,-3.00627 C 398.56744,132.35282 396.20136,131 395.592,131 c -0.60935,0 -3.22122,-1.125 -5.80415,-2.5 -4.00919,-2.13425 -6.01451,-2.5 -13.7071,-2.5 -5.52164,0 -10.78468,0.60223 -13.59175,1.55525 -6.49216,2.20415 -12.31382,1.5858 -14.64243,-1.55525 -2.8421,-3.83367 -4.81,-15.27378 -4.82921,-28.073775 -0.0144,-9.590212 0.4214,-13.017898 2.54271,-20 3.3537,-11.03838 4.3188,-24.930709 2.0992,-30.217515 -2.07363,-4.939133 -8.35841,-7.851767 -18.33606,-8.49771 -6.10263,-0.395078 -7.69673,-0.14327 -10.65077,1.682427 -1.9107,1.180875 -3.80798,2.925439 -4.21618,3.876809 -1.8062,4.209579 -3.04369,21.024434 -2.32788,31.630932 0.41197,6.104357 0.53978,11.998832 0.28403,13.098832 -0.25576,1.1 -0.57762,11.92105 -0.71525,24.04678 l -0.25024,22.04678 -2.97346,5.95322 c -2.76247,5.5308 -3.23979,5.97526 -6.72685,6.26379 -2.61949,0.21674 -5.24157,-0.49941 -8.67953,-2.37058 C 288.38227,142.8902 282,136.32669 282,134.05864 c 0,-2.02653 1.68508,-1.03399 4.77737,2.81395 3.37954,4.20538 10.92683,9.12741 13.99571,9.12741 2.57026,0 4.57034,-2.48547 6.84006,-8.5 1.56482,-4.14662 1.86463,-7.5069 1.75663,-19.68817 -0.14302,-16.13121 -0.99554,-18.945539 -7.57167,-24.995435 -5.12676,-4.716516 -9.74466,-4.766618 -17.00573,-0.184505 -5.24263,3.308371 -6.14164,7.355543 -6.224,28.01941 l -0.0684,17.1513 -3.08865,3.8487 c -5.85037,7.29002 -13.83597,8.94894 -19.94523,4.14339 C 251.81359,142.92161 248.37282,134 250.91729,134 c 0.50451,0 1.7011,2.05238 2.65909,4.56084 2.26016,5.91813 7.96229,9.2871 12.52208,7.39838 3.63298,-1.50483 9.64531,-8.09014 10.50179,-11.50261 0.35805,-1.42659 0.44545,-7.40044 0.19423,-13.27521 -0.51274,-11.99001 -2.30954,-16.91267 -7.88591,-21.604876 -2.61777,-2.202711 -3.99396,-2.622214 -7.79385,-2.37579 -4.32531,0.280498 -4.81671,0.61284 -7.83551,5.299266 -1.77144,2.75 -3.90194,5.9 -4.73444,7 -1.51364,2 -1.51364,2 -3.09947,0 -1.63215,-2.05844 -1.62395,-3.65416 0.14181,-27.60057 0.55743,-7.559688 0.54244,-7.619661 -2.78686,-11.149748 -2.80463,-2.973771 -4.27753,-3.665402 -9.08509,-4.266066 -11.5789,-1.446689 -15.78162,2.612132 -19.87943,19.1988 -2.73776,11.081566 -2.87907,12.627245 -2.26889,24.817584 0.70217,14.02803 2.95265,26.8049 6.71932,38.14824 2.22679,6.70597 8.98937,17.38013 15.60035,24.62381 4.02906,4.41466 12.15681,8.43459 22.47666,11.11679 15.08544,3.92082 17.67338,5.38425 20.88683,11.81106 1.67474,3.34943 2.75,7.12263 2.75,9.65001 0,5.7563 -1.59587,5.21016 -2.30642,-0.78931 -0.74439,-6.28522 -4.91794,-12.70968 -9.50052,-14.6244 -1.90529,-0.79608 -7.79066,-2.62531 -13.07861,-4.06495 C 238.67311,181.89508 233.738,178.38642 223.4201,163.83787 215.27722,152.35614 210.63886,134.89537 209.51682,111.5 208.89656,98.566989 209.04679,96.623545 211.488,86 c 2.98497,-12.989916 4.67724,-16.520838 9.46395,-19.746602 5.81892,-3.92137 19.30485,-2.568928 23.59557,2.366292 3.98247,4.580662 4.03969,5.482056 1.85172,29.172157 -0.86506,9.366393 0.0435,10.494463 3.71371,4.610963 C 254.27427,95.732035 255.47437,95 262.24911,95 c 5.61545,0 6.05395,0.189784 10.233,4.428841 l 4.36614,4.428839 0.692,-4.178839 c 1.00436,-6.065071 1.71755,-6.976283 7.91396,-10.111379 9.08301,-4.595584 16.53685,-2.630063 21.70204,5.722663 L 309.5,99.08025 310.01881,92.290125 C 310.30415,88.555556 310.26552,81 309.93295,75.5 c -0.34657,-5.731738 -0.0815,-14.609475 0.62093,-20.79942 1.2981,-11.438357 2.27788,-13.52798 7.6441,-16.302959 5.24104,-2.710246 21.45941,-1.126572 27.57488,2.6926 6.70572,4.187789 7.18949,21.471703 1.1287,40.324935 -4.1418,12.883844 -1.32933,40.970794 4.48797,44.819534 1.7837,1.1801 7.10033,0.8755 8.45992,-0.48469 0.82298,-0.82335 5.4979,-1.3704 13.69661,-1.60273 10.82388,-0.30674 12.93665,-0.0986 16.20055,1.59632 2.06436,1.07198 5.34369,2.47103 7.28739,3.109 1.9437,0.63797 4.9812,2.48175 6.75,4.0973 3.15836,2.88472 3.216,3.09618 3.216,11.79796 0,8.08518 -0.25705,9.26591 -2.9373,13.49224 -5.29268,8.34567 -8.25769,8.99152 -26.13982,5.69387 -9.18362,-1.69356 -14.63892,-0.63917 -21.94893,4.24227 -3.34582,2.23425 -7.24736,5.24611 -8.67011,6.69302 -2.71604,2.76219 -12.74997,24.59781 -14.64987,31.88075 C 331.34776,211.75715 330,212.31157 330,207.84174 z M 10.979944,151.47583 C 9.2524109,149.39428 10.356881,148.58142 12.82142,150.12055 15.261298,151.64428 18,149.91262 18,146.84617 18,144.22565 15.305909,143.41318 13.134014,145.37872 10.4388,147.81785 10,147.4148 10,142.5 l 0,-4.5 4.5,0 c 2.475,0 4.5,0.45 4.5,1 0,0.55 -1.575,1 -3.5,1 -2.285988,0 -3.5,0.47219 -3.5,1.36133 0,0.91369 0.82395,1.20382 2.505746,0.88232 C 17.759188,141.62172 20,143.54831 20,146.96746 c 0,4.94012 -6.122189,8.00009 -9.020056,4.50837 z M 23,152 c 0,-0.55 0.45,-1 1,-1 0.55,0 1,-2.27656 1,-5.05902 0,-3.11803 -0.383668,-4.82189 -1,-4.44098 -1.400181,0.86536 -1.251116,-0.84888 0.2,-2.3 2.248299,-2.2483 2.8,-1.20401 2.8,5.3 0,3.66667 0.435897,6.5 1,6.5 0.55,0 1,0.45 1,1 0,0.55 -1.35,1 -3,1 -1.65,0 -3,-0.45 -3,-1 z m 9,-1.3347 c 0,-1.33345 1.286577,-3.48105 3,-5.00772 1.65,-1.47015 3,-3.09298 3,-3.60628 0,-1.67761 -2.05493,-2.2506 -3.567971,-0.99489 -1.94605,1.61508 -3.075247,0.42355 -1.452085,-1.53224 1.516923,-1.82778 4.168741,-1.97549 5.820056,-0.32417 1.954335,1.95433 1.389754,4.24402 -1.8,7.3 -1.65,1.5808 -3,3.23999 -3,3.68709 0,0.4471 1.35,0.81291 3,0.81291 1.65,0 3,0.45 3,1 0,0.55 -1.8,1 -4,1 -3.52448,0 -4,-0.27755 -4,-2.3347 z M 388,152 c 0,-0.55 0.45,-1 1,-1 0.55,0 1,-2.27656 1,-5.05902 0,-3.11803 -0.38367,-4.82189 -1,-4.44098 -1.40018,0.86536 -1.25112,-0.84888 0.2,-2.3 2.2483,-2.2483 2.8,-1.20401 2.8,5.3 0,3.66667 0.4359,6.5 1,6.5 0.55,0 1,0.45 1,1 0,0.55 -1.35,1 -3,1 -1.65,0 -3,-0.45 -3,-1 z M 170.0219,86.526392 c -1.66875,-2.010724 -0.55514,-3.21383 1.4412,-1.557017 0.83129,0.689907 2.19216,0.993155 3.02417,0.673885 2.43286,-0.933577 1.74348,-3.600929 -1.23727,-4.787208 l -2.75,-1.094446 2.8,-0.980803 c 3.42863,-1.201005 2.97027,-3.351288 -0.65921,-3.092539 C 171.18835,75.791809 170,75.462882 170,74.957316 c 0,-1.555431 4.91809,-2.270182 6.51299,-0.946539 1.68556,1.398897 1.97914,4.567034 0.50749,5.476566 -0.61658,0.381066 -0.52665,1.330545 0.2427,2.562474 2.51185,4.022105 -4.18338,8.161113 -7.24128,4.476575 z M 182,85.665298 c 0,-1.333444 1.28658,-3.481048 3,-5.007714 1.65,-1.470157 3,-3.092983 3,-3.606281 0,-1.677608 -2.05493,-2.250604 -3.56797,-0.994892 -1.94605,1.615078 -3.07525,0.423545 -1.45209,-1.532245 1.51693,-1.82778 4.16874,-1.975481 5.82006,-0.324166 1.95433,1.954335 1.38975,4.244021 -1.8,7.3 -1.65,1.5808 -3,3.239991 -3,3.687091 0,0.4471 1.35,0.812909 3,0.812909 1.65,0 3,0.45 3,1 0,0.55 -1.8,1 -4,1 -3.52448,0 -4,-0.27755 -4,-2.334702 z M 222,86 c 0,-0.55 0.45,-1 1,-1 0.55,0 1,-2.276558 1,-5.059017 0,-3.118034 -0.38367,-4.821897 -1,-4.440983 -1.40018,0.865359 -1.25112,-0.848884 0.2,-2.3 2.2483,-2.248299 2.8,-1.204008 2.8,5.3 0,3.666667 0.4359,6.5 1,6.5 0.55,0 1,0.45 1,1 0,0.55 -1.35,1 -3,1 -1.65,0 -3,-0.45 -3,-1 z m 9.03518,-0.934259 c -1.7909,-3.346334 -1.13798,-6.919137 1.88218,-10.299276 1.60454,-1.795798 3.25632,-2.926123 3.67061,-2.511833 0.41429,0.41429 -0.30197,1.87648 -1.59167,3.249311 L 232.65137,78 l 2.47432,0 c 4.55711,0 6.45743,4.274027 3.30288,7.428571 -2.17233,2.172331 -6.14084,1.977576 -7.39339,-0.36283 z M 237.5,82.513695 c 0,-2.206158 -3.1089,-3.304797 -4.739,-1.674693 -1.68076,1.680755 -0.0229,4.337197 2.48453,3.981135 C 236.7207,84.610661 237.5,83.8134 237.5,82.513695 z M 64,58.665298 c 0,-1.333444 1.286577,-3.481048 3,-5.007714 1.65,-1.470157 3,-3.092983 3,-3.606281 0,-1.677608 -2.05493,-2.250604 -3.567971,-0.994892 -1.94605,1.615078 -3.075247,0.423545 -1.452085,-1.532245 C 66.496867,45.696386 69.148685,45.548685 70.8,47.2 c 1.954335,1.954335 1.389754,4.244021 -1.8,7.3 -1.65,1.5808 -3,3.239991 -3,3.687091 C 66,58.634191 67.35,59 69,59 c 1.65,0 3,0.45 3,1 0,0.55 -1.8,1 -4,1 -3.52448,0 -4,-0.27755 -4,-2.334702 z m 11.979944,0.810536 C 74.252411,57.394284 75.356881,56.581418 77.82142,58.120548 80.261298,59.644277 83,57.912616 83,54.84617 83,52.225647 80.305909,51.413181 78.134014,53.378719 75.4388,55.817854 75,55.414798 75,50.5 l 0,-4.5 4.5,0 c 2.475,0 4.5,0.45 4.5,1 0,0.55 -1.575,1 -3.5,1 -2.285988,0 -3.5,0.472191 -3.5,1.361328 0,0.913691 0.82395,1.20382 2.505746,0.882324 C 82.759188,49.621718 85,51.548305 85,54.967457 c 0,4.940119 -6.122189,8.000093 -9.020056,4.508377 z m 12.05524,-0.410093 c -1.790904,-3.346334 -1.137982,-6.919137 1.882171,-10.299276 1.604546,-1.795798 3.25632,-2.926123 3.67061,-2.511833 0.41429,0.41429 -0.301961,1.87648 -1.591669,3.249311 L 89.651372,52 l 2.474314,0 c 4.557115,0 6.45743,4.274027 3.302885,7.428571 -2.17233,2.172331 -6.14084,1.977576 -7.393387,-0.36283 z M 94.5,56.513695 c 0,-2.206158 -3.108898,-3.304797 -4.739002,-1.674693 -1.680755,1.680755 -0.02293,4.337197 2.484531,3.981135 C 93.720704,58.610661 94.5,57.8134 94.5,56.513695 z M 327,58.665298 c 0,-1.333444 1.28658,-3.481048 3,-5.007714 1.65,-1.470157 3,-3.092983 3,-3.606281 0,-1.677608 -2.05493,-2.250604 -3.56797,-0.994892 -1.94605,1.615078 -3.07525,0.423545 -1.45209,-1.532245 1.51693,-1.82778 4.16874,-1.975481 5.82006,-0.324166 1.95433,1.954335 1.38975,4.244021 -1.8,7.3 -1.65,1.5808 -3,3.239991 -3,3.687091 0,0.4471 1.35,0.812909 3,0.812909 1.65,0 3,0.45 3,1 0,0.55 -1.8,1 -4,1 -3.52448,0 -4,-0.27755 -4,-2.334702 z M 16,18 c 0,-0.55 0.45,-1 1,-1 0.55,0 1,-2.276558 1,-5.059017 C 18,8.822949 17.616332,7.1190859 17,7.5 15.599819,8.3653594 15.748884,6.6511163 17.2,5.2 19.448299,2.951701 20,3.9959922 20,10.5 c 0,3.666667 0.435897,6.5 1,6.5 0.55,0 1,0.45 1,1 0,0.55 -1.35,1 -3,1 -1.65,0 -3,-0.45 -3,-1 z m 59,0 c 0,-0.55 0.45,-1 1,-1 0.55,0 1,-2.276558 1,-5.059017 C 77,8.822949 76.616332,7.1190859 76,7.5 74.599819,8.3653594 74.748884,6.6511163 76.2,5.2 78.448299,2.951701 79,3.9959922 79,10.5 c 0,3.666667 0.435897,6.5 1,6.5 0.55,0 1,0.45 1,1 0,0.55 -1.35,1 -3,1 -1.65,0 -3,-0.45 -3,-1 z m 35.5567,-1.222506 C 107.2372,12.03824 109.7179,4 114.5,4 c 1.33262,0 3.07407,0.9815096 3.9433,2.2225062 C 121.7628,10.96176 119.2821,19 114.5,19 c -1.33262,0 -3.07407,-0.98151 -3.9433,-2.222506 z m 6.46977,-1.826947 C 119.53073,10.271293 116.07507,4.032952 112.58382,6.9304335 111.71272,7.6533842 111,9.6747893 111,11.422445 c 0,5.24092 3.89076,7.518706 6.02647,3.528102 z m 23.53023,1.826947 C 137.2372,12.03824 139.7179,4 144.5,4 c 1.33262,0 3.07407,0.9815096 3.9433,2.2225062 C 151.7628,10.96176 149.2821,19 144.5,19 c -1.33262,0 -3.07407,-0.98151 -3.9433,-2.222506 z m 6.46977,-1.826947 C 149.53073,10.271293 146.07507,4.032952 142.58382,6.9304335 141.71272,7.6533842 141,9.6747893 141,11.422445 c 0,5.24092 3.89076,7.518706 6.02647,3.528102 z M 175,18 c 0,-0.55 0.45,-1 1,-1 0.55,0 1,-2.276558 1,-5.059017 0,-3.118034 -0.38367,-4.8218971 -1,-4.440983 -1.40018,0.8653594 -1.25112,-0.8488837 0.2,-2.3 2.2483,-2.248299 2.8,-1.2040078 2.8,5.3 0,3.666667 0.4359,6.5 1,6.5 0.55,0 1,0.45 1,1 0,0.55 -1.35,1 -3,1 -1.65,0 -3,-0.45 -3,-1 z m 52,0 c 0,-0.55 0.45,-1 1,-1 0.55,0 1,-2.276558 1,-5.059017 0,-3.118034 -0.38367,-4.8218971 -1,-4.440983 -1.40018,0.8653594 -1.25112,-0.8488837 0.2,-2.3 2.2483,-2.248299 2.8,-1.2040078 2.8,5.3 0,3.666667 0.4359,6.5 1,6.5 0.55,0 1,0.45 1,1 0,0.55 -1.35,1 -3,1 -1.65,0 -3,-0.45 -3,-1 z m 30.5567,-1.222506 C 254.2372,12.03824 256.7179,4 261.5,4 c 1.33262,0 3.07407,0.9815096 3.9433,2.2225062 C 268.7628,10.96176 266.2821,19 261.5,19 c -1.33262,0 -3.07407,-0.98151 -3.9433,-2.222506 z m 6.46977,-1.826947 C 266.53073,10.271293 263.07507,4.032952 259.58382,6.9304335 258.71272,7.6533842 258,9.6747893 258,11.422445 c 0,5.24092 3.89076,7.518706 6.02647,3.528102 z m 23.53023,1.826947 C 284.2372,12.03824 286.7179,4 291.5,4 c 1.33262,0 3.07407,0.9815096 3.9433,2.2225062 C 298.7628,10.96176 296.2821,19 291.5,19 c -1.33262,0 -3.07407,-0.98151 -3.9433,-2.222506 z m 6.46977,-1.826947 C 296.53073,10.271293 293.07507,4.032952 289.58382,6.9304335 288.71272,7.6533842 288,9.6747893 288,11.422445 c 0,5.24092 3.89076,7.518706 6.02647,3.528102 z M 327,18 c 0,-0.55 0.45,-1 1,-1 0.55,0 1,-2.276558 1,-5.059017 0,-3.118034 -0.38367,-4.8218971 -1,-4.440983 -1.40018,0.8653594 -1.25112,-0.8488837 0.2,-2.3 2.2483,-2.248299 2.8,-1.2040078 2.8,5.3 0,3.666667 0.4359,6.5 1,6.5 0.55,0 1,0.45 1,1 0,0.55 -1.35,1 -3,1 -1.65,0 -3,-0.45 -3,-1 z m 56,0 c 0,-0.55 0.45,-1 1,-1 0.55,0 1,-2.276558 1,-5.059017 0,-3.118034 -0.38367,-4.8218971 -1,-4.440983 -1.40018,0.8653594 -1.25112,-0.8488837 0.2,-2.3 2.2483,-2.248299 2.8,-1.2040078 2.8,5.3 0,3.666667 0.4359,6.5 1,6.5 0.55,0 1,0.45 1,1 0,0.55 -1.35,1 -3,1 -1.65,0 -3,-0.45 -3,-1 z"
     id="path2987"
     style="fill:#000000" />
</svg>
