<?xml version="1.0" encoding="UTF-8" standalone="no"?>
<!-- Created with Inkscape (http://www.inkscape.org/) -->

<svg
   xmlns:dc="http://purl.org/dc/elements/1.1/"
   xmlns:cc="http://creativecommons.org/ns#"
   xmlns:rdf="http://www.w3.org/1999/02/22-rdf-syntax-ns#"
   xmlns:svg="http://www.w3.org/2000/svg"
   xmlns="http://www.w3.org/2000/svg"
   version="1.1"
   width="600.2995"
   height="478.42841"
   id="svg2">
  <defs
     id="defs4" />
  <metadata
     id="metadata7">
    <rdf:RDF>
      <cc:Work
         rdf:about="">
        <dc:format>image/svg+xml</dc:format>
        <dc:type
           rdf:resource="http://purl.org/dc/dcmitype/StillImage" />
        <dc:title></dc:title>
      </cc:Work>
    </rdf:RDF>
  </metadata>
  <g
     transform="translate(-212.071,-80.21042)"
     id="layer1">
    <path
       d="m 762.1717,558.35765 -1.44829,0.28118 -4.21574,-5.97793 -4.21575,-5.97792 -3.53743,-2.69813 -3.53743,-2.69813 -2.59167,1.18085 -2.59167,1.18084 0.50316,4.46403 0.50317,4.46403 -1.34198,0 -1.34198,0 -0.90646,-1.75 -0.90646,-1.75 -0.49961,-7.31155 -0.49961,-7.31154 2.26512,-1.48416 2.26511,-1.48416 3.61499,-0.58663 3.61498,-0.58664 4.49079,1.71505 4.49078,1.71505 0,1.39423 0,1.39424 -2.4286,1.59128 -2.4286,1.59128 6.46487,8.07296 6.46487,8.07296 -0.36913,1.10882 c -0.20303,0.60984 -1.02087,1.23534 -1.81743,1.38999 z m -20.90622,-18.78118 c 0.53887,0 2.78596,-0.72269 4.99352,-1.60598 l 4.01375,-1.60599 -0.55253,-0.89401 -0.55253,-0.89402 -2.8592,0 c -1.57256,0 -3.571,0.27314 -4.44098,0.60699 l -1.58179,0.60699 0,1.89301 0,1.89301 z m -480.72976,17.76255 -1.25,0.40412 0,-0.67897 c 0,-0.37343 0.84228,-1.87343 1.87173,-3.33333 1.02946,-1.4599 4.47169,-7.71757 7.64942,-13.90593 3.17773,-6.18836 6.35406,-11.72991 7.05853,-12.31457 l 1.28084,-1.063 1.0379,1.93932 c 0.57084,1.06663 1.33956,3.82588 1.70828,6.13168 l 0.67038,4.19235 1.43289,1.43289 c 0.78809,0.78809 2.07574,1.43289 2.86146,1.43289 l 1.42857,0 0,0.88337 0,0.88337 -2.02883,0.53055 -2.02882,0.53055 2.21743,4.56414 2.21743,4.56414 -0.66444,0.66444 -0.66444,0.66444 -1.47413,-1.22342 c -0.81077,-0.67288 -2.43679,-3.21201 -3.61337,-5.6425 l -2.13924,-4.41908 -4.28871,0 -4.28871,0 -3.87208,6.67921 -3.87209,6.67922 z m 16.54035,-18.31662 c 0.15969,-0.60691 -0.21473,-2.41803 -0.83204,-4.0247 l -1.12239,-2.92123 -1.83319,3.5 -1.83318,3.5 2.66522,0.52471 2.66523,0.52471 z m 211.89676,18.55407 -1.37713,0 -1.73637,-1.91866 -1.73637,-1.91867 -0.0487,-5.4237 -0.0487,-5.42371 1.38011,-2.8703 1.38012,-2.8703 3.35524,-2.25859 3.35523,-2.25859 2.87002,1.48414 c 1.57851,0.81628 4.68115,3.369 6.89476,5.67271 l 4.02475,4.18856 0,1.70475 0,1.70475 -5.17528,3.71807 c -2.8464,2.04494 -6.65695,4.33715 -8.46788,5.0938 -1.811,0.75666 -3.91238,1.37574 -4.6698,1.37574 z m 2.16988,-4.0786 2.64301,-0.0786 4.49887,-2.73664 4.49887,-2.73664 0.30577,-1.58773 0.30577,-1.58773 -3.15823,-3.59702 -3.15823,-3.59703 -3.37073,0 -3.37073,0 -1.52568,2.95034 -1.52568,2.95034 0,3.46787 c 0,1.90733 0.27314,4.17968 0.60699,5.04966 l 0.60699,1.58179 z m 44.35646,2.0786 -1.78654,0 -3.71772,-4.97974 -3.71773,-4.97975 -2.53669,-1.66211 -2.5367,-1.6621 -2.53379,1.15447 -2.53379,1.15447 0.27396,4.45485 0.27395,4.45485 -0.75357,0.75357 -0.75358,0.75357 -0.93031,-1.47104 -0.93031,-1.47104 -0.0153,-8.80103 -0.0153,-8.80102 3.46788,-1.44898 3.46788,-1.44897 4.57758,0 4.57757,0 2.45454,2.45455 c 1.35,1.35 2.45455,2.94593 2.45455,3.54651 l 0,1.09196 -2.89735,1.66285 -2.89735,1.66285 4.39735,5.71468 c 2.41854,3.14308 4.39735,6.19887 4.39735,6.79064 l 0,1.07596 -1.78655,0 z m -12.46345,-16.47094 6.75,-0.70393 0.91284,-0.8754 0.91284,-0.87541 -2.91284,-1.12219 -2.91284,-1.1222 -3.89412,0.50921 -3.89412,0.50921 -0.84057,1.32582 c -0.46231,0.72921 -0.84746,1.71575 -0.85588,2.19233 l -0.0153,0.86649 z m -225.43254,13.47094 -1.39533,0 0.14376,-7.75 0.14377,-7.75 -0.7109,-2.74068 -0.7109,-2.74068 1.47633,-0.56653 1.47633,-0.56652 6.37974,4.4667 c 3.50886,2.45668 7.47068,5.63242 8.80405,7.0572 1.33338,1.42478 2.84205,2.59051 3.35262,2.59051 l 0.9283,0 -0.35261,-8.50014 -0.35262,-8.50015 1.14159,1.5e-4 1.14159,1.4e-4 0.59077,2.35381 c 0.32492,1.29459 0.54698,6.69459 0.49345,12 l -0.0973,9.64619 -0.83536,0 c -0.45944,0 -1.19521,-0.57463 -1.63504,-1.27696 -0.43983,-0.70233 -2.75453,-2.79868 -5.14378,-4.65855 -2.38925,-1.85988 -5.92951,-4.45749 -7.86724,-5.77247 -1.93774,-1.31498 -3.68425,-2.22978 -3.88114,-2.03289 -0.19689,0.19689 -0.65875,3.59414 -1.02635,7.54943 l -0.66839,7.19144 z m 36.48676,0 -1.80422,0 0,-0.88077 0,-0.88078 5.56117,-2.81369 c 3.05865,-1.54754 5.81172,-3.2191 6.11795,-3.71458 l 0.55678,-0.90089 -1.1936,-2.23026 -1.1936,-2.23026 -4.12452,-2.67438 -4.12452,-2.67439 -1.68917,0 -1.68917,0 0.5303,8.5 0.53029,8.5 -1.14095,0 -1.14096,0 0,-3.25037 c 0,-1.78771 -0.6579,-6.39481 -1.462,-10.238 l -1.462,-6.98763 0.87712,-0.87712 0.87713,-0.87713 4.55064,1.73791 4.55065,1.73791 4.07506,4.1158 4.07506,4.1158 0.55331,2.20458 0.55332,2.20458 -0.71359,1.15461 c -0.39247,0.63503 -2.77294,2.46061 -5.28992,4.05683 l -4.57634,2.90223 z m 348.67301,-1 c -0.19756,0 -0.66242,-0.49062 -1.03302,-1.09027 l -0.67382,-1.09026 3.66226,-3.7505 3.66226,-3.7505 -4.12764,-3.72908 -4.12765,-3.72907 0.54881,-1.43016 c 0.30184,-0.78659 1.01163,-1.43016 1.5773,-1.43016 0.56568,0 2.77185,1.575 4.90259,3.5 l 3.87408,3.5 1.45449,0 1.45448,0 2.34863,-2.5 2.34863,-2.5 1.32568,0 1.32569,0 0,0.9272 c 0,0.50995 -1.64061,2.27952 -3.6458,3.93237 l -3.6458,3.00517 2.6458,3.14436 2.6458,3.14435 0,1.42328 0,1.42327 -1.42752,0 -1.42752,0 -2.4835,-3.17332 -2.48349,-3.17331 -2.58898,1.69637 -2.58899,1.69637 0,1.36995 0,1.36996 -1.58179,0.60699 c -0.86998,0.33385 -1.74342,0.60699 -1.94098,0.60699 z m 31.9762,-0.56849 -4.04657,0.67555 -1.55143,-1.80353 c -0.85329,-0.99194 -1.81783,-2.55746 -2.14342,-3.47893 l -0.59199,-1.67541 0.98654,-3.57295 0.98654,-3.57295 2.27616,-2.64619 2.27616,-2.6462 3.42729,0.64746 3.42729,0.64746 3.19567,1.94935 3.19566,1.94935 1.62541,2.48068 1.6254,2.48068 -1.03933,1.94202 -1.03933,1.94201 -4.28174,2.00302 c -2.35496,1.10167 -6.1027,2.30702 -8.32831,2.67858 z m 0.21283,-3.43151 3.53148,0 3.40113,-1.61394 c 1.87062,-0.88767 3.40113,-1.81725 3.40113,-2.06574 0,-0.24849 -0.46334,-1.31756 -1.02964,-2.37571 l -1.02965,-1.92391 -2.92069,-1.51035 c -1.60639,-0.83069 -3.86601,-1.51035 -5.02139,-1.51035 l -2.10068,0 -1.49307,3.5734 -1.49306,3.57341 0.61148,1.92659 0.61148,1.9266 z m 26.18216,-47.45598 -2.65159,0.65151 -0.68898,-2.17079 -0.68898,-2.17079 -1.96537,1.77864 -1.96538,1.77863 -1.70633,-1.06562 -1.70634,-1.06562 -2.40938,0.89128 -2.40938,0.89129 -0.7867,-1.27292 -0.78671,-1.27291 -1.24164,1.24164 c -0.6829,0.6829 -1.60164,1.24164 -2.04164,1.24164 l -0.8,0 0,-2 0,-2 -1.25,0.0239 c -0.6875,0.0131 -2.98899,0.42734 -5.11441,0.92049 l -3.86441,0.89664 -0.51701,-1.97705 -0.51701,-1.97706 -1.53863,0.59043 -1.53863,0.59043 -0.7392,-1.19605 -0.7392,-1.19605 -1.66218,1.66218 -1.66218,1.66218 -1.5,-1.5 -1.5,-1.5 -2.17857,-0.11842 c -1.19821,-0.0651 -2.62857,-0.0103 -3.17857,0.12191 -0.55,0.13218 -1.81077,0.46904 -2.80172,0.74857 l -1.80172,0.50825 0.66013,-2.63015 0.66013,-2.63016 -1.60841,0 -1.60841,0 0,-1.45469 0,-1.45468 -3.43088,-0.64364 -3.43089,-0.64364 0.53787,-1.40167 0.53788,-1.40168 -1.60699,0 c -0.88385,-4e-5 -1.60699,-0.25462 -1.60699,-0.56578 0,-0.31116 0.48963,-1.48062 1.08806,-2.5988 l 1.08806,-2.03305 -3.18761,0.70011 -3.1876,0.70012 0.63838,-2.01137 0.63839,-2.01138 -3.83884,0.5149 -3.83884,0.5149 0,-3.57151 c 0,-1.96433 -0.30304,-3.87455 -0.67342,-4.24493 l -0.67342,-0.67342 -5.68978,3.89009 -5.68979,3.89008 -1.9516,3.27717 -1.9516,3.27716 -1.36418,-1.13217 -1.36418,-1.13217 0.9139,-1.70764 c 0.50265,-0.93921 2.85765,-3.47945 5.23335,-5.645 2.3757,-2.16554 6.00911,-5.06235 8.07425,-6.43735 l 3.75481,-2.5 0.85168,-3 c 0.46843,-1.65 2.96413,-6.825 5.54601,-11.5 2.58187,-4.675 5.96037,-11.2 7.50778,-14.5 l 2.81345,-6 2.49398,-2.65327 c 1.37168,-1.4593 3.89246,-3.37646 5.60172,-4.26035 l 3.10775,-1.60708 1.00255,-1.87328 1.00254,-1.87327 3.42644,-0.6428 c 1.88454,-0.35355 4.86706,-1.36148 6.62782,-2.23986 1.76075,-0.87839 4.70639,-1.79988 6.54585,-2.04777 l 3.34447,-0.45071 1.29536,2.0742 1.29535,2.07419 4.59004,0 4.59004,0 10.41941,1.90023 10.41942,1.90023 7.91259,2.67909 7.9126,2.67908 5.69891,-0.66143 5.6989,-0.66142 0.60712,1.58211 0.60711,1.58211 2.03139,0 2.03138,0 0,1.28439 0,1.28439 2.79715,1.65232 2.79715,1.65232 1.36631,2.55298 1.36631,2.55298 -1.11956,3.76031 c -0.61577,2.06817 -1.64488,6.23531 -2.28692,9.26031 l -1.16735,5.5 -5.41812,13.90843 -5.41811,13.90843 0.79157,0.73925 c 0.43536,0.40659 4.25662,2.16794 8.49168,3.91412 l 7.70012,3.17487 4.04988,2.93372 4.04989,2.93372 0,1.93472 0,1.93471 -0.97461,0.60234 -0.97461,0.60234 -5.0233,-3.9707 -5.02331,-3.97069 -5.25208,-1.93216 c -2.88865,-1.06268 -6.47292,-2.22475 -7.96504,-2.58238 l -2.71295,-0.65023 -1.28705,2.38882 c -0.70788,1.31386 -2.74034,3.6005 -4.51658,5.08143 l -3.22953,2.6926 -1.08348,-0.66963 -1.08349,-0.66963 -1.96061,1.77433 -1.96062,1.77433 -1.01237,-1.01237 -1.01237,-1.01237 -4.214,0.78226 c -2.3177,0.43024 -5.40721,1.07544 -6.86558,1.43376 z m -3.09842,-19.73288 1.75,-0.3355 1.10243,-3.39864 1.10244,-3.39864 -1.07167,-2.83918 -1.07168,-2.83918 -1.34815,0 -1.34815,0 0.59195,-1.86506 0.59195,-1.86507 -6.27456,-1.32935 -6.27456,-1.32936 -4.39857,0.0782 -4.39856,0.0782 -4.80814,5.36625 c -2.64448,2.95143 -4.82762,5.6277 -4.85144,5.94726 -0.0238,0.31956 0.96921,1.11804 2.20671,1.77439 1.2375,0.65636 3.81225,1.38725 5.72166,1.62422 l 3.47167,0.43084 3.52833,-0.83123 c 1.94059,-0.45717 4.19266,-0.99952 5.0046,-1.20523 l 1.47626,-0.37401 0.34329,2.25 0.34329,2.25 1.18045,0.11069 c 0.64925,0.0609 2.19295,0.0287 3.43045,-0.0716 l 2.25,-0.18226 0,1.14489 0,1.14489 z m -2.05195,-7.81114 c -0.75059,0 -1.58012,-0.2154 -1.84339,-0.47868 -0.26327,-0.26327 -3.51999,-0.64856 -7.23716,-0.8562 l -6.75847,-0.37752 -1.39335,-1.3938 -1.39335,-1.3938 0.90921,-1.47064 0.90922,-1.47064 3.30462,1.17632 3.30462,1.17632 5.22856,0.22205 c 2.87571,0.12213 5.75378,0.54666 6.39572,0.9434 l 1.16715,0.72134 -0.61433,1.60093 -0.61433,1.60092 z m 11.3273,7.80511 3.14498,0.23964 8.16484,-1.54181 c 4.49065,-0.84799 8.91849,-1.77765 9.83963,-2.06589 l 1.6748,-0.52409 3.23736,-7.70648 c 1.78055,-4.23856 4.28939,-11.28337 5.5752,-15.65512 l 2.33784,-7.94864 0,-3.80136 0,-3.80136 -2,0 -2,0 -0.0246,-1.25 -0.0246,-1.25 -3.51649,-1.75 c -1.93408,-0.9625 -4.0089,-1.75 -4.61073,-1.75 -0.60183,0 -2.12898,-1.11652 -3.39368,-2.48115 l -2.29945,-2.48115 -4.31522,-0.97089 c -2.37337,-0.534 -6.2809,-1.66628 -8.68339,-2.51619 -2.40249,-0.84991 -8.86362,-2.44649 -14.35806,-3.54795 l -9.9899,-2.00267 -6.14194,0.0327 c -3.37807,0.018 -9.16977,0.42317 -12.87045,0.90039 l -6.72851,0.86767 -4.33721,2.09961 c -2.38547,1.15481 -4.80946,2.09963 -5.38664,2.09963 -0.57717,0 -2.23195,0.93018 -3.67727,2.06707 l -2.62786,2.06708 -3.65667,7.18292 c -2.01117,3.95061 -4.32713,8.48026 -5.14657,10.06588 l -1.4899,2.88296 3.88957,3.3295 c 2.13926,1.83122 4.27166,3.34639 4.73866,3.36704 0.46699,0.0206 2.71699,2.00431 5,4.40814 l 4.15091,4.37058 5.21676,2.62942 5.21675,2.62941 2.28325,-0.0401 2.28324,-0.0401 4,-5.06874 c 2.2,-2.7878 5.25011,-5.95938 6.77803,-7.04795 l 2.77803,-1.97921 2.90379,1.01227 2.90378,1.01226 1.96595,-0.51411 1.96595,-0.5141 2.35224,1.29479 2.35223,1.29479 1.75,-0.26775 1.75,-0.26776 0,1.03148 0,1.03147 1.55966,-0.5985 1.55965,-0.59849 0.55698,2.12988 0.55697,2.12988 0.88337,0 0.88337,0 0,1.5 0,1.5 1.1399,0 1.13991,0 -0.60325,5.25 c -0.33178,2.8875 -0.87165,6.16473 -1.19972,7.28273 l -0.59647,2.03274 z m 22.97465,-26.80511 -1.06277,0 -0.6014,-1.56722 -0.6014,-1.56721 1.13279,-1.13279 1.13278,-1.13278 1.13278,1.13278 1.13279,1.13279 -0.6014,1.56721 -0.6014,1.56722 z m -64.93931,-20.03248 -1.93931,1.03789 -0.67902,-1.09867 -0.67901,-1.09866 1.52236,-1.52237 1.52237,-1.52236 1.09596,0.67734 c 0.60278,0.37254 1.09596,1.08495 1.09596,1.58314 0,0.49819 -0.87269,1.37285 -1.93931,1.94369 z m -120.92981,63.45159 -0.86912,0.53715 -3.38088,-3.27014 -3.38088,-3.27015 -6,-1.84552 c -3.3,-1.01504 -6.53373,-2.26487 -7.18608,-2.77738 l -1.18608,-0.93186 -1.89616,1.0148 c -1.04289,0.55814 -2.48519,1.72453 -3.20511,2.59197 l -1.30894,1.57718 -1.71763,-0.54516 -1.71763,-0.54516 -1.26363,1.52258 c -0.695,0.83742 -1.65853,1.52258 -2.14118,1.52258 l -0.87756,0 0,-1.61658 0,-1.61657 -2.75,0.68101 c -1.5125,0.37456 -3.64769,0.74845 -4.74487,0.83087 l -1.99487,0.14984 -2.34402,2.78572 c -1.28922,1.53214 -2.75403,2.78571 -3.25513,2.78571 l -0.91111,0 0,-3.65499 0,-3.65499 -2.05594,1.8606 -2.05594,1.8606 -1.70633,-1.06562 -1.70634,-1.06562 -2.40938,0.89128 -2.40938,0.89129 -0.7867,-1.27292 -0.78671,-1.27291 -1.24164,1.24164 c -0.6829,0.6829 -1.60164,1.24164 -2.04164,1.24164 l -0.8,0 0,-2 0,-2 -1.25,0.0239 c -0.6875,0.0131 -2.98899,0.42734 -5.11441,0.92049 l -3.86441,0.89664 -0.51701,-1.97705 -0.51701,-1.97706 -1.53863,0.59043 -1.53863,0.59043 -0.72403,-1.17151 -0.72403,-1.1715 -2.29448,2.13764 -2.29448,2.13763 -1.42807,0 -1.42807,0 0.52301,-2 0.52301,-2 -2.15638,-0.11842 c -1.18601,-0.0651 -2.60638,-0.0103 -3.15638,0.12191 -0.55,0.13218 -1.81077,0.46904 -2.80172,0.74857 l -1.80172,0.50825 0.66013,-2.63015 0.66013,-2.63016 -1.60841,0 -1.60841,0 0,-1.45469 0,-1.45468 -3.43088,-0.64364 -3.43089,-0.64364 0.53787,-1.40167 0.53788,-1.40168 -1.62604,0 -1.62604,0 0.63985,-2.54937 0.63985,-2.54937 -2.73141,0.68554 -2.7314,0.68554 0.64944,-2.04622 0.64945,-2.04623 -4.09275,0.54896 -4.09276,0.54895 0.63366,-2.52469 0.63366,-2.52469 -4.65082,0.86886 -4.65082,0.86887 -5.0099,2.51633 c -2.75545,1.38398 -6.93231,4.0916 -9.28192,6.01693 -2.34961,1.92528 -4.78817,3.50055 -5.41902,3.50055 -0.63086,0 -1.14701,-0.38522 -1.14701,-0.85603 0,-0.47082 2.36597,-2.62541 5.2577,-4.78798 2.89174,-2.16257 7.72924,-5.33263 10.75,-7.04456 l 5.4923,-3.11261 5.75,-1.17031 5.75,-1.17031 0,-0.84576 c 0,-0.46518 -0.54578,-1.0277 -1.21284,-1.25005 l -1.21283,-0.40428 3.18855,-4.81384 3.18855,-4.81384 -0.51353,-0.83092 -0.51354,-0.83092 1.9405,-3.78429 c 1.06728,-2.08137 3.09624,-4.86297 4.5088,-6.18135 l 2.5683,-2.39705 1.09265,-3.31076 1.09265,-3.31076 5.67217,-5.18405 c 3.1197,-2.85123 7.25357,-6.22354 9.18637,-7.49402 l 3.5142,-2.30998 9,-1.12398 c 4.95,-0.61818 12.0375,-1.30621 15.75,-1.52895 l 6.75,-0.40498 0,1.92877 0,1.92877 3.05437,-1.06476 3.05436,-1.06476 1.22536,1.67578 1.22536,1.67578 2.78537,-1.059 c 1.53196,-0.58245 2.98108,-1.059 3.22028,-1.059 0.23919,0 0.4349,0.73388 0.4349,1.63084 l 0,1.63084 3.55226,-0.57645 3.55225,-0.57645 0.55474,1.44561 0.55473,1.44561 1.89301,0 1.89301,0 0,1 0,1 1.76098,0 1.76097,0 2.47805,3 2.47805,3 2.29236,0 2.29236,0 0.65108,1.75 c 0.3581,0.9625 1.5536,2.9875 2.65668,4.5 l 2.00559,2.75 1.75292,0 1.75293,0 0.60526,0.97933 0.60526,0.97934 -0.99944,1.86747 -0.99944,1.86747 0.82769,0.90319 0.82769,0.9032 -0.83293,8 c -0.45811,4.4 -1.61397,11.6 -2.56859,16 l -1.73566,8 -1.87787,1.67971 c -1.03282,0.92384 -2.6909,3.27443 -3.68461,5.22353 l -1.80674,3.54383 5.41622,2.02646 c 2.97892,1.11456 5.66494,2.02647 5.96893,2.02647 0.30399,0 2.3025,1.2375 4.44113,2.75 l 3.88843,2.75 0.0214,2.19098 0.0213,2.19099 z m -51.38088,-22.60797 1.75,-0.3355 1.10243,-3.39864 1.10244,-3.39864 -1.07167,-2.83918 -1.07168,-2.83918 -1.34815,0 -1.34815,0 0.59195,-1.86506 0.59195,-1.86507 -6.27456,-1.32935 -6.27456,-1.32936 -4.35004,0.0763 -4.35003,0.0763 -5.77043,6.36811 -5.77043,6.36812 0.48889,1.2798 0.48889,1.2798 1.92956,-0.61242 1.92957,-0.61242 1.4082,1.16871 1.40821,1.16871 1.06417,-0.6577 c 0.5853,-0.36173 3.1268,-0.85968 5.64779,-1.10655 2.52098,-0.24687 5.37765,-0.87381 6.34814,-1.39321 l 1.76454,-0.94435 0.63149,0.63148 c 0.34731,0.34732 0.63148,1.45648 0.63148,2.46482 l 0,1.83333 1.25,0.11069 c 0.6875,0.0609 2.2625,0.0287 3.5,-0.0716 l 2.25,-0.18226 0,1.14489 0,1.14489 1.75,-0.33551 z m -2.05195,-7.81114 c -0.75059,0 -1.58012,-0.2154 -1.84339,-0.47868 -0.26327,-0.26327 -3.51999,-0.64856 -7.23716,-0.8562 l -6.75847,-0.37752 -1.39335,-1.3938 -1.39335,-1.3938 0.90921,-1.47064 0.90922,-1.47064 3.30462,1.17632 3.30462,1.17632 5.22856,0.22205 c 2.87571,0.12213 5.75378,0.54666 6.39572,0.9434 l 1.16715,0.72134 -0.61433,1.60093 -0.61433,1.60092 z m 16.96247,5.8492 2.19142,-2.05874 1.00493,0.62108 1.00493,0.62108 0.64195,-1.03869 c 0.35307,-0.57128 3.19856,-2.32926 6.32332,-3.90663 l 5.68137,-2.86795 2.25704,-4.01587 c 1.24137,-2.20872 2.95039,-5.97058 3.79782,-8.35967 l 1.54077,-4.34381 -0.64587,-4.75 -0.64588,-4.75 -1.90616,0 -1.90616,0 0,-1.5 0,-1.5 -2.57946,0 -2.57945,0 0.65891,-3 0.65891,-3 -2.99612,0 -2.99612,0 -0.41526,-1.24576 -0.41525,-1.24576 -1.91808,-0.004 -1.91808,-0.004 0.30919,-1.81686 0.30919,-1.81686 -2.06728,1.10637 -2.06728,1.10638 -4.24191,-0.15226 c -2.33305,-0.0837 -5.25441,0.17597 -6.49191,0.57712 l -2.25,0.72937 0,-1.61663 0,-1.61663 -1.30064,0 c -0.71534,0 -2.51183,-0.5625 -3.99219,-1.25 l -2.69157,-1.25 -0.008,-1.25 -0.008,-1.25048 -2.30887,0 -2.30887,0 -1.90587,-1.39361 -1.90587,-1.3936 -2.39459,0.91042 -2.39459,0.91042 -3.64067,-1.01124 -3.64067,-1.01124 -5.51787,-0.006 -5.51786,-0.006 -3.72129,2.52868 -3.72128,2.52868 -1.65783,3.22132 c -0.9118,1.77173 -3.11939,4.93456 -4.90575,7.02853 l -3.24791,3.80721 -0.42848,2.91941 -0.42848,2.91942 0.99625,0.99625 0.99625,0.99625 -1.17288,2.57418 c -0.64508,1.4158 -1.17287,2.72552 -1.17287,2.91049 0,0.18498 0.9356,0.58098 2.07911,0.88002 l 2.07911,0.5437 -0.32911,2.29781 -0.32911,2.29782 6.64972,6.70873 6.64972,6.70873 -0.56639,0.56638 -0.56638,0.56639 1.61655,0 1.61656,0 6.98709,-8.29729 6.98708,-8.29729 2.35139,-1.25843 2.35138,-1.25842 2.60432,0.99016 2.60432,0.99016 2.00509,-0.52434 2.00508,-0.52434 2.35224,1.29479 2.35223,1.29479 1.75,-0.26775 1.75,-0.26776 0,1.03148 0,1.03147 1.55966,-0.5985 1.55965,-0.59849 0.55698,2.12988 0.55697,2.12988 0.88337,0 0.88337,0 0,1.5 0,1.5 1.1399,0 1.13991,0 -0.55754,5.25 c -0.30665,2.8875 -0.89551,6.10983 -1.30858,7.16074 l -0.75103,1.91074 2.05797,-0.53817 2.05797,-0.53817 1.34524,0.8314 1.34525,0.8314 2.19143,-2.05874 z m 11.92851,-15.92309 -1.41097,1.17101 -0.64805,-1.04856 -0.64804,-1.04856 0.61803,-1 c 0.33992,-0.55 1.26648,-1 2.05902,-1 l 1.44098,0 0,0.87756 c 0,0.48265 -0.63494,1.4045 -1.41097,2.04855 z m -58.65246,-21.92611 c -0.45019,0 -1.12088,-0.48921 -1.49042,-1.08713 l -0.67189,-1.08713 1.04565,-1.04565 1.04566,-1.04566 1.67984,0.64462 1.67984,0.64462 -1.23507,1.48816 c -0.67929,0.81849 -1.60341,1.48817 -2.05361,1.48817 z m -124.18657,60.76055 -1.25,1.00544 -5,-3.67729 -5,-3.67729 -6.425,-2.84032 -6.42501,-2.84032 -4.60391,1.65555 c -2.53216,0.91055 -6.84321,1.92075 -9.58013,2.2449 l -4.9762,0.58936 -12.07165,-1.10159 -12.07166,-1.10159 -10.92322,-3.11922 -10.92322,-3.11921 -9.5,-4.29503 c -5.225,-2.36227 -11.075,-4.61746 -13,-5.01153 -1.925,-0.39406 -5.075,-1.56628 -7,-2.60492 -1.925,-1.03864 -4.22581,-2.40501 -5.11291,-3.03637 l -1.6129,-1.14794 -6.43446,3.01105 -6.43446,3.01104 -3.70264,3.25096 -3.70263,3.25095 0,1.97975 0,1.97974 -1.25,-0.41166 -1.25,-0.41167 -0.3061,-2.06904 -0.30611,-2.06905 3.69484,-3.58838 3.69483,-3.58838 7.22596,-3.96583 7.22596,-3.96584 3.24255,-5.05307 3.24254,-5.05308 -0.59602,-2.37473 -0.59602,-2.37474 1.98879,-2.52833 c 1.09383,-1.39058 1.98878,-3.17511 1.98878,-3.96561 l 0,-1.43728 2,-1.80998 c 1.1,-0.99549 2,-2.36929 2,-3.0529 l 0,-1.24292 6.40514,-7.70402 6.40514,-7.70402 3.73172,-2.64807 3.73171,-2.64807 13.11315,0.12979 13.11314,0.1298 6.5,1.18976 c 3.575,0.65437 11,2.56756 16.5,4.25154 5.5,1.68397 11.35,3.72661 13,4.53918 1.65,0.81258 4.94963,3.34098 7.33252,5.61867 l 4.33252,4.14126 1.81671,3.51264 1.81671,3.51264 1.23228,8.48736 1.23228,8.48736 -0.0794,8.76114 -0.0794,8.76114 -0.66123,1.06989 -0.66123,1.06988 -2.14685,-0.53882 -2.14685,-0.53883 -1.77528,3.09324 c -0.9764,1.70129 -1.64873,3.19894 -1.49405,3.32813 0.15467,0.12918 2.38022,1.1509 4.94567,2.27048 2.56545,1.11959 7.85295,3.89779 11.75,6.17379 l 7.08555,4.13818 0,1.33345 c 0,0.73339 -0.5625,1.78589 -1.25,2.33888 z m -44.17814,-11.89357 7.07186,0.13302 4.62393,-1.57553 4.62393,-1.57553 2.05421,-3.48163 c 1.12981,-1.9149 2.05421,-3.90591 2.05421,-4.42447 l 0,-0.94284 -2.94098,0 -2.94099,0 -0.52545,-0.8502 -0.52545,-0.8502 3.96644,-3.32776 3.96643,-3.32776 0,-1.65538 c 0,-0.91045 0.31702,-1.97238 0.70448,-2.35985 0.38746,-0.38746 0.86764,-1.92288 1.06707,-3.41203 l 0.36259,-2.70756 1.36293,-1.50603 1.36294,-1.50602 -1.43228,-6.83281 -1.43227,-6.8328 -1.26076,-1.79998 c -0.69342,-0.98999 -3.50489,-3.80986 -6.24773,-6.26637 l -4.98697,-4.46639 -4,-1.35023 -4,-1.35024 -8,-0.0492 -8,-0.0492 -4.18327,-3.36374 -4.18326,-3.36373 -12.84271,-0.52088 -12.84271,-0.52087 -4.04565,2.06393 -4.04565,2.06394 -3.7408,4.56515 -3.74081,4.56516 0.60874,0.98495 0.60873,0.98495 -1.19509,3.98884 -1.19508,3.98884 1.16111,1.39905 1.16111,1.39905 -1.46755,1.21796 -1.46754,1.21796 1.20521,2.16472 c 0.66287,1.1906 1.59076,2.44597 2.06198,2.78972 l 0.85677,0.625 -1.35677,0.86835 c -0.74622,0.4776 -2.48176,0.98688 -3.85676,1.13175 -1.375,0.14487 -3.84081,0.37287 -5.47958,0.50666 l -2.97957,0.24325 -2.43229,4.40761 -2.43229,4.40761 3.58151,3.28221 3.58151,3.28221 4.33036,1.07136 c 2.38169,0.58926 6.58035,2.01991 9.33035,3.17924 2.75,1.15933 7.53515,3.17603 10.63366,4.48157 3.09851,1.30554 9.9485,3.52214 15.2222,4.92579 l 9.58854,2.5521 7.7778,0.82213 c 4.27779,0.45218 10.96014,0.882 14.84966,0.95515 z m -21.57186,-15.95671 c -1.925,-0.0343 -4.94943,-0.59069 -6.72096,-1.23635 -1.77153,-0.64566 -4.13403,-1.95702 -5.25,-2.91413 -1.11597,-0.95712 -2.02904,-2.20874 -2.02904,-2.78139 0,-0.57264 0.59372,-1.269 1.31938,-1.54746 l 1.31938,-0.5063 5.43062,2.52791 5.43062,2.52791 4.25,0.01 4.25,0.01 0,1.38337 0,1.38337 -2.25,0.60297 c -1.2375,0.33164 -3.825,0.57489 -5.75,0.54056 z m 35.1875,-13.13944 -1.1875,0.39584 0,-1.58334 0,-1.58333 1.58333,0 1.58334,0 -0.39584,1.1875 c -0.21771,0.65312 -0.93021,1.36563 -1.58333,1.58333 z m -56.033,-20.98853 -1.34551,0.44804 0.34551,-1.78231 0.3455,-1.7823 1.3455,-0.44803 1.34551,-0.44804 -0.34551,1.78231 -0.3455,1.7823 z m 408.63799,-118.53291 -1.31326,0.50394 -3.73671,-3.23013 -3.7367,-3.23013 -7.25291,-2.1497 -7.25291,-2.1497 -3.55,0.003 -3.55,0.003 -0.95,0.8711 -0.95,0.8711 -5.29731,0.58739 -5.29732,0.58739 -0.55967,-1.45849 -0.55968,-1.45849 -2.69301,0 -2.69301,0 -1.24966,1.25 -1.24966,1.25 -2.20034,0.18729 c -1.21019,0.10301 -4.22534,0.39856 -6.70034,0.65676 -2.475,0.25821 -4.725,0.56472 -5,0.68113 -0.275,0.11641 -0.86666,0.14865 -1.31481,0.0716 -0.44814,-0.077 -2.02314,0.81253 -3.5,1.97677 l -2.68519,2.1168 -0.5,-2.7627 -0.5,-2.76269 -1.09991,-0.36581 -1.09992,-0.3658 -1.27253,1.53331 -1.27253,1.5333 -1.44494,0 -1.44495,0 0.70462,-2.25 c 0.38754,-1.2375 0.9046,-2.925 1.14903,-3.75 l 0.44441,-1.5 -2.16505,2.75 c -1.19077,1.5125 -2.57751,2.75 -3.08164,2.75 l -0.91659,3.7e-4 0,-1.53518 0,-1.53519 -1.93426,1.03519 c -1.06384,0.56935 -2.23762,1.03518 -2.60841,1.03518 l -0.67415,0 0.61039,-2.43198 0.61039,-2.43199 -2.10264,-0.66735 -2.10265,-0.66735 -1.09933,1.09933 c -0.60464,0.60464 -1.45934,1.09934 -1.89934,1.09934 l -0.8,0 0,-3 0,-3 -0.75,0.0318 c -0.4125,0.0175 -1.62351,0.6925 -2.69113,1.5 -1.06762,0.80751 -2.30512,1.4682 -2.75,1.4682 l -0.80887,0 0,-1.61663 0,-1.61663 -2,0.52301 -2,0.52301 0,-1.40638 0,-1.40638 -2.51905,0 -2.51905,0 0.68492,-2.75 0.68493,-2.75 -1.41588,1.09477 c -0.77873,0.60212 -2.25343,1.3947 -3.27712,1.7613 l -1.86124,0.66654 0.6303,-2.51131 0.63029,-2.5113 -1.51905,0 -1.51905,0 0,-1.96862 0,-1.96861 -1.5,0.5756 -1.5,0.57561 0,-1.10699 0,-1.10699 -1.52496,0 c -0.83873,0 -4.55123,1.53007 -8.25,3.40015 -3.69877,1.87008 -8.04697,4.54446 -9.66267,5.94306 l -2.93762,2.54291 -0.81238,-0.50208 c -0.4468,-0.27614 -0.81237,-1.11786 -0.81237,-1.87048 l 0,-1.3684 2.56222,-2.01545 c 1.40923,-1.10849 6.33048,-3.94499 10.93612,-6.30333 l 8.3739,-4.28789 1.42845,-5.01924 1.42845,-5.01925 -1.00258,-1.26876 -1.00258,-1.26876 1.71362,-1.89353 c 0.94249,-1.04144 1.81814,-2.60563 1.94588,-3.47597 0.12773,-0.87035 1.45157,-2.85515 2.94186,-4.41067 l 2.7096,-2.82822 3.60293,-6.92704 c 1.98161,-3.80988 4.51891,-8.22005 5.63844,-9.80038 l 2.03552,-2.87334 7.20529,-3.42178 7.2053,-3.42177 10.88879,0.0305 10.88879,0.0305 15.5,4.5177 c 8.525,2.48473 20,6.1503 25.5,8.14571 l 10,3.62802 4,2.64922 4,2.64922 0.30621,3.1238 0.30621,3.1238 -1.58615,5.84585 c -0.87238,3.21521 -2.24986,10.09618 -3.06106,15.29104 l -1.47492,9.44521 -2.24514,3.29796 -2.24515,3.29796 -1.15122,0.007 -1.15123,0.007 -2.15178,3.647 -2.15178,3.64699 0.80301,0.72071 c 0.44165,0.39639 4.36739,1.54056 8.72386,2.54261 l 7.92086,1.8219 4.57914,3.06039 4.57914,3.0604 0.30287,2.12272 0.30287,2.12272 -1.31325,0.50395 z M 638.7497,288.12401 c 1.11981,-0.16486 3.02171,-0.62597 4.22645,-1.02469 l 2.19043,-0.72496 1.55957,-4.57708 c 0.85776,-2.5174 1.55957,-4.72193 1.55957,-4.89895 0,-0.17702 -0.675,-0.32186 -1.5,-0.32186 l -1.5,0 0,-1 0,-1 -1.8,0 -1.8,0 -1.132,-1.132 -1.13201,-1.13201 -6.81799,-0.30018 -6.818,-0.30018 -3.33177,3.18219 -3.33178,3.18218 -1.76258,3.61568 -1.76258,3.61568 1.94671,-0.50908 1.94672,-0.50908 0.82142,1.3291 0.82143,1.3291 1.53241,-1.27179 1.53241,-1.27179 1.08778,0.67229 1.08778,0.67228 2.56214,-1.67877 2.56213,-1.67878 2.60787,3.01622 2.60786,3.01622 z m -1.90511,-5.61849 -4.05887,-0.0709 -3.5,-2.02093 c -1.925,-1.11151 -3.89725,-2.39933 -4.38278,-2.86183 l -0.88279,-0.84091 0.56858,-1.48168 0.56857,-1.48168 5.81421,2.38945 5.81421,2.38944 3.13548,-0.56479 3.13548,-0.56478 0.76729,1.24151 0.7673,1.24151 -1.8439,1.34829 -1.84391,1.3483 z m 16.77689,5.05564 1.83577,0.0153 9.51138,-4.23633 9.51139,-4.23634 3.33735,-3.69404 3.33735,-3.69405 2.5655,-8.12124 c 1.41103,-4.46668 2.5655,-8.998 2.5655,-10.06961 l 0,-1.94838 -1.81608,-1.81608 -1.81608,-1.81608 -10.68148,-4.29294 -10.68148,-4.29294 -2.75244,0.77395 c -1.51384,0.42568 -4.77744,0.83685 -7.25244,0.91372 -2.475,0.0769 -5.2875,0.50079 -6.25,0.94205 l -1.75,0.8023 0,-2.18645 0,-2.18644 -2.89219,0.63523 -2.89219,0.63523 -2.10781,-2.96014 c -1.1593,-1.62809 -2.10781,-3.43279 -2.10781,-4.01047 l 0,-1.05031 -3.75,-0.78894 -3.75,-0.78894 -8.85053,0.15584 -8.85054,0.15584 -6.30847,3.10565 -6.30848,3.10566 -2.5345,4.23213 -2.53451,4.23213 1.47796,1.13543 1.47796,1.13543 -0.57249,3.36457 -0.5725,3.36457 -1.36825,1.04173 -1.36826,1.04173 1.00585,1.79736 1.00585,1.79736 -0.4232,2.21385 -0.42321,2.21386 1.07366,1.11274 c 0.59051,0.61201 2.17535,2.94867 3.52186,5.19257 l 2.44819,4.07983 1.55181,0.49345 c 0.85349,0.2714 2.68878,1.54841 4.07841,2.83782 l 2.52662,2.34437 3.46056,0 3.46057,0 1.76997,-2.25016 c 0.97349,-1.23759 5.04889,-4.71794 9.05645,-7.73411 l 7.28647,-5.48396 2.95637,0.48188 c 1.62601,0.26504 3.63138,0.73799 4.45638,1.05101 0.825,0.31303 2.38922,0.73923 3.47604,0.94712 l 1.97604,0.37799 0.80041,1.43025 0.8004,1.43024 1.37938,-0.52931 1.37938,-0.52932 2.09417,1.79309 2.09418,1.79309 0,2.15203 c 0,1.18362 -0.68351,4.0893 -1.5189,6.45706 l -1.5189,4.30503 1.2689,0.80539 c 0.69789,0.44296 2.09499,0.81228 3.10466,0.8207 z m 19.10174,-20.29719 c -0.58438,0.19479 -1.37188,0.0448 -1.75,-0.33333 -0.37813,-0.37813 -0.6875,-1.3205 -0.6875,-2.09416 l 0,-1.40666 1.75,0.33702 1.75,0.33702 0,1.40297 0,1.40297 z m -62.52083,-18.6875 -2.08334,0 0.4162,-1.25 0.4162,-1.25 1.66714,-0.32332 1.66713,-0.32333 0,1.57333 0,1.57332 z m -176.32166,65.92114 c -0.0523,-0.0434 -2.79501,-1.71103 -6.09501,-3.70591 l -6,-3.62705 -4.39217,-1.12737 -4.39218,-1.12738 -6.10782,1.43824 -6.10783,1.43823 -8,-0.59759 c -4.4,-0.32867 -12.31937,-1.03288 -17.59861,-1.5649 l -9.5986,-0.96731 -11.49134,-3.9316 c -6.32023,-2.16238 -12.8575,-4.63807 -14.52726,-5.50154 l -3.03592,-1.56994 -8.3343,-8.48654 -8.33429,-8.48654 -4.77116,2.59679 -4.77116,2.59679 -7.2186,6.50148 -7.2186,6.50147 -0.45613,-1.36837 -0.45612,-1.36837 6.40604,-5.81715 c 3.52333,-3.19943 8.51755,-7.26377 11.09828,-9.03186 l 4.69223,-3.21472 1.74103,-3.8196 1.74103,-3.8196 -0.22599,-4.36576 -0.22599,-4.36577 3.54273,-4.64123 3.54273,-4.64123 0,-2.71872 0,-2.71872 6.93827,-7.20469 c 3.81604,-3.96257 7.23878,-7.20468 7.60608,-7.20468 0.36729,0 1.50669,-1.06646 2.53198,-2.36991 l 1.86418,-2.36991 5.27974,-0.71925 c 2.90386,-0.39559 7.13612,-0.67897 9.40501,-0.62974 l 4.12526,0.0895 4.14236,1.4615 4.14235,1.46151 1.45669,-0.55898 1.45668,-0.55898 1.59713,1.59712 1.59713,1.59713 3.44844,0 3.44844,0 5.73013,2.32001 c 3.15157,1.276 9.10513,3.16092 13.23013,4.1887 4.125,1.02778 8.175,2.38466 9,3.0153 0.825,0.63063 2.9625,1.72531 4.75,2.43262 l 3.25,1.28601 0,0.89855 c 0,0.49421 1.12821,2.68576 2.50714,4.87012 l 2.50714,3.97156 0.33981,10.75857 0.3398,10.75856 -1.44116,4.9368 -1.44116,4.9368 -2.85382,2.66586 -2.85381,2.66587 -1.22386,6.64211 c -0.67312,3.65316 -1.03401,6.78992 -0.80197,6.97057 0.23204,0.18064 4.81925,2.49917 10.1938,5.15227 l 9.77191,4.82382 -1.6769,1.85295 c -0.92229,1.01912 -1.71965,1.81746 -1.77191,1.7741 z m -34.09501,-11.38873 8,-0.31057 2.69631,-1.24697 2.69632,-1.24698 1.05368,-4.91317 c 0.57953,-2.70224 1.05369,-6.00744 1.05369,-7.34489 l 0,-2.43173 -2.5,-0.62746 c -1.375,-0.3451 -2.49403,-0.91617 -2.48672,-1.26905 0.007,-0.35287 2.26345,-3.11659 5.01368,-6.14159 l 5.0004,-5.5 0.51303,-2 c 0.28216,-1.1 0.87184,-5.0481 1.31039,-8.77356 l 0.79737,-6.77356 -1.34665,-1.11762 -1.34666,-1.11763 0.61224,-1.92899 0.61224,-1.92899 -2.08966,-0.54645 -2.08966,-0.54646 0,-1.26674 0,-1.26674 -2.10732,-0.55107 -2.10732,-0.55108 -2.45778,0.93444 c -1.35178,0.51395 -2.826,0.93445 -3.27605,0.93445 -0.45005,0 -1.06546,-0.94528 -1.36759,-2.10062 l -0.54932,-2.10061 -1.26891,0.78423 -1.26891,0.78423 -3.7173,-0.21934 -3.71731,-0.21934 -0.64011,1.03573 -0.64011,1.03572 -1.94099,0 -1.94098,0 0,-1.13084 0,-1.13084 -3.59656,0.58364 -3.59656,0.58364 0.63555,-2.53226 0.63556,-2.53225 -3.289,0.32157 -3.28899,0.32156 0.30116,-1.774 0.30116,-1.77401 -2.42545,0.60875 -2.42545,0.60875 -0.67289,-3.58679 -0.67288,-3.58679 -1.97349,1.05618 -1.97349,1.05618 -1.22934,-0.76539 -1.22933,-0.76539 -2.25,0.29071 -2.25,0.29071 0,-1.68286 0,-1.68285 -3.75,0.70078 c -2.0625,0.38542 -4.27912,1.1379 -4.92581,1.67216 -0.6467,0.53426 -1.7717,0.86614 -2.5,0.73751 -0.72831,-0.12863 -2.67419,0.37598 -4.32419,1.12137 l -3,1.35525 -4.21396,4.486 -4.21395,4.486 -0.46532,4.08175 c -0.25592,2.24497 -0.40961,5.20676 -0.34153,6.58176 l 0.12378,2.5 1.80549,1.3067 1.80549,1.30671 0,1.33251 c 0,0.73288 -0.85145,2.38401 -1.89212,3.66918 l -1.89211,2.33666 -1.85789,0.10307 c -1.02183,0.0567 -3.22172,0.18004 -4.88864,0.27412 l -3.03076,0.17105 -1.20617,3.19549 -1.20616,3.19548 1.35467,2.05452 c 0.74506,1.12998 4.39833,5.09283 8.11837,8.80632 l 6.7637,6.75182 5.11855,2.91063 5.11856,2.91064 10.62322,3.07998 10.62322,3.07997 11.37678,0.92906 11.37678,0.92907 z m -20.97251,-16.61836 c -1.66512,-0.0473 -4.16668,-0.43207 -5.55902,-0.85509 -1.39234,-0.42303 -3.52984,-1.39259 -4.75,-2.1546 l -2.21847,-1.38545 0,-1.20044 c 0,-0.66024 0.47511,-1.49407 1.05579,-1.85295 l 1.0558,-0.65252 5.45882,2.21558 5.45883,2.21557 2.9466,-0.58932 2.94661,-0.58932 0.55551,0.89882 0.5555,0.89883 -2.23924,1.56842 -2.23923,1.56842 -3.0275,-0.0859 z m 32.47251,-14.91405 -1.06277,0 -0.61433,-1.60092 -0.61433,-1.60093 1.38735,-0.85743 1.38736,-0.85744 0.89114,0.89114 0.89115,0.89115 -0.6014,1.56721 -0.6014,1.56722 z m -59.12244,-19 -0.87756,0 0,-1.44098 c 0,-0.79254 0.45,-1.7191 1,-2.05902 l 1,-0.61803 1.04856,0.64804 1.04856,0.64805 -1.17101,1.41097 c -0.64405,0.77603 -1.5659,1.41097 -2.04855,1.41097 z m 39.11151,-47 c -0.46434,0 -2.42373,-2.60008 -4.35419,-5.77796 l -3.50992,-5.77795 -6.48464,0.54414 -6.48464,0.54413 -1.95937,2.48382 c -1.07766,1.3661 -2.89772,3.60882 -4.04458,4.98382 l -2.08519,2.5 -0.0333,-1.68693 -0.0333,-1.68692 8.25,-10.94252 c 4.5375,-6.01838 8.72784,-11.75065 9.31186,-12.73837 l 1.06186,-1.79585 1.18814,0.73431 1.18814,0.73431 0,2.29176 c 0,1.26047 0.50067,3.82141 1.11259,5.69099 l 1.1126,3.39922 1.71409,1.51995 1.71409,1.51995 -0.41426,1.24276 -0.41425,1.24277 2.44911,4.23728 2.44911,4.23729 -0.44487,1.25 c -0.24468,0.6875 -0.8248,1.25 -1.28914,1.25 z m -12.98907,-14 c 2.2,0 4,-0.15785 4,-0.35078 0,-0.19292 -0.49402,-1.76792 -1.09783,-3.5 l -1.09782,-3.14922 -0.82959,0 c -0.45628,0 -1.76226,1.18569 -2.90218,2.63486 -1.13992,1.44917 -2.07258,3.02417 -2.07258,3.5 l 0,0.86514 z m 257.5096,11 -1.37236,0 -0.35242,-9.75 -0.35242,-9.75 2.79958,-2.75 2.79957,-2.75 2.25209,0 2.25209,0 3.73214,2.53605 c 2.05267,1.39483 3.73213,2.92581 3.73213,3.40218 l 0,0.86612 -3,1.04581 c -1.65,0.57519 -3,1.21842 -3,1.42941 0,0.21098 2.27867,1.86013 5.06372,3.66478 l 5.06372,3.28117 -0.56372,1.46903 c -0.31005,0.80796 -0.56372,1.64566 -0.56372,1.86156 0,0.21589 -1.32765,1.07909 -2.95034,1.91821 l -2.95034,1.52568 -4.99064,0 -4.99065,0 -0.61803,1 c -0.33992,0.55 -1.2356,1 -1.9904,1 z m 10.40821,-5.22683 c 2.4298,-0.42651 4.65302,-1.01066 4.94048,-1.29813 l 0.52266,-0.52266 -1.65969,-1.65969 c -0.91283,-0.91283 -3.78993,-2.46832 -6.39355,-3.45663 l -4.73385,-1.79694 -0.78162,1.23044 c -0.42989,0.67674 -0.78851,2.66164 -0.79693,4.41089 l -0.0153,3.18045 2.25,0.34387 c 1.2375,0.18912 4.23802,-0.005 6.66781,-0.4316 z m -6.33602,-13.16618 c 0.86998,-0.33385 2.21998,-0.60699 3,-0.60699 l 1.41821,0 0,-1 0,-1 -3,0 -3,0 0,1.60699 0,1.60699 z M 307.55109,140.02733 c -18.27905,0.1356 -33.38434,0.0968 -33.5673,-0.0861 -0.18296,-0.18296 -7.72737,-1.05112 -16.76536,-1.92923 l -16.43271,-1.59658 -5,0.46962 -5,0.46962 -2.40376,-0.66145 -2.40377,-0.66145 -0.35787,-2.47764 c -0.19683,-1.3627 -0.53908,-2.97645 -0.76055,-3.58612 l -0.40268,-1.10849 -4.21093,-0.67336 c -2.31601,-0.37034 -5.10288,-1.15071 -6.19304,-1.73415 l -1.98212,-1.06079 0.95765,-0.95765 0.95765,-0.95765 8.39971,1.03509 c 4.61984,0.56929 14.47471,1.4315 21.89971,1.916 l 13.5,0.88093 83,-0.33053 83,-0.33053 51.5,-1.26157 51.5,-1.26157 51.5,0.47638 c 28.325,0.26201 60.5,0.47638 71.5,0.47638 11,0 33.05,-0.36199 49,-0.80442 l 29,-0.80441 15.5,-1.38879 c 8.525,-0.76383 21.125,-1.66149 28,-1.99482 6.875,-0.33332 18.575,-1.22122 26,-1.9731 l 13.5,-1.36707 0.79238,0.75868 0.79238,0.75869 -1.57556,1.3076 -1.57556,1.3076 -4.85263,0.46628 -4.85263,0.46627 -0.45889,5.5336 -0.45889,5.5336 -1.74723,1.27761 -1.74723,1.27761 -34.65807,0.24708 c -19.06194,0.13589 -41.63307,0.31738 -50.15807,0.4033 -8.525,0.0859 -32.6,-0.29812 -53.5,-0.85342 -20.9,-0.5553 -43.4,-1.04164 -50,-1.08076 -6.6,-0.0391 -33.825,0.30635 -60.5,0.76771 -26.675,0.46136 -49.625,1.0237 -51,1.24965 -1.375,0.22595 -31.975,0.6411 -68,0.92255 l -65.5,0.51173 -10.5,1.09078 -10.5,1.09078 -33.23463,0.24653 z m 0.73463,-3.64741 34.5,0.0151 6,-0.89206 6,-0.89206 40.5,-0.52143 c 22.275,-0.28679 54,-0.72032 70.5,-0.96339 16.5,-0.24308 45.075,-0.78879 63.5,-1.21269 18.425,-0.4239 47.675,-0.7531 65,-0.73154 17.325,0.0215 41.625,0.33841 54,0.70414 12.375,0.36573 27.675,0.71794 34,0.7827 6.325,0.0648 34,-0.20393 61.5,-0.59708 27.5,-0.39316 50.3375,-0.91696 50.75,-1.16402 l 0.75,-0.44919 -0.0153,-3.19098 c -0.008,-1.75504 -0.38861,-3.77958 -0.84486,-4.49898 l -0.82954,-1.30799 -2.40515,0.54715 c -1.32283,0.30093 -11.14611,0.99436 -21.82952,1.54096 -10.68342,0.5466 -25.08342,1.44235 -32,1.99056 -6.9166,0.5482 -28.32563,1.47883 -47.57563,2.06806 l -35,1.07132 -61.5,-1.0727 -61.5,-1.0727 -16.5,0.97267 c -9.075,0.53496 -32.25,1.28285 -51.5,1.66196 -19.25,0.37912 -61.325,0.90469 -93.5,1.16794 -32.175,0.26325 -65.475,0.43418 -74,0.37985 -8.525,-0.0543 -27.10774,-0.2666 -41.29497,-0.47169 l -25.79497,-0.37291 0.3064,1.60275 0.3064,1.60276 16.98857,0.70327 16.98857,0.70327 5,0.94088 5,0.94089 34.5,0.0151 z m -52.90429,-20.80345 -6.09571,0 0,-10.56574 0,-10.565744 -0.93023,-1.73814 -0.93022,-1.738141 0.78473,-1.269726 0.78474,-1.269725 4.10739,-0.92287 4.10739,-0.922869 4.77984,1.774717 4.77985,1.774717 0.31974,1.660277 0.31974,1.660276 -1.83319,1.811483 c -1.00826,0.996316 -2.94843,2.543888 -4.31149,3.439048 l -2.47829,1.627567 3.5,1.48442 c 1.925,0.81643 4.30444,2.38817 5.28764,3.49277 l 1.78764,2.00835 -1.12285,2.46439 -1.12286,2.4644 -2.81907,1.66527 -2.81908,1.66527 z m 3.88588,-3.67458 c 1.91487,-0.27662 4.30472,-0.94346 5.31077,-1.48188 l 1.82917,-0.97895 -0.37032,-1.18229 -0.37031,-1.1823 -3.44045,-1.74845 -3.44045,-1.74844 -3.25,-0.002 -3.25,-0.002 0,3.92668 0,3.92667 1.75,0.48751 c 0.9625,0.26812 3.31672,0.26118 5.23159,-0.0154 z m -4.12314,-13.958548 c 1.45285,-0.339235 4.10405,-1.286833 5.89155,-2.105773 l 3.25,-1.488983 0,-0.910809 0,-0.91081 -2.5651,-0.975249 c -1.4108,-0.536387 -4.0358,-0.975249 -5.83333,-0.975249 -1.79753,0 -3.47948,0.211245 -3.73767,0.469434 -0.25819,0.258189 -0.28439,2.054514 -0.0582,3.991832 l 0.41122,3.522398 2.64155,-0.616791 z m 27.72451,13.633128 -2.13795,0 -2.28562,-1.60091 -2.28563,-1.60092 -0.93031,-2.44692 -0.93032,-2.44691 1.34056,-3.20217 1.34057,-3.202171 4.15575,-3.75 4.15575,-3.75 1.45007,0 c 0.79753,0 2.52187,0.488346 3.83185,1.085212 l 2.38178,1.085213 1.66527,2.819079 1.66527,2.81908 -0.0333,2.345708 -0.0333,2.345709 -1.82177,2.18176 c -1.00197,1.19997 -3.52479,3.33747 -5.60627,4.75 l -3.78451,2.56824 -2.13795,0 z m 1.88637,-3.61829 c 1.11687,-0.33761 3.49317,-1.70951 5.28067,-3.04867 l 3.25,-2.43482 0,-1.40206 c 0,-0.77113 -0.50247,-2.504855 -1.1166,-3.852722 l -1.1166,-2.450666 -3.1334,-0.52271 -3.1334,-0.52271 -3.25,3.411639 -3.25,3.411639 0,2.45798 0,2.45798 2.21933,1.55448 2.21933,1.55448 z m 48.38766,3.63147 -2.64301,-0.0132 -0.49385,-1.28696 -0.49385,-1.28695 3.07593,-9.463045 3.07594,-9.463046 1.05256,-0.708359 1.05257,-0.708359 0.84558,0.845579 0.84558,0.845579 -2.58722,7.172377 c -1.42297,3.944804 -2.58722,7.841164 -2.58722,8.658564 l 0,1.48619 10,-0.68874 10,-0.68874 0,1.42814 0,1.42815 -9.25,1.22799 c -5.0875,0.67539 -10.43936,1.22206 -11.89301,1.21481 z m 48.89301,-0.83991 c -0.6875,0.21298 -2.6,0.2609 -4.25,0.10648 -1.65,-0.15442 -5.77663,-0.53751 -9.17028,-0.85131 l -6.17028,-0.57055 -0.5127,-1.33608 -0.5127,-1.33607 1.38271,-5.92712 1.3827,-5.927118 -0.51126,-1.955073 -0.51127,-1.955073 1.95834,-1.772269 1.95833,-1.772269 8.22636,0.01808 c 4.5245,0.0099 8.47094,0.262659 8.76987,0.561591 l 0.54351,0.54351 -0.5212,0.5212 c -0.28666,0.28666 -3.57714,0.889101 -7.31218,1.338757 l -6.79097,0.817556 -1.35449,1.852373 -1.35449,1.852373 0,2.820688 0,2.820684 4.25,-0.734189 c 2.3375,-0.403807 5.70322,-0.746625 7.47937,-0.761818 l 3.22938,-0.02762 0.0942,0.999997 0.0943,1 -4.82362,1.15654 c -2.65299,0.63609 -6.59249,1.45925 -8.75443,1.82923 l -3.93082,0.6727 1.43082,0.90545 1.43081,0.90546 5.1849,0.0153 5.1849,0.0153 2.5651,0.97525 2.5651,0.97525 0,0.91776 c 0,0.50477 -0.5625,1.09202 -1.25,1.305 z M 309.22,110.51308 c -0.78886,-0.0349 -2.45044,-0.47171 -3.69241,-0.97078 l -2.25812,-0.90739 -1.11879,-2.45548 -1.11879,-2.45548 0.69177,-2.75624 0.69178,-2.756251 3.81749,-3.817495 3.8175,-3.817495 4.91764,0 4.91765,0 1.2,1.2 1.2,1.2 0,3.895708 0,3.895713 -1.72816,2.92553 -1.72815,2.92553 -4.08757,1.97876 c -2.24816,1.08832 -4.73299,1.95024 -5.52184,1.91537 z m 1.18393,-3.93661 c 1.49502,0 3.44666,-0.27953 4.33699,-0.62118 l 1.61877,-0.62118 1.46302,-2.82916 c 0.80465,-1.55604 1.46301,-3.762646 1.46301,-4.903572 l 0,-2.074411 -2.5651,-0.975249 c -1.4108,-0.536387 -3.16321,-0.975249 -3.89424,-0.975249 l -1.32915,0 -3.10575,2.90121 -3.10576,2.90121 0,2.398791 0,2.39879 1.2,1.2 1.2,1.2 z m 102.94522,4 c -0.4502,0 -1.265,-0.5625 -1.81066,-1.25 -0.54567,-0.6875 -1.53567,-2.9375 -2.2,-5 l -1.20787,-3.75 -2.17245,0.006 c -1.19485,0.003 -3.88138,0.48014 -5.97007,1.06015 l -3.79762,1.05458 -0.84821,2.23094 c -0.46651,1.22702 -1.58095,2.83908 -2.47654,3.58235 l -1.62834,1.3514 -0.54586,-0.54586 -0.54587,-0.54586 2.07003,-6.70197 c 1.13852,-3.686113 2.07003,-7.565738 2.07003,-8.621417 l 0,-1.919416 2.36362,-0.898645 2.36361,-0.898645 0.605,-1.576604 0.605,-1.576604 1.78139,0.0037 1.78138,0.0037 3.27511,1.996837 3.27512,1.996837 0.61707,3.085373 0.61708,3.085373 1.3395,0.514013 1.33949,0.514013 -1.02309,1.91166 -1.02309,1.911655 1.63149,3.43811 1.63149,3.43811 -0.6491,1.05027 c -0.35701,0.57773 -1.01745,1.05035 -1.46764,1.05035 z m -10.06343,-12.828611 4,-0.381461 -0.0318,-1.144964 c -0.0175,-0.629731 -0.6296,-1.932465 -1.36025,-2.894965 l -1.32844,-1.75 -1.60457,0 -1.60457,0 -1.03519,1.934259 c -0.56935,1.063842 -1.03518,2.538233 -1.03518,3.276425 l 0,1.342168 z m 145.01342,12.828611 -0.98658,0 -1.51342,-3.62212 c -0.83238,-1.99217 -1.51342,-3.94743 -1.51342,-4.34502 0,-0.39759 -0.82293,-1.46763 -1.82874,-2.37787 l -1.82874,-1.654991 -3.63646,0 -3.63647,0 -3.41681,3.000001 c -1.87924,1.65 -3.6949,3 -4.0348,3 -0.33989,0 -0.61798,-0.45444 -0.61798,-1.00987 0,-0.55543 2.63162,-4.267932 5.84805,-8.250003 3.21642,-3.98207 6.38226,-8.252628 7.03518,-9.490128 l 1.18714,-2.25 1.44576,0 1.44577,0 0.61933,2.75 c 0.34063,1.5125 1.04155,4.4375 1.5576,6.5 l 0.93826,3.75 0.95025,0 0.95026,0 -0.12673,2.25 c -0.0697,1.237501 0.38534,3.516791 1.0112,5.065101 0.62586,1.5483 1.13793,3.6858 1.13793,4.75 l 0,1.9349 z m -10.01342,-15.000001 2,0 0,-1.833333 c 0,-1.008334 -0.2961,-2.129429 -0.65799,-2.491324 l -0.65799,-0.657991 -1.34201,1.113769 c -0.73811,0.612572 -1.34201,1.733668 -1.34201,2.491324 l 0,1.377555 z m -112.94983,13.468991 -0.94982,0.58703 -0.95432,-1.78316 -0.95431,-1.78315 -0.31181,-8.228905 -0.31181,-8.228905 1.02545,-1.025451 1.02545,-1.025451 4.73316,1.424471 4.73316,1.424471 5.45734,4.662352 5.45734,4.662353 0.14806,-6.327323 c 0.0814,-3.480028 0.23981,-7.002323 0.35194,-7.827323 0.11213,-0.825 0.27051,-2.0625 0.35194,-2.75 l 0.14806,-1.25 1.5,0 1.5,0 0.15,12 c 0.0825,6.600001 0.195,12.562501 0.25,13.250001 l 0.1,1.25 -1.5,0 -1.5,0 -0.88464,-2 -0.88463,-2 -4.50512,-3.5 c -2.47782,-1.925001 -5.45473,-4.230511 -6.61537,-5.123357 -1.16063,-0.892846 -3.12274,-1.935671 -4.36024,-2.317388 l -2.25,-0.694031 0,8.008366 0,8.00837 z m 72.06314,-2.03902 -0.8867,0.54801 -1.15216,-1.38828 -1.15217,-1.38827 0.28886,-9.350716 0.28886,-9.350715 1.5,0 1.5,0 0.3245,3.987024 0.32449,3.987024 1.17551,0.747663 1.1755,0.747663 5.37917,0.01531 5.37916,0.01531 -0.66933,-5.916156 -0.66934,-5.916156 1.1067,-0.68398 c 0.60869,-0.376188 1.31717,-0.473511 1.57441,-0.216272 0.25724,0.25724 0.92071,3.339801 1.47438,6.850136 l 1.00668,6.382428 1.45909,1.110243 c 0.80249,0.610639 1.45908,1.398139 1.45908,1.750006 0,0.351866 -0.58464,0.639757 -1.2992,0.639757 l -1.2992,0 0.40861,3.500001 0.4086,3.5 -1.50242,0 -1.50241,0 -0.60699,-1.58179 c -0.33385,-0.86998 -0.60699,-2.62655 -0.60699,-3.90348 l 0,-2.321704 -4.75,-0.346514 c -2.6125,-0.190582 -5.7625,-0.202715 -7,-0.02696 l -2.25,0.319551 0,3.871437 0,3.87143 z m 75.2752,-0.33745 -1.38851,1.15237 0,-4.2622 0,-4.262206 -1.71225,-1.25203 -1.71226,-1.25203 1.25532,-1.512559 1.25531,-1.512559 -0.62053,-2.472395 -0.62053,-2.472394 3.16881,-2.256391 3.16881,-2.256392 4.38907,-0.494712 4.38907,-0.494712 2.51959,1.650897 2.51959,1.650898 0,2.354975 0,2.354975 -2.17183,1.442044 -2.17184,1.442044 3.17184,4.610103 c 1.7445,2.535554 3.17183,4.866524 3.17183,5.179924 0,0.31341 -0.87321,0.56983 -1.94047,0.56983 l -1.94048,0 -4.21606,-5.000001 -4.21606,-5 -1.77151,0 -1.77151,0 -0.68344,5.470081 -0.68344,5.47008 z m 6.7471,-15.422176 c 2.82459,-0.334531 5.34465,-0.817273 5.60014,-1.07276 0.25549,-0.255488 0.1679,-0.944462 -0.19463,-1.531054 l -0.65915,-1.066531 -3.00673,0 -3.00672,0 -1.93426,1.035184 -1.93426,1.035184 0,1.104107 0,1.104107 z m -21.21325,13.877636 -0.78416,0.48464 -0.47573,-0.76974 c -0.26165,-0.42335 -0.61553,-4.81487 -0.78641,-9.75891 l -0.31069,-8.989171 1.58802,-0.305824 1.58802,-0.305825 0.54848,2.097381 0.54848,2.09738 -0.56592,7.482714 -0.56592,7.482715 z m 74.29485,0.45202 -1.97232,0 -1.07954,-1.30077 -1.07954,-1.30076 1.40197,-5.449237 c 0.77109,-2.997079 1.58511,-7.370067 1.80895,-9.717753 0.22383,-2.347685 0.6687,-4.530246 0.98859,-4.850135 l 0.58162,-0.581617 1.17749,0.72773 1.17749,0.727731 -0.59385,5.622405 c -0.32662,3.092323 -0.88397,7.380086 -1.23857,9.528364 l -0.64473,3.905962 1.70014,-0.65241 c 0.93507,-0.35882 4.58079,-1.41999 8.10159,-2.358147 l 6.40146,-1.705747 2.69431,0.952191 2.6943,0.952193 0.39766,1.19783 0.39766,1.19783 -3.49419,-0.56703 -3.49418,-0.56703 -6.977,2.1192 c -3.83735,1.16556 -7.86454,2.1192 -8.94931,2.1192 z m 37.28279,-0.6476 -3,0.59328 -3.25,-1.42456 -3.25,-1.42457 0,-3.350931 0,-3.350927 4.1558,-4.197347 4.1558,-4.197346 3.78844,0 3.78843,0 2.47495,2.25 2.47495,2.25 0.59833,2.092872 0.59833,2.092872 -2.10581,2.677107 c -1.1582,1.47241 -3.30358,3.28892 -4.76752,4.03669 -1.46393,0.74777 -4.0117,1.62656 -5.6617,1.95286 z m -0.58333,-3.35737 3.58333,-0.005 2.96604,-2.373163 2.96604,-2.373164 -1.17007,-2.56803 -1.17007,-2.568029 -3.49758,0.223751 -3.49758,0.223751 -2.54839,2.215797 -2.54839,2.215796 0,1.839947 c 0,1.011971 0.3,2.139944 0.66667,2.506614 0.36666,0.36667 2.27916,0.66443 4.25,0.6617 z m 38.2386,4.00497 c -0.39968,0 -1.44563,-0.71893 -2.32432,-1.59762 l -1.59762,-1.59762 -2.05092,1.09762 -2.05093,1.09762 -3.01869,0 -3.01868,0 -2.43679,-1.11027 -2.43678,-1.11027 -1.00625,-2.20848 -1.00624,-2.208475 0.5401,-2.825382 0.54011,-2.825382 3.83282,-3.83282 3.83282,-3.832819 3.55597,-1.485782 3.55598,-1.485782 2.36994,0.901047 c 1.30346,0.495576 2.68943,1.418015 3.07994,2.049863 l 0.71001,1.148816 -1.07049,1.070486 -1.07049,1.070486 -1.52939,-1.269286 -1.5294,-1.269286 -2.33258,0.585441 -2.33258,0.58544 -3.6804,3.574365 -3.68041,3.574364 0,2.395159 0,2.395158 2.22251,1.556699 2.2225,1.55671 1.82716,0 c 1.00493,0 3.1548,-0.68656 4.77749,-1.52568 1.62269,-0.839125 2.95034,-1.887365 2.95034,-2.329423 l 0,-0.803742 -5.00391,-0.11398 c -2.75216,-0.06269 -5.45216,-0.391007 -6,-0.729595 -0.54785,-0.338588 -0.99609,-1.228865 -0.99609,-1.978392 l 0,-1.362777 8.25,0.339225 8.25,0.339225 -0.35622,5.332569 c -0.19592,2.93291 -0.55998,5.67007 -0.80901,6.08257 -0.24904,0.4125 -0.77982,0.75 -1.1795,0.75 z m 51.84473,-1.72936 -5.5,0.53849 -3.93808,-0.77772 -3.93807,-0.77772 -1.81193,-2.23763 c -0.99655,-1.230695 -1.81192,-2.87723 -1.81192,-3.658964 0,-0.781734 0.62134,-2.869381 1.38076,-4.639216 l 1.38076,-3.217881 3.36924,-3.135011 3.36924,-3.135011 3.7006,-1.298013 3.7006,-1.298014 2.5494,1.161586 2.5494,1.161585 0,2.021439 0,2.021439 -1.5,0 -1.5,0 0,-1 0,-1 -2.92327,0 -2.92328,0 -3.32672,2.733909 c -1.8297,1.503651 -3.66821,3.191151 -4.08557,3.75 -0.41736,0.55885 -1.03892,2.069532 -1.38124,3.357071 l -0.6224,2.340979 1.98298,1.982986 1.98299,1.982986 6.50245,0.0375 c 3.57636,0.0206 7.91807,-0.27341 9.64826,-0.65342 l 3.1458,-0.690932 0,1.104212 0,1.1042 -2.25,0.84133 c -1.2375,0.46272 -4.725,1.08364 -7.75,1.37981 z m -31.46741,-1.27064 -1.59536,0 -0.60015,-1.56398 -0.60016,-1.56398 0.66053,-6.447177 c 0.3633,-3.545948 1.11421,-7.640435 1.6687,-9.09886 l 1.00817,-2.651683 1.08741,1.087414 1.08742,1.087414 -0.8296,6.825425 c -0.45627,3.753984 -0.70855,8.062926 -0.5606,9.575426 l 0.26899,2.750001 z"
       id="path2998"
       style="fill:#000000" />
  </g>
</svg>
