<?xml version="1.0" encoding="UTF-8" standalone="no"?>
<svg xmlns:dc="http://purl.org/dc/elements/1.1/" xmlns:cc="http://web.resource.org/cc/" xmlns:rdf="http://www.w3.org/1999/02/22-rdf-syntax-ns#" xmlns:svg="http://www.w3.org/2000/svg" xmlns="http://www.w3.org/2000/svg" viewBox="0 0 618 125" version="1.0">
  <defs>
    <style type="text/css"><![CDATA[
      rect
      {
        fill-opacity: 1;
        stroke:#000000;
        stroke-width: 1;
        stroke-linejoin:bevel;
        stroke-miterlimit:4;
        stroke-dasharray: none;
        stroke-opacity: 1;
      }
      .sign
      {
        fill:#d5ffff;
      }
      .exponent
      {
        fill:#a4ffb4;
      }
      .fraction
      {
        fill:#ffb2b4;
      }
      text
      {
        font-size:14px;
        font-style:normal;
        font-weight:normal;
        fill:#000000;
        fill-opacity:1;
        stroke:none;
        font-family:sans
      }
      #bits text
      {
        text-align:center;
        text-anchor:middle;
      }
      path
      {
        fill:none;
        stroke:#000000;
        stroke-width:1;
        stroke-linecap:butt;
        stroke-linejoin:miter;
        stroke-opacity:1;
      }
      .marker
      {
        fill:#000000;
        fill-opacity:0.25;
        stroke-linejoin:bevel;
        stroke-miterlimit:4;
        stroke-dasharray:none;
      }
    ]]></style>
  </defs>
  <metadata>
    <rdf:RDF>
      <cc:Work rdf:about="">
        <dc:format>image/svg+xml</dc:format>
        <dc:type rdf:resource="http://purl.org/dc/dcmitype/StillImage"/>
      </cc:Work>
    </rdf:RDF>
  </metadata>
  <rect width="16" height="27" x="18.5" y="53.5" class="sign"/>
  <rect width="16" height="27" x="34.5" y="53.5" class="exponent"/>
  <rect width="16" height="27" x="50.5" y="53.5" class="exponent"/>
  <rect width="16" height="27" x="66.5" y="53.5" class="exponent"/>
  <rect width="16" height="27" x="82.5" y="53.5" class="exponent"/>
  <rect width="16" height="27" x="98.5" y="53.5" class="exponent"/>
  <rect width="16" height="27" x="114.5" y="53.5" class="exponent"/>
  <rect width="16" height="27" x="130.5" y="53.5" class="exponent"/>
  <rect width="16" height="27" x="146.5" y="53.5" class="exponent"/>
  <rect width="16" height="27" x="162.5" y="53.5" class="fraction"/>
  <rect width="16" height="27" x="178.5" y="53.5" class="fraction"/>
  <rect width="16" height="27" x="194.5" y="53.5" class="fraction"/>
  <rect width="16" height="27" x="210.5" y="53.5" class="fraction"/>
  <rect width="16" height="27" x="226.5" y="53.5" class="fraction"/>
  <rect width="16" height="27" x="242.5" y="53.5" class="fraction"/>
  <rect width="16" height="27" x="258.5" y="53.5" class="fraction"/>
  <rect width="16" height="27" x="274.5" y="53.5" class="fraction"/>
  <rect width="16" height="27" x="290.5" y="53.5" class="fraction"/>
  <rect width="16" height="27" x="306.5" y="53.5" class="fraction"/>
  <rect width="16" height="27" x="322.5" y="53.5" class="fraction"/>
  <rect width="16" height="27" x="338.5" y="53.5" class="fraction"/>
  <rect width="16" height="27" x="354.5" y="53.5" class="fraction"/>
  <rect width="16" height="27" x="370.5" y="53.5" class="fraction"/>
  <rect width="16" height="27" x="386.5" y="53.5" class="fraction"/>
  <rect width="16" height="27" x="402.5" y="53.5" class="fraction"/>
  <rect width="16" height="27" x="418.5" y="53.5" class="fraction"/>
  <rect width="16" height="27" x="434.5" y="53.5" class="fraction"/>
  <rect width="16" height="27" x="450.5" y="53.5" class="fraction"/>
  <rect width="16" height="27" x="466.5" y="53.5" class="fraction"/>
  <rect width="16" height="27" x="482.5" y="53.5" class="fraction"/>
  <rect width="16" height="27" x="498.5" y="53.5" class="fraction"/>
  <rect width="16" height="27" x="514.5" y="53.5" class="fraction"/>
  <path d="M 26.5,35.986325 L 26.5,46.013676"/>
  <path d="M 35.474715,38.986325 L 35.474715,49.013676"/>
  <path d="M 161.58601,38.986325 L 161.58601,49.013676"/>
  <path d="M 35.010803,39 L 162.30696,39"/>
  <g transform="matrix(0.7861306,0,0,1,60.907913,-2.5)">
    <path d="M 131.42323,41.486325 L 131.42323,51.513676"/>
    <path d="M 131,41.5 L 597.55635,41.5"/>
    <path d="M 597.46672,41.486325 L 597.46672,51.513676"/>
  </g>
  <text x="48.949455" y="29.348551">exponent</text>
  <text x="112.97407" y="29.227295">(8-bit)</text>
  <text x="13.918457" y="29.343887">sign</text>
  <text x="289.72983" y="29.752003">fraction</text>
  <text x="346.30746" y="29.429672">(23-bit)</text>
  <path class="marker" d="M 31.819805 91.589203 A 3.7123106 3.7123106 0 1 1  24.395184,91.589203 A 3.7123106 3.7123106 0 1 1  31.819805 91.589203 z" transform="translate(-1.6074944,-0.8015134)"/>
  <text x="18.765137" y="110.82227">31</text>
  <text x="146.16" y="110.8291">23</text>
  <path class="marker" d="M 31.819805 91.589203 A 3.7123106 3.7123106 0 1 1  24.395184,91.589203 A 3.7123106 3.7123106 0 1 1  31.819805 91.589203 z" transform="translate(126.19163,-0.8015134)"/>
  <path class="marker" d="M 31.819805 91.589203 A 3.7123106 3.7123106 0 1 1  24.395184,91.589203 A 3.7123106 3.7123106 0 1 1  31.819805 91.589203 z" transform="translate(494.39251,-0.8015134)"/>
  <text x="518.11548" y="110.50431">0</text>
  <g id="bits">
    <text x="26.31543" y="71.829102">0</text>
    <text y="71.829102" x="42.31543">0</text>
    <text x="58.31543" y="71.829102">1</text>
    <text y="71.829102" x="74.31543">1</text>
    <text x="90.31543" y="71.829102">1</text>
    <text y="71.829102" x="106.31543">1</text>
    <text x="122.31543" y="71.829102">1</text>
    <text y="71.829102" x="138.31543">0</text>
    <text x="154.31543" y="71.829102">0</text>
    <text y="71.829102" x="170.31543">0</text>
    <text x="186.31543" y="71.829102">1</text>
    <text y="71.829102" x="202.31543">0</text>
    <text x="218.31543" y="71.829102">0</text>
    <text y="71.829102" x="234.31543">0</text>
    <text x="250.31543" y="71.829102">0</text>
    <text y="71.829102" x="266.31543">0</text>
    <text x="282.31543" y="71.829102">0</text>
    <text y="71.829102" x="298.31543">0</text>
    <text x="314.31543" y="71.829102">0</text>
    <text y="71.829102" x="330.31543">0</text>
    <text x="346.31543" y="71.829102">0</text>
    <text y="71.829102" x="362.31543">0</text>
    <text x="378.31543" y="71.829102">0</text>
    <text y="71.829102" x="394.31543">0</text>
    <text x="410.31543" y="71.829102">0</text>
    <text y="71.829102" x="426.31543">0</text>
    <text x="442.31543" y="71.829102">0</text>
    <text y="71.829102" x="458.31543">0</text>
    <text x="474.31543" y="71.829102">0</text>
    <text y="71.829102" x="490.31543">0</text>
    <text x="506.31543" y="71.829102">0</text>
    <text y="71.829102" x="522.31543">0</text>
  </g>
  <text x="539.29309" y="71.817123">=0.15625</text>
</svg>
