<?xml version="1.0" encoding="UTF-8" standalone="no"?>
<!-- Created with Inkscape (http://www.inkscape.org/) -->
<svg xmlns:svg="http://www.w3.org/2000/svg" xmlns="http://www.w3.org/2000/svg" version="1.0" viewBox="0 0 220 155" id="svg2">
  <defs id="defs4"/>
  <g transform="translate(-6.7050407,-8.9460214)" id="layer1">
    <flowRoot id="flowRoot2383" xml:space="preserve" style="font-size:10px;font-style:normal;font-variant:normal;font-weight:normal;font-stretch:normal;text-align:start;line-height:150%;writing-mode:lr-tb;text-anchor:start;fill:#000000;fill-opacity:1;stroke:none;stroke-width:1px;stroke-linecap:butt;stroke-linejoin:miter;stroke-opacity:1;font-family:DejaVu Sans Mono;-inkscape-font-specification:DejaVu Sans Mono"><flowRegion id="flowRegion2385"><rect width="7.8417344" height="426.06757" x="0" y="-423.47787" id="rect2387" style="font-size:10px;font-style:normal;font-variant:normal;font-weight:normal;font-stretch:normal;text-align:start;line-height:150%;writing-mode:lr-tb;text-anchor:start;font-family:DejaVu Sans Mono;-inkscape-font-specification:DejaVu Sans Mono"/></flowRegion><flowPara id="flowPara2389"/></flowRoot>    <path d="M 32.436523,10.000746 C 32.436521,9.8217137 32.499184,9.6670915 32.624512,9.5368791 C 32.749835,9.4066751 32.900388,9.3415709 33.076172,9.3415666 C 33.25846,9.3415709 33.41471,9.4066751 33.544922,9.5368791 C 33.675127,9.6670915 33.740231,9.8217137 33.740234,10.000746 C 33.740231,10.183041 33.67594,10.337664 33.547363,10.464614 C 33.418779,10.59157 33.261716,10.655046 33.076172,10.655043 C 32.893877,10.655046 32.741697,10.593197 32.619629,10.469496 C 32.497556,10.345802 32.436521,10.189552 32.436523,10.000746 L 32.436523,10.000746 z M 33.085938,7.0222307 C 32.626951,7.0222373 32.28434,7.2696329 32.058105,7.7644182 C 31.831867,8.2592153 31.718748,9.0127952 31.71875,10.02516 C 31.718748,11.034278 31.831867,11.78623 32.058105,12.28102 C 32.28434,12.775812 32.626951,13.023208 33.085938,13.023207 C 33.548174,13.023208 33.892412,12.775812 34.118652,12.28102 C 34.344885,11.78623 34.458003,11.034278 34.458008,10.02516 C 34.458003,9.0127952 34.344885,8.2592153 34.118652,7.7644182 C 33.892412,7.2696329 33.548174,7.0222373 33.085938,7.0222307 L 33.085938,7.0222307 z M 33.085938,6.2409807 C 33.863929,6.2409881 34.452307,6.5599982 34.851074,7.1980119 C 35.249832,7.8360386 35.449213,8.7784205 35.449219,10.02516 C 35.449213,11.268652 35.249832,12.209407 34.851074,12.847426 C 34.452307,13.485447 33.863929,13.804457 33.085938,13.804457 C 32.30794,13.804457 31.720376,13.485447 31.323242,12.847426 C 30.926106,12.209407 30.727538,11.268652 30.727539,10.02516 C 30.727538,8.7784205 30.926106,7.8360386 31.323242,7.1980119 C 31.720376,6.5599982 32.30794,6.2409881 33.085938,6.2409807 L 33.085938,6.2409807 z M 43.427734,12.832778 L 44.960938,12.832778 L 44.960938,7.2614885 L 43.310547,7.6325823 L 43.310547,6.7341448 L 44.951172,6.3728166 L 45.9375,6.3728166 L 45.9375,12.832778 L 47.451172,12.832778 L 47.451172,13.662856 L 43.427734,13.662856 L 43.427734,12.832778 z M 55.961914,12.832778 L 59.311523,12.832778 L 59.311523,13.662856 L 54.882812,13.662856 L 54.882812,12.832778 C 55.491535,12.191503 56.023761,11.625097 56.479492,11.133559 C 56.935219,10.642025 57.249346,10.295346 57.421875,10.09352 C 57.747392,9.6963883 57.967119,9.3749368 58.081055,9.1291643 C 58.194983,8.8834008 58.251949,8.6319362 58.251953,8.3747698 C 58.251949,7.9678744 58.13232,7.6488643 57.893066,7.4177385 C 57.653805,7.1866252 57.325843,7.0710654 56.90918,7.0710588 C 56.612953,7.0710654 56.302081,7.1247763 55.976562,7.2321916 C 55.65104,7.3396198 55.305988,7.5023801 54.941406,7.7204729 L 54.941406,6.7243791 C 55.276692,6.564881 55.606281,6.4444384 55.930176,6.363051 C 56.254067,6.2816782 56.573891,6.2409881 56.889648,6.2409807 C 57.602536,6.2409881 58.176265,6.4306038 58.61084,6.8098283 C 59.045405,7.1890666 59.26269,7.6862992 59.262695,8.3015276 C 59.26269,8.6140326 59.190262,8.9265323 59.04541,9.2390276 C 58.900549,9.5515317 58.66536,9.8965834 58.339844,10.274184 C 58.157548,10.485776 57.893063,10.778744 57.546387,11.15309 C 57.199704,11.527441 56.671547,12.087336 55.961914,12.832778 L 55.961914,12.832778 z M 69.960938,9.7614885 C 70.439449,9.8884454 70.805659,10.113868 71.05957,10.437758 C 71.313471,10.761654 71.440424,11.166113 71.44043,11.651137 C 71.440424,12.321711 71.215001,12.848241 70.76416,13.230727 C 70.31331,13.613214 69.689124,13.804457 68.891602,13.804457 C 68.556313,13.804457 68.214516,13.773533 67.866211,13.711684 C 67.517902,13.649835 67.176106,13.560317 66.84082,13.443129 L 66.84082,12.461684 C 67.172851,12.634211 67.499999,12.762791 67.822266,12.847426 C 68.144529,12.932062 68.465167,12.97438 68.78418,12.974379 C 69.324541,12.97438 69.73958,12.85231 70.029297,12.608168 C 70.319006,12.364029 70.463863,12.012467 70.463867,11.553481 C 70.463863,11.130306 70.319006,10.794206 70.029297,10.54518 C 69.73958,10.29616 69.347328,10.171648 68.852539,10.171645 L 68.100586,10.171645 L 68.100586,9.3610979 L 68.852539,9.3610979 C 69.30501,9.3611022 69.6582,9.2618184 69.912109,9.0632463 C 70.166012,8.8646834 70.292965,8.587991 70.292969,8.2331682 C 70.292965,7.858825 70.174963,7.5715532 69.938965,7.3713518 C 69.702959,7.171163 69.366859,7.0710654 68.930664,7.0710588 C 68.640948,7.0710654 68.341469,7.1036175 68.032227,7.1687151 C 67.72298,7.2338257 67.399087,7.3314818 67.060547,7.4616838 L 67.060547,6.5534807 C 67.454426,6.4493212 67.805174,6.3711963 68.112793,6.3191057 C 68.420408,6.2670298 68.693031,6.2409881 68.930664,6.2409807 C 69.640296,6.2409881 70.207515,6.4192106 70.632324,6.7756487 C 71.057124,7.1321005 71.269526,7.604919 71.269531,8.1941057 C 71.269526,8.5945014 71.158035,8.9281599 70.935059,9.1950823 C 70.712072,9.4620135 70.387366,9.6508154 69.960938,9.7614885 L 69.960938,9.7614885 z M 81.791992,7.2712541 L 79.492188,11.123793 L 81.791992,11.123793 L 81.791992,7.2712541 z M 81.630859,6.3728166 L 82.773438,6.3728166 L 82.773438,11.123793 L 83.745117,11.123793 L 83.745117,11.924574 L 82.773438,11.924574 L 82.773438,13.662856 L 81.791992,13.662856 L 81.791992,11.924574 L 78.701172,11.924574 L 78.701172,10.991957 L 81.630859,6.3728166 z M 91.245117,6.3728166 L 94.936523,6.3728166 L 94.936523,7.2028948 L 92.143555,7.2028948 L 92.143555,8.9948869 C 92.283527,8.9428083 92.424314,8.9045597 92.565918,8.8801408 C 92.707517,8.8557316 92.849932,8.8435246 92.993164,8.8435198 C 93.748369,8.8435246 94.347327,9.0665061 94.790039,9.5124651 C 95.232742,9.9584323 95.454096,10.562273 95.454102,11.323989 C 95.454096,12.092219 95.222163,12.697687 94.758301,13.140395 C 94.29443,13.583103 93.660478,13.804457 92.856445,13.804457 C 92.469073,13.804457 92.11507,13.778415 91.794434,13.726332 C 91.473794,13.674249 91.186522,13.596124 90.932617,13.491957 L 90.932617,12.490981 C 91.232095,12.653742 91.533202,12.774999 91.835938,12.85475 C 92.13867,12.934504 92.447914,12.97438 92.763672,12.974379 C 93.307289,12.97438 93.726396,12.831151 94.020996,12.544692 C 94.315588,12.258235 94.462886,11.851334 94.462891,11.323989 C 94.462886,10.803158 94.310706,10.397885 94.006348,10.108168 C 93.701982,9.8184585 93.277992,9.6736019 92.734375,9.6735979 C 92.470701,9.6736019 92.21354,9.7037125 91.962891,9.7639299 C 91.712238,9.8241551 91.472981,9.914487 91.245117,10.034926 L 91.245117,6.3728166 z M 107.10449,6.5339494 L 107.10449,7.4421526 C 106.89941,7.3217162 106.68131,7.2297567 106.4502,7.1662737 C 106.21907,7.1028037 105.97819,7.0710654 105.72754,7.0710588 C 105.10254,7.0710654 104.6289,7.306254 104.30664,7.7766252 C 103.98437,8.2470082 103.82324,8.9395531 103.82324,9.8542619 C 103.97949,9.5287452 104.19596,9.2789083 104.47266,9.1047502 C 104.74935,8.9306013 105.06673,8.8435246 105.4248,8.8435198 C 106.12793,8.8435246 106.67236,9.0591819 107.05811,9.4904924 C 107.44384,9.9218113 107.63671,10.532976 107.63672,11.323989 C 107.63671,12.11175 107.43815,12.722101 107.04102,13.155043 C 106.64388,13.587986 106.08561,13.804457 105.36621,13.804457 C 104.51985,13.804457 103.89974,13.500909 103.50586,12.893813 C 103.11198,12.286718 102.91504,11.330501 102.91504,10.02516 C 102.91504,8.7946965 103.15185,7.8563836 103.62549,7.210219 C 104.09912,6.5640672 104.78515,6.2409881 105.68359,6.2409807 C 105.92448,6.2409881 106.16536,6.266216 106.40625,6.3166643 C 106.64713,6.3671273 106.87988,6.4395556 107.10449,6.5339494 L 107.10449,6.5339494 z M 105.34668,9.6150041 C 104.92676,9.6150082 104.59635,9.7663752 104.35547,10.069106 C 104.11458,10.371843 103.99414,10.790137 103.99414,11.323989 C 103.99414,11.857844 104.11458,12.276138 104.35547,12.578871 C 104.59635,12.881606 104.92676,13.032974 105.34668,13.032973 C 105.78287,13.032974 106.11165,12.888931 106.33301,12.600844 C 106.55436,12.312759 106.66503,11.887141 106.66504,11.323989 C 106.66503,10.757585 106.55436,10.331153 106.33301,10.044692 C 106.11165,9.7582372 105.78287,9.6150082 105.34668,9.6150041 L 105.34668,9.6150041 z M 114.97559,6.3728166 L 119.56543,6.3728166 L 119.56543,6.7927385 L 116.95801,13.662856 L 115.92773,13.662856 L 118.4668,7.2028948 L 114.97559,7.2028948 L 114.97559,6.3728166 z M 129.33594,10.200942 C 128.89648,10.200945 128.55713,10.323829 128.31787,10.569594 C 128.07861,10.815365 127.95898,11.162858 127.95898,11.612074 C 127.95898,12.061295 128.08024,12.410416 128.32275,12.659438 C 128.56526,12.908462 128.90299,13.032974 129.33594,13.032973 C 129.77864,13.032974 130.11963,12.91009 130.35889,12.664321 C 130.59814,12.418554 130.71777,12.067805 130.71777,11.612074 C 130.71777,11.166113 130.59651,10.819434 130.354,10.572035 C 130.11149,10.324643 129.77213,10.200945 129.33594,10.200942 L 129.33594,10.200942 z M 128.47656,9.7907854 C 128.05664,9.6833675 127.72868,9.4831724 127.49268,9.1901994 C 127.25667,8.8972355 127.13867,8.5440457 127.13867,8.1306291 C 127.13867,7.5512082 127.33561,7.0914104 127.72949,6.7512346 C 128.12337,6.4110726 128.65885,6.2409881 129.33594,6.2409807 C 130.01627,6.2409881 130.55338,6.4110726 130.94727,6.7512346 C 131.34114,7.0914104 131.53808,7.5512082 131.53809,8.1306291 C 131.53808,8.5440457 131.42008,8.8972355 131.18408,9.1901994 C 130.94807,9.4831724 130.62011,9.6833675 130.2002,9.7907854 C 130.68847,9.898211 131.06201,10.114682 131.3208,10.440199 C 131.57958,10.765723 131.70898,11.187272 131.70898,11.704848 C 131.70898,12.362401 131.49902,12.876724 131.0791,13.247817 C 130.65918,13.61891 130.07812,13.804457 129.33594,13.804457 C 128.59375,13.804457 128.01351,13.619724 127.59521,13.250258 C 127.17692,12.880793 126.96777,12.368912 126.96777,11.714614 C 126.96777,11.193783 127.09717,10.769792 127.35596,10.442641 C 127.61474,10.115496 127.98828,9.898211 128.47656,9.7907854 L 128.47656,9.7907854 z M 128.12012,8.2234026 C 128.12012,8.6140326 128.22428,8.9118839 128.43262,9.1169573 C 128.64095,9.3220397 128.94205,9.4245787 129.33594,9.4245744 C 129.73307,9.4245787 130.0358,9.3220397 130.24414,9.1169573 C 130.45247,8.9118839 130.55664,8.6140326 130.55664,8.2234026 C 130.55664,7.826273 130.45328,7.5235389 130.24658,7.3151994 C 130.03987,7.1068727 129.73632,7.0027061 129.33594,7.0026994 C 128.94205,7.0027061 128.64095,7.1076865 128.43262,7.3176408 C 128.22428,7.5276079 128.12012,7.8295282 128.12012,8.2234026 L 128.12012,8.2234026 z M 141.26953,10.430434 C 141.68945,10.430437 142.01904,10.27907 142.2583,9.9763323 C 142.49755,9.6736019 142.61718,9.255308 142.61719,8.7214494 C 142.61718,8.1876007 142.49755,7.7693069 142.2583,7.4665666 C 142.01904,7.1638388 141.68945,7.0124717 141.26953,7.0124651 C 140.83333,7.0124717 140.50456,7.1565145 140.2832,7.444594 C 140.06185,7.7326858 139.95117,8.1583039 139.95117,8.7214494 C 139.95117,9.2878601 140.06103,9.7142919 140.28076,10.000746 C 140.50049,10.287208 140.83008,10.430437 141.26953,10.430434 L 141.26953,10.430434 z M 139.51172,13.511489 L 139.51172,12.603285 C 139.7168,12.723729 139.93489,12.815689 140.16602,12.879164 C 140.39713,12.942642 140.63802,12.97438 140.88867,12.974379 C 141.51367,12.97438 141.98649,12.739191 142.30713,12.268813 C 142.62776,11.798437 142.78808,11.105892 142.78809,10.191176 C 142.63509,10.5167 142.42024,10.766537 142.14355,10.940688 C 141.86686,11.114844 141.54948,11.201921 141.19141,11.201918 C 140.48828,11.201921 139.94385,10.98545 139.55811,10.552504 C 139.17236,10.119565 138.97949,9.5059588 138.97949,8.7116838 C 138.97949,7.9271843 139.17725,7.3192748 139.57275,6.8879533 C 139.96826,6.4566454 140.52734,6.2409881 141.25,6.2409807 C 142.09635,6.2409881 142.71647,6.5453498 143.11035,7.1540666 C 143.50423,7.7627965 143.70117,8.7198268 143.70117,10.02516 C 143.70117,11.252376 143.46435,12.189062 142.99072,12.835219 C 142.51709,13.481378 141.82942,13.804457 140.92773,13.804457 C 140.6901,13.804457 140.45084,13.779229 140.20996,13.728774 C 139.96907,13.678318 139.73633,13.60589 139.51172,13.511489 L 139.51172,13.511489 z M 153.39844,7.2419573 L 152.3584,10.972426 L 154.43848,10.972426 L 153.39844,7.2419573 z M 152.80273,6.3728166 L 153.99902,6.3728166 L 156.23047,13.662856 L 155.20996,13.662856 L 154.67285,11.763442 L 152.11914,11.763442 L 151.5918,13.662856 L 150.57129,13.662856 L 152.80273,6.3728166 z M 164.22363,10.18141 L 164.22363,12.852309 L 165.39062,12.852309 C 165.96354,12.85231 166.37207,12.752212 166.61621,12.552016 C 166.86035,12.351822 166.98242,12.022232 166.98242,11.563246 C 166.98242,11.087988 166.85384,10.738868 166.59668,10.515883 C 166.33951,10.292905 165.9375,10.181414 165.39062,10.18141 L 164.22363,10.18141 z M 164.22363,7.1833635 L 164.22363,9.3806291 L 165.37109,9.3806291 C 165.84635,9.3806334 166.19059,9.2894877 166.40381,9.1071916 C 166.61702,8.9249047 166.72363,8.6303086 166.72363,8.2234026 C 166.72363,7.8555698 166.61865,7.5902706 166.40869,7.4275041 C 166.19873,7.2647501 165.85286,7.18337 165.37109,7.1833635 L 164.22363,7.1833635 z M 163.23242,6.3728166 L 165.39062,6.3728166 C 166.13606,6.3728239 166.71061,6.5339566 167.11426,6.8562151 C 167.5179,7.1784872 167.71972,7.6342159 167.71973,8.2234026 C 167.71972,8.6693711 167.61311,9.0209332 167.3999,9.2780901 C 167.18668,9.5352557 166.86686,9.6963883 166.44043,9.7614885 C 166.91894,9.8331069 167.2941,10.037371 167.56592,10.374281 C 167.83772,10.711198 167.97363,11.140072 167.97363,11.660903 C 167.97363,12.321711 167.75716,12.820571 167.32422,13.157485 C 166.89127,13.494399 166.24674,13.662856 165.39062,13.662856 L 163.23242,13.662856 L 163.23242,6.3728166 z M 179.69238,13.404067 C 179.44173,13.53753 179.18457,13.637628 178.9209,13.70436 C 178.65722,13.771091 178.37727,13.804457 178.08105,13.804457 C 177.14681,13.804457 176.42171,13.474054 175.90576,12.813246 C 175.38981,12.152441 175.13184,11.223079 175.13184,10.02516 C 175.13184,8.833759 175.39144,7.9052117 175.91064,7.2395158 C 176.42985,6.5738328 177.15332,6.2409881 178.08105,6.2409807 C 178.37727,6.2409881 178.65722,6.274354 178.9209,6.3410783 C 179.18457,6.4078174 179.44173,6.5079149 179.69238,6.6413713 L 179.69238,7.6521135 C 179.45149,7.453552 179.1927,7.302185 178.91602,7.1980119 C 178.63932,7.0938518 178.361,7.0417686 178.08105,7.0417619 C 177.43978,7.0417686 176.95963,7.2891641 176.64062,7.7839494 C 176.32161,8.2787465 176.16211,9.0258161 176.16211,10.02516 C 176.16211,11.021257 176.32161,11.766699 176.64062,12.261489 C 176.95963,12.756281 177.43978,13.003677 178.08105,13.003676 C 178.36751,13.003677 178.64827,12.951593 178.92334,12.847426 C 179.1984,12.74326 179.45475,12.591893 179.69238,12.393324 L 179.69238,13.404067 z M 188.61328,12.852309 C 189.44336,12.85231 190.02278,12.648046 190.35156,12.239516 C 190.68033,11.830989 190.84472,11.092871 190.84473,10.02516 C 190.84472,8.9476911 190.68115,8.2046906 190.354,7.7961565 C 190.02685,7.3876341 189.44661,7.18337 188.61328,7.1833635 L 188.14453,7.1833635 L 188.14453,12.852309 L 188.61328,12.852309 z M 188.63281,6.3728166 C 189.74609,6.3728239 190.5664,6.6690476 191.09375,7.2614885 C 191.62109,7.8539422 191.88476,8.7751653 191.88477,10.02516 C 191.88476,11.268652 191.62109,12.185806 191.09375,12.776625 C 190.5664,13.367446 189.74609,13.662856 188.63281,13.662856 L 187.15332,13.662856 L 187.15332,6.3728166 L 188.63281,6.3728166 z M 199.47754,6.3728166 L 203.80371,6.3728166 L 203.80371,7.2028948 L 200.46387,7.2028948 L 200.46387,9.3610979 L 203.65723,9.3610979 L 203.65723,10.191176 L 200.46387,10.191176 L 200.46387,12.832778 L 203.89648,12.832778 L 203.89648,13.662856 L 199.47754,13.662856 L 199.47754,6.3728166 z M 211.68457,6.3728166 L 215.97656,6.3728166 L 215.97656,7.2028948 L 212.67578,7.2028948 L 212.67578,9.3513323 L 215.66895,9.3513323 L 215.66895,10.18141 L 212.67578,10.18141 L 212.67578,13.662856 L 211.68457,13.662856 L 211.68457,6.3728166 z M 1.8212891,30.332778 L 5.1708984,30.332778 L 5.1708984,31.162856 L 0.7421875,31.162856 L 0.7421875,30.332778 C 1.3509101,29.691503 1.8831361,29.125097 2.3388672,28.633559 C 2.7945936,28.142025 3.1087208,27.795346 3.28125,27.59352 C 3.6067672,27.196388 3.8264936,26.874937 3.9404297,26.629164 C 4.0543579,26.383401 4.111324,26.131936 4.1113281,25.87477 C 4.111324,25.467874 3.9916952,25.148864 3.7524414,24.917739 C 3.5131801,24.686625 3.1852182,24.571065 2.7685547,24.571059 C 2.4723283,24.571065 2.1614562,24.624776 1.8359375,24.732192 C 1.5104152,24.83962 1.1653634,25.00238 0.80078125,25.220473 L 0.80078125,24.224379 C 1.1360666,24.064881 1.4656561,23.944438 1.7895508,23.863051 C 2.1134419,23.781678 2.4332658,23.740988 2.7490234,23.740981 C 3.4619106,23.740988 4.0356405,23.930604 4.4702148,24.309828 C 4.9047803,24.689067 5.1220652,25.186299 5.1220703,25.801528 C 5.1220652,26.114033 5.0496369,26.426532 4.9047852,26.739028 C 4.7599236,27.051532 4.5247351,27.396583 4.1992188,27.774184 C 4.0169231,27.985776 3.7524377,28.278744 3.4057617,28.65309 C 3.059079,29.027441 2.5309219,29.587336 1.8212891,30.332778 L 1.8212891,30.332778 z M 7.0263672,23.872817 L 10.717773,23.872817 L 10.717773,24.702895 L 7.9248047,24.702895 L 7.9248047,26.494887 C 8.0647766,26.442808 8.2055642,26.40456 8.347168,26.380141 C 8.4887671,26.355732 8.6311823,26.343525 8.7744141,26.34352 C 9.5296189,26.343525 10.128577,26.566506 10.571289,27.012465 C 11.013992,27.458432 11.235346,28.062273 11.235352,28.823989 C 11.235346,29.592219 11.003413,30.197687 10.539551,30.640395 C 10.07568,31.083103 9.4417283,31.304457 8.6376953,31.304457 C 8.2503233,31.304457 7.8963197,31.278415 7.5756836,31.226332 C 7.2550443,31.174249 6.9677725,31.096124 6.7138672,30.991957 L 6.7138672,29.990981 C 7.0133454,30.153742 7.3144518,30.274999 7.6171875,30.35475 C 7.91992,30.434504 8.2291645,30.47438 8.5449219,30.474379 C 9.0885386,30.47438 9.5076462,30.331151 9.8022461,30.044692 C 10.096838,29.758235 10.244136,29.351334 10.244141,28.823989 C 10.244136,28.303158 10.091956,27.897885 9.7875977,27.608168 C 9.4832322,27.318458 9.0592417,27.173602 8.515625,27.173598 C 8.2519509,27.173602 7.9947897,27.203713 7.7441406,27.26393 C 7.4934881,27.324155 7.2542305,27.414487 7.0263672,27.534926 L 7.0263672,23.872817 z M 14.389648,27.500746 C 14.389646,27.321714 14.452309,27.167091 14.577637,27.036879 C 14.70296,26.906675 14.853513,26.841571 15.029297,26.841567 C 15.211585,26.841571 15.367835,26.906675 15.498047,27.036879 C 15.628252,27.167091 15.693356,27.321714 15.693359,27.500746 C 15.693356,27.683041 15.629065,27.837664 15.500488,27.964614 C 15.371904,28.09157 15.214841,28.155046 15.029297,28.155043 C 14.847002,28.155046 14.694822,28.093197 14.572754,27.969496 C 14.450681,27.845802 14.389646,27.689552 14.389648,27.500746 L 14.389648,27.500746 z M 15.039062,24.522231 C 14.580076,24.522237 14.237465,24.769633 14.01123,25.264418 C 13.784992,25.759215 13.671873,26.512795 13.671875,27.52516 C 13.671873,28.534278 13.784992,29.28623 14.01123,29.78102 C 14.237465,30.275812 14.580076,30.523208 15.039062,30.523207 C 15.501299,30.523208 15.845537,30.275812 16.071777,29.78102 C 16.29801,29.28623 16.411128,28.534278 16.411133,27.52516 C 16.411128,26.512795 16.29801,25.759215 16.071777,25.264418 C 15.845537,24.769633 15.501299,24.522237 15.039062,24.522231 L 15.039062,24.522231 z M 15.039062,23.740981 C 15.817054,23.740988 16.405432,24.059998 16.804199,24.698012 C 17.202957,25.336039 17.402338,26.27842 17.402344,27.52516 C 17.402338,28.768652 17.202957,29.709407 16.804199,30.347426 C 16.405432,30.985447 15.817054,31.304457 15.039062,31.304457 C 14.261065,31.304457 13.673501,30.985447 13.276367,30.347426 C 12.879231,29.709407 12.680663,28.768652 12.680664,27.52516 C 12.680663,26.27842 12.879231,25.336039 13.276367,24.698012 C 13.673501,24.059998 14.261065,23.740988 15.039062,23.740981 L 15.039062,23.740981 z M 20.405273,27.500746 C 20.405271,27.321714 20.467934,27.167091 20.593262,27.036879 C 20.718585,26.906675 20.869138,26.841571 21.044922,26.841567 C 21.22721,26.841571 21.38346,26.906675 21.513672,27.036879 C 21.643877,27.167091 21.708981,27.321714 21.708984,27.500746 C 21.708981,27.683041 21.64469,27.837664 21.516113,27.964614 C 21.387529,28.09157 21.230466,28.155046 21.044922,28.155043 C 20.862627,28.155046 20.710447,28.093197 20.588379,27.969496 C 20.466306,27.845802 20.405271,27.689552 20.405273,27.500746 L 20.405273,27.500746 z M 21.054688,24.522231 C 20.595701,24.522237 20.25309,24.769633 20.026855,25.264418 C 19.800617,25.759215 19.687498,26.512795 19.6875,27.52516 C 19.687498,28.534278 19.800617,29.28623 20.026855,29.78102 C 20.25309,30.275812 20.595701,30.523208 21.054688,30.523207 C 21.516924,30.523208 21.861162,30.275812 22.087402,29.78102 C 22.313635,29.28623 22.426753,28.534278 22.426758,27.52516 C 22.426753,26.512795 22.313635,25.759215 22.087402,25.264418 C 21.861162,24.769633 21.516924,24.522237 21.054688,24.522231 L 21.054688,24.522231 z M 21.054688,23.740981 C 21.832679,23.740988 22.421057,24.059998 22.819824,24.698012 C 23.218582,25.336039 23.417963,26.27842 23.417969,27.52516 C 23.417963,28.768652 23.218582,29.709407 22.819824,30.347426 C 22.421057,30.985447 21.832679,31.304457 21.054688,31.304457 C 20.27669,31.304457 19.689126,30.985447 19.291992,30.347426 C 18.894856,29.709407 18.696288,28.768652 18.696289,27.52516 C 18.696288,26.27842 18.894856,25.336039 19.291992,24.698012 C 19.689126,24.059998 20.27669,23.740988 21.054688,23.740981 L 21.054688,23.740981 z M 29.980469,28.740981 L 29.980469,27.901137 L 36.196289,27.901137 L 36.196289,28.740981 L 29.980469,28.740981 z M 42.011719,29.160903 L 42.011719,27.481215 L 48.227539,27.481215 L 48.227539,29.160903 L 42.011719,29.160903 z M 56.757812,34.180434 L 56.757812,21.436293 L 57.539062,21.436293 L 57.539062,34.180434 L 56.757812,34.180434 z M 68.398438,34.180434 L 68.398438,21.436293 L 69.960938,21.436293 L 69.960938,34.180434 L 68.398438,34.180434 z M 82.817383,28.740981 L 82.817383,27.901137 L 84.321289,27.901137 L 84.321289,28.740981 L 82.817383,28.740981 z M 80.488281,28.740981 L 80.488281,27.901137 L 81.938477,27.901137 L 81.938477,28.740981 L 80.488281,28.740981 z M 78.105469,28.740981 L 78.105469,27.901137 L 79.609375,27.901137 L 79.609375,28.740981 L 78.105469,28.740981 z M 94.848633,29.160903 L 94.848633,27.481215 L 96.352539,27.481215 L 96.352539,29.160903 L 94.848633,29.160903 z M 92.519531,29.160903 L 92.519531,27.481215 L 93.969727,27.481215 L 93.969727,29.160903 L 92.519531,29.160903 z M 90.136719,29.160903 L 90.136719,27.481215 L 91.640625,27.481215 L 91.640625,29.160903 L 90.136719,29.160903 z M 104.88281,34.180434 L 104.88281,30.37184 L 105.66406,30.37184 L 105.66406,34.180434 L 104.88281,34.180434 z M 104.88281,29.492934 L 104.88281,26.123793 L 105.66406,26.123793 L 105.66406,29.492934 L 104.88281,29.492934 z M 104.88281,25.244887 L 104.88281,21.436293 L 105.66406,21.436293 L 105.66406,25.244887 L 104.88281,25.244887 z M 116.52344,34.180434 L 116.52344,30.37184 L 118.08594,30.37184 L 118.08594,34.180434 L 116.52344,34.180434 z M 116.52344,29.492934 L 116.52344,26.123793 L 118.08594,26.123793 L 118.08594,29.492934 L 116.52344,29.492934 z M 116.52344,25.244887 L 116.52344,21.436293 L 118.08594,21.436293 L 118.08594,25.244887 L 116.52344,25.244887 z M 126.22559,28.740981 L 126.22559,27.901137 L 127.14355,27.901137 L 127.14355,28.740981 L 126.22559,28.740981 z M 128.02246,28.740981 L 128.02246,27.901137 L 128.89648,27.901137 L 128.89648,28.740981 L 128.02246,28.740981 z M 129.77539,28.740981 L 129.77539,27.901137 L 130.64453,27.901137 L 130.64453,28.740981 L 129.77539,28.740981 z M 131.52344,28.740981 L 131.52344,27.901137 L 132.44629,27.901137 L 132.44629,28.740981 L 131.52344,28.740981 z M 138.26172,29.160903 L 138.26172,27.481215 L 139.17969,27.481215 L 139.17969,29.160903 L 138.26172,29.160903 z M 140.05859,29.160903 L 140.05859,27.481215 L 140.93262,27.481215 L 140.93262,29.160903 L 140.05859,29.160903 z M 141.81152,29.160903 L 141.81152,27.481215 L 142.68066,27.481215 L 142.68066,29.160903 L 141.81152,29.160903 z M 143.55957,29.160903 L 143.55957,27.481215 L 144.48242,27.481215 L 144.48242,29.160903 L 143.55957,29.160903 z M 153.00781,24.180434 L 153.00781,21.436293 L 153.78906,21.436293 L 153.78906,24.180434 L 153.00781,24.180434 z M 153.00781,34.180434 L 153.00781,31.436293 L 153.78906,31.436293 L 153.78906,34.180434 L 153.00781,34.180434 z M 153.00781,27.36891 L 153.00781,25.05934 L 153.78906,25.05934 L 153.78906,27.36891 L 153.00781,27.36891 z M 153.00781,30.557387 L 153.00781,28.247817 L 153.78906,28.247817 L 153.78906,30.557387 L 153.00781,30.557387 z M 164.64844,24.180434 L 164.64844,21.436293 L 166.21094,21.436293 L 166.21094,24.180434 L 164.64844,24.180434 z M 164.64844,34.180434 L 164.64844,31.436293 L 166.21094,31.436293 L 166.21094,34.180434 L 164.64844,34.180434 z M 164.64844,27.36891 L 164.64844,25.05934 L 166.21094,25.05934 L 166.21094,27.36891 L 164.64844,27.36891 z M 164.64844,30.557387 L 164.64844,28.247817 L 166.21094,28.247817 L 166.21094,30.557387 L 164.64844,30.557387 z M 177.07031,34.180434 L 177.07031,27.901137 L 180.57129,27.901137 L 180.57129,28.740981 L 177.85156,28.740981 L 177.85156,34.180434 L 177.07031,34.180434 z M 189.10156,34.180434 L 189.10156,27.481215 L 192.60254,27.481215 L 192.60254,29.160903 L 189.88281,29.160903 L 189.88281,34.180434 L 189.10156,34.180434 z M 200.74219,34.180434 L 200.74219,27.901137 L 204.63379,27.901137 L 204.63379,28.740981 L 202.30469,28.740981 L 202.30469,34.180434 L 200.74219,34.180434 z M 212.77344,34.180434 L 212.77344,27.481215 L 216.66504,27.481215 L 216.66504,29.160903 L 214.33594,29.160903 L 214.33594,34.180434 L 212.77344,34.180434 z M 1.8212891,47.832778 L 5.1708984,47.832778 L 5.1708984,48.662856 L 0.7421875,48.662856 L 0.7421875,47.832778 C 1.3509101,47.191503 1.8831361,46.625097 2.3388672,46.133559 C 2.7945936,45.642025 3.1087208,45.295346 3.28125,45.09352 C 3.6067672,44.696388 3.8264936,44.374937 3.9404297,44.129164 C 4.0543579,43.883401 4.111324,43.631936 4.1113281,43.37477 C 4.111324,42.967874 3.9916952,42.648864 3.7524414,42.417739 C 3.5131801,42.186625 3.1852182,42.071065 2.7685547,42.071059 C 2.4723283,42.071065 2.1614562,42.124776 1.8359375,42.232192 C 1.5104152,42.33962 1.1653634,42.50238 0.80078125,42.720473 L 0.80078125,41.724379 C 1.1360666,41.564881 1.4656561,41.444438 1.7895508,41.363051 C 2.1134419,41.281678 2.4332658,41.240988 2.7490234,41.240981 C 3.4619106,41.240988 4.0356405,41.430604 4.4702148,41.809828 C 4.9047803,42.189067 5.1220652,42.686299 5.1220703,43.301528 C 5.1220652,43.614033 5.0496369,43.926532 4.9047852,44.239028 C 4.7599236,44.551532 4.5247351,44.896583 4.1992188,45.274184 C 4.0169231,45.485776 3.7524377,45.778744 3.4057617,46.15309 C 3.059079,46.527441 2.5309219,47.087336 1.8212891,47.832778 L 1.8212891,47.832778 z M 7.0263672,41.372817 L 10.717773,41.372817 L 10.717773,42.202895 L 7.9248047,42.202895 L 7.9248047,43.994887 C 8.0647766,43.942808 8.2055642,43.90456 8.347168,43.880141 C 8.4887671,43.855732 8.6311823,43.843525 8.7744141,43.84352 C 9.5296189,43.843525 10.128577,44.066506 10.571289,44.512465 C 11.013992,44.958432 11.235346,45.562273 11.235352,46.323989 C 11.235346,47.092219 11.003413,47.697687 10.539551,48.140395 C 10.07568,48.583103 9.4417283,48.804457 8.6376953,48.804457 C 8.2503233,48.804457 7.8963197,48.778415 7.5756836,48.726332 C 7.2550443,48.674249 6.9677725,48.596124 6.7138672,48.491957 L 6.7138672,47.490981 C 7.0133454,47.653742 7.3144518,47.774999 7.6171875,47.85475 C 7.91992,47.934504 8.2291645,47.97438 8.5449219,47.974379 C 9.0885386,47.97438 9.5076462,47.831151 9.8022461,47.544692 C 10.096838,47.258235 10.244136,46.851334 10.244141,46.323989 C 10.244136,45.803158 10.091956,45.397885 9.7875977,45.108168 C 9.4832322,44.818458 9.0592417,44.673602 8.515625,44.673598 C 8.2519509,44.673602 7.9947897,44.703713 7.7441406,44.76393 C 7.4934881,44.824155 7.2542305,44.914487 7.0263672,45.034926 L 7.0263672,41.372817 z M 13.349609,47.832778 L 14.882812,47.832778 L 14.882812,42.261489 L 13.232422,42.632582 L 13.232422,41.734145 L 14.873047,41.372817 L 15.859375,41.372817 L 15.859375,47.832778 L 17.373047,47.832778 L 17.373047,48.662856 L 13.349609,48.662856 L 13.349609,47.832778 z M 20.405273,45.000746 C 20.405271,44.821714 20.467934,44.667091 20.593262,44.536879 C 20.718585,44.406675 20.869138,44.341571 21.044922,44.341567 C 21.22721,44.341571 21.38346,44.406675 21.513672,44.536879 C 21.643877,44.667091 21.708981,44.821714 21.708984,45.000746 C 21.708981,45.183041 21.64469,45.337664 21.516113,45.464614 C 21.387529,45.59157 21.230466,45.655046 21.044922,45.655043 C 20.862627,45.655046 20.710447,45.593197 20.588379,45.469496 C 20.466306,45.345802 20.405271,45.189552 20.405273,45.000746 L 20.405273,45.000746 z M 21.054688,42.022231 C 20.595701,42.022237 20.25309,42.269633 20.026855,42.764418 C 19.800617,43.259215 19.687498,44.012795 19.6875,45.02516 C 19.687498,46.034278 19.800617,46.78623 20.026855,47.28102 C 20.25309,47.775812 20.595701,48.023208 21.054688,48.023207 C 21.516924,48.023208 21.861162,47.775812 22.087402,47.28102 C 22.313635,46.78623 22.426753,46.034278 22.426758,45.02516 C 22.426753,44.012795 22.313635,43.259215 22.087402,42.764418 C 21.861162,42.269633 21.516924,42.022237 21.054688,42.022231 L 21.054688,42.022231 z M 21.054688,41.240981 C 21.832679,41.240988 22.421057,41.559998 22.819824,42.198012 C 23.218582,42.836039 23.417963,43.77842 23.417969,45.02516 C 23.417963,46.268652 23.218582,47.209407 22.819824,47.847426 C 22.421057,48.485447 21.832679,48.804457 21.054688,48.804457 C 20.27669,48.804457 19.689126,48.485447 19.291992,47.847426 C 18.894856,47.209407 18.696288,46.268652 18.696289,45.02516 C 18.696288,43.77842 18.894856,42.836039 19.291992,42.198012 C 19.689126,41.559998 20.27669,41.240988 21.054688,41.240981 L 21.054688,41.240981 z M 32.695312,51.680434 L 32.695312,46.240981 L 29.980469,46.240981 L 29.980469,45.401137 L 33.476562,45.401137 L 33.476562,51.680434 L 32.695312,51.680434 z M 44.726562,51.680434 L 44.726562,46.660903 L 42.011719,46.660903 L 42.011719,44.981215 L 45.507812,44.981215 L 45.507812,51.680434 L 44.726562,51.680434 z M 56.367188,51.680434 L 56.367188,46.240981 L 54.042969,46.240981 L 54.042969,45.401137 L 57.929688,45.401137 L 57.929688,51.680434 L 56.367188,51.680434 z M 68.398438,51.680434 L 68.398438,46.660903 L 66.074219,46.660903 L 66.074219,44.981215 L 69.960938,44.981215 L 69.960938,51.680434 L 68.398438,51.680434 z M 80.820312,46.240981 L 80.820312,38.936293 L 81.601562,38.936293 L 81.601562,45.401137 L 84.321289,45.401137 L 84.321289,46.240981 L 80.820312,46.240981 z M 92.851562,46.660903 L 92.851562,38.936293 L 93.632812,38.936293 L 93.632812,44.981215 L 96.352539,44.981215 L 96.352539,46.660903 L 92.851562,46.660903 z M 104.49219,46.240981 L 104.49219,38.936293 L 106.05469,38.936293 L 106.05469,45.401137 L 108.38379,45.401137 L 108.38379,46.240981 L 104.49219,46.240981 z M 116.52344,46.660903 L 116.52344,38.936293 L 118.08594,38.936293 L 118.08594,44.981215 L 120.41504,44.981215 L 120.41504,46.660903 L 116.52344,46.660903 z M 126.23047,46.240981 L 126.23047,45.401137 L 128.94531,45.401137 L 128.94531,38.936293 L 129.72656,38.936293 L 129.72656,46.240981 L 126.23047,46.240981 z M 138.26172,46.660903 L 138.26172,44.981215 L 140.97656,44.981215 L 140.97656,38.936293 L 141.75781,38.936293 L 141.75781,46.660903 L 138.26172,46.660903 z M 150.29297,46.240981 L 150.29297,45.401137 L 152.61719,45.401137 L 152.61719,38.936293 L 154.17969,38.936293 L 154.17969,46.240981 L 150.29297,46.240981 z M 162.32422,46.660903 L 162.32422,44.981215 L 164.64844,44.981215 L 164.64844,38.936293 L 166.21094,38.936293 L 166.21094,46.660903 L 162.32422,46.660903 z M 177.07031,51.680434 L 177.07031,38.936293 L 177.85156,38.936293 L 177.85156,45.401137 L 180.57129,45.401137 L 180.57129,46.240981 L 177.85156,46.240981 L 177.85156,51.680434 L 177.07031,51.680434 z M 189.10156,51.680434 L 189.10156,38.936293 L 189.88281,38.936293 L 189.88281,44.981215 L 192.60254,44.981215 L 192.60254,46.660903 L 189.88281,46.660903 L 189.88281,51.680434 L 189.10156,51.680434 z M 201.13281,51.680434 L 201.13281,46.240981 L 200.74219,46.240981 L 200.74219,38.936293 L 202.30469,38.936293 L 202.30469,45.401137 L 204.63379,45.401137 L 204.63379,46.240981 L 201.91406,46.240981 L 201.91406,51.680434 L 201.13281,51.680434 z M 212.77344,51.680434 L 212.77344,45.401137 L 213.16406,45.401137 L 213.16406,38.936293 L 213.94531,38.936293 L 213.94531,45.401137 L 216.66504,45.401137 L 216.66504,46.240981 L 214.33594,46.240981 L 214.33594,51.680434 L 212.77344,51.680434 z M 1.8212891,65.332778 L 5.1708984,65.332778 L 5.1708984,66.162856 L 0.7421875,66.162856 L 0.7421875,65.332778 C 1.3509101,64.691503 1.8831361,64.125097 2.3388672,63.633559 C 2.7945936,63.142025 3.1087208,62.795346 3.28125,62.59352 C 3.6067672,62.196388 3.8264936,61.874937 3.9404297,61.629164 C 4.0543579,61.383401 4.111324,61.131936 4.1113281,60.87477 C 4.111324,60.467874 3.9916952,60.148864 3.7524414,59.917739 C 3.5131801,59.686625 3.1852182,59.571065 2.7685547,59.571059 C 2.4723283,59.571065 2.1614562,59.624776 1.8359375,59.732192 C 1.5104152,59.83962 1.1653634,60.00238 0.80078125,60.220473 L 0.80078125,59.224379 C 1.1360666,59.064881 1.4656561,58.944438 1.7895508,58.863051 C 2.1134419,58.781678 2.4332658,58.740988 2.7490234,58.740981 C 3.4619106,58.740988 4.0356405,58.930604 4.4702148,59.309828 C 4.9047803,59.689067 5.1220652,60.186299 5.1220703,60.801528 C 5.1220652,61.114033 5.0496369,61.426532 4.9047852,61.739028 C 4.7599236,62.051532 4.5247351,62.396583 4.1992188,62.774184 C 4.0169231,62.985776 3.7524377,63.278744 3.4057617,63.65309 C 3.059079,64.027441 2.5309219,64.587336 1.8212891,65.332778 L 1.8212891,65.332778 z M 7.0263672,58.872817 L 10.717773,58.872817 L 10.717773,59.702895 L 7.9248047,59.702895 L 7.9248047,61.494887 C 8.0647766,61.442808 8.2055642,61.40456 8.347168,61.380141 C 8.4887671,61.355732 8.6311823,61.343525 8.7744141,61.34352 C 9.5296189,61.343525 10.128577,61.566506 10.571289,62.012465 C 11.013992,62.458432 11.235346,63.062273 11.235352,63.823989 C 11.235346,64.592219 11.003413,65.197687 10.539551,65.640395 C 10.07568,66.083103 9.4417283,66.304457 8.6376953,66.304457 C 8.2503233,66.304457 7.8963197,66.278415 7.5756836,66.226332 C 7.2550443,66.174249 6.9677725,66.096124 6.7138672,65.991957 L 6.7138672,64.990981 C 7.0133454,65.153742 7.3144518,65.274999 7.6171875,65.35475 C 7.91992,65.434504 8.2291645,65.47438 8.5449219,65.474379 C 9.0885386,65.47438 9.5076462,65.331151 9.8022461,65.044692 C 10.096838,64.758235 10.244136,64.351334 10.244141,63.823989 C 10.244136,63.303158 10.091956,62.897885 9.7875977,62.608168 C 9.4832322,62.318458 9.0592417,62.173602 8.515625,62.173598 C 8.2519509,62.173602 7.9947897,62.203713 7.7441406,62.26393 C 7.4934881,62.324155 7.2542305,62.414487 7.0263672,62.534926 L 7.0263672,58.872817 z M 13.852539,65.332778 L 17.202148,65.332778 L 17.202148,66.162856 L 12.773438,66.162856 L 12.773438,65.332778 C 13.38216,64.691503 13.914386,64.125097 14.370117,63.633559 C 14.825844,63.142025 15.139971,62.795346 15.3125,62.59352 C 15.638017,62.196388 15.857744,61.874937 15.97168,61.629164 C 16.085608,61.383401 16.142574,61.131936 16.142578,60.87477 C 16.142574,60.467874 16.022945,60.148864 15.783691,59.917739 C 15.54443,59.686625 15.216468,59.571065 14.799805,59.571059 C 14.503578,59.571065 14.192706,59.624776 13.867188,59.732192 C 13.541665,59.83962 13.196613,60.00238 12.832031,60.220473 L 12.832031,59.224379 C 13.167317,59.064881 13.496906,58.944438 13.820801,58.863051 C 14.144692,58.781678 14.464516,58.740988 14.780273,58.740981 C 15.493161,58.740988 16.06689,58.930604 16.501465,59.309828 C 16.93603,59.689067 17.153315,60.186299 17.15332,60.801528 C 17.153315,61.114033 17.080887,61.426532 16.936035,61.739028 C 16.791174,62.051532 16.555985,62.396583 16.230469,62.774184 C 16.048173,62.985776 15.783688,63.278744 15.437012,63.65309 C 15.090329,64.027441 14.562172,64.587336 13.852539,65.332778 L 13.852539,65.332778 z M 20.405273,62.500746 C 20.405271,62.321714 20.467934,62.167091 20.593262,62.036879 C 20.718585,61.906675 20.869138,61.841571 21.044922,61.841567 C 21.22721,61.841571 21.38346,61.906675 21.513672,62.036879 C 21.643877,62.167091 21.708981,62.321714 21.708984,62.500746 C 21.708981,62.683041 21.64469,62.837664 21.516113,62.964614 C 21.387529,63.09157 21.230466,63.155046 21.044922,63.155043 C 20.862627,63.155046 20.710447,63.093197 20.588379,62.969496 C 20.466306,62.845802 20.405271,62.689552 20.405273,62.500746 L 20.405273,62.500746 z M 21.054688,59.522231 C 20.595701,59.522237 20.25309,59.769633 20.026855,60.264418 C 19.800617,60.759215 19.687498,61.512795 19.6875,62.52516 C 19.687498,63.534278 19.800617,64.28623 20.026855,64.78102 C 20.25309,65.275812 20.595701,65.523208 21.054688,65.523207 C 21.516924,65.523208 21.861162,65.275812 22.087402,64.78102 C 22.313635,64.28623 22.426753,63.534278 22.426758,62.52516 C 22.426753,61.512795 22.313635,60.759215 22.087402,60.264418 C 21.861162,59.769633 21.516924,59.522237 21.054688,59.522231 L 21.054688,59.522231 z M 21.054688,58.740981 C 21.832679,58.740988 22.421057,59.059998 22.819824,59.698012 C 23.218582,60.336039 23.417963,61.27842 23.417969,62.52516 C 23.417963,63.768652 23.218582,64.709407 22.819824,65.347426 C 22.421057,65.985447 21.832679,66.304457 21.054688,66.304457 C 20.27669,66.304457 19.689126,65.985447 19.291992,65.347426 C 18.894856,64.709407 18.696288,63.768652 18.696289,62.52516 C 18.696288,61.27842 18.894856,60.336039 19.291992,59.698012 C 19.689126,59.059998 20.27669,58.740988 21.054688,58.740981 L 21.054688,58.740981 z M 32.304688,69.180434 L 32.304688,56.436293 L 33.867188,56.436293 L 33.867188,62.901137 L 36.196289,62.901137 L 36.196289,63.740981 L 33.867188,63.740981 L 33.867188,69.180434 L 32.304688,69.180434 z M 44.726562,69.180434 L 44.726562,64.160903 L 44.335938,64.160903 L 44.335938,56.436293 L 45.898438,56.436293 L 45.898438,62.481215 L 48.227539,62.481215 L 48.227539,64.160903 L 45.507812,64.160903 L 45.507812,69.180434 L 44.726562,69.180434 z M 56.367188,69.180434 L 56.367188,62.481215 L 56.757812,62.481215 L 56.757812,56.436293 L 57.539062,56.436293 L 57.539062,62.481215 L 60.258789,62.481215 L 60.258789,64.160903 L 57.929688,64.160903 L 57.929688,69.180434 L 56.367188,69.180434 z M 68.398438,69.180434 L 68.398438,56.436293 L 69.960938,56.436293 L 69.960938,62.481215 L 72.290039,62.481215 L 72.290039,64.160903 L 69.960938,64.160903 L 69.960938,69.180434 L 68.398438,69.180434 z M 80.820312,69.180434 L 80.820312,63.740981 L 78.105469,63.740981 L 78.105469,62.901137 L 80.820312,62.901137 L 80.820312,56.436293 L 81.601562,56.436293 L 81.601562,69.180434 L 80.820312,69.180434 z M 92.851562,69.180434 L 92.851562,64.160903 L 90.136719,64.160903 L 90.136719,62.481215 L 92.851562,62.481215 L 92.851562,56.436293 L 93.632812,56.436293 L 93.632812,69.180434 L 92.851562,69.180434 z M 104.88281,69.180434 L 104.88281,63.740981 L 102.16797,63.740981 L 102.16797,62.901137 L 104.49219,62.901137 L 104.49219,56.436293 L 106.05469,56.436293 L 106.05469,63.740981 L 105.66406,63.740981 L 105.66406,69.180434 L 104.88281,69.180434 z M 116.52344,69.180434 L 116.52344,63.740981 L 114.19922,63.740981 L 114.19922,62.901137 L 116.91406,62.901137 L 116.91406,56.436293 L 117.69531,56.436293 L 117.69531,62.901137 L 118.08594,62.901137 L 118.08594,69.180434 L 116.52344,69.180434 z M 128.55469,69.180434 L 128.55469,63.740981 L 126.23047,63.740981 L 126.23047,62.901137 L 128.55469,62.901137 L 128.55469,56.436293 L 130.11719,56.436293 L 130.11719,69.180434 L 128.55469,69.180434 z M 140.97656,69.180434 L 140.97656,64.160903 L 138.26172,64.160903 L 138.26172,62.481215 L 140.58594,62.481215 L 140.58594,56.436293 L 142.14844,56.436293 L 142.14844,64.160903 L 141.75781,64.160903 L 141.75781,69.180434 L 140.97656,69.180434 z M 152.61719,69.180434 L 152.61719,64.160903 L 150.29297,64.160903 L 150.29297,62.481215 L 153.00781,62.481215 L 153.00781,56.436293 L 153.78906,56.436293 L 153.78906,62.481215 L 154.17969,62.481215 L 154.17969,69.180434 L 152.61719,69.180434 z M 164.64844,69.180434 L 164.64844,64.160903 L 162.32422,64.160903 L 162.32422,62.481215 L 164.64844,62.481215 L 164.64844,56.436293 L 166.21094,56.436293 L 166.21094,69.180434 L 164.64844,69.180434 z M 177.07031,69.180434 L 177.07031,63.740981 L 174.35547,63.740981 L 174.35547,62.901137 L 180.57129,62.901137 L 180.57129,63.740981 L 177.85156,63.740981 L 177.85156,69.180434 L 177.07031,69.180434 z M 189.10156,69.180434 L 189.10156,64.160903 L 186.38672,64.160903 L 186.38672,62.481215 L 189.88281,62.481215 L 189.88281,62.901137 L 192.60254,62.901137 L 192.60254,63.740981 L 189.88281,63.740981 L 189.88281,69.180434 L 189.10156,69.180434 z M 201.13281,69.180434 L 201.13281,63.740981 L 198.41797,63.740981 L 198.41797,62.901137 L 201.13281,62.901137 L 201.13281,62.481215 L 204.63379,62.481215 L 204.63379,64.160903 L 201.91406,64.160903 L 201.91406,69.180434 L 201.13281,69.180434 z M 213.16406,69.180434 L 213.16406,64.160903 L 210.44922,64.160903 L 210.44922,62.481215 L 216.66504,62.481215 L 216.66504,64.160903 L 213.94531,64.160903 L 213.94531,69.180434 L 213.16406,69.180434 z M 1.8212891,82.832778 L 5.1708984,82.832778 L 5.1708984,83.662856 L 0.7421875,83.662856 L 0.7421875,82.832778 C 1.3509101,82.191503 1.8831361,81.625097 2.3388672,81.133559 C 2.7945936,80.642025 3.1087208,80.295346 3.28125,80.09352 C 3.6067672,79.696388 3.8264936,79.374937 3.9404297,79.129164 C 4.0543579,78.883401 4.111324,78.631936 4.1113281,78.37477 C 4.111324,77.967874 3.9916952,77.648864 3.7524414,77.417739 C 3.5131801,77.186625 3.1852182,77.071065 2.7685547,77.071059 C 2.4723283,77.071065 2.1614562,77.124776 1.8359375,77.232192 C 1.5104152,77.33962 1.1653634,77.50238 0.80078125,77.720473 L 0.80078125,76.724379 C 1.1360666,76.564881 1.4656561,76.444438 1.7895508,76.363051 C 2.1134419,76.281678 2.4332658,76.240988 2.7490234,76.240981 C 3.4619106,76.240988 4.0356405,76.430604 4.4702148,76.809828 C 4.9047803,77.189067 5.1220652,77.686299 5.1220703,78.301528 C 5.1220652,78.614033 5.0496369,78.926532 4.9047852,79.239028 C 4.7599236,79.551532 4.5247351,79.896583 4.1992188,80.274184 C 4.0169231,80.485776 3.7524377,80.778744 3.4057617,81.15309 C 3.059079,81.527441 2.5309219,82.087336 1.8212891,82.832778 L 1.8212891,82.832778 z M 7.0263672,76.372817 L 10.717773,76.372817 L 10.717773,77.202895 L 7.9248047,77.202895 L 7.9248047,78.994887 C 8.0647766,78.942808 8.2055642,78.90456 8.347168,78.880141 C 8.4887671,78.855732 8.6311823,78.843525 8.7744141,78.84352 C 9.5296189,78.843525 10.128577,79.066506 10.571289,79.512465 C 11.013992,79.958432 11.235346,80.562273 11.235352,81.323989 C 11.235346,82.092219 11.003413,82.697687 10.539551,83.140395 C 10.07568,83.583103 9.4417283,83.804457 8.6376953,83.804457 C 8.2503233,83.804457 7.8963197,83.778415 7.5756836,83.726332 C 7.2550443,83.674249 6.9677725,83.596124 6.7138672,83.491957 L 6.7138672,82.490981 C 7.0133454,82.653742 7.3144518,82.774999 7.6171875,82.85475 C 7.91992,82.934504 8.2291645,82.97438 8.5449219,82.974379 C 9.0885386,82.97438 9.5076462,82.831151 9.8022461,82.544692 C 10.096838,82.258235 10.244136,81.851334 10.244141,81.323989 C 10.244136,80.803158 10.091956,80.397885 9.7875977,80.108168 C 9.4832322,79.818458 9.0592417,79.673602 8.515625,79.673598 C 8.2519509,79.673602 7.9947897,79.703713 7.7441406,79.76393 C 7.4934881,79.824155 7.2542305,79.914487 7.0263672,80.034926 L 7.0263672,76.372817 z M 15.820312,79.761489 C 16.298824,79.888445 16.665034,80.113868 16.918945,80.437758 C 17.172846,80.761654 17.299799,81.166113 17.299805,81.651137 C 17.299799,82.321711 17.074376,82.848241 16.623535,83.230727 C 16.172685,83.613214 15.548499,83.804457 14.750977,83.804457 C 14.415688,83.804457 14.073891,83.773533 13.725586,83.711684 C 13.377277,83.649835 13.035481,83.560317 12.700195,83.443129 L 12.700195,82.461684 C 13.032226,82.634211 13.359374,82.762791 13.681641,82.847426 C 14.003904,82.932062 14.324542,82.97438 14.643555,82.974379 C 15.183916,82.97438 15.598955,82.85231 15.888672,82.608168 C 16.178381,82.364029 16.323238,82.012467 16.323242,81.553481 C 16.323238,81.130306 16.178381,80.794206 15.888672,80.54518 C 15.598955,80.29616 15.206703,80.171648 14.711914,80.171645 L 13.959961,80.171645 L 13.959961,79.361098 L 14.711914,79.361098 C 15.164385,79.361102 15.517575,79.261818 15.771484,79.063246 C 16.025387,78.864683 16.15234,78.587991 16.152344,78.233168 C 16.15234,77.858825 16.034338,77.571553 15.79834,77.371352 C 15.562334,77.171163 15.226234,77.071065 14.790039,77.071059 C 14.500323,77.071065 14.200844,77.103617 13.891602,77.168715 C 13.582355,77.233826 13.258462,77.331482 12.919922,77.461684 L 12.919922,76.553481 C 13.313801,76.449321 13.664549,76.371196 13.972168,76.319106 C 14.279783,76.26703 14.552406,76.240988 14.790039,76.240981 C 15.499671,76.240988 16.06689,76.419211 16.491699,76.775649 C 16.916499,77.132101 17.128901,77.604919 17.128906,78.194106 C 17.128901,78.594501 17.01741,78.92816 16.794434,79.195082 C 16.571447,79.462014 16.246741,79.650815 15.820312,79.761489 L 15.820312,79.761489 z M 20.405273,80.000746 C 20.405271,79.821714 20.467934,79.667091 20.593262,79.536879 C 20.718585,79.406675 20.869138,79.341571 21.044922,79.341567 C 21.22721,79.341571 21.38346,79.406675 21.513672,79.536879 C 21.643877,79.667091 21.708981,79.821714 21.708984,80.000746 C 21.708981,80.183041 21.64469,80.337664 21.516113,80.464614 C 21.387529,80.59157 21.230466,80.655046 21.044922,80.655043 C 20.862627,80.655046 20.710447,80.593197 20.588379,80.469496 C 20.466306,80.345802 20.405271,80.189552 20.405273,80.000746 L 20.405273,80.000746 z M 21.054688,77.022231 C 20.595701,77.022237 20.25309,77.269633 20.026855,77.764418 C 19.800617,78.259215 19.687498,79.012795 19.6875,80.02516 C 19.687498,81.034278 19.800617,81.78623 20.026855,82.28102 C 20.25309,82.775812 20.595701,83.023208 21.054688,83.023207 C 21.516924,83.023208 21.861162,82.775812 22.087402,82.28102 C 22.313635,81.78623 22.426753,81.034278 22.426758,80.02516 C 22.426753,79.012795 22.313635,78.259215 22.087402,77.764418 C 21.861162,77.269633 21.516924,77.022237 21.054688,77.022231 L 21.054688,77.022231 z M 21.054688,76.240981 C 21.832679,76.240988 22.421057,76.559998 22.819824,77.198012 C 23.218582,77.836039 23.417963,78.77842 23.417969,80.02516 C 23.417963,81.268652 23.218582,82.209407 22.819824,82.847426 C 22.421057,83.485447 21.832679,83.804457 21.054688,83.804457 C 20.27669,83.804457 19.689126,83.485447 19.291992,82.847426 C 18.894856,82.209407 18.696288,81.268652 18.696289,80.02516 C 18.696288,78.77842 18.894856,77.836039 19.291992,77.198012 C 19.689126,76.559998 20.27669,76.240988 21.054688,76.240981 L 21.054688,76.240981 z M 32.304688,86.680434 L 32.304688,81.240981 L 29.980469,81.240981 L 29.980469,80.401137 L 36.196289,80.401137 L 36.196289,81.240981 L 33.867188,81.240981 L 33.867188,86.680434 L 32.304688,86.680434 z M 44.335938,86.680434 L 44.335938,81.660903 L 42.011719,81.660903 L 42.011719,79.981215 L 45.898438,79.981215 L 45.898438,80.401137 L 48.227539,80.401137 L 48.227539,81.240981 L 45.898438,81.240981 L 45.898438,86.680434 L 44.335938,86.680434 z M 56.367188,86.680434 L 56.367188,81.240981 L 54.042969,81.240981 L 54.042969,80.401137 L 56.367188,80.401137 L 56.367188,79.981215 L 60.258789,79.981215 L 60.258789,81.660903 L 57.929688,81.660903 L 57.929688,86.680434 L 56.367188,86.680434 z M 68.398438,86.680434 L 68.398438,81.660903 L 66.074219,81.660903 L 66.074219,79.981215 L 72.290039,79.981215 L 72.290039,81.660903 L 69.960938,81.660903 L 69.960938,86.680434 L 68.398438,86.680434 z M 78.105469,81.240981 L 78.105469,80.401137 L 80.820312,80.401137 L 80.820312,73.936293 L 81.601562,73.936293 L 81.601562,80.401137 L 84.321289,80.401137 L 84.321289,81.240981 L 78.105469,81.240981 z M 90.136719,81.660903 L 90.136719,79.981215 L 92.851562,79.981215 L 92.851562,73.936293 L 93.632812,73.936293 L 93.632812,80.401137 L 96.352539,80.401137 L 96.352539,81.240981 L 93.632812,81.240981 L 93.632812,81.660903 L 90.136719,81.660903 z M 102.16797,81.240981 L 102.16797,80.401137 L 104.88281,80.401137 L 104.88281,73.936293 L 105.66406,73.936293 L 105.66406,79.981215 L 108.38379,79.981215 L 108.38379,81.660903 L 104.88281,81.660903 L 104.88281,81.240981 L 102.16797,81.240981 z M 114.19922,81.660903 L 114.19922,79.981215 L 116.91406,79.981215 L 116.91406,73.936293 L 117.69531,73.936293 L 117.69531,79.981215 L 120.41504,79.981215 L 120.41504,81.660903 L 114.19922,81.660903 z M 126.23047,81.240981 L 126.23047,80.401137 L 128.55469,80.401137 L 128.55469,73.936293 L 130.11719,73.936293 L 130.11719,80.401137 L 132.44629,80.401137 L 132.44629,81.240981 L 126.23047,81.240981 z M 138.26172,81.660903 L 138.26172,79.981215 L 140.58594,79.981215 L 140.58594,73.936293 L 142.14844,73.936293 L 142.14844,80.401137 L 144.47754,80.401137 L 144.47754,81.240981 L 142.14844,81.240981 L 142.14844,81.660903 L 138.26172,81.660903 z M 150.29297,81.240981 L 150.29297,80.401137 L 152.61719,80.401137 L 152.61719,73.936293 L 154.17969,73.936293 L 154.17969,79.981215 L 156.50879,79.981215 L 156.50879,81.660903 L 152.61719,81.660903 L 152.61719,81.240981 L 150.29297,81.240981 z M 162.32422,81.660903 L 162.32422,79.981215 L 164.64844,79.981215 L 164.64844,73.936293 L 166.21094,73.936293 L 166.21094,79.981215 L 168.54004,79.981215 L 168.54004,81.660903 L 162.32422,81.660903 z M 177.85156,81.240981 L 177.85156,86.680434 L 177.07031,86.680434 L 177.07031,81.240981 L 174.35547,81.240981 L 174.35547,80.401137 L 177.07031,80.401137 L 177.07031,73.936293 L 177.85156,73.936293 L 177.85156,80.401137 L 180.57129,80.401137 L 180.57129,81.240981 L 177.85156,81.240981 z M 189.10156,86.680434 L 189.10156,81.660903 L 186.38672,81.660903 L 186.38672,79.981215 L 189.10156,79.981215 L 189.10156,73.936293 L 189.88281,73.936293 L 189.88281,80.401137 L 192.60254,80.401137 L 192.60254,81.240981 L 189.88281,81.240981 L 189.88281,86.680434 L 189.10156,86.680434 z M 201.13281,86.680434 L 201.13281,81.240981 L 198.41797,81.240981 L 198.41797,80.401137 L 201.13281,80.401137 L 201.13281,73.936293 L 201.91406,73.936293 L 201.91406,79.981215 L 204.63379,79.981215 L 204.63379,81.660903 L 201.91406,81.660903 L 201.91406,86.680434 L 201.13281,86.680434 z M 213.16406,86.680434 L 213.16406,81.660903 L 210.44922,81.660903 L 210.44922,79.981215 L 213.16406,79.981215 L 213.16406,73.936293 L 213.94531,73.936293 L 213.94531,79.981215 L 216.66504,79.981215 L 216.66504,81.660903 L 213.94531,81.660903 L 213.94531,86.680434 L 213.16406,86.680434 z M 1.8212891,100.33278 L 5.1708984,100.33278 L 5.1708984,101.16286 L 0.7421875,101.16286 L 0.7421875,100.33278 C 1.3509101,99.691503 1.8831361,99.125097 2.3388672,98.633559 C 2.7945936,98.142025 3.1087208,97.795346 3.28125,97.59352 C 3.6067672,97.196388 3.8264936,96.874937 3.9404297,96.629164 C 4.0543579,96.383401 4.111324,96.131936 4.1113281,95.87477 C 4.111324,95.467874 3.9916952,95.148864 3.7524414,94.917739 C 3.5131801,94.686625 3.1852182,94.571065 2.7685547,94.571059 C 2.4723283,94.571065 2.1614562,94.624776 1.8359375,94.732192 C 1.5104152,94.83962 1.1653634,95.00238 0.80078125,95.220473 L 0.80078125,94.224379 C 1.1360666,94.064881 1.4656561,93.944438 1.7895508,93.863051 C 2.1134419,93.781678 2.4332658,93.740988 2.7490234,93.740981 C 3.4619106,93.740988 4.0356405,93.930604 4.4702148,94.309828 C 4.9047803,94.689067 5.1220652,95.186299 5.1220703,95.801528 C 5.1220652,96.114033 5.0496369,96.426532 4.9047852,96.739028 C 4.7599236,97.051532 4.5247351,97.396583 4.1992188,97.774184 C 4.0169231,97.985776 3.7524377,98.278744 3.4057617,98.65309 C 3.059079,99.027441 2.5309219,99.587336 1.8212891,100.33278 L 1.8212891,100.33278 z M 7.0263672,93.872817 L 10.717773,93.872817 L 10.717773,94.702895 L 7.9248047,94.702895 L 7.9248047,96.494887 C 8.0647766,96.442808 8.2055642,96.40456 8.347168,96.380141 C 8.4887671,96.355732 8.6311823,96.343525 8.7744141,96.34352 C 9.5296189,96.343525 10.128577,96.566506 10.571289,97.012465 C 11.013992,97.458432 11.235346,98.062273 11.235352,98.823989 C 11.235346,99.592219 11.003413,100.19769 10.539551,100.64039 C 10.07568,101.0831 9.4417283,101.30446 8.6376953,101.30446 C 8.2503233,101.30446 7.8963197,101.27842 7.5756836,101.22633 C 7.2550443,101.17425 6.9677725,101.09612 6.7138672,100.99196 L 6.7138672,99.990981 C 7.0133454,100.15374 7.3144518,100.275 7.6171875,100.35475 C 7.91992,100.4345 8.2291645,100.47438 8.5449219,100.47438 C 9.0885386,100.47438 9.5076462,100.33115 9.8022461,100.04469 C 10.096838,99.758235 10.244136,99.351334 10.244141,98.823989 C 10.244136,98.303158 10.091956,97.897885 9.7875977,97.608168 C 9.4832322,97.318458 9.0592417,97.173602 8.515625,97.173598 C 8.2519509,97.173602 7.9947897,97.203713 7.7441406,97.26393 C 7.4934881,97.324155 7.2542305,97.414487 7.0263672,97.534926 L 7.0263672,93.872817 z M 15.620117,94.771254 L 13.320312,98.623793 L 15.620117,98.623793 L 15.620117,94.771254 z M 15.458984,93.872817 L 16.601562,93.872817 L 16.601562,98.623793 L 17.573242,98.623793 L 17.573242,99.424574 L 16.601562,99.424574 L 16.601562,101.16286 L 15.620117,101.16286 L 15.620117,99.424574 L 12.529297,99.424574 L 12.529297,98.491957 L 15.458984,93.872817 z M 20.405273,97.500746 C 20.405271,97.321714 20.467934,97.167091 20.593262,97.036879 C 20.718585,96.906675 20.869138,96.841571 21.044922,96.841567 C 21.22721,96.841571 21.38346,96.906675 21.513672,97.036879 C 21.643877,97.167091 21.708981,97.321714 21.708984,97.500746 C 21.708981,97.683041 21.64469,97.837664 21.516113,97.964614 C 21.387529,98.09157 21.230466,98.155046 21.044922,98.155043 C 20.862627,98.155046 20.710447,98.093197 20.588379,97.969496 C 20.466306,97.845802 20.405271,97.689552 20.405273,97.500746 L 20.405273,97.500746 z M 21.054688,94.522231 C 20.595701,94.522237 20.25309,94.769633 20.026855,95.264418 C 19.800617,95.759215 19.687498,96.512795 19.6875,97.52516 C 19.687498,98.534278 19.800617,99.28623 20.026855,99.78102 C 20.25309,100.27581 20.595701,100.52321 21.054688,100.52321 C 21.516924,100.52321 21.861162,100.27581 22.087402,99.78102 C 22.313635,99.28623 22.426753,98.534278 22.426758,97.52516 C 22.426753,96.512795 22.313635,95.759215 22.087402,95.264418 C 21.861162,94.769633 21.516924,94.522237 21.054688,94.522231 L 21.054688,94.522231 z M 21.054688,93.740981 C 21.832679,93.740988 22.421057,94.059998 22.819824,94.698012 C 23.218582,95.336039 23.417963,96.27842 23.417969,97.52516 C 23.417963,98.768652 23.218582,99.709407 22.819824,100.34743 C 22.421057,100.98545 21.832679,101.30446 21.054688,101.30446 C 20.27669,101.30446 19.689126,100.98545 19.291992,100.34743 C 18.894856,99.709407 18.696288,98.768652 18.696289,97.52516 C 18.696288,96.27842 18.894856,95.336039 19.291992,94.698012 C 19.689126,94.059998 20.27669,93.740988 21.054688,93.740981 L 21.054688,93.740981 z M 32.695312,104.18043 L 32.695312,98.740981 L 29.980469,98.740981 L 29.980469,97.901137 L 32.304688,97.901137 L 32.304688,91.436293 L 33.867188,91.436293 L 33.867188,97.901137 L 36.196289,97.901137 L 36.196289,98.740981 L 33.476562,98.740981 L 33.476562,104.18043 L 32.695312,104.18043 z M 44.335938,104.18043 L 44.335938,98.740981 L 42.011719,98.740981 L 42.011719,97.901137 L 44.726562,97.901137 L 44.726562,91.436293 L 45.507812,91.436293 L 45.507812,97.901137 L 48.227539,97.901137 L 48.227539,98.740981 L 45.898438,98.740981 L 45.898438,104.18043 L 44.335938,104.18043 z M 56.367188,104.18043 L 56.367188,98.740981 L 54.042969,98.740981 L 54.042969,97.901137 L 56.367188,97.901137 L 56.367188,91.436293 L 57.929688,91.436293 L 57.929688,97.901137 L 60.258789,97.901137 L 60.258789,98.740981 L 57.929688,98.740981 L 57.929688,104.18043 L 56.367188,104.18043 z M 68.789062,104.18043 L 68.789062,99.160903 L 66.074219,99.160903 L 66.074219,97.481215 L 68.398438,97.481215 L 68.398438,91.436293 L 69.960938,91.436293 L 69.960938,97.901137 L 72.290039,97.901137 L 72.290039,98.740981 L 69.960938,98.740981 L 69.960938,99.160903 L 69.570312,99.160903 L 69.570312,104.18043 L 68.789062,104.18043 z M 80.820312,104.18043 L 80.820312,99.160903 L 80.429688,99.160903 L 80.429688,98.740981 L 78.105469,98.740981 L 78.105469,97.901137 L 80.429688,97.901137 L 80.429688,91.436293 L 81.992188,91.436293 L 81.992188,97.481215 L 84.321289,97.481215 L 84.321289,99.160903 L 81.601562,99.160903 L 81.601562,104.18043 L 80.820312,104.18043 z M 92.460938,104.18043 L 92.460938,99.160903 L 90.136719,99.160903 L 90.136719,97.481215 L 92.851562,97.481215 L 92.851562,91.436293 L 93.632812,91.436293 L 93.632812,97.481215 L 94.023438,97.481215 L 94.023438,97.901137 L 96.352539,97.901137 L 96.352539,98.740981 L 94.023438,98.740981 L 94.023438,104.18043 L 92.460938,104.18043 z M 104.49219,104.18043 L 104.49219,98.740981 L 102.16797,98.740981 L 102.16797,97.901137 L 104.49219,97.901137 L 104.49219,97.481215 L 104.88281,97.481215 L 104.88281,91.436293 L 105.66406,91.436293 L 105.66406,97.481215 L 108.38379,97.481215 L 108.38379,99.160903 L 106.05469,99.160903 L 106.05469,104.18043 L 104.49219,104.18043 z M 116.91406,104.18043 L 116.91406,99.160903 L 114.19922,99.160903 L 114.19922,97.481215 L 116.52344,97.481215 L 116.52344,91.436293 L 118.08594,91.436293 L 118.08594,97.481215 L 120.41504,97.481215 L 120.41504,99.160903 L 117.69531,99.160903 L 117.69531,104.18043 L 116.91406,104.18043 z M 128.55469,104.18043 L 128.55469,99.160903 L 126.23047,99.160903 L 126.23047,97.481215 L 128.94531,97.481215 L 128.94531,91.436293 L 129.72656,91.436293 L 129.72656,97.481215 L 132.44629,97.481215 L 132.44629,99.160903 L 130.11719,99.160903 L 130.11719,104.18043 L 128.55469,104.18043 z M 140.58594,104.18043 L 140.58594,99.160903 L 138.26172,99.160903 L 138.26172,97.481215 L 140.58594,97.481215 L 140.58594,91.436293 L 142.14844,91.436293 L 142.14844,97.901137 L 144.47754,97.901137 L 144.47754,98.740981 L 142.14844,98.740981 L 142.14844,104.18043 L 140.58594,104.18043 z M 152.61719,104.18043 L 152.61719,98.740981 L 150.29297,98.740981 L 150.29297,97.901137 L 152.61719,97.901137 L 152.61719,91.436293 L 154.17969,91.436293 L 154.17969,97.481215 L 156.50879,97.481215 L 156.50879,99.160903 L 154.17969,99.160903 L 154.17969,104.18043 L 152.61719,104.18043 z M 164.64844,104.18043 L 164.64844,99.160903 L 162.32422,99.160903 L 162.32422,97.481215 L 164.64844,97.481215 L 164.64844,91.436293 L 166.21094,91.436293 L 166.21094,97.481215 L 168.54004,97.481215 L 168.54004,99.160903 L 166.21094,99.160903 L 166.21094,104.18043 L 164.64844,104.18043 z M 174.35547,98.740981 L 174.35547,97.901137 L 177.07031,97.901137 L 177.07031,98.740981 L 174.35547,98.740981 z M 177.85156,98.740981 L 177.85156,97.901137 L 180.57129,97.901137 L 180.57129,98.740981 L 177.85156,98.740981 z M 189.88281,99.160903 L 189.88281,97.481215 L 192.60254,97.481215 L 192.60254,99.160903 L 189.88281,99.160903 z M 186.38672,99.160903 L 186.38672,97.481215 L 189.10156,97.481215 L 189.10156,99.160903 L 186.38672,99.160903 z M 201.13281,97.481215 L 201.13281,91.436293 L 201.91406,91.436293 L 201.91406,97.481215 L 201.13281,97.481215 z M 201.13281,104.18043 L 201.13281,99.160903 L 201.91406,99.160903 L 201.91406,104.18043 L 201.13281,104.18043 z M 212.77344,97.481215 L 212.77344,91.436293 L 214.33594,91.436293 L 214.33594,97.481215 L 212.77344,97.481215 z M 212.77344,104.18043 L 212.77344,99.160903 L 214.33594,99.160903 L 214.33594,104.18043 L 212.77344,104.18043 z M 1.8212891,117.83278 L 5.1708984,117.83278 L 5.1708984,118.66286 L 0.7421875,118.66286 L 0.7421875,117.83278 C 1.3509101,117.1915 1.8831361,116.6251 2.3388672,116.13356 C 2.7945936,115.64203 3.1087208,115.29535 3.28125,115.09352 C 3.6067672,114.69639 3.8264936,114.37494 3.9404297,114.12916 C 4.0543579,113.8834 4.111324,113.63194 4.1113281,113.37477 C 4.111324,112.96787 3.9916952,112.64886 3.7524414,112.41774 C 3.5131801,112.18663 3.1852182,112.07107 2.7685547,112.07106 C 2.4723283,112.07107 2.1614562,112.12478 1.8359375,112.23219 C 1.5104152,112.33962 1.1653634,112.50238 0.80078125,112.72047 L 0.80078125,111.72438 C 1.1360666,111.56488 1.4656561,111.44444 1.7895508,111.36305 C 2.1134419,111.28168 2.4332658,111.24099 2.7490234,111.24098 C 3.4619106,111.24099 4.0356405,111.4306 4.4702148,111.80983 C 4.9047803,112.18907 5.1220652,112.6863 5.1220703,113.30153 C 5.1220652,113.61403 5.0496369,113.92653 4.9047852,114.23903 C 4.7599236,114.55153 4.5247351,114.89658 4.1992188,115.27418 C 4.0169231,115.48578 3.7524377,115.77874 3.4057617,116.15309 C 3.059079,116.52744 2.5309219,117.08734 1.8212891,117.83278 L 1.8212891,117.83278 z M 7.0263672,111.37282 L 10.717773,111.37282 L 10.717773,112.20289 L 7.9248047,112.20289 L 7.9248047,113.99489 C 8.0647766,113.94281 8.2055642,113.90456 8.347168,113.88014 C 8.4887671,113.85573 8.6311823,113.84352 8.7744141,113.84352 C 9.5296189,113.84352 10.128577,114.06651 10.571289,114.51247 C 11.013992,114.95843 11.235346,115.56227 11.235352,116.32399 C 11.235346,117.09222 11.003413,117.69769 10.539551,118.14039 C 10.07568,118.5831 9.4417283,118.80446 8.6376953,118.80446 C 8.2503233,118.80446 7.8963197,118.77842 7.5756836,118.72633 C 7.2550443,118.67425 6.9677725,118.59612 6.7138672,118.49196 L 6.7138672,117.49098 C 7.0133454,117.65374 7.3144518,117.775 7.6171875,117.85475 C 7.91992,117.9345 8.2291645,117.97438 8.5449219,117.97438 C 9.0885386,117.97438 9.5076462,117.83115 9.8022461,117.54469 C 10.096838,117.25823 10.244136,116.85133 10.244141,116.32399 C 10.244136,115.80316 10.091956,115.39788 9.7875977,115.10817 C 9.4832322,114.81846 9.0592417,114.6736 8.515625,114.6736 C 8.2519509,114.6736 7.9947897,114.70371 7.7441406,114.76393 C 7.4934881,114.82416 7.2542305,114.91449 7.0263672,115.03493 L 7.0263672,111.37282 z M 13.041992,111.37282 L 16.733398,111.37282 L 16.733398,112.20289 L 13.94043,112.20289 L 13.94043,113.99489 C 14.080402,113.94281 14.221189,113.90456 14.362793,113.88014 C 14.504392,113.85573 14.646807,113.84352 14.790039,113.84352 C 15.545244,113.84352 16.144202,114.06651 16.586914,114.51247 C 17.029617,114.95843 17.250971,115.56227 17.250977,116.32399 C 17.250971,117.09222 17.019038,117.69769 16.555176,118.14039 C 16.091305,118.5831 15.457353,118.80446 14.65332,118.80446 C 14.265948,118.80446 13.911945,118.77842 13.591309,118.72633 C 13.270669,118.67425 12.983397,118.59612 12.729492,118.49196 L 12.729492,117.49098 C 13.02897,117.65374 13.330077,117.775 13.632812,117.85475 C 13.935545,117.9345 14.244789,117.97438 14.560547,117.97438 C 15.104164,117.97438 15.523271,117.83115 15.817871,117.54469 C 16.112463,117.25823 16.259761,116.85133 16.259766,116.32399 C 16.259761,115.80316 16.107581,115.39788 15.803223,115.10817 C 15.498857,114.81846 15.074867,114.6736 14.53125,114.6736 C 14.267576,114.6736 14.010415,114.70371 13.759766,114.76393 C 13.509113,114.82416 13.269856,114.91449 13.041992,115.03493 L 13.041992,111.37282 z M 20.405273,115.00075 C 20.405271,114.82171 20.467934,114.66709 20.593262,114.53688 C 20.718585,114.40668 20.869138,114.34157 21.044922,114.34157 C 21.22721,114.34157 21.38346,114.40668 21.513672,114.53688 C 21.643877,114.66709 21.708981,114.82171 21.708984,115.00075 C 21.708981,115.18304 21.64469,115.33766 21.516113,115.46461 C 21.387529,115.59157 21.230466,115.65505 21.044922,115.65504 C 20.862627,115.65505 20.710447,115.5932 20.588379,115.4695 C 20.466306,115.3458 20.405271,115.18955 20.405273,115.00075 L 20.405273,115.00075 z M 21.054688,112.02223 C 20.595701,112.02224 20.25309,112.26963 20.026855,112.76442 C 19.800617,113.25922 19.687498,114.0128 19.6875,115.02516 C 19.687498,116.03428 19.800617,116.78623 20.026855,117.28102 C 20.25309,117.77581 20.595701,118.02321 21.054688,118.02321 C 21.516924,118.02321 21.861162,117.77581 22.087402,117.28102 C 22.313635,116.78623 22.426753,116.03428 22.426758,115.02516 C 22.426753,114.0128 22.313635,113.25922 22.087402,112.76442 C 21.861162,112.26963 21.516924,112.02224 21.054688,112.02223 L 21.054688,112.02223 z M 21.054688,111.24098 C 21.832679,111.24099 22.421057,111.56 22.819824,112.19801 C 23.218582,112.83604 23.417963,113.77842 23.417969,115.02516 C 23.417963,116.26865 23.218582,117.20941 22.819824,117.84743 C 22.421057,118.48545 21.832679,118.80446 21.054688,118.80446 C 20.27669,118.80446 19.689126,118.48545 19.291992,117.84743 C 18.894856,117.20941 18.696288,116.26865 18.696289,115.02516 C 18.696288,113.77842 18.894856,112.83604 19.291992,112.19801 C 19.689126,111.56 20.27669,111.24099 21.054688,111.24098 L 21.054688,111.24098 z M 29.980469,115.40114 L 29.980469,114.56129 L 36.196289,114.56129 L 36.196289,115.40114 L 29.980469,115.40114 z M 29.980469,117.08082 L 29.980469,116.24098 L 36.196289,116.24098 L 36.196289,117.08082 L 29.980469,117.08082 z M 43.945312,121.68043 L 43.945312,108.93629 L 44.726562,108.93629 L 44.726562,121.68043 L 43.945312,121.68043 z M 45.507812,121.68043 L 45.507812,108.93629 L 46.289062,108.93629 L 46.289062,121.68043 L 45.507812,121.68043 z M 56.757812,121.68043 L 56.757812,114.56129 L 60.258789,114.56129 L 60.258789,115.40114 L 57.539062,115.40114 L 57.539062,116.24098 L 60.258789,116.24098 L 60.258789,117.08082 L 57.539062,117.08082 L 57.539062,121.68043 L 56.757812,121.68043 z M 68.007812,121.68043 L 68.007812,115.40114 L 72.290039,115.40114 L 72.290039,116.24098 L 70.351562,116.24098 L 70.351562,121.68043 L 69.570312,121.68043 L 69.570312,116.24098 L 68.789062,116.24098 L 68.789062,121.68043 L 68.007812,121.68043 z M 80.039062,121.68043 L 80.039062,114.56129 L 84.321289,114.56129 L 84.321289,115.40114 L 80.820312,115.40114 L 80.820312,121.68043 L 80.039062,121.68043 z M 81.601562,121.68043 L 81.601562,116.24098 L 84.321289,116.24098 L 84.321289,117.08082 L 82.382812,117.08082 L 82.382812,121.68043 L 81.601562,121.68043 z M 92.851562,121.68043 L 92.851562,117.08082 L 90.136719,117.08082 L 90.136719,116.24098 L 92.851562,116.24098 L 92.851562,115.40114 L 90.136719,115.40114 L 90.136719,114.56129 L 93.632812,114.56129 L 93.632812,121.68043 L 92.851562,121.68043 z M 102.16797,116.24098 L 102.16797,115.40114 L 106.44531,115.40114 L 106.44531,121.68043 L 105.66406,121.68043 L 105.66406,116.24098 L 104.88281,116.24098 L 104.88281,121.68043 L 104.10156,121.68043 L 104.10156,116.24098 L 102.16797,116.24098 z M 117.69531,121.68043 L 117.69531,115.40114 L 114.19922,115.40114 L 114.19922,114.56129 L 118.47656,114.56129 L 118.47656,121.68043 L 117.69531,121.68043 z M 116.13281,121.68043 L 116.13281,117.08082 L 114.19922,117.08082 L 114.19922,116.24098 L 116.91406,116.24098 L 116.91406,121.68043 L 116.13281,121.68043 z M 128.94531,117.08082 L 128.94531,108.93629 L 129.72656,108.93629 L 129.72656,114.56129 L 132.44629,114.56129 L 132.44629,115.40114 L 129.72656,115.40114 L 129.72656,116.24098 L 132.44629,116.24098 L 132.44629,117.08082 L 128.94531,117.08082 z M 140.19531,116.24098 L 140.19531,108.93629 L 140.97656,108.93629 L 140.97656,115.40114 L 141.75781,115.40114 L 141.75781,108.93629 L 142.53906,108.93629 L 142.53906,115.40114 L 144.47754,115.40114 L 144.47754,116.24098 L 140.19531,116.24098 z M 153.78906,115.40114 L 153.78906,108.93629 L 154.57031,108.93629 L 154.57031,114.56129 L 156.50879,114.56129 L 156.50879,115.40114 L 153.78906,115.40114 z M 152.22656,117.08082 L 152.22656,108.93629 L 153.00781,108.93629 L 153.00781,116.24098 L 156.50879,116.24098 L 156.50879,117.08082 L 152.22656,117.08082 z M 162.32422,117.08082 L 162.32422,116.24098 L 165.03906,116.24098 L 165.03906,115.40114 L 162.32422,115.40114 L 162.32422,114.56129 L 165.03906,114.56129 L 165.03906,108.93629 L 165.82031,108.93629 L 165.82031,117.08082 L 162.32422,117.08082 z M 174.35547,116.24098 L 174.35547,115.40114 L 176.28906,115.40114 L 176.28906,108.93629 L 177.07031,108.93629 L 177.07031,115.40114 L 177.85156,115.40114 L 177.85156,108.93629 L 178.63281,108.93629 L 178.63281,116.24098 L 174.35547,116.24098 z M 186.38672,115.40114 L 186.38672,114.56129 L 188.32031,114.56129 L 188.32031,108.93629 L 189.10156,108.93629 L 189.10156,115.40114 L 186.38672,115.40114 z M 186.38672,117.08082 L 186.38672,116.24098 L 189.88281,116.24098 L 189.88281,108.93629 L 190.66406,108.93629 L 190.66406,117.08082 L 186.38672,117.08082 z M 201.13281,121.68043 L 201.13281,108.93629 L 201.91406,108.93629 L 201.91406,114.56129 L 204.63379,114.56129 L 204.63379,115.40114 L 201.91406,115.40114 L 201.91406,116.24098 L 204.63379,116.24098 L 204.63379,117.08082 L 201.91406,117.08082 L 201.91406,121.68043 L 201.13281,121.68043 z M 212.38281,121.68043 L 212.38281,108.93629 L 213.16406,108.93629 L 213.16406,121.68043 L 212.38281,121.68043 z M 213.94531,121.68043 L 213.94531,108.93629 L 214.72656,108.93629 L 214.72656,115.40114 L 216.66504,115.40114 L 216.66504,116.24098 L 214.72656,116.24098 L 214.72656,121.68043 L 213.94531,121.68043 z M 1.8212891,135.33278 L 5.1708984,135.33278 L 5.1708984,136.16286 L 0.7421875,136.16286 L 0.7421875,135.33278 C 1.3509101,134.6915 1.8831361,134.1251 2.3388672,133.63356 C 2.7945936,133.14203 3.1087208,132.79535 3.28125,132.59352 C 3.6067672,132.19639 3.8264936,131.87494 3.9404297,131.62916 C 4.0543579,131.3834 4.111324,131.13194 4.1113281,130.87477 C 4.111324,130.46787 3.9916952,130.14886 3.7524414,129.91774 C 3.5131801,129.68663 3.1852182,129.57107 2.7685547,129.57106 C 2.4723283,129.57107 2.1614562,129.62478 1.8359375,129.73219 C 1.5104152,129.83962 1.1653634,130.00238 0.80078125,130.22047 L 0.80078125,129.22438 C 1.1360666,129.06488 1.4656561,128.94444 1.7895508,128.86305 C 2.1134419,128.78168 2.4332658,128.74099 2.7490234,128.74098 C 3.4619106,128.74099 4.0356405,128.9306 4.4702148,129.30983 C 4.9047803,129.68907 5.1220652,130.1863 5.1220703,130.80153 C 5.1220652,131.11403 5.0496369,131.42653 4.9047852,131.73903 C 4.7599236,132.05153 4.5247351,132.39658 4.1992188,132.77418 C 4.0169231,132.98578 3.7524377,133.27874 3.4057617,133.65309 C 3.059079,134.02744 2.5309219,134.58734 1.8212891,135.33278 L 1.8212891,135.33278 z M 7.0263672,128.87282 L 10.717773,128.87282 L 10.717773,129.70289 L 7.9248047,129.70289 L 7.9248047,131.49489 C 8.0647766,131.44281 8.2055642,131.40456 8.347168,131.38014 C 8.4887671,131.35573 8.6311823,131.34352 8.7744141,131.34352 C 9.5296189,131.34352 10.128577,131.56651 10.571289,132.01247 C 11.013992,132.45843 11.235346,133.06227 11.235352,133.82399 C 11.235346,134.59222 11.003413,135.19769 10.539551,135.64039 C 10.07568,136.0831 9.4417283,136.30446 8.6376953,136.30446 C 8.2503233,136.30446 7.8963197,136.27842 7.5756836,136.22633 C 7.2550443,136.17425 6.9677725,136.09612 6.7138672,135.99196 L 6.7138672,134.99098 C 7.0133454,135.15374 7.3144518,135.275 7.6171875,135.35475 C 7.91992,135.4345 8.2291645,135.47438 8.5449219,135.47438 C 9.0885386,135.47438 9.5076462,135.33115 9.8022461,135.04469 C 10.096838,134.75823 10.244136,134.35133 10.244141,133.82399 C 10.244136,133.30316 10.091956,132.89788 9.7875977,132.60817 C 9.4832322,132.31846 9.0592417,132.1736 8.515625,132.1736 C 8.2519509,132.1736 7.9947897,132.20371 7.7441406,132.26393 C 7.4934881,132.32416 7.2542305,132.41449 7.0263672,132.53493 L 7.0263672,128.87282 z M 16.870117,129.03395 L 16.870117,129.94215 C 16.665034,129.82172 16.446936,129.72976 16.21582,129.66627 C 15.984697,129.6028 15.743811,129.57107 15.493164,129.57106 C 14.868161,129.57107 14.394529,129.80625 14.072266,130.27663 C 13.749998,130.74701 13.588866,131.43955 13.588867,132.35426 C 13.745115,132.02875 13.961587,131.77891 14.238281,131.60475 C 14.514971,131.4306 14.832354,131.34352 15.19043,131.34352 C 15.893551,131.34352 16.437984,131.55918 16.82373,131.99049 C 17.209467,132.42181 17.402338,133.03298 17.402344,133.82399 C 17.402338,134.61175 17.203771,135.2221 16.806641,135.65504 C 16.409501,136.08799 15.851233,136.30446 15.131836,136.30446 C 14.28548,136.30446 13.665363,136.00091 13.271484,135.39381 C 12.877603,134.78672 12.680663,133.8305 12.680664,132.52516 C 12.680663,131.2947 12.91748,130.35638 13.391113,129.71022 C 13.864744,129.06407 14.550779,128.74099 15.449219,128.74098 C 15.690101,128.74099 15.930986,128.76622 16.171875,128.81666 C 16.412756,128.86713 16.645503,128.93956 16.870117,129.03395 L 16.870117,129.03395 z M 15.112305,132.115 C 14.69238,132.11501 14.361977,132.26638 14.121094,132.56911 C 13.880206,132.87184 13.759764,133.29014 13.759766,133.82399 C 13.759764,134.35784 13.880206,134.77614 14.121094,135.07887 C 14.361977,135.38161 14.69238,135.53297 15.112305,135.53297 C 15.548499,135.53297 15.877275,135.38893 16.098633,135.10084 C 16.319983,134.81276 16.43066,134.38714 16.430664,133.82399 C 16.43066,133.25759 16.319983,132.83115 16.098633,132.54469 C 15.877275,132.25824 15.548499,132.11501 15.112305,132.115 L 15.112305,132.115 z M 20.405273,132.50075 C 20.405271,132.32171 20.467934,132.16709 20.593262,132.03688 C 20.718585,131.90668 20.869138,131.84157 21.044922,131.84157 C 21.22721,131.84157 21.38346,131.90668 21.513672,132.03688 C 21.643877,132.16709 21.708981,132.32171 21.708984,132.50075 C 21.708981,132.68304 21.64469,132.83766 21.516113,132.96461 C 21.387529,133.09157 21.230466,133.15505 21.044922,133.15504 C 20.862627,133.15505 20.710447,133.0932 20.588379,132.9695 C 20.466306,132.8458 20.405271,132.68955 20.405273,132.50075 L 20.405273,132.50075 z M 21.054688,129.52223 C 20.595701,129.52224 20.25309,129.76963 20.026855,130.26442 C 19.800617,130.75922 19.687498,131.5128 19.6875,132.52516 C 19.687498,133.53428 19.800617,134.28623 20.026855,134.78102 C 20.25309,135.27581 20.595701,135.52321 21.054688,135.52321 C 21.516924,135.52321 21.861162,135.27581 22.087402,134.78102 C 22.313635,134.28623 22.426753,133.53428 22.426758,132.52516 C 22.426753,131.5128 22.313635,130.75922 22.087402,130.26442 C 21.861162,129.76963 21.516924,129.52224 21.054688,129.52223 L 21.054688,129.52223 z M 21.054688,128.74098 C 21.832679,128.74099 22.421057,129.06 22.819824,129.69801 C 23.218582,130.33604 23.417963,131.27842 23.417969,132.52516 C 23.417963,133.76865 23.218582,134.70941 22.819824,135.34743 C 22.421057,135.98545 21.832679,136.30446 21.054688,136.30446 C 20.27669,136.30446 19.689126,135.98545 19.291992,135.34743 C 18.894856,134.70941 18.696288,133.76865 18.696289,132.52516 C 18.696288,131.27842 18.894856,130.33604 19.291992,129.69801 C 19.689126,129.06 20.27669,128.74099 21.054688,128.74098 L 21.054688,128.74098 z M 33.476562,132.90114 L 33.476562,126.43629 L 34.257812,126.43629 L 34.257812,132.06129 L 36.196289,132.06129 L 36.196289,132.90114 L 33.476562,132.90114 z M 31.914062,139.18043 L 31.914062,126.43629 L 32.695312,126.43629 L 32.695312,139.18043 L 31.914062,139.18043 z M 33.476562,139.18043 L 33.476562,133.74098 L 36.196289,133.74098 L 36.196289,134.58082 L 34.257812,134.58082 L 34.257812,139.18043 L 33.476562,139.18043 z M 44.726562,139.18043 L 44.726562,134.58082 L 42.011719,134.58082 L 42.011719,133.74098 L 44.726562,133.74098 L 44.726562,132.90114 L 42.011719,132.90114 L 42.011719,132.06129 L 44.726562,132.06129 L 44.726562,126.43629 L 45.507812,126.43629 L 45.507812,139.18043 L 44.726562,139.18043 z M 55.976562,139.18043 L 55.976562,133.74098 L 54.042969,133.74098 L 54.042969,132.90114 L 55.976562,132.90114 L 55.976562,126.43629 L 56.757812,126.43629 L 56.757812,139.18043 L 55.976562,139.18043 z M 57.539062,139.18043 L 57.539062,126.43629 L 58.320312,126.43629 L 58.320312,139.18043 L 57.539062,139.18043 z M 66.074219,132.90114 L 66.074219,132.06129 L 68.007812,132.06129 L 68.007812,126.43629 L 68.789062,126.43629 L 68.789062,132.90114 L 66.074219,132.90114 z M 68.007812,139.18043 L 68.007812,134.58082 L 66.074219,134.58082 L 66.074219,133.74098 L 68.789062,133.74098 L 68.789062,139.18043 L 68.007812,139.18043 z M 69.570312,139.18043 L 69.570312,126.43629 L 70.351562,126.43629 L 70.351562,139.18043 L 69.570312,139.18043 z M 80.820312,139.18043 L 80.820312,134.58082 L 78.105469,134.58082 L 78.105469,133.74098 L 84.321289,133.74098 L 84.321289,134.58082 L 81.601562,134.58082 L 81.601562,139.18043 L 80.820312,139.18043 z M 78.105469,132.90114 L 78.105469,132.06129 L 84.321289,132.06129 L 84.321289,132.90114 L 78.105469,132.90114 z M 90.136719,133.74098 L 90.136719,132.90114 L 96.352539,132.90114 L 96.352539,133.74098 L 94.414062,133.74098 L 94.414062,139.18043 L 93.632812,139.18043 L 93.632812,133.74098 L 92.851562,133.74098 L 92.851562,139.18043 L 92.070312,139.18043 L 92.070312,133.74098 L 90.136719,133.74098 z M 102.16797,132.90114 L 102.16797,132.06129 L 108.38379,132.06129 L 108.38379,132.90114 L 102.16797,132.90114 z M 104.10156,139.18043 L 104.10156,134.58082 L 102.16797,134.58082 L 102.16797,133.74098 L 104.88281,133.74098 L 104.88281,139.18043 L 104.10156,139.18043 z M 105.66406,139.18043 L 105.66406,133.74098 L 108.38379,133.74098 L 108.38379,134.58082 L 106.44531,134.58082 L 106.44531,139.18043 L 105.66406,139.18043 z M 114.19922,134.58082 L 114.19922,133.74098 L 120.41504,133.74098 L 120.41504,134.58082 L 114.19922,134.58082 z M 114.19922,132.90114 L 114.19922,132.06129 L 116.91406,132.06129 L 116.91406,126.43629 L 117.69531,126.43629 L 117.69531,132.06129 L 120.41504,132.06129 L 120.41504,132.90114 L 114.19922,132.90114 z M 126.23047,133.74098 L 126.23047,132.90114 L 128.16406,132.90114 L 128.16406,126.43629 L 128.94531,126.43629 L 128.94531,132.90114 L 129.72656,132.90114 L 129.72656,126.43629 L 130.50781,126.43629 L 130.50781,132.90114 L 132.44629,132.90114 L 132.44629,133.74098 L 126.23047,133.74098 z M 138.26172,134.58082 L 138.26172,133.74098 L 144.47754,133.74098 L 144.47754,134.58082 L 138.26172,134.58082 z M 138.26172,132.90114 L 138.26172,132.06129 L 140.19531,132.06129 L 140.19531,126.43629 L 140.97656,126.43629 L 140.97656,132.90114 L 138.26172,132.90114 z M 141.75781,132.90114 L 141.75781,126.43629 L 142.53906,126.43629 L 142.53906,132.06129 L 144.47754,132.06129 L 144.47754,132.90114 L 141.75781,132.90114 z M 153.00781,139.18043 L 153.00781,134.58082 L 150.29297,134.58082 L 150.29297,133.74098 L 153.00781,133.74098 L 153.00781,132.90114 L 150.29297,132.90114 L 150.29297,132.06129 L 153.00781,132.06129 L 153.00781,126.43629 L 153.78906,126.43629 L 153.78906,132.06129 L 156.50879,132.06129 L 156.50879,132.90114 L 153.78906,132.90114 L 153.78906,133.74098 L 156.50879,133.74098 L 156.50879,134.58082 L 153.78906,134.58082 L 153.78906,139.18043 L 153.00781,139.18043 z M 162.32422,133.74098 L 162.32422,132.90114 L 164.25781,132.90114 L 164.25781,126.43629 L 165.03906,126.43629 L 165.03906,132.90114 L 165.82031,132.90114 L 165.82031,126.43629 L 166.60156,126.43629 L 166.60156,132.90114 L 168.54004,132.90114 L 168.54004,133.74098 L 166.60156,133.74098 L 166.60156,139.18043 L 165.82031,139.18043 L 165.82031,133.74098 L 165.03906,133.74098 L 165.03906,139.18043 L 164.25781,139.18043 L 164.25781,133.74098 L 162.32422,133.74098 z M 177.85156,139.18043 L 177.85156,133.74098 L 180.57129,133.74098 L 180.57129,134.58082 L 178.63281,134.58082 L 178.63281,139.18043 L 177.85156,139.18043 z M 176.28906,139.18043 L 176.28906,134.58082 L 174.35547,134.58082 L 174.35547,133.74098 L 177.07031,133.74098 L 177.07031,139.18043 L 176.28906,139.18043 z M 174.35547,132.90114 L 174.35547,132.06129 L 176.28906,132.06129 L 176.28906,126.43629 L 177.07031,126.43629 L 177.07031,132.90114 L 174.35547,132.90114 z M 177.85156,132.90114 L 177.85156,126.43629 L 178.63281,126.43629 L 178.63281,132.06129 L 180.57129,132.06129 L 180.57129,132.90114 L 177.85156,132.90114 z M 189.10156,139.18043 L 189.10156,134.96168 C 189.10156,134.4376 189.2334,133.96885 189.49707,133.55543 C 189.79329,133.11924 190.21484,132.90114 190.76172,132.90114 L 192.60254,132.90114 L 192.60254,133.74098 L 190.76172,133.74098 C 190.472,133.74098 190.25309,133.84352 190.10498,134.0486 C 189.95687,134.25368 189.88281,134.55804 189.88281,134.96168 L 189.88281,139.18043 L 189.10156,139.18043 z M 201.13281,139.18043 L 201.13281,134.96168 C 201.13281,134.55153 201.05794,134.24717 200.9082,134.0486 C 200.76172,133.84352 200.54362,133.74098 200.25391,133.74098 L 198.41797,133.74098 L 198.41797,132.90114 L 200.25391,132.90114 C 200.80078,132.90114 201.22233,133.11924 201.51855,133.55543 C 201.78222,133.94606 201.91406,134.41481 201.91406,134.96168 L 201.91406,139.18043 L 201.13281,139.18043 z M 210.44922,133.74098 L 210.44922,132.90114 L 212.28516,132.90114 C 212.57487,132.90114 212.79378,132.7986 212.94189,132.59352 C 213.09,132.38845 213.16406,132.08408 213.16406,131.68043 L 213.16406,126.43629 L 213.94531,126.43629 L 213.94531,131.68043 C 213.94531,132.22731 213.81347,132.69606 213.5498,133.08668 C 213.25358,133.52288 212.83203,133.74098 212.28516,133.74098 L 210.44922,133.74098 z M 1.8212891,152.83278 L 5.1708984,152.83278 L 5.1708984,153.66286 L 0.7421875,153.66286 L 0.7421875,152.83278 C 1.3509101,152.1915 1.8831361,151.6251 2.3388672,151.13356 C 2.7945936,150.64203 3.1087208,150.29535 3.28125,150.09352 C 3.6067672,149.69639 3.8264936,149.37494 3.9404297,149.12916 C 4.0543579,148.8834 4.111324,148.63194 4.1113281,148.37477 C 4.111324,147.96787 3.9916952,147.64886 3.7524414,147.41774 C 3.5131801,147.18663 3.1852182,147.07107 2.7685547,147.07106 C 2.4723283,147.07107 2.1614562,147.12478 1.8359375,147.23219 C 1.5104152,147.33962 1.1653634,147.50238 0.80078125,147.72047 L 0.80078125,146.72438 C 1.1360666,146.56488 1.4656561,146.44444 1.7895508,146.36305 C 2.1134419,146.28168 2.4332658,146.24099 2.7490234,146.24098 C 3.4619106,146.24099 4.0356405,146.4306 4.4702148,146.80983 C 4.9047803,147.18907 5.1220652,147.6863 5.1220703,148.30153 C 5.1220652,148.61403 5.0496369,148.92653 4.9047852,149.23903 C 4.7599236,149.55153 4.5247351,149.89658 4.1992188,150.27418 C 4.0169231,150.48578 3.7524377,150.77874 3.4057617,151.15309 C 3.059079,151.52744 2.5309219,152.08734 1.8212891,152.83278 L 1.8212891,152.83278 z M 7.0263672,146.37282 L 10.717773,146.37282 L 10.717773,147.20289 L 7.9248047,147.20289 L 7.9248047,148.99489 C 8.0647766,148.94281 8.2055642,148.90456 8.347168,148.88014 C 8.4887671,148.85573 8.6311823,148.84352 8.7744141,148.84352 C 9.5296189,148.84352 10.128577,149.06651 10.571289,149.51247 C 11.013992,149.95843 11.235346,150.56227 11.235352,151.32399 C 11.235346,152.09222 11.003413,152.69769 10.539551,153.14039 C 10.07568,153.5831 9.4417283,153.80446 8.6376953,153.80446 C 8.2503233,153.80446 7.8963197,153.77842 7.5756836,153.72633 C 7.2550443,153.67425 6.9677725,153.59612 6.7138672,153.49196 L 6.7138672,152.49098 C 7.0133454,152.65374 7.3144518,152.775 7.6171875,152.85475 C 7.91992,152.9345 8.2291645,152.97438 8.5449219,152.97438 C 9.0885386,152.97438 9.5076462,152.83115 9.8022461,152.54469 C 10.096838,152.25823 10.244136,151.85133 10.244141,151.32399 C 10.244136,150.80316 10.091956,150.39788 9.7875977,150.10817 C 9.4832322,149.81846 9.0592417,149.6736 8.515625,149.6736 C 8.2519509,149.6736 7.9947897,149.70371 7.7441406,149.76393 C 7.4934881,149.82416 7.2542305,149.91449 7.0263672,150.03493 L 7.0263672,146.37282 z M 12.709961,146.37282 L 17.299805,146.37282 L 17.299805,146.79274 L 14.692383,153.66286 L 13.662109,153.66286 L 16.201172,147.20289 L 12.709961,147.20289 L 12.709961,146.37282 z M 20.405273,150.00075 C 20.405271,149.82171 20.467934,149.66709 20.593262,149.53688 C 20.718585,149.40668 20.869138,149.34157 21.044922,149.34157 C 21.22721,149.34157 21.38346,149.40668 21.513672,149.53688 C 21.643877,149.66709 21.708981,149.82171 21.708984,150.00075 C 21.708981,150.18304 21.64469,150.33766 21.516113,150.46461 C 21.387529,150.59157 21.230466,150.65505 21.044922,150.65504 C 20.862627,150.65505 20.710447,150.5932 20.588379,150.4695 C 20.466306,150.3458 20.405271,150.18955 20.405273,150.00075 L 20.405273,150.00075 z M 21.054688,147.02223 C 20.595701,147.02224 20.25309,147.26963 20.026855,147.76442 C 19.800617,148.25922 19.687498,149.0128 19.6875,150.02516 C 19.687498,151.03428 19.800617,151.78623 20.026855,152.28102 C 20.25309,152.77581 20.595701,153.02321 21.054688,153.02321 C 21.516924,153.02321 21.861162,152.77581 22.087402,152.28102 C 22.313635,151.78623 22.426753,151.03428 22.426758,150.02516 C 22.426753,149.0128 22.313635,148.25922 22.087402,147.76442 C 21.861162,147.26963 21.516924,147.02224 21.054688,147.02223 L 21.054688,147.02223 z M 21.054688,146.24098 C 21.832679,146.24099 22.421057,146.56 22.819824,147.19801 C 23.218582,147.83604 23.417963,148.77842 23.417969,150.02516 C 23.417963,151.26865 23.218582,152.20941 22.819824,152.84743 C 22.421057,153.48545 21.832679,153.80446 21.054688,153.80446 C 20.27669,153.80446 19.689126,153.48545 19.291992,152.84743 C 18.894856,152.20941 18.696288,151.26865 18.696289,150.02516 C 18.696288,148.77842 18.894856,147.83604 19.291992,147.19801 C 19.689126,146.56 20.27669,146.24099 21.054688,146.24098 L 21.054688,146.24098 z M 36.196289,151.24098 L 34.355469,151.24098 C 33.80859,151.24098 33.387041,151.02288 33.09082,150.58668 C 32.827146,150.19606 32.69531,149.72731 32.695312,149.18043 L 32.695312,143.93629 L 33.476562,143.93629 L 33.476562,149.18043 C 33.476559,149.58408 33.550615,149.88845 33.69873,150.09352 C 33.846839,150.2986 34.065751,150.40114 34.355469,150.40114 L 36.196289,150.40114 L 36.196289,151.24098 z M 41.577148,156.68043 L 47.792969,143.93629 L 48.662109,143.93629 L 42.446289,156.68043 L 41.577148,156.68043 z M 60.693359,156.68043 L 59.824219,156.68043 L 53.608398,143.93629 L 54.477539,143.93629 L 60.693359,156.68043 z M 72.724609,156.68043 L 71.855469,156.68043 L 69.179688,151.19704 L 66.508789,156.68043 L 65.639648,156.68043 L 68.75,150.30836 L 65.639648,143.93629 L 66.508789,143.93629 L 69.179688,149.41969 L 71.855469,143.93629 L 72.724609,143.93629 L 69.619141,150.30836 L 72.724609,156.68043 z M 78.105469,151.24098 L 78.105469,150.40114 L 81.308594,150.40114 L 81.308594,151.24098 L 78.105469,151.24098 z M 92.851562,150.82106 L 92.851562,143.93629 L 93.632812,143.93629 L 93.632812,150.82106 L 92.851562,150.82106 z M 105.37109,151.24098 L 105.37109,150.40114 L 108.38379,150.40114 L 108.38379,151.24098 L 105.37109,151.24098 z M 116.91406,156.68043 L 116.91406,150.82106 L 117.69531,150.82106 L 117.69531,156.68043 L 116.91406,156.68043 z M 126.23047,151.6609 L 126.23047,149.98122 L 129.43359,149.98122 L 129.43359,151.6609 L 126.23047,151.6609 z M 140.58594,150.82106 L 140.58594,143.93629 L 142.14844,143.93629 L 142.14844,150.82106 L 140.58594,150.82106 z M 153.49609,151.6609 L 153.49609,149.98122 L 156.50879,149.98122 L 156.50879,151.6609 L 153.49609,151.6609 z M 164.64844,156.68043 L 164.64844,150.82106 L 166.21094,150.82106 L 166.21094,156.68043 L 164.64844,156.68043 z M 174.35547,151.24098 L 174.35547,150.40114 L 177.55859,150.40114 L 177.55859,149.98122 L 180.57129,149.98122 L 180.57129,151.6609 L 177.55859,151.6609 L 177.55859,151.24098 L 174.35547,151.24098 z M 188.71094,156.68043 L 188.71094,150.82106 L 189.10156,150.82106 L 189.10156,143.93629 L 189.88281,143.93629 L 189.88281,150.82106 L 190.27344,150.82106 L 190.27344,156.68043 L 188.71094,156.68043 z M 198.41797,151.6609 L 198.41797,149.98122 L 201.62109,149.98122 L 201.62109,150.40114 L 204.63379,150.40114 L 204.63379,151.24098 L 201.62109,151.24098 L 201.62109,151.6609 L 198.41797,151.6609 z M 213.16406,156.68043 L 213.16406,150.82106 L 212.77344,150.82106 L 212.77344,143.93629 L 214.33594,143.93629 L 214.33594,150.82106 L 213.94531,150.82106 L 213.94531,156.68043 L 213.16406,156.68043 z" transform="translate(8.7050407,4.7050407)" id="flowRoot2391" style="font-size:10px;font-style:normal;font-variant:normal;font-weight:normal;font-stretch:normal;text-align:start;line-height:175%;writing-mode:lr-tb;text-anchor:start;fill:#000000;fill-opacity:1;stroke:none;stroke-width:1px;stroke-linecap:butt;stroke-linejoin:miter;stroke-opacity:1;font-family:DejaVu Sans Mono;-inkscape-font-specification:DejaVu Sans Mono"/>
  </g>
</svg>
