<?xml version="1.0" encoding="UTF-8" standalone="no"?>
<!DOCTYPE svg PUBLIC "-//W3C//DTD SVG 1.0//EN" "http://www.w3.org/TR/2001/PR-SVG-20010719/DTD/svg10.dtd">
<svg viewBox="198 178 223 207" xmlns="http://www.w3.org/2000/svg" xmlns:xlink="http://www.w3.org/1999/xlink">
  <g>
    <path style="fill: #ffff55" d="M 200 187.333 C 212,181.833 218,180 230,180 C 242,180 248,181.833 260,187.333 L 260,216.667 C 248,222.167 242,224 230,224 C 218,224 212,222.167 200,216.667 L 200,187.333z"/>
    <path style="fill: none; fill-opacity:0; stroke-width: 2; stroke: #000000" d="M 200 187.333 C 212,181.833 218,180 230,180 C 242,180 248,181.833 260,187.333 L 260,216.667 C 248,222.167 242,224 230,224 C 218,224 212,222.167 200,216.667 L 200,187.333"/>
    <path style="fill: none; fill-opacity:0; stroke-width: 2; stroke: #000000" d="M 200 187.333 C 212,192.833 218,194.667 230,194.667 C 242,194.667 248,192.833 260,187.333"/>
    <text font-size="12.8" style="fill: #000000;text-anchor:middle;font-family:Arial;font-style:normal;font-weight:normal" x="230" y="209.667">
      <tspan x="230" y="209.667">Data1</tspan>
    </text>
  </g>
  <g>
    <path style="fill: #ffff55" d="M 280 187.333 C 292,181.833 298,180 310,180 C 322,180 328,181.833 340,187.333 L 340,216.667 C 328,222.167 322,224 310,224 C 298,224 292,222.167 280,216.667 L 280,187.333z"/>
    <path style="fill: none; fill-opacity:0; stroke-width: 2; stroke: #000000" d="M 280 187.333 C 292,181.833 298,180 310,180 C 322,180 328,181.833 340,187.333 L 340,216.667 C 328,222.167 322,224 310,224 C 298,224 292,222.167 280,216.667 L 280,187.333"/>
    <path style="fill: none; fill-opacity:0; stroke-width: 2; stroke: #000000" d="M 280 187.333 C 292,192.833 298,194.667 310,194.667 C 322,194.667 328,192.833 340,187.333"/>
    <text font-size="12.8" style="fill: #000000;text-anchor:middle;font-family:Arial;font-style:normal;font-weight:normal" x="310" y="209.667">
      <tspan x="310" y="209.667">Data2</tspan>
    </text>
  </g>
  <g>
    <path style="fill: #ffff55" d="M 360 187.333 C 372,181.833 378,180 390,180 C 402,180 408,181.833 420,187.333 L 420,216.667 C 408,222.167 402,224 390,224 C 378,224 372,222.167 360,216.667 L 360,187.333z"/>
    <path style="fill: none; fill-opacity:0; stroke-width: 2; stroke: #000000" d="M 360 187.333 C 372,181.833 378,180 390,180 C 402,180 408,181.833 420,187.333 L 420,216.667 C 408,222.167 402,224 390,224 C 378,224 372,222.167 360,216.667 L 360,187.333"/>
    <path style="fill: none; fill-opacity:0; stroke-width: 2; stroke: #000000" d="M 360 187.333 C 372,192.833 378,194.667 390,194.667 C 402,194.667 408,192.833 420,187.333"/>
    <text font-size="12.8" style="fill: #000000;text-anchor:middle;font-family:Arial;font-style:normal;font-weight:normal" x="390" y="209.667">
      <tspan x="390" y="209.667">Data3</tspan>
    </text>
  </g>
  <g>
    <path style="fill: #ffff55" d="M 200 347.333 C 212,341.833 218,340 230,340 C 242,340 248,341.833 260,347.333 L 260,376.667 C 248,382.167 242,384 230,384 C 218,384 212,382.167 200,376.667 L 200,347.333z"/>
    <path style="fill: none; fill-opacity:0; stroke-width: 2; stroke: #000000" d="M 200 347.333 C 212,341.833 218,340 230,340 C 242,340 248,341.833 260,347.333 L 260,376.667 C 248,382.167 242,384 230,384 C 218,384 212,382.167 200,376.667 L 200,347.333"/>
    <path style="fill: none; fill-opacity:0; stroke-width: 2; stroke: #000000" d="M 200 347.333 C 212,352.833 218,354.667 230,354.667 C 242,354.667 248,352.833 260,347.333"/>
    <text font-size="12.8" style="fill: #000000;text-anchor:middle;font-family:Arial;font-style:normal;font-weight:normal" x="230" y="369.667">
      <tspan x="230" y="369.667">Data4</tspan>
    </text>
  </g>
  <g>
    <path style="fill: #ffff55" d="M 280 347.333 C 292,341.833 298,340 310,340 C 322,340 328,341.833 340,347.333 L 340,376.667 C 328,382.167 322,384 310,384 C 298,384 292,382.167 280,376.667 L 280,347.333z"/>
    <path style="fill: none; fill-opacity:0; stroke-width: 2; stroke: #000000" d="M 280 347.333 C 292,341.833 298,340 310,340 C 322,340 328,341.833 340,347.333 L 340,376.667 C 328,382.167 322,384 310,384 C 298,384 292,382.167 280,376.667 L 280,347.333"/>
    <path style="fill: none; fill-opacity:0; stroke-width: 2; stroke: #000000" d="M 280 347.333 C 292,352.833 298,354.667 310,354.667 C 322,354.667 328,352.833 340,347.333"/>
    <text font-size="12.8" style="fill: #000000;text-anchor:middle;font-family:Arial;font-style:normal;font-weight:normal" x="310" y="369.667">
      <tspan x="310" y="369.667">Data5</tspan>
    </text>
  </g>
  <g>
    <path style="fill: #ffff55" d="M 360 347.333 C 372,341.833 378,340 390,340 C 402,340 408,341.833 420,347.333 L 420,376.667 C 408,382.167 402,384 390,384 C 378,384 372,382.167 360,376.667 L 360,347.333z"/>
    <path style="fill: none; fill-opacity:0; stroke-width: 2; stroke: #000000" d="M 360 347.333 C 372,341.833 378,340 390,340 C 402,340 408,341.833 420,347.333 L 420,376.667 C 408,382.167 402,384 390,384 C 378,384 372,382.167 360,376.667 L 360,347.333"/>
    <path style="fill: none; fill-opacity:0; stroke-width: 2; stroke: #000000" d="M 360 347.333 C 372,352.833 378,354.667 390,354.667 C 402,354.667 408,352.833 420,347.333"/>
    <text font-size="12.8" style="fill: #000000;text-anchor:middle;font-family:Arial;font-style:normal;font-weight:normal" x="390" y="369.667">
      <tspan x="390" y="369.667">Data6</tspan>
    </text>
  </g>
  <g>
    <rect style="fill: #ff5555" x="200" y="260" width="58.5938" height="38"/>
    <rect style="fill: none; fill-opacity:0; stroke-width: 2; stroke: #000000" x="200" y="260" width="58.5938" height="38"/>
    <text font-size="12.8" style="fill: #000000;text-anchor:middle;font-family:Arial;font-style:normal;font-weight:normal" x="229.297" y="282.6">
      <tspan x="229.297" y="282.6">Prog1</tspan>
    </text>
  </g>
  <g>
    <rect style="fill: #ff5555" x="280" y="260" width="58.5938" height="38"/>
    <rect style="fill: none; fill-opacity:0; stroke-width: 2; stroke: #000000" x="280" y="260" width="58.5938" height="38"/>
    <text font-size="12.8" style="fill: #000000;text-anchor:middle;font-family:Arial;font-style:normal;font-weight:normal" x="309.297" y="282.6">
      <tspan x="309.297" y="282.6">Prog2</tspan>
    </text>
  </g>
  <g>
    <rect style="fill: #ff5555" x="360" y="260" width="58.5938" height="38"/>
    <rect style="fill: none; fill-opacity:0; stroke-width: 2; stroke: #000000" x="360" y="260" width="58.5938" height="38"/>
    <text font-size="12.8" style="fill: #000000;text-anchor:middle;font-family:Arial;font-style:normal;font-weight:normal" x="389.297" y="282.6">
      <tspan x="389.297" y="282.6">Prog3</tspan>
    </text>
  </g>
  <g>
    <line style="fill: none; fill-opacity:0; stroke-width: 2; stroke: #000000" x1="229.791" y1="224.935" x2="229.568" y2="249.338"/>
    <polygon style="fill: #000000" points="229.499,256.837 224.591,246.792 229.568,249.338 234.59,246.883 "/>
    <polygon style="fill: none; fill-opacity:0; stroke-width: 2; stroke: #000000" points="229.499,256.837 224.591,246.792 229.568,249.338 234.59,246.883 "/>
  </g>
  <g>
    <path style="fill: none; fill-opacity:0; stroke-width: 2; stroke: #000000" d="M 242.227 224.009 C 252.227,242.009 290.213,239.997 295.23,250.251"/>
    <polygon style="fill: #000000" points="298.526,256.988 289.64,250.203 295.23,250.251 298.623,245.808 "/>
    <polygon style="fill: none; fill-opacity:0; stroke-width: 2; stroke: #000000" points="298.526,256.988 289.64,250.203 295.23,250.251 298.623,245.808 "/>
  </g>
  <g>
    <line style="fill: none; fill-opacity:0; stroke-width: 2; stroke: #000000" x1="309.791" y1="224.935" x2="309.568" y2="249.338"/>
    <polygon style="fill: #000000" points="309.499,256.837 304.591,246.792 309.568,249.338 314.59,246.883 "/>
    <polygon style="fill: none; fill-opacity:0; stroke-width: 2; stroke: #000000" points="309.499,256.837 304.591,246.792 309.568,249.338 314.59,246.883 "/>
  </g>
  <g>
    <line style="fill: none; fill-opacity:0; stroke-width: 2; stroke: #000000" x1="389.722" y1="224.939" x2="389.415" y2="250.265"/>
    <polygon style="fill: #000000" points="389.324,257.764 384.446,247.704 389.415,250.265 394.445,247.825 "/>
    <polygon style="fill: none; fill-opacity:0; stroke-width: 2; stroke: #000000" points="389.324,257.764 384.446,247.704 389.415,250.265 394.445,247.825 "/>
  </g>
  <g>
    <line style="fill: none; fill-opacity:0; stroke-width: 2; stroke: #000000" x1="229.466" y1="298.99" x2="229.723" y2="329.275"/>
    <polygon style="fill: #000000" points="229.786,336.775 224.702,326.818 229.723,329.275 234.701,326.733 "/>
    <polygon style="fill: none; fill-opacity:0; stroke-width: 2; stroke: #000000" points="229.786,336.775 224.702,326.818 229.723,329.275 234.701,326.733 "/>
  </g>
  <g>
    <line style="fill: none; fill-opacity:0; stroke-width: 2; stroke: #000000" x1="309.466" y1="298.99" x2="309.723" y2="329.275"/>
    <polygon style="fill: #000000" points="309.786,336.775 304.702,326.818 309.723,329.275 314.701,326.733 "/>
    <polygon style="fill: none; fill-opacity:0; stroke-width: 2; stroke: #000000" points="309.786,336.775 304.702,326.818 309.723,329.275 314.701,326.733 "/>
  </g>
  <g>
    <line style="fill: none; fill-opacity:0; stroke-width: 2; stroke: #000000" x1="389.466" y1="298.99" x2="389.723" y2="329.275"/>
    <polygon style="fill: #000000" points="389.786,336.775 384.702,326.818 389.723,329.275 394.701,326.733 "/>
    <polygon style="fill: none; fill-opacity:0; stroke-width: 2; stroke: #000000" points="389.786,336.775 384.702,326.818 389.723,329.275 394.701,326.733 "/>
  </g>
  <g>
    <path style="fill: none; fill-opacity:0; stroke-width: 2; stroke: #000000" d="M 239.494 299.006 C 250.198,320.006 289.834,317.634 295.805,330.771"/>
    <polygon style="fill: #000000" points="298.908,337.598 290.219,330.564 295.805,330.771 299.322,326.426 "/>
    <polygon style="fill: none; fill-opacity:0; stroke-width: 2; stroke: #000000" points="298.908,337.598 290.219,330.564 295.805,330.771 299.322,326.426 "/>
  </g>
  <g>
    <path style="fill: none; fill-opacity:0; stroke-width: 2; stroke: #000000" d="M 322.227 224.009 C 332.227,242.009 370.214,239.997 375.231,250.251"/>
    <polygon style="fill: #000000" points="378.527,256.988 369.641,250.203 375.231,250.251 378.624,245.808 "/>
    <polygon style="fill: none; fill-opacity:0; stroke-width: 2; stroke: #000000" points="378.527,256.988 369.641,250.203 375.231,250.251 378.624,245.808 "/>
  </g>
</svg>
