<?xml version="1.0" encoding="UTF-8" standalone="no"?>
<!-- Created with Inkscape (http://www.inkscape.org/) -->

<svg
   xmlns:dc="http://purl.org/dc/elements/1.1/"
   xmlns:cc="http://creativecommons.org/ns#"
   xmlns:rdf="http://www.w3.org/1999/02/22-rdf-syntax-ns#"
   xmlns:svg="http://www.w3.org/2000/svg"
   xmlns="http://www.w3.org/2000/svg"
   xmlns:sodipodi="http://sodipodi.sourceforge.net/DTD/sodipodi-0.dtd"
   xmlns:inkscape="http://www.inkscape.org/namespaces/inkscape"
   version="1.1"
   width="1200"
   height="1200"
   id="svg2"
   sodipodi:docname="dii-pacman.svg"
   inkscape:version="0.92.2 (5c3e80d, 2017-08-06)">
  <sodipodi:namedview
     pagecolor="#ffffff"
     bordercolor="#666666"
     borderopacity="1"
     objecttolerance="10"
     gridtolerance="10"
     guidetolerance="10"
     inkscape:pageopacity="0"
     inkscape:pageshadow="2"
     inkscape:window-width="1853"
     inkscape:window-height="1025"
     id="namedview79"
     showgrid="false"
     inkscape:zoom="0.19666667"
     inkscape:cx="600"
     inkscape:cy="600"
     inkscape:window-x="67"
     inkscape:window-y="27"
     inkscape:window-maximized="1"
     inkscape:current-layer="svg2" />
  <metadata
     id="metadata8">
    <rdf:RDF>
      <cc:Work
         rdf:about="">
        <dc:format>image/svg+xml</dc:format>
        <dc:type
           rdf:resource="http://purl.org/dc/dcmitype/StillImage" />
        <dc:title />
      </cc:Work>
    </rdf:RDF>
  </metadata>
  <defs
     id="defs6">
    <filter
       color-interpolation-filters="sRGB"
       id="filter4124">
      <feFlood
         id="feFlood4126"
         flood-opacity="0.5"
         flood-color="rgb(0,0,0)"
         result="flood" />
      <feComposite
         in2="SourceGraphic"
         operator="in"
         in="flood"
         result="composite1"
         id="feComposite4128" />
      <feGaussianBlur
         id="feGaussianBlur4130"
         stdDeviation="2"
         result="blur" />
      <feOffset
         id="feOffset4132"
         dx="4"
         dy="4"
         result="offset" />
      <feComposite
         in2="offset"
         operator="over"
         in="SourceGraphic"
         result="fbSourceGraphic"
         id="feComposite4134" />
      <feColorMatrix
         result="fbSourceGraphicAlpha"
         in="fbSourceGraphic"
         values="0 0 0 -1 0 0 0 0 -1 0 0 0 0 -1 0 0 0 0 1 0"
         id="feColorMatrix4136" />
      <feFlood
         id="feFlood4138"
         flood-opacity="0.5"
         flood-color="rgb(0,0,0)"
         result="flood"
         in="fbSourceGraphic" />
      <feComposite
         in2="fbSourceGraphic"
         operator="in"
         in="flood"
         result="composite1"
         id="feComposite4140" />
      <feGaussianBlur
         id="feGaussianBlur4142"
         stdDeviation="5"
         result="blur" />
      <feOffset
         id="feOffset4144"
         dx="4"
         dy="4"
         result="offset" />
      <feComposite
         in2="offset"
         operator="over"
         in="fbSourceGraphic"
         result="fbSourceGraphic"
         id="feComposite4146" />
      <feColorMatrix
         result="fbSourceGraphicAlpha"
         in="fbSourceGraphic"
         values="0 0 0 -1 0 0 0 0 -1 0 0 0 0 -1 0 0 0 0 1 0"
         id="feColorMatrix4148" />
      <feFlood
         id="feFlood4150"
         flood-opacity="0.5"
         flood-color="rgb(0,0,0)"
         result="flood"
         in="fbSourceGraphic" />
      <feComposite
         in2="fbSourceGraphic"
         operator="in"
         in="flood"
         result="composite1"
         id="feComposite4152" />
      <feGaussianBlur
         id="feGaussianBlur4154"
         stdDeviation="10"
         result="blur" />
      <feOffset
         id="feOffset4156"
         dx="4"
         dy="4"
         result="offset" />
      <feComposite
         in2="offset"
         operator="over"
         in="fbSourceGraphic"
         result="fbSourceGraphic"
         id="feComposite4158" />
      <feColorMatrix
         result="fbSourceGraphicAlpha"
         in="fbSourceGraphic"
         values="0 0 0 -1 0 0 0 0 -1 0 0 0 0 -1 0 0 0 0 1 0"
         id="feColorMatrix4160" />
      <feFlood
         id="feFlood4162"
         flood-opacity="0.5"
         flood-color="rgb(0,0,0)"
         result="flood"
         in="fbSourceGraphic" />
      <feComposite
         in2="fbSourceGraphic"
         operator="in"
         in="flood"
         result="composite1"
         id="feComposite4164" />
      <feGaussianBlur
         id="feGaussianBlur4166"
         stdDeviation="10"
         result="blur" />
      <feOffset
         id="feOffset4168"
         dx="10"
         dy="10"
         result="offset" />
      <feComposite
         in2="offset"
         operator="over"
         in="fbSourceGraphic"
         result="composite2"
         id="feComposite4170" />
    </filter>
    <filter
       y="-0.25"
       height="1.5"
       color-interpolation-filters="sRGB"
       id="filter3022">
      <feGaussianBlur
         result="result6"
         stdDeviation="5"
         id="feGaussianBlur3024" />
      <feComposite
         in2="result6"
         operator="atop"
         in="SourceGraphic"
         result="result8"
         id="feComposite3026" />
      <feComposite
         in2="SourceAlpha"
         operator="over"
         in="result8"
         result="result9"
         id="feComposite3028" />
      <feColorMatrix
         result="result10"
         values="1 0 0 0 0 0 1 0 0 0 0 0 1 0 0 0 0 0 1 0 "
         id="feColorMatrix3030" />
      <feBlend
         in2="result6"
         mode="normal"
         in="result10"
         result="fbSourceGraphic"
         id="feBlend3032" />
      <feColorMatrix
         id="feColorMatrix3034"
         values="0 0 0 -1 0 0 0 0 -1 0 0 0 0 -1 0 0 0 0 1 0"
         in="fbSourceGraphic"
         result="fbSourceGraphicAlpha" />
      <feFlood
         in="fbSourceGraphic"
         result="flood"
         flood-color="rgb(0,0,0)"
         flood-opacity="0.8"
         id="feFlood3036" />
      <feComposite
         in2="fbSourceGraphic"
         operator="in"
         in="flood"
         result="composite1"
         id="feComposite3038" />
      <feGaussianBlur
         result="blur"
         stdDeviation="8"
         id="feGaussianBlur3040" />
      <feOffset
         result="offset"
         dy="10"
         dx="10"
         id="feOffset3042" />
      <feComposite
         in2="offset"
         operator="over"
         in="fbSourceGraphic"
         result="composite2"
         id="feComposite3044" />
    </filter>
    <filter
       x="0"
       y="0"
       width="1"
       height="1"
       color-interpolation-filters="sRGB"
       id="filter6453">
      <feColorMatrix
         result="result2"
         type="saturate"
         in="SourceGraphic"
         values="0"
         id="feColorMatrix6455" />
      <feFlood
         result="result1"
         flood-opacity="1"
         flood-color="rgb(160,67,0)"
         id="feFlood6457" />
      <feBlend
         in2="result1"
         mode="multiply"
         in="result2"
         result="result5"
         id="feBlend6459" />
      <feBlend
         in2="result2"
         mode="screen"
         result="result3"
         id="feBlend6461" />
      <feComposite
         in2="result2"
         operator="arithmetic"
         k1="0"
         k2="1"
         k3="0"
         k4="0"
         result="result4"
         id="feComposite6463" />
      <feComposite
         in2="SourceAlpha"
         operator="in"
         in="result4"
         id="feComposite6465" />
    </filter>
    <filter
       x="0"
       y="0"
       width="1"
       height="1"
       color-interpolation-filters="sRGB"
       id="filter6467">
      <feColorMatrix
         result="result2"
         type="saturate"
         in="SourceGraphic"
         values="0"
         id="feColorMatrix6469" />
      <feFlood
         result="result1"
         flood-opacity="1"
         flood-color="rgb(160,67,0)"
         id="feFlood6471" />
      <feBlend
         in2="result1"
         mode="multiply"
         in="result2"
         result="result5"
         id="feBlend6473" />
      <feBlend
         in2="result2"
         mode="screen"
         result="result3"
         id="feBlend6475" />
      <feComposite
         in2="result2"
         operator="arithmetic"
         k1="0"
         k2="1"
         k3="0"
         k4="0"
         result="result4"
         id="feComposite6477" />
      <feComposite
         in2="SourceAlpha"
         operator="in"
         in="result4"
         id="feComposite6479" />
    </filter>
    <filter
       x="0"
       y="0"
       width="1"
       height="1"
       color-interpolation-filters="sRGB"
       id="filter6481">
      <feColorMatrix
         result="result2"
         type="saturate"
         in="SourceGraphic"
         values="0"
         id="feColorMatrix6483" />
      <feFlood
         result="result1"
         flood-opacity="1"
         flood-color="rgb(160,67,0)"
         id="feFlood6485" />
      <feBlend
         in2="result1"
         mode="multiply"
         in="result2"
         result="result5"
         id="feBlend6487" />
      <feBlend
         in2="result2"
         mode="screen"
         result="result3"
         id="feBlend6489" />
      <feComposite
         in2="result2"
         operator="arithmetic"
         k1="0"
         k2="1"
         k3="0"
         k4="0"
         result="result4"
         id="feComposite6491" />
      <feComposite
         in2="SourceAlpha"
         operator="in"
         in="result4"
         id="feComposite6493" />
    </filter>
  </defs>
  <path
     d="m 0,764.37193 0,-435.62806 464.68309,0 464.68309,0 0,435.62806 0,435.62807 -464.68309,0 L 0,1200 0,764.37193 z"
     id="path3063"
     style="fill:#fdfdfc;fill-opacity:0" />
  <g
     transform="translate(145.45762,2.5762711)"
     id="g6514">
    <path
       d="m 608.29974,1108.5713 c -15.08886,-3.0592 -31.74803,-15.883 -37.89012,-29.1668 -3.12003,-6.7478 -3.21992,-8.8488 -3.93881,-82.84502 l -0.73759,-75.92164 -4.29163,-9.28821 c -4.97135,-10.75931 -16.21454,-21.85034 -23.47574,-23.15805 -2.57767,-0.46422 -27.58892,-1.04435 -55.58055,-1.28918 -42.52766,-0.37194 -51.92714,-0.83689 -57.17959,-2.82839 -13.92353,-5.27921 -24.61744,-15.75037 -29.20139,-28.59314 -1.54581,-4.33081 -2.01503,-18.33959 -2.06417,-61.6248 l -0.0636,-56.01986 4.2391,-8.84524 c 6.10035,-12.72884 15.64883,-20.76375 29.58676,-24.89684 6.78033,-2.01061 17.10196,-2.37933 67.12089,-2.39777 66.02207,-0.0243 70.45161,-0.51336 87.96764,-9.71167 13.08563,-6.87175 22.88925,-16.69276 28.54529,-28.59591 l 4.55324,-9.58235 0.73759,-105.40577 0.7376,-105.40578 3.58829,-7.28641 c 5.32296,-10.80878 15.48296,-20.44697 25.91539,-24.58433 l 8.85111,-3.51022 78.92237,0 78.92236,0 8.7137,3.50939 c 10.81261,4.35474 20.40753,13.6681 25.69911,24.94498 l 3.94199,8.4008 0,98.03474 0,98.03474 -3.32607,8.21203 c -3.92016,9.67884 -14.16161,20.54608 -23.8677,25.32609 -6.60864,3.25459 -7.9994,3.33141 -73.85636,4.07954 -74.1722,0.84261 -71.46227,0.49312 -83.39491,10.75509 -3.27125,2.81326 -7.91808,8.67 -10.32629,13.01499 l -4.37857,7.89998 0,55.28275 0,55.28275 4.41343,8.57241 c 4.4317,8.60787 13.74524,17.14259 23.61508,21.64033 3.27198,1.49107 15.76895,2.23536 47.94349,2.85538 41.11334,0.7923 43.88474,1.02 50.15627,4.1212 9.33814,4.6176 18.9816,14.47572 23.46782,23.99025 l 3.82309,8.10814 0,92.87502 0,92.87498 -3.56885,7.2463 c -4.64903,9.4395 -13.60122,18.0557 -23.72206,22.8317 l -8.11352,3.8288 -78.18477,0.2374 c -43.00162,0.1306 -80.93633,-0.3205 -84.29934,-1.0024 z m -501.13901,-2.1685 c -0.5211,-1.357 -0.94745,-42.501 -0.94745,-91.431 0,-81.86844 0.2006,-89.16411 2.51528,-91.47724 2.28147,-2.27997 5.88108,-2.43532 38.72359,-1.67131 48.43465,1.12672 62.11411,4.15797 82.1769,18.20965 11.69626,8.1919 19.95851,17.8149 26.38285,30.72797 13.15129,26.43438 12.69862,62.21773 -1.14398,90.43073 -6.97958,14.2253 -22.51406,29.5908 -36.65512,36.2564 -19.87303,9.3675 -24.39573,10.0702 -69.37811,10.7798 -37.07951,0.5849 -40.81134,0.4215 -41.67396,-1.825 z m 63.30718,-22.8593 c 8.97112,-0.7937 20.25628,-2.792 25.07814,-4.4407 17.48357,-5.978 30.84224,-18.7692 36.93779,-35.3687 3.14978,-8.5775 4.4558,-36.4323 2.21368,-47.21377 -7.10212,-34.1514 -32.78152,-49.88745 -81.64714,-50.03244 l -17.33341,-0.0514 0,68.30491 c 0,37.5677 0.44255,68.7472 0.98345,69.2877 1.3911,1.3902 14.73567,1.1983 33.76749,-0.4855 z m 144.36789,23.0737 c -0.4295,-1.1185 -0.57908,-5.9397 -0.33241,-10.7138 l 0.44848,-8.6802 11.06388,-0.7371 11.06389,-0.7371 0.3831,-70.3934 0.38309,-70.39335 -9.48235,0 c -13.98841,0 -14.1492,-0.13401 -14.1492,-11.79365 0,-7.76239 0.52285,-10.20451 2.33343,-10.89883 3.04388,-1.16728 67.52366,-1.16728 70.56754,0 1.81058,0.69432 2.33343,3.13644 2.33343,10.89883 0,11.65963 -0.16079,11.79365 -14.1492,11.79365 l -9.48235,0 0.38309,70.39335 0.38311,70.3934 11.06388,0.7371 11.06388,0.7371 0,10.3194 0,10.3195 -36.54719,0.3944 c -29.97507,0.3234 -36.68761,0.029 -37.3281,-1.6393 z m 125.67417,-0.3249 c -1.56388,-4.0727 -0.9851,-14.7139 0.93896,-17.264 1.34505,-1.7826 4.63804,-2.5569 12.17028,-2.8616 l 10.32629,-0.4177 0,-70.0248 0,-70.02485 -10.75153,-0.7371 c -12.35969,-0.84736 -13.53314,-1.89023 -13.56643,-12.0569 -0.0379,-11.57836 -0.19509,-11.53041 37.79697,-11.53041 20.05299,0 34.31232,0.60385 36.03664,1.52607 2.32857,1.2454 2.85339,3.1339 2.85339,10.26759 0,10.54951 -1.54597,11.79365 -14.65486,11.79365 l -8.94809,0 0,70.76195 0,70.7619 10.14567,0 c 12.49232,0 13.76442,1.2343 13.16582,12.7749 l -0.44613,8.6011 -37.08099,0.3935 c -32.84951,0.3486 -37.18426,0.1246 -37.98599,-1.9633 z M 122.76856,885.94414 c -8.64971,-1.76069 -20.26372,-8.32706 -25.727594,-14.54594 -2.49899,-2.8443 -6.270326,-8.8504 -8.380746,-13.34688 l -3.83712,-8.1754 0,-79.60716 c 0,-60.15885 0.45796,-81.11395 1.87453,-85.77487 2.67319,-8.79555 13.276795,-21.11091 22.63732,-26.29168 l 7.94221,-4.39578 92.93662,-0.7371 92.93662,-0.7371 7.37592,-3.38972 c 9.30427,-4.27592 17.5731,-12.19673 22.62402,-21.6718 l 3.9293,-7.37103 0.73759,-88.4524 0.73759,-88.4524 4.05663,-7.69032 c 5.3701,-10.18032 12.29042,-16.87189 22.7555,-22.00331 l 8.5923,-4.21312 78.18477,0 c 70.79626,0 78.88623,0.24488 85.60743,2.59143 14.24298,4.97259 25.52282,17.72859 29.54255,33.40871 1.95892,7.64134 2.22126,20.75718 1.83738,91.86274 l -0.44779,82.94867 -3.50747,7.75501 c -4.82639,10.67117 -18.40731,23.10631 -28.50965,26.10441 -6.38506,1.89488 -19.28462,2.25864 -80.09689,2.25864 -80.21242,0 -82.6242,0.2385 -94.62885,9.35768 -6.48233,4.9242 -12.82997,13.79186 -15.65883,21.87537 -1.17533,3.35852 -1.95827,30.22178 -2.50553,85.96638 -0.79486,80.96585 -0.8008,81.09038 -4.17636,87.40791 -4.83359,9.04632 -14.05336,17.6863 -23.69228,22.20237 l -8.33178,3.90364 -89.24866,0.24875 c -49.08676,0.13681 -92.08819,-0.32926 -95.55873,-1.0357 z M 115.421,605.73925 c -9.59367,-3.72037 -21.463655,-14.96478 -25.87486,-24.51119 -3.19124,-6.90626 -3.24785,-8.15947 -3.24785,-71.89388 l 0,-64.86509 3.85127,-8.20629 c 4.816791,-10.26363 12.94338,-18.35149 23.43964,-23.32794 l 8.11351,-3.84673 67.85849,0 67.85848,0 8.33178,3.90364 c 10.07215,4.71904 18.4216,12.81545 23.38468,22.67597 l 3.68797,7.32714 0,65.6022 0,65.60219 -4.10069,8.34481 c -4.50343,9.16436 -12.25175,16.97032 -22.01737,22.18113 -6.31789,3.37115 -6.53219,3.38173 -74.93208,3.70147 -65.94428,0.30826 -68.89594,0.20437 -76.35297,-2.68743 z"
       id="path3061"
       style="fill:#f6daa1" />
    <path
       d="m 108.64228,1104.9452 c -0.5246,-1.3662 -0.95382,-41.8542 -0.95382,-89.9734 0,-77.57024 0.26282,-87.75207 2.31815,-89.80604 1.92219,-1.92092 6.52064,-2.3164 26.92211,-2.31537 52.8439,0.003 76.83835,5.40519 96.64301,21.75997 19.87966,16.41669 30.48628,41.31101 30.48628,71.55294 0,34.3111 -18.40093,66.2834 -45.86059,79.6844 -19.12044,9.3313 -24.22398,10.142 -68.61877,10.8994 -36.50986,0.6228 -40.06539,0.4663 -40.93637,-1.8019 z m 79.84079,-22.1649 c 24.62149,-5.7772 40.69631,-20.9917 46.76029,-44.2575 1.31647,-5.0508 2.26133,-14.9595 2.26133,-23.7141 0,-35.7163 -15.09868,-56.56404 -48.0065,-66.2858 -6.63199,-1.95925 -14.39799,-2.6241 -31.65346,-2.70989 l -22.86536,-0.11366 -0.38439,68.55065 c -0.21141,37.7028 -0.0274,69.481 0.40884,70.6182 0.65522,1.7079 4.57236,1.8949 22.51217,1.0749 11.94541,-0.546 25.88059,-1.9692 30.96708,-3.1628 z m 127.50479,15.1309 0.4392,-9.2138 11.06388,-0.7371 11.06388,-0.7371 0,-71.499 0,-71.49905 -8.11351,-0.38216 c -14.72159,-0.69341 -14.75185,-0.71504 -14.75185,-10.54475 0,-6.53634 0.57211,-8.87882 2.33344,-9.55426 3.04354,-1.16715 64.57363,-1.16715 67.61717,0 1.76132,0.67544 2.33343,3.01792 2.33343,9.55426 0,9.82971 -0.0302,9.85134 -14.75184,10.54475 l -8.11352,0.38216 0,71.49905 0,71.499 11.06388,0.7371 11.06389,0.7371 0.43919,9.2138 0.43918,9.2138 -36.2828,0 -36.28279,0 0.43917,-9.2138 z m 125.99761,6.9077 c -1.53208,-3.9899 -1.00287,-13.223 0.86489,-15.0896 1.02876,-1.028 5.96005,-1.769 11.77337,-1.769 9.15134,0 10.0718,-0.2825 10.80921,-3.317 0.44334,-1.8243 0.62195,-34.1647 0.3969,-71.8675 l -0.40916,-68.55065 -10.75153,-0.73711 c -12.01415,-0.82367 -13.5307,-2.00667 -13.56643,-10.58269 -0.0411,-9.8655 0.66826,-10.0562 37.40496,-10.0562 23.53738,0 33.29081,0.49924 34.56146,1.76905 0.97362,0.97297 1.77022,4.82065 1.77022,8.5504 0,3.72974 -0.7966,7.57742 -1.77022,8.55039 -1.02974,1.02906 -5.9663,1.76905 -11.80148,1.76905 l -10.03125,0 0,72.23616 0,72.2361 10.14567,0 c 12.17641,0 13.80665,1.3996 13.17399,11.3106 l -0.4543,7.117 -35.60548,0.3944 c -31.50352,0.3489 -35.70978,0.1228 -36.51082,-1.9634 z m 162.84014,0.9514 c -13.17003,-4.1034 -27.50431,-16.0413 -32.52078,-27.0841 -2.64197,-5.8157 -2.82088,-10.4426 -2.85125,-73.7362 -0.0202,-42.13319 -0.65046,-71.51838 -1.67577,-78.13295 -1.90098,-12.26381 -7.7678,-24.85266 -14.81992,-31.80018 -10.12739,-9.97719 -8.20927,-9.68579 -69.0974,-10.49709 -54.08618,-0.72067 -55.47381,-0.8131 -62.24522,-4.14624 -8.91075,-4.38619 -18.50942,-13.96489 -22.43615,-22.38948 -2.9364,-6.29986 -3.11401,-9.38762 -3.52717,-61.31586 -0.42441,-53.34514 -0.35538,-54.8947 2.82389,-63.38644 2.28811,-6.11145 5.51638,-10.90169 10.83673,-16.08 12.8276,-12.48513 12.65237,-12.45823 84.87421,-13.03646 69.25263,-0.55446 70.43672,-0.69183 89.61662,-10.39628 11.42953,-5.78299 21.88673,-15.61768 27.43153,-25.79857 8.13592,-14.93845 8.29701,-17.35591 8.32072,-124.86261 l 0.0218,-98.90493 4.49464,-8.98861 c 5.04573,-10.09071 12.04696,-16.9531 21.98373,-21.5478 6.57065,-3.03822 8.45282,-3.10417 88.58602,-3.10417 80.65598,0 81.97465,0.047 88.73111,3.16831 8.74943,4.04191 17.46167,12.74839 22.02144,22.00684 l 3.57424,7.2574 0.39915,98.26689 c 0.39099,96.25319 0.33663,98.43394 -2.65276,106.41852 -3.5938,9.5989 -16.5877,22.64461 -25.86957,25.9727 -4.52844,1.6237 -20.41374,2.26433 -72.18936,2.91127 -65.53693,0.81891 -66.47144,0.87287 -73.29665,4.23258 -7.85364,3.86598 -15.72297,11.94112 -20.68247,21.22343 -3.35899,6.28677 -3.38305,6.73555 -3.38305,63.08877 l 0,56.75695 4.38345,8.64552 c 5.08267,10.02457 13.02235,17.10088 24.07001,21.45256 7.18879,2.83169 10.768,3.07157 45.83022,3.07157 42.91385,0 49.16895,1.0132 60.82654,9.85252 8.14668,6.17721 15.4104,17.6693 17.5733,27.80316 2.48264,11.63192 1.24458,178.10968 -1.37734,185.20608 -3.30363,8.9414 -12.04776,19.0212 -20.75236,23.9222 l -8.11352,4.5683 -82.61032,0.2658 c -45.43568,0.1462 -84.26991,-0.2514 -86.29829,-0.8834 z M 115.12502,881.27664 C 104.47995,877.19265 94.187487,866.65572 90.05088,855.60697 87.00615,847.4746 86.94922,845.59704 87.35694,766.76899 l 0.41653,-80.53001 3.38037,-6.32654 c 4.603533,-8.61575 13.94863,-17.64459 22.21531,-21.46348 6.72912,-3.10861 8.60989,-3.18221 99.795,-3.90542 l 92.93662,-0.73711 7.37592,-3.92669 c 8.89875,-4.73741 16.97506,-12.90294 21.63293,-21.87192 l 3.4452,-6.63393 0.73759,-87.7153 0.7376,-87.7153 3.86471,-8.23564 c 4.70679,-10.03007 11.8903,-17.456 21.42246,-22.14535 l 7.16688,-3.52576 78.92237,-0.4187 78.92237,-0.41869 9.18467,3.88657 c 10.58852,4.48063 18.13927,11.99343 23.39831,23.28079 l 3.53021,7.57678 0.0147,85.81725 c 0.0133,82.90058 -0.0882,86.09153 -3.00716,93.88775 -3.55952,9.50737 -16.58473,22.56558 -25.8392,25.90466 -4.62351,1.66821 -21.73035,2.26116 -83.99083,2.91129 -76.96185,0.80363 -78.28862,0.86759 -84.82311,4.08846 -9.27417,4.57128 -17.50054,12.99717 -21.99315,22.52656 l -3.82258,8.10813 -0.73759,81.08137 -0.73759,81.08137 -3.61799,7.34771 c -4.96233,10.07788 -14.34329,18.76877 -24.41764,22.62145 -8.27025,3.16275 -9.44134,3.19959 -99.33029,3.12367 -88.70473,-0.0749 -91.16116,-0.15345 -99.01425,-3.16632 z m 5.53375,-275.97479 c -12.87958,-3.46452 -22.952651,-12.4621 -29.09073,-25.98478 -2.85819,-6.29681 -2.99298,-9.46365 -3.01017,-70.71999 l -0.018,-64.12799 3.44868,-7.40093 c 1.978357,-4.2456 6.692866,-10.31581 11.05802,-14.23785 12.90429,-11.59438 12.42669,-11.53087 86.72206,-11.53087 61.65262,0 65.76989,0.16537 73.19041,2.93991 9.99146,3.7358 19.56323,12.89435 24.52358,23.46488 l 3.86628,8.23906 0,61.91668 c 0,46.01638 -0.48385,63.50973 -1.88413,68.12007 -4.11595,13.55143 -18.66454,26.75116 -32.83131,29.78738 -11.08812,2.37639 -126.88341,1.97993 -135.97471,-0.46557 z"
       id="path3059"
       style="fill:#f6d25c" />
    <path
       d="m 108.64228,1104.9452 c -0.5246,-1.3662 -0.95382,-41.8542 -0.95382,-89.9734 0,-77.57024 0.26282,-87.75207 2.31815,-89.80604 1.92219,-1.92092 6.52064,-2.3164 26.92211,-2.31537 52.8439,0.003 76.83835,5.40519 96.64301,21.75997 19.87966,16.41669 30.48628,41.31101 30.48628,71.55294 0,34.3111 -18.40093,66.2834 -45.86059,79.6844 -19.12044,9.3313 -24.22398,10.142 -68.61877,10.8994 -36.50986,0.6228 -40.06539,0.4663 -40.93637,-1.8019 z m 79.84079,-22.1649 c 24.62149,-5.7772 40.69631,-20.9917 46.76029,-44.2575 1.31647,-5.0508 2.26133,-14.9595 2.26133,-23.7141 0,-35.7163 -15.09868,-56.56404 -48.0065,-66.2858 -6.63199,-1.95925 -14.39799,-2.6241 -31.65346,-2.70989 l -22.86536,-0.11366 -0.38439,68.55065 c -0.21141,37.7028 -0.0274,69.481 0.40884,70.6182 0.65522,1.7079 4.57236,1.8949 22.51217,1.0749 11.94541,-0.546 25.88059,-1.9692 30.96708,-3.1628 z m 127.50479,15.1309 0.4392,-9.2138 11.06388,-0.7371 11.06388,-0.7371 0,-71.499 0,-71.49905 -8.11351,-0.38216 c -14.72159,-0.69341 -14.75185,-0.71504 -14.75185,-10.54475 0,-6.53634 0.57211,-8.87882 2.33344,-9.55426 3.04354,-1.16715 64.57363,-1.16715 67.61717,0 1.76132,0.67544 2.33343,3.01792 2.33343,9.55426 0,9.82971 -0.0302,9.85134 -14.75184,10.54475 l -8.11352,0.38216 0,71.49905 0,71.499 11.06388,0.7371 11.06389,0.7371 0.43919,9.2138 0.43918,9.2138 -36.2828,0 -36.28279,0 0.43917,-9.2138 z m 125.99761,6.9077 c -1.53208,-3.9899 -1.00287,-13.223 0.86489,-15.0896 1.02876,-1.028 5.96005,-1.769 11.77337,-1.769 9.15134,0 10.0718,-0.2825 10.80921,-3.317 0.44334,-1.8243 0.62195,-34.1647 0.3969,-71.8675 l -0.40916,-68.55065 -10.75153,-0.73711 c -12.01415,-0.82367 -13.5307,-2.00667 -13.56643,-10.58269 -0.0411,-9.8655 0.66826,-10.0562 37.40496,-10.0562 23.53738,0 33.29081,0.49924 34.56146,1.76905 0.97362,0.97297 1.77022,4.82065 1.77022,8.5504 0,3.72974 -0.7966,7.57742 -1.77022,8.55039 -1.02974,1.02906 -5.9663,1.76905 -11.80148,1.76905 l -10.03125,0 0,72.23616 0,72.2361 10.14567,0 c 12.17641,0 13.80665,1.3996 13.17399,11.3106 l -0.4543,7.117 -35.60548,0.3944 c -31.50352,0.3489 -35.70978,0.1228 -36.51082,-1.9634 z m 159.77246,-2.6219 c -12.83481,-5.2766 -21.44018,-12.8101 -28.05002,-24.5561 -1.67829,-2.9825 -2.21772,-18.1695 -2.82755,-79.60721 -0.68741,-69.2539 -0.99436,-76.56699 -3.49509,-83.26978 -4.60314,-12.33798 -11.85621,-22.24413 -19.63011,-26.81059 l -7.10007,-4.17065 -54.58183,-0.8238 c -62.34161,-0.94093 -63.72767,-1.17773 -75.44721,-12.8895 -13.02395,-13.01532 -13.00185,-12.89698 -13.50325,-72.27568 -0.37116,-43.95291 -0.0773,-53.32848 1.88287,-60.06661 3.03634,-10.43774 12.64177,-22.16513 22.16352,-27.05973 l 7.37188,-3.78948 66.3833,-0.78335 c 65.04082,-0.7675 66.57721,-0.85356 75.972,-4.25612 23.87221,-8.6459 38.00092,-21.25259 45.99878,-41.04355 l 3.41989,-8.46262 0.7376,-104.66868 0.73759,-104.66867 3.90251,-7.37103 c 6.09101,-11.50465 15.33479,-18.8116 28.09043,-22.20471 11.90102,-3.16577 148.87753,-3.06856 161.1056,0.1144 14.95849,3.89362 25.89148,14.10572 31.10044,29.04979 1.85788,5.33012 2.20222,20.79057 2.22036,99.69366 0.0252,109.70609 0.62386,104.56657 -13.8665,119.04732 -13.55535,13.54637 -15.5585,13.85616 -89.66616,13.86641 -36.96709,0.004 -61.56309,0.59359 -65.03076,1.55593 -9.07772,2.51922 -20.3154,12.77355 -25.84535,23.58377 l -4.86905,9.51826 0,54.66532 c 0,58.75388 0.14902,60.11351 7.92904,72.34519 4.69966,7.38877 10.84985,12.11292 21.72404,16.68693 7.64556,3.21595 10.36826,3.44631 47.2059,3.99408 21.50081,0.31973 42.23283,1.2769 46.07117,2.12708 15.58226,3.45138 27.53181,18.33733 30.60083,38.12043 1.19416,7.69767 1.57245,35.46436 1.24521,91.40081 l -0.47003,80.34428 -3.53799,8.8452 c -4.60658,11.5168 -13.1183,20.0035 -24.17705,24.1058 -8.34386,3.0952 -10.31937,3.1662 -87.03588,3.132 -78.45242,-0.035 -78.50305,-0.037 -86.72906,-3.4187 z M 119.2338,881.60226 c -11.22526,-3.38654 -20.592489,-11.52751 -27.17573,-23.6182 -2.66836,-4.90066 -2.80941,-9.34176 -2.80941,-88.4524 0,-82.64145 0.025,-83.33878 3.19743,-89.18951 4.212805,-7.76942 14.52011,-17.63248 21.8807,-20.93765 5.41689,-2.43238 13.52139,-2.7101 98.83736,-3.38676 l 92.93662,-0.7371 9.33051,-5.05548 c 10.09033,-5.46717 16.16576,-11.79889 21.31802,-22.21734 3.2535,-6.57894 3.28681,-7.36714 4.0183,-95.08633 l 0.73759,-88.4524 3.98694,-7.55288 c 2.1928,-4.15409 7.04242,-10.24065 10.77691,-13.5257 12.23704,-10.76434 10.87422,-10.61687 98.11493,-10.61687 l 77.68637,0 9.02761,4.50816 c 10.16209,5.07469 15.39578,10.53036 20.42421,21.29046 l 3.44464,7.37103 0.0148,85.81725 c 0.0133,82.95315 -0.0866,86.08709 -3.01286,93.90298 -2.17932,5.82089 -5.24046,10.10715 -10.92851,15.30225 -13.23752,12.09032 -13.34518,12.10356 -98.43834,12.10356 -81.60247,0 -79.59511,-0.22135 -93.56241,10.31707 -5.83257,4.40072 -8.92762,8.26774 -12.62988,15.78003 l -4.90437,9.95082 -0.73759,81.11644 -0.73759,81.11644 -3.51565,7.13641 c -4.73878,9.61929 -13.87055,18.05642 -23.39903,21.61912 -7.55785,2.82588 -11.39406,2.935 -98.90013,2.8132 -50.07052,-0.0697 -92.81214,-0.66217 -94.98139,-1.3166 z m 5.18878,-275.73209 C 110.37927,603.01002 98.136523,593.32131 92.04454,580.24672 l -3.50465,-7.52165 -0.0145,-62.75972 c -0.0162,-70.66857 0.0498,-71.18626 10.609501,-83.17476 3.287229,-3.73201 9.377829,-8.57841 13.534669,-10.76977 l 7.55793,-3.98428 69.33367,0 69.33366,0 7.46954,3.93954 c 7.81652,4.12256 16.6311,12.79424 20.39118,20.06061 4.67971,9.04357 5.53294,22.43437 5.05959,79.40596 l -0.46625,56.11405 -5.16314,10.11104 c -3.69937,7.24449 -7.18151,11.6337 -12.2824,15.48185 -12.4433,9.38729 -11.70978,9.29952 -80.65422,9.65032 -34.48244,0.17545 -65.4544,-0.24293 -68.82658,-0.92974 z"
       id="path3057"
       style="fill:#fdc10c;filter:url(#filter6453)" />
    <path
       d="m 108.64228,1104.9452 c -0.5246,-1.3662 -0.95382,-41.8542 -0.95382,-89.9734 0,-77.57024 0.26282,-87.75207 2.31815,-89.80604 1.92219,-1.92092 6.52064,-2.3164 26.92211,-2.31537 52.8439,0.003 76.83835,5.40519 96.64301,21.75997 19.87966,16.41669 30.48628,41.31101 30.48628,71.55294 0,34.3111 -18.40093,66.2834 -45.86059,79.6844 -19.12044,9.3313 -24.22398,10.142 -68.61877,10.8994 -36.50986,0.6228 -40.06539,0.4663 -40.93637,-1.8019 z m 79.84079,-22.1649 c 24.62149,-5.7772 40.69631,-20.9917 46.76029,-44.2575 1.31647,-5.0508 2.26133,-14.9595 2.26133,-23.7141 0,-35.7163 -15.09868,-56.56404 -48.0065,-66.2858 -6.63199,-1.95925 -14.39799,-2.6241 -31.65346,-2.70989 l -22.86536,-0.11366 -0.38439,68.55065 c -0.21141,37.7028 -0.0274,69.481 0.40884,70.6182 0.65522,1.7079 4.57236,1.8949 22.51217,1.0749 11.94541,-0.546 25.88059,-1.9692 30.96708,-3.1628 z m 127.50479,15.1309 0.4392,-9.2138 11.06388,-0.7371 11.06388,-0.7371 0,-71.499 0,-71.49905 -8.11351,-0.38216 c -14.72159,-0.69341 -14.75185,-0.71504 -14.75185,-10.54475 0,-6.53634 0.57211,-8.87882 2.33344,-9.55426 3.04354,-1.16715 64.57363,-1.16715 67.61717,0 1.76132,0.67544 2.33343,3.01792 2.33343,9.55426 0,9.82971 -0.0302,9.85134 -14.75184,10.54475 l -8.11352,0.38216 0,71.49905 0,71.499 11.06388,0.7371 11.06389,0.7371 0.43919,9.2138 0.43918,9.2138 -36.2828,0 -36.28279,0 0.43917,-9.2138 z m 125.99761,6.9077 c -1.53208,-3.9899 -1.00287,-13.223 0.86489,-15.0896 1.02876,-1.028 5.96005,-1.769 11.77337,-1.769 9.15134,0 10.0718,-0.2825 10.80921,-3.317 0.44334,-1.8243 0.62195,-34.1647 0.3969,-71.8675 l -0.40916,-68.55065 -10.75153,-0.73711 c -12.01415,-0.82367 -13.5307,-2.00667 -13.56643,-10.58269 -0.0411,-9.8655 0.66826,-10.0562 37.40496,-10.0562 23.53738,0 33.29081,0.49924 34.56146,1.76905 0.97362,0.97297 1.77022,4.82065 1.77022,8.5504 0,3.72974 -0.7966,7.57742 -1.77022,8.55039 -1.02974,1.02906 -5.9663,1.76905 -11.80148,1.76905 l -10.03125,0 0,72.23616 0,72.2361 10.14567,0 c 12.17641,0 13.80665,1.3996 13.17399,11.3106 l -0.4543,7.117 -35.60548,0.3944 c -31.50352,0.3489 -35.70978,0.1228 -36.51082,-1.9634 z M 119.2338,881.60226 c -11.22526,-3.38654 -20.592489,-11.52751 -27.17573,-23.6182 -2.66836,-4.90066 -2.80941,-9.34176 -2.80941,-88.4524 0,-82.64145 0.025,-83.33878 3.19743,-89.18951 4.212805,-7.76942 14.52011,-17.63248 21.8807,-20.93765 5.41689,-2.43238 13.52139,-2.7101 98.83736,-3.38676 l 92.93662,-0.7371 9.33051,-5.05548 c 10.09033,-5.46717 16.16576,-11.79889 21.31802,-22.21734 3.2535,-6.57894 3.28681,-7.36714 4.0183,-95.08633 l 0.73759,-88.4524 3.98694,-7.55288 c 2.1928,-4.15409 7.04242,-10.24065 10.77691,-13.5257 12.23704,-10.76434 10.87422,-10.61687 98.11493,-10.61687 l 77.68637,0 9.02761,4.50816 c 10.16209,5.07469 15.39578,10.53036 20.42421,21.29046 l 3.44464,7.37103 0.0148,85.81725 c 0.0133,82.95315 -0.0866,86.08709 -3.01286,93.90298 -2.17932,5.82089 -5.24046,10.10715 -10.92851,15.30225 -13.23752,12.09032 -13.34518,12.10356 -98.43834,12.10356 -81.60247,0 -79.59511,-0.22135 -93.56241,10.31707 -5.83257,4.40072 -8.92762,8.26774 -12.62988,15.78003 l -4.90437,9.95082 -0.73759,81.11644 -0.73759,81.11644 -3.51565,7.13641 c -4.73878,9.61929 -13.87055,18.05642 -23.39903,21.61912 -7.55785,2.82588 -11.39406,2.935 -98.90013,2.8132 -50.07052,-0.0697 -92.81214,-0.66217 -94.98139,-1.3166 z m 5.18878,-275.73209 C 110.37927,603.01002 98.136523,593.32131 92.04454,580.24672 l -3.50465,-7.52165 -0.0145,-62.75972 c -0.0162,-70.66857 0.0498,-71.18626 10.609501,-83.17476 3.287229,-3.73201 9.377829,-8.57841 13.534669,-10.76977 l 7.55793,-3.98428 69.33367,0 69.33366,0 7.46954,3.93954 c 7.81652,4.12256 16.6311,12.79424 20.39118,20.06061 4.67971,9.04357 5.53294,22.43437 5.05959,79.40596 l -0.46625,56.11405 -5.16314,10.11104 c -3.69937,7.24449 -7.18151,11.6337 -12.2824,15.48185 -12.4433,9.38729 -11.70978,9.29952 -80.65422,9.65032 -34.48244,0.17545 -65.4544,-0.24293 -68.82658,-0.92974 z"
       id="path3055"
       style="fill:#f4821e;filter:url(#filter6467)" />
    <path
       d="m 108.64228,1104.9452 c -0.5246,-1.3662 -0.95382,-41.8542 -0.95382,-89.9734 0,-77.57024 0.26282,-87.75207 2.31815,-89.80604 1.92219,-1.92092 6.52064,-2.3164 26.92211,-2.31537 52.8439,0.003 76.83835,5.40519 96.64301,21.75997 19.87966,16.41669 30.48628,41.31101 30.48628,71.55294 0,34.3111 -18.40093,66.2834 -45.86059,79.6844 -19.12044,9.3313 -24.22398,10.142 -68.61877,10.8994 -36.50986,0.6228 -40.06539,0.4663 -40.93637,-1.8019 z m 79.84079,-22.1649 c 24.62149,-5.7772 40.69631,-20.9917 46.76029,-44.2575 1.31647,-5.0508 2.26133,-14.9595 2.26133,-23.7141 0,-35.7163 -15.09868,-56.56404 -48.0065,-66.2858 -6.63199,-1.95925 -14.39799,-2.6241 -31.65346,-2.70989 l -22.86536,-0.11366 -0.38439,68.55065 c -0.21141,37.7028 -0.0274,69.481 0.40884,70.6182 0.65522,1.7079 4.57236,1.8949 22.51217,1.0749 11.94541,-0.546 25.88059,-1.9692 30.96708,-3.1628 z m 127.50479,15.1309 0.4392,-9.2138 11.06388,-0.7371 11.06388,-0.7371 0,-71.499 0,-71.49905 -8.11351,-0.38216 c -14.72159,-0.69341 -14.75185,-0.71504 -14.75185,-10.54475 0,-6.53634 0.57211,-8.87882 2.33344,-9.55426 3.04354,-1.16715 64.57363,-1.16715 67.61717,0 1.76132,0.67544 2.33343,3.01792 2.33343,9.55426 0,9.82971 -0.0302,9.85134 -14.75184,10.54475 l -8.11352,0.38216 0,71.49905 0,71.499 11.06388,0.7371 11.06389,0.7371 0.43919,9.2138 0.43918,9.2138 -36.2828,0 -36.28279,0 0.43917,-9.2138 z m 125.99761,6.9077 c -1.53208,-3.9899 -1.00287,-13.223 0.86489,-15.0896 1.02876,-1.028 5.96005,-1.769 11.77337,-1.769 9.15134,0 10.0718,-0.2825 10.80921,-3.317 0.44334,-1.8243 0.62195,-34.1647 0.3969,-71.8675 l -0.40916,-68.55065 -10.75153,-0.73711 c -12.01415,-0.82367 -13.5307,-2.00667 -13.56643,-10.58269 -0.0411,-9.8655 0.66826,-10.0562 37.40496,-10.0562 23.53738,0 33.29081,0.49924 34.56146,1.76905 0.97362,0.97297 1.77022,4.82065 1.77022,8.5504 0,3.72974 -0.7966,7.57742 -1.77022,8.55039 -1.02974,1.02906 -5.9663,1.76905 -11.80148,1.76905 l -10.03125,0 0,72.23616 0,72.2361 10.14567,0 c 12.17641,0 13.80665,1.3996 13.17399,11.3106 l -0.4543,7.117 -35.60548,0.3944 c -31.50352,0.3489 -35.70978,0.1228 -36.51082,-1.9634 z M 121.45486,604.50901 C 109.46668,601.58243 98.109234,591.77348 92.3345,579.359 c -2.98197,-6.41063 -3.08584,-8.79251 -3.08584,-70.76192 l 0,-64.12799 3.9293,-7.37104 c 5.011245,-9.40066 13.36982,-17.45379 22.12145,-21.3131 6.59915,-2.91009 9.55873,-3.0339 74.18456,-3.10337 l 67.31119,-0.0724 7.68819,3.53369 c 9.3115,4.27981 17.9895,12.74428 22.23948,21.69222 3.06772,6.4588 3.15091,8.32691 3.15091,70.76194 0,62.09372 -0.0985,64.3408 -3.10624,70.83682 -4.3574,9.41109 -11.58392,17.13457 -20.36392,21.76432 l -7.50872,3.95939 -66.38329,0.24614 c -36.51082,0.13535 -68.48634,-0.26724 -71.05671,-0.89472 z"
       id="path3053"
       style="fill:#eb2324;filter:url(#filter6481)" />
    <path
       d="m 108.64228,1104.9452 c -0.5246,-1.3662 -0.95382,-41.8542 -0.95382,-89.9734 0,-77.57024 0.26282,-87.75207 2.31815,-89.80604 1.92219,-1.92092 6.52064,-2.3164 26.92211,-2.31537 52.8439,0.003 76.83835,5.40519 96.64301,21.75997 19.87966,16.41669 30.48628,41.31101 30.48628,71.55294 0,34.3111 -18.40093,66.2834 -45.86059,79.6844 -19.12044,9.3313 -24.22398,10.142 -68.61877,10.8994 -36.50986,0.6228 -40.06539,0.4663 -40.93637,-1.8019 z m 79.84079,-22.1649 c 24.62149,-5.7772 40.69631,-20.9917 46.76029,-44.2575 1.31647,-5.0508 2.26133,-14.9595 2.26133,-23.7141 0,-35.7163 -15.09868,-56.56404 -48.0065,-66.2858 -6.63199,-1.95925 -14.39799,-2.6241 -31.65346,-2.70989 l -22.86536,-0.11366 -0.38439,68.55065 c -0.21141,37.7028 -0.0274,69.481 0.40884,70.6182 0.65522,1.7079 4.57236,1.8949 22.51217,1.0749 11.94541,-0.546 25.88059,-1.9692 30.96708,-3.1628 z m 127.50479,15.1309 0.4392,-9.2138 11.06388,-0.7371 11.06388,-0.7371 0,-71.499 0,-71.49905 -8.11351,-0.38216 c -14.72159,-0.69341 -14.75185,-0.71504 -14.75185,-10.54475 0,-6.53634 0.57211,-8.87882 2.33344,-9.55426 3.04354,-1.16715 64.57363,-1.16715 67.61717,0 1.76132,0.67544 2.33343,3.01792 2.33343,9.55426 0,9.82971 -0.0302,9.85134 -14.75184,10.54475 l -8.11352,0.38216 0,71.49905 0,71.499 11.06388,0.7371 11.06389,0.7371 0.43919,9.2138 0.43918,9.2138 -36.2828,0 -36.28279,0 0.43917,-9.2138 z m 125.99761,6.9077 c -1.53208,-3.9899 -1.00287,-13.223 0.86489,-15.0896 1.02876,-1.028 5.96005,-1.769 11.77337,-1.769 9.15134,0 10.0718,-0.2825 10.80921,-3.317 0.44334,-1.8243 0.62195,-34.1647 0.3969,-71.8675 l -0.40916,-68.55065 -10.75153,-0.73711 c -12.01415,-0.82367 -13.5307,-2.00667 -13.56643,-10.58269 -0.0411,-9.8655 0.66826,-10.0562 37.40496,-10.0562 23.53738,0 33.29081,0.49924 34.56146,1.76905 0.97362,0.97297 1.77022,4.82065 1.77022,8.5504 0,3.72974 -0.7966,7.57742 -1.77022,8.55039 -1.02974,1.02906 -5.9663,1.76905 -11.80148,1.76905 l -10.03125,0 0,72.23616 0,72.2361 10.14567,0 c 12.17641,0 13.80665,1.3996 13.17399,11.3106 l -0.4543,7.117 -35.60548,0.3944 c -31.50352,0.3489 -35.70978,0.1228 -36.51082,-1.9634 z"
       id="path3051"
       style="fill:#5f5c5d" />
    <path
       d="m 111.62229,1104.668 c -0.5409,-0.5406 -0.98346,-41.0789 -0.98346,-90.0853 l 0,-89.1025 38.72359,0.7045 c 30.46831,0.55434 40.76776,1.25246 48.31229,3.27475 31.43314,8.42556 53.36412,29.79627 61.29493,59.729 3.39827,12.82585 3.47525,37.37585 0.1572,50.12305 -10.00652,38.4427 -36.42676,59.9472 -79.55512,64.7531 -15.55101,1.7328 -66.36764,2.1841 -67.94943,0.6034 z m 79.60824,-20.1079 c 11.50179,-3.2479 24.94305,-11.0136 31.6515,-18.2866 17.48415,-18.9555 22.46676,-54.5489 11.67222,-83.38077 -3.89226,-10.39612 -14.97712,-22.88816 -25.80188,-29.07735 -13.73898,-7.85545 -27.83801,-10.4675 -53.96903,-9.99857 l -22.75434,0.40834 -0.38423,70.02485 c -0.21133,38.5136 -0.0316,70.9442 0.39944,72.0679 1.0593,2.7617 48.13244,1.3637 59.18632,-1.7578 z m 126.94458,20.1348 c -0.55575,-0.5553 -1.01046,-3.8844 -1.01046,-7.398 l 0,-6.3882 9.95749,-0.023 c 5.47663,-0.012 10.79356,-0.553 11.8154,-1.2012 1.46166,-0.9273 1.77629,-16.8789 1.47519,-74.7935 l -0.38272,-73.61471 -11.06389,-0.7371 -11.06388,-0.7371 0,-6.63393 0,-6.63393 33.92924,0 33.92924,0 0,6.63393 0,6.63393 -11.06388,0.7371 -11.06388,0.7371 -0.38272,73.61471 c -0.3011,57.9146 0.0133,73.8661 1.47518,74.7934 1.02185,0.6483 6.37516,1.1889 11.89623,1.2013 l 10.03832,0.023 -0.44963,7.0025 -0.44962,7.0025 -33.28758,0.3955 c -18.30817,0.2176 -33.74229,-0.059 -34.29803,-0.6143 z m 126.83886,-0.027 c -0.54091,-0.5405 -0.98346,-3.8575 -0.98346,-7.371 l 0,-6.3882 10.14567,0 c 6.76879,0 10.70144,-0.6692 11.81549,-2.0107 1.20491,-1.4509 1.56323,-22.2811 1.28701,-74.816 l -0.38281,-72.8053 -11.43268,-0.43055 -11.43268,-0.43058 0,-7.30901 0,-7.30903 33.92924,0 33.92924,0 0,7.37104 0,7.37103 -10.03125,0 c -5.83518,0 -10.77174,0.73999 -11.80148,1.76905 -2.55043,2.54874 -2.55043,144.28225 0,146.83095 1.02974,1.0291 5.9663,1.7691 11.80148,1.7691 l 10.03125,0 0,7.371 0,7.3711 -32.94578,0 c -18.12019,0 -33.38835,-0.4423 -33.92924,-0.9829 z"
       id="path3049"
       style="fill:#999999" />
  </g>
  <g
     transform="matrix(1.5125,0,0,1.5125,424.9564,241.81732)"
     id="g4096"
     style="filter:url(#filter3022)">
    <path
       d="m 204.6889,111.86529 c -0.25365,-0.6973 -0.5801,-6.21783 -0.72546,-12.26783 l -0.26428,-11 -12,-0.5 -12,-0.5 0,-37 0,-37 12,-0.5 12,-0.5 0.5,-12 0.5,-12 24.5,0 24.5,0 0.5,12 0.5,12 12,0.5 12,0.5 0.28064,12.23246 0.28064,12.23247 -24.78064,0.26753 -24.78064,0.26754 0,24.5 0,24.5 12.28053,0.28102 12.28053,0.28103 -0.28053,12.21897 -0.28053,12.21898 -24.27454,0.26783 c -18.88751,0.2084 -24.37689,-0.0135 -24.73572,-1 z m 150,0 c -0.25365,-0.6973 -0.5801,-6.21783 -0.72546,-12.26783 l -0.26428,-11 -12,-0.5 -12,-0.5 0,-37 0,-37 12,-0.5 12,-0.5 0.5,-12 0.5,-12 24.5,0 24.5,0 0.5,12 0.5,12 11.73889,0.28164 c 13.8413,0.33208 13.00278,-0.65105 12.55346,14.71836 l -0.29235,10 -24.5,0.5 -24.5,0.5 0,24.5 0,24.5 12.28053,0.28102 12.28053,0.28103 -0.28053,12.21897 -0.28053,12.21898 -24.27454,0.26783 c -18.88751,0.2084 -24.37689,-0.0135 -24.73572,-1 z"
       id="path4086"
       style="fill:#f5f2f3" />
    <path
       d="m -118.80084,224.79746 c 0,-7.45556 -0.40826,-11.70826 -1.2,-12.5 -0.86611,-0.86611 -7.82222,-1.2 -25,-1.2 l -23.8,0 0,-11.3 c 0,-7.45556 -0.40826,-11.70826 -1.2,-12.5 -0.79174,-0.79174 -5.04444,-1.2 -12.5,-1.2 l -11.3,0 0,-23.8 c 0,-17.17778 -0.33389,-24.13389 -1.2,-25 -0.79174,-0.79174 -5.04444,-1.2 -12.5,-1.2 l -11.3,0 0,-60.5 0,-60.5 11.3,0 c 7.45556,0 11.70826,-0.40826 12.5,-1.2 0.86611,-0.86611 1.2,-7.82222 1.2,-25 l 0,-23.8 11.3,0 c 7.45556,0 11.70826,-0.40826 12.5,-1.2 0.79174,-0.79174 1.2,-5.044444 1.2,-12.5 l 0,-11.3 23.8,0 c 17.17778,0 24.13389,-0.333894 25,-1.2 0.79174,-0.79174 1.2,-5.044444 1.2,-12.5 l 0,-11.3 60.5,0 60.5,0 0,11.3 c 0,7.455556 0.40826,11.70826 1.2,12.5 0.86611,0.866106 7.82222,1.2 25,1.2 l 23.8,0 0,11.3 c 0,7.455556 0.40826,11.70826 1.2,12.5 0.79174,0.79174 5.04444,1.2 12.5,1.2 l 11.3,0 0,23 0,23 -23.8,0 c -17.17778,0 -24.13389,0.33389 -25,1.2 -0.79174,0.79174 -1.2,5.04444 -1.2,12.5 l 0,11.3 -36.3,0 c -26.9,0 -36.61074,0.31074 -37.5,1.2 -0.79174,0.79174 -1.2,5.04444 -1.2,12.5 l 0,11.3 -36.3,0 c -26.9,0 -36.61074,0.31074 -37.5,1.2 -1.65891,1.65891 -1.65891,24.94109 0,26.6 0.88926,0.88926 10.6,1.2 37.5,1.2 l 36.3,0 0,11.3 c 0,7.45556 0.40826,11.70826 1.2,12.5 0.88926,0.88926 10.6,1.2 37.5,1.2 l 36.3,0 0,11.3 c 0,7.45556 0.40826,11.70826 1.2,12.5 0.86611,0.86611 7.82222,1.2 25,1.2 l 23.8,0 0,23 0,23 -11.3,0 c -7.45556,0 -11.70826,0.40826 -12.5,1.2 -0.79174,0.79174 -1.2,5.04444 -1.2,12.5 l 0,11.3 -23.8,0 c -17.17778,0 -24.13389,0.33389 -25,1.2 -0.79174,0.79174 -1.2,5.04444 -1.2,12.5 l 0,11.3 -60.5,0 -60.5,0 0,-11.3 z"
       id="path4084"
       style="fill:#e8c500" />
    <path
       d="m -120.02006,224.84746 -0.28078,-12.25 -24.71936,-0.2674 -24.71936,-0.26741 -0.28064,-12.23259 -0.28064,-12.2326 -12.2326,-0.28064 -12.23259,-0.28064 -0.26741,-24.71936 -0.2674,-24.71936 -12.25,-0.28078 -12.25,-0.28078 0,-61.43844 0,-61.43844 12.25,-0.28078 12.25,-0.28078 0.2674,-24.71936 0.26741,-24.71936 12.23259,-0.28064 12.2326,-0.28064 0.28064,-12.232597 0.28064,-12.232598 24.71936,-0.267402 24.71936,-0.267403 0.28078,-12.25 0.28078,-12.25 61.43844,0 61.43844,0 0.28078,12.25 0.28078,12.25 24.71936,0.267403 24.71936,0.267402 0.28064,12.232598 0.28064,12.232597 12.25,0.28078 12.25,0.28078 0,23.95175 0,23.95175 -24.75,0.26747 -24.75,0.26747 -0.28068,12.23786 -0.28068,12.23786 -37.21932,0.26214 -37.21932,0.26214 -0.28068,12.23786 -0.28068,12.23786 -37.21932,0.26214 -37.21932,0.26214 0,13 0,13 37.21932,0.26214 37.21932,0.26214 0.28068,12.23786 0.28068,12.23786 37.21932,0.26214 37.21932,0.26214 0.28068,12.23786 0.28068,12.23786 24.75,0.26747 24.75,0.26747 0,23.95175 0,23.95175 -12.25,0.28078 -12.25,0.28078 -0.28064,12.2326 -0.28064,12.23259 -24.71936,0.26741 -24.71936,0.2674 -0.28078,12.25 -0.28078,12.25 -61.43844,0 -61.43844,0 -0.28078,-12.25 z m 122.21922,-0.05 c 0,-7.45556 0.40826,-11.70826 1.2,-12.5 0.86611,-0.86611 7.82222,-1.2 25,-1.2 l 23.8,0 0,-11.3 c 0,-7.45556 0.40826,-11.70826 1.2,-12.5 0.79174,-0.79174 5.04444,-1.2 12.5,-1.2 l 11.3,0 0,-23 0,-23 -23.8,0 c -17.17778,0 -24.13389,-0.33389 -25,-1.2 -0.79174,-0.79174 -1.2,-5.04444 -1.2,-12.5 l 0,-11.3 -36.3,0 c -26.9,0 -36.61074,-0.31074 -37.5,-1.2 -0.79174,-0.79174 -1.2,-5.04444 -1.2,-12.5 l 0,-11.3 -36.3,0 c -26.9,0 -36.61074,-0.31074 -37.5,-1.2 -1.65891,-1.65891 -1.65891,-24.94109 0,-26.6 0.88926,-0.88926 10.6,-1.2 37.5,-1.2 l 36.3,0 0,-11.3 c 0,-7.45556 0.40826,-11.70826 1.2,-12.5 0.88926,-0.88926 10.6,-1.2 37.5,-1.2 l 36.3,0 0,-11.3 c 0,-7.45556 0.40826,-11.70826 1.2,-12.5 0.86611,-0.86611 7.82222,-1.2 25,-1.2 l 23.8,0 0,-23 0,-23 -11.3,0 c -7.45556,0 -11.70826,-0.40826 -12.5,-1.2 -0.79174,-0.79174 -1.2,-5.044444 -1.2,-12.5 l 0,-11.3 -23.8,0 c -17.17778,0 -24.13389,-0.333894 -25,-1.2 -0.79174,-0.79174 -1.2,-5.044444 -1.2,-12.5 l 0,-11.3 -60.5,0 -60.5,0 0,11.3 c 0,7.455556 -0.40826,11.70826 -1.2,12.5 -0.86611,0.866106 -7.82222,1.2 -25,1.2 l -23.8,0 0,11.3 c 0,7.455556 -0.40826,11.70826 -1.2,12.5 -0.79174,0.79174 -5.04444,1.2 -12.5,1.2 l -11.3,0 0,23.8 c 0,17.17778 -0.33389,24.13389 -1.2,25 -0.79174,0.79174 -5.04444,1.2 -12.5,1.2 l -11.3,0 0,60.5 0,60.5 11.3,0 c 7.45556,0 11.70826,0.40826 12.5,1.2 0.86611,0.86611 1.2,7.82222 1.2,25 l 0,23.8 11.3,0 c 7.45556,0 11.70826,0.40826 12.5,1.2 0.79174,0.79174 1.2,5.04444 1.2,12.5 l 0,11.3 23.8,0 c 17.17778,0 24.13389,0.33389 25,1.2 0.79174,0.79174 1.2,5.04444 1.2,12.5 l 0,11.3 60.5,0 60.5,0 0,-11.3 z"
       id="path4082"
       style="fill:#d0b000" />
    <path
       d="m 229.65562,86.84461 c -0.27194,-0.70869 -0.3734,-11.85422 -0.22545,-24.76784 l 0.26899,-23.47931 24.76751,-0.26751 24.76751,-0.26751 -0.26751,24.76751 -0.26751,24.76751 -24.27454,0.26783 c -19.07904,0.21051 -24.38037,-0.008 -24.769,-1.02068 z m 150,0 c -0.27194,-0.70869 -0.3734,-11.85422 -0.22545,-24.76784 l 0.26899,-23.47931 24.76767,-0.5 24.76767,-0.5 -0.26767,25 -0.26767,25 -24.27454,0.26783 c -19.07904,0.21051 -24.38037,-0.008 -24.769,-1.02068 z"
       id="path4080"
       style="fill:#0462d9" />
    <path
       d="m -120.22941,237.52603 c -1.23685,-1.23685 -1.57143,-3.89827 -1.57143,-12.5 l 0,-10.92857 -23.42857,0 c -19.96537,0 -23.66086,-0.23229 -25,-1.57143 -1.23685,-1.23685 -1.57143,-3.89827 -1.57143,-12.5 l 0,-10.92857 -10.92857,0 c -8.60173,0 -11.26315,-0.33458 -12.5,-1.57143 -1.33914,-1.33914 -1.57143,-5.03463 -1.57143,-25 l 0,-23.42857 -10.92857,0 c -8.60173,0 -11.26315,-0.33458 -12.5,-1.57143 -1.39386,-1.39386 -1.57143,-8.39177 -1.57143,-61.92857 0,-53.5368 0.17757,-60.53471 1.57143,-61.92857 1.23685,-1.23685 3.89827,-1.57143 12.5,-1.57143 l 10.92857,0 0,-23.42857 c 0,-19.96537 0.23229,-23.66086 1.57143,-25 1.23685,-1.236852 3.89827,-1.57143 12.5,-1.57143 l 10.92857,0 0,-10.928571 c 0,-8.601732 0.33458,-11.26315 1.57143,-12.5 1.33914,-1.339141 5.03463,-1.571429 25,-1.571429 l 23.42857,0 0,-10.928571 c 0,-8.601732 0.33458,-11.26315 1.57143,-12.5 1.39386,-1.393858 8.39177,-1.571429 61.92857,-1.571429 53.5368,0 60.53471,0.177571 61.92857,1.571429 1.23685,1.23685 1.57143,3.898268 1.57143,12.5 l 0,10.928571 23.42857,0 c 19.96537,0 23.66086,0.232288 25,1.571429 1.23685,1.23685 1.57143,3.898268 1.57143,12.5 l 0,10.928571 10.92857,0 c 8.60173,0 11.26315,0.334578 12.5,1.57143 2.35094,2.35094 2.35094,46.5062 0,48.85714 -1.33914,1.33914 -5.03463,1.57143 -25,1.57143 l -23.42857,0 0,10.92857 c 0,8.60173 -0.33458,11.26315 -1.57143,12.5 -1.37025,1.37026 -6.17099,1.57143 -37.5,1.57143 l -35.92857,0 0,10.92857 c 0,8.60173 -0.33458,11.26315 -1.57143,12.5 -1.37025,1.37026 -6.17099,1.57143 -37.5,1.57143 l -35.92857,0 0,11.5 0,11.5 35.92857,0 c 31.32901,0 36.12975,0.20117 37.5,1.57143 1.23685,1.23685 1.57143,3.89827 1.57143,12.5 l 0,10.92857 35.92857,0 c 31.32901,0 36.12975,0.20117 37.5,1.57143 1.23685,1.23685 1.57143,3.89827 1.57143,12.5 l 0,10.92857 23.42857,0 c 19.96537,0 23.66086,0.23229 25,1.57143 2.35094,2.35094 2.35094,46.5062 0,48.85714 -1.23685,1.23685 -3.89827,1.57143 -12.5,1.57143 l -10.92857,0 0,10.92857 c 0,8.60173 -0.33458,11.26315 -1.57143,12.5 -1.33914,1.33914 -5.03463,1.57143 -25,1.57143 l -23.42857,0 0,10.92857 c 0,8.60173 -0.33458,11.26315 -1.57143,12.5 -1.39386,1.39386 -8.39177,1.57143 -61.92857,1.57143 -53.5368,0 -60.53471,-0.17757 -61.92857,-1.57143 z m 123.64779,-12.67857 0.28078,-12.25 24.71936,-0.2674 24.71936,-0.26741 0.28064,-12.23259 0.28064,-12.2326 12.25,-0.28078 12.25,-0.28078 0,-23.95175 0,-23.95175 -24.75,-0.26747 -24.75,-0.26747 -0.28068,-12.23786 -0.28068,-12.23786 -37.21932,-0.26214 -37.21932,-0.26214 -0.28068,-12.23786 -0.28068,-12.23786 -37.21932,-0.26214 -37.21932,-0.26214 0,-13 0,-13 37.21932,-0.26214 37.21932,-0.26214 0.28068,-12.23786 0.28068,-12.23786 37.21932,-0.26214 37.21932,-0.26214 0.28068,-12.23786 0.28068,-12.23786 24.75,-0.26747 24.75,-0.26747 0,-23.95175 0,-23.95175 -12.25,-0.28078 -12.25,-0.28078 -0.28064,-12.232597 -0.28064,-12.232598 -24.71936,-0.267402 -24.71936,-0.267403 -0.28078,-12.25 -0.28078,-12.25 -61.43844,0 -61.43844,0 -0.28078,12.25 -0.28078,12.25 -24.71936,0.267403 -24.71936,0.267402 -0.28064,12.232598 -0.28064,12.232597 -12.2326,0.28064 -12.23259,0.28064 -0.26741,24.71936 -0.2674,24.71936 -12.25,0.28078 -12.25,0.28078 0,61.43844 0,61.43844 12.25,0.28078 12.25,0.28078 0.2674,24.71936 0.26741,24.71936 12.23259,0.28064 12.2326,0.28064 0.28064,12.2326 0.28064,12.23259 24.71936,0.26741 24.71936,0.2674 0.28078,12.25 0.28078,12.25 61.43844,0 61.43844,0 0.28078,-12.25 z M 429.41292,26.92925 c -0.11757,-5.86752 -0.50499,-11.49252 -0.86094,-12.5 -0.48476,-1.37208 -0.35067,-1.55967 0.5343,-0.74749 0.81464,0.74764 1.08196,4.62877 0.86094,12.5 l -0.32055,11.4157 -0.21375,-10.66821 z"
       id="path4078"
       style="fill:#998100" />
    <path
       d="m 130.8838,236.44877 c -0.37655,-0.37655 -0.68464,-5.99579 -0.68464,-12.4872 l 0,-11.80255 -12.25,-0.28078 -12.25,-0.28078 0,-86 0,-86 12.23786,-0.28068 12.23786,-0.28068 0.26214,-37.21932 0.26214,-37.21932 12.21947,-0.28053 12.21946,-0.28054 0.28054,-12.219464 0.28053,-12.219466 12.21947,-0.280534 12.21946,-0.280534 0.28054,-12.219466 0.28053,-12.219466 24.71936,-0.267403 24.71936,-0.267402 0.28064,-12.232598 0.28064,-12.232597 48.5,0 48.5,0 0.28064,12.232597 0.28064,12.232598 24.71936,0.267402 24.71936,0.267403 0.28053,12.219466 0.28054,12.219466 12.21946,0.280534 12.21947,0.280534 0.28053,12.219466 0.28054,12.219464 12.21946,0.28054 12.21947,0.28053 0.26785,24.28189 0.26785,24.28189 -11.76785,-0.28189 -11.76785,-0.28189 -0.28078,-12.25 -0.28078,-12.25 -24.93844,0 -24.93844,0 -0.28078,12.25 -0.28078,12.25 -12.25,0.28078 -12.25,0.28078 0,37.43844 0,37.43844 12.25,0.28078 12.25,0.28078 0.28078,12.25 0.28078,12.25 24.96922,0 24.96922,0 0,-11.97012 0,-11.97013 12.75,-0.27987 12.75,-0.27988 0.5,-24.5 0.5,-24.5 11,0 11,0 0,86 0,86 -12.21947,0.28053 -12.21946,0.28054 -0.28054,12.21946 -0.28053,12.21947 -23.5,0 -23.5,0 -0.28053,-12.21947 -0.28054,-12.21946 -12.21946,-0.28054 -12.21947,-0.28053 -0.28078,-12.25 -0.28078,-12.25 -13.43844,0 -13.43844,0 -0.28078,12.25 -0.28078,12.25 -12.21947,0.28053 -12.21946,0.28054 -0.28054,12.21946 -0.28053,12.21947 -23.5,0 -23.5,0 -0.28053,-12.21947 -0.28054,-12.21946 -12.21946,-0.28054 -12.21947,-0.28053 -0.28078,-12.25 -0.28078,-12.25 -13.43844,0 -13.43844,0 -0.28078,12.25 -0.28078,12.25 -12.21947,0.28053 -12.21946,0.28054 -0.28054,12.21946 -0.28053,12.21947 -23.06536,0.26798 c -12.68594,0.14738 -23.37344,-0.0401 -23.75,-0.41667 z m 123.31536,-135.32143 0,-11.97013 12.75,-0.27987 12.75,-0.27988 0.32408,-12.5 c 0.17824,-6.875 0.0153,-23.84905 -0.36205,-37.72012 l -0.68612,-25.22012 -12.13795,-0.27988 -12.13796,-0.27988 -0.28078,-12.25 -0.28078,-12.25 -24.93844,0 -24.93844,0 -0.28078,12.25 -0.28078,12.25 -12.25,0.28078 -12.25,0.28078 0,37.43844 0,37.43844 12.25,0.28078 12.25,0.28078 0.28078,12.25 0.28078,12.25 24.96922,0 24.96922,0 0,-11.97012 z"
       id="path4076"
       style="fill:#cc061b" />
    <path
       d="m 129.19916,226.79746 c 0,-7.45556 -0.40826,-11.70826 -1.2,-12.5 -0.79174,-0.79174 -5.04444,-1.2 -12.5,-1.2 l -11.3,0 0,-87.5 0,-87.5 11.3,0 c 7.45556,0 11.70826,-0.40826 12.5,-1.2 0.88926,-0.88926 1.2,-10.6 1.2,-37.5 l 0,-36.3 11.3,0 c 7.45556,0 11.70826,-0.40826 12.5,-1.2 0.79174,-0.79174 1.2,-5.044444 1.2,-12.5 l 0,-11.3 11.3,0 c 7.45556,0 11.70826,-0.40826 12.5,-1.2 0.79174,-0.79174 1.2,-5.044444 1.2,-12.5 l 0,-11.3 23.8,0 c 17.17778,0 24.13389,-0.333894 25,-1.2 0.79174,-0.79174 1.2,-5.044444 1.2,-12.5 l 0,-11.3 50,0 50,0 0,11.3 c 0,7.455556 0.40826,11.70826 1.2,12.5 0.86611,0.866106 7.82222,1.2 25,1.2 l 23.8,0 0,11.3 c 0,7.455556 0.40826,11.70826 1.2,12.5 0.79174,0.79174 5.04444,1.2 12.5,1.2 l 11.3,0 0,11.3 c 0,7.455556 0.40826,11.70826 1.2,12.5 0.79133,0.791327 5.03713,1.2 12.46708,1.2 l 11.26707,0 0.28293,25.45145 c 0.1556,13.99829 -0.0462,25.12167 -0.44847,24.71861 -0.40226,-0.40306 -0.85226,-11.51871 -1,-24.70145 l -0.26861,-23.96861 -12.21947,-0.28053 -12.21946,-0.28054 -0.28054,-12.219464 -0.28053,-12.219466 -12.21947,-0.280534 -12.21946,-0.280534 -0.28054,-12.219466 -0.28053,-12.219466 -24.71936,-0.267403 -24.71936,-0.267402 -0.28064,-12.232598 -0.28064,-12.232597 -48.5,0 -48.5,0 -0.28064,12.232597 -0.28064,12.232598 -24.71936,0.267402 -24.71936,0.267403 -0.28053,12.219466 -0.28054,12.219466 -12.21946,0.280534 -12.21947,0.280534 -0.28053,12.219466 -0.28054,12.219464 -12.21946,0.28054 -12.21947,0.28053 -0.26214,37.21932 -0.26214,37.21932 -12.23786,0.28068 -12.23786,0.28068 0,86 0,86 12.21947,0.28053 12.21946,0.28054 0.28054,12.21946 0.28053,12.21947 23.5,0 23.5,0 0.28053,-12.21947 0.28054,-12.21946 12.21946,-0.28054 12.21947,-0.28053 0.28078,-12.25 0.28078,-12.25 13.43844,0 13.43844,0 0.28078,12.25 0.28078,12.25 12.21947,0.28053 12.21946,0.28054 0.28054,12.21946 0.28053,12.21947 23.5,0 23.5,0 0.28053,-12.21947 0.28054,-12.21946 12.21946,-0.28054 12.21947,-0.28053 0.28078,-12.25 0.28078,-12.25 13.43844,0 13.43844,0 0.28078,12.25 0.28078,12.25 12.21947,0.28053 12.21946,0.28054 0.28054,12.21946 0.28053,12.21947 23.5,0 23.5,0 0.28053,-12.21947 0.28054,-12.21946 12.21946,-0.28054 12.21947,-0.28053 0,-86 0,-86 -11,0 -11,0 -0.5,24.5 -0.5,24.5 -12.5,0.0652 -12.5,0.0653 12,-0.56525 12,-0.56525 0.26738,-25.35032 c 0.23751,-22.51834 0.44215,-25.28325 1.83179,-24.75 0.86042,0.33018 6.4776,0.60032 12.48262,0.60032 l 10.91821,0 0,87.5 0,87.5 -11.3,0 c -7.45556,0 -11.70826,0.40826 -12.5,1.2 -0.79174,0.79174 -1.2,5.04444 -1.2,12.5 l 0,11.3 -25,0 -25,0 0,-11.3 c 0,-7.45556 -0.40826,-11.70826 -1.2,-12.5 -0.79174,-0.79174 -5.04444,-1.2 -12.5,-1.2 l -11.3,0 0,-11.3 c 0,-7.45556 -0.40826,-11.70826 -1.2,-12.5 -1.64034,-1.64034 -20.95966,-1.64034 -22.6,0 -0.79174,0.79174 -1.2,5.04444 -1.2,12.5 l 0,11.3 -11.3,0 c -7.45556,0 -11.70826,0.40826 -12.5,1.2 -0.79174,0.79174 -1.2,5.04444 -1.2,12.5 l 0,11.3 -25,0 -25,0 0,-11.3 c 0,-7.45556 -0.40826,-11.70826 -1.2,-12.5 -0.79174,-0.79174 -5.04444,-1.2 -12.5,-1.2 l -11.3,0 0,-11.3 c 0,-7.45556 -0.40826,-11.70826 -1.2,-12.5 -1.64034,-1.64034 -20.95966,-1.64034 -22.6,0 -0.79174,0.79174 -1.2,5.04444 -1.2,12.5 l 0,11.3 -11.3,0 c -7.45556,0 -11.70826,0.40826 -12.5,1.2 -0.79174,0.79174 -1.2,5.04444 -1.2,12.5 l 0,11.3 -25,0 -25,0 0,-11.3 z m 137.5,-138.63475 12,-0.56525 0.53523,-25 0.53522,-25 -0.0352,25.5 -0.0352,25.5 -12.5,0.0652 -12.5,0.0653 12,-0.56525 z"
       id="path4074"
       style="fill:#9f0415" />
  </g>
  <rect
     style="fill:#ffffff;stroke:none"
     id="rect889"
     width="211.14088"
     height="234.6172"
     x="203.38983"
     y="910.16949" />
</svg>
