<?xml version="1.0" encoding="UTF-8" standalone="no"?>
<!-- Created with Inkscape (http://www.inkscape.org/) -->

<svg
   xmlns:dc="http://purl.org/dc/elements/1.1/"
   xmlns:cc="http://creativecommons.org/ns#"
   xmlns:rdf="http://www.w3.org/1999/02/22-rdf-syntax-ns#"
   xmlns:svg="http://www.w3.org/2000/svg"
   xmlns="http://www.w3.org/2000/svg"
   xmlns:sodipodi="http://sodipodi.sourceforge.net/DTD/sodipodi-0.dtd"
   xmlns:inkscape="http://www.inkscape.org/namespaces/inkscape"
   id="svg2"
   version="1.1"
   inkscape:version="0.48.4 r9939"
   width="630"
   height="591"
   sodipodi:docname="dii.svg">
  <metadata
     id="metadata8">
    <rdf:RDF>
      <cc:Work
         rdf:about="">
        <dc:format>image/svg+xml</dc:format>
        <dc:type
           rdf:resource="http://purl.org/dc/dcmitype/StillImage" />
        <dc:title />
      </cc:Work>
    </rdf:RDF>
  </metadata>
  <defs
     id="defs6" />
  <sodipodi:namedview
     pagecolor="#ffffff"
     bordercolor="#666666"
     borderopacity="1"
     objecttolerance="10"
     gridtolerance="10"
     guidetolerance="10"
     inkscape:pageopacity="0"
     inkscape:pageshadow="2"
     inkscape:window-width="1301"
     inkscape:window-height="744"
     id="namedview4"
     showgrid="false"
     inkscape:zoom="0.39932318"
     inkscape:cx="315"
     inkscape:cy="295.5"
     inkscape:window-x="65"
     inkscape:window-y="24"
     inkscape:window-maximized="1"
     inkscape:current-layer="svg2" />
  <path
     inkscape:connector-curvature="0"
     id="path3063"
     d="M 0,295.5 0,0 315,0 630,0 630,295.5 630,591 315,591 0,591 0,295.5 z"
     style="fill:#fdfdfc;fill-opacity:0" />
  <path
     inkscape:connector-curvature="0"
     id="path3061"
     d="M 412.35505,528.9811 C 402.12659,526.90592 390.83365,518.20716 386.67004,509.19636 384.55503,504.6191 384.48732,503.19395 384,453 l -0.5,-51.5 -2.90922,-6.30048 C 377.2208,387.90115 369.59925,380.37776 364.67702,379.4907 362.92966,379.1758 345.975,378.78228 327,378.61621 c -28.82871,-0.2523 -35.20044,-0.56769 -38.76098,-1.91859 -9.4385,-3.58105 -16.6877,-10.68396 -19.79508,-19.39561 -1.04787,-2.93772 -1.36595,-12.44031 -1.39926,-41.80201 l -0.0431,-38 2.87361,-6 c 4.13531,-8.63437 10.60805,-14.0847 20.05631,-16.8883 4.59626,-1.36386 11.5931,-1.61397 45.5,-1.62648 44.75513,-0.0165 47.75783,-0.34823 59.63162,-6.58773 8.87051,-4.66132 15.5162,-11.32321 19.35032,-19.39749 L 417.5,220.5 418,149 l 0.5,-71.5 2.43244,-4.942596 C 424.54077,65.22547 431.42805,58.687595 438.5,55.881097 l 6,-2.381097 53.5,0 53.5,0 5.90685,2.380534 c 7.32967,2.953948 13.83389,9.271491 17.42095,16.920946 L 577.5,78.5 l 0,66.5 0,66.5 -2.25468,5.57047 c -2.6574,6.56546 -9.59989,13.93704 -16.17947,17.17947 -4.47987,2.20769 -5.42264,2.2598 -50.06585,2.76728 -50.27995,0.57157 -48.44294,0.3345 -56.53185,7.29551 -2.21752,1.90832 -5.36752,5.88113 -7,8.82847 L 442.5,258.5 l 0,37.5 0,37.5 2.99178,5.81493 c 3.00417,5.83899 9.31764,11.62835 16.00822,14.67931 2.21802,1.01144 10.68948,1.51631 32.5,1.93689 27.86997,0.53744 29.74865,0.6919 34,2.79554 6.33015,3.13226 12.86727,9.81933 15.9084,16.27333 l 2.5916,5.5 0,63 0,63 -2.41926,4.91538 c -3.15149,6.40308 -9.22001,12.2477 -16.08074,15.48744 l -5.5,2.59718 -53,0.16102 c -29.15,0.0886 -54.86523,-0.21741 -57.14495,-0.67992 z M 72.642264,527.51014 C 72.289019,526.5896 72,498.68037 72,465.48964 c 0,-55.53389 0.135985,-60.48277 1.705062,-62.05184 1.546564,-1.54657 3.986675,-1.65195 26.25,-1.1337 32.832948,0.76429 42.105998,2.82048 55.706188,12.35217 7.92868,5.55682 13.5295,12.0844 17.88444,20.84373 8.91502,17.93126 8.60816,42.20418 -0.77548,61.34195 -4.73133,9.64948 -15.26186,20.07239 -24.84782,24.59388 -13.47156,6.35426 -16.53741,6.83093 -47.03013,7.31225 -25.135506,0.39675 -27.665246,0.28589 -28.249996,-1.23794 z m 42.914756,-15.50616 c 6.08135,-0.5384 13.73135,-1.89394 17,-3.0123 11.85179,-4.05509 20.90738,-12.73175 25.03944,-23.99168 2.13518,-5.81841 3.0205,-24.71314 1.50061,-32.02656 -4.81439,-23.16595 -22.22198,-33.8402 -55.34707,-33.93855 L 92,419 l 0,46.33333 c 0,25.48334 0.3,46.63334 0.666667,47 0.942998,0.943 9.989033,0.81285 22.890353,-0.32935 z m 97.8643,15.65157 c -0.29115,-0.75872 -0.39255,-4.02911 -0.22534,-7.26752 L 213.5,514.5 221,514 l 7.5,-0.5 0.2597,-47.75 0.25969,-47.75 -6.42791,0 C 213.109,418 213,417.90909 213,410 c 0,-5.26547 0.35443,-6.92203 1.58179,-7.39301 2.06339,-0.7918 45.77303,-0.7918 47.83642,0 C 263.64557,403.07797 264,404.73453 264,410 c 0,7.90909 -0.109,8 -9.59148,8 l -6.42791,0 0.25969,47.75 0.2597,47.75 7.5,0.5 7.5,0.5 0,7 0,7 -24.77466,0.26752 c -20.31954,0.21942 -24.86985,0.0195 -25.30402,-1.11197 z m 85.19217,-0.22041 c -1.06012,-2.76261 -0.66778,-9.98088 0.63651,-11.71065 0.91178,-1.20921 3.14404,-1.73443 8.25,-1.94113 l 7,-0.28336 0,-47.5 0,-47.5 -7.28826,-0.5 c -8.3784,-0.57479 -9.17386,-1.2822 -9.19643,-8.17857 C 297.98961,401.96747 297.88306,402 323.63717,402 c 13.59355,0 23.25968,0.40961 24.42857,1.03518 C 349.64423,403.87997 350,405.161 350,410 c 0,7.15606 -1.04799,8 -9.93426,8 L 334,418 l 0,48 0,48 6.87756,0 c 8.46831,0 9.33064,0.83728 8.92486,8.66563 L 349.5,528.5 l -25.13651,0.26693 c -22.26807,0.23647 -25.20652,0.0845 -25.75,-1.33179 z M 83.222517,377.96619 c -5.863478,-1.19433 -13.736396,-5.6485 -17.440256,-9.86696 -1.694019,-1.92938 -4.250536,-6.0035 -5.681148,-9.0536 L 57.5,353.5 l 0,-54 c 0,-40.80761 0.310437,-55.0221 1.270704,-58.18375 1.812106,-5.96629 9.000094,-14.32018 15.34542,-17.83446 L 79.5,220.5 l 63,-0.5 63,-0.5 5,-2.29935 c 6.30719,-2.90049 11.91248,-8.27342 15.3364,-14.70065 l 2.6636,-5 0.5,-60 0.5,-60 2.74991,-5.216575 c 3.64029,-6.905626 8.33145,-11.444732 15.42553,-14.925531 L 253.5,54.5 l 53,0 c 47.99146,0 53.4755,0.166118 58.03168,1.757854 9.65505,3.373059 17.30144,12.02585 20.02634,22.662161 1.32792,5.183357 1.50575,14.080237 1.24553,62.313335 L 385.5,197.5 l -2.37765,5.26046 c -3.27172,7.23859 -12.47797,15.67373 -19.32616,17.70743 C 359.46788,221.75325 350.72351,222 309.5,222 c -54.3745,0 -56.0094,0.16178 -64.14713,6.3476 -4.39425,3.34024 -8.6972,9.35545 -10.61483,14.83874 -0.79673,2.27819 -1.32747,20.50037 -1.69845,58.31366 -0.53882,54.92164 -0.54285,55.00611 -2.83108,59.29149 -3.2766,6.1364 -9.52651,11.99716 -16.06055,15.06055 L 208.5,378.5 148,378.66874 c -33.275,0.0928 -62.424867,-0.22335 -64.777483,-0.70255 z M 78.241743,187.89454 C 71.738372,185.3709 63.691932,177.74347 60.701661,171.26784 58.538378,166.58311 58.5,165.73302 58.5,122.5 l 0,-44 2.610703,-5.566579 C 64.375918,65.971284 69.884782,60.48504 77,57.109366 L 82.5,54.5 l 46,0 46,0 5.64796,2.647962 c 6.82772,3.201072 12.48766,8.693119 15.85204,15.381811 l 2.5,4.970227 0,44.5 0,44.5 -2.77978,5.66054 c -3.05279,6.21647 -8.30523,11.51149 -14.92516,15.04615 -4.28278,2.28675 -4.42805,2.29393 -50.79506,2.51082 -44.702399,0.2091 -46.703274,0.13863 -51.758257,-1.82297 z"
     style="fill:#f6daa1" />
  <path
     inkscape:connector-curvature="0"
     id="path3059"
     d="M 73.646576,526.52138 C 73.290959,525.59465 73,498.13037 73,465.48964 c 0,-52.61829 0.178162,-59.52494 1.571429,-60.91821 1.30302,-1.30302 4.420219,-1.57129 18.25,-1.57059 35.821891,0.002 52.087281,3.66651 65.512491,14.76046 C 171.80997,428.89725 179,445.78384 179,466.29788 c 0,23.27427 -12.47365,44.96206 -31.08804,54.05242 -12.96139,6.32971 -16.42098,6.87959 -46.51538,7.39334 -24.749355,0.4225 -27.159586,0.31634 -27.750004,-1.22226 z m 54.122584,-15.03511 c 16.69045,-3.91891 27.58727,-14.23933 31.69793,-30.02123 C 160.3595,478.03887 161,471.31754 161,465.379 161,441.15154 150.76489,427.00987 128.45729,420.4153 123.96159,419.08628 118.69716,418.63529 107,418.5771 L 91.5,418.5 91.239428,465 c -0.143315,25.575 -0.0186,47.13114 0.277147,47.90253 0.444156,1.15849 3.099518,1.28536 15.260575,0.72914 8.09757,-0.37037 17.54397,-1.3358 20.99201,-2.1454 z M 214.20228,521.75 214.5,515.5 222,515 l 7.5,-0.5 0,-48.5 0,-48.5 -5.5,-0.25923 c -9.97949,-0.47036 -10,-0.48503 -10,-7.15283 0,-4.4338 0.38782,-6.02278 1.58179,-6.48095 2.06316,-0.79171 43.77326,-0.79171 45.83642,0 1.19397,0.45817 1.58179,2.04715 1.58179,6.48095 0,6.6678 -0.0205,6.68247 -10,7.15283 l -5.5,0.25923 0,48.5 0,48.5 7.5,0.5 7.5,0.5 0.29772,6.25 0.29771,6.25 -24.59543,0 -24.59543,0 0.29771,-6.25 z m 85.41143,4.68573 c -1.03857,-2.70647 -0.67983,-8.96961 0.58629,-10.23573 0.69738,-0.69738 4.04021,-1.2 7.98095,-1.2 6.20352,0 6.82748,-0.1916 7.32736,-2.25 0.30053,-1.2375 0.42161,-23.175 0.26905,-48.75 L 315.5,417.5 308.21174,417 c -8.14417,-0.55872 -9.17221,-1.36119 -9.19643,-7.17857 -0.0279,-6.69207 0.453,-6.82143 25.35612,-6.82143 15.95555,0 22.56722,0.33865 23.42857,1.2 0.66,0.66 1.2,3.27 1.2,5.8 0,2.53 -0.54,5.14 -1.2,5.8 -0.69804,0.69804 -4.04444,1.2 -8,1.2 l -6.8,0 0,49 0,49 6.87756,0 c 8.25416,0 9.35927,0.94942 8.9304,7.67231 L 348.5,527.5 l -24.13629,0.26752 c -21.35565,0.2367 -24.20699,0.0833 -24.75,-1.33179 z M 410,527.0811 c -8.92772,-2.78348 -18.64466,-10.88136 -22.04523,-18.37198 -1.79094,-3.945 -1.91222,-7.08355 -1.93281,-50.01757 -0.0137,-28.58025 -0.44093,-48.51313 -1.13597,-53 -1.28864,-8.31892 -5.26565,-16.85833 -10.04615,-21.57105 C 367.97467,377.35267 369.27493,377.55033 328,377 291.33599,376.51115 290.39534,376.44845 285.80513,374.18748 279.7647,371.21219 273.25794,364.71466 270.59608,359 c -1.99053,-4.27339 -2.11093,-6.36791 -2.391,-41.59244 -0.2877,-36.18566 -0.24091,-37.23678 1.91426,-42.99699 1.55107,-4.14558 3.73945,-7.39495 7.34602,-10.90756 8.69559,-8.46905 8.5768,-8.4508 57.53464,-8.84303 46.94507,-0.37611 47.74774,-0.46929 60.74944,-7.05212 7.74786,-3.92278 14.8366,-10.59396 18.59532,-17.49997 5.51519,-10.13321 5.62439,-11.77305 5.64046,-84.69817 L 420,78.319445 l 3.04683,-6.097249 c 3.42041,-6.844846 8.16641,-11.499813 14.90236,-14.61654 C 442.40331,55.544739 443.6792,55.5 498,55.5 c 54.67519,0 55.56909,0.03194 60.14917,2.149166 5.93107,2.741751 11.83694,8.647626 14.92792,14.927923 L 575.5,77.5 l 0.27058,66.65747 c 0.26504,65.29152 0.22819,66.77079 -1.79826,72.18698 -2.43617,6.51123 -11.24449,15.36054 -17.5365,17.61808 -3.06974,1.10141 -13.83809,1.53597 -48.93582,1.97481 -44.42626,0.55549 -45.05975,0.59209 -49.68643,2.87109 -5.32384,2.62241 -10.65831,8.10003 -14.02026,14.39651 C 441.51631,257.46945 441.5,257.77387 441.5,296 l 0,38.5 2.97146,5.86452 c 3.44545,6.79998 8.82761,11.60006 16.31661,14.55194 4.87315,1.92082 7.29943,2.08354 31.06745,2.08354 29.0905,0 33.33072,0.68728 41.23318,6.68327 5.52248,4.19019 10.44642,11.98563 11.91261,18.85974 1.68294,7.89029 0.84368,120.81729 -0.93367,125.63098 -2.23947,6.06525 -8.16695,12.90269 -14.06764,16.22723 l -5.5,3.09878 -56,0.18028 c -30.8,0.0992 -57.125,-0.17048 -58.5,-0.59918 z M 78.041102,374.80008 C 70.82501,372.02978 63.847941,364.88226 61.04381,357.38755 58.979848,351.87111 58.941252,350.5975 59.217642,297.126 L 59.5,242.5 l 2.291491,-4.29149 c 3.120646,-5.84433 9.455515,-11.96887 15.059343,-14.55934 C 81.41238,221.5405 82.687318,221.49058 144.5,221 l 63,-0.5 5,-2.6636 c 6.0323,-3.21353 11.50708,-8.75246 14.66456,-14.8364 L 229.5,198.5 230,139 l 0.5,-59.5 2.61982,-5.586482 c 3.19064,-6.803711 8.06021,-11.840949 14.52188,-15.021884 L 252.5,56.5 306,56.215988 l 53.5,-0.284013 6.22612,2.636384 c 7.17776,3.039341 12.29627,8.135519 15.86128,15.792079 l 2.39306,5.139562 0.01,58.21249 c 0.009,56.23403 -0.0598,58.39855 -2.0385,63.68697 -2.41293,6.44914 -11.24248,15.30693 -17.51591,17.57193 -3.13419,1.1316 -14.7306,1.53382 -56.93582,1.97482 -52.171,0.54513 -53.07039,0.58851 -57.5,2.77333 -6.28679,3.10084 -11.86329,8.81638 -14.90875,15.28046 l -2.59125,5.5 -0.5,55 -0.5,55 -2.45257,4.98418 c -3.36387,6.83614 -9.72305,12.73144 -16.55226,15.34483 -5.60625,2.14539 -6.40011,2.17038 -67.33415,2.11888 -60.131284,-0.0508 -61.796449,-0.10409 -67.119918,-2.14781 z m 3.75123,-187.20224 C 73.061502,185.24775 66.233156,179.14441 62.072266,169.97156 60.134753,165.70024 60.043378,163.55207 60.031731,122 l -0.01219,-43.5 2.337794,-5.020277 c 1.341092,-2.879918 4.53697,-6.997524 7.496029,-9.657973 C 78.60094,55.956924 78.277184,56 128.64063,56 c 41.79316,0 44.58418,0.112184 49.61441,1.994233 6.77303,2.534116 13.26155,8.746638 16.62408,15.916966 L 197.5,79.5 l 0,42 c 0,31.21433 -0.32799,43.08061 -1.27722,46.20795 -2.79012,9.19235 -12.65234,18.14614 -22.25573,20.2057 -7.51643,1.61198 -86.0119,1.34305 -92.174718,-0.31581 z"
     style="fill:#f6d25c" />
  <path
     inkscape:connector-curvature="0"
     id="path3057"
     d="M 73.646576,526.52138 C 73.290959,525.59465 73,498.13037 73,465.48964 c 0,-52.61829 0.178162,-59.52494 1.571429,-60.91821 1.30302,-1.30302 4.420219,-1.57129 18.25,-1.57059 35.821891,0.002 52.087281,3.66651 65.512491,14.76046 C 171.80997,428.89725 179,445.78384 179,466.29788 c 0,23.27427 -12.47365,44.96206 -31.08804,54.05242 -12.96139,6.32971 -16.42098,6.87959 -46.51538,7.39334 -24.749355,0.4225 -27.159586,0.31634 -27.750004,-1.22226 z m 54.122584,-15.03511 c 16.69045,-3.91891 27.58727,-14.23933 31.69793,-30.02123 C 160.3595,478.03887 161,471.31754 161,465.379 161,441.15154 150.76489,427.00987 128.45729,420.4153 123.96159,419.08628 118.69716,418.63529 107,418.5771 L 91.5,418.5 91.239428,465 c -0.143315,25.575 -0.0186,47.13114 0.277147,47.90253 0.444156,1.15849 3.099518,1.28536 15.260575,0.72914 8.09757,-0.37037 17.54397,-1.3358 20.99201,-2.1454 z M 214.20228,521.75 214.5,515.5 222,515 l 7.5,-0.5 0,-48.5 0,-48.5 -5.5,-0.25923 c -9.97949,-0.47036 -10,-0.48503 -10,-7.15283 0,-4.4338 0.38782,-6.02278 1.58179,-6.48095 2.06316,-0.79171 43.77326,-0.79171 45.83642,0 1.19397,0.45817 1.58179,2.04715 1.58179,6.48095 0,6.6678 -0.0205,6.68247 -10,7.15283 l -5.5,0.25923 0,48.5 0,48.5 7.5,0.5 7.5,0.5 0.29772,6.25 0.29771,6.25 -24.59543,0 -24.59543,0 0.29771,-6.25 z m 85.41143,4.68573 c -1.03857,-2.70647 -0.67983,-8.96961 0.58629,-10.23573 0.69738,-0.69738 4.04021,-1.2 7.98095,-1.2 6.20352,0 6.82748,-0.1916 7.32736,-2.25 0.30053,-1.2375 0.42161,-23.175 0.26905,-48.75 L 315.5,417.5 308.21174,417 c -8.14417,-0.55872 -9.17221,-1.36119 -9.19643,-7.17857 -0.0279,-6.69207 0.453,-6.82143 25.35612,-6.82143 15.95555,0 22.56722,0.33865 23.42857,1.2 0.66,0.66 1.2,3.27 1.2,5.8 0,2.53 -0.54,5.14 -1.2,5.8 -0.69804,0.69804 -4.04444,1.2 -8,1.2 l -6.8,0 0,49 0,49 6.87756,0 c 8.25416,0 9.35927,0.94942 8.9304,7.67231 L 348.5,527.5 l -24.13629,0.26752 c -21.35565,0.2367 -24.20699,0.0833 -24.75,-1.33179 z m 108.30677,-1.77854 C 399.22,521.07792 393.38658,515.96772 388.90589,508 c -1.13768,-2.02306 -1.50335,-12.32492 -1.91674,-54 -0.46598,-46.97706 -0.67406,-51.93776 -2.36926,-56.48447 -3.12038,-8.36923 -8.0371,-15.08888 -13.30688,-18.18645 L 366.5,376.5 l -37,-0.55881 c -42.26022,-0.63826 -43.1998,-0.79889 -51.14426,-8.74335 -8.82869,-8.82869 -8.81371,-8.74842 -9.1536,-49.02683 -0.2516,-29.81462 -0.0524,-36.17436 1.27636,-40.74504 2.05828,-7.08024 8.56962,-15.03529 15.02424,-18.35545 L 290.5,256.5 l 45,-0.53137 c 44.08996,-0.52062 45.13145,-0.579 51.5,-2.88706 16.18253,-5.86478 25.76012,-14.41629 31.18172,-27.84111 L 420.5,219.5 l 0.5,-71 0.5,-71 2.64544,-5 c 4.12898,-7.803955 10.39517,-12.760488 19.04198,-15.062134 8.06748,-2.14744 100.9213,-2.0815 109.21048,0.07756 10.14008,2.641156 17.55135,9.568344 21.08241,19.705369 1.25942,3.615592 1.49284,14.102892 1.50514,67.625295 0.0171,74.41703 0.4229,70.93074 -9.39984,80.75348 -9.18892,9.18892 -10.54682,9.39906 -60.78302,9.40601 -25.0593,0.003 -41.73247,0.40265 -44.08314,1.05544 -6.15362,1.70886 -13.77143,8.66469 -17.52008,15.9976 l -3.30064,6.45653 0,37.08118 c 0,39.85457 0.10102,40.77685 5.37495,49.07398 3.18581,5.01203 7.35491,8.21657 14.72632,11.31926 5.18278,2.18148 7.02845,2.33774 32,2.70931 14.575,0.21688 28.62885,0.86616 31.23079,1.44286 10.56292,2.34118 18.6633,12.43878 20.74373,25.85827 0.8095,5.22157 1.06593,24.05657 0.8441,62 l -0.31862,54.5 -2.39834,6 c -3.12271,7.81221 -8.89265,13.56894 -16.38917,16.35166 -5.65615,2.09957 -6.99531,2.14779 -59,2.12459 -53.18143,-0.0237 -53.21575,-0.0251 -58.79201,-2.31907 z M 80.826373,375.02096 C 73.216974,372.72376 66.867105,367.20149 62.404448,359 60.59562,355.67573 60.5,352.6632 60.5,299 c 0,-56.05825 0.01695,-56.53127 2.167478,-60.5 C 65.523262,233.22976 72.51039,226.53934 77.5,224.29734 81.172007,222.64738 86.665896,222.459 144.5,222 l 63,-0.5 6.32498,-3.42929 c 6.84005,-3.70855 10.95847,-8.00355 14.45109,-15.07071 2.20549,-4.4627 2.22807,-4.99736 2.72393,-64.5 l 0.5,-60 2.70267,-5.123349 c 1.48646,-2.817842 4.77393,-6.946546 7.30547,-9.174899 C 249.8034,56.899968 248.87957,57 308.01842,57 l 52.66214,0 6.11965,3.058028 C 373.6889,63.500347 377.23672,67.20109 380.6454,74.5 l 2.33506,5 0.01,58.21249 c 0.009,56.26969 -0.0587,58.39554 -2.04236,63.6973 -1.47732,3.94849 -3.55241,6.85599 -7.40823,10.37999 C 364.5664,219.99102 364.49342,220 306.81035,220 c -55.31679,0 -53.95604,-0.15015 -63.42421,6.99839 -3.95379,2.98514 -6.05187,5.60826 -8.56156,10.70408 L 231.5,244.45242 231,299.47621 230.5,354.5 l -2.38319,4.84085 c -3.21233,6.52506 -9.40259,12.24823 -15.86177,14.66492 -5.12332,1.91688 -7.72382,1.9909 -67.04255,1.90828 -33.94187,-0.0473 -62.915622,-0.44917 -64.386117,-0.89309 z M 84.343746,187.98335 C 74.824052,186.04322 66.524919,179.47107 62.395275,170.60217 L 60.019538,165.5 l -0.0098,-42.57186 c -0.011,-47.936671 0.03376,-48.287836 7.191983,-56.420003 2.228353,-2.531542 6.357057,-5.819003 9.174899,-7.30547 L 81.5,56.5 l 47,0 47,0 5.06346,2.672317 c 5.29867,2.796458 11.27391,8.678725 13.8228,13.607728 3.17229,6.134538 3.75068,15.217929 3.4298,53.863515 l -0.31606,38.0639 -3.5,6.85863 c -2.50773,4.91416 -4.86821,7.8915 -8.32601,10.50182 -8.43508,6.36769 -7.93784,6.30815 -54.67399,6.54611 -23.375,0.11901 -44.370314,-0.16479 -46.656254,-0.63067 z"
     style="fill:#fdc10c" />
  <path
     inkscape:connector-curvature="0"
     id="path3055"
     d="M 73.646576,526.52138 C 73.290959,525.59465 73,498.13037 73,465.48964 c 0,-52.61829 0.178162,-59.52494 1.571429,-60.91821 1.30302,-1.30302 4.420219,-1.57129 18.25,-1.57059 35.821891,0.002 52.087281,3.66651 65.512491,14.76046 C 171.80997,428.89725 179,445.78384 179,466.29788 c 0,23.27427 -12.47365,44.96206 -31.08804,54.05242 -12.96139,6.32971 -16.42098,6.87959 -46.51538,7.39334 -24.749355,0.4225 -27.159586,0.31634 -27.750004,-1.22226 z m 54.122584,-15.03511 c 16.69045,-3.91891 27.58727,-14.23933 31.69793,-30.02123 C 160.3595,478.03887 161,471.31754 161,465.379 161,441.15154 150.76489,427.00987 128.45729,420.4153 123.96159,419.08628 118.69716,418.63529 107,418.5771 L 91.5,418.5 91.239428,465 c -0.143315,25.575 -0.0186,47.13114 0.277147,47.90253 0.444156,1.15849 3.099518,1.28536 15.260575,0.72914 8.09757,-0.37037 17.54397,-1.3358 20.99201,-2.1454 z M 214.20228,521.75 214.5,515.5 222,515 l 7.5,-0.5 0,-48.5 0,-48.5 -5.5,-0.25923 c -9.97949,-0.47036 -10,-0.48503 -10,-7.15283 0,-4.4338 0.38782,-6.02278 1.58179,-6.48095 2.06316,-0.79171 43.77326,-0.79171 45.83642,0 1.19397,0.45817 1.58179,2.04715 1.58179,6.48095 0,6.6678 -0.0205,6.68247 -10,7.15283 l -5.5,0.25923 0,48.5 0,48.5 7.5,0.5 7.5,0.5 0.29772,6.25 0.29771,6.25 -24.59543,0 -24.59543,0 0.29771,-6.25 z m 85.41143,4.68573 c -1.03857,-2.70647 -0.67983,-8.96961 0.58629,-10.23573 0.69738,-0.69738 4.04021,-1.2 7.98095,-1.2 6.20352,0 6.82748,-0.1916 7.32736,-2.25 0.30053,-1.2375 0.42161,-23.175 0.26905,-48.75 L 315.5,417.5 308.21174,417 c -8.14417,-0.55872 -9.17221,-1.36119 -9.19643,-7.17857 -0.0279,-6.69207 0.453,-6.82143 25.35612,-6.82143 15.95555,0 22.56722,0.33865 23.42857,1.2 0.66,0.66 1.2,3.27 1.2,5.8 0,2.53 -0.54,5.14 -1.2,5.8 -0.69804,0.69804 -4.04444,1.2 -8,1.2 l -6.8,0 0,49 0,49 6.87756,0 c 8.25416,0 9.35927,0.94942 8.9304,7.67231 L 348.5,527.5 l -24.13629,0.26752 c -21.35565,0.2367 -24.20699,0.0833 -24.75,-1.33179 z M 80.826373,375.02096 C 73.216974,372.72376 66.867105,367.20149 62.404448,359 60.59562,355.67573 60.5,352.6632 60.5,299 c 0,-56.05825 0.01695,-56.53127 2.167478,-60.5 C 65.523262,233.22976 72.51039,226.53934 77.5,224.29734 81.172007,222.64738 86.665896,222.459 144.5,222 l 63,-0.5 6.32498,-3.42929 c 6.84005,-3.70855 10.95847,-8.00355 14.45109,-15.07071 2.20549,-4.4627 2.22807,-4.99736 2.72393,-64.5 l 0.5,-60 2.70267,-5.123349 c 1.48646,-2.817842 4.77393,-6.946546 7.30547,-9.174899 C 249.8034,56.899968 248.87957,57 308.01842,57 l 52.66214,0 6.11965,3.058028 C 373.6889,63.500347 377.23672,67.20109 380.6454,74.5 l 2.33506,5 0.01,58.21249 c 0.009,56.26969 -0.0587,58.39554 -2.04236,63.6973 -1.47732,3.94849 -3.55241,6.85599 -7.40823,10.37999 C 364.5664,219.99102 364.49342,220 306.81035,220 c -55.31679,0 -53.95604,-0.15015 -63.42421,6.99839 -3.95379,2.98514 -6.05187,5.60826 -8.56156,10.70408 L 231.5,244.45242 231,299.47621 230.5,354.5 l -2.38319,4.84085 c -3.21233,6.52506 -9.40259,12.24823 -15.86177,14.66492 -5.12332,1.91688 -7.72382,1.9909 -67.04255,1.90828 -33.94187,-0.0473 -62.915622,-0.44917 -64.386117,-0.89309 z M 84.343746,187.98335 C 74.824052,186.04322 66.524919,179.47107 62.395275,170.60217 L 60.019538,165.5 l -0.0098,-42.57186 c -0.011,-47.936671 0.03376,-48.287836 7.191983,-56.420003 2.228353,-2.531542 6.357057,-5.819003 9.174899,-7.30547 L 81.5,56.5 l 47,0 47,0 5.06346,2.672317 c 5.29867,2.796458 11.27391,8.678725 13.8228,13.607728 3.17229,6.134538 3.75068,15.217929 3.4298,53.863515 l -0.31606,38.0639 -3.5,6.85863 c -2.50773,4.91416 -4.86821,7.8915 -8.32601,10.50182 -8.43508,6.36769 -7.93784,6.30815 -54.67399,6.54611 -23.375,0.11901 -44.370314,-0.16479 -46.656254,-0.63067 z"
     style="fill:#f4821e" />
  <path
     inkscape:connector-curvature="0"
     id="path3053"
     d="M 73.646576,526.52138 C 73.290959,525.59465 73,498.13037 73,465.48964 c 0,-52.61829 0.178162,-59.52494 1.571429,-60.91821 1.30302,-1.30302 4.420219,-1.57129 18.25,-1.57059 35.821891,0.002 52.087281,3.66651 65.512491,14.76046 C 171.80997,428.89725 179,445.78384 179,466.29788 c 0,23.27427 -12.47365,44.96206 -31.08804,54.05242 -12.96139,6.32971 -16.42098,6.87959 -46.51538,7.39334 -24.749355,0.4225 -27.159586,0.31634 -27.750004,-1.22226 z m 54.122584,-15.03511 c 16.69045,-3.91891 27.58727,-14.23933 31.69793,-30.02123 C 160.3595,478.03887 161,471.31754 161,465.379 161,441.15154 150.76489,427.00987 128.45729,420.4153 123.96159,419.08628 118.69716,418.63529 107,418.5771 L 91.5,418.5 91.239428,465 c -0.143315,25.575 -0.0186,47.13114 0.277147,47.90253 0.444156,1.15849 3.099518,1.28536 15.260575,0.72914 8.09757,-0.37037 17.54397,-1.3358 20.99201,-2.1454 z M 214.20228,521.75 214.5,515.5 222,515 l 7.5,-0.5 0,-48.5 0,-48.5 -5.5,-0.25923 c -9.97949,-0.47036 -10,-0.48503 -10,-7.15283 0,-4.4338 0.38782,-6.02278 1.58179,-6.48095 2.06316,-0.79171 43.77326,-0.79171 45.83642,0 1.19397,0.45817 1.58179,2.04715 1.58179,6.48095 0,6.6678 -0.0205,6.68247 -10,7.15283 l -5.5,0.25923 0,48.5 0,48.5 7.5,0.5 7.5,0.5 0.29772,6.25 0.29771,6.25 -24.59543,0 -24.59543,0 0.29771,-6.25 z m 85.41143,4.68573 c -1.03857,-2.70647 -0.67983,-8.96961 0.58629,-10.23573 0.69738,-0.69738 4.04021,-1.2 7.98095,-1.2 6.20352,0 6.82748,-0.1916 7.32736,-2.25 0.30053,-1.2375 0.42161,-23.175 0.26905,-48.75 L 315.5,417.5 308.21174,417 c -8.14417,-0.55872 -9.17221,-1.36119 -9.19643,-7.17857 -0.0279,-6.69207 0.453,-6.82143 25.35612,-6.82143 15.95555,0 22.56722,0.33865 23.42857,1.2 0.66,0.66 1.2,3.27 1.2,5.8 0,2.53 -0.54,5.14 -1.2,5.8 -0.69804,0.69804 -4.04444,1.2 -8,1.2 l -6.8,0 0,49 0,49 6.87756,0 c 8.25416,0 9.35927,0.94942 8.9304,7.67231 L 348.5,527.5 l -24.13629,0.26752 c -21.35565,0.2367 -24.20699,0.0833 -24.75,-1.33179 z M 82.331982,187.06003 C 74.205424,185.07484 66.50642,178.42113 62.591837,170 60.570412,165.65147 60.5,164.03577 60.5,122 l 0,-43.5 2.663602,-5 c 3.397029,-6.376758 9.063149,-11.839449 14.995719,-14.457333 4.473437,-1.974007 6.479685,-2.05799 50.288329,-2.105111 l 45.629,-0.04908 5.21168,2.39701 c 6.31209,2.903126 12.19475,8.644835 15.07573,14.714512 C 196.44361,78.381199 196.5,79.64839 196.5,122 c 0,42.12009 -0.0668,43.64436 -2.10566,48.05081 -2.9538,6.38383 -7.85252,11.62291 -13.80432,14.76341 L 175.5,187.5 l -45,0.16696 c -24.75,0.0918 -46.425608,-0.18129 -48.168018,-0.60693 z"
     style="fill:#eb2324" />
  <path
     inkscape:connector-curvature="0"
     id="path3051"
     d="M 73.646576,526.52138 C 73.290959,525.59465 73,498.13037 73,465.48964 c 0,-52.61829 0.178162,-59.52494 1.571429,-60.91821 1.30302,-1.30302 4.420219,-1.57129 18.25,-1.57059 35.821891,0.002 52.087281,3.66651 65.512491,14.76046 C 171.80997,428.89725 179,445.78384 179,466.29788 c 0,23.27427 -12.47365,44.96206 -31.08804,54.05242 -12.96139,6.32971 -16.42098,6.87959 -46.51538,7.39334 -24.749355,0.4225 -27.159586,0.31634 -27.750004,-1.22226 z m 54.122584,-15.03511 c 16.69045,-3.91891 27.58727,-14.23933 31.69793,-30.02123 C 160.3595,478.03887 161,471.31754 161,465.379 161,441.15154 150.76489,427.00987 128.45729,420.4153 123.96159,419.08628 118.69716,418.63529 107,418.5771 L 91.5,418.5 91.239428,465 c -0.143315,25.575 -0.0186,47.13114 0.277147,47.90253 0.444156,1.15849 3.099518,1.28536 15.260575,0.72914 8.09757,-0.37037 17.54397,-1.3358 20.99201,-2.1454 z M 214.20228,521.75 214.5,515.5 222,515 l 7.5,-0.5 0,-48.5 0,-48.5 -5.5,-0.25923 c -9.97949,-0.47036 -10,-0.48503 -10,-7.15283 0,-4.4338 0.38782,-6.02278 1.58179,-6.48095 2.06316,-0.79171 43.77326,-0.79171 45.83642,0 1.19397,0.45817 1.58179,2.04715 1.58179,6.48095 0,6.6678 -0.0205,6.68247 -10,7.15283 l -5.5,0.25923 0,48.5 0,48.5 7.5,0.5 7.5,0.5 0.29772,6.25 0.29771,6.25 -24.59543,0 -24.59543,0 0.29771,-6.25 z m 85.41143,4.68573 c -1.03857,-2.70647 -0.67983,-8.96961 0.58629,-10.23573 0.69738,-0.69738 4.04021,-1.2 7.98095,-1.2 6.20352,0 6.82748,-0.1916 7.32736,-2.25 0.30053,-1.2375 0.42161,-23.175 0.26905,-48.75 L 315.5,417.5 308.21174,417 c -8.14417,-0.55872 -9.17221,-1.36119 -9.19643,-7.17857 -0.0279,-6.69207 0.453,-6.82143 25.35612,-6.82143 15.95555,0 22.56722,0.33865 23.42857,1.2 0.66,0.66 1.2,3.27 1.2,5.8 0,2.53 -0.54,5.14 -1.2,5.8 -0.69804,0.69804 -4.04444,1.2 -8,1.2 l -6.8,0 0,49 0,49 6.87756,0 c 8.25416,0 9.35927,0.94942 8.9304,7.67231 L 348.5,527.5 l -24.13629,0.26752 c -21.35565,0.2367 -24.20699,0.0833 -24.75,-1.33179 z"
     style="fill:#5f5c5d" />
  <path
     inkscape:connector-curvature="0"
     id="path3049"
     d="M 75.666667,526.33333 C 75.3,525.96667 75,498.46823 75,465.22569 l 0,-60.44097 26.25,0.47789 c 20.6539,0.37602 27.6357,0.84958 32.75,2.22136 21.30794,5.71532 36.17454,20.21173 41.55069,40.51603 2.30362,8.70015 2.35581,25.35318 0.10656,34 -6.78323,26.07686 -24.69302,40.66402 -53.92893,43.92402 -10.54174,1.17547 -44.989384,1.48158 -46.061653,0.40931 z m 53.964943,-13.63978 c 7.79685,-2.20319 16.90843,-7.47089 21.45596,-12.40438 11.85218,-12.85809 15.2298,-37.0022 7.91238,-56.55975 -2.63849,-7.05201 -10.15271,-15.52575 -17.49061,-19.72407 -9.3134,-5.32859 -18.87087,-7.10043 -36.5846,-6.78234 L 89.5,417.5 89.239536,465 c -0.143256,26.125 -0.02141,48.12366 0.270772,48.88592 0.718079,1.87336 32.628082,0.92503 40.121302,-1.19237 z m 86.05336,13.65808 C 215.30824,525.9749 215,523.71667 215,521.33333 L 215,517 l 6.75,-0.0153 c 3.7125,-0.008 7.31675,-0.37511 8.00944,-0.81485 0.99083,-0.62902 1.20411,-11.44946 1,-50.73469 L 230.5,415.5 223,415 l -7.5,-0.5 0,-4.5 0,-4.5 23,0 23,0 0,4.5 0,4.5 -7.5,0.5 -7.5,0.5 -0.25944,49.93515 c -0.20411,39.28523 0.009,50.10567 1,50.73469 0.69269,0.43974 4.3216,0.80643 8.06423,0.81485 l 6.80479,0.0153 -0.30479,4.75 -0.30479,4.75 -22.56503,0.2683 c -12.41077,0.14757 -22.87327,-0.0399 -23.25,-0.41667 z m 85.9817,-0.0183 C 301.3,525.96667 301,523.71667 301,521.33333 L 301,517 l 6.87756,0 c 4.58844,0 7.25431,-0.45396 8.0095,-1.36391 0.81679,-0.98418 1.05969,-15.11393 0.87244,-50.75 L 316.5,415.5 l -7.75,-0.29206 -7.75,-0.29207 0,-4.95793 0,-4.95794 23,0 23,0 0,5 0,5 -6.8,0 c -3.95556,0 -7.30196,0.50196 -8,1.2 -1.72889,1.72889 -1.72889,97.87111 0,99.6 0.69804,0.69804 4.04444,1.2 8,1.2 l 6.8,0 0,5 0,5 -22.33333,0 c -12.28334,0 -22.63334,-0.3 -23,-0.66667 z"
     style="fill:#242021" />
</svg>
