<?xml version="1.0" encoding="UTF-8" standalone="no"?>
<!DOCTYPE svg PUBLIC "-//W3C//DTD SVG 1.0//EN" "http://www.w3.org/TR/2001/PR-SVG-20010719/DTD/svg10.dtd">
<svg viewBox="198 -52 1223 616" xmlns="http://www.w3.org/2000/svg" xmlns:xlink="http://www.w3.org/1999/xlink">
  <line style="fill: none; fill-opacity:0; stroke-width: 2; stroke: #7f7f7f" x1="1120" y1="320" x2="1120" y2="240"/>
  <line style="fill: none; fill-opacity:0; stroke-width: 2; stroke: #7f7f7f" x1="1140" y1="320" x2="1140" y2="240"/>
  <line style="fill: none; fill-opacity:0; stroke-width: 2; stroke: #7f7f7f" x1="1160" y1="320" x2="1160" y2="240"/>
  <line style="fill: none; fill-opacity:0; stroke-width: 2; stroke: #7f7f7f" x1="1180" y1="320" x2="1180" y2="240"/>
  <line style="fill: none; fill-opacity:0; stroke-width: 2; stroke: #7f7f7f" x1="1200" y1="320" x2="1200" y2="240"/>
  <line style="fill: none; fill-opacity:0; stroke-width: 2; stroke: #7f7f7f" x1="1220" y1="320" x2="1220" y2="240"/>
  <line style="fill: none; fill-opacity:0; stroke-width: 2; stroke: #7f7f7f" x1="1240" y1="320" x2="1240" y2="240"/>
  <line style="fill: none; fill-opacity:0; stroke-width: 2; stroke: #7f7f7f" x1="1260" y1="320" x2="1260" y2="240"/>
  <line style="fill: none; fill-opacity:0; stroke-width: 2; stroke: #7f7f7f" x1="1280" y1="320" x2="1280" y2="240"/>
  <line style="fill: none; fill-opacity:0; stroke-width: 2; stroke: #7f7f7f" x1="1300" y1="320" x2="1300" y2="240"/>
  <line style="fill: none; fill-opacity:0; stroke-width: 2; stroke: #7f7f7f" x1="1320" y1="320" x2="1320" y2="240"/>
  <line style="fill: none; fill-opacity:0; stroke-width: 2; stroke: #7f7f7f" x1="1340" y1="320" x2="1340" y2="240"/>
  <line style="fill: none; fill-opacity:0; stroke-width: 2; stroke: #7f7f7f" x1="1360" y1="320" x2="1360" y2="240"/>
  <line style="fill: none; fill-opacity:0; stroke-width: 2; stroke: #7f7f7f" x1="1380" y1="320" x2="1380" y2="240"/>
  <line style="fill: none; fill-opacity:0; stroke-width: 2; stroke: #7f7f7f" x1="1400" y1="320" x2="1400" y2="240"/>
  <line style="fill: none; fill-opacity:0; stroke-width: 2; stroke: #7f7f7f" x1="240" y1="320" x2="240" y2="240"/>
  <line style="fill: none; fill-opacity:0; stroke-width: 2; stroke: #7f7f7f" x1="260" y1="320" x2="260" y2="240"/>
  <line style="fill: none; fill-opacity:0; stroke-width: 2; stroke: #7f7f7f" x1="280" y1="320" x2="280" y2="240"/>
  <line style="fill: none; fill-opacity:0; stroke-width: 2; stroke: #7f7f7f" x1="300" y1="320" x2="300" y2="240"/>
  <line style="fill: none; fill-opacity:0; stroke-width: 2; stroke: #7f7f7f" x1="320" y1="320" x2="320" y2="240"/>
  <line style="fill: none; fill-opacity:0; stroke-width: 2; stroke: #7f7f7f" x1="340" y1="320" x2="340" y2="240"/>
  <line style="fill: none; fill-opacity:0; stroke-width: 2; stroke: #7f7f7f" x1="360" y1="320" x2="360" y2="240"/>
  <line style="fill: none; fill-opacity:0; stroke-width: 2; stroke: #7f7f7f" x1="380" y1="320" x2="380" y2="240"/>
  <line style="fill: none; fill-opacity:0; stroke-width: 2; stroke: #7f7f7f" x1="400" y1="320" x2="400" y2="240"/>
  <line style="fill: none; fill-opacity:0; stroke-width: 2; stroke: #7f7f7f" x1="420" y1="320" x2="420" y2="240"/>
  <line style="fill: none; fill-opacity:0; stroke-width: 2; stroke: #7f7f7f" x1="440" y1="320" x2="440" y2="240"/>
  <g>
    <rect style="fill: #000099" x="224" y="260" width="232" height="42.2222"/>
    <path style="fill: #000099" d="M 224,260 A 4,4 0 0 0 220,264 L 224,264 z"/>
    <path style="fill: #000099" d="M 460,264 A 4,4 0 0 0 456,260 L 456,264 z"/>
    <rect style="fill: #000099" x="220" y="264" width="240" height="34.2222"/>
    <path style="fill: #000099" d="M 220,298.222 A 4,4 0 0 0 224,302.222 L 224,298.222 z"/>
    <path style="fill: #000099" d="M 456,302.222 A 4,4 0 0 0 460,298.222 L 456,298.222 z"/>
    <line style="fill: none; fill-opacity:0; stroke-width: 2; stroke: #7f7f7f" x1="224" y1="260" x2="456" y2="260"/>
    <line style="fill: none; fill-opacity:0; stroke-width: 2; stroke: #7f7f7f" x1="224" y1="302.222" x2="456" y2="302.222"/>
    <path style="fill: none; fill-opacity:0; stroke-width: 2; stroke: #7f7f7f" d="M 224,260 A 4,4 0 0 0 220,264"/>
    <path style="fill: none; fill-opacity:0; stroke-width: 2; stroke: #7f7f7f" d="M 460,264 A 4,4 0 0 0 456,260"/>
    <line style="fill: none; fill-opacity:0; stroke-width: 2; stroke: #7f7f7f" x1="220" y1="264" x2="220" y2="298.222"/>
    <line style="fill: none; fill-opacity:0; stroke-width: 2; stroke: #7f7f7f" x1="460" y1="264" x2="460" y2="298.222"/>
    <path style="fill: none; fill-opacity:0; stroke-width: 2; stroke: #7f7f7f" d="M 220,298.222 A 4,4 0 0 0 224,302.222"/>
    <path style="fill: none; fill-opacity:0; stroke-width: 2; stroke: #7f7f7f" d="M 456,302.222 A 4,4 0 0 0 460,298.222"/>
    <text font-size="22.5778" style="fill: #ffffff;text-anchor:middle;font-family:sans-serif;font-style:normal;font-weight:normal" x="340" y="288">
      <tspan x="340" y="288">AR (Address Reg)</tspan>
    </text>
  </g>
  <text font-size="22.5778" style="fill: #ffffff;text-anchor:middle;font-family:sans-serif;font-style:normal;font-weight:normal" x="220" y="187.825">
    <tspan x="220" y="187.825">ALU</tspan>
  </text>
  <g>
    <rect style="fill: #ffff55" x="660" y="20" width="320" height="41.2222"/>
    <rect style="fill: none; fill-opacity:0; stroke-width: 1; stroke: #000000" x="660" y="20" width="320" height="41.2222"/>
    <text font-size="22.5778" style="fill: #000000;text-anchor:middle;font-family:sans-serif;font-style:normal;font-weight:normal" x="820" y="47.5">
      <tspan x="820" y="47.5"></tspan>
    </text>
  </g>
  <g>
    <rect style="fill: #ffff55" x="660" y="60" width="320" height="41.2222"/>
    <rect style="fill: none; fill-opacity:0; stroke-width: 1; stroke: #000000" x="660" y="60" width="320" height="41.2222"/>
    <text font-size="22.5778" style="fill: #000000;text-anchor:middle;font-family:sans-serif;font-style:normal;font-weight:normal" x="820" y="87.5">
      <tspan x="820" y="87.5"></tspan>
    </text>
  </g>
  <g>
    <rect style="fill: #ffff55" x="660" y="100" width="320" height="41.2222"/>
    <rect style="fill: none; fill-opacity:0; stroke-width: 1; stroke: #000000" x="660" y="100" width="320" height="41.2222"/>
    <text font-size="22.5778" style="fill: #000000;text-anchor:middle;font-family:sans-serif;font-style:normal;font-weight:normal" x="820" y="127.5">
      <tspan x="820" y="127.5"></tspan>
    </text>
  </g>
  <g>
    <rect style="fill: #ffff55" x="660" y="140" width="320" height="41.2222"/>
    <rect style="fill: none; fill-opacity:0; stroke-width: 1; stroke: #000000" x="660" y="140" width="320" height="41.2222"/>
    <text font-size="22.5778" style="fill: #000000;text-anchor:middle;font-family:sans-serif;font-style:normal;font-weight:normal" x="820" y="167.5">
      <tspan x="820" y="167.5"></tspan>
    </text>
  </g>
  <g>
    <rect style="fill: #ffff55" x="660" y="180" width="320" height="41.2222"/>
    <rect style="fill: none; fill-opacity:0; stroke-width: 1; stroke: #000000" x="660" y="180" width="320" height="41.2222"/>
    <text font-size="22.5778" style="fill: #000000;text-anchor:middle;font-family:sans-serif;font-style:normal;font-weight:normal" x="820" y="207.5">
      <tspan x="820" y="207.5"></tspan>
    </text>
  </g>
  <g>
    <rect style="fill: #ffff55" x="660" y="260" width="320" height="41.2222"/>
    <rect style="fill: none; fill-opacity:0; stroke-width: 1; stroke: #000000" x="660" y="260" width="320" height="41.2222"/>
    <text font-size="22.5778" style="fill: #000000;text-anchor:middle;font-family:sans-serif;font-style:normal;font-weight:normal" x="820" y="287.5">
      <tspan x="820" y="287.5"></tspan>
    </text>
  </g>
  <g>
    <rect style="fill: #ffff55" x="660" y="340" width="320" height="41.2222"/>
    <rect style="fill: none; fill-opacity:0; stroke-width: 1; stroke: #000000" x="660" y="340" width="320" height="41.2222"/>
    <text font-size="22.5778" style="fill: #000000;text-anchor:middle;font-family:sans-serif;font-style:normal;font-weight:normal" x="820" y="367.5">
      <tspan x="820" y="367.5"></tspan>
    </text>
  </g>
  <g>
    <rect style="fill: #000099" x="1104" y="260" width="312" height="42.2222"/>
    <path style="fill: #000099" d="M 1104,260 A 4,4 0 0 0 1100,264 L 1104,264 z"/>
    <path style="fill: #000099" d="M 1420,264 A 4,4 0 0 0 1416,260 L 1416,264 z"/>
    <rect style="fill: #000099" x="1100" y="264" width="320" height="34.2222"/>
    <path style="fill: #000099" d="M 1100,298.222 A 4,4 0 0 0 1104,302.222 L 1104,298.222 z"/>
    <path style="fill: #000099" d="M 1416,302.222 A 4,4 0 0 0 1420,298.222 L 1416,298.222 z"/>
    <line style="fill: none; fill-opacity:0; stroke-width: 2; stroke: #7f7f7f" x1="1104" y1="260" x2="1416" y2="260"/>
    <line style="fill: none; fill-opacity:0; stroke-width: 2; stroke: #7f7f7f" x1="1104" y1="302.222" x2="1416" y2="302.222"/>
    <path style="fill: none; fill-opacity:0; stroke-width: 2; stroke: #7f7f7f" d="M 1104,260 A 4,4 0 0 0 1100,264"/>
    <path style="fill: none; fill-opacity:0; stroke-width: 2; stroke: #7f7f7f" d="M 1420,264 A 4,4 0 0 0 1416,260"/>
    <line style="fill: none; fill-opacity:0; stroke-width: 2; stroke: #7f7f7f" x1="1100" y1="264" x2="1100" y2="298.222"/>
    <line style="fill: none; fill-opacity:0; stroke-width: 2; stroke: #7f7f7f" x1="1420" y1="264" x2="1420" y2="298.222"/>
    <path style="fill: none; fill-opacity:0; stroke-width: 2; stroke: #7f7f7f" d="M 1100,298.222 A 4,4 0 0 0 1104,302.222"/>
    <path style="fill: none; fill-opacity:0; stroke-width: 2; stroke: #7f7f7f" d="M 1416,302.222 A 4,4 0 0 0 1420,298.222"/>
    <text font-size="22.5778" style="fill: #ffffff;text-anchor:middle;font-family:sans-serif;font-style:normal;font-weight:normal" x="1260" y="288">
      <tspan x="1260" y="288">DR (Data Reg)</tspan>
    </text>
  </g>
  <g>
    <line style="fill: none; fill-opacity:0; stroke-width: 2; stroke: #000000" x1="664.472" y1="-20" x2="975.528" y2="-20"/>
    <polyline style="fill: none; fill-opacity:0; stroke-width: 2; stroke: #000000" points="672.236,-25 662.236,-20 672.236,-15 "/>
    <polyline style="fill: none; fill-opacity:0; stroke-width: 2; stroke: #000000" points="967.764,-15 977.764,-20 967.764,-25 "/>
  </g>
  <text font-size="19.7556" style="fill: #000000;text-anchor:middle;font-family:sans-serif;font-style:italic;font-weight:normal" x="820" y="-33.175">
    <tspan x="820" y="-33.175">h = 16 bit</tspan>
  </text>
  <g>
    <line style="fill: none; fill-opacity:0; stroke-width: 2; stroke: #000000" x1="1104.47" y1="220" x2="1415.53" y2="220"/>
    <polyline style="fill: none; fill-opacity:0; stroke-width: 2; stroke: #000000" points="1112.24,215 1102.24,220 1112.24,225 "/>
    <polyline style="fill: none; fill-opacity:0; stroke-width: 2; stroke: #000000" points="1407.76,225 1417.76,220 1407.76,215 "/>
  </g>
  <text font-size="19.7556" style="fill: #000000;text-anchor:middle;font-family:sans-serif;font-style:italic;font-weight:normal" x="1260" y="206.825">
    <tspan x="1260" y="206.825">h = 16 bit</tspan>
  </text>
  <g>
    <line style="fill: none; fill-opacity:0; stroke-width: 2; stroke: #000000" x1="224.472" y1="220" x2="455.528" y2="220"/>
    <polyline style="fill: none; fill-opacity:0; stroke-width: 2; stroke: #000000" points="232.236,215 222.236,220 232.236,225 "/>
    <polyline style="fill: none; fill-opacity:0; stroke-width: 2; stroke: #000000" points="447.764,225 457.764,220 447.764,215 "/>
  </g>
  <text font-size="19.7556" style="fill: #000000;text-anchor:middle;font-family:sans-serif;font-style:italic;font-weight:normal" x="340" y="206.825">
    <tspan x="340" y="206.825">k = 12 bit</tspan>
  </text>
  <g>
    <rect style="fill: #7f7f7f" x="540" y="20" width="80" height="41.2222"/>
    <rect style="fill: none; fill-opacity:0; stroke-width: 1; stroke: #ffffff" x="540" y="20" width="80" height="41.2222"/>
    <text font-size="22.5778" style="fill: #000000;text-anchor:end;font-family:monospace;font-style:normal;font-weight:normal" x="614.5" y="47.5">
      <tspan x="614.5" y="47.5">0</tspan>
    </text>
  </g>
  <g>
    <rect style="fill: #7f7f7f" x="540" y="60" width="80" height="41.2222"/>
    <rect style="fill: none; fill-opacity:0; stroke-width: 1; stroke: #ffffff" x="540" y="60" width="80" height="41.2222"/>
    <text font-size="22.5778" style="fill: #000000;text-anchor:end;font-family:monospace;font-style:normal;font-weight:normal" x="614.5" y="87.5">
      <tspan x="614.5" y="87.5">2</tspan>
    </text>
  </g>
  <g>
    <rect style="fill: #7f7f7f" x="540" y="100" width="80" height="41.2222"/>
    <rect style="fill: none; fill-opacity:0; stroke-width: 1; stroke: #ffffff" x="540" y="100" width="80" height="41.2222"/>
    <text font-size="22.5778" style="fill: #000000;text-anchor:end;font-family:monospace;font-style:normal;font-weight:normal" x="614.5" y="127.5">
      <tspan x="614.5" y="127.5">4</tspan>
    </text>
  </g>
  <g>
    <rect style="fill: #7f7f7f" x="540" y="140" width="80" height="41.2222"/>
    <rect style="fill: none; fill-opacity:0; stroke-width: 1; stroke: #ffffff" x="540" y="140" width="80" height="41.2222"/>
    <text font-size="22.5778" style="fill: #000000;text-anchor:end;font-family:monospace;font-style:normal;font-weight:normal" x="614.5" y="167.5">
      <tspan x="614.5" y="167.5">6</tspan>
    </text>
  </g>
  <g>
    <rect style="fill: #7f7f7f" x="540" y="180" width="80" height="41.2222"/>
    <rect style="fill: none; fill-opacity:0; stroke-width: 1; stroke: #ffffff" x="540" y="180" width="80" height="41.2222"/>
    <text font-size="22.5778" style="fill: #000000;text-anchor:end;font-family:monospace;font-style:normal;font-weight:normal" x="614.5" y="207.5">
      <tspan x="614.5" y="207.5">...</tspan>
    </text>
  </g>
  <g>
    <rect style="fill: #7f7f7f" x="540" y="260" width="80" height="41.2222"/>
    <rect style="fill: none; fill-opacity:0; stroke-width: 1; stroke: #ffffff" x="540" y="260" width="80" height="41.2222"/>
    <text font-size="22.5778" style="fill: #000000;text-anchor:end;font-family:monospace;font-style:normal;font-weight:normal" x="614.5" y="287.5">
      <tspan x="614.5" y="287.5"></tspan>
    </text>
  </g>
  <g>
    <rect style="fill: #7f7f7f" x="540" y="340" width="80" height="41.2222"/>
    <rect style="fill: none; fill-opacity:0; stroke-width: 1; stroke: #ffffff" x="540" y="340" width="80" height="41.2222"/>
    <text font-size="22.5778" style="fill: #000000;text-anchor:end;font-family:monospace;font-style:normal;font-weight:normal" x="614.5" y="367.5">
      <tspan x="614.5" y="367.5">...</tspan>
    </text>
  </g>
  <g>
    <rect style="fill: #ffff55" x="660" y="380" width="320" height="41.2222"/>
    <rect style="fill: none; fill-opacity:0; stroke-width: 1; stroke: #000000" x="660" y="380" width="320" height="41.2222"/>
    <text font-size="22.5778" style="fill: #000000;text-anchor:middle;font-family:sans-serif;font-style:normal;font-weight:normal" x="820" y="407.5">
      <tspan x="820" y="407.5"></tspan>
    </text>
  </g>
  <g>
    <rect style="fill: #7f7f7f" x="540" y="380" width="80" height="41.2222"/>
    <rect style="fill: none; fill-opacity:0; stroke-width: 1; stroke: #ffffff" x="540" y="380" width="80" height="41.2222"/>
    <text font-size="22.5778" style="fill: #000000;text-anchor:end;font-family:monospace;font-style:normal;font-weight:normal" x="614.5" y="407.5">
      <tspan x="614.5" y="407.5">4094</tspan>
    </text>
  </g>
  <g>
    <line style="fill: none; fill-opacity:0; stroke-width: 2; stroke: #000000" x1="460" y1="281.112" x2="650.264" y2="280.636"/>
    <polygon style="fill: #000000" points="657.764,280.618 647.776,285.643 650.264,280.636 647.751,275.643 "/>
    <polygon style="fill: none; fill-opacity:0; stroke-width: 2; stroke: #000000" points="657.764,280.618 647.776,285.643 650.264,280.636 647.751,275.643 "/>
  </g>
  <g>
    <line style="fill: none; fill-opacity:0; stroke-width: 2; stroke: #000000" x1="980" y1="270.306" x2="1090.26" y2="270.536"/>
    <polygon style="fill: #000000" points="1097.76,270.551 1087.75,275.53 1090.26,270.536 1087.77,265.531 "/>
    <polygon style="fill: none; fill-opacity:0; stroke-width: 2; stroke: #000000" points="1097.76,270.551 1087.75,275.53 1090.26,270.536 1087.77,265.531 "/>
  </g>
  <g>
    <line style="fill: none; fill-opacity:0; stroke-width: 2; stroke: #000000" x1="1100" y1="291.666" x2="989.736" y2="290.977"/>
    <polygon style="fill: #000000" points="982.236,290.93 992.267,285.993 989.736,290.977 992.205,295.992 "/>
    <polygon style="fill: none; fill-opacity:0; stroke-width: 2; stroke: #000000" points="982.236,290.93 992.267,285.993 989.736,290.977 992.205,295.992 "/>
  </g>
  <text font-size="19.7556" style="fill: #000000;text-anchor:middle;font-family:sans-serif;font-style:italic;font-weight:normal" x="1040" y="258.35">
    <tspan x="1040" y="258.35">Load</tspan>
  </text>
  <text font-size="19.7556" style="fill: #000000;text-anchor:middle;font-family:sans-serif;font-style:italic;font-weight:normal" x="1040" y="320">
    <tspan x="1040" y="320">Store</tspan>
  </text>
  <line style="fill: none; fill-opacity:0; stroke-width: 2; stroke-dasharray: 10; stroke: #000000" x1="980" y1="40.6112" x2="1043.95" y2="27.0768"/>
  <line style="fill: none; fill-opacity:0; stroke-width: 2; stroke-dasharray: 10; stroke: #000000" x1="1241.42" y1="303.207" x2="1194.51" y2="359.014"/>
  <g>
    <rect style="fill: #ffff55" x="660" y="300" width="320" height="41.2222"/>
    <rect style="fill: none; fill-opacity:0; stroke-width: 1; stroke: #000000" x="660" y="300" width="320" height="41.2222"/>
    <text font-size="22.5778" style="fill: #000000;text-anchor:middle;font-family:sans-serif;font-style:normal;font-weight:normal" x="820" y="327.5">
      <tspan x="820" y="327.5"></tspan>
    </text>
  </g>
  <g>
    <rect style="fill: #7f7f7f" x="540" y="300" width="80" height="41.2222"/>
    <rect style="fill: none; fill-opacity:0; stroke-width: 1; stroke: #ffffff" x="540" y="300" width="80" height="41.2222"/>
    <text font-size="22.5778" style="fill: #000000;text-anchor:end;font-family:monospace;font-style:normal;font-weight:normal" x="614.5" y="327.5">
      <tspan x="614.5" y="327.5"></tspan>
    </text>
  </g>
  <g>
    <rect style="fill: #ffff55" x="660" y="220" width="320" height="41.2222"/>
    <rect style="fill: none; fill-opacity:0; stroke-width: 1; stroke: #000000" x="660" y="220" width="320" height="41.2222"/>
    <text font-size="22.5778" style="fill: #000000;text-anchor:middle;font-family:sans-serif;font-style:normal;font-weight:normal" x="820" y="247.5">
      <tspan x="820" y="247.5"></tspan>
    </text>
  </g>
  <g>
    <rect style="fill: #7f7f7f" x="540" y="220" width="80" height="41.2222"/>
    <rect style="fill: none; fill-opacity:0; stroke-width: 1; stroke: #ffffff" x="540" y="220" width="80" height="41.2222"/>
    <text font-size="22.5778" style="fill: #000000;text-anchor:end;font-family:monospace;font-style:normal;font-weight:normal" x="614.5" y="247.5">
      <tspan x="614.5" y="247.5"></tspan>
    </text>
  </g>
  <line style="fill: none; fill-opacity:0; stroke-width: 2; stroke-dasharray: 10; stroke: #000000" x1="348.576" y1="303.192" x2="362.481" y2="338.996"/>
  <line style="fill: none; fill-opacity:0; stroke-width: 2; stroke-dasharray: 10; stroke: #000000" x1="551.051" y1="421.722" x2="472.499" y2="479.007"/>
  <text font-size="19.7556" style="fill: #000000;text-anchor:middle;font-family:sans-serif;font-style:italic;font-weight:normal" x="820" y="534.478">
    <tspan x="820" y="534.478">In this example, a word is two bytes</tspan>
    <tspan x="820" y="559.172">2^12 addresses = 4096 bytes of memory</tspan>
  </text>
  <line style="fill: none; fill-opacity:0; stroke-width: 2; stroke: #7f7f7f" x1="680" y1="440" x2="680" y2="0"/>
  <line style="fill: none; fill-opacity:0; stroke-width: 2; stroke: #7f7f7f" x1="700" y1="440" x2="700" y2="0"/>
  <line style="fill: none; fill-opacity:0; stroke-width: 2; stroke: #7f7f7f" x1="720" y1="440" x2="720" y2="0"/>
  <line style="fill: none; fill-opacity:0; stroke-width: 2; stroke: #7f7f7f" x1="740" y1="440" x2="740" y2="0"/>
  <line style="fill: none; fill-opacity:0; stroke-width: 2; stroke: #7f7f7f" x1="760" y1="440" x2="760" y2="0"/>
  <line style="fill: none; fill-opacity:0; stroke-width: 2; stroke: #7f7f7f" x1="780" y1="440" x2="780" y2="0"/>
  <line style="fill: none; fill-opacity:0; stroke-width: 2; stroke: #7f7f7f" x1="800" y1="440" x2="800" y2="0"/>
  <line style="fill: none; fill-opacity:0; stroke-width: 2; stroke: #7f7f7f" x1="820" y1="440" x2="820" y2="0"/>
  <line style="fill: none; fill-opacity:0; stroke-width: 2; stroke: #7f7f7f" x1="840" y1="440" x2="840" y2="0"/>
  <line style="fill: none; fill-opacity:0; stroke-width: 2; stroke: #7f7f7f" x1="860" y1="440" x2="860" y2="0"/>
  <line style="fill: none; fill-opacity:0; stroke-width: 2; stroke: #7f7f7f" x1="880" y1="440" x2="880" y2="0"/>
  <line style="fill: none; fill-opacity:0; stroke-width: 2; stroke: #7f7f7f" x1="900" y1="440" x2="900" y2="0"/>
  <line style="fill: none; fill-opacity:0; stroke-width: 2; stroke: #7f7f7f" x1="920" y1="440" x2="920" y2="0"/>
  <line style="fill: none; fill-opacity:0; stroke-width: 2; stroke: #7f7f7f" x1="940" y1="440" x2="940" y2="0"/>
  <line style="fill: none; fill-opacity:0; stroke-width: 2; stroke: #7f7f7f" x1="960" y1="440" x2="960" y2="0"/>
  <g>
    <path style="fill: #d8e5e5" d="M 383.333 480 L 476.667,480 C 489.553,480 500,493.431 500,510 C 500,526.569 489.553,540 476.667,540 L 383.333,540 C 370.447,540 360,526.569 360,510 C 360,493.431 370.447,480 383.333,480z"/>
    <path style="fill: none; fill-opacity:0; stroke-width: 2; stroke-dasharray: 10; stroke: #000000" d="M 383.333 480 L 476.667,480 C 489.553,480 500,493.431 500,510 C 500,526.569 489.553,540 476.667,540 L 383.333,540 C 370.447,540 360,526.569 360,510 C 360,493.431 370.447,480 383.333,480"/>
    <text font-size="19.7556" style="fill: #000000;text-anchor:middle;font-family:sans-serif;font-style:italic;font-weight:normal" x="430" y="503.826">
      <tspan x="430" y="503.826">Address</tspan>
      <tspan x="430" y="528.521">space</tspan>
    </text>
  </g>
  <g>
    <path style="fill: #d8e5e5" d="M 285.113 340 L 465.563,340 C 490.477,340 510.675,354.372 510.675,372.1 C 510.675,389.829 490.477,404.201 465.563,404.201 L 285.113,404.201 C 260.198,404.201 240,389.829 240,372.1 C 240,354.372 260.198,340 285.113,340z"/>
    <path style="fill: none; fill-opacity:0; stroke-width: 2; stroke-dasharray: 10; stroke: #000000" d="M 285.113 340 L 465.563,340 C 490.477,340 510.675,354.372 510.675,372.1 C 510.675,389.829 490.477,404.201 465.563,404.201 L 285.113,404.201 C 260.198,404.201 240,389.829 240,372.1 C 240,354.372 260.198,340 285.113,340"/>
    <text font-size="19.7556" style="fill: #000000;text-anchor:middle;font-family:sans-serif;font-style:italic;font-weight:normal" x="375.338" y="365.927">
      <tspan x="375.338" y="365.927">Memory address</tspan>
      <tspan x="375.338" y="390.621">(byte addressing)</tspan>
    </text>
  </g>
  <g>
    <path style="fill: #d8e5e5" d="M 1093.34 360 L 1226.69,360 C 1245.1,360 1260.03,377.927 1260.03,400.042 C 1260.03,422.156 1245.1,440.083 1226.69,440.083 L 1093.34,440.083 C 1074.93,440.083 1060,422.156 1060,400.042 C 1060,377.927 1074.93,360 1093.34,360z"/>
    <path style="fill: none; fill-opacity:0; stroke-width: 2; stroke-dasharray: 10; stroke: #000000" d="M 1093.34 360 L 1226.69,360 C 1245.1,360 1260.03,377.927 1260.03,400.042 C 1260.03,422.156 1245.1,440.083 1226.69,440.083 L 1093.34,440.083 C 1074.93,440.083 1060,422.156 1060,400.042 C 1060,377.927 1074.93,360 1093.34,360"/>
    <text font-size="19.7556" style="fill: #000000;text-anchor:middle;font-family:sans-serif;font-style:italic;font-weight:normal" x="1160.01" y="381.521">
      <tspan x="1160.01" y="381.521">Word to</tspan>
      <tspan x="1160.01" y="406.215">read or write</tspan>
      <tspan x="1160.01" y="430.91">to memory</tspan>
    </text>
  </g>
  <g>
    <path style="fill: #d8e5e5" d="M 1068.21 -20 L 1181.06,-20 C 1196.64,-20 1209.28,-6.56855 1209.28,10 C 1209.28,26.5686 1196.64,40 1181.06,40 L 1068.21,40 C 1052.63,40 1040,26.5686 1040,10 C 1040,-6.56855 1052.63,-20 1068.21,-20z"/>
    <path style="fill: none; fill-opacity:0; stroke-width: 2; stroke-dasharray: 10; stroke: #000000" d="M 1068.21 -20 L 1181.06,-20 C 1196.64,-20 1209.28,-6.56855 1209.28,10 C 1209.28,26.5686 1196.64,40 1181.06,40 L 1068.21,40 C 1052.63,40 1040,26.5686 1040,10 C 1040,-6.56855 1052.63,-20 1068.21,-20"/>
    <text font-size="19.7556" style="fill: #000000;text-anchor:middle;font-family:sans-serif;font-style:italic;font-weight:normal" x="1124.64" y="3.82639">
      <tspan x="1124.64" y="3.82639">A word</tspan>
      <tspan x="1124.64" y="28.5208">in memory</tspan>
    </text>
  </g>
</svg>
