<?xml version="1.0" encoding="UTF-8" standalone="no"?>
<!DOCTYPE svg PUBLIC "-//W3C//DTD SVG 1.0//EN" "http://www.w3.org/TR/2001/PR-SVG-20010719/DTD/svg10.dtd">
<svg viewBox="-115 -2 1210 625" xmlns="http://www.w3.org/2000/svg" xmlns:xlink="http://www.w3.org/1999/xlink">
  <g>
    <rect style="fill: #7f7f7f" x="0" y="0" width="440" height="320" rx="20" ry="20"/>
    <rect style="fill: none; fill-opacity:0; stroke-width: 2; stroke-linejoin: round; stroke: #4d4d4d" x="0" y="0" width="440" height="320" rx="20" ry="20"/>
  </g>
  <line style="fill: none; fill-opacity:0; stroke-width: 2; stroke-linejoin: round; stroke: #000000" x1="100" y1="161.111" x2="257.998" y2="158.262"/>
  <line style="fill: none; fill-opacity:0; stroke-width: 2; stroke-linejoin: round; stroke: #000000" x1="100" y1="101.111" x2="260" y2="100"/>
  <line style="fill: none; fill-opacity:0; stroke-width: 2; stroke-linejoin: round; stroke: #000000" x1="100.908" y1="40.6916" x2="259.002" y2="39.0702"/>
  <line style="fill: none; fill-opacity:0; stroke-width: 6; stroke-linejoin: round; stroke: #000000" x1="340" y1="140.547" x2="340" y2="199.513"/>
  <g>
    <rect style="fill: #000099" x="24" y="20" width="72" height="42.2222"/>
    <path style="fill: #000099" d="M 24,20 A 4,4 0 0 0 20,24 L 24,24 z"/>
    <path style="fill: #000099" d="M 100,24 A 4,4 0 0 0 96,20 L 96,24 z"/>
    <rect style="fill: #000099" x="20" y="24" width="80" height="34.2222"/>
    <path style="fill: #000099" d="M 20,58.2222 A 4,4 0 0 0 24,62.2222 L 24,58.2222 z"/>
    <path style="fill: #000099" d="M 96,62.2222 A 4,4 0 0 0 100,58.2222 L 96,58.2222 z"/>
    <line style="fill: none; fill-opacity:0; stroke-width: 2; stroke: #7f7f7f" x1="24" y1="20" x2="96" y2="20"/>
    <line style="fill: none; fill-opacity:0; stroke-width: 2; stroke: #7f7f7f" x1="24" y1="62.2222" x2="96" y2="62.2222"/>
    <path style="fill: none; fill-opacity:0; stroke-width: 2; stroke: #7f7f7f" d="M 24,20 A 4,4 0 0 0 20,24"/>
    <path style="fill: none; fill-opacity:0; stroke-width: 2; stroke: #7f7f7f" d="M 100,24 A 4,4 0 0 0 96,20"/>
    <line style="fill: none; fill-opacity:0; stroke-width: 2; stroke: #7f7f7f" x1="20" y1="24" x2="20" y2="58.2222"/>
    <line style="fill: none; fill-opacity:0; stroke-width: 2; stroke: #7f7f7f" x1="100" y1="24" x2="100" y2="58.2222"/>
    <path style="fill: none; fill-opacity:0; stroke-width: 2; stroke: #7f7f7f" d="M 20,58.2222 A 4,4 0 0 0 24,62.2222"/>
    <path style="fill: none; fill-opacity:0; stroke-width: 2; stroke: #7f7f7f" d="M 96,62.2222 A 4,4 0 0 0 100,58.2222"/>
    <text font-size="22.5778" style="fill: #ffffff;text-anchor:middle;font-family:sans-serif;font-style:normal;font-weight:normal" x="60" y="48">
      <tspan x="60" y="48"></tspan>
    </text>
  </g>
  <g>
    <rect style="fill: #000099" x="24" y="80" width="72" height="42.2222"/>
    <path style="fill: #000099" d="M 24,80 A 4,4 0 0 0 20,84 L 24,84 z"/>
    <path style="fill: #000099" d="M 100,84 A 4,4 0 0 0 96,80 L 96,84 z"/>
    <rect style="fill: #000099" x="20" y="84" width="80" height="34.2222"/>
    <path style="fill: #000099" d="M 20,118.222 A 4,4 0 0 0 24,122.222 L 24,118.222 z"/>
    <path style="fill: #000099" d="M 96,122.222 A 4,4 0 0 0 100,118.222 L 96,118.222 z"/>
    <line style="fill: none; fill-opacity:0; stroke-width: 2; stroke: #7f7f7f" x1="24" y1="80" x2="96" y2="80"/>
    <line style="fill: none; fill-opacity:0; stroke-width: 2; stroke: #7f7f7f" x1="24" y1="122.222" x2="96" y2="122.222"/>
    <path style="fill: none; fill-opacity:0; stroke-width: 2; stroke: #7f7f7f" d="M 24,80 A 4,4 0 0 0 20,84"/>
    <path style="fill: none; fill-opacity:0; stroke-width: 2; stroke: #7f7f7f" d="M 100,84 A 4,4 0 0 0 96,80"/>
    <line style="fill: none; fill-opacity:0; stroke-width: 2; stroke: #7f7f7f" x1="20" y1="84" x2="20" y2="118.222"/>
    <line style="fill: none; fill-opacity:0; stroke-width: 2; stroke: #7f7f7f" x1="100" y1="84" x2="100" y2="118.222"/>
    <path style="fill: none; fill-opacity:0; stroke-width: 2; stroke: #7f7f7f" d="M 20,118.222 A 4,4 0 0 0 24,122.222"/>
    <path style="fill: none; fill-opacity:0; stroke-width: 2; stroke: #7f7f7f" d="M 96,122.222 A 4,4 0 0 0 100,118.222"/>
    <text font-size="22.5778" style="fill: #ffffff;text-anchor:middle;font-family:sans-serif;font-style:normal;font-weight:normal" x="60" y="108">
      <tspan x="60" y="108"></tspan>
    </text>
  </g>
  <g>
    <rect style="fill: #000099" x="24" y="140" width="72" height="42.2222"/>
    <path style="fill: #000099" d="M 24,140 A 4,4 0 0 0 20,144 L 24,144 z"/>
    <path style="fill: #000099" d="M 100,144 A 4,4 0 0 0 96,140 L 96,144 z"/>
    <rect style="fill: #000099" x="20" y="144" width="80" height="34.2222"/>
    <path style="fill: #000099" d="M 20,178.222 A 4,4 0 0 0 24,182.222 L 24,178.222 z"/>
    <path style="fill: #000099" d="M 96,182.222 A 4,4 0 0 0 100,178.222 L 96,178.222 z"/>
    <line style="fill: none; fill-opacity:0; stroke-width: 2; stroke: #7f7f7f" x1="24" y1="140" x2="96" y2="140"/>
    <line style="fill: none; fill-opacity:0; stroke-width: 2; stroke: #7f7f7f" x1="24" y1="182.222" x2="96" y2="182.222"/>
    <path style="fill: none; fill-opacity:0; stroke-width: 2; stroke: #7f7f7f" d="M 24,140 A 4,4 0 0 0 20,144"/>
    <path style="fill: none; fill-opacity:0; stroke-width: 2; stroke: #7f7f7f" d="M 100,144 A 4,4 0 0 0 96,140"/>
    <line style="fill: none; fill-opacity:0; stroke-width: 2; stroke: #7f7f7f" x1="20" y1="144" x2="20" y2="178.222"/>
    <line style="fill: none; fill-opacity:0; stroke-width: 2; stroke: #7f7f7f" x1="100" y1="144" x2="100" y2="178.222"/>
    <path style="fill: none; fill-opacity:0; stroke-width: 2; stroke: #7f7f7f" d="M 20,178.222 A 4,4 0 0 0 24,182.222"/>
    <path style="fill: none; fill-opacity:0; stroke-width: 2; stroke: #7f7f7f" d="M 96,182.222 A 4,4 0 0 0 100,178.222"/>
    <text font-size="22.5778" style="fill: #ffffff;text-anchor:middle;font-family:sans-serif;font-style:normal;font-weight:normal" x="60" y="168">
      <tspan x="60" y="168"></tspan>
    </text>
  </g>
  <g>
    <path style="fill: #ffa500" d="M 33.3333 200 L 86.6667,200 C 94.0305,200 100,208.954 100,220 C 100,231.046 94.0305,240 86.6667,240 L 33.3333,240 C 25.9695,240 20,231.046 20,220 C 20,208.954 25.9695,200 33.3333,200z"/>
    <path style="fill: none; fill-opacity:0; stroke-width: 1; stroke: #000000" d="M 33.3333 200 L 86.6667,200 C 94.0305,200 100,208.954 100,220 C 100,231.046 94.0305,240 86.6667,240 L 33.3333,240 C 25.9695,240 20,231.046 20,220 C 20,208.954 25.9695,200 33.3333,200"/>
    <text font-size="22.5778" style="fill: #000000;text-anchor:middle;font-family:sans-serif;font-style:normal;font-weight:normal" x="60" y="227.056">
      <tspan x="60" y="227.056">Ck</tspan>
    </text>
  </g>
  <g>
    <rect style="fill: #000099" x="24" y="260" width="72" height="42.2222"/>
    <path style="fill: #000099" d="M 24,260 A 4,4 0 0 0 20,264 L 24,264 z"/>
    <path style="fill: #000099" d="M 100,264 A 4,4 0 0 0 96,260 L 96,264 z"/>
    <rect style="fill: #000099" x="20" y="264" width="80" height="34.2222"/>
    <path style="fill: #000099" d="M 20,298.222 A 4,4 0 0 0 24,302.222 L 24,298.222 z"/>
    <path style="fill: #000099" d="M 96,302.222 A 4,4 0 0 0 100,298.222 L 96,298.222 z"/>
    <line style="fill: none; fill-opacity:0; stroke-width: 2; stroke: #7f7f7f" x1="24" y1="260" x2="96" y2="260"/>
    <line style="fill: none; fill-opacity:0; stroke-width: 2; stroke: #7f7f7f" x1="24" y1="302.222" x2="96" y2="302.222"/>
    <path style="fill: none; fill-opacity:0; stroke-width: 2; stroke: #7f7f7f" d="M 24,260 A 4,4 0 0 0 20,264"/>
    <path style="fill: none; fill-opacity:0; stroke-width: 2; stroke: #7f7f7f" d="M 100,264 A 4,4 0 0 0 96,260"/>
    <line style="fill: none; fill-opacity:0; stroke-width: 2; stroke: #7f7f7f" x1="20" y1="264" x2="20" y2="298.222"/>
    <line style="fill: none; fill-opacity:0; stroke-width: 2; stroke: #7f7f7f" x1="100" y1="264" x2="100" y2="298.222"/>
    <path style="fill: none; fill-opacity:0; stroke-width: 2; stroke: #7f7f7f" d="M 20,298.222 A 4,4 0 0 0 24,302.222"/>
    <path style="fill: none; fill-opacity:0; stroke-width: 2; stroke: #7f7f7f" d="M 96,302.222 A 4,4 0 0 0 100,298.222"/>
    <text font-size="22.5778" style="fill: #ffffff;text-anchor:middle;font-family:sans-serif;font-style:normal;font-weight:normal" x="60" y="288">
      <tspan x="60" y="288">DR</tspan>
    </text>
  </g>
  <line style="fill: none; fill-opacity:0; stroke-width: 2; stroke: #000000" x1="100" y1="220" x2="120" y2="220"/>
  <g>
    <rect style="fill: #000099" x="144" y="20" width="72" height="42.2222"/>
    <path style="fill: #000099" d="M 144,20 A 4,4 0 0 0 140,24 L 144,24 z"/>
    <path style="fill: #000099" d="M 220,24 A 4,4 0 0 0 216,20 L 216,24 z"/>
    <rect style="fill: #000099" x="140" y="24" width="80" height="34.2222"/>
    <path style="fill: #000099" d="M 140,58.2222 A 4,4 0 0 0 144,62.2222 L 144,58.2222 z"/>
    <path style="fill: #000099" d="M 216,62.2222 A 4,4 0 0 0 220,58.2222 L 216,58.2222 z"/>
    <line style="fill: none; fill-opacity:0; stroke-width: 2; stroke: #7f7f7f" x1="144" y1="20" x2="216" y2="20"/>
    <line style="fill: none; fill-opacity:0; stroke-width: 2; stroke: #7f7f7f" x1="144" y1="62.2222" x2="216" y2="62.2222"/>
    <path style="fill: none; fill-opacity:0; stroke-width: 2; stroke: #7f7f7f" d="M 144,20 A 4,4 0 0 0 140,24"/>
    <path style="fill: none; fill-opacity:0; stroke-width: 2; stroke: #7f7f7f" d="M 220,24 A 4,4 0 0 0 216,20"/>
    <line style="fill: none; fill-opacity:0; stroke-width: 2; stroke: #7f7f7f" x1="140" y1="24" x2="140" y2="58.2222"/>
    <line style="fill: none; fill-opacity:0; stroke-width: 2; stroke: #7f7f7f" x1="220" y1="24" x2="220" y2="58.2222"/>
    <path style="fill: none; fill-opacity:0; stroke-width: 2; stroke: #7f7f7f" d="M 140,58.2222 A 4,4 0 0 0 144,62.2222"/>
    <path style="fill: none; fill-opacity:0; stroke-width: 2; stroke: #7f7f7f" d="M 216,62.2222 A 4,4 0 0 0 220,58.2222"/>
    <text font-size="22.5778" style="fill: #ffffff;text-anchor:middle;font-family:sans-serif;font-style:normal;font-weight:normal" x="180" y="48">
      <tspan x="180" y="48"></tspan>
    </text>
  </g>
  <g>
    <rect style="fill: #000099" x="144" y="82.2222" width="72" height="42.2222"/>
    <path style="fill: #000099" d="M 144,82.2222 A 4,4 0 0 0 140,86.2222 L 144,86.2222 z"/>
    <path style="fill: #000099" d="M 220,86.2222 A 4,4 0 0 0 216,82.2222 L 216,86.2222 z"/>
    <rect style="fill: #000099" x="140" y="86.2222" width="80" height="34.2222"/>
    <path style="fill: #000099" d="M 140,120.444 A 4,4 0 0 0 144,124.444 L 144,120.444 z"/>
    <path style="fill: #000099" d="M 216,124.444 A 4,4 0 0 0 220,120.444 L 216,120.444 z"/>
    <line style="fill: none; fill-opacity:0; stroke-width: 2; stroke: #7f7f7f" x1="144" y1="82.2222" x2="216" y2="82.2222"/>
    <line style="fill: none; fill-opacity:0; stroke-width: 2; stroke: #7f7f7f" x1="144" y1="124.444" x2="216" y2="124.444"/>
    <path style="fill: none; fill-opacity:0; stroke-width: 2; stroke: #7f7f7f" d="M 144,82.2222 A 4,4 0 0 0 140,86.2222"/>
    <path style="fill: none; fill-opacity:0; stroke-width: 2; stroke: #7f7f7f" d="M 220,86.2222 A 4,4 0 0 0 216,82.2222"/>
    <line style="fill: none; fill-opacity:0; stroke-width: 2; stroke: #7f7f7f" x1="140" y1="86.2222" x2="140" y2="120.444"/>
    <line style="fill: none; fill-opacity:0; stroke-width: 2; stroke: #7f7f7f" x1="220" y1="86.2222" x2="220" y2="120.444"/>
    <path style="fill: none; fill-opacity:0; stroke-width: 2; stroke: #7f7f7f" d="M 140,120.444 A 4,4 0 0 0 144,124.444"/>
    <path style="fill: none; fill-opacity:0; stroke-width: 2; stroke: #7f7f7f" d="M 216,124.444 A 4,4 0 0 0 220,120.444"/>
    <text font-size="22.5778" style="fill: #ffffff;text-anchor:middle;font-family:sans-serif;font-style:normal;font-weight:normal" x="180" y="110.222">
      <tspan x="180" y="110.222"></tspan>
    </text>
  </g>
  <g>
    <rect style="fill: #000099" x="144" y="142.222" width="72" height="42.2222"/>
    <path style="fill: #000099" d="M 144,142.222 A 4,4 0 0 0 140,146.222 L 144,146.222 z"/>
    <path style="fill: #000099" d="M 220,146.222 A 4,4 0 0 0 216,142.222 L 216,146.222 z"/>
    <rect style="fill: #000099" x="140" y="146.222" width="80" height="34.2222"/>
    <path style="fill: #000099" d="M 140,180.444 A 4,4 0 0 0 144,184.444 L 144,180.444 z"/>
    <path style="fill: #000099" d="M 216,184.444 A 4,4 0 0 0 220,180.444 L 216,180.444 z"/>
    <line style="fill: none; fill-opacity:0; stroke-width: 2; stroke: #7f7f7f" x1="144" y1="142.222" x2="216" y2="142.222"/>
    <line style="fill: none; fill-opacity:0; stroke-width: 2; stroke: #7f7f7f" x1="144" y1="184.444" x2="216" y2="184.444"/>
    <path style="fill: none; fill-opacity:0; stroke-width: 2; stroke: #7f7f7f" d="M 144,142.222 A 4,4 0 0 0 140,146.222"/>
    <path style="fill: none; fill-opacity:0; stroke-width: 2; stroke: #7f7f7f" d="M 220,146.222 A 4,4 0 0 0 216,142.222"/>
    <line style="fill: none; fill-opacity:0; stroke-width: 2; stroke: #7f7f7f" x1="140" y1="146.222" x2="140" y2="180.444"/>
    <line style="fill: none; fill-opacity:0; stroke-width: 2; stroke: #7f7f7f" x1="220" y1="146.222" x2="220" y2="180.444"/>
    <path style="fill: none; fill-opacity:0; stroke-width: 2; stroke: #7f7f7f" d="M 140,180.444 A 4,4 0 0 0 144,184.444"/>
    <path style="fill: none; fill-opacity:0; stroke-width: 2; stroke: #7f7f7f" d="M 216,184.444 A 4,4 0 0 0 220,180.444"/>
    <text font-size="22.5778" style="fill: #ffffff;text-anchor:middle;font-family:sans-serif;font-style:normal;font-weight:normal" x="180" y="170.222">
      <tspan x="180" y="170.222">   </tspan>
    </text>
  </g>
  <g>
    <polygon style="fill: #aa0000" points="260,20 420,100 260,180 "/>
    <polygon style="fill: none; fill-opacity:0; stroke-width: 1; stroke: #000000" points="260,20 420,100 260,180 "/>
  </g>
  <text font-size="22.5778" style="fill: #ffffff;text-anchor:middle;font-family:sans-serif;font-style:normal;font-weight:normal" x="340" y="107.825">
    <tspan x="340" y="107.825">ALU</tspan>
  </text>
  <line style="fill: none; fill-opacity:0; stroke-width: 6; stroke: #000000" x1="120" y1="220" x2="260" y2="220.612"/>
  <line style="fill: none; fill-opacity:0; stroke-width: 6; stroke: #000000" x1="120" y1="40" x2="120" y2="281.112"/>
  <line style="fill: none; fill-opacity:0; stroke-width: 2; stroke: #000000" x1="100.898" y1="281.111" x2="139.102" y2="281.111"/>
  <g>
    <rect style="fill: #ffff55" x="740" y="20" width="240" height="41.2222"/>
    <rect style="fill: none; fill-opacity:0; stroke-width: 1; stroke: #000000" x="740" y="20" width="240" height="41.2222"/>
    <text font-size="22.5778" style="fill: #000000;text-anchor:middle;font-family:sans-serif;font-style:normal;font-weight:normal" x="860" y="47.5">
      <tspan x="860" y="47.5"></tspan>
    </text>
  </g>
  <g>
    <rect style="fill: #ffff55" x="740" y="60" width="240" height="41.2222"/>
    <rect style="fill: none; fill-opacity:0; stroke-width: 1; stroke: #000000" x="740" y="60" width="240" height="41.2222"/>
    <text font-size="22.5778" style="fill: #000000;text-anchor:middle;font-family:sans-serif;font-style:normal;font-weight:normal" x="860" y="87.5">
      <tspan x="860" y="87.5"></tspan>
    </text>
  </g>
  <g>
    <rect style="fill: #ffff55" x="740" y="100" width="240" height="41.2222"/>
    <rect style="fill: none; fill-opacity:0; stroke-width: 1; stroke: #000000" x="740" y="100" width="240" height="41.2222"/>
    <text font-size="22.5778" style="fill: #000000;text-anchor:middle;font-family:sans-serif;font-style:normal;font-weight:normal" x="860" y="127.5">
      <tspan x="860" y="127.5"></tspan>
    </text>
  </g>
  <g>
    <rect style="fill: #ffff55" x="740" y="140" width="240" height="41.2222"/>
    <rect style="fill: none; fill-opacity:0; stroke-width: 1; stroke: #000000" x="740" y="140" width="240" height="41.2222"/>
    <text font-size="22.5778" style="fill: #000000;text-anchor:middle;font-family:sans-serif;font-style:normal;font-weight:normal" x="860" y="167.5">
      <tspan x="860" y="167.5"></tspan>
    </text>
  </g>
  <g>
    <rect style="fill: #ffff55" x="740" y="180" width="240" height="41.2222"/>
    <rect style="fill: none; fill-opacity:0; stroke-width: 1; stroke: #000000" x="740" y="180" width="240" height="41.2222"/>
    <text font-size="22.5778" style="fill: #000000;text-anchor:middle;font-family:sans-serif;font-style:normal;font-weight:normal" x="860" y="207.5">
      <tspan x="860" y="207.5"></tspan>
    </text>
  </g>
  <g>
    <rect style="fill: #ffff55" x="740" y="220" width="240" height="41.2222"/>
    <rect style="fill: none; fill-opacity:0; stroke-width: 1; stroke: #000000" x="740" y="220" width="240" height="41.2222"/>
    <text font-size="22.5778" style="fill: #000000;text-anchor:middle;font-family:sans-serif;font-style:normal;font-weight:normal" x="860" y="247.5">
      <tspan x="860" y="247.5"></tspan>
    </text>
  </g>
  <g>
    <line style="fill: none; fill-opacity:0; stroke-width: 30; stroke: #ffa500" x1="-51.459" y1="460" x2="1031.46" y2="460"/>
    <polygon style="fill: #ffa500" points="-66.459,460 -46.459,450 -51.459,460 -46.459,470 "/>
    <polygon style="fill: none; fill-opacity:0; stroke-width: 30; stroke: #ffa500" points="-66.459,460 -46.459,450 -51.459,460 -46.459,470 "/>
    <polygon style="fill: #ffa500" points="1046.46,460 1026.46,470 1031.46,460 1026.46,450 "/>
    <polygon style="fill: none; fill-opacity:0; stroke-width: 30; stroke: #ffa500" points="1046.46,460 1026.46,470 1031.46,460 1026.46,450 "/>
  </g>
  <g>
    <line style="fill: none; fill-opacity:0; stroke-width: 30; stroke: #00ff00" x1="-51.459" y1="520" x2="1031.46" y2="520"/>
    <polygon style="fill: #00ff00" points="-66.459,520 -46.459,510 -51.459,520 -46.459,530 "/>
    <polygon style="fill: none; fill-opacity:0; stroke-width: 30; stroke: #00ff00" points="-66.459,520 -46.459,510 -51.459,520 -46.459,530 "/>
    <polygon style="fill: #00ff00" points="1046.46,520 1026.46,530 1031.46,520 1026.46,510 "/>
    <polygon style="fill: none; fill-opacity:0; stroke-width: 30; stroke: #00ff00" points="1046.46,520 1026.46,530 1031.46,520 1026.46,510 "/>
  </g>
  <g>
    <line style="fill: none; fill-opacity:0; stroke-width: 30; stroke: #ff0000" x1="-51.459" y1="580" x2="1031.46" y2="580"/>
    <polygon style="fill: #ff0000" points="-66.459,580 -46.459,570 -51.459,580 -46.459,590 "/>
    <polygon style="fill: none; fill-opacity:0; stroke-width: 30; stroke: #ff0000" points="-66.459,580 -46.459,570 -51.459,580 -46.459,590 "/>
    <polygon style="fill: #ff0000" points="1046.46,580 1026.46,590 1031.46,580 1026.46,570 "/>
    <polygon style="fill: none; fill-opacity:0; stroke-width: 30; stroke: #ff0000" points="1046.46,580 1026.46,590 1031.46,580 1026.46,570 "/>
  </g>
  <g>
    <line style="fill: none; fill-opacity:0; stroke-width: 20; stroke: #ffa500" x1="180" y1="300" x2="180" y2="422.639"/>
    <polygon style="fill: #ffa500" points="180,437.639 170,417.639 180,422.639 190,417.639 "/>
    <polygon style="fill: none; fill-opacity:0; stroke-width: 20; stroke: #ffa500" points="180,437.639 170,417.639 180,422.639 190,417.639 "/>
  </g>
  <g>
    <rect style="fill: #000099" x="144" y="260" width="72" height="42.2222"/>
    <path style="fill: #000099" d="M 144,260 A 4,4 0 0 0 140,264 L 144,264 z"/>
    <path style="fill: #000099" d="M 220,264 A 4,4 0 0 0 216,260 L 216,264 z"/>
    <rect style="fill: #000099" x="140" y="264" width="80" height="34.2222"/>
    <path style="fill: #000099" d="M 140,298.222 A 4,4 0 0 0 144,302.222 L 144,298.222 z"/>
    <path style="fill: #000099" d="M 216,302.222 A 4,4 0 0 0 220,298.222 L 216,298.222 z"/>
    <line style="fill: none; fill-opacity:0; stroke-width: 2; stroke: #7f7f7f" x1="144" y1="260" x2="216" y2="260"/>
    <line style="fill: none; fill-opacity:0; stroke-width: 2; stroke: #7f7f7f" x1="144" y1="302.222" x2="216" y2="302.222"/>
    <path style="fill: none; fill-opacity:0; stroke-width: 2; stroke: #7f7f7f" d="M 144,260 A 4,4 0 0 0 140,264"/>
    <path style="fill: none; fill-opacity:0; stroke-width: 2; stroke: #7f7f7f" d="M 220,264 A 4,4 0 0 0 216,260"/>
    <line style="fill: none; fill-opacity:0; stroke-width: 2; stroke: #7f7f7f" x1="140" y1="264" x2="140" y2="298.222"/>
    <line style="fill: none; fill-opacity:0; stroke-width: 2; stroke: #7f7f7f" x1="220" y1="264" x2="220" y2="298.222"/>
    <path style="fill: none; fill-opacity:0; stroke-width: 2; stroke: #7f7f7f" d="M 140,298.222 A 4,4 0 0 0 144,302.222"/>
    <path style="fill: none; fill-opacity:0; stroke-width: 2; stroke: #7f7f7f" d="M 216,302.222 A 4,4 0 0 0 220,298.222"/>
    <text font-size="22.5778" style="fill: #ffffff;text-anchor:middle;font-family:sans-serif;font-style:normal;font-weight:normal" x="180" y="288">
      <tspan x="180" y="288">AR</tspan>
    </text>
  </g>
  <g>
    <line style="fill: none; fill-opacity:0; stroke-width: 20; stroke: #ff0000" x1="300" y1="241.222" x2="300" y2="538.973"/>
    <polygon style="fill: #ff0000" points="300,553.973 290,533.973 300,538.973 310,533.973 "/>
    <polygon style="fill: none; fill-opacity:0; stroke-width: 20; stroke: #ff0000" points="300,553.973 290,533.973 300,538.973 310,533.973 "/>
  </g>
  <g>
    <rect style="fill: #005500" x="264" y="200" width="152" height="41.2222"/>
    <path style="fill: #005500" d="M 264,200 A 4,4 0 0 0 260,204 L 264,204 z"/>
    <path style="fill: #005500" d="M 420,204 A 4,4 0 0 0 416,200 L 416,204 z"/>
    <rect style="fill: #005500" x="260" y="204" width="160" height="33.2222"/>
    <path style="fill: #005500" d="M 260,237.222 A 4,4 0 0 0 264,241.222 L 264,237.222 z"/>
    <path style="fill: #005500" d="M 416,241.222 A 4,4 0 0 0 420,237.222 L 416,237.222 z"/>
    <line style="fill: none; fill-opacity:0; stroke-width: 1; stroke: #000000" x1="264" y1="200" x2="416" y2="200"/>
    <line style="fill: none; fill-opacity:0; stroke-width: 1; stroke: #000000" x1="264" y1="241.222" x2="416" y2="241.222"/>
    <path style="fill: none; fill-opacity:0; stroke-width: 1; stroke: #000000" d="M 264,200 A 4,4 0 0 0 260,204"/>
    <path style="fill: none; fill-opacity:0; stroke-width: 1; stroke: #000000" d="M 420,204 A 4,4 0 0 0 416,200"/>
    <line style="fill: none; fill-opacity:0; stroke-width: 1; stroke: #000000" x1="260" y1="204" x2="260" y2="237.222"/>
    <line style="fill: none; fill-opacity:0; stroke-width: 1; stroke: #000000" x1="420" y1="204" x2="420" y2="237.222"/>
    <path style="fill: none; fill-opacity:0; stroke-width: 1; stroke: #000000" d="M 260,237.222 A 4,4 0 0 0 264,241.222"/>
    <path style="fill: none; fill-opacity:0; stroke-width: 1; stroke: #000000" d="M 416,241.222 A 4,4 0 0 0 420,237.222"/>
    <text font-size="22.5778" style="fill: #ffffff;text-anchor:middle;font-family:sans-serif;font-style:normal;font-weight:normal" x="340" y="227.5">
      <tspan x="340" y="227.5">CU</tspan>
    </text>
  </g>
  <g>
    <line style="fill: none; fill-opacity:0; stroke-width: 20; stroke: #00ff00" x1="60" y1="302.222" x2="60" y2="482.639"/>
    <polygon style="fill: #00ff00" points="60,497.639 50,477.639 60,482.639 70,477.639 "/>
    <polygon style="fill: none; fill-opacity:0; stroke-width: 20; stroke: #00ff00" points="60,497.639 50,477.639 60,482.639 70,477.639 "/>
  </g>
  <g>
    <rect style="fill: #ffff55" x="740" y="260" width="240" height="41.2222"/>
    <rect style="fill: none; fill-opacity:0; stroke-width: 1; stroke: #000000" x="740" y="260" width="240" height="41.2222"/>
    <text font-size="22.5778" style="fill: #000000;text-anchor:middle;font-family:sans-serif;font-style:normal;font-weight:normal" x="860" y="287.5">
      <tspan x="860" y="287.5"></tspan>
    </text>
  </g>
  <text font-size="22.5778" style="fill: #000000;text-anchor:middle;font-family:sans-serif;font-style:normal;font-weight:normal" x="490" y="467.825">
    <tspan x="490" y="467.825">Address Bus</tspan>
  </text>
  <text font-size="22.5778" style="fill: #000000;text-anchor:middle;font-family:sans-serif;font-style:normal;font-weight:normal" x="490" y="527.825">
    <tspan x="490" y="527.825">Data Bus</tspan>
  </text>
  <text font-size="22.5778" style="fill: #ffffff;text-anchor:middle;font-family:sans-serif;font-style:normal;font-weight:normal" x="490" y="587.825">
    <tspan x="490" y="587.825">Control Bus</tspan>
  </text>
  <g>
    <rect style="fill: none; fill-opacity:0; stroke-width: 2; stroke-dasharray: 4; stroke: #000000" x="180" y="360" width="100" height="42.2222"/>
    <text font-size="22.5778" style="fill: #000000;text-anchor:middle;font-family:sans-serif;font-style:italic;font-weight:normal" x="230" y="388">
      <tspan x="230" y="388">123</tspan>
    </text>
  </g>
  <g>
    <rect style="fill: none; fill-opacity:0; stroke-width: 2; stroke-dasharray: 4; stroke: #000000" x="300" y="360" width="100" height="42.2222"/>
    <text font-size="22.5778" style="fill: #000000;text-anchor:middle;font-family:sans-serif;font-style:italic;font-weight:normal" x="350" y="388">
      <tspan x="350" y="388">Store</tspan>
    </text>
  </g>
  <g>
    <rect style="fill: none; fill-opacity:0; stroke-width: 2; stroke-dasharray: 4; stroke: #000000" x="-40" y="360" width="100" height="42.2222"/>
    <text font-size="22.5778" style="fill: #000000;text-anchor:middle;font-family:sans-serif;font-style:italic;font-weight:normal" x="10" y="388">
      <tspan x="10" y="388">70</tspan>
    </text>
  </g>
</svg>
