<?xml version="1.0" encoding="UTF-8" standalone="no"?>
<!DOCTYPE svg PUBLIC "-//W3C//DTD SVG 1.0//EN" "http://www.w3.org/TR/2001/PR-SVG-20010719/DTD/svg10.dtd">
<svg viewBox="-3 119 965 285" xmlns="http://www.w3.org/2000/svg" xmlns:xlink="http://www.w3.org/1999/xlink">
  <g>
    <ellipse style="fill: #ffffff" cx="220" cy="140" rx="20" ry="20"/>
    <ellipse style="fill: none; fill-opacity:0; stroke-width: 2; stroke: #000000" cx="220" cy="140" rx="20" ry="20"/>
  </g>
  <text font-size="22.5778" style="fill: #000000;text-anchor:middle;font-family:sans-serif;font-style:normal;font-weight:normal" x="220" y="147.825">
    <tspan x="220" y="147.825">E</tspan>
  </text>
  <g>
    <ellipse style="fill: #ffffff" cx="140" cy="220" rx="20" ry="20"/>
    <ellipse style="fill: none; fill-opacity:0; stroke-width: 2; stroke: #000000" cx="140" cy="220" rx="20" ry="20"/>
  </g>
  <text font-size="22.5778" style="fill: #000000;text-anchor:middle;font-family:sans-serif;font-style:normal;font-weight:normal" x="140" y="227.825">
    <tspan x="140" y="227.825">E</tspan>
  </text>
  <g>
    <ellipse style="fill: #ffffff" cx="220" cy="220" rx="20" ry="20"/>
    <ellipse style="fill: none; fill-opacity:0; stroke-width: 6; stroke: #000000" cx="220" cy="220" rx="20" ry="20"/>
  </g>
  <text font-size="22.5778" style="fill: #000000;text-anchor:middle;font-family:sans-serif;font-style:normal;font-weight:normal" x="220" y="227.825">
    <tspan x="220" y="227.825">+</tspan>
  </text>
  <g>
    <ellipse style="fill: #ffffff" cx="300" cy="220" rx="20" ry="20"/>
    <ellipse style="fill: none; fill-opacity:0; stroke-width: 2; stroke: #000000" cx="300" cy="220" rx="20" ry="20"/>
  </g>
  <text font-size="22.5778" style="fill: #000000;text-anchor:middle;font-family:sans-serif;font-style:normal;font-weight:normal" x="300" y="227.825">
    <tspan x="300" y="227.825">E</tspan>
  </text>
  <g>
    <ellipse style="fill: #ffffff" cx="220" cy="300" rx="20" ry="20"/>
    <ellipse style="fill: none; fill-opacity:0; stroke-width: 2; stroke: #000000" cx="220" cy="300" rx="20" ry="20"/>
  </g>
  <text font-size="22.5778" style="fill: #000000;text-anchor:middle;font-family:sans-serif;font-style:normal;font-weight:normal" x="220" y="307.825">
    <tspan x="220" y="307.825">E</tspan>
  </text>
  <g>
    <ellipse style="fill: #ffffff" cx="300" cy="300" rx="20" ry="20"/>
    <ellipse style="fill: none; fill-opacity:0; stroke-width: 6; stroke: #000000" cx="300" cy="300" rx="20" ry="20"/>
  </g>
  <text font-size="22.5778" style="fill: #000000;text-anchor:middle;font-family:sans-serif;font-style:normal;font-weight:normal" x="300" y="307.825">
    <tspan x="300" y="307.825">*</tspan>
  </text>
  <g>
    <ellipse style="fill: #ffffff" cx="380" cy="300" rx="20" ry="20"/>
    <ellipse style="fill: none; fill-opacity:0; stroke-width: 2; stroke: #000000" cx="380" cy="300" rx="20" ry="20"/>
  </g>
  <text font-size="22.5778" style="fill: #000000;text-anchor:middle;font-family:sans-serif;font-style:normal;font-weight:normal" x="380" y="307.825">
    <tspan x="380" y="307.825">E</tspan>
  </text>
  <g>
    <ellipse style="fill: #ffffff" cx="140" cy="300" rx="20" ry="20"/>
    <ellipse style="fill: none; fill-opacity:0; stroke-width: 6; stroke: #000000" cx="140" cy="300" rx="20" ry="20"/>
  </g>
  <text font-size="22.5778" style="fill: #000000;text-anchor:middle;font-family:sans-serif;font-style:normal;font-weight:normal" x="140" y="307.825">
    <tspan x="140" y="307.825">a</tspan>
  </text>
  <g>
    <ellipse style="fill: #ffffff" cx="220" cy="380" rx="20" ry="20"/>
    <ellipse style="fill: none; fill-opacity:0; stroke-width: 6; stroke: #000000" cx="220" cy="380" rx="20" ry="20"/>
  </g>
  <text font-size="22.5778" style="fill: #000000;text-anchor:middle;font-family:sans-serif;font-style:normal;font-weight:normal" x="220" y="387.825">
    <tspan x="220" y="387.825">a</tspan>
  </text>
  <g>
    <ellipse style="fill: #ffffff" cx="380" cy="380" rx="20" ry="20"/>
    <ellipse style="fill: none; fill-opacity:0; stroke-width: 6; stroke: #000000" cx="380" cy="380" rx="20" ry="20"/>
  </g>
  <text font-size="22.5778" style="fill: #000000;text-anchor:middle;font-family:sans-serif;font-style:normal;font-weight:normal" x="380" y="387.825">
    <tspan x="380" y="387.825">a</tspan>
  </text>
  <line style="fill: none; fill-opacity:0; stroke-width: 2; stroke: #000000" x1="205.858" y1="154.142" x2="154.824" y2="205.176"/>
  <line style="fill: none; fill-opacity:0; stroke-width: 2; stroke: #000000" x1="220" y1="160.977" x2="220" y2="197.012"/>
  <line style="fill: none; fill-opacity:0; stroke-width: 2; stroke: #000000" x1="234.854" y1="154.854" x2="285.146" y2="205.146"/>
  <line style="fill: none; fill-opacity:0; stroke-width: 2; stroke: #000000" x1="140" y1="240.977" x2="140" y2="277.012"/>
  <line style="fill: none; fill-opacity:0; stroke-width: 2; stroke: #000000" x1="285.146" y1="234.854" x2="234.854" y2="285.146"/>
  <line style="fill: none; fill-opacity:0; stroke-width: 2; stroke: #000000" x1="300" y1="240.977" x2="300" y2="277.012"/>
  <line style="fill: none; fill-opacity:0; stroke-width: 2; stroke: #000000" x1="314.854" y1="234.854" x2="365.146" y2="285.146"/>
  <line style="fill: none; fill-opacity:0; stroke-width: 2; stroke: #000000" x1="220" y1="320.977" x2="220" y2="357.012"/>
  <line style="fill: none; fill-opacity:0; stroke-width: 2; stroke: #000000" x1="380" y1="320.991" x2="380" y2="360"/>
  <g>
    <ellipse style="fill: #ffffff" cx="740" cy="140" rx="20" ry="20"/>
    <ellipse style="fill: none; fill-opacity:0; stroke-width: 2; stroke: #000000" cx="740" cy="140" rx="20" ry="20"/>
  </g>
  <text font-size="22.5778" style="fill: #000000;text-anchor:middle;font-family:sans-serif;font-style:normal;font-weight:normal" x="740" y="147.825">
    <tspan x="740" y="147.825">E</tspan>
  </text>
  <g>
    <ellipse style="fill: #ffffff" cx="820" cy="220" rx="20" ry="20"/>
    <ellipse style="fill: none; fill-opacity:0; stroke-width: 2; stroke: #000000" cx="820" cy="220" rx="20" ry="20"/>
  </g>
  <text font-size="22.5778" style="fill: #000000;text-anchor:middle;font-family:sans-serif;font-style:normal;font-weight:normal" x="820" y="227.825">
    <tspan x="820" y="227.825">E</tspan>
  </text>
  <g>
    <ellipse style="fill: #ffffff" cx="740" cy="220" rx="20" ry="20"/>
    <ellipse style="fill: none; fill-opacity:0; stroke-width: 6; stroke: #000000" cx="740" cy="220" rx="20" ry="20"/>
  </g>
  <text font-size="22.5778" style="fill: #000000;text-anchor:middle;font-family:sans-serif;font-style:normal;font-weight:normal" x="740" y="227.825">
    <tspan x="740" y="227.825">*</tspan>
  </text>
  <g>
    <ellipse style="fill: #ffffff" cx="660" cy="220" rx="20" ry="20"/>
    <ellipse style="fill: none; fill-opacity:0; stroke-width: 2; stroke: #000000" cx="660" cy="220" rx="20" ry="20"/>
  </g>
  <text font-size="22.5778" style="fill: #000000;text-anchor:middle;font-family:sans-serif;font-style:normal;font-weight:normal" x="660" y="227.825">
    <tspan x="660" y="227.825">E</tspan>
  </text>
  <g>
    <ellipse style="fill: #ffffff" cx="580" cy="300" rx="20" ry="20"/>
    <ellipse style="fill: none; fill-opacity:0; stroke-width: 2; stroke: #000000" cx="580" cy="300" rx="20" ry="20"/>
  </g>
  <text font-size="22.5778" style="fill: #000000;text-anchor:middle;font-family:sans-serif;font-style:normal;font-weight:normal" x="580" y="307.825">
    <tspan x="580" y="307.825">E</tspan>
  </text>
  <g>
    <ellipse style="fill: #ffffff" cx="660" cy="300" rx="20" ry="20"/>
    <ellipse style="fill: none; fill-opacity:0; stroke-width: 6; stroke: #000000" cx="660" cy="300" rx="20" ry="20"/>
  </g>
  <text font-size="22.5778" style="fill: #000000;text-anchor:middle;font-family:sans-serif;font-style:normal;font-weight:normal" x="660" y="307.825">
    <tspan x="660" y="307.825">+</tspan>
  </text>
  <g>
    <ellipse style="fill: #ffffff" cx="740" cy="300" rx="20" ry="20"/>
    <ellipse style="fill: none; fill-opacity:0; stroke-width: 2; stroke: #000000" cx="740" cy="300" rx="20" ry="20"/>
  </g>
  <text font-size="22.5778" style="fill: #000000;text-anchor:middle;font-family:sans-serif;font-style:normal;font-weight:normal" x="740" y="307.825">
    <tspan x="740" y="307.825">E</tspan>
  </text>
  <g>
    <ellipse style="fill: #ffffff" cx="820" cy="300" rx="20" ry="20"/>
    <ellipse style="fill: none; fill-opacity:0; stroke-width: 6; stroke: #000000" cx="820" cy="300" rx="20" ry="20"/>
  </g>
  <text font-size="22.5778" style="fill: #000000;text-anchor:middle;font-family:sans-serif;font-style:normal;font-weight:normal" x="820" y="307.825">
    <tspan x="820" y="307.825">a</tspan>
  </text>
  <g>
    <ellipse style="fill: #ffffff" cx="580" cy="380" rx="20" ry="20"/>
    <ellipse style="fill: none; fill-opacity:0; stroke-width: 6; stroke: #000000" cx="580" cy="380" rx="20" ry="20"/>
  </g>
  <text font-size="22.5778" style="fill: #000000;text-anchor:middle;font-family:sans-serif;font-style:normal;font-weight:normal" x="580" y="387.825">
    <tspan x="580" y="387.825">a</tspan>
  </text>
  <g>
    <ellipse style="fill: #ffffff" cx="740" cy="380" rx="20" ry="20"/>
    <ellipse style="fill: none; fill-opacity:0; stroke-width: 6; stroke: #000000" cx="740" cy="380" rx="20" ry="20"/>
  </g>
  <text font-size="22.5778" style="fill: #000000;text-anchor:middle;font-family:sans-serif;font-style:normal;font-weight:normal" x="740" y="387.825">
    <tspan x="740" y="387.825">a</tspan>
  </text>
  <line style="fill: none; fill-opacity:0; stroke-width: 2; stroke: #000000" x1="754.854" y1="154.854" x2="805.146" y2="205.146"/>
  <line style="fill: none; fill-opacity:0; stroke-width: 2; stroke: #000000" x1="740" y1="160.977" x2="740" y2="197.012"/>
  <line style="fill: none; fill-opacity:0; stroke-width: 2; stroke: #000000" x1="725.146" y1="154.854" x2="674.854" y2="205.146"/>
  <line style="fill: none; fill-opacity:0; stroke-width: 2; stroke: #000000" x1="820" y1="240.977" x2="820" y2="277.012"/>
  <line style="fill: none; fill-opacity:0; stroke-width: 2; stroke: #000000" x1="645.146" y1="234.854" x2="594.854" y2="285.146"/>
  <line style="fill: none; fill-opacity:0; stroke-width: 2; stroke: #000000" x1="660" y1="240.977" x2="660" y2="277.012"/>
  <line style="fill: none; fill-opacity:0; stroke-width: 2; stroke: #000000" x1="674.854" y1="234.854" x2="725.146" y2="285.146"/>
  <line style="fill: none; fill-opacity:0; stroke-width: 2; stroke: #000000" x1="580" y1="320.977" x2="580" y2="357.012"/>
  <line style="fill: none; fill-opacity:0; stroke-width: 2; stroke: #000000" x1="740" y1="320.991" x2="740" y2="360"/>
  <text font-size="12.7998" style="fill: #ffffff;text-anchor:middle;font-family:sans-serif;font-style:normal;font-weight:normal" x="0" y="304.425">
    <tspan x="0" y="304.425">.</tspan>
  </text>
  <text font-size="12.7998" style="fill: #ffffff;text-anchor:middle;font-family:sans-serif;font-style:normal;font-weight:normal" x="960" y="304.425">
    <tspan x="960" y="304.425">.</tspan>
  </text>
</svg>
