<?xml version="1.0" encoding="UTF-8" standalone="no"?>
<!DOCTYPE svg PUBLIC "-//W3C//DTD SVG 1.0//EN" "http://www.w3.org/TR/2001/PR-SVG-20010719/DTD/svg10.dtd">
<svg viewBox="256 138 269 101" xmlns="http://www.w3.org/2000/svg" xmlns:xlink="http://www.w3.org/1999/xlink">
  <g>
    <rect style="fill: #ffffff" x="340" y="200.5" width="85.5187" height="38"/>
    <rect style="fill: none; fill-opacity:0; stroke-width: 2; stroke: #000000" x="340" y="200.5" width="85.5187" height="38"/>
    <text font-size="12.7998" style="fill: #000000;text-anchor:middle;font-family:sans-serif;font-style:normal;font-weight:normal" x="382.759" y="223.4">
      <tspan x="382.759" y="223.4">Executor</tspan>
    </text>
  </g>
  <g>
    <line style="fill: none; fill-opacity:0; stroke-width: 2; stroke: #000000" x1="382.759" y1="178.99" x2="382.759" y2="190.764"/>
    <polygon style="fill: #000000" points="382.759,198.264 377.759,188.264 382.759,190.764 387.759,188.264 "/>
    <polygon style="fill: none; fill-opacity:0; stroke-width: 2; stroke: #000000" points="382.759,198.264 377.759,188.264 382.759,190.764 387.759,188.264 "/>
  </g>
  <g>
    <line style="fill: none; fill-opacity:0; stroke-width: 2; stroke: #000000" x1="311.396" y1="219.5" x2="329.269" y2="219.5"/>
    <polygon style="fill: #000000" points="336.769,219.5 326.769,224.5 329.269,219.5 326.769,214.5 "/>
    <polygon style="fill: none; fill-opacity:0; stroke-width: 2; stroke: #000000" points="336.769,219.5 326.769,224.5 329.269,219.5 326.769,214.5 "/>
  </g>
  <g>
    <line style="fill: none; fill-opacity:0; stroke-width: 2; stroke: #000000" x1="426.519" y1="219.5" x2="445.312" y2="219.5"/>
    <polygon style="fill: #000000" points="452.812,219.5 442.812,224.5 445.312,219.5 442.812,214.5 "/>
    <polygon style="fill: none; fill-opacity:0; stroke-width: 2; stroke: #000000" points="452.812,219.5 442.812,224.5 445.312,219.5 442.812,214.5 "/>
  </g>
  <g>
    <rect style="fill: #ffffff" x="340.434" y="140" width="84.65" height="38"/>
    <rect style="fill: none; fill-opacity:0; stroke-width: 2; stroke: #ffffff" x="340.434" y="140" width="84.65" height="38"/>
    <text font-size="12.7998" style="fill: #000000;text-anchor:middle;font-family:sans-serif;font-style:normal;font-weight:normal" x="382.759" y="162.9">
      <tspan x="382.759" y="162.9">Algorithm</tspan>
    </text>
  </g>
  <g>
    <rect style="fill: #ffffff" x="257.85" y="200.5" width="52.55" height="38"/>
    <rect style="fill: none; fill-opacity:0; stroke-width: 2; stroke: #ffffff" x="257.85" y="200.5" width="52.55" height="38"/>
    <text font-size="12.7998" style="fill: #000000;text-anchor:middle;font-family:sans-serif;font-style:normal;font-weight:normal" x="284.125" y="223.4">
      <tspan x="284.125" y="223.4">Data</tspan>
    </text>
  </g>
  <g>
    <rect style="fill: #ffffff" x="456.05" y="200.5" width="68.175" height="38"/>
    <rect style="fill: none; fill-opacity:0; stroke-width: 2; stroke: #ffffff" x="456.05" y="200.5" width="68.175" height="38"/>
    <text font-size="12.7998" style="fill: #000000;text-anchor:middle;font-family:sans-serif;font-style:normal;font-weight:normal" x="490.138" y="223.4">
      <tspan x="490.138" y="223.4">Results</tspan>
    </text>
  </g>
</svg>
