<?xml version="1.0" encoding="UTF-8" standalone="no"?>
<!DOCTYPE svg PUBLIC "-//W3C//DTD SVG 1.0//EN" "http://www.w3.org/TR/2001/PR-SVG-20010719/DTD/svg10.dtd">
<svg viewBox="39 19 249 255" xmlns="http://www.w3.org/2000/svg" xmlns:xlink="http://www.w3.org/1999/xlink">
  <g>
    <ellipse style="fill: #ffffff" cx="90" cy="70" rx="30" ry="30"/>
    <ellipse style="fill: none; fill-opacity:0; stroke-width: 8; stroke: #000000" cx="90" cy="70" rx="30" ry="30"/>
  </g>
  <g>
    <ellipse style="fill: #ffffff" cx="250" cy="70" rx="30" ry="30"/>
    <ellipse style="fill: none; fill-opacity:0; stroke-width: 2; stroke: #000000" cx="250" cy="70" rx="30" ry="30"/>
  </g>
  <g>
    <ellipse style="fill: #ffffff" cx="90" cy="230" rx="30" ry="30"/>
    <ellipse style="fill: none; fill-opacity:0; stroke-width: 2; stroke: #000000" cx="90" cy="230" rx="30" ry="30"/>
  </g>
  <g>
    <ellipse style="fill: #ffffff" cx="250" cy="230" rx="30" ry="30"/>
    <ellipse style="fill: none; fill-opacity:0; stroke-width: 2; stroke: #000000" cx="250" cy="230" rx="30" ry="30"/>
  </g>
  <g>
    <path style="fill: none; fill-opacity:0; stroke-width: 2; stroke: #000000" d="M 122.25 59.2501 C 152.25,49.2501 190.613,50.2044 211.377,57.1255"/>
    <polygon style="fill: #000000" points="218.492,59.4972 207.424,61.0784 211.377,57.1255 210.586,51.5915 "/>
    <polygon style="fill: none; fill-opacity:0; stroke-width: 2; stroke: #000000" points="218.492,59.4972 207.424,61.0784 211.377,57.1255 210.586,51.5915 "/>
  </g>
  <g>
    <path style="fill: none; fill-opacity:0; stroke-width: 2; stroke: #000000" d="M 119.387 220.204 C 149.387,210.204 190.613,210.204 211.377,217.126"/>
    <polygon style="fill: #000000" points="218.492,219.497 207.424,221.078 211.377,217.126 210.586,211.592 "/>
    <polygon style="fill: none; fill-opacity:0; stroke-width: 2; stroke: #000000" points="218.492,219.497 207.424,221.078 211.377,217.126 210.586,211.592 "/>
  </g>
  <g>
    <path style="fill: none; fill-opacity:0; stroke-width: 2; stroke: #000000" d="M 220.613 79.7956 C 190.613,89.7956 152.25,90.7499 131.486,83.8287"/>
    <polygon style="fill: #000000" points="124.371,81.457 135.439,79.8759 131.486,83.8287 132.277,89.3627 "/>
    <polygon style="fill: none; fill-opacity:0; stroke-width: 2; stroke: #000000" points="124.371,81.457 135.439,79.8759 131.486,83.8287 132.277,89.3627 "/>
  </g>
  <g>
    <path style="fill: none; fill-opacity:0; stroke-width: 2; stroke: #000000" d="M 220.613 239.796 C 190.613,249.796 149.387,249.796 128.623,242.874"/>
    <polygon style="fill: #000000" points="121.508,240.503 132.576,238.922 128.623,242.874 129.414,248.408 "/>
    <polygon style="fill: none; fill-opacity:0; stroke-width: 2; stroke: #000000" points="121.508,240.503 132.576,238.922 128.623,242.874 129.414,248.408 "/>
  </g>
  <g>
    <path style="fill: none; fill-opacity:0; stroke-width: 2; stroke: #000000" d="M 259.796 99.3869 C 269.796,129.387 269.796,170.613 262.874,191.377"/>
    <polygon style="fill: #000000" points="260.503,198.492 258.922,187.424 262.874,191.377 268.408,190.586 "/>
    <polygon style="fill: none; fill-opacity:0; stroke-width: 2; stroke: #000000" points="260.503,198.492 258.922,187.424 262.874,191.377 268.408,190.586 "/>
  </g>
  <g>
    <path style="fill: none; fill-opacity:0; stroke-width: 2; stroke: #000000" d="M 100.75 102.25 C 110.75,132.25 109.796,170.613 102.874,191.377"/>
    <polygon style="fill: #000000" points="100.503,198.492 98.9216,187.424 102.874,191.377 108.408,190.586 "/>
    <polygon style="fill: none; fill-opacity:0; stroke-width: 2; stroke: #000000" points="100.503,198.492 98.9216,187.424 102.874,191.377 108.408,190.586 "/>
  </g>
  <g>
    <path style="fill: none; fill-opacity:0; stroke-width: 2; stroke: #000000" d="M 80.2044 200.613 C 70.2044,170.613 69.2501,132.25 76.1713,111.486"/>
    <polygon style="fill: #000000" points="78.543,104.371 80.1241,115.439 76.1713,111.486 70.6373,112.277 "/>
    <polygon style="fill: none; fill-opacity:0; stroke-width: 2; stroke: #000000" points="78.543,104.371 80.1241,115.439 76.1713,111.486 70.6373,112.277 "/>
  </g>
  <g>
    <path style="fill: none; fill-opacity:0; stroke-width: 2; stroke: #000000" d="M 240.204 200.613 C 230.204,170.613 230.204,129.387 237.126,108.623"/>
    <polygon style="fill: #000000" points="239.497,101.508 241.078,112.576 237.126,108.623 231.592,109.414 "/>
    <polygon style="fill: none; fill-opacity:0; stroke-width: 2; stroke: #000000" points="239.497,101.508 241.078,112.576 237.126,108.623 231.592,109.414 "/>
  </g>
  <text font-size="22.5778" style="fill: #000000;text-anchor:middle;font-family:sans-serif;font-style:normal;font-weight:normal" x="180" y="47.825">
    <tspan x="180" y="47.825">a</tspan>
  </text>
  <text font-size="22.5778" style="fill: #000000;text-anchor:middle;font-family:sans-serif;font-style:normal;font-weight:normal" x="160" y="107.825">
    <tspan x="160" y="107.825">a</tspan>
  </text>
  <text font-size="22.5778" style="fill: #000000;text-anchor:middle;font-family:sans-serif;font-style:normal;font-weight:normal" x="180" y="207.825">
    <tspan x="180" y="207.825">a</tspan>
  </text>
  <text font-size="22.5778" style="fill: #000000;text-anchor:middle;font-family:sans-serif;font-style:normal;font-weight:normal" x="160" y="267.825">
    <tspan x="160" y="267.825">a</tspan>
  </text>
  <text font-size="22.5778" style="fill: #000000;text-anchor:middle;font-family:sans-serif;font-style:normal;font-weight:normal" x="280" y="167.825">
    <tspan x="280" y="167.825">b</tspan>
  </text>
  <text font-size="22.5778" style="fill: #000000;text-anchor:middle;font-family:sans-serif;font-style:normal;font-weight:normal" x="220" y="147.825">
    <tspan x="220" y="147.825">b</tspan>
  </text>
  <text font-size="22.5778" style="fill: #000000;text-anchor:middle;font-family:sans-serif;font-style:normal;font-weight:normal" x="120" y="167.825">
    <tspan x="120" y="167.825">b</tspan>
  </text>
  <text font-size="22.5778" style="fill: #000000;text-anchor:middle;font-family:sans-serif;font-style:normal;font-weight:normal" x="60" y="147.825">
    <tspan x="60" y="147.825">b</tspan>
  </text>
  <text font-size="22.5778" style="fill: #000000;text-anchor:middle;font-family:sans-serif;font-style:normal;font-weight:normal" x="90" y="77.4956">
    <tspan x="90" y="77.4956">qS</tspan>
  </text>
  <text font-size="22.5778" style="fill: #000000;text-anchor:middle;font-family:sans-serif;font-style:normal;font-weight:normal" x="250" y="77.4956">
    <tspan x="250" y="77.4956">qA</tspan>
  </text>
  <text font-size="22.5778" style="fill: #000000;text-anchor:middle;font-family:sans-serif;font-style:normal;font-weight:normal" x="90" y="237.496">
    <tspan x="90" y="237.496">qB</tspan>
  </text>
  <text font-size="22.5778" style="fill: #000000;text-anchor:middle;font-family:sans-serif;font-style:normal;font-weight:normal" x="250" y="237.496">
    <tspan x="250" y="237.496">qC</tspan>
  </text>
  <g>
    <path style="fill: none; fill-opacity:0; stroke-width: 2; stroke: #000000" d="M 40 20 C 100,20 20,40 59.2049,47.061"/>
    <polygon style="fill: #000000" points="66.5861,48.3904 55.8582,51.5387 59.2049,47.061 57.6308,41.6971 "/>
    <polygon style="fill: none; fill-opacity:0; stroke-width: 2; stroke: #000000" points="66.5861,48.3904 55.8582,51.5387 59.2049,47.061 57.6308,41.6971 "/>
  </g>
</svg>
