<?xml version="1.0" encoding="UTF-8" standalone="no"?>
<svg
   xmlns:dc="http://purl.org/dc/elements/1.1/"
   xmlns:cc="http://creativecommons.org/ns#"
   xmlns:rdf="http://www.w3.org/1999/02/22-rdf-syntax-ns#"
   xmlns:svg="http://www.w3.org/2000/svg"
   xmlns="http://www.w3.org/2000/svg"
   xmlns:sodipodi="http://sodipodi.sourceforge.net/DTD/sodipodi-0.dtd"
   xmlns:inkscape="http://www.inkscape.org/namespaces/inkscape"
   viewBox="0 0 650 400"
   version="1.1"
   id="svg2"
   inkscape:version="0.48.4 r9939"
   sodipodi:docname="orders.svg">
  <metadata
     id="metadata77">
    <rdf:RDF>
      <cc:Work
         rdf:about="">
        <dc:format>image/svg+xml</dc:format>
        <dc:type
           rdf:resource="http://purl.org/dc/dcmitype/StillImage" />
      </cc:Work>
    </rdf:RDF>
  </metadata>
  <defs
     id="defs75" />
  <sodipodi:namedview
     pagecolor="#ffffff"
     bordercolor="#666666"
     borderopacity="1"
     objecttolerance="10"
     gridtolerance="10"
     guidetolerance="10"
     inkscape:pageopacity="0"
     inkscape:pageshadow="2"
     inkscape:window-width="1301"
     inkscape:window-height="744"
     id="namedview73"
     showgrid="false"
     inkscape:zoom="1.4925"
     inkscape:cx="325"
     inkscape:cy="200"
     inkscape:window-x="65"
     inkscape:window-y="24"
     inkscape:window-maximized="1"
     inkscape:current-layer="svg2" />
  <clipPath
     id="box">
    <rect
       x="0"
       y="0"
       width="650"
       height="400"
       style="fill:none;stroke:none;"
       id="rect5" />
  </clipPath>
  <g
     clip-path="url(#box)"
     id="g7">
    <rect
       x="0.00"
       y="0.00"
       width="650.00"
       height="400.00"
       style="fill:#FFFFFF;stroke:none;"
       id="rect9" />
    <path
       d="M0.00 380.00 L650.00 380.00 M0.00 342.00 L650.00 342.00 M0.00 304.00 L650.00 304.00 M0.00 266.00 L650.00 266.00 M0.00 228.00 L650.00 228.00 M0.00 190.00 L650.00 190.00 M0.00 152.00 L650.00 152.00 M0.00 114.00 L650.00 114.00 M0.00 76.00 L650.00 76.00 M0.00 38.00 L650.00 38.00 M0.00 0.00 L650.00 0.00 M30.00 0.00 L30.00 400.00 M92.00 0.00 L92.00 400.00 M154.00 0.00 L154.00 400.00 M216.00 0.00 L216.00 400.00 M278.00 0.00 L278.00 400.00 M340.00 0.00 L340.00 400.00 M402.00 0.00 L402.00 400.00 M464.00 0.00 L464.00 400.00 M526.00 0.00 L526.00 400.00 M588.00 0.00 L588.00 400.00 M650.00 0.00 L650.00 400.00 "
       style="fill:none;stroke:#D0D0D0;stroke-width:1;"
       id="path11" />
    <path
       d="M30.95 0.00 L30.95 400.00 "
       style="fill:none;stroke:#000000;stroke-width:1;"
       id="path13" />
    <path
       d="M24.45 419.05 L37.45 419.05 M24.45 380.95 L37.45 380.95 M24.45 342.86 L37.45 342.86 M24.45 304.76 L37.45 304.76 M24.45 266.67 L37.45 266.67 M24.45 228.57 L37.45 228.57 M24.45 190.48 L37.45 190.48 M24.45 152.38 L37.45 152.38 M24.45 114.29 L37.45 114.29 M24.45 76.19 L37.45 76.19 M24.45 38.10 L37.45 38.10 M24.45 0.00 L37.45 0.00 "
       style="fill:none;stroke:#000000;stroke-width:1;"
       id="path15" />
    <path
       d="M0.00 380.95 L650.00 380.95 "
       style="fill:none;stroke:#000000;stroke-width:1;"
       id="path17" />
    <path
       d="M-30.95 374.45 L-30.95 387.45 M30.95 374.45 L30.95 387.45 M92.86 374.45 L92.86 387.45 M154.76 374.45 L154.76 387.45 M216.67 374.45 L216.67 387.45 M278.57 374.45 L278.57 387.45 M340.48 374.45 L340.48 387.45 M402.38 374.45 L402.38 387.45 M464.29 374.45 L464.29 387.45 M526.19 374.45 L526.19 387.45 M588.10 374.45 L588.10 387.45 M650.00 374.45 L650.00 387.45 "
       style="fill:none;stroke:#000000;stroke-width:1;"
       id="path19" />
    <text
       x="39.07738095238095"
       y="383.4523809523809"
       style="font:10px Droid Sans,Trebuchet MS,Arial,Helvetica,sans-serif;stroke:none;fill:#000000"
       id="text21"
       text-anchor="start">0</text>
    <text
       x="39.07738095238095"
       y="345.35714285714283"
       style="font:10px Droid Sans,Trebuchet MS,Arial,Helvetica,sans-serif;stroke:none;fill:#000000"
       id="text23"
       text-anchor="start">2</text>
    <text
       x="39.07738095238095"
       y="307.26190476190476"
       style="font:10px Droid Sans,Trebuchet MS,Arial,Helvetica,sans-serif;stroke:none;fill:#000000"
       id="text25"
       text-anchor="start">4</text>
    <text
       x="39.07738095238095"
       y="269.16666666666663"
       style="font:10px Droid Sans,Trebuchet MS,Arial,Helvetica,sans-serif;stroke:none;fill:#000000"
       id="text27"
       text-anchor="start">6</text>
    <text
       x="39.07738095238095"
       y="231.07142857142856"
       style="font:10px Droid Sans,Trebuchet MS,Arial,Helvetica,sans-serif;stroke:none;fill:#000000"
       id="text29"
       text-anchor="start">8</text>
    <text
       x="39.07738095238095"
       y="192.97619047619045"
       style="font:10px Droid Sans,Trebuchet MS,Arial,Helvetica,sans-serif;stroke:none;fill:#000000"
       id="text31"
       text-anchor="start">10</text>
    <text
       x="39.07738095238095"
       y="154.88095238095238"
       style="font:10px Droid Sans,Trebuchet MS,Arial,Helvetica,sans-serif;stroke:none;fill:#000000"
       id="text33"
       text-anchor="start">12</text>
    <text
       x="39.07738095238095"
       y="116.78571428571428"
       style="font:10px Droid Sans,Trebuchet MS,Arial,Helvetica,sans-serif;stroke:none;fill:#000000"
       id="text35"
       text-anchor="start">14</text>
    <text
       x="39.07738095238095"
       y="78.69047619047619"
       style="font:10px Droid Sans,Trebuchet MS,Arial,Helvetica,sans-serif;stroke:none;fill:#000000"
       id="text37"
       text-anchor="start">16</text>
    <text
       x="39.07738095238095"
       y="40.595238095238095"
       style="font:10px Droid Sans,Trebuchet MS,Arial,Helvetica,sans-serif;stroke:none;fill:#000000"
       id="text39"
       text-anchor="start">18</text>
    <text
       x="30.95238095238095"
       y="375.0773809523809"
       style="font:10px Droid Sans,Trebuchet MS,Arial,Helvetica,sans-serif;stroke:none;fill:#000000"
       id="text41"
       text-anchor="middle">0</text>
    <text
       x="92.85714285714285"
       y="375.0773809523809"
       style="font:10px Droid Sans,Trebuchet MS,Arial,Helvetica,sans-serif;stroke:none;fill:#000000"
       id="text43"
       text-anchor="middle">2</text>
    <text
       x="154.76190476190476"
       y="375.0773809523809"
       style="font:10px Droid Sans,Trebuchet MS,Arial,Helvetica,sans-serif;stroke:none;fill:#000000"
       id="text45"
       text-anchor="middle">4</text>
    <text
       x="216.66666666666666"
       y="375.0773809523809"
       style="font:10px Droid Sans,Trebuchet MS,Arial,Helvetica,sans-serif;stroke:none;fill:#000000"
       id="text47"
       text-anchor="middle">6</text>
    <text
       x="278.57142857142856"
       y="375.0773809523809"
       style="font:10px Droid Sans,Trebuchet MS,Arial,Helvetica,sans-serif;stroke:none;fill:#000000"
       id="text49"
       text-anchor="middle">8</text>
    <text
       x="340.4761904761905"
       y="375.0773809523809"
       style="font:10px Droid Sans,Trebuchet MS,Arial,Helvetica,sans-serif;stroke:none;fill:#000000"
       id="text51"
       text-anchor="middle">10</text>
    <text
       x="402.3809523809524"
       y="375.0773809523809"
       style="font:10px Droid Sans,Trebuchet MS,Arial,Helvetica,sans-serif;stroke:none;fill:#000000"
       id="text53"
       text-anchor="middle">12</text>
    <text
       x="464.2857142857143"
       y="375.0773809523809"
       style="font:10px Droid Sans,Trebuchet MS,Arial,Helvetica,sans-serif;stroke:none;fill:#000000"
       id="text55"
       text-anchor="middle">14</text>
    <text
       x="526.1904761904761"
       y="375.0773809523809"
       style="font:10px Droid Sans,Trebuchet MS,Arial,Helvetica,sans-serif;stroke:none;fill:#000000"
       id="text57"
       text-anchor="middle">16</text>
    <text
       x="588.0952380952381"
       y="375.0773809523809"
       style="font:10px Droid Sans,Trebuchet MS,Arial,Helvetica,sans-serif;stroke:none;fill:#000000"
       id="text59"
       text-anchor="middle">18</text>
    <path
       d="M34.05 400.00 L34.05 400.00 L34.42 399.06 L34.82 398.16 L35.26 397.26 L35.76 396.37 L36.31 395.47 L36.92 394.57 L37.60 393.67 L38.36 392.78 L39.21 391.88 L40.16 390.98 L41.21 390.09 L42.39 389.19 L43.70 388.29 L45.16 387.39 L46.79 386.50 L48.60 385.60 L50.60 384.71 L52.60 383.91 L54.60 383.18 L56.60 382.51 L58.60 381.89 L60.60 381.31 L62.60 380.77 L64.60 380.26 L66.60 379.78 L68.60 379.33 L70.60 378.90 L72.60 378.50 L74.60 378.11 L76.60 377.74 L78.60 377.38 L80.60 377.04 L82.60 376.72 L84.60 376.40 L86.60 376.10 L88.60 375.81 L90.60 375.53 L92.60 375.25 L94.60 374.99 L96.60 374.73 L98.60 374.48 L100.60 374.24 L102.60 374.01 L104.60 373.78 L106.60 373.56 L108.60 373.34 L110.60 373.13 L112.60 372.93 L114.60 372.73 L116.60 372.53 L118.60 372.34 L120.60 372.16 L122.60 371.97 L124.60 371.79 L126.60 371.62 L128.60 371.45 L130.60 371.28 L132.60 371.12 L134.60 370.95 L136.60 370.80 L138.60 370.64 L140.60 370.49 L142.60 370.34 L144.60 370.19 L146.60 370.05 L148.60 369.91 L150.60 369.77 L152.60 369.63 L154.60 369.50 L156.60 369.36 L158.60 369.23 L160.60 369.10 L162.60 368.98 L164.60 368.85 L166.60 368.73 L168.60 368.61 L170.60 368.49 L172.60 368.37 L174.60 368.26 L176.60 368.14 L178.60 368.03 L180.60 367.92 L182.60 367.81 L184.60 367.70 L186.60 367.59 L188.60 367.49 L190.60 367.38 L192.60 367.28 L194.60 367.18 L196.60 367.08 L198.60 366.98 L200.60 366.88 L202.60 366.78 L204.60 366.69 L206.60 366.59 L208.60 366.50 L210.60 366.41 L212.60 366.31 L214.60 366.22 L216.60 366.13 L218.60 366.04 L220.60 365.96 L222.60 365.87 L224.60 365.78 L226.60 365.70 L228.60 365.62 L230.60 365.53 L232.60 365.45 L234.60 365.37 L236.60 365.29 L238.60 365.21 L240.60 365.13 L242.60 365.05 L244.60 364.97 L246.60 364.89 L248.60 364.82 L250.60 364.74 L252.60 364.67 L254.60 364.59 L256.60 364.52 L258.60 364.45 L260.60 364.37 L262.60 364.30 L264.60 364.23 L266.60 364.16 L268.60 364.09 L270.60 364.02 L272.60 363.95 L274.60 363.88 L276.60 363.82 L278.60 363.75 L280.60 363.68 L282.60 363.62 L284.60 363.55 L286.60 363.49 L288.60 363.42 L290.60 363.36 L292.60 363.29 L294.60 363.23 L296.60 363.17 L298.60 363.11 L300.60 363.05 L302.60 362.98 L304.60 362.92 L306.60 362.86 L308.60 362.80 L310.60 362.74 L312.60 362.69 L314.60 362.63 L316.60 362.57 L318.60 362.51 L320.60 362.45 L322.60 362.40 L324.60 362.34 L326.60 362.28 L328.60 362.23 L330.60 362.17 L332.60 362.12 L334.60 362.06 L336.60 362.01 L338.60 361.95 L340.60 361.90 L342.60 361.85 L344.60 361.80 L346.60 361.74 L348.60 361.69 L350.60 361.64 L352.60 361.59 L354.60 361.54 L356.60 361.48 L358.60 361.43 L360.60 361.38 L362.60 361.33 L364.60 361.28 L366.60 361.23 L368.60 361.19 L370.60 361.14 L372.60 361.09 L374.60 361.04 L376.60 360.99 L378.60 360.94 L380.60 360.90 L382.60 360.85 L384.60 360.80 L386.60 360.76 L388.60 360.71 L390.60 360.66 L392.60 360.62 L394.60 360.57 L396.60 360.53 L398.60 360.48 L400.60 360.44 L402.60 360.39 L404.60 360.35 L406.60 360.30 L408.60 360.26 L410.60 360.22 L412.60 360.17 L414.60 360.13 L416.60 360.09 L418.60 360.04 L420.60 360.00 L422.60 359.96 L424.60 359.92 L426.60 359.87 L428.60 359.83 L430.60 359.79 L432.60 359.75 L434.60 359.71 L436.60 359.67 L438.60 359.63 L440.60 359.59 L442.60 359.55 L444.60 359.51 L446.60 359.47 L448.60 359.43 L450.60 359.39 L452.60 359.35 L454.60 359.31 L456.60 359.27 L458.60 359.23 L460.60 359.19 L462.60 359.15 L464.60 359.12 L466.60 359.08 L468.60 359.04 L470.60 359.00 L472.60 358.96 L474.60 358.93 L476.60 358.89 L478.60 358.85 L480.60 358.82 L482.60 358.78 L484.60 358.74 L486.60 358.71 L488.60 358.67 L490.60 358.63 L492.60 358.60 L494.60 358.56 L496.60 358.53 L498.60 358.49 L500.60 358.46 L502.60 358.42 L504.60 358.39 L506.60 358.35 L508.60 358.32 L510.60 358.28 L512.60 358.25 L514.60 358.21 L516.60 358.18 L518.60 358.14 L520.60 358.11 L522.60 358.08 L524.60 358.04 L526.60 358.01 L528.60 357.98 L530.60 357.94 L532.60 357.91 L534.60 357.88 L536.60 357.84 L538.60 357.81 L540.60 357.78 L542.60 357.75 L544.60 357.71 L546.60 357.68 L548.60 357.65 L550.60 357.62 L552.60 357.59 L554.60 357.56 L556.60 357.52 L558.60 357.49 L560.60 357.46 L562.60 357.43 L564.60 357.40 L566.60 357.37 L568.60 357.34 L570.60 357.31 L572.60 357.28 L574.60 357.25 L576.60 357.21 L578.60 357.18 L580.60 357.15 L582.60 357.12 L584.60 357.09 L586.60 357.06 L588.60 357.03 L590.60 357.01 L592.60 356.98 L594.60 356.95 L596.60 356.92 L598.60 356.89 L600.60 356.86 L602.60 356.83 L604.60 356.80 L606.60 356.77 L608.60 356.74 L610.60 356.71 L612.60 356.69 L614.60 356.66 L616.60 356.63 L618.60 356.60 L620.60 356.57 L622.60 356.55 L624.60 356.52 L626.60 356.49 L628.60 356.46 L630.60 356.43 L632.60 356.41 L634.60 356.38 L636.60 356.35 L638.60 356.32 L640.60 356.30 L642.60 356.27 L644.60 356.24 L646.60 356.22 L648.60 356.19 "
       style="fill:none;stroke:#00FF00;stroke-width:1;"
       id="path61" />
    <path
       d="M30.95 380.87 L30.96 380.71 L30.99 380.33 L31.06 379.84 L31.21 379.23 L31.45 378.54 L31.80 377.80 L32.28 377.01 L32.88 376.20 L33.62 375.36 L34.51 374.50 L35.53 373.62 L36.71 372.74 L38.04 371.84 L39.51 370.93 L41.15 370.02 L42.93 369.10 L44.88 368.18 L46.88 367.29 L48.88 366.46 L50.88 365.67 L52.88 364.92 L54.88 364.21 L56.88 363.52 L58.88 362.86 L60.88 362.22 L62.88 361.61 L64.88 361.01 L66.88 360.43 L68.88 359.87 L70.88 359.32 L72.88 358.78 L74.88 358.26 L76.88 357.75 L78.88 357.25 L80.88 356.76 L82.88 356.28 L84.88 355.81 L86.88 355.35 L88.88 354.90 L90.88 354.45 L92.88 354.01 L94.88 353.58 L96.88 353.15 L98.88 352.74 L100.88 352.32 L102.88 351.92 L104.88 351.52 L106.88 351.12 L108.88 350.73 L110.88 350.34 L112.88 349.96 L114.88 349.59 L116.88 349.22 L118.88 348.85 L120.88 348.49 L122.88 348.13 L124.88 347.77 L126.88 347.42 L128.88 347.07 L130.88 346.73 L132.88 346.39 L134.88 346.05 L136.88 345.72 L138.88 345.38 L140.88 345.06 L142.88 344.73 L144.88 344.41 L146.88 344.09 L148.88 343.77 L150.88 343.46 L152.88 343.15 L154.88 342.84 L156.88 342.53 L158.88 342.23 L160.88 341.93 L162.88 341.63 L164.88 341.33 L166.88 341.04 L168.88 340.74 L170.88 340.45 L172.88 340.17 L174.88 339.88 L176.88 339.59 L178.88 339.31 L180.88 339.03 L182.88 338.75 L184.88 338.48 L186.88 338.20 L188.88 337.93 L190.88 337.66 L192.88 337.39 L194.88 337.12 L196.88 336.85 L198.88 336.59 L200.88 336.32 L202.88 336.06 L204.88 335.80 L206.88 335.54 L208.88 335.28 L210.88 335.03 L212.88 334.77 L214.88 334.52 L216.88 334.27 L218.88 334.02 L220.88 333.77 L222.88 333.52 L224.88 333.28 L226.88 333.03 L228.88 332.79 L230.88 332.54 L232.88 332.30 L234.88 332.06 L236.88 331.82 L238.88 331.58 L240.88 331.35 L242.88 331.11 L244.88 330.88 L246.88 330.64 L248.88 330.41 L250.88 330.18 L252.88 329.95 L254.88 329.72 L256.88 329.49 L258.88 329.26 L260.88 329.04 L262.88 328.81 L264.88 328.59 L266.88 328.37 L268.88 328.14 L270.88 327.92 L272.88 327.70 L274.88 327.48 L276.88 327.26 L278.88 327.04 L280.88 326.83 L282.88 326.61 L284.88 326.40 L286.88 326.18 L288.88 325.97 L290.88 325.76 L292.88 325.54 L294.88 325.33 L296.88 325.12 L298.88 324.91 L300.88 324.70 L302.88 324.50 L304.88 324.29 L306.88 324.08 L308.88 323.88 L310.88 323.67 L312.88 323.47 L314.88 323.26 L316.88 323.06 L318.88 322.86 L320.88 322.66 L322.88 322.46 L324.88 322.26 L326.88 322.06 L328.88 321.86 L330.88 321.66 L332.88 321.46 L334.88 321.27 L336.88 321.07 L338.88 320.87 L340.88 320.68 L342.88 320.49 L344.88 320.29 L346.88 320.10 L348.88 319.91 L350.88 319.71 L352.88 319.52 L354.88 319.33 L356.88 319.14 L358.88 318.95 L360.88 318.77 L362.88 318.58 L364.88 318.39 L366.88 318.20 L368.88 318.02 L370.88 317.83 L372.88 317.64 L374.88 317.46 L376.88 317.28 L378.88 317.09 L380.88 316.91 L382.88 316.73 L384.88 316.54 L386.88 316.36 L388.88 316.18 L390.88 316.00 L392.88 315.82 L394.88 315.64 L396.88 315.46 L398.88 315.28 L400.88 315.10 L402.88 314.93 L404.88 314.75 L406.88 314.57 L408.88 314.40 L410.88 314.22 L412.88 314.04 L414.88 313.87 L416.88 313.69 L418.88 313.52 L420.88 313.35 L422.88 313.17 L424.88 313.00 L426.88 312.83 L428.88 312.66 L430.88 312.49 L432.88 312.31 L434.88 312.14 L436.88 311.97 L438.88 311.80 L440.88 311.63 L442.88 311.47 L444.88 311.30 L446.88 311.13 L448.88 310.96 L450.88 310.79 L452.88 310.63 L454.88 310.46 L456.88 310.29 L458.88 310.13 L460.88 309.96 L462.88 309.80 L464.88 309.63 L466.88 309.47 L468.88 309.31 L470.88 309.14 L472.88 308.98 L474.88 308.82 L476.88 308.65 L478.88 308.49 L480.88 308.33 L482.88 308.17 L484.88 308.01 L486.88 307.85 L488.88 307.69 L490.88 307.53 L492.88 307.37 L494.88 307.21 L496.88 307.05 L498.88 306.89 L500.88 306.73 L502.88 306.58 L504.88 306.42 L506.88 306.26 L508.88 306.11 L510.88 305.95 L512.88 305.79 L514.88 305.64 L516.88 305.48 L518.88 305.33 L520.88 305.17 L522.88 305.02 L524.88 304.86 L526.88 304.71 L528.88 304.56 L530.88 304.40 L532.88 304.25 L534.88 304.10 L536.88 303.94 L538.88 303.79 L540.88 303.64 L542.88 303.49 L544.88 303.34 L546.88 303.19 L548.88 303.04 L550.88 302.89 L552.88 302.74 L554.88 302.59 L556.88 302.44 L558.88 302.29 L560.88 302.14 L562.88 301.99 L564.88 301.84 L566.88 301.69 L568.88 301.55 L570.88 301.40 L572.88 301.25 L574.88 301.10 L576.88 300.96 L578.88 300.81 L580.88 300.67 L582.88 300.52 L584.88 300.37 L586.88 300.23 L588.88 300.08 L590.88 299.94 L592.88 299.79 L594.88 299.65 L596.88 299.51 L598.88 299.36 L600.88 299.22 L602.88 299.08 L604.88 298.93 L606.88 298.79 L608.88 298.65 L610.88 298.50 L612.88 298.36 L614.88 298.22 L616.88 298.08 L618.88 297.94 L620.88 297.80 L622.88 297.66 L624.88 297.52 L626.88 297.37 L628.88 297.23 L630.88 297.09 L632.88 296.96 L634.88 296.82 L636.88 296.68 L638.88 296.54 L640.88 296.40 L642.88 296.26 L644.88 296.12 L646.88 295.98 L648.88 295.85 "
       style="fill:none;stroke:#0000FF;stroke-width:1;"
       id="path63" />
    <path
       d="M-0.00 400.00 L-0.00 400.00 L1.63 399.00 L3.25 398.00 L4.88 397.00 L6.50 396.00 L8.13 395.00 L9.75 394.00 L11.38 393.00 L13.00 392.00 L14.63 391.00 L16.25 390.00 L17.88 389.00 L19.50 388.00 L21.13 387.00 L22.75 386.00 L24.38 385.00 L26.00 384.00 L27.63 383.00 L29.25 382.00 L30.88 381.00 L32.50 380.00 L34.13 379.00 L35.75 378.00 L37.38 377.00 L39.00 376.00 L40.63 375.00 L42.25 374.00 L43.88 373.00 L45.50 372.00 L47.13 371.00 L48.75 370.00 L50.38 369.00 L52.00 368.00 L53.63 367.00 L55.25 366.00 L56.88 365.00 L58.50 364.00 L60.13 363.00 L61.75 362.00 L63.38 361.00 L65.00 360.00 L66.63 359.00 L68.25 358.00 L69.88 357.00 L71.50 356.00 L73.13 355.00 L74.75 354.00 L76.38 353.00 L78.00 352.00 L79.63 351.00 L81.25 350.00 L82.88 349.00 L84.50 348.00 L86.13 347.00 L87.75 346.00 L89.38 345.00 L91.00 344.00 L92.63 343.00 L94.25 342.00 L95.88 341.00 L97.50 340.00 L99.13 339.00 L100.75 338.00 L102.38 337.00 L104.00 336.00 L105.63 335.00 L107.25 334.00 L108.88 333.00 L110.50 332.00 L112.13 331.00 L113.75 330.00 L115.38 329.00 L117.00 328.00 L118.63 327.00 L120.25 326.00 L121.88 325.00 L123.50 324.00 L125.13 323.00 L126.75 322.00 L128.38 321.00 L130.00 320.00 L131.63 319.00 L133.25 318.00 L134.88 317.00 L136.50 316.00 L138.13 315.00 L139.75 314.00 L141.38 313.00 L143.00 312.00 L144.63 311.00 L146.25 310.00 L147.88 309.00 L149.50 308.00 L151.13 307.00 L152.75 306.00 L154.38 305.00 L156.00 304.00 L157.63 303.00 L159.25 302.00 L160.88 301.00 L162.50 300.00 L164.13 299.00 L165.75 298.00 L167.38 297.00 L169.00 296.00 L170.63 295.00 L172.25 294.00 L173.88 293.00 L175.50 292.00 L177.13 291.00 L178.75 290.00 L180.38 289.00 L182.00 288.00 L183.63 287.00 L185.25 286.00 L186.88 285.00 L188.50 284.00 L190.13 283.00 L191.75 282.00 L193.38 281.00 L195.00 280.00 L196.63 279.00 L198.25 278.00 L199.88 277.00 L201.50 276.00 L203.13 275.00 L204.75 274.00 L206.38 273.00 L208.00 272.00 L209.63 271.00 L211.25 270.00 L212.88 269.00 L214.50 268.00 L216.13 267.00 L217.75 266.00 L219.38 265.00 L221.00 264.00 L222.63 263.00 L224.25 262.00 L225.88 261.00 L227.50 260.00 L229.13 259.00 L230.75 258.00 L232.38 257.00 L234.00 256.00 L235.63 255.00 L237.25 254.00 L238.88 253.00 L240.50 252.00 L242.13 251.00 L243.75 250.00 L245.38 249.00 L247.00 248.00 L248.63 247.00 L250.25 246.00 L251.88 245.00 L253.50 244.00 L255.13 243.00 L256.75 242.00 L258.38 241.00 L260.00 240.00 L261.63 239.00 L263.25 238.00 L264.88 237.00 L266.50 236.00 L268.13 235.00 L269.75 234.00 L271.38 233.00 L273.00 232.00 L274.63 231.00 L276.25 230.00 L277.88 229.00 L279.50 228.00 L281.13 227.00 L282.75 226.00 L284.38 225.00 L286.00 224.00 L287.63 223.00 L289.25 222.00 L290.88 221.00 L292.50 220.00 L294.13 219.00 L295.75 218.00 L297.38 217.00 L299.00 216.00 L300.63 215.00 L302.25 214.00 L303.88 213.00 L305.50 212.00 L307.13 211.00 L308.75 210.00 L310.38 209.00 L312.00 208.00 L313.63 207.00 L315.25 206.00 L316.88 205.00 L318.50 204.00 L320.13 203.00 L321.75 202.00 L323.38 201.00 L325.00 200.00 L326.63 199.00 L328.25 198.00 L329.88 197.00 L331.50 196.00 L333.13 195.00 L334.75 194.00 L336.38 193.00 L338.00 192.00 L339.63 191.00 L341.25 190.00 L342.88 189.00 L344.50 188.00 L346.13 187.00 L347.75 186.00 L349.38 185.00 L351.00 184.00 L352.63 183.00 L354.25 182.00 L355.88 181.00 L357.50 180.00 L359.13 179.00 L360.75 178.00 L362.38 177.00 L364.00 176.00 L365.63 175.00 L367.25 174.00 L368.88 173.00 L370.50 172.00 L372.13 171.00 L373.75 170.00 L375.38 169.00 L377.00 168.00 L378.63 167.00 L380.25 166.00 L381.88 165.00 L383.50 164.00 L385.13 163.00 L386.75 162.00 L388.38 161.00 L390.00 160.00 L391.63 159.00 L393.25 158.00 L394.88 157.00 L396.50 156.00 L398.13 155.00 L399.75 154.00 L401.38 153.00 L403.00 152.00 L404.63 151.00 L406.25 150.00 L407.88 149.00 L409.50 148.00 L411.13 147.00 L412.75 146.00 L414.38 145.00 L416.00 144.00 L417.63 143.00 L419.25 142.00 L420.88 141.00 L422.50 140.00 L424.13 139.00 L425.75 138.00 L427.38 137.00 L429.00 136.00 L430.63 135.00 L432.25 134.00 L433.88 133.00 L435.50 132.00 L437.13 131.00 L438.75 130.00 L440.38 129.00 L442.00 128.00 L443.63 127.00 L445.25 126.00 L446.88 125.00 L448.50 124.00 L450.13 123.00 L451.75 122.00 L453.38 121.00 L455.00 120.00 L456.63 119.00 L458.25 118.00 L459.88 117.00 L461.50 116.00 L463.13 115.00 L464.75 114.00 L466.38 113.00 L468.00 112.00 L469.63 111.00 L471.25 110.00 L472.88 109.00 L474.50 108.00 L476.13 107.00 L477.75 106.00 L479.38 105.00 L481.00 104.00 L482.63 103.00 L484.25 102.00 L485.88 101.00 L487.50 100.00 L489.13 99.00 L490.75 98.00 L492.38 97.00 L494.00 96.00 L495.63 95.00 L497.25 94.00 L498.88 93.00 L500.50 92.00 L502.13 91.00 L503.75 90.00 L505.38 89.00 L507.00 88.00 L508.63 87.00 L510.25 86.00 L511.88 85.00 L513.50 84.00 L515.13 83.00 L516.75 82.00 L518.38 81.00 L520.00 80.00 L521.63 79.00 L523.25 78.00 L524.88 77.00 L526.50 76.00 L528.13 75.00 L529.75 74.00 L531.38 73.00 L533.00 72.00 L534.63 71.00 L536.25 70.00 L537.88 69.00 L539.50 68.00 L541.13 67.00 L542.75 66.00 L544.38 65.00 L546.00 64.00 L547.63 63.00 L549.25 62.00 L550.88 61.00 L552.50 60.00 L554.13 59.00 L555.75 58.00 L557.38 57.00 L559.00 56.00 L560.63 55.00 L562.25 54.00 L563.88 53.00 L565.50 52.00 L567.13 51.00 L568.75 50.00 L570.38 49.00 L572.00 48.00 L573.63 47.00 L575.25 46.00 L576.88 45.00 L578.50 44.00 L580.13 43.00 L581.75 42.00 L583.38 41.00 L585.00 40.00 L586.63 39.00 L588.25 38.00 L589.88 37.00 L591.50 36.00 L593.13 35.00 L594.75 34.00 L596.38 33.00 L598.00 32.00 L599.63 31.00 L601.25 30.00 L602.88 29.00 L604.50 28.00 L606.13 27.00 L607.75 26.00 L609.38 25.00 L611.00 24.00 L612.63 23.00 L614.25 22.00 L615.88 21.00 L617.50 20.00 L619.13 19.00 L620.75 18.00 L622.38 17.00 L624.00 16.00 L625.63 15.00 L627.25 14.00 L628.88 13.00 L630.50 12.00 L632.13 11.00 L633.75 10.00 L635.38 9.00 L637.00 8.00 L638.63 7.00 L640.25 6.00 L641.88 5.00 L643.50 4.00 L645.13 3.00 L646.75 2.00 L648.38 1.00 "
       style="fill:none;stroke:#000000;stroke-width:1;"
       id="path65" />
    <path
       d="M30.95 380.95 L31.01 381.05 L31.61 381.63 L32.65 382.27 L34.28 382.93 L36.28 383.46 L38.28 383.77 L40.28 383.94 L42.28 384.00 L44.28 383.95 L46.28 383.83 L48.28 383.64 L50.28 383.39 L52.28 383.08 L54.28 382.72 L56.28 382.31 L58.28 381.86 L60.28 381.38 L62.28 380.85 L64.28 380.29 L66.28 379.70 L68.28 379.08 L70.28 378.44 L72.28 377.76 L74.28 377.06 L76.28 376.33 L78.28 375.58 L80.28 374.81 L82.28 374.02 L84.28 373.20 L86.28 372.37 L88.28 371.51 L90.28 370.64 L92.28 369.75 L94.28 368.84 L96.28 367.91 L98.28 366.97 L100.28 366.01 L102.28 365.04 L104.28 364.05 L106.28 363.05 L108.27 362.03 L110.24 361.02 L112.18 360.01 L114.10 359.00 L115.99 357.98 L117.86 356.97 L119.71 355.96 L121.54 354.95 L123.36 353.94 L125.15 352.93 L126.93 351.92 L128.69 350.92 L130.44 349.91 L132.17 348.90 L133.89 347.89 L135.60 346.88 L137.29 345.88 L138.97 344.87 L140.64 343.86 L142.30 342.86 L143.95 341.85 L145.58 340.84 L147.21 339.84 L148.82 338.83 L150.43 337.82 L152.02 336.82 L153.61 335.81 L155.19 334.81 L156.76 333.80 L158.32 332.80 L159.87 331.79 L161.42 330.79 L162.96 329.78 L164.49 328.78 L166.01 327.77 L167.53 326.77 L169.04 325.76 L170.54 324.76 L172.04 323.76 L173.53 322.75 L175.01 321.75 L176.49 320.74 L177.96 319.74 L179.43 318.74 L180.88 317.73 L182.34 316.73 L183.79 315.72 L185.23 314.72 L186.67 313.72 L188.10 312.71 L189.53 311.71 L190.95 310.71 L192.37 309.70 L193.79 308.70 L195.19 307.70 L196.60 306.69 L198.00 305.69 L199.39 304.69 L200.78 303.68 L202.17 302.68 L203.55 301.68 L204.93 300.67 L206.31 299.67 L207.68 298.67 L209.04 297.67 L210.41 296.66 L211.76 295.66 L213.12 294.66 L214.47 293.66 L215.82 292.65 L217.16 291.65 L218.50 290.65 L219.84 289.64 L221.18 288.64 L222.51 287.64 L223.83 286.64 L225.16 285.63 L226.48 284.63 L227.80 283.63 L229.11 282.63 L230.42 281.63 L231.73 280.62 L233.03 279.62 L234.34 278.62 L235.64 277.62 L236.93 276.61 L238.23 275.61 L239.52 274.61 L240.81 273.61 L242.09 272.61 L243.37 271.60 L244.65 270.60 L245.93 269.60 L247.21 268.60 L248.48 267.60 L249.75 266.59 L251.02 265.59 L252.28 264.59 L253.54 263.59 L254.80 262.59 L256.06 261.58 L257.31 260.58 L258.57 259.58 L259.82 258.58 L261.07 257.58 L262.31 256.57 L263.56 255.57 L264.80 254.57 L266.04 253.57 L267.27 252.57 L268.51 251.57 L269.74 250.56 L270.97 249.56 L272.20 248.56 L273.43 247.56 L274.65 246.56 L275.87 245.56 L277.09 244.55 L278.31 243.55 L279.53 242.55 L280.74 241.55 L281.96 240.55 L283.17 239.55 L284.37 238.54 L285.58 237.54 L286.79 236.54 L287.99 235.54 L289.19 234.54 L290.39 233.54 L291.59 232.54 L292.78 231.53 L293.98 230.53 L295.17 229.53 L296.36 228.53 L297.55 227.53 L298.74 226.53 L299.92 225.53 L301.11 224.52 L302.29 223.52 L303.47 222.52 L304.65 221.52 L305.83 220.52 L307.00 219.52 L308.18 218.52 L309.35 217.51 L310.52 216.51 L311.69 215.51 L312.86 214.51 L314.03 213.51 L315.19 212.51 L316.36 211.51 L317.52 210.51 L318.68 209.50 L319.84 208.50 L321.00 207.50 L322.15 206.50 L323.31 205.50 L324.46 204.50 L325.61 203.50 L326.77 202.50 L327.91 201.49 L329.06 200.49 L330.21 199.49 L331.35 198.49 L332.50 197.49 L333.64 196.49 L334.78 195.49 L335.92 194.49 L337.06 193.49 L338.20 192.48 L339.33 191.48 L340.47 190.48 L341.60 189.48 L342.74 188.48 L343.87 187.48 L345.00 186.48 L346.13 185.48 L347.25 184.48 L348.38 183.47 L349.50 182.47 L350.63 181.47 L351.75 180.47 L352.87 179.47 L353.99 178.47 L355.11 177.47 L356.23 176.47 L357.35 175.47 L358.46 174.46 L359.58 173.46 L360.69 172.46 L361.80 171.46 L362.91 170.46 L364.02 169.46 L365.13 168.46 L366.24 167.46 L367.35 166.46 L368.45 165.46 L369.56 164.46 L370.66 163.45 L371.76 162.45 L372.86 161.45 L373.96 160.45 L375.06 159.45 L376.16 158.45 L377.26 157.45 L378.35 156.45 L379.45 155.45 L380.54 154.45 L381.64 153.44 L382.73 152.44 L383.82 151.44 L384.91 150.44 L386.00 149.44 L387.09 148.44 L388.18 147.44 L389.26 146.44 L390.35 145.44 L391.43 144.44 L392.52 143.44 L393.60 142.43 L394.68 141.43 L395.76 140.43 L396.84 139.43 L397.92 138.43 L399.00 137.43 L400.07 136.43 L401.15 135.43 L402.22 134.43 L403.30 133.43 L404.37 132.43 L405.44 131.43 L406.52 130.42 L407.59 129.42 L408.66 128.42 L409.73 127.42 L410.79 126.42 L411.86 125.42 L412.93 124.42 L413.99 123.42 L415.06 122.42 L416.12 121.42 L417.18 120.42 L418.25 119.42 L419.31 118.42 L420.37 117.41 L421.43 116.41 L422.49 115.41 L423.55 114.41 L424.60 113.41 L425.66 112.41 L426.71 111.41 L427.77 110.41 L428.82 109.41 L429.88 108.41 L430.93 107.41 L431.98 106.41 L433.03 105.41 L434.08 104.40 L435.13 103.40 L436.18 102.40 L437.23 101.40 L438.28 100.40 L439.32 99.40 L440.37 98.40 L441.41 97.40 L442.46 96.40 L443.50 95.40 L444.54 94.40 L445.58 93.40 L446.63 92.40 L447.67 91.40 L448.71 90.39 L449.74 89.39 L450.78 88.39 L451.82 87.39 L452.86 86.39 L453.89 85.39 L454.93 84.39 L455.96 83.39 L457.00 82.39 L458.03 81.39 L459.06 80.39 L460.10 79.39 L461.13 78.39 L462.16 77.39 L463.19 76.39 L464.22 75.38 L465.25 74.38 L466.27 73.38 L467.30 72.38 L468.33 71.38 L469.35 70.38 L470.38 69.38 L471.40 68.38 L472.43 67.38 L473.45 66.38 L474.47 65.38 L475.50 64.38 L476.52 63.38 L477.54 62.38 L478.56 61.38 L479.58 60.38 L480.60 59.37 L481.61 58.37 L482.63 57.37 L483.65 56.37 L484.66 55.37 L485.68 54.37 L486.70 53.37 L487.71 52.37 L488.72 51.37 L489.74 50.37 L490.75 49.37 L491.76 48.37 L492.77 47.37 L493.78 46.37 L494.79 45.37 L495.80 44.37 L496.81 43.36 L497.82 42.36 L498.83 41.36 L499.84 40.36 L500.84 39.36 L501.85 38.36 L502.85 37.36 L503.86 36.36 L504.86 35.36 L505.87 34.36 L506.87 33.36 L507.87 32.36 L508.88 31.36 L509.88 30.36 L510.88 29.36 L511.88 28.36 L512.88 27.36 L513.88 26.36 L514.88 25.35 L515.88 24.35 L516.87 23.35 L517.87 22.35 L518.87 21.35 L519.86 20.35 L520.86 19.35 L521.85 18.35 L522.85 17.35 L523.84 16.35 L524.83 15.35 L525.83 14.35 L526.82 13.35 L527.81 12.35 L528.80 11.35 L529.79 10.35 L530.78 9.35 L531.77 8.35 L532.76 7.35 L533.75 6.34 L534.74 5.34 L535.73 4.34 L536.71 3.34 L537.70 2.34 L538.69 1.34 L539.67 0.34 L540.66 -0.66 "
       style="fill:none;stroke:#FF00FF;stroke-width:1;"
       id="path67" />
    <path
       d="M-10.00 200.00 L-0.25 361.60 L0.75 362.82 L1.57 363.79 L2.41 364.76 L3.28 365.73 L4.18 366.70 L5.10 367.67 L6.06 368.63 L7.05 369.59 L8.08 370.55 L9.15 371.50 L10.28 372.46 L11.46 373.40 L12.72 374.34 L14.05 375.27 L15.48 376.19 L17.03 377.10 L18.75 377.99 L20.67 378.85 L22.67 379.59 L24.67 380.17 L26.67 380.59 L28.67 380.85 L30.67 380.95 L32.67 380.89 L34.67 380.68 L36.67 380.30 L38.67 379.77 L40.67 379.07 L42.67 378.22 L44.67 377.21 L46.65 376.05 L48.36 374.93 L49.88 373.83 L51.26 372.75 L52.54 371.68 L53.74 370.62 L54.88 369.57 L55.95 368.52 L56.98 367.48 L57.97 366.44 L58.92 365.41 L59.83 364.37 L60.72 363.34 L61.57 362.31 L62.41 361.28 L63.22 360.26 L64.01 359.23 L64.78 358.21 L65.53 357.18 L66.26 356.16 L66.98 355.14 L67.69 354.12 L68.38 353.10 L69.06 352.08 L69.72 351.07 L70.38 350.05 L71.02 349.03 L71.65 348.02 L72.28 347.00 L72.89 345.99 L73.49 344.97 L74.09 343.96 L74.68 342.94 L75.26 341.93 L75.83 340.92 L76.39 339.90 L76.95 338.89 L77.50 337.88 L78.04 336.87 L78.58 335.86 L79.11 334.84 L79.63 333.83 L80.15 332.82 L80.67 331.81 L81.18 330.80 L81.68 329.79 L82.18 328.78 L82.67 327.77 L83.16 326.76 L83.64 325.75 L84.12 324.74 L84.60 323.74 L85.07 322.73 L85.54 321.72 L86.00 320.71 L86.46 319.70 L86.91 318.69 L87.36 317.68 L87.81 316.68 L88.26 315.67 L88.70 314.66 L89.13 313.65 L89.57 312.65 L90.00 311.64 L90.43 310.63 L90.85 309.62 L91.27 308.62 L91.69 307.61 L92.10 306.60 L92.52 305.60 L92.93 304.59 L93.33 303.58 L93.74 302.58 L94.14 301.57 L94.54 300.56 L94.94 299.56 L95.33 298.55 L95.72 297.54 L96.11 296.54 L96.50 295.53 L96.88 294.53 L97.27 293.52 L97.65 292.52 L98.03 291.51 L98.40 290.50 L98.78 289.50 L99.15 288.49 L99.52 287.49 L99.88 286.48 L100.25 285.48 L100.61 284.47 L100.98 283.47 L101.34 282.46 L101.69 281.46 L102.05 280.45 L102.41 279.45 L102.76 278.44 L103.11 277.44 L103.46 276.43 L103.81 275.43 L104.15 274.42 L104.50 273.42 L104.84 272.41 L105.18 271.41 L105.52 270.40 L105.86 269.40 L106.19 268.39 L106.53 267.39 L106.86 266.38 L107.20 265.38 L107.53 264.38 L107.86 263.37 L108.18 262.37 L108.51 261.36 L108.83 260.36 L109.16 259.35 L109.48 258.35 L109.80 257.35 L110.12 256.34 L110.44 255.34 L110.76 254.33 L111.07 253.33 L111.39 252.33 L111.70 251.32 L112.01 250.32 L112.32 249.31 L112.63 248.31 L112.94 247.31 L113.25 246.30 L113.55 245.30 L113.86 244.30 L114.16 243.29 L114.47 242.29 L114.77 241.29 L115.07 240.28 L115.37 239.28 L115.67 238.27 L115.96 237.27 L116.26 236.27 L116.55 235.26 L116.85 234.26 L117.14 233.26 L117.43 232.25 L117.73 231.25 L118.02 230.25 L118.31 229.24 L118.59 228.24 L118.88 227.24 L119.17 226.23 L119.45 225.23 L119.74 224.23 L120.02 223.22 L120.30 222.22 L120.59 221.22 L120.87 220.21 L121.15 219.21 L121.43 218.21 L121.71 217.21 L121.98 216.20 L122.26 215.20 L122.54 214.20 L122.81 213.19 L123.08 212.19 L123.36 211.19 L123.63 210.18 L123.90 209.18 L124.17 208.18 L124.44 207.18 L124.71 206.17 L124.98 205.17 L125.25 204.17 L125.52 203.16 L125.78 202.16 L126.05 201.16 L126.31 200.16 L126.58 199.15 L126.84 198.15 L127.10 197.15 L127.37 196.14 L127.63 195.14 L127.89 194.14 L128.15 193.14 L128.41 192.13 L128.66 191.13 L128.92 190.13 L129.18 189.13 L129.44 188.12 L129.69 187.12 L129.95 186.12 L130.20 185.12 L130.45 184.11 L130.71 183.11 L130.96 182.11 L131.21 181.11 L131.46 180.10 L131.71 179.10 L131.96 178.10 L132.21 177.10 L132.46 176.09 L132.71 175.09 L132.96 174.09 L133.20 173.09 L133.45 172.08 L133.70 171.08 L133.94 170.08 L134.18 169.08 L134.43 168.07 L134.67 167.07 L134.91 166.07 L135.16 165.07 L135.40 164.06 L135.64 163.06 L135.88 162.06 L136.12 161.06 L136.36 160.05 L136.60 159.05 L136.84 158.05 L137.07 157.05 L137.31 156.05 L137.55 155.04 L137.78 154.04 L138.02 153.04 L138.26 152.04 L138.49 151.03 L138.72 150.03 L138.96 149.03 L139.19 148.03 L139.42 147.03 L139.66 146.02 L139.89 145.02 L140.12 144.02 L140.35 143.02 L140.58 142.02 L140.81 141.01 L141.04 140.01 L141.27 139.01 L141.49 138.01 L141.72 137.01 L141.95 136.00 L142.18 135.00 L142.40 134.00 L142.63 133.00 L142.85 131.99 L143.08 130.99 L143.30 129.99 L143.53 128.99 L143.75 127.99 L143.97 126.98 L144.20 125.98 L144.42 124.98 L144.64 123.98 L144.86 122.98 L145.08 121.98 L145.30 120.97 L145.52 119.97 L145.74 118.97 L145.96 117.97 L146.18 116.97 L146.40 115.96 L146.62 114.96 L146.84 113.96 L147.05 112.96 L147.27 111.96 L147.49 110.95 L147.70 109.95 L147.92 108.95 L148.13 107.95 L148.35 106.95 L148.56 105.94 L148.78 104.94 L148.99 103.94 L149.20 102.94 L149.42 101.94 L149.63 100.94 L149.84 99.93 L150.05 98.93 L150.26 97.93 L150.48 96.93 L150.69 95.93 L150.90 94.93 L151.11 93.92 L151.32 92.92 L151.52 91.92 L151.73 90.92 L151.94 89.92 L152.15 88.91 L152.36 87.91 L152.56 86.91 L152.77 85.91 L152.98 84.91 L153.18 83.91 L153.39 82.90 L153.60 81.90 L153.80 80.90 L154.01 79.90 L154.21 78.90 L154.41 77.90 L154.62 76.89 L154.82 75.89 L155.03 74.89 L155.23 73.89 L155.43 72.89 L155.63 71.89 L155.83 70.88 L156.04 69.88 L156.24 68.88 L156.44 67.88 L156.64 66.88 L156.84 65.88 L157.04 64.88 L157.24 63.87 L157.44 62.87 L157.64 61.87 L157.84 60.87 L158.03 59.87 L158.23 58.87 L158.43 57.86 L158.63 56.86 L158.82 55.86 L159.02 54.86 L159.22 53.86 L159.41 52.86 L159.61 51.85 L159.81 50.85 L160.00 49.85 L160.20 48.85 L160.39 47.85 L160.59 46.85 L160.78 45.85 L160.97 44.84 L161.17 43.84 L161.36 42.84 L161.55 41.84 L161.75 40.84 L161.94 39.84 L162.13 38.84 L162.32 37.83 L162.51 36.83 L162.71 35.83 L162.90 34.83 L163.09 33.83 L163.28 32.83 L163.47 31.83 L163.66 30.82 L163.85 29.82 L164.04 28.82 L164.23 27.82 L164.41 26.82 L164.60 25.82 L164.79 24.82 L164.98 23.81 L165.17 22.81 L165.35 21.81 L165.54 20.81 L165.73 19.81 L165.92 18.81 L166.10 17.81 L166.29 16.80 L166.47 15.80 L166.66 14.80 L166.85 13.80 L167.03 12.80 L167.22 11.80 L167.40 10.80 L167.58 9.79 L167.77 8.79 L167.95 7.79 L168.14 6.79 L168.32 5.79 L168.50 4.79 L168.69 3.79 L168.87 2.79 L169.05 1.78 L169.23 0.78 L169.42 -0.22 "
       style="fill:none;stroke:#FF8800;stroke-width:1;"
       id="path69" />
    <path
       d="M-10.00 200.00 L-0.25 374.00 L0.75 373.77 L2.75 373.29 L4.75 372.78 L6.75 372.24 L8.75 371.66 L10.75 371.04 L12.75 370.37 L14.75 369.67 L16.75 368.91 L18.75 368.11 L20.75 367.25 L22.75 366.34 L24.75 365.36 L26.75 364.32 L28.67 363.26 L30.48 362.20 L32.18 361.14 L33.78 360.08 L35.30 359.03 L36.75 357.98 L38.13 356.93 L39.45 355.89 L40.71 354.85 L41.92 353.81 L43.08 352.77 L44.20 351.73 L45.28 350.69 L46.32 349.66 L47.32 348.63 L48.30 347.59 L49.24 346.56 L50.15 345.53 L51.04 344.50 L51.90 343.47 L52.74 342.45 L53.55 341.42 L54.35 340.39 L55.12 339.37 L55.87 338.34 L56.61 337.32 L57.33 336.29 L58.03 335.27 L58.71 334.25 L59.38 333.23 L60.04 332.20 L60.68 331.18 L61.31 330.16 L61.93 329.14 L62.53 328.12 L63.12 327.10 L63.70 326.08 L64.27 325.06 L64.83 324.05 L65.38 323.03 L65.92 322.01 L66.45 320.99 L66.97 319.98 L67.48 318.96 L67.98 317.94 L68.48 316.93 L68.96 315.91 L69.44 314.89 L69.92 313.88 L70.38 312.86 L70.84 311.85 L71.29 310.83 L71.74 309.82 L72.17 308.80 L72.61 307.79 L73.03 306.78 L73.45 305.76 L73.87 304.75 L74.28 303.74 L74.68 302.72 L75.08 301.71 L75.47 300.70 L75.86 299.68 L76.24 298.67 L76.62 297.66 L76.99 296.65 L77.36 295.63 L77.73 294.62 L78.09 293.61 L78.45 292.60 L78.80 291.59 L79.15 290.58 L79.49 289.57 L79.83 288.55 L80.17 287.54 L80.50 286.53 L80.83 285.52 L81.16 284.51 L81.48 283.50 L81.80 282.49 L82.11 281.48 L82.43 280.47 L82.74 279.46 L83.04 278.45 L83.35 277.44 L83.65 276.43 L83.95 275.42 L84.24 274.41 L84.53 273.40 L84.82 272.39 L85.11 271.38 L85.39 270.37 L85.67 269.36 L85.95 268.35 L86.23 267.35 L86.50 266.34 L86.77 265.33 L87.04 264.32 L87.31 263.31 L87.57 262.30 L87.83 261.29 L88.09 260.28 L88.35 259.28 L88.61 258.27 L88.86 257.26 L89.11 256.25 L89.36 255.24 L89.61 254.24 L89.85 253.23 L90.10 252.22 L90.34 251.21 L90.58 250.20 L90.81 249.20 L91.05 248.19 L91.28 247.18 L91.52 246.17 L91.75 245.17 L91.98 244.16 L92.20 243.15 L92.43 242.14 L92.65 241.14 L92.87 240.13 L93.10 239.12 L93.31 238.11 L93.53 237.11 L93.75 236.10 L93.96 235.09 L94.17 234.09 L94.39 233.08 L94.60 232.07 L94.81 231.07 L95.01 230.06 L95.22 229.05 L95.42 228.05 L95.63 227.04 L95.83 226.03 L96.03 225.03 L96.23 224.02 L96.42 223.01 L96.62 222.01 L96.82 221.00 L97.01 219.99 L97.20 218.99 L97.40 217.98 L97.59 216.98 L97.78 215.97 L97.96 214.96 L98.15 213.96 L98.34 212.95 L98.52 211.95 L98.71 210.94 L98.89 209.93 L99.07 208.93 L99.25 207.92 L99.43 206.92 L99.61 205.91 L99.78 204.90 L99.96 203.90 L100.14 202.89 L100.31 201.89 L100.48 200.88 L100.66 199.88 L100.83 198.87 L101.00 197.86 L101.17 196.86 L101.34 195.85 L101.50 194.85 L101.67 193.84 L101.84 192.84 L102.00 191.83 L102.17 190.83 L102.33 189.82 L102.49 188.82 L102.65 187.81 L102.81 186.81 L102.97 185.80 L103.13 184.80 L103.29 183.79 L103.45 182.79 L103.60 181.78 L103.76 180.78 L103.92 179.77 L104.07 178.77 L104.22 177.76 L104.38 176.76 L104.53 175.75 L104.68 174.75 L104.83 173.74 L104.98 172.74 L105.13 171.73 L105.28 170.73 L105.42 169.72 L105.57 168.72 L105.72 167.71 L105.86 166.71 L106.01 165.70 L106.15 164.70 L106.30 163.69 L106.44 162.69 L106.58 161.68 L106.72 160.68 L106.86 159.67 L107.00 158.67 L107.14 157.67 L107.28 156.66 L107.42 155.66 L107.56 154.65 L107.69 153.65 L107.83 152.64 L107.97 151.64 L108.10 150.63 L108.24 149.63 L108.37 148.63 L108.50 147.62 L108.64 146.62 L108.77 145.61 L108.90 144.61 L109.03 143.60 L109.16 142.60 L109.29 141.60 L109.42 140.59 L109.55 139.59 L109.68 138.58 L109.81 137.58 L109.94 136.57 L110.06 135.57 L110.19 134.57 L110.32 133.56 L110.44 132.56 L110.57 131.55 L110.69 130.55 L110.81 129.55 L110.94 128.54 L111.06 127.54 L111.18 126.53 L111.30 125.53 L111.43 124.53 L111.55 123.52 L111.67 122.52 L111.79 121.51 L111.91 120.51 L112.03 119.51 L112.14 118.50 L112.26 117.50 L112.38 116.50 L112.50 115.49 L112.61 114.49 L112.73 113.48 L112.85 112.48 L112.96 111.48 L113.08 110.47 L113.19 109.47 L113.31 108.47 L113.42 107.46 L113.53 106.46 L113.65 105.45 L113.76 104.45 L113.87 103.45 L113.98 102.44 L114.09 101.44 L114.20 100.44 L114.32 99.43 L114.43 98.43 L114.54 97.43 L114.64 96.42 L114.75 95.42 L114.86 94.42 L114.97 93.41 L115.08 92.41 L115.19 91.40 L115.29 90.40 L115.40 89.40 L115.51 88.39 L115.61 87.39 L115.72 86.39 L115.82 85.38 L115.93 84.38 L116.03 83.38 L116.14 82.37 L116.24 81.37 L116.34 80.37 L116.45 79.36 L116.55 78.36 L116.65 77.36 L116.75 76.35 L116.86 75.35 L116.96 74.35 L117.06 73.34 L117.16 72.34 L117.26 71.34 L117.36 70.33 L117.46 69.33 L117.56 68.33 L117.66 67.32 L117.76 66.32 L117.86 65.32 L117.95 64.31 L118.05 63.31 L118.15 62.31 L118.25 61.31 L118.34 60.30 L118.44 59.30 L118.54 58.30 L118.63 57.29 L118.73 56.29 L118.82 55.29 L118.92 54.28 L119.01 53.28 L119.11 52.28 L119.20 51.27 L119.30 50.27 L119.39 49.27 L119.48 48.27 L119.58 47.26 L119.67 46.26 L119.76 45.26 L119.86 44.25 L119.95 43.25 L120.04 42.25 L120.13 41.24 L120.22 40.24 L120.31 39.24 L120.40 38.24 L120.49 37.23 L120.58 36.23 L120.67 35.23 L120.76 34.22 L120.85 33.22 L120.94 32.22 L121.03 31.22 L121.12 30.21 L121.21 29.21 L121.30 28.21 L121.38 27.20 L121.47 26.20 L121.56 25.20 L121.65 24.20 L121.73 23.19 L121.82 22.19 L121.91 21.19 L121.99 20.18 L122.08 19.18 L122.16 18.18 L122.25 17.18 L122.33 16.17 L122.42 15.17 L122.50 14.17 L122.59 13.16 L122.67 12.16 L122.76 11.16 L122.84 10.16 L122.92 9.15 L123.01 8.15 L123.09 7.15 L123.17 6.15 L123.26 5.14 L123.34 4.14 L123.42 3.14 L123.50 2.14 L123.59 1.13 L123.67 0.13 L123.75 -0.87 "
       style="fill:none;stroke:#FF0000;stroke-width:1;"
       id="path71" />
  </g>
  <text
     xml:space="preserve"
     style="font-size:24px;font-style:normal;font-weight:normal;line-height:125%;letter-spacing:0px;word-spacing:0px;fill:#ff0000;fill-opacity:1;stroke:none;font-family:Sans"
     x="77.721947"
     y="38.190952"
     id="text3054"
     sodipodi:linespacing="125%"><tspan
       sodipodi:role="line"
       id="tspan3056"
       x="77.721947"
       y="38.190952"
       style="font-size:32px;fill:#ff0000">e</tspan></text>
  <text
     xml:space="preserve"
     style="font-size:40px;font-style:normal;font-weight:normal;line-height:125%;letter-spacing:0px;word-spacing:0px;fill:#ff6600;fill-opacity:1;stroke:none;font-family:Sans"
     x="175.54439"
     y="46.901173"
     id="text3060"
     sodipodi:linespacing="125%"><tspan
       sodipodi:role="line"
       id="tspan3062"
       x="175.54439"
       y="46.901173"
       style="font-size:32px;fill:#ff6600">n</tspan></text>
  <text
     xml:space="preserve"
     style="font-size:40px;font-style:normal;font-weight:normal;line-height:125%;letter-spacing:0px;word-spacing:0px;fill:#800080;fill-opacity:1;stroke:none;font-family:Sans"
     x="302.84756"
     y="97.822449"
     id="text3066"
     sodipodi:linespacing="125%"><tspan
       sodipodi:role="line"
       id="tspan3068"
       x="302.84756"
       y="97.822449"
       style="font-size:32px;fill:#800080">n log(n)</tspan></text>
  <text
     xml:space="preserve"
     style="font-size:40px;font-style:normal;font-weight:normal;line-height:125%;letter-spacing:0px;word-spacing:0px;fill:#000000;fill-opacity:1;stroke:none;font-family:Sans"
     x="451.59128"
     y="150.75375"
     id="text3070"
     sodipodi:linespacing="125%"><tspan
       sodipodi:role="line"
       id="tspan3072"
       x="451.59128"
       y="150.75375"
       style="font-size:32px">n</tspan></text>
  <text
     xml:space="preserve"
     style="font-size:40px;font-style:normal;font-weight:normal;line-height:125%;letter-spacing:0px;word-spacing:0px;fill:#000080;fill-opacity:1;stroke:none;font-family:Sans"
     x="541.37354"
     y="282.74707"
     id="text3074"
     sodipodi:linespacing="125%"><tspan
       sodipodi:role="line"
       id="tspan3076"
       x="541.37354"
       y="282.74707"
       style="font-size:32px;fill:#000080">√n</tspan></text>
  <text
     xml:space="preserve"
     style="font-size:40px;font-style:normal;font-weight:normal;line-height:125%;letter-spacing:0px;word-spacing:0px;fill:#008000;fill-opacity:1;stroke:none;font-family:Sans"
     x="549.4137"
     y="345.05862"
     id="text3078"
     sodipodi:linespacing="125%"><tspan
       sodipodi:role="line"
       id="tspan3080"
       x="549.4137"
       y="345.05862"
       style="font-size:32px;fill:#008000">log(n)</tspan></text>
  <text
     xml:space="preserve"
     style="font-size:40px;font-style:normal;font-weight:normal;line-height:125%;letter-spacing:0px;word-spacing:0px;fill:#ff0000;fill-opacity:1;stroke:none;font-family:Sans"
     x="97.15242"
     y="29.480732"
     id="text3034"
     sodipodi:linespacing="125%"><tspan
       sodipodi:role="line"
       id="tspan3036"
       x="97.15242"
       y="29.480732"
       style="font-size:28px;fill:#ff0000">n</tspan></text>
  <text
     xml:space="preserve"
     style="font-size:40px;font-style:normal;font-weight:normal;line-height:125%;letter-spacing:0px;word-spacing:0px;fill:#000000;fill-opacity:1;stroke:none;font-family:Sans"
     x="192.96483"
     y="38.190956"
     id="text3038"
     sodipodi:linespacing="125%"><tspan
       sodipodi:role="line"
       id="tspan3040"
       x="192.96483"
       y="38.190956"
       style="font-size:28px;fill:#ff6600">2</tspan></text>
</svg>
