<?xml version="1.0" encoding="UTF-8" standalone="no"?>
<!DOCTYPE svg PUBLIC "-//W3C//DTD SVG 1.0//EN" "http://www.w3.org/TR/2001/PR-SVG-20010719/DTD/svg10.dtd">
<svg viewBox="38 139 443 936" xmlns="http://www.w3.org/2000/svg" xmlns:xlink="http://www.w3.org/1999/xlink">
  <g>
    <ellipse style="fill: #ffffff" cx="260" cy="160" rx="20" ry="20"/>
    <ellipse style="fill: none; fill-opacity:0; stroke-width: 2; stroke: #000000" cx="260" cy="160" rx="20" ry="20"/>
  </g>
  <text font-size="12.8" style="fill: #000000;text-anchor:start;font-family:sans-serif;font-style:normal;font-weight:normal" x="260" y="160">
    <tspan x="260" y="160"></tspan>
  </text>
  <text font-size="22.5778" style="fill: #000000;text-anchor:middle;font-family:sans-serif;font-style:normal;font-weight:normal" x="260" y="167.825">
    <tspan x="260" y="167.825">S</tspan>
  </text>
  <g>
    <ellipse style="fill: #ffffff" cx="260" cy="240" rx="20" ry="20"/>
    <ellipse style="fill: none; fill-opacity:0; stroke-width: 2; stroke: #000000" cx="260" cy="240" rx="20" ry="20"/>
  </g>
  <text font-size="12.8" style="fill: #000000;text-anchor:start;font-family:sans-serif;font-style:normal;font-weight:normal" x="260" y="240">
    <tspan x="260" y="240"></tspan>
  </text>
  <text font-size="22.5778" style="fill: #000000;text-anchor:middle;font-family:sans-serif;font-style:normal;font-weight:normal" x="260" y="247.825">
    <tspan x="260" y="247.825">R</tspan>
  </text>
  <g>
    <ellipse style="fill: #ffffff" cx="260" cy="320" rx="20" ry="20"/>
    <ellipse style="fill: none; fill-opacity:0; stroke-width: 2; stroke: #000000" cx="260" cy="320" rx="20" ry="20"/>
  </g>
  <text font-size="12.8" style="fill: #000000;text-anchor:start;font-family:sans-serif;font-style:normal;font-weight:normal" x="260" y="320">
    <tspan x="260" y="320"></tspan>
  </text>
  <text font-size="22.5778" style="fill: #000000;text-anchor:middle;font-family:sans-serif;font-style:normal;font-weight:normal" x="260" y="327.825">
    <tspan x="260" y="327.825">R</tspan>
  </text>
  <line style="fill: none; fill-opacity:0; stroke-width: 2; stroke-dasharray: 4; stroke: #000000" x1="260" y1="180" x2="260" y2="220"/>
  <line style="fill: none; fill-opacity:0; stroke-width: 2; stroke-dasharray: 4; stroke: #000000" x1="260" y1="260.991" x2="260" y2="300"/>
  <line style="fill: none; fill-opacity:0; stroke-width: 2; stroke: #000000" x1="245.858" y1="174.142" x2="40" y2="380"/>
  <line style="fill: none; fill-opacity:0; stroke-width: 2; stroke: #000000" x1="245.157" y1="254.843" x2="120" y2="380"/>
  <line style="fill: none; fill-opacity:0; stroke-width: 2; stroke: #000000" x1="274.838" y1="174.838" x2="480" y2="380"/>
  <line style="fill: none; fill-opacity:0; stroke-width: 2; stroke: #000000" x1="274.142" y1="254.142" x2="400" y2="380"/>
  <line style="fill: none; fill-opacity:0; stroke-width: 2; stroke: #000000" x1="245.858" y1="334.142" x2="200" y2="380"/>
  <line style="fill: none; fill-opacity:0; stroke-width: 2; stroke: #000000" x1="274.839" y1="334.839" x2="320" y2="380"/>
  <line style="fill: none; fill-opacity:0; stroke-width: 2; stroke: #000000" x1="40" y1="380" x2="480" y2="380"/>
  <text font-size="22.5778" style="fill: #000000;text-anchor:middle;font-family:sans-serif;font-style:normal;font-weight:normal" x="80" y="407.825">
    <tspan x="80" y="407.825">u</tspan>
  </text>
  <text font-size="22.5778" style="fill: #000000;text-anchor:middle;font-family:sans-serif;font-style:normal;font-weight:normal" x="160" y="407.825">
    <tspan x="160" y="407.825">v</tspan>
  </text>
  <text font-size="22.5778" style="fill: #000000;text-anchor:middle;font-family:sans-serif;font-style:normal;font-weight:normal" x="260" y="407.825">
    <tspan x="260" y="407.825">w</tspan>
  </text>
  <text font-size="22.5778" style="fill: #000000;text-anchor:middle;font-family:sans-serif;font-style:normal;font-weight:normal" x="360" y="407.825">
    <tspan x="360" y="407.825">x</tspan>
  </text>
  <text font-size="22.5778" style="fill: #000000;text-anchor:middle;font-family:sans-serif;font-style:normal;font-weight:normal" x="440" y="407.825">
    <tspan x="440" y="407.825">y</tspan>
  </text>
  <g>
    <ellipse style="fill: #ffffff" cx="260" cy="460" rx="20" ry="20"/>
    <ellipse style="fill: none; fill-opacity:0; stroke-width: 2; stroke: #000000" cx="260" cy="460" rx="20" ry="20"/>
  </g>
  <text font-size="12.8" style="fill: #000000;text-anchor:start;font-family:sans-serif;font-style:normal;font-weight:normal" x="260" y="460">
    <tspan x="260" y="460"></tspan>
  </text>
  <text font-size="22.5778" style="fill: #000000;text-anchor:middle;font-family:sans-serif;font-style:normal;font-weight:normal" x="260" y="467.825">
    <tspan x="260" y="467.825">S</tspan>
  </text>
  <g>
    <ellipse style="fill: #ffffff" cx="260" cy="540" rx="20" ry="20"/>
    <ellipse style="fill: none; fill-opacity:0; stroke-width: 2; stroke: #000000" cx="260" cy="540" rx="20" ry="20"/>
  </g>
  <text font-size="12.8" style="fill: #000000;text-anchor:start;font-family:sans-serif;font-style:normal;font-weight:normal" x="260" y="540">
    <tspan x="260" y="540"></tspan>
  </text>
  <text font-size="22.5778" style="fill: #000000;text-anchor:middle;font-family:sans-serif;font-style:normal;font-weight:normal" x="260" y="547.825">
    <tspan x="260" y="547.825">R</tspan>
  </text>
  <text font-size="12.8" style="fill: #000000;text-anchor:start;font-family:sans-serif;font-style:normal;font-weight:normal" x="260" y="620">
    <tspan x="260" y="620"></tspan>
  </text>
  <line style="fill: none; fill-opacity:0; stroke-width: 2; stroke-dasharray: 4; stroke: #000000" x1="260" y1="480" x2="260" y2="520"/>
  <line style="fill: none; fill-opacity:0; stroke-width: 2; stroke: #000000" x1="245.858" y1="474.142" x2="40" y2="680"/>
  <line style="fill: none; fill-opacity:0; stroke-width: 2; stroke: #000000" x1="245.157" y1="554.843" x2="120" y2="680"/>
  <line style="fill: none; fill-opacity:0; stroke-width: 2; stroke: #000000" x1="274.838" y1="474.838" x2="480" y2="680"/>
  <line style="fill: none; fill-opacity:0; stroke-width: 2; stroke: #000000" x1="274.142" y1="554.142" x2="400" y2="680"/>
  <text font-size="22.5778" style="fill: #000000;text-anchor:middle;font-family:sans-serif;font-style:normal;font-weight:normal" x="80" y="707.825">
    <tspan x="80" y="707.825">u</tspan>
  </text>
  <text font-size="22.5778" style="fill: #000000;text-anchor:middle;font-family:sans-serif;font-style:normal;font-weight:normal" x="260" y="627.825">
    <tspan x="260" y="627.825">w</tspan>
  </text>
  <text font-size="22.5778" style="fill: #000000;text-anchor:middle;font-family:sans-serif;font-style:normal;font-weight:normal" x="440" y="707.825">
    <tspan x="440" y="707.825">y</tspan>
  </text>
  <line style="fill: none; fill-opacity:0; stroke-width: 2; stroke: #000000" x1="200" y1="600" x2="320" y2="600"/>
  <line style="fill: none; fill-opacity:0; stroke-width: 2; stroke: #000000" x1="40" y1="680" x2="120" y2="680"/>
  <line style="fill: none; fill-opacity:0; stroke-width: 2; stroke: #000000" x1="400" y1="680" x2="480" y2="680"/>
  <g>
    <ellipse style="fill: #ffffff" cx="260" cy="740" rx="20" ry="20"/>
    <ellipse style="fill: none; fill-opacity:0; stroke-width: 2; stroke: #000000" cx="260" cy="740" rx="20" ry="20"/>
  </g>
  <text font-size="12.8" style="fill: #000000;text-anchor:start;font-family:sans-serif;font-style:normal;font-weight:normal" x="260" y="740">
    <tspan x="260" y="740"></tspan>
  </text>
  <text font-size="22.5778" style="fill: #000000;text-anchor:middle;font-family:sans-serif;font-style:normal;font-weight:normal" x="260" y="747.825">
    <tspan x="260" y="747.825">S</tspan>
  </text>
  <g>
    <ellipse style="fill: #ffffff" cx="260" cy="820" rx="20" ry="20"/>
    <ellipse style="fill: none; fill-opacity:0; stroke-width: 2; stroke: #000000" cx="260" cy="820" rx="20" ry="20"/>
  </g>
  <text font-size="12.8" style="fill: #000000;text-anchor:start;font-family:sans-serif;font-style:normal;font-weight:normal" x="260" y="820">
    <tspan x="260" y="820"></tspan>
  </text>
  <text font-size="22.5778" style="fill: #000000;text-anchor:middle;font-family:sans-serif;font-style:normal;font-weight:normal" x="260" y="827.825">
    <tspan x="260" y="827.825">R</tspan>
  </text>
  <g>
    <ellipse style="fill: #ffffff" cx="260" cy="900" rx="20" ry="20"/>
    <ellipse style="fill: none; fill-opacity:0; stroke-width: 2; stroke: #000000" cx="260" cy="900" rx="20" ry="20"/>
  </g>
  <text font-size="12.8" style="fill: #000000;text-anchor:start;font-family:sans-serif;font-style:normal;font-weight:normal" x="260" y="900">
    <tspan x="260" y="900"></tspan>
  </text>
  <text font-size="22.5778" style="fill: #000000;text-anchor:middle;font-family:sans-serif;font-style:normal;font-weight:normal" x="260" y="907.825">
    <tspan x="260" y="907.825">R</tspan>
  </text>
  <line style="fill: none; fill-opacity:0; stroke-width: 2; stroke-dasharray: 4; stroke: #000000" x1="260" y1="760" x2="260" y2="800"/>
  <line style="fill: none; fill-opacity:0; stroke-width: 2; stroke-dasharray: 4; stroke: #000000" x1="260" y1="840.991" x2="260" y2="880"/>
  <line style="fill: none; fill-opacity:0; stroke-width: 2; stroke: #000000" x1="245.858" y1="754.142" x2="40" y2="960"/>
  <line style="fill: none; fill-opacity:0; stroke-width: 2; stroke: #000000" x1="245.157" y1="834.843" x2="120" y2="960"/>
  <line style="fill: none; fill-opacity:0; stroke-width: 2; stroke: #000000" x1="274.838" y1="754.838" x2="480" y2="960"/>
  <line style="fill: none; fill-opacity:0; stroke-width: 2; stroke: #000000" x1="274.142" y1="834.142" x2="400" y2="960"/>
  <line style="fill: none; fill-opacity:0; stroke-width: 2; stroke: #000000" x1="245.858" y1="914.142" x2="120" y2="1040"/>
  <line style="fill: none; fill-opacity:0; stroke-width: 2; stroke: #000000" x1="274.843" y1="914.843" x2="400" y2="1040"/>
  <text font-size="22.5778" style="fill: #000000;text-anchor:middle;font-family:sans-serif;font-style:normal;font-weight:normal" x="80" y="987.825">
    <tspan x="80" y="987.825">u</tspan>
  </text>
  <text font-size="22.5778" style="fill: #000000;text-anchor:middle;font-family:sans-serif;font-style:normal;font-weight:normal" x="160" y="987.825">
    <tspan x="160" y="987.825">v</tspan>
  </text>
  <text font-size="22.5778" style="fill: #000000;text-anchor:middle;font-family:sans-serif;font-style:normal;font-weight:normal" x="260" y="1067.83">
    <tspan x="260" y="1067.83">w</tspan>
  </text>
  <text font-size="22.5778" style="fill: #000000;text-anchor:middle;font-family:sans-serif;font-style:normal;font-weight:normal" x="360" y="987.825">
    <tspan x="360" y="987.825">x</tspan>
  </text>
  <text font-size="22.5778" style="fill: #000000;text-anchor:middle;font-family:sans-serif;font-style:normal;font-weight:normal" x="440" y="987.825">
    <tspan x="440" y="987.825">y</tspan>
  </text>
  <g>
    <ellipse style="fill: #ffffff" cx="260" cy="980" rx="20" ry="20"/>
    <ellipse style="fill: none; fill-opacity:0; stroke-width: 2; stroke: #000000" cx="260" cy="980" rx="20" ry="20"/>
  </g>
  <text font-size="22.5778" style="fill: #000000;text-anchor:middle;font-family:sans-serif;font-style:normal;font-weight:normal" x="260" y="987.825">
    <tspan x="260" y="987.825">R</tspan>
  </text>
  <line style="fill: none; fill-opacity:0; stroke-width: 2; stroke-dasharray: 4; stroke: #000000" x1="260" y1="920" x2="260" y2="960"/>
  <line style="fill: none; fill-opacity:0; stroke-width: 2; stroke: #000000" x1="245.858" y1="994.142" x2="200" y2="1040"/>
  <line style="fill: none; fill-opacity:0; stroke-width: 2; stroke: #000000" x1="274.839" y1="994.839" x2="320" y2="1040"/>
  <line style="fill: none; fill-opacity:0; stroke-width: 2; stroke: #000000" x1="120" y1="1040" x2="400" y2="1040"/>
  <line style="fill: none; fill-opacity:0; stroke-width: 2; stroke: #000000" x1="40" y1="960" x2="200" y2="960"/>
  <line style="fill: none; fill-opacity:0; stroke-width: 2; stroke: #000000" x1="320" y1="960" x2="480" y2="960"/>
  <text font-size="22.5778" style="fill: #000000;text-anchor:middle;font-family:sans-serif;font-style:normal;font-weight:normal" x="160" y="1067.83">
    <tspan x="160" y="1067.83">v</tspan>
  </text>
  <text font-size="22.5778" style="fill: #000000;text-anchor:middle;font-family:sans-serif;font-style:normal;font-weight:normal" x="360" y="1067.5">
    <tspan x="360" y="1067.5">x</tspan>
  </text>
</svg>
