<?xml version="1.0" encoding="UTF-8" standalone="no"?>
<!DOCTYPE svg PUBLIC "-//W3C//DTD SVG 1.0//EN" "http://www.w3.org/TR/2001/PR-SVG-20010719/DTD/svg10.dtd">
<svg viewBox="78 139 423 796" xmlns="http://www.w3.org/2000/svg" xmlns:xlink="http://www.w3.org/1999/xlink">
  <g>
    <ellipse style="fill: #ffffff" cx="260" cy="160" rx="20" ry="20"/>
    <ellipse style="fill: none; fill-opacity:0; stroke-width: 2; stroke: #000000" cx="260" cy="160" rx="20" ry="20"/>
  </g>
  <text font-size="12.7998" style="fill: #000000;text-anchor:start;font-family:sans-serif;font-style:normal;font-weight:normal" x="260" y="160">
    <tspan x="260" y="160"></tspan>
  </text>
  <text font-size="22.5774" style="fill: #000000;text-anchor:middle;font-family:sans-serif;font-style:normal;font-weight:normal" x="260" y="167.825">
    <tspan x="260" y="167.825">S</tspan>
  </text>
  <g>
    <ellipse style="fill: #ffffff" cx="320" cy="220" rx="20" ry="20"/>
    <ellipse style="fill: none; fill-opacity:0; stroke-width: 2; stroke: #000000" cx="320" cy="220" rx="20" ry="20"/>
  </g>
  <text font-size="12.7998" style="fill: #000000;text-anchor:start;font-family:sans-serif;font-style:normal;font-weight:normal" x="320" y="220">
    <tspan x="320" y="220"></tspan>
  </text>
  <text font-size="22.5774" style="fill: #000000;text-anchor:middle;font-family:sans-serif;font-style:normal;font-weight:normal" x="320" y="227.825">
    <tspan x="320" y="227.825">R</tspan>
  </text>
  <g>
    <ellipse style="fill: #ffffff" cx="380" cy="280" rx="20" ry="20"/>
    <ellipse style="fill: none; fill-opacity:0; stroke-width: 2; stroke: #000000" cx="380" cy="280" rx="20" ry="20"/>
  </g>
  <text font-size="12.7998" style="fill: #000000;text-anchor:start;font-family:sans-serif;font-style:normal;font-weight:normal" x="380" y="280">
    <tspan x="380" y="280"></tspan>
  </text>
  <text font-size="22.5774" style="fill: #000000;text-anchor:middle;font-family:sans-serif;font-style:normal;font-weight:normal" x="380" y="287.825">
    <tspan x="380" y="287.825">R</tspan>
  </text>
  <line style="fill: none; fill-opacity:0; stroke-width: 2; stroke-dasharray: 4; stroke: #000000" x1="274.142" y1="174.142" x2="305.149" y2="205.149"/>
  <line style="fill: none; fill-opacity:0; stroke-width: 2; stroke-dasharray: 4; stroke: #000000" x1="334.851" y1="234.851" x2="365.858" y2="265.858"/>
  <line style="fill: none; fill-opacity:0; stroke-width: 2; stroke: #000000" x1="245.858" y1="174.142" x2="80" y2="340"/>
  <line style="fill: none; fill-opacity:0; stroke-width: 2; stroke: #000000" x1="305.161" y1="234.839" x2="200" y2="340"/>
  <line style="fill: none; fill-opacity:0; stroke-width: 2; stroke: #000000" x1="365.858" y1="294.142" x2="320" y2="340"/>
  <line style="fill: none; fill-opacity:0; stroke-width: 2; stroke: #000000" x1="394.142" y1="294.142" x2="440" y2="340"/>
  <text font-size="22.5774" style="fill: #000000;text-anchor:middle;font-family:sans-serif;font-style:normal;font-weight:normal" x="140" y="367.825">
    <tspan x="140" y="367.825">u</tspan>
  </text>
  <text font-size="22.5774" style="fill: #000000;text-anchor:middle;font-family:sans-serif;font-style:normal;font-weight:normal" x="260" y="367.825">
    <tspan x="260" y="367.825">v</tspan>
  </text>
  <text font-size="22.5774" style="fill: #000000;text-anchor:middle;font-family:sans-serif;font-style:normal;font-weight:normal" x="380" y="367.825">
    <tspan x="380" y="367.825">w</tspan>
  </text>
  <line style="fill: none; fill-opacity:0; stroke-width: 2; stroke: #000000" x1="80" y1="340" x2="440" y2="340"/>
  <g>
    <ellipse style="fill: #ffffff" cx="260" cy="420" rx="20" ry="20"/>
    <ellipse style="fill: none; fill-opacity:0; stroke-width: 2; stroke: #000000" cx="260" cy="420" rx="20" ry="20"/>
  </g>
  <text font-size="12.7998" style="fill: #000000;text-anchor:start;font-family:sans-serif;font-style:normal;font-weight:normal" x="260" y="420">
    <tspan x="260" y="420"></tspan>
  </text>
  <text font-size="22.5774" style="fill: #000000;text-anchor:middle;font-family:sans-serif;font-style:normal;font-weight:normal" x="260" y="427.825">
    <tspan x="260" y="427.825">S</tspan>
  </text>
  <text font-size="12.7998" style="fill: #000000;text-anchor:start;font-family:sans-serif;font-style:normal;font-weight:normal" x="320" y="480">
    <tspan x="320" y="480"></tspan>
  </text>
  <g>
    <ellipse style="fill: #ffffff" cx="320" cy="480" rx="20" ry="20"/>
    <ellipse style="fill: none; fill-opacity:0; stroke-width: 2; stroke: #000000" cx="320" cy="480" rx="20" ry="20"/>
  </g>
  <text font-size="12.7998" style="fill: #000000;text-anchor:start;font-family:sans-serif;font-style:normal;font-weight:normal" x="320" y="480">
    <tspan x="320" y="480"></tspan>
  </text>
  <text font-size="22.5774" style="fill: #000000;text-anchor:middle;font-family:sans-serif;font-style:normal;font-weight:normal" x="320" y="487.825">
    <tspan x="320" y="487.825">R</tspan>
  </text>
  <line style="fill: none; fill-opacity:0; stroke-width: 2; stroke-dasharray: 4; stroke: #000000" x1="274.142" y1="434.142" x2="305.149" y2="465.149"/>
  <line style="fill: none; fill-opacity:0; stroke-width: 2; stroke: #000000" x1="245.858" y1="434.142" x2="80" y2="600"/>
  <line style="fill: none; fill-opacity:0; stroke-width: 2; stroke: #000000" x1="305.858" y1="494.142" x2="200" y2="600"/>
  <line style="fill: none; fill-opacity:0; stroke-width: 2; stroke: #000000" x1="334.142" y1="494.142" x2="380" y2="540"/>
  <text font-size="22.5774" style="fill: #000000;text-anchor:middle;font-family:sans-serif;font-style:normal;font-weight:normal" x="140" y="627.825">
    <tspan x="140" y="627.825">u</tspan>
  </text>
  <text font-size="22.5774" style="fill: #000000;text-anchor:middle;font-family:sans-serif;font-style:normal;font-weight:normal" x="320" y="567.825">
    <tspan x="320" y="567.825">w</tspan>
  </text>
  <line style="fill: none; fill-opacity:0; stroke-width: 2; stroke: #000000" x1="80" y1="600" x2="200" y2="600"/>
  <line style="fill: none; fill-opacity:0; stroke-width: 2; stroke: #000000" x1="260" y1="540" x2="380" y2="540"/>
  <g>
    <ellipse style="fill: #ffffff" cx="260" cy="660" rx="20" ry="20"/>
    <ellipse style="fill: none; fill-opacity:0; stroke-width: 2; stroke: #000000" cx="260" cy="660" rx="20" ry="20"/>
  </g>
  <text font-size="12.7998" style="fill: #000000;text-anchor:start;font-family:sans-serif;font-style:normal;font-weight:normal" x="260" y="660">
    <tspan x="260" y="660"></tspan>
  </text>
  <text font-size="22.5774" style="fill: #000000;text-anchor:middle;font-family:sans-serif;font-style:normal;font-weight:normal" x="260" y="667.825">
    <tspan x="260" y="667.825">S</tspan>
  </text>
  <g>
    <ellipse style="fill: #ffffff" cx="320" cy="720" rx="20" ry="20"/>
    <ellipse style="fill: none; fill-opacity:0; stroke-width: 2; stroke: #000000" cx="320" cy="720" rx="20" ry="20"/>
  </g>
  <text font-size="12.7998" style="fill: #000000;text-anchor:start;font-family:sans-serif;font-style:normal;font-weight:normal" x="320" y="720">
    <tspan x="320" y="720"></tspan>
  </text>
  <text font-size="22.5774" style="fill: #000000;text-anchor:middle;font-family:sans-serif;font-style:normal;font-weight:normal" x="320" y="727.825">
    <tspan x="320" y="727.825">R</tspan>
  </text>
  <g>
    <ellipse style="fill: #ffffff" cx="380" cy="780" rx="20" ry="20"/>
    <ellipse style="fill: none; fill-opacity:0; stroke-width: 2; stroke: #000000" cx="380" cy="780" rx="20" ry="20"/>
  </g>
  <text font-size="12.7998" style="fill: #000000;text-anchor:start;font-family:sans-serif;font-style:normal;font-weight:normal" x="380" y="780">
    <tspan x="380" y="780"></tspan>
  </text>
  <text font-size="22.5774" style="fill: #000000;text-anchor:middle;font-family:sans-serif;font-style:normal;font-weight:normal" x="380" y="787.825">
    <tspan x="380" y="787.825">R</tspan>
  </text>
  <line style="fill: none; fill-opacity:0; stroke-width: 2; stroke-dasharray: 4; stroke: #000000" x1="274.142" y1="674.142" x2="305.149" y2="705.149"/>
  <line style="fill: none; fill-opacity:0; stroke-width: 2; stroke-dasharray: 4; stroke: #000000" x1="334.851" y1="734.851" x2="365.858" y2="765.858"/>
  <line style="fill: none; fill-opacity:0; stroke-width: 2; stroke: #000000" x1="245.858" y1="674.142" x2="80" y2="840"/>
  <line style="fill: none; fill-opacity:0; stroke-width: 2; stroke: #000000" x1="305.161" y1="734.839" x2="200" y2="840"/>
  <line style="fill: none; fill-opacity:0; stroke-width: 2; stroke: #000000" x1="365.858" y1="794.142" x2="260" y2="900"/>
  <line style="fill: none; fill-opacity:0; stroke-width: 2; stroke-dasharray: 4; stroke: #000000" x1="394.142" y1="794.142" x2="425.858" y2="825.858"/>
  <text font-size="22.5774" style="fill: #000000;text-anchor:middle;font-family:sans-serif;font-style:normal;font-weight:normal" x="140" y="867.825">
    <tspan x="140" y="867.825">u</tspan>
  </text>
  <text font-size="22.5774" style="fill: #000000;text-anchor:middle;font-family:sans-serif;font-style:normal;font-weight:normal" x="260" y="867.825">
    <tspan x="260" y="867.825">v</tspan>
  </text>
  <text font-size="22.5774" style="fill: #000000;text-anchor:middle;font-family:sans-serif;font-style:normal;font-weight:normal" x="440" y="927.825">
    <tspan x="440" y="927.825">w</tspan>
  </text>
  <line style="fill: none; fill-opacity:0; stroke-width: 2; stroke: #000000" x1="80" y1="840" x2="320" y2="840"/>
  <g>
    <ellipse style="fill: #ffffff" cx="440" cy="840" rx="20" ry="20"/>
    <ellipse style="fill: none; fill-opacity:0; stroke-width: 2; stroke: #000000" cx="440" cy="840" rx="20" ry="20"/>
  </g>
  <text font-size="22.5774" style="fill: #000000;text-anchor:middle;font-family:sans-serif;font-style:normal;font-weight:normal" x="440" y="847.825">
    <tspan x="440" y="847.825">R</tspan>
  </text>
  <line style="fill: none; fill-opacity:0; stroke-width: 2; stroke: #000000" x1="454.142" y1="854.142" x2="500" y2="900"/>
  <line style="fill: none; fill-opacity:0; stroke-width: 2; stroke: #000000" x1="425.161" y1="854.839" x2="380" y2="900"/>
  <line style="fill: none; fill-opacity:0; stroke-width: 2; stroke: #000000" x1="260" y1="900" x2="500" y2="900"/>
  <text font-size="22.5774" style="fill: #000000;text-anchor:middle;font-family:sans-serif;font-style:normal;font-weight:normal" x="320" y="927.496">
    <tspan x="320" y="927.496">v</tspan>
  </text>
</svg>
