<?xml version="1.0" encoding="UTF-8" standalone="no"?>
<!-- Created with Inkscape (http://www.inkscape.org/) -->

<svg
   xmlns:dc="http://purl.org/dc/elements/1.1/"
   xmlns:cc="http://creativecommons.org/ns#"
   xmlns:rdf="http://www.w3.org/1999/02/22-rdf-syntax-ns#"
   xmlns:svg="http://www.w3.org/2000/svg"
   xmlns="http://www.w3.org/2000/svg"
   xmlns:sodipodi="http://sodipodi.sourceforge.net/DTD/sodipodi-0.dtd"
   xmlns:inkscape="http://www.inkscape.org/namespaces/inkscape"
   id="svg2"
   version="1.1"
   inkscape:version="0.48.3.1 r9886"
   width="199.2403"
   height="453.32068"
   sodipodi:docname="akari.svg">
  <metadata
     id="metadata8">
    <rdf:RDF>
      <cc:Work
         rdf:about="">
        <dc:format>image/svg+xml</dc:format>
        <dc:type
           rdf:resource="http://purl.org/dc/dcmitype/StillImage" />
      </cc:Work>
    </rdf:RDF>
  </metadata>
  <defs
     id="defs6" />
  <sodipodi:namedview
     pagecolor="#000000"
     bordercolor="#666666"
     borderopacity="1"
     objecttolerance="10"
     gridtolerance="10"
     guidetolerance="10"
     inkscape:pageopacity="0"
     inkscape:pageshadow="2"
     inkscape:window-width="1215"
     inkscape:window-height="776"
     id="namedview4"
     showgrid="false"
     fit-margin-top="0"
     fit-margin-left="0"
     fit-margin-right="0"
     fit-margin-bottom="0"
     inkscape:zoom="1.3169485"
     inkscape:cx="99.620148"
     inkscape:cy="257.03357"
     inkscape:window-x="65"
     inkscape:window-y="24"
     inkscape:window-maximized="1"
     inkscape:current-layer="svg2" />
  <path
     style="fill:#000000"
     d="M 0,120.5 0,21 l 99.5,0 99.5,0 0,99.5 0,99.49999 -99.5,0 -99.5,0 L 0,120.5 z"
     id="path3620"
     inkscape:connector-curvature="0" />
  <path
     style="fill:#ffffff"
     d="m 29,203.99999 0,-13 -13,0 -13,0 0,13 0,13 13,0 13,0 0,-13 z"
     id="path3618"
     inkscape:connector-curvature="0" />
  <path
     style="fill:#ffffff"
     d="m 141,203.99999 0,-13 -13.5,0 -13.5,0 0,13 0,13 13.5,0 13.5,0 0,-13 z"
     id="path3616"
     inkscape:connector-curvature="0" />
  <path
     style="fill:#ffffff"
     d="m 169,203.99999 0,-13 -13.5,0 -13.5,0 0,13 0,13 13.5,0 13.5,0 0,-13 z"
     id="path3614"
     inkscape:connector-curvature="0" />
  <path
     style="fill:#ffffff"
     d="m 196,203.99999 0,-13 -13,0 -13,0 0,13 0,13 13,0 13,0 0,-13 z"
     id="path3612"
     inkscape:connector-curvature="0" />
  <path
     style="fill:#ffffff"
     d="M 29,176.49999 29,163 l -13,0 -13,0 0,13.49999 0,13.5 13,0 13,0 0,-13.5 z"
     id="path3610"
     inkscape:connector-curvature="0" />
  <path
     style="fill:#ffffff"
     d="M 57,176.49999 57,163 l -13.5,0 -13.5,0 0,13.49999 0,13.5 13.5,0 13.5,0 0,-13.5 z"
     id="path3608"
     inkscape:connector-curvature="0" />
  <path
     style="fill:#ffffff"
     d="M 85,176.49999 85,163 l -13.5,0 -13.5,0 0,13.49999 0,13.5 13.5,0 13.5,0 0,-13.5 z"
     id="path3606"
     inkscape:connector-curvature="0" />
  <path
     style="fill:#ffffff"
     d="M 113,176.49999 113,163 l -13.5,0 -13.5,0 0,13.49999 0,13.5 13.5,0 13.5,0 0,-13.5 z"
     id="path3604"
     inkscape:connector-curvature="0" />
  <path
     style="fill:#ffffff"
     d="M 141,176.49999 141,163 l -13.5,0 -13.5,0 0,13.49999 0,13.5 13.5,0 13.5,0 0,-13.5 z"
     id="path3602"
     inkscape:connector-curvature="0" />
  <path
     style="fill:#ffffff"
     d="M 196,176.49999 196,163 l -13,0 -13,0 0,13.49999 0,13.5 13,0 13,0 0,-13.5 z"
     id="path3600"
     inkscape:connector-curvature="0" />
  <path
     style="fill:#ffffff"
     d="m 156.24027,182.26731 -4.25973,-0.38327 3.50973,-3.3101 c 3.71129,-3.5002 4.45141,-6.54754 2.0702,-8.52376 -1.81626,-1.50737 -6.76356,-0.98432 -7.34216,0.77624 -0.35351,1.07563 -0.0623,1.09306 1.54042,0.0922 2.47569,-1.5461 5.24127,-0.56791 5.24127,1.85384 0,1.00937 -1.575,3.36177 -3.5,5.22755 -1.925,1.86578 -3.5,3.75406 -3.5,4.19617 0,0.44211 2.3625,0.72521 5.25,0.62912 5.03405,-0.16752 5.07479,-0.19047 0.99027,-0.55797 z"
     id="path3598"
     inkscape:connector-curvature="0" />
  <path
     style="fill:#ffffff"
     d="m 29,148.5 0,-13.5 -13,0 -13,0 0,13.5 0,13.5 13,0 13,0 0,-13.5 z"
     id="path3596"
     inkscape:connector-curvature="0" />
  <path
     style="fill:#ffffff"
     d="m 85,148.5 0,-13.5 -13.5,0 -13.5,0 0,13.5 0,13.5 13.5,0 13.5,0 0,-13.5 z"
     id="path3594"
     inkscape:connector-curvature="0" />
  <path
     style="fill:#ffffff"
     d="m 141,148.5 0,-13.5 -13.5,0 -13.5,0 0,13.5 0,13.5 13.5,0 13.5,0 0,-13.5 z"
     id="path3592"
     inkscape:connector-curvature="0" />
  <path
     style="fill:#ffffff"
     d="m 169,148.5 0,-13.5 -13.5,0 -13.5,0 0,13.5 0,13.5 13.5,0 13.5,0 0,-13.5 z"
     id="path3590"
     inkscape:connector-curvature="0" />
  <path
     style="fill:#ffffff"
     d="M 45.75,154.31067 C 44.312308,153.93497 44,152.70643 44,147.42668 44,143.80889 43.562932,141 43,141 c -0.55,0 -1,0.45 -1,1 0,0.55 -0.7875,1.0522 -1.75,1.116 -1.666667,0.11048 -1.666667,0.13778 0,0.57333 1.363464,0.35631 1.75,1.52932 1.75,5.31067 0,3.78135 -0.386536,4.95436 -1.75,5.31067 -0.9625,0.25153 0.275,0.45733 2.75,0.45733 2.475,0 3.7125,-0.2058 2.75,-0.45733 z"
     id="path3588"
     inkscape:connector-curvature="0" />
  <path
     style="fill:#ffffff"
     d="m 102.06574,153.96482 c 2.30658,-1.23445 2.56272,-4.78643 0.40487,-5.61447 -1.32132,-0.50704 -1.28731,-0.7669 0.25,-1.91005 1.40991,-1.04842 1.54912,-1.6987 0.6704,-3.13173 -1.41791,-2.31238 -8.479627,-2.54871 -9.220298,-0.30857 -0.418982,1.2672 -0.246457,1.29408 1.111625,0.17324 2.171382,-1.79208 6.115783,-1.10039 6.544423,1.14764 0.23134,1.21329 -0.408,2.01836 -1.91605,2.41272 l -2.263231,0.59185 2.246621,0.83108 c 1.58802,0.58744 2.15271,1.49249 1.92626,3.08727 -0.36937,2.60138 -4.096929,3.60148 -6.375402,1.71052 -1.409991,-1.17019 -2.101769,0.0555 -0.778291,1.37901 1.008424,1.00843 5.217993,0.79877 7.399073,-0.36851 z"
     id="path3586"
     inkscape:connector-curvature="0" />
  <path
     style="fill:#ffffff"
     d="m 184.24027,154.26732 -4.25973,-0.38327 3.50973,-3.3101 c 3.71129,-3.5002 4.45141,-6.54754 2.0702,-8.52376 -1.81626,-1.50737 -6.76356,-0.98432 -7.34216,0.77624 -0.35351,1.07563 -0.0623,1.09306 1.54042,0.0922 2.47569,-1.5461 5.24127,-0.56791 5.24127,1.85384 0,1.00937 -1.575,3.36177 -3.5,5.22755 -1.925,1.86578 -3.5,3.75406 -3.5,4.19617 0,0.44211 2.3625,0.72521 5.25,0.62912 5.03405,-0.16752 5.07479,-0.19047 0.99027,-0.55797 z"
     id="path3584"
     inkscape:connector-curvature="0" />
  <path
     style="fill:#ffffff"
     d="m 29,120.5 0,-13.5 -13,0 -13,0 0,13.5 0,13.5 13,0 13,0 0,-13.5 z"
     id="path3582"
     inkscape:connector-curvature="0" />
  <path
     style="fill:#ffffff"
     d="m 85,120.5 0,-13.5 -13.5,0 -13.5,0 0,13.5 0,13.5 13.5,0 13.5,0 0,-13.5 z"
     id="path3580"
     inkscape:connector-curvature="0" />
  <path
     style="fill:#ffffff"
     d="m 113,120.5 0,-13.5 -13.5,0 -13.5,0 0,13.5 0,13.5 13.5,0 13.5,0 0,-13.5 z"
     id="path3578"
     inkscape:connector-curvature="0" />
  <path
     style="fill:#ffffff"
     d="m 141,120.5 0,-13.5 -13.5,0 -13.5,0 0,13.5 0,13.5 13.5,0 13.5,0 0,-13.5 z"
     id="path3576"
     inkscape:connector-curvature="0" />
  <path
     style="fill:#ffffff"
     d="m 196,120.5 0,-13.5 -13,0 -13,0 0,13.5 0,13.5 13,0 13,0 0,-13.5 z"
     id="path3574"
     inkscape:connector-curvature="0" />
  <path
     style="fill:#ffffff"
     d="M 57,92.5 57,79 43.5,79 30,79 l 0,13.5 0,13.5 13.5,0 13.5,0 0,-13.5 z"
     id="path3572"
     inkscape:connector-curvature="0" />
  <path
     style="fill:#ffffff"
     d="M 85,92.5 85,79 71.5,79 58,79 l 0,13.5 0,13.5 13.5,0 13.5,0 0,-13.5 z"
     id="path3570"
     inkscape:connector-curvature="0" />
  <path
     style="fill:#ffffff"
     d="m 141,92.5 0,-13.5 -13.5,0 -13.5,0 0,13.5 0,13.5 13.5,0 13.5,0 0,-13.5 z"
     id="path3568"
     inkscape:connector-curvature="0" />
  <path
     style="fill:#ffffff"
     d="m 196,92.5 0,-13.5 -13,0 -13,0 0,13.5 0,13.5 13,0 13,0 0,-13.5 z"
     id="path3566"
     inkscape:connector-curvature="0" />
  <path
     style="fill:#ffffff"
     d="M 17.75,98.310674 C 16.312308,97.934966 16,96.706435 16,91.426676 16,87.808892 15.562932,85 15,85 c -0.55,0 -1,0.45 -1,1 0,0.55 -0.7875,1.052201 -1.75,1.116001 -1.66667,0.110478 -1.66667,0.137779 0,0.573325 C 13.613464,88.045636 14,89.218645 14,93 c 0,3.781355 -0.386536,4.954364 -1.75,5.310674 -0.9625,0.251528 0.275,0.457323 2.75,0.457323 2.475,0 3.7125,-0.205795 2.75,-0.457323 z"
     id="path3564"
     inkscape:connector-curvature="0" />
  <path
     style="fill:#ffffff"
     d="M 158.42857,97.428571 C 159.31393,96.54321 160,94.17316 160,92 c 0,-4.17738 -2.01616,-7 -5,-7 -2.98384,0 -5,2.82262 -5,7 0,4.17738 2.01616,7 5,7 1.02143,0 2.56429,-0.707143 3.42857,-1.571429 z"
     id="path3562"
     inkscape:connector-curvature="0" />
  <path
     style="fill:#000000"
     d="M 152.60699,96.418213 C 152.27314,95.548229 152,93.560034 152,92 c 0,-4.084177 0.95791,-6 3,-6 2.04209,0 3,1.915823 3,6 0,4.084177 -0.95791,6 -3,6 -0.98231,0 -2.05917,-0.711804 -2.39301,-1.581787 z"
     id="path3560"
     inkscape:connector-curvature="0" />
  <path
     style="fill:#ffffff"
     d="M 29,64.5 29,51 16,51 3,51 3,64.5 3,78 l 13,0 13,0 0,-13.5 z"
     id="path3558"
     inkscape:connector-curvature="0" />
  <path
     style="fill:#ffffff"
     d="M 85,64.5 85,51 71.5,51 58,51 58,64.5 58,78 71.5,78 85,78 85,64.5 z"
     id="path3556"
     inkscape:connector-curvature="0" />
  <path
     style="fill:#ffffff"
     d="M 113,64.5 113,51 99.5,51 86,51 l 0,13.5 0,13.5 13.5,0 13.5,0 0,-13.5 z"
     id="path3554"
     inkscape:connector-curvature="0" />
  <path
     style="fill:#ffffff"
     d="m 141,64.5 0,-13.5 -13.5,0 -13.5,0 0,13.5 0,13.5 13.5,0 13.5,0 0,-13.5 z"
     id="path3552"
     inkscape:connector-curvature="0" />
  <path
     style="fill:#ffffff"
     d="m 169,64.5 0,-13.5 -13.5,0 -13.5,0 0,13.5 0,13.5 13.5,0 13.5,0 0,-13.5 z"
     id="path3550"
     inkscape:connector-curvature="0" />
  <path
     style="fill:#ffffff"
     d="m 196,64.5 0,-13.5 -13,0 -13,0 0,13.5 0,13.5 13,0 13,0 0,-13.5 z"
     id="path3548"
     inkscape:connector-curvature="0" />
  <path
     style="fill:#ffffff"
     d="m 29,37 0,-13 -13,0 -13,0 0,13 0,13 13,0 13,0 0,-13 z"
     id="path3546"
     inkscape:connector-curvature="0" />
  <path
     style="fill:#ffffff"
     d="M 57,37 57,24 43.5,24 30,24 30,37 30,50 43.5,50 57,50 57,37 z"
     id="path3544"
     inkscape:connector-curvature="0" />
  <path
     style="fill:#ffffff"
     d="M 85,37 85,24 71.5,24 58,24 58,37 58,50 71.5,50 85,50 85,37 z"
     id="path3542"
     inkscape:connector-curvature="0" />
  <path
     style="fill:#ffffff"
     d="m 196,37 0,-13 -13,0 -13,0 0,13 0,13 13,0 13,0 0,-13 z"
     id="path3540"
     inkscape:connector-curvature="0" />
  <path
     style="fill:#ffffff"
     d="M 157.75,42.310674 C 156.31231,41.934966 156,40.706435 156,35.426676 156,31.808892 155.56293,29 155,29 c -0.55,0 -1,0.45 -1,1 0,0.55 -0.7875,1.052201 -1.75,1.116001 -1.66667,0.110478 -1.66667,0.137779 0,0.573325 1.36346,0.35631 1.75,1.529319 1.75,5.310674 0,3.781355 -0.38654,4.954364 -1.75,5.310674 -0.9625,0.251528 0.275,0.457323 2.75,0.457323 2.475,0 3.7125,-0.205795 2.75,-0.457323 z"
     id="path3538"
     inkscape:connector-curvature="0" />
  <path
     style="fill:#000000"
     d="m 0.2403,353.8207 0,-99.5 99.499996,0 99.500004,0 0,99.5 0,99.49999 -99.500004,0 -99.499996,0 0,-99.49999 z"
     id="path3536"
     inkscape:connector-curvature="0" />
  <path
     style="fill:#ffffff"
     d="m 29.240296,437.32069 0,-13 -6.5,0 c -7.27362,0 -8.2522,0.96463 -2.9307,2.8889 3.86713,1.39837 7.42083,6.14054 7.42696,9.91076 0.009,5.71658 -5.61935,11.20034 -11.49626,11.20034 -5.876906,0 -11.505546,-5.48376 -11.496256,-11.20034 0.006,-3.50313 3.39495,-8.30795 6.87799,-9.75067 4.657676,-1.92927 3.783006,-3.04899 -2.38173,-3.04899 l -5.5,0 0,13 0,13 12.999996,0 13,0 0,-13 z"
     id="path3534"
     inkscape:connector-curvature="0" />
  <path
     style="fill:#ffffff"
     d="m 141.2403,444.32069 c 0,-6.62612 -1.07655,-7.64361 -3.04899,-2.88173 -1.51882,3.66675 -6.29684,6.87271 -10.25067,6.87799 -6.06601,0.008 -11.70604,-5.39082 -11.6966,-11.19659 0.006,-3.50313 3.39495,-8.30796 6.87799,-9.75068 4.76188,-1.97244 3.74439,-3.04899 -2.88173,-3.04899 l -6,0 0,13 0,13 13.5,0 13.5,0 0,-6 z"
     id="path3532"
     inkscape:connector-curvature="0" />
  <path
     style="fill:#ffffff"
     d="m 169.2403,444.32069 0,-6 -13.5,0 -13.5,0 0,6 0,6 13.5,0 13.5,0 0,-6 z"
     id="path3530"
     inkscape:connector-curvature="0" />
  <path
     style="fill:#ffffff"
     d="m 196.2403,437.32069 0,-13 -6,0 -6,0 0,6 0,6 5.5,0 c 3.025,0 5.5,0.45 5.5,1 0,0.55 -2.475,1 -5.5,1 l -5.5,0 0,5.5 c 0,3.025 -0.45,5.5 -1,5.5 -0.55,0 -1,-2.475 -1,-5.5 l 0,-5.5 -6,0 -6,0 0,6 0,6 13,0 13,0 0,-13 z"
     id="path3528"
     inkscape:connector-curvature="0" />
  <path
     style="fill:#ffffff"
     d="m 22.317216,444.39761 c 6.22395,-6.22395 2.04409,-17.07692 -6.57692,-17.07692 -2.70513,0 -4.412816,0.75897 -6.576916,2.92309 -6.22395,6.22395 -2.04409,17.07691 6.576916,17.07691 2.70513,0 4.41282,-0.75896 6.57692,-2.92308 z"
     id="path3526"
     inkscape:connector-curvature="0" />
  <path
     style="fill:#ffffff"
     d="m 134.31722,444.39761 c 6.22395,-6.22395 2.04409,-17.07692 -6.57692,-17.07692 -2.70513,0 -4.41282,0.75897 -6.57692,2.92309 -6.22395,6.22395 -2.04409,17.07691 6.57692,17.07691 2.70513,0 4.41282,-0.75896 6.57692,-2.92308 z"
     id="path3524"
     inkscape:connector-curvature="0" />
  <path
     style="fill:#ffffff"
     d="m 141.2403,430.32069 0,-6 -6.5,0 c -3.575,0 -6.49542,0.3375 -6.48983,0.75 0.006,0.41251 1.79473,1.49944 3.97585,2.41542 2.7469,1.15359 4.49101,2.76708 5.67504,5.25 0.94015,1.97152 2.07602,3.58458 2.52415,3.58458 0.44814,0 0.81479,-2.7 0.81479,-6 z"
     id="path3522"
     inkscape:connector-curvature="0" />
  <path
     style="fill:#ffffff"
     d="m 169.2403,430.32069 0,-6 -13.5,0 -13.5,0 0,6 0,6 13.5,0 13.5,0 0,-6 z"
     id="path3520"
     inkscape:connector-curvature="0" />
  <path
     style="fill:#ffffff"
     d="m 182.2403,430.32069 0,-6 -6,0 -6,0 0,6 0,6 6,0 6,0 0,-6 z"
     id="path3518"
     inkscape:connector-curvature="0" />
  <path
     style="fill:#ffffff"
     d="m 14.240296,416.82069 0,-6.5 -4.999996,0 c -2.75,0 -5,-0.45 -5,-1 0,-0.55 2.25,-1 5,-1 l 4.999996,0 0,-6 0,-5.99999 -5.499996,0 -5.5,0 0,13.49999 0,13.5 5.5,0 5.499996,0 0,-6.5 z"
     id="path3516"
     inkscape:connector-curvature="0" />
  <path
     style="fill:#ffffff"
     d="m 29.240296,416.82069 0,-6.5 -6.5,0 -6.5,0 0,6.5 0,6.5 6.5,0 6.5,0 0,-6.5 z"
     id="path3514"
     inkscape:connector-curvature="0" />
  <path
     style="fill:#ffffff"
     d="m 57.240296,416.82069 0,-6.5 -13.5,0 -13.5,0 0,6.5 0,6.5 13.5,0 13.5,0 0,-6.5 z"
     id="path3512"
     inkscape:connector-curvature="0" />
  <path
     style="fill:#ffffff"
     d="m 85.240296,416.82069 0,-6.5 -6.5,0 -6.5,0 0,6 c 0,3.33333 -0.44444,6 -1,6 -0.55556,0 -1,-2.66667 -1,-6 l 0,-6 -6,0 -6,0 0,6.5 0,6.5 13.5,0 13.5,0 0,-6.5 z"
     id="path3510"
     inkscape:connector-curvature="0" />
  <path
     style="fill:#ffffff"
     d="m 113.2403,416.82069 c 0,-7.08888 -1.03701,-8.23907 -3.04899,-3.38173 -1.54766,3.73638 -6.3182,6.87426 -10.451014,6.87426 -4.13281,0 -8.90335,-3.13788 -10.45101,-6.87426 -2.01198,-4.85734 -3.04899,-3.70715 -3.04899,3.38173 l 0,6.5 13.5,0 13.500004,0 0,-6.5 z"
     id="path3508"
     inkscape:connector-curvature="0" />
  <path
     style="fill:#ffffff"
     d="m 126.2403,416.82069 0,-6.5 -6,0 -6,0 0,6.5 0,6.5 6,0 6,0 0,-6.5 z"
     id="path3506"
     inkscape:connector-curvature="0" />
  <path
     style="fill:#ffffff"
     d="m 141.2403,409.82069 0,-13.49999 -6.5,0 -6.5,0 0,5.99999 0,6 6,0 c 3.33333,0 6,0.44444 6,1 0,0.55557 -2.66667,1 -6,1 l -6,0 0,6.5 0,6.5 6.5,0 6.5,0 0,-13.5 z"
     id="path3504"
     inkscape:connector-curvature="0" />
  <path
     style="fill:#ffffff"
     d="m 182.2403,421.94201 c 0,-0.75827 -1.40322,-1.95991 -3.11827,-2.67031 -3.48304,-1.44272 -6.8723,-6.24754 -6.87799,-9.75067 -0.009,-5.71658 5.61935,-11.20034 11.49626,-11.20034 5.87691,0 11.50555,5.48377 11.49626,11.20034 -0.006,3.77022 -3.55983,8.51239 -7.42696,9.91076 -5.69544,2.0595 -4.552,3.8889 2.4307,3.8889 l 6,0 0,-13.5 0,-13.49999 -13,0 -13,0 0,13.49999 0,13.5 6,0 c 4.43201,0 6,-0.36029 6,-1.37868 z"
     id="path3502"
     inkscape:connector-curvature="0" />
  <path
     style="fill:#ffffff"
     d="m 106.31722,416.39761 c 6.22395,-6.22395 2.04409,-17.07692 -6.576924,-17.07692 -2.70513,0 -4.41282,0.75897 -6.57692,2.92309 -6.22395,6.22395 -2.04409,17.07691 6.57692,17.07691 2.705134,0 4.412824,-0.75896 6.576924,-2.92308 z"
     id="path3500"
     inkscape:connector-curvature="0" />
  <path
     style="fill:#ffffff"
     d="m 190.31722,416.39761 c 6.22395,-6.22395 2.04409,-17.07692 -6.57692,-17.07692 -2.70513,0 -4.41282,0.75897 -6.57692,2.92309 -6.22395,6.22395 -2.04409,17.07691 6.57692,17.07691 2.70513,0 4.41282,-0.75896 6.57692,-2.92308 z"
     id="path3498"
     inkscape:connector-curvature="0" />
  <path
     style="fill:#ffffff"
     d="m 156.48057,415.58801 -4.25973,-0.38327 3.50973,-3.31009 c 3.71129,-3.5002 4.45141,-6.54755 2.0702,-8.52376 -1.81626,-1.50737 -6.76356,-0.98432 -7.34216,0.77624 -0.35351,1.07562 -0.0623,1.09305 1.54042,0.0922 2.47569,-1.5461 5.24127,-0.5679 5.24127,1.85384 0,1.00937 -1.575,3.36177 -3.5,5.22755 -1.925,1.86578 -3.5,3.75406 -3.5,4.19617 0,0.44212 2.3625,0.72521 5.25,0.62912 5.03405,-0.16752 5.07479,-0.19047 0.99027,-0.55797 z"
     id="path3496"
     inkscape:connector-curvature="0" />
  <path
     style="fill:#ffffff"
     d="m 29.240296,402.32069 0,-5.99999 -6.5,0 -6.5,0 0,5.99999 0,6 6.5,0 6.5,0 0,-6 z"
     id="path3494"
     inkscape:connector-curvature="0" />
  <path
     style="fill:#ffffff"
     d="m 57.240296,402.32069 0,-5.99999 -13.5,0 -13.5,0 0,5.99999 0,6 13.5,0 13.5,0 0,-6 z"
     id="path3492"
     inkscape:connector-curvature="0" />
  <path
     style="fill:#ffffff"
     d="m 70.240296,402.32069 0,-5.99999 -6,0 -6,0 0,5.99999 0,6 6,0 6,0 0,-6 z"
     id="path3490"
     inkscape:connector-curvature="0" />
  <path
     style="fill:#ffffff"
     d="m 85.240296,402.32069 0,-5.99999 -6.5,0 -6.5,0 0,5.99999 0,6 6.5,0 6.5,0 0,-6 z"
     id="path3488"
     inkscape:connector-curvature="0" />
  <path
     style="fill:#ffffff"
     d="m 89.289286,405.20242 c 1.54766,-3.73638 6.3182,-6.87425 10.45101,-6.87425 4.132814,0 8.903354,3.13787 10.451014,6.87425 1.97244,4.76189 3.04899,3.7444 3.04899,-2.88173 l 0,-5.99999 -13.500004,0 -13.5,0 0,5.99999 c 0,6.62613 1.07655,7.64362 3.04899,2.88173 z"
     id="path3486"
     inkscape:connector-curvature="0" />
  <path
     style="fill:#ffffff"
     d="m 126.2403,402.32069 0,-5.99999 -6,0 -6,0 0,5.99999 0,6 6,0 6,0 0,-6 z"
     id="path3484"
     inkscape:connector-curvature="0" />
  <path
     style="fill:#ffffff"
     d="m 14.240296,381.8207 0,-13.5 -5.499996,0 -5.5,0 0,13.5 0,13.5 5.5,0 5.499996,0 0,-13.5 z"
     id="path3482"
     inkscape:connector-curvature="0" />
  <path
     style="fill:#ffffff"
     d="m 29.240296,381.8207 0,-13.5 -6.5,0 -6.5,0 0,13.5 0,13.5 6.5,0 6.5,0 0,-13.5 z"
     id="path3480"
     inkscape:connector-curvature="0" />
  <path
     style="fill:#ffffff"
     d="m 70.240296,393.94202 c 0,-0.75826 -1.40322,-1.9599 -3.11827,-2.6703 -3.56144,-1.4752 -6.87425,-6.27074 -6.87425,-9.95101 0,-3.68027 3.31281,-8.47582 6.87425,-9.95101 4.76188,-1.97244 3.74439,-3.04899 -2.88173,-3.04899 l -6,0 0,13.5 0,13.5 6,0 c 4.43201,0 6,-0.3603 6,-1.37868 z"
     id="path3478"
     inkscape:connector-curvature="0" />
  <path
     style="fill:#ffffff"
     d="m 85.240296,381.8207 0,-13.5 -6.5,0 c -7.27362,0 -8.2522,0.96462 -2.9307,2.8889 3.94715,1.42731 7.42322,6.16204 7.42322,10.1111 0,3.94906 -3.47607,8.68379 -7.42322,10.1111 -5.86428,2.12055 -4.53164,3.8889 2.9307,3.8889 l 6.5,0 0,-13.5 z"
     id="path3476"
     inkscape:connector-curvature="0" />
  <path
     style="fill:#ffffff"
     d="m 126.2403,388.8207 0,-6.5 -5.5,0 c -3.025,0 -5.5,-0.45 -5.5,-1 0,-0.55 2.475,-1 5.5,-1 l 5.5,0 0,-6 0,-6 -6,0 -6,0 0,13.5 0,13.5 6,0 6,0 0,-6.5 z"
     id="path3474"
     inkscape:connector-curvature="0" />
  <path
     style="fill:#ffffff"
     d="m 141.2403,388.8207 0,-6.5 -6.5,0 -6.5,0 0,6.5 0,6.5 6.5,0 6.5,0 0,-6.5 z"
     id="path3472"
     inkscape:connector-curvature="0" />
  <path
     style="fill:#ffffff"
     d="m 169.2403,381.8207 0,-13.5 -13.5,0 -13.5,0 0,6 c 0,6.62612 1.07655,7.64361 3.04899,2.88173 1.51882,-3.66675 6.29684,-6.87271 10.25067,-6.87799 5.96828,-0.008 11.70034,5.37915 11.70034,10.99626 0,5.61711 -5.73206,11.00423 -11.70034,10.99626 -3.95383,-0.005 -8.73185,-3.21124 -10.25067,-6.87799 -2.01198,-4.85734 -3.04899,-3.70715 -3.04899,3.38173 l 0,6.5 13.5,0 13.5,0 0,-13.5 z"
     id="path3470"
     inkscape:connector-curvature="0" />
  <path
     style="fill:#ffffff"
     d="m 78.317216,388.39762 c 6.22395,-6.22395 2.04409,-17.07692 -6.57692,-17.07692 -2.70513,0 -4.41282,0.75897 -6.57692,2.92308 -6.22395,6.22395 -2.04409,17.07692 6.57692,17.07692 2.70513,0 4.41282,-0.75897 6.57692,-2.92308 z"
     id="path3468"
     inkscape:connector-curvature="0" />
  <path
     style="fill:#ffffff"
     d="m 162.31722,388.39762 c 6.22395,-6.22395 2.04409,-17.07692 -6.57692,-17.07692 -2.70513,0 -4.41282,0.75897 -6.57692,2.92308 -6.22395,6.22395 -2.04409,17.07692 6.57692,17.07692 2.70513,0 4.41282,-0.75897 6.57692,-2.92308 z"
     id="path3466"
     inkscape:connector-curvature="0" />
  <path
     style="fill:#ffffff"
     d="m 45.990296,387.63137 c -1.43769,-0.3757 -1.75,-1.60424 -1.75,-6.88399 0,-3.61779 -0.43707,-6.42667 -1,-6.42667 -0.55,0 -1,0.45 -1,1 0,0.55 -0.7875,1.0522 -1.75,1.116 -1.66667,0.11048 -1.66667,0.13778 0,0.57333 1.36346,0.35631 1.75,1.52931 1.75,5.31067 0,3.78134 -0.38654,4.95436 -1.75,5.31067 -0.9625,0.25153 0.275,0.45733 2.75,0.45733 2.475,0 3.7125,-0.2058 2.75,-0.45733 z"
     id="path3464"
     inkscape:connector-curvature="0" />
  <path
     style="fill:#ffffff"
     d="m 102.30604,387.28552 c 2.30658,-1.23444 2.56272,-4.78643 0.40487,-5.61446 -1.32132,-0.50705 -1.28731,-0.76691 0.25,-1.91006 1.40991,-1.04842 1.54912,-1.69869 0.6704,-3.13173 -1.41791,-2.31238 -8.479634,-2.54871 -9.220304,-0.30856 -0.41898,1.2672 -0.24645,1.29408 1.11163,0.17324 2.17138,-1.79208 6.115784,-1.10039 6.544424,1.14764 0.23134,1.21329 -0.408,2.01836 -1.91605,2.41272 l -2.263234,0.59185 2.246624,0.83108 c 1.58802,0.58744 2.15271,1.49249 1.92626,3.08727 -0.36937,2.60138 -4.096934,3.60148 -6.375404,1.71052 -1.40999,-1.17019 -2.10177,0.0555 -0.77829,1.37901 1.00842,1.00842 5.217994,0.79876 7.399074,-0.36852 z"
     id="path3462"
     inkscape:connector-curvature="0" />
  <path
     style="fill:#ffffff"
     d="m 184.48057,387.58802 -4.25973,-0.38327 3.50973,-3.3101 c 3.71129,-3.5002 4.45141,-6.54754 2.0702,-8.52375 -1.81626,-1.50737 -6.76356,-0.98433 -7.34216,0.77623 -0.35351,1.07563 -0.0623,1.09306 1.54042,0.0922 2.47569,-1.5461 5.24127,-0.56791 5.24127,1.85384 0,1.00937 -1.575,3.36177 -3.5,5.22755 -1.925,1.86578 -3.5,3.75406 -3.5,4.19617 0,0.44211 2.3625,0.72521 5.25,0.62912 5.03405,-0.16752 5.07479,-0.19047 0.99027,-0.55797 z"
     id="path3460"
     inkscape:connector-curvature="0" />
  <path
     style="fill:#ffffff"
     d="m 141.2403,374.3207 0,-6 -6.5,0 -6.5,0 0,6 0,6 6.5,0 6.5,0 0,-6 z"
     id="path3458"
     inkscape:connector-curvature="0" />
  <path
     style="fill:#ffffff"
     d="m 14.240296,354.3207 c 0,-8 0.38462,-13 1,-13 0.61538,0 1,5 1,13 l 0,13 6.5,0 6.5,0 0,-13.5 0,-13.5 -13,0 -12.999996,0 0,13.5 0,13.5 5.5,0 5.499996,0 0,-13 z"
     id="path3456"
     inkscape:connector-curvature="0" />
  <path
     style="fill:#ffffff"
     d="m 70.240296,360.8207 0,-6.5 -5.5,0 c -3.025,0 -5.5,-0.45 -5.5,-1 0,-0.55 2.475,-1 5.5,-1 l 5.5,0 0,-6 0,-6 -6,0 -6,0 0,13.5 0,13.5 6,0 6,0 0,-6.5 z"
     id="path3454"
     inkscape:connector-curvature="0" />
  <path
     style="fill:#ffffff"
     d="m 85.240296,360.8207 0,-6.5 -6.5,0 -6.5,0 0,6.5 0,6.5 6.5,0 6.5,0 0,-6.5 z"
     id="path3452"
     inkscape:connector-curvature="0" />
  <path
     style="fill:#ffffff"
     d="m 113.2403,360.8207 c 0,-7.08888 -1.03701,-8.23907 -3.04899,-3.38173 -1.54766,3.73638 -6.3182,6.87425 -10.451014,6.87425 -4.13281,0 -8.90335,-3.13787 -10.45101,-6.87425 -2.01198,-4.85734 -3.04899,-3.70715 -3.04899,3.38173 l 0,6.5 13.5,0 13.500004,0 0,-6.5 z"
     id="path3450"
     inkscape:connector-curvature="0" />
  <path
     style="fill:#ffffff"
     d="m 126.2403,360.8207 0,-6.5 -6,0 -6,0 0,6.5 0,6.5 6,0 6,0 0,-6.5 z"
     id="path3448"
     inkscape:connector-curvature="0" />
  <path
     style="fill:#ffffff"
     d="m 141.2403,353.8207 0,-13.5 -6.5,0 -6.5,0 0,6 0,6 6,0 c 3.33333,0 6,0.44444 6,1 0,0.55556 -2.66667,1 -6,1 l -6,0 0,6.5 0,6.5 6.5,0 6.5,0 0,-13.5 z"
     id="path3446"
     inkscape:connector-curvature="0" />
  <path
     style="fill:#ffffff"
     d="m 196.2403,353.8207 0,-13.5 -6,0 -6,0 0,13 c 0,8 -0.38462,13 -1,13 -0.61538,0 -1,-5 -1,-13 l 0,-13 -6,0 -6,0 0,13.5 0,13.5 13,0 13,0 0,-13.5 z"
     id="path3444"
     inkscape:connector-curvature="0" />
  <path
     style="fill:#ffffff"
     d="m 106.31722,360.39762 c 6.22395,-6.22395 2.04409,-17.07692 -6.576924,-17.07692 -5.32194,0 -9.5,4.39795 -9.5,10 0,8.96348 9.853114,13.30074 16.076924,7.07692 z"
     id="path3442"
     inkscape:connector-curvature="0" />
  <path
     style="fill:#ffffff"
     d="m 85.240296,346.3207 0,-6 -6.5,0 -6.5,0 0,6 0,6 6.5,0 6.5,0 0,-6 z"
     id="path3440"
     inkscape:connector-curvature="0" />
  <path
     style="fill:#ffffff"
     d="m 89.289286,349.20243 c 1.54766,-3.73638 6.3182,-6.87425 10.45101,-6.87425 4.132814,0 8.903354,3.13787 10.451014,6.87425 1.97244,4.76188 3.04899,3.74439 3.04899,-2.88173 l 0,-6 -13.500004,0 -13.5,0 0,6 c 0,6.62612 1.07655,7.64361 3.04899,2.88173 z"
     id="path3438"
     inkscape:connector-curvature="0" />
  <path
     style="fill:#ffffff"
     d="m 126.2403,346.3207 0,-6 -6,0 -6,0 0,6 0,6 6,0 6,0 0,-6 z"
     id="path3436"
     inkscape:connector-curvature="0" />
  <path
     style="fill:#ffffff"
     d="m 57.240296,332.8207 c 0,-7.08889 -1.03701,-8.23907 -3.04899,-3.38173 -1.51882,3.66675 -6.29684,6.87271 -10.25067,6.87799 -5.96828,0.008 -11.70034,-5.37916 -11.70034,-10.99626 0,-5.61711 5.73206,-11.00423 11.70034,-10.99626 3.95383,0.005 8.73185,3.21123 10.25067,6.87799 1.97244,4.76188 3.04899,3.74438 3.04899,-2.88173 l 0,-6 -13.5,0 -13.5,0 0,13.5 0,13.5 13.5,0 13.5,0 0,-6.5 z"
     id="path3434"
     inkscape:connector-curvature="0" />
  <path
     style="fill:#ffffff"
     d="m 70.240296,332.8207 0,-6.5 -6,0 -6,0 0,6.5 0,6.5 6,0 6,0 0,-6.5 z"
     id="path3432"
     inkscape:connector-curvature="0" />
  <path
     style="fill:#ffffff"
     d="m 85.240296,325.8207 0,-13.5 -6.5,0 -6.5,0 0,6 0,6 6,0 c 3.33333,0 6,0.44444 6,1 0,0.55555 -2.66667,1 -6,1 l -6,0 0,6.5 0,6.5 6.5,0 6.5,0 0,-13.5 z"
     id="path3430"
     inkscape:connector-curvature="0" />
  <path
     style="fill:#ffffff"
     d="m 126.2403,325.8207 0,-13.5 -6,0 -6,0 0,13.5 0,13.5 6,0 6,0 0,-13.5 z"
     id="path3428"
     inkscape:connector-curvature="0" />
  <path
     style="fill:#ffffff"
     d="m 141.2403,325.8207 0,-13.5 -6.5,0 -6.5,0 0,13.5 0,13.5 6.5,0 6.5,0 0,-13.5 z"
     id="path3426"
     inkscape:connector-curvature="0" />
  <path
     style="fill:#ffffff"
     d="m 182.2403,325.8207 0,-13.5 -6,0 -6,0 0,13.5 0,13.5 6,0 6,0 0,-13.5 z"
     id="path3424"
     inkscape:connector-curvature="0" />
  <path
     style="fill:#ffffff"
     d="m 196.2403,325.8207 0,-13.5 -6,0 -6,0 0,13.5 0,13.5 6,0 6,0 0,-13.5 z"
     id="path3422"
     inkscape:connector-curvature="0" />
  <path
     style="fill:#ffffff"
     d="m 50.317216,332.39762 c 6.22395,-6.22395 2.04409,-17.07692 -6.57692,-17.07692 -5.32194,0 -9.5,4.39795 -9.5,10 0,8.96348 9.85311,13.30074 16.07692,7.07692 z"
     id="path3420"
     inkscape:connector-curvature="0" />
  <path
     style="fill:#ffffff"
     d="m 17.990296,331.63137 c -1.43769,-0.37571 -1.75,-1.60424 -1.75,-6.884 0,-3.61778 -0.43707,-6.42667 -1,-6.42667 -0.55,0 -1,0.45 -1,1 0,0.55 -0.7875,1.0522 -1.75,1.116 -1.666666,0.11048 -1.666666,0.13778 0,0.57332 1.36346,0.35631 1.75,1.52932 1.75,5.31068 0,3.78135 -0.38654,4.95436 -1.75,5.31067 -0.9625,0.25153 0.275,0.45732 2.75,0.45732 2.475,0 3.7125,-0.20579 2.75,-0.45732 z"
     id="path3418"
     inkscape:connector-curvature="0" />
  <path
     style="fill:#ffffff"
     d="m 158.66887,330.74927 c 0.88536,-0.88536 1.57143,-3.25541 1.57143,-5.42857 0,-4.17738 -2.01616,-7 -5,-7 -2.98384,0 -5,2.82262 -5,7 0,4.17738 2.01616,7 5,7 1.02143,0 2.56429,-0.70715 3.42857,-1.57143 z"
     id="path3416"
     inkscape:connector-curvature="0" />
  <path
     style="fill:#000000"
     d="m 152.84729,329.73891 c -0.33385,-0.86998 -0.60699,-2.85818 -0.60699,-4.41821 0,-4.08418 0.95791,-6 3,-6 2.04209,0 3,1.91582 3,6 0,4.08417 -0.95791,6 -3,6 -0.98231,0 -2.05917,-0.71181 -2.39301,-1.58179 z"
     id="path3414"
     inkscape:connector-curvature="0" />
  <path
     style="fill:#ffffff"
     d="m 70.240296,318.3207 0,-6 -6,0 -6,0 0,6 0,6 6,0 6,0 0,-6 z"
     id="path3412"
     inkscape:connector-curvature="0" />
  <path
     style="fill:#ffffff"
     d="m 29.240296,297.8207 0,-13.5 -6.5,0 -6.5,0 0,13 c 0,8 -0.38462,13 -1,13 -0.61538,0 -1,-5 -1,-13 l 0,-13 -5.499996,0 -5.5,0 0,13.5 0,13.5 12.999996,0 13,0 0,-13.5 z"
     id="path3410"
     inkscape:connector-curvature="0" />
  <path
     style="fill:#ffffff"
     d="m 70.240296,304.8207 0,-6.5 -5.5,0 c -3.025,0 -5.5,-0.45 -5.5,-1 0,-0.55 2.475,-1 5.5,-1 l 5.5,0 0,-6 0,-6 -6,0 -6,0 0,13.5 0,13.5 6,0 6,0 0,-6.5 z"
     id="path3408"
     inkscape:connector-curvature="0" />
  <path
     style="fill:#ffffff"
     d="m 85.240296,304.8207 0,-6.5 -6.5,0 -6.5,0 0,6.5 0,6.5 6.5,0 6.5,0 0,-6.5 z"
     id="path3406"
     inkscape:connector-curvature="0" />
  <path
     style="fill:#ffffff"
     d="m 113.2403,304.8207 c 0,-7.08889 -1.03701,-8.23907 -3.04899,-3.38173 -1.54766,3.73638 -6.3182,6.87425 -10.451014,6.87425 -4.13281,0 -8.90335,-3.13787 -10.45101,-6.87425 -2.01198,-4.85734 -3.04899,-3.70716 -3.04899,3.38173 l 0,6.5 13.5,0 13.500004,0 0,-6.5 z"
     id="path3404"
     inkscape:connector-curvature="0" />
  <path
     style="fill:#ffffff"
     d="m 126.2403,304.8207 0,-6.5 -6,0 -6,0 0,6.5 0,6.5 6,0 6,0 0,-6.5 z"
     id="path3402"
     inkscape:connector-curvature="0" />
  <path
     style="fill:#ffffff"
     d="m 141.2403,304.8207 0,-6.5 -6.5,0 -6.5,0 0,6.5 0,6.5 6.5,0 6.5,0 0,-6.5 z"
     id="path3400"
     inkscape:connector-curvature="0" />
  <path
     style="fill:#ffffff"
     d="m 169.2403,304.8207 0,-6.5 -13.5,0 -13.5,0 0,6.5 0,6.5 13.5,0 13.5,0 0,-6.5 z"
     id="path3398"
     inkscape:connector-curvature="0" />
  <path
     style="fill:#ffffff"
     d="m 182.2403,304.8207 0,-6.5 -6,0 -6,0 0,6.5 0,6.5 6,0 6,0 0,-6.5 z"
     id="path3396"
     inkscape:connector-curvature="0" />
  <path
     style="fill:#ffffff"
     d="m 196.2403,297.8207 0,-13.5 -6,0 -6,0 0,6 0,6 5.5,0 c 3.025,0 5.5,0.45 5.5,1 0,0.55 -2.475,1 -5.5,1 l -5.5,0 0,6.5 0,6.5 6,0 6,0 0,-13.5 z"
     id="path3394"
     inkscape:connector-curvature="0" />
  <path
     style="fill:#ffffff"
     d="m 106.31722,304.39762 c 6.22395,-6.22395 2.04409,-17.07692 -6.576924,-17.07692 -5.32194,0 -9.5,4.39795 -9.5,10 0,8.96348 9.853114,13.30073 16.076924,7.07692 z"
     id="path3392"
     inkscape:connector-curvature="0" />
  <path
     style="fill:#ffffff"
     d="m 85.240296,290.3207 0,-6 -6.5,0 -6.5,0 0,6 0,6 6.5,0 6.5,0 0,-6 z"
     id="path3390"
     inkscape:connector-curvature="0" />
  <path
     style="fill:#ffffff"
     d="m 89.289286,293.20243 c 1.54766,-3.73638 6.3182,-6.87426 10.45101,-6.87426 4.132814,0 8.903354,3.13788 10.451014,6.87426 1.97244,4.76188 3.04899,3.74439 3.04899,-2.88173 l 0,-6 -13.500004,0 -13.5,0 0,6 c 0,6.62612 1.07655,7.64361 3.04899,2.88173 z"
     id="path3388"
     inkscape:connector-curvature="0" />
  <path
     style="fill:#ffffff"
     d="m 126.2403,290.8207 c 0,-3.025 0.45,-5.5 1,-5.5 0.55,0 1,2.475 1,5.5 l 0,5.5 6.5,0 6.5,0 0,-6 0,-6 -13.5,0 -13.5,0 0,6 0,6 6,0 6,0 0,-5.5 z"
     id="path3386"
     inkscape:connector-curvature="0" />
  <path
     style="fill:#ffffff"
     d="m 169.2403,290.3207 0,-6 -13.5,0 -13.5,0 0,6 0,6 13.5,0 13.5,0 0,-6 z"
     id="path3384"
     inkscape:connector-curvature="0" />
  <path
     style="fill:#ffffff"
     d="m 182.2403,290.3207 0,-6 -6,0 -6,0 0,6 0,6 6,0 6,0 0,-6 z"
     id="path3382"
     inkscape:connector-curvature="0" />
  <path
     style="fill:#ffffff"
     d="m 14.240296,281.94202 c 0,-0.75828 -1.40322,-1.95992 -3.118266,-2.67031 -3.48304,-1.44273 -6.8723,-6.24753 -6.87799,-9.75067 -0.009,-5.80577 5.63059,-11.2047 11.696596,-11.1966 3.95383,0.005 8.73185,3.21123 10.25067,6.87799 1.92927,4.65768 3.04899,3.783 3.04899,-2.38173 l 0,-5.5 -13,0 -12.999996,0 0,13 0,13 5.5,0 c 4.007116,0 5.499996,-0.37422 5.499996,-1.37868 z"
     id="path3380"
     inkscape:connector-curvature="0" />
  <path
     style="fill:#ffffff"
     d="m 29.240296,276.8207 c 0,-3.575 -0.36665,-6.5 -0.81479,-6.5 -0.44813,0 -1.584,1.61306 -2.52415,3.58457 -1.18403,2.48293 -2.92814,4.09642 -5.67504,5.25 -6.09524,2.55976 -5.12616,4.16543 2.51398,4.16543 l 6.5,0 0,-6.5 z"
     id="path3378"
     inkscape:connector-curvature="0" />
  <path
     style="fill:#ffffff"
     d="m 57.240296,276.8207 0,-6.5 -13.5,0 -13.5,0 0,6.5 0,6.5 13.5,0 13.5,0 0,-6.5 z"
     id="path3376"
     inkscape:connector-curvature="0" />
  <path
     style="fill:#ffffff"
     d="m 70.240296,276.8207 0,-6.5 -6,0 -6,0 0,6.5 0,6.5 6,0 6,0 0,-6.5 z"
     id="path3374"
     inkscape:connector-curvature="0" />
  <path
     style="fill:#ffffff"
     d="m 85.240296,270.3207 0,-13 -13.5,0 -13.5,0 0,5.5 0,5.5 6,0 6,0 0,-5 c 0,-2.75 0.45,-5 1,-5 0.55,0 1,2.25 1,5 l 0,5 6,0 c 3.33333,0 6,0.44444 6,1 0,0.55556 -2.66667,1 -6,1 l -6,0 0,6.5 0,6.5 6.5,0 6.5,0 0,-13 z"
     id="path3372"
     inkscape:connector-curvature="0" />
  <path
     style="fill:#ffffff"
     d="m 182.2403,281.94202 c 0,-0.75828 -1.40322,-1.95992 -3.11827,-2.67031 -3.48304,-1.44273 -6.8723,-6.24753 -6.87799,-9.75067 -0.009,-5.71658 5.61935,-11.20034 11.49626,-11.20034 5.87691,0 11.50555,5.48376 11.49626,11.20034 -0.006,3.77022 -3.55983,8.51239 -7.42696,9.91076 -5.69544,2.0595 -4.552,3.8889 2.4307,3.8889 l 6,0 0,-13 0,-13 -13,0 -13,0 0,13 0,13 6,0 c 4.43201,0 6,-0.3603 6,-1.37868 z"
     id="path3370"
     inkscape:connector-curvature="0" />
  <path
     style="fill:#ffffff"
     d="m 22.317216,276.39762 c 2.2925,-2.2925 2.92308,-3.81916 2.92308,-7.07692 0,-8.96349 -9.85311,-13.30074 -16.076916,-7.07693 -6.22395,6.22396 -2.04409,17.07693 6.576916,17.07693 2.70513,0 4.41282,-0.75898 6.57692,-2.92308 z"
     id="path3368"
     inkscape:connector-curvature="0" />
  <path
     style="fill:#ffffff"
     d="m 190.31722,276.39762 c 2.2925,-2.2925 2.92308,-3.81916 2.92308,-7.07692 0,-8.96349 -9.85311,-13.30074 -16.07692,-7.07693 -6.22395,6.22396 -2.04409,17.07693 6.57692,17.07693 2.70513,0 4.41282,-0.75898 6.57692,-2.92308 z"
     id="path3366"
     inkscape:connector-curvature="0" />
  <path
     style="fill:#ffffff"
     d="m 157.9903,275.63137 c -1.43769,-0.3757 -1.75,-1.60424 -1.75,-6.884 0,-3.61778 -0.43707,-6.42667 -1,-6.42667 -0.55,0 -1,0.45 -1,1 0,0.55 -0.7875,1.0522 -1.75,1.116 -1.66667,0.11049 -1.66667,0.13778 0,0.57332 1.36346,0.35631 1.75,1.52933 1.75,5.31068 0,3.78135 -0.38654,4.95436 -1.75,5.31067 -0.9625,0.25153 0.275,0.45732 2.75,0.45732 2.475,0 3.7125,-0.20579 2.75,-0.45732 z"
     id="path3364"
     inkscape:connector-curvature="0" />
  <path
     style="fill:#ffffff"
     d="m 57.240296,262.8207 0,-5.5 -13.5,0 -13.5,0 0,5.5 0,5.5 13.5,0 13.5,0 0,-5.5 z"
     id="path3362"
     inkscape:connector-curvature="0" />
  <path
     style="fill:#000000"
     d="M 116.21875 4.21875 L 113 4.3125 L 113 11.65625 C 113 15.88813 113.42406 19 114 19 C 114.55 19 115 18.1 115 17 C 115 15.540946 115.6706 15 117.46875 15 C 120.19942 15 122 12.487901 122 8.6875 C 122 5.496704 120.19334 4.105743 116.21875 4.21875 z M 117.5 5.5 C 119.70939 5.5 120.49657 7.872147 119.5625 11.59375 C 119.16827 13.164492 118.26009 14 116.9375 14 C 115.15775 14 114.91903 13.460618 115.1875 9.75 C 115.43859 6.27964 115.87808 5.5 117.5 5.5 z "
     id="path3360" />
  <path
     style="fill:#000000"
     d="m 61,8 0,-7 4.75,0.168103 c 4.351823,0.154012 4.43565,0.200985 1,0.560365 C 63.57732,2.060341 63,2.487024 63,4.5 c 0,2.012976 0.57732,2.439659 3.75,2.771531 L 70.5,7.663794 66.75,7.831897 C 63.305236,7.986317 63,8.239275 63,10.939635 c 0,2.660509 0.356072,2.976881 3.75,3.331897 3.43565,0.35938 3.351823,0.406353 -1,0.560365 L 61,15 61,8 z"
     id="path3356"
     inkscape:connector-curvature="0" />
  <path
     style="fill:#000000"
     d="M 72.825686,12.685549 C 74.021559,11.412601 75,9.979104 75,9.5 75,9.020896 74.021559,7.587399 72.825686,6.314451 71.26109,4.649015 71.053427,4 72.085139,4 c 0.788572,0 2.025291,0.947179 2.748263,2.104842 l 1.314496,2.104843 2.422108,-2.275452 c 1.332159,-1.251499 2.651641,-2.045919 2.932182,-1.765379 0.28054,0.280541 -0.392685,1.32706 -1.496057,2.325598 -2.548716,2.306555 -2.52095,3.328646 0.168183,6.191097 C 81.73891,14.350984 81.946573,15 80.914861,15 80.126289,15 78.88957,14.052821 78.166598,12.895158 L 76.852102,10.790315 74.6116,12.895158 c -3.038442,2.854467 -4.502982,2.682577 -1.785914,-0.209609 z"
     id="path3354"
     inkscape:connector-curvature="0" />
  <path
     style="fill:#000000"
     d="M 85.8125 4.03125 C 84.780657 4.0859763 84 4.3131367 84 4.78125 C 84 5.215431 85.197439 5.55293 86.65625 5.53125 C 90.414236 5.475397 90.670278 7.609694 87 8.34375 C 83.7877 8.98621 82.377095 10.980938 83.34375 13.5 C 83.736873 14.524463 85.203032 14.952121 87.96875 14.84375 L 92 14.6875 L 92 10.53125 C 92 8.256414 91.4725 5.8475 90.8125 5.1875 C 89.982178 4.3571775 87.532238 3.9400395 85.8125 4.03125 z M 88.46875 9.03125 C 89.504167 9.0148505 90.021994 9.7816262 89.8125 11.25 C 89.636747 12.481882 88.714163 13.628733 87.75 13.8125 C 85.533954 14.234873 84.20389 11.102901 86.09375 9.90625 C 87.029025 9.3140373 87.8475 9.0410897 88.46875 9.03125 z "
     id="path3352" />
  <path
     style="fill:#000000"
     d="m 95,9.617867 0,-5.382132 7.25,0.132132 7.25,0.132133 0.30226,5.25 c 0.17424,3.026468 -0.1202,5.25 -0.69521,5.25 -0.54861,0 -1.13462,-2.1375 -1.30226,-4.75 C 107.58534,6.829907 107.08003,5.5 106,5.5 c -1.08003,0 -1.58534,1.329907 -1.80479,4.75 C 104.02757,12.8625 103.48973,15 103,15 102.51027,15 101.97243,12.8625 101.80479,10.25 101.5493,6.268264 101.17652,5.5 99.5,5.5 97.823479,5.5 97.450703,6.268264 97.195209,10.25 96.776582,16.77407 95,16.262486 95,9.617867 z"
     id="path3348"
     inkscape:connector-curvature="0" />
  <path
     style="fill:#000000"
     d="m 125,7.5 c 0,-4.333333 0.42222,-7.5 1,-7.5 0.57778,0 1,3.166667 1,7.5 0,4.333333 -0.42222,7.5 -1,7.5 -0.57778,0 -1,-3.166667 -1,-7.5 z"
     id="path3346"
     inkscape:connector-curvature="0" />
  <path
     style="fill:#000000"
     d="M 134.375 4 C 129.63832 4 127.22963 10.073378 130.625 13.46875 C 132.52404 15.367791 138.12548 15.183329 138.78125 13.1875 C 139.14266 12.087539 138.84538 12.062343 137.09375 13.15625 C 135.55371 14.118026 134.54251 14.182118 133.3125 13.40625 C 130.03914 11.341463 130.66085 10 134.90625 10 C 138.17168 10 139 9.626956 139 8.1875 C 139 5.744071 137.06776 4 134.375 4 z M 134.71875 5.25 C 135.95217 5.3213609 137 6.1601381 137 7.46875 C 137 8.503622 136.02733 9 134 9 C 130.71902 9 130.18939 7.917629 132.5 6 C 133.18096 5.4348495 133.9787 5.2071834 134.71875 5.25 z "
     id="path3344" />
  <path
     style="fill:#000000"
     d="m 64.490296,247.65842 c -0.6875,-0.27742 -1.25,-0.93272 -1.25,-1.45624 0,-0.54884 0.88622,-0.47756 2.09314,0.16836 1.15123,0.61612 3.20613,0.84088 4.56644,0.49946 3.75931,-0.94352 2.55218,-3.78643 -2.16753,-5.10476 -4.33964,-1.21215 -5.77074,-4.13843 -3.10563,-6.35028 1.9599,-1.62657 7.82792,-0.99753 8.44919,0.90574 0.41361,1.2671 0.24003,1.29399 -1.11795,0.17323 -2.30078,-1.89887 -6.21766,-1.11992 -6.21766,1.23652 0,1.3737 1.12054,2.22415 3.99205,3.02981 4.49484,1.26112 5.83337,4.1181 2.92556,6.24434 -1.78492,1.30517 -5.764,1.62369 -8.16761,0.65382 z"
     id="path3340"
     inkscape:connector-curvature="0" />
  <path
     style="fill:#000000"
     d="M 80.25 237.3125 C 75.88831 237.3125 73.61392 243.55142 76.8125 246.75 C 77.67678 247.61428 79.22857 248.3125 80.25 248.3125 C 82.81744 248.3125 85.25 245.63668 85.25 242.8125 C 85.25 239.98831 82.81744 237.3125 80.25 237.3125 z M 80.25 238.3125 C 82.44849 238.3125 83.67169 241.48295 82.8125 244.90625 C 82.42639 246.44463 81.49315 247.3125 80.25 247.3125 C 79.00685 247.3125 78.04236 246.44463 77.65625 244.90625 C 76.79706 241.48295 78.05151 238.3125 80.25 238.3125 z "
     id="path3338" />
  <path
     style="fill:#000000"
     d="m 87.240296,240.8207 c 0,-4.33334 0.42222,-7.5 1,-7.5 0.57778,0 1,3.16666 1,7.5 0,4.33333 -0.42222,7.5 -1,7.5 -0.57778,0 -1,-3.16667 -1,-7.5 z"
     id="path3334"
     inkscape:connector-curvature="0" />
  <path
     style="fill:#000000"
     d="m 92.842976,246.72769 c -0.95307,-2.48366 -0.70097,-9.40699 0.34253,-9.40699 0.51986,0 1.08236,2.1375 1.25,4.75 0.25549,3.98173 0.62827,4.75 2.30479,4.75 1.67652,0 2.0493,-0.76827 2.30479,-4.75 0.41703,-6.49919 2.195214,-6.02446 2.195214,0.58606 l 0,5.33607 -3.897324,0.15271 c -2.72165,0.10665 -4.07912,-0.32106 -4.5,-1.41785 z"
     id="path3332"
     inkscape:connector-curvature="0" />
  <path
     style="fill:#000000"
     d="m 104.88971,247.56245 c -0.45768,-0.74054 -0.92688,-8.00582 -0.74215,-11.49175 0.11033,-2.08199 2.09274,-2.38827 2.09274,-0.32333 0,0.78467 0.7875,1.63247 1.75,1.884 1.66667,0.43555 1.66667,0.46285 0,0.57333 -1.38564,0.0918 -1.75,1.03765 -1.75,4.54267 0,3.375 0.41576,4.53533 1.75,4.884 1.35128,0.35313 1.25081,0.48375 -0.44098,0.57333 -1.20504,0.0638 -2.40187,-0.22521 -2.65961,-0.64225 z"
     id="path3330"
     inkscape:connector-curvature="0" />
  <path
     style="fill:#000000"
     d="m 111.2403,242.8207 c 0,-3.025 0.45,-5.5 1,-5.5 0.55,0 1,2.475 1,5.5 0,3.025 -0.45,5.5 -1,5.5 -0.55,0 -1,-2.475 -1,-5.5 z"
     id="path3328"
     inkscape:connector-curvature="0" />
  <path
     style="fill:#000000"
     d="M 120.25 237.3125 C 115.88831 237.3125 113.61392 243.55142 116.8125 246.75 C 117.67678 247.61428 119.22857 248.3125 120.25 248.3125 C 122.81744 248.3125 125.25 245.63668 125.25 242.8125 C 125.25 239.98831 122.81744 237.3125 120.25 237.3125 z M 120.25 238.3125 C 122.44849 238.3125 123.67169 241.48295 122.8125 244.90625 C 122.42639 246.44463 121.49315 247.3125 120.25 247.3125 C 119.00685 247.3125 118.04236 246.44463 117.65625 244.90625 C 116.79706 241.48295 118.05151 238.3125 120.25 238.3125 z "
     id="path3326" />
  <path
     style="fill:#000000"
     d="m 127.2403,242.98273 0,-5.33797 3.70504,-0.13929 c 4.39731,-0.16531 5.25926,0.90652 5.27965,6.56523 0.0209,5.81347 -1.80161,5.39544 -2.1799,-0.5 -0.25549,-3.98174 -0.62827,-4.75 -2.30479,-4.75 -1.67652,0 -2.0493,0.76826 -2.30479,4.75 -0.4171,6.50021 -2.19521,6.02396 -2.19521,-0.58797 z"
     id="path3322"
     inkscape:connector-curvature="0" />
  <path
     style="fill:#000000"
     d="m 111.2403,234.3207 c 0,-0.55 0.45,-1 1,-1 0.55,0 1,0.45 1,1 0,0.55 -0.45,1 -1,1 -0.55,0 -1,-0.45 -1,-1 z"
     id="path2987"
     inkscape:connector-curvature="0" />
</svg>
