<?xml version="1.0" encoding="UTF-8" standalone="no"?>
<!-- Created with Inkscape (http://www.inkscape.org/) -->

<svg
   xmlns:dc="http://purl.org/dc/elements/1.1/"
   xmlns:cc="http://creativecommons.org/ns#"
   xmlns:rdf="http://www.w3.org/1999/02/22-rdf-syntax-ns#"
   xmlns:svg="http://www.w3.org/2000/svg"
   xmlns="http://www.w3.org/2000/svg"
   version="1.1"
   viewBox="0 0 394.37473 151.22328"
   id="svg2">
  <defs
     id="defs4" />
  <metadata
     id="metadata7">
    <rdf:RDF>
      <cc:Work
         rdf:about="">
        <dc:format>image/svg+xml</dc:format>
        <dc:type
           rdf:resource="http://purl.org/dc/dcmitype/StillImage" />
        <dc:title></dc:title>
      </cc:Work>
    </rdf:RDF>
  </metadata>
  <g
     transform="translate(-154.04132,-287.33337)"
     id="layer1">
    <path
       d="m 270.89535,428.80111 c -0.21744,-0.20657 -8.04535,-0.65467 -17.39535,-0.99577 -9.35,-0.3411 -19.25,-0.82864 -22,-1.08343 -2.75,-0.25478 -14.9,-0.70167 -27,-0.99308 -12.1,-0.29141 -25.0277,-0.80744 -28.72823,-1.14673 -6.12378,-0.56148 -6.95603,-0.91557 -9.26396,-3.94142 l -2.53573,-3.32452 0.58481,-31.29841 c 0.32165,-17.21413 1.03375,-33.03597 1.58246,-35.15965 1.15905,-4.48592 4.90219,-8.33323 9.18817,-9.44383 3.3495,-0.86794 3.97652,-1.73657 5.86386,-8.12331 1.56579,-5.29863 5.61036,-7.46601 8.70543,-4.66502 1.66949,1.51088 1.85244,1.37634 2.92007,-2.14738 1.84066,-6.07513 8.77415,-15.70256 14.43078,-20.03771 5.96976,-4.57513 16.90261,-9.48412 20.10537,-9.02757 3.56986,0.50888 3.27204,4.23838 -0.54758,6.85714 -8.9072,6.10687 -14.84448,14.86228 -16.74,24.68569 -2.35711,12.21555 -2.55197,11.26322 2.30456,11.26322 7.06185,0 9.58689,4.44305 5.65954,9.95851 -1.08376,1.52199 -1.71369,3.02401 -1.39987,3.33784 0.31383,0.31382 0.21219,1.15049 -0.22585,1.85925 -0.43804,0.70877 -0.67838,2.9237 -0.53409,4.92207 0.21936,3.03821 -0.27242,4.08337 -3.00207,6.38022 l -3.2644,2.74682 1.80356,5.07805 c 2.78295,7.83557 6.46733,12.62912 12.1887,15.85806 8.11587,4.58032 7.90898,8.91089 -0.35306,7.39003 -10.48921,-1.93082 -22.49211,-11.70174 -28.20771,-22.96237 -2.36265,-4.65479 -3.88055,-6.49701 -5.62857,-6.83116 -4.50979,-0.8621 -5.00927,1.16829 -5.90086,23.98729 l -0.5558,14.22462 2.65728,0.66693 c 3.27104,0.82098 27.57395,0.86518 89.39319,0.16257 49.46376,-0.56219 76.17174,-2.07581 78.12347,-4.4275 1.43877,-1.73361 0.28578,-2.08334 -8.65857,-2.62634 -9.06021,-0.55004 -13.75186,-2.82837 -17.73057,-8.61022 -3.08538,-4.48365 -3.1915,-4.99795 -3.73787,-18.11467 -0.31306,-7.51566 -1.09249,-14.45076 -1.75829,-15.64482 -1.31541,-2.35905 -6.02019,-4.35518 -10.26495,-4.35518 -3.75473,0 -5.34232,-2.21901 -4.5623,-6.37685 0.60732,-3.2373 0.88628,-3.42984 5.87196,-4.05275 5.94476,-0.74275 6.67658,-1.11113 9.02508,-4.54291 1.33361,-1.94874 1.69669,-4.80852 1.714,-13.5 0.0241,-12.09636 1.44719,-16.94028 6.28566,-21.39501 5.10912,-4.70391 24.96665,-8.18728 26.33564,-4.61975 0.74271,1.93547 -1.35512,4.48727 -3.68898,4.48727 -2.79093,0 -7.69526,4.68515 -8.98035,8.57901 -0.63777,1.93245 -1.26701,7.20522 -1.39831,11.71727 -0.37358,12.83778 -4.20812,18.71511 -14.62382,22.41443 -2.72349,0.9673 -4.9518,2.26781 -4.9518,2.89002 0,0.62221 2.5875,2.0795 5.75,3.23843 6.15589,2.25588 10.83613,5.94208 12.24314,9.6428 0.47804,1.25733 1.1817,6.72575 1.5637,12.15205 1.05625,15.00394 2.15214,16.77635 10.8771,17.59178 3.62934,0.3392 5.02932,4.34008 3.50261,10.00983 -1.71377,6.36449 -4.16651,7.23796 -20.89294,7.44042 -7.99899,0.0968 -22.41861,0.59279 -32.04361,1.10216 -9.6611,0.51129 -20.58286,0.55462 -24.38235,0.0968 -3.78529,-0.45617 -7.25711,-0.59777 -7.71516,-0.31469 -1.85342,1.14548 -25.55375,0.39134 -27.60839,-0.8785 -0.64464,-0.39841 -4.65612,-0.005 -8.91439,0.87484 -5.58166,1.15292 -8.3682,1.31404 -9.98507,0.57735 -1.6451,-0.74956 -2.5267,-0.67976 -3.30824,0.26195 -0.58601,0.7061 -2.30768,1.13039 -3.82594,0.94288 -1.51825,-0.18752 -6.32747,-0.76163 -10.68715,-1.2758 -4.35967,-0.51417 -8.94459,-1.19033 -10.18871,-1.50259 -1.24412,-0.31225 -2.54117,-0.11608 -2.88233,0.43594 -1.03447,1.67381 -9.17591,1.18717 -11.02189,-0.65881 -1.4585,-1.4585 -1.62064,-3.98384 -1.32143,-20.5815 0.4189,-23.23764 -0.51273,-21.94319 15.55219,-21.60895 9.69913,0.20179 11.48611,-0.0156 13.25,-1.6119 1.12137,-1.01488 2.03886,-2.58541 2.03886,-3.49012 0,-1.35146 -1.29347,-1.69121 -7.25,-1.90435 -11.5508,-0.41332 -12.25,-0.53551 -12.25,-2.14075 0,-1.22982 1.74009,-1.5 9.66082,-1.5 10.21374,0 11.90524,-0.51055 9.85924,-2.97583 -0.87076,-1.0492 -3.09654,-1.52417 -7.1425,-1.52417 -8.71442,0 -7.12967,-1.86869 1.87244,-2.20794 7.62864,-0.28749 7.75496,-0.33512 8.06642,-3.04206 0.35617,-3.09545 2.02672,-2.77969 -16.31642,-3.08407 l -10,-0.16593 -0.0992,-4.5 c -0.17233,-7.82086 -0.23729,-8 -2.90085,-8 -2.04454,0 -2.5,0.48807 -2.5,2.679 0,1.47345 -0.5311,4.14773 -1.18022,5.94284 -0.95599,2.64374 -2.02702,3.51218 -5.63731,4.571 -4.89985,1.43701 -6.6705,3.51122 -7.51825,8.80716 -0.30815,1.925 -0.68757,17.50369 -0.84315,34.61931 -0.21729,23.90407 0.009,31.47142 0.97747,32.63795 1.33149,1.60435 11.36581,2.02428 80.20146,3.35642 33.75322,0.6532 41.21529,0.57824 62.91645,-0.63201 11.12593,-0.62049 17.8936,-0.57595 21,0.1382 5.1097,1.17469 40.29692,2.18423 61.08355,1.75252 7.425,-0.15421 18.675,-0.1778 25,-0.0524 6.325,0.12536 20.275,0.10652 31,-0.0419 26.97737,-0.37327 33.54953,-0.32773 56.88903,0.39423 l 20.38904,0.6307 2.36206,-2.54871 c 2.8206,-3.04348 4.07872,-7.39857 4.78278,-16.55598 0.28762,-3.74093 0.76865,-7.19926 1.06897,-7.68518 0.30031,-0.48592 0.60393,-11.6171 0.67471,-24.73596 0.1516,-28.10134 -0.33938,-30.70808 -6.0748,-32.25246 -4.22039,-1.13645 -6.09179,-4.05177 -6.09179,-9.49 0,-5.07199 -0.89321,-6.53473 -3.99036,-6.53473 -3.28341,0 -4.19605,2.23963 -3.02623,7.42643 1.29075,5.72305 -0.90348,6.87308 -11.65213,6.10704 -9.20101,-0.65573 -12.07278,0.0918 -11.00838,2.8656 0.47572,1.23973 2.07463,1.60093 7.0867,1.60093 3.5598,0 6.71499,0.39257 7.01153,0.87238 0.58248,0.94248 -4.94848,2.09883 -10.12408,2.11661 -3.36198,0.0116 -8.29705,1.82514 -8.29705,3.04908 0,1.95406 3.70225,3.25161 10.13601,3.55242 7.53047,0.35208 8.45606,0.6425 7.41522,2.32661 -0.36843,0.59615 -3.92776,1.01646 -8.23282,0.97221 -7.42678,-0.0763 -9.83559,0.89373 -8.96574,3.61069 0.19122,0.59727 5.94259,1.03958 14.28106,1.09829 9.81402,0.0691 14.83797,0.51914 16.91359,1.51512 2.81836,1.35236 2.95334,1.71182 2.96713,7.9017 0.008,3.56669 -0.31915,10.08489 -0.72689,14.48489 -0.40774,4.4 -0.9665,10.58089 -1.24171,13.7353 -0.71821,8.23223 -1.5046,10.67226 -3.84284,11.92364 -2.67902,1.43377 -29.05247,3.22546 -48.20301,3.27468 -14.62409,0.0376 -26.16938,-0.88566 -51.32281,-4.10417 -8.55211,-1.09429 -15.31628,-1.36454 -22.10562,-0.8832 C 380.55014,409.83689 372,405.93919 372,397.23635 c 0,-3.35332 0.38065,-3.88492 3.92678,-5.484 2.15973,-0.9739 5.07537,-2.96961 6.47921,-4.43489 5.0603,-5.28182 9.59926,-23.96454 9.58646,-39.4586 -0.0106,-12.85197 -1.5302,-20.99922 -5.48222,-29.39322 -3.69011,-7.83769 -7.11613,-11.707 -12.3245,-13.91918 -2.53631,-1.07725 -3.24051,-1.92637 -3,-3.61741 0.50647,-3.56115 4.34421,-3.2724 12.65052,0.95183 11.21068,5.70125 18.89656,13.32304 22.93805,22.74674 4.27197,9.96113 5.73939,20.63442 4.37286,31.80616 -2.56015,20.92991 -13.0653,35.4386 -30.32452,41.88127 -6.34312,2.36781 -6.66483,3.84744 -1.45146,6.67554 2.61837,1.4204 6.14698,1.70014 21.62882,1.71469 10.175,0.01 19.11086,0.41059 19.85747,0.89116 0.74661,0.48057 6.59661,1.24168 13,1.69134 6.40339,0.44966 15.59848,1.28872 20.43354,1.86456 8.68418,1.03427 22.67403,0.84333 48.42637,-0.66094 9.82389,-0.57385 13.61483,-1.17031 14.76541,-2.3232 2.73944,-2.74491 6.51135,-32.14611 5.00432,-39.00756 -0.50455,-2.2972 -1.58035,-3.50015 -4.05481,-4.53405 -1.85244,-0.77399 -3.64893,-1.40726 -3.99221,-1.40726 -0.34328,0 -0.47539,7.61766 -0.29358,16.92813 0.18181,9.31047 0.1104,17.14829 -0.15868,17.41737 -1.0429,1.0429 -35.50527,1.7656 -36.95158,0.7749 -1.12746,-0.77229 -1.23878,-1.64233 -0.48455,-3.78696 0.97185,-2.76346 1.03902,-2.78242 8.96375,-2.5295 4.3915,0.14016 8.65955,-0.19202 9.48455,-0.73817 1.20584,-0.79826 1.5,-3.54946 1.5,-14.02916 0,-13.74401 0.20033,-13.16099 -4.63522,-13.48995 -3.72218,-0.25322 -6.53937,-5.39367 -3.86261,-7.048 0.57053,-0.35261 0.73749,-2.27455 0.38765,-4.46235 -0.53773,-3.36278 -0.2952,-4.0522 1.94097,-5.51739 2.23747,-1.46606 2.41719,-1.97794 1.44418,-4.11346 -0.92859,-2.03803 -0.79593,-2.67767 0.80686,-3.89045 1.055,-0.79827 2.48067,-1.46571 3.16817,-1.48321 0.93611,-0.0238 1.25,-3.39043 1.25,-13.4068 0,-7.35625 -0.2779,-14.7645 -0.61756,-16.46278 l -0.61755,-3.08778 -8.63245,-0.28722 C 478.66776,303.72491 478.5,303.67074 478.5,301.21933 l 0,-2.5 16,-0.5 c 8.8,-0.275 17.0125,-0.17364 18.25,0.22525 2.17417,0.70081 2.25,1.14525 2.25,13.18713 l 0,12.46188 3.48063,-0.56483 c 2.32891,-0.37793 4.29843,-0.029 5.95207,1.05452 2.12455,1.39206 2.51325,2.49773 2.76937,7.8777 0.29706,6.2401 0.30728,6.25925 3.50348,6.56839 2.44786,0.23676 3.74788,1.18223 5.5,4 2.17809,3.50283 2.29393,4.62816 2.28429,22.18996 -0.0158,28.69688 -1.16291,49.14377 -2.94935,52.56951 -0.84049,1.61177 -1.53094,3.67255 -1.53433,4.57952 -0.003,0.90697 -1.91866,2.70558 -4.25616,3.99691 -4.09915,2.26455 -4.83566,2.33025 -20.75,1.85097 -9.075,-0.2733 -26.4,-0.38552 -38.5,-0.24938 -12.1,0.13614 -25.15,0.28008 -29,0.31987 -22.28862,0.23035 -69.76693,-0.99203 -74.17468,-1.90971 -3.43406,-0.71496 -7.10219,-0.76365 -10.90492,-0.14473 -3.15163,0.51294 -13.19802,0.93544 -22.32532,0.93888 -15.46345,0.006 -27.71581,0.36208 -52.69973,1.53226 -5.55755,0.2603 -10.28255,0.30426 -10.5,0.0977 z M 426.25,400.72846 c -2.39116,-1.03929 -3.25,-2.05658 -3.25,-3.84957 0,-2.02757 0.62999,-2.5521 3.75,-3.12225 8.72855,-1.59503 11.25,-5.97391 11.25,-19.53731 0,-5.57831 0.54744,-10.37445 1.42348,-12.47109 1.51918,-3.63592 9.87651,-9.88136 14.82652,-11.07988 4.43375,-1.07352 3.25019,-3.24775 -2.71136,-4.98082 -5.51573,-1.60347 -9.07349,-4.68189 -11.94782,-10.33809 -0.73511,-1.44657 -1.54787,-7.19214 -1.80613,-12.76795 -0.60838,-13.13482 -2.30282,-16.45727 -9.06623,-17.77695 -4.69296,-0.91569 -6.71378,-3.16575 -5.13602,-5.71862 1.15243,-1.86466 20.81688,-0.40271 24.63127,1.8312 6.45942,3.783 7.23132,5.964 7.83034,22.12457 0.31305,8.44567 1.0507,15.59499 1.73732,16.8382 0.85914,1.55557 2.94696,2.53865 7.45595,3.51072 l 6.26268,1.35015 0,3.97692 c 0,3.9677 -0.0107,3.97846 -4.62832,4.63898 -9.49076,1.35759 -12.4143,5.42737 -10.67666,14.86266 2.26463,12.29688 -0.95111,23.90089 -7.92528,28.59834 -1.77665,1.19666 -6.44435,2.90157 -10.37267,3.7887 -8.42185,1.9019 -7.57267,1.893 -11.64707,0.12209 z m -173.27758,-3.71259 c -0.36983,-17.38649 0.28827,-97.43839 0.80489,-97.90777 0.39748,-0.36113 8.48538,-0.97017 17.9731,-1.3534 15.76156,-0.63666 17.30727,-0.54863 17.90915,1.01984 1.41667,3.69177 -0.91475,4.92938 -9.85494,5.23138 l -8.48405,0.2866 -0.65844,29.2134 c -0.36214,16.06738 -0.65927,35.62591 -0.66029,43.46341 l -0.002,14.25 9.43261,0 c 8.62803,0 9.48806,0.17469 10.08262,2.04799 1.29816,4.09014 -0.49388,4.54358 -18.97361,4.80086 -13.81668,0.19237 -17.54748,-0.0311 -17.5692,-1.05231 z M 347.38,323.76722 c -0.82613,-2.15288 0.42384,-3.54789 3.17902,-3.54789 2.60876,0 3.20752,1.83346 1.24098,3.8 -1.63132,1.63133 -3.74349,1.51085 -4.42,-0.25211 z m 15,0 c -0.82613,-2.15288 0.42384,-3.54789 3.17902,-3.54789 2.60876,0 3.20752,1.83346 1.24098,3.8 -1.63132,1.63133 -3.74349,1.51085 -4.42,-0.25211 z"
       id="path3000"
       style="fill:#000000" />
    <path
       d="m 265.5,428.09249 c -4.4,-0.34477 -23.75,-1.12943 -43,-1.7437 -19.25,-0.61427 -39.12864,-1.38415 -44.17476,-1.71084 l -9.17477,-0.59399 -2.52512,-3.66231 -2.52512,-3.66232 0.51854,-29.5 c 0.28519,-16.225 0.9558,-31.74433 1.49024,-34.48741 1.16552,-5.98217 4.84399,-10.22555 9.64504,-11.12623 3.59394,-0.67423 4.37289,-1.83915 5.89127,-8.81041 0.66117,-3.03562 1.48126,-4.13124 3.62218,-4.83917 2.30752,-0.76301 3.07183,-0.5393 4.59844,1.34599 l 1.83094,2.26111 0.7208,-2.92194 c 1.37411,-5.57022 7.57906,-15.21828 12.93613,-20.11433 3.45946,-3.16176 8.13832,-6.07642 13.09309,-8.15625 11.74638,-4.9307 15.55309,-2.43671 6.8031,4.4571 -9.15625,7.21388 -13.43296,14.04711 -15.80975,25.26047 -2.21477,10.449 -2.17075,10.59676 3.23136,10.84572 5.20006,0.23965 5.91734,0.69233 6.80575,4.29514 0.44468,1.80337 -0.005,3.17892 -1.59592,4.8871 -1.70702,1.83226 -2.25219,3.71807 -2.37787,8.22526 -0.13257,4.75392 -0.59771,6.22491 -2.48633,7.8629 -1.27779,1.10822 -2.66813,2.01495 -3.08964,2.01495 -1.10506,0 0.91322,6.7381 3.62135,12.09002 2.41429,4.77122 6.90359,9.19124 12.30332,12.11347 2.01506,1.09051 3.14773,2.47153 3.14773,3.8379 0,1.95062 -0.36596,2.0761 -4.25,1.45727 -11.53012,-1.83706 -23.15747,-10.84641 -28.81769,-22.32913 -3.53701,-7.17545 -6.62364,-9.50052 -9.47302,-7.13575 -2.05122,1.70236 -3.05442,10.03867 -3.00447,24.96622 l 0.0452,13.5 5.5,0.54568 c 4.37394,0.43395 5.09052,0.73408 3.5,1.46593 -2.48192,1.142 -9.09622,1.22634 -10.18939,0.12992 -1.39342,-1.39755 -0.88156,-39.47102 0.54984,-40.89907 0.85013,-0.84815 4.95753,-1.24246 12.94244,-1.24246 13.07328,0 16.19709,-0.98587 16.19709,-5.1118 0,-2.2452 -0.37883,-2.51609 -3.25,-2.32399 -6.3643,0.42582 -15.75,-1.23159 -15.75,-2.78127 0,-1.1682 0.84647,-1.30801 4.25,-0.70197 4.71501,0.83956 13.42963,0.73506 14.90824,-0.17877 0.52387,-0.32377 0.80899,-1.33385 0.63359,-2.24462 -0.22881,-1.18812 -2.15146,-1.97485 -6.80537,-2.78468 L 199.5,349.4635 l 7.75,-0.12209 7.75,-0.12208 0,-2.95469 c 0,-2.55607 -0.43846,-3.02752 -3.25,-3.49461 -1.7875,-0.29696 -7.525,-0.42985 -12.75,-0.29531 l -9.5,0.24461 -0.26654,-4 c -0.47752,-7.16605 -1.06642,-8.5 -3.75251,-8.5 -2.36998,0 -2.94172,0.86899 -2.53273,3.84956 0.56166,4.09325 -5.01207,10.15044 -9.34029,10.15044 -2.18414,0 -4.35487,3.28447 -5.07491,7.6787 -1.01357,6.18555 -1.36864,65.55004 -0.40354,67.46629 0.68792,1.36589 3.2498,1.74604 15.0995,2.24058 27.02482,1.12786 92.29962,2.11349 107.27102,1.61975 15.08676,-0.49753 32.25021,-0.37476 60,0.42919 13.83277,0.40075 110.93369,0.58526 127,0.24133 3.85,-0.0824 16.71815,0.24269 28.59589,0.72248 l 21.59589,0.87233 2.59873,-3.40711 c 2.7508,-3.60649 4.77477,-10.66743 4.61426,-16.09757 -0.0531,-1.79628 0.44237,-6.86597 1.10105,-11.26597 1.58211,-10.56863 0.75893,-46.14466 -1.15936,-50.10492 -0.84431,-1.74305 -2.51162,-3.07946 -4.4707,-3.58341 -4.30047,-1.10625 -5.30167,-2.64273 -6.15061,-9.439 l -0.73358,-5.87267 -3.49578,0 -3.49579,0 0.29836,5.6611 c 0.18264,3.46555 -0.14366,5.93427 -0.84137,6.36548 -0.62685,0.38741 -5.48611,0.64984 -10.79836,0.58317 -11.11325,-0.13947 -13.90958,0.8797 -10.43185,3.80206 1.74705,1.46805 3.41669,1.78647 7.75,1.47798 3.03777,-0.21626 5.52322,-0.001 5.52322,0.47766 0,0.99403 -5.79244,2.10526 -11.05887,2.12154 -1.95738,0.006 -4.37685,0.60913 -5.37661,1.34017 -1.50634,1.10147 -1.61871,1.70106 -0.65595,3.5 1.04299,1.94884 1.97632,2.17084 9.12661,2.17084 4.64321,0 7.96482,0.41703 7.96482,1 0,0.56306 -2.81163,1 -6.4349,1 -7.92609,0 -11.5651,1.25083 -11.5651,3.97525 0,1.80225 0.68682,2.03997 6.25,2.16329 3.4375,0.0762 9.58763,0.0661 13.66695,-0.0224 11.72719,-0.25455 16.17952,1.99542 14.11462,7.1328 -0.49764,1.23811 -0.93332,1.66816 -0.96818,0.95566 -0.10119,-2.06804 -4.77998,-6.20455 -7.01794,-6.20455 -1.98268,0 -2.04545,0.53704 -2.04545,17.5 l 0,17.5 -10.75,0.007 c -5.9125,0.004 -13.675,0.26952 -17.25,0.59024 -7.87956,0.70689 -11.02034,-0.82232 -9.09143,-4.42652 1.05789,-1.97668 1.95315,-2.17083 10.00998,-2.17083 10.61738,0 10.04807,0.94718 10.0678,-16.75 L 497,363.21933 l -3.96482,0 c -4.81147,0 -6.78229,-2.48833 -4.52421,-5.7122 1.15481,-1.64872 1.19218,-2.61399 0.2027,-5.23541 -1.06751,-2.82817 -0.98608,-3.38003 0.6784,-4.59713 1.04035,-0.76072 2.39024,-1.56557 2.99974,-1.78854 0.77958,-0.2852 0.7205,-1.06045 -0.19922,-2.61443 -1.47588,-2.49365 -0.41956,-4.52809 2.89772,-5.58095 C 496.8676,337.12658 497,335.94787 497,320.68947 l 0,-16.39509 -9.16911,-0.28752 c -9.52117,-0.29857 -11.28897,-1.1866 -8.3041,-4.17146 1.35109,-1.3511 4.19494,-1.61607 17.34464,-1.61607 10.9,0 16.09696,0.36839 16.92857,1.2 0.80302,0.80302 1.2,5.2619 1.2,13.47856 l 0,12.27856 2.45494,-1.11854 c 1.85029,-0.84305 3.19892,-0.81038 5.47555,0.13263 3.09305,1.28118 3.68994,2.7972 4.30964,10.94594 0.22232,2.92333 0.76495,3.58629 3.75496,4.58757 6.26881,2.09926 7.35202,5.47403 7.34514,22.88405 -0.003,8.31118 -0.31746,23.4879 -0.69817,33.72604 -0.62746,16.87383 -0.91998,19.08699 -3.12772,23.66341 -2.15315,4.46327 -3.04915,5.27818 -7.72826,7.02886 -5.4584,2.04225 -9.90534,2.1315 -28.78608,0.57773 -4.125,-0.33946 -11.55,-0.58742 -16.5,-0.55101 -70.98111,0.52203 -103.19666,0.28327 -112.62234,-0.83466 -7.96165,-0.9443 -11.8441,-0.98323 -15.5,-0.15541 -2.6841,0.60777 -12.74768,1.05234 -22.37766,0.98856 -9.625,-0.0637 -24.025,0.2492 -32,0.69543 -18.80736,1.05235 -23.81862,1.10402 -33.5,0.34544 z m 191,-14.62698 c -2.75,-0.1396 -7.7,-0.69355 -11,-1.231 -3.3,-0.53745 -9.80992,-1.24438 -14.46649,-1.57096 -4.65658,-0.32659 -8.89164,-0.85654 -9.41127,-1.17769 -0.51962,-0.32114 -7.0597,-0.91431 -14.5335,-1.31815 L 393.5,407.43346 l 14,0.34195 c 16.30709,0.39829 36.06566,1.97114 42.5,3.38316 2.475,0.54313 14.175,0.876 26,0.73971 12.43118,-0.14328 19.39097,0.0711 16.5,0.50822 -5.382,0.81379 -27.82511,1.474 -36,1.05901 z m -242.1067,-2.56583 c -0.98856,-0.55323 -4.94993,-1.17609 -8.80304,-1.38414 -11.64631,-0.62885 -8.62493,-1.14516 6.56923,-1.12259 7.88728,0.0117 16.65233,-0.45129 19.47788,-1.02891 3.1666,-0.64734 12.56516,-0.83378 24.5,-0.486 23.38768,0.68152 93.32404,-1.3001 95.97609,-2.71943 4.13519,-2.21309 2.06546,-3.62905 -6.2409,-4.26959 -9.46045,-0.72954 -14.0895,-2.72047 -18.13676,-7.80054 -3.71568,-4.66388 -4.68166,-9.04122 -4.71568,-21.36915 -0.0225,-8.14816 -0.39153,-10.59688 -1.99284,-13.22316 -1.93458,-3.17288 -2.76038,-3.55451 -10.33206,-4.77481 -3.7679,-0.60727 -3.80183,-0.65387 -3.5,-4.80762 l 0.30478,-4.19441 5.47931,-0.6687 c 4.37137,-0.53349 5.93744,-1.2412 7.74503,-3.5 2.02615,-2.53192 2.26625,-3.92929 2.27069,-13.21528 0.006,-12.18208 1.27359,-17.19813 5.47169,-21.64941 5.08092,-5.38735 22.44017,-9.41686 25.85535,-6.00168 2.21224,2.21224 1.45509,3.24871 -3.31067,4.532 -2.14729,0.57821 -4.80206,2.19278 -5.8995,3.58794 -2.38803,3.03589 -4.07409,10.81914 -4.0133,18.5263 0.0807,10.22882 -5.19341,17.55563 -14.82196,20.59076 -5.58412,1.76024 -6.23232,3.13216 -2.26696,4.79807 7.12481,2.99325 12.60323,6.2967 14.28099,8.61136 1.43479,1.97946 2.11791,5.48818 2.82306,14.5 1.10246,14.08933 2.3902,16.70545 8.47293,17.21315 5.26147,0.43916 6.41334,1.65727 6.41334,6.78216 0,3.3638 -0.6292,5.04872 -2.75,7.36411 l -2.75,3.00234 -12,0.0325 c -6.6,0.0179 -12.9,0.001 -14,-0.0374 -2.64574,-0.0924 -11.67183,0.93367 -13.23134,1.50416 -1.43492,0.52492 -18.71843,0.60375 -46.26866,0.21104 -13.43035,-0.19145 -20.22024,-0.67394 -21.81392,-1.55013 -1.79718,-0.98806 -2.63482,-1.00584 -3.75086,-0.0796 -0.83259,0.69098 -5.01082,1.2459 -9.93436,1.31939 -4.67357,0.0698 -8.49819,0.41188 -8.49913,0.76026 -0.003,1.16786 -4.79085,1.5641 -6.60843,0.54693 z m 292.94065,-0.60856 c 11.51551,-0.66956 12.12968,-1.14234 13.1741,-10.14116 0.37881,-3.26382 1.14258,-6.21471 1.69728,-6.55753 0.63133,-0.39019 0.8056,0.45201 0.46594,2.25179 -0.29843,1.58131 -0.82308,5.00568 -1.1659,7.60971 -0.90033,6.83896 -2.74682,7.80662 -14.47788,7.58719 L 497.5,410.8629 z M 384,408.08875 c -6.72229,-1.82502 -9.10485,-3.1715 -10.54716,-5.96061 -2.76946,-5.35555 -1.98672,-7.41659 4.12704,-10.86698 6.13722,-3.46364 8.70813,-7.65879 11.97576,-19.54183 2.20698,-8.02585 3.05293,-30.96331 1.48483,-40.26006 -2.25548,-13.37201 -9.86178,-25.20392 -17.79047,-27.67381 -2.71259,-0.84501 -3.00031,-4.19321 -0.43043,-5.00886 4.11508,-1.30608 18.30463,6.42762 25.53243,13.91588 8.96155,9.28448 12.648,19.78506 12.648,36.02685 0,5.81688 -0.64638,12.56144 -1.52839,15.9477 -2.12245,8.14861 -7.73521,18.41535 -12.75146,23.32467 -4.46824,4.37299 -16.55205,11.22763 -19.79281,11.22763 -2.43665,0 -2.4837,2.18652 -0.0936,4.34954 1.73419,1.56942 8.67169,3.99071 14.16626,4.94424 2.18047,0.3784 2.11656,0.43973 -0.5,0.47985 -1.65,0.0253 -4.575,-0.3816 -6.5,-0.90421 z m 43,-7.27967 c -3.60616,-1.2961 -5.45601,-5.21864 -2.82014,-5.98002 0.72608,-0.20972 3.25416,-0.90722 5.61796,-1.54999 6.45184,-1.7544 8.19233,-5.26758 8.20402,-16.55974 0.005,-4.95 0.47182,-10.66529 1.03711,-12.70065 1.23471,-4.44563 7.36517,-10.02446 13.65552,-12.42677 5.79031,-2.21134 5.27578,-4.18306 -1.69447,-6.49332 -3.025,-1.00262 -5.59088,-1.83561 -5.70196,-1.8511 -0.11108,-0.0155 -1.65265,-2.13666 -3.42571,-4.71372 -3.02149,-4.39158 -3.26201,-5.38593 -3.83362,-15.84828 -0.79081,-14.47478 -2.29285,-16.99168 -11.28871,-18.916 -2.15333,-0.46063 -2.75,-1.15858 -2.75,-3.21681 l 0,-2.62855 9.48526,0.66675 c 10.83481,0.76161 13.89729,1.68964 17.77107,5.38522 3.76961,3.59621 4.73157,7.84519 4.73809,20.92813 0.003,6.1517 0.45272,12.36096 0.99922,13.79837 1.10802,2.9143 6.25314,5.51673 10.90685,5.51673 3.48675,0 4.66507,2.38226 3.14973,6.36792 -0.85759,2.25562 -1.59067,2.63208 -5.12547,2.63208 -3.35756,0 -4.75714,0.63239 -7.52475,3.4 -3.74994,3.74995 -3.93785,4.95041 -2.22764,14.23204 1.2679,6.88115 0.36154,13.33324 -2.81263,20.02232 -1.96087,4.13222 -8.1579,7.97828 -14.93531,9.2693 -2.70843,0.51593 -5.59942,1.1599 -6.42442,1.43104 -0.825,0.27115 -3.075,-0.0731 -5,-0.76495 z M 253.46117,397.34717 C 253.20753,397.09353 253,374.95978 253,348.16107 l 0,-48.72492 2.25,-0.53391 c 1.97302,-0.46818 28.32565,-1.10544 33,-0.79801 1.05257,0.0692 1.75,0.92203 1.75,2.13985 0,2.75564 -3.65423,3.97525 -11.91078,3.97525 l -6.78058,0 -0.65026,12.75 c -0.35765,7.0125 -0.65209,26.53125 -0.65432,43.375 l -0.004,30.625 3.125,0.625 c 1.71875,0.34375 5.94561,0.625 9.39301,0.625 4.31804,0 6.42806,0.41709 6.78248,1.34068 1.23758,3.22509 -0.86309,3.68404 -18.15633,3.96677 -9.472,0.15486 -17.42934,0.074 -17.68299,-0.17961 z M 522.01531,388.136 c 0.008,-2.42917 0.4348,-5.08 0.94749,-5.89073 0.62021,-0.98072 0.7991,0.31341 0.53455,3.86681 -0.49307,6.6227 -1.50276,8.00157 -1.48204,2.02392 z m 1.25705,-12.91667 c 0,-2.475 0.19502,-3.4875 0.43337,-2.25 0.23836,1.2375 0.23836,3.2625 0,4.5 -0.23835,1.2375 -0.43337,0.225 -0.43337,-2.25 z M 363.01892,323.74212 c -1.47279,-1.7746 -0.51348,-3.52279 1.93311,-3.52279 2.59268,0 3.36898,2.75783 1.11574,3.96373 -1.35451,0.72492 -2.18041,0.60547 -3.04885,-0.44094 z m -15.34303,-0.92502 c -0.66535,-1.73388 0.12738,-2.59777 2.38379,-2.59777 1.76847,0 3.27784,2.32915 2.20475,3.40223 -1.11735,1.11735 -4.04825,0.6035 -4.58854,-0.80446 z"
       id="path2998"
       style="fill:#000000" />
    <path
       d="m 263.5,428.07417 c -11.02316,-0.84256 -29.44617,-1.60505 -56.5,-2.33844 -11.275,-0.30565 -24.46412,-0.82176 -29.30917,-1.14691 -8.79296,-0.59009 -8.81361,-0.5979 -11.22933,-4.24831 l -2.42018,-3.65713 0.81471,-32.98202 c 0.55222,-22.35548 1.20765,-33.79341 2.0343,-35.50035 1.4863,-3.06907 6.97845,-6.98168 9.80023,-6.98168 2.10889,0 3.20411,-1.96584 4.97046,-8.92165 1.06261,-4.1845 5.54538,-6.30052 8.0473,-3.79861 1.34918,1.34919 1.92401,0.68849 5.34149,-6.13942 5.1465,-10.28239 11.40199,-16.44542 21.59754,-21.27831 8.82184,-4.18173 12.07479,-4.74967 13.02478,-2.27403 0.42344,1.10347 -1.71142,3.77321 -6.99695,8.75 -8.33826,7.8512 -10.86006,12.32336 -13.21492,23.43533 -1.91061,9.01563 -1.8668,10.14576 0.37064,9.56066 1.00699,-0.26334 3.36864,-0.0803 5.2481,0.40669 4.5542,1.18012 5.93256,4.78588 3.34127,8.74068 -2.20459,3.36464 -2.57316,4.71739 -2.77024,10.1676 -0.115,3.18013 -0.8279,4.77827 -3.05301,6.84403 l -2.90298,2.69509 1.65971,5.26523 c 2.35959,7.48548 6.74993,13.05882 12.63688,16.04196 4.05537,2.05501 5.00937,3.02808 5.00937,5.10949 0,2.46048 -0.18278,2.54299 -4.25,1.9184 -11.43874,-1.75661 -23.57843,-11.29734 -29.63095,-23.2873 -4.73341,-9.37684 -9.28158,-9.46574 -10.85696,-0.21221 -0.41915,2.462 -0.76209,10.77637 -0.76209,18.47637 l 0,14 6,0.5 c 6.62013,0.55168 6.17998,1.94189 -0.82837,2.61639 -7.23415,0.69623 -7.1718,0.88028 -7.17029,-21.16286 0.002,-24.01378 -0.97365,-22.5782 15.0889,-22.21002 9.81845,0.22505 11.44884,0.023 13.29999,-1.6485 C 211.0506,363.7666 212,362.06823 212,361.04018 c 0,-1.52002 -0.70048,-1.84105 -3.75,-1.71865 -5.19395,0.20846 -15.26474,-0.78691 -15.25666,-1.50794 0.004,-0.32684 0.007,-1.08649 0.007,-1.6881 0,-0.74793 1.6602,-0.85713 5.25,-0.34531 15.11293,2.15475 20.97713,-2.55359 6.46256,-5.18876 l -6.2129,-1.12792 8.25,-0.12209 8.25,-0.12208 0,-2.875 c 0,-3.60893 -1.73333,-3.9996 -15.75,-3.54977 l -10.25,0.32894 -0.0137,-4.20208 c -0.0215,-6.60155 -0.89116,-8.70209 -3.60298,-8.70209 -2.27975,0 -2.84152,0.88806 -2.43515,3.84956 0.56166,4.09325 -5.01207,10.15044 -9.34029,10.15044 -2.2847,0 -4.41219,3.36952 -5.05114,8 -0.34152,2.475 -0.75152,18.28478 -0.91111,35.13285 -0.21862,23.07891 0.0137,31.04839 0.94202,32.31797 1.10358,1.50924 5.8081,1.78593 45.07225,2.65086 24.11203,0.53116 54.19005,0.88166 66.84005,0.7789 28.8513,-0.23438 49.59997,-0.0829 74.5,0.54383 37.78461,0.95107 94.64379,1.19033 107,0.45026 7.036,-0.42143 23.5096,-0.25633 37.68667,0.37769 19.41571,0.8683 25.78741,0.85267 27.80854,-0.0682 3.41818,-1.55742 6.57906,-8.74294 7.05269,-16.0326 0.20195,-3.10834 0.88672,-9.70153 1.52169,-14.65153 1.2308,-9.59473 0.65083,-42.69042 -0.83981,-47.92349 -0.88955,-3.1229 -2.17369,-4.13262 -6.36948,-5.00832 -3.11233,-0.6496 -3.8718,-2.18764 -4.72471,-9.56822 -0.63536,-5.49798 -0.63687,-5.5 -4.13559,-5.5 l -3.5,0 0.32659,5.64365 c 0.22564,3.89931 -0.0834,5.90108 -1,6.47655 -0.72963,0.4581 -5.713,0.69131 -11.07416,0.51824 -8.33303,-0.26899 -9.83976,-0.0744 -10.38279,1.34067 -1.05335,2.74499 1.21138,3.83283 7.58151,3.64169 3.32687,-0.0998 6.04885,0.2259 6.04885,0.72385 0,1.06203 -4.84934,2.15535 -9.5599,2.15535 -3.91431,0 -8.4401,1.5571 -8.4401,2.90382 0,2.80149 3.34135,4.09618 10.57143,4.09618 4.28571,0 7.42857,0.42308 7.42857,1 0,1.04815 -3.09956,1.41812 -9.01834,1.07645 -4.93761,-0.28503 -9.20909,1.50088 -8.79326,3.67646 0.29597,1.54848 2.11941,1.80393 16.03987,2.24709 17.54272,0.55847 19.49841,1.25651 18.18474,6.49059 l -0.70344,2.80272 -1.41086,-2.69273 c -1.25771,-2.40043 -4.77933,-4.60058 -7.36381,-4.60058 -0.54393,0 -0.9349,7.25333 -0.9349,17.3445 l 0,17.3445 -17.75,0.61321 c -19.02265,0.65718 -20.7435,0.30095 -19.60358,-4.05813 0.55234,-2.11214 1.10706,-2.24408 9.43503,-2.24408 7.72448,0 8.97965,-0.24565 9.88337,-1.93426 0.56935,-1.06384 1.03518,-7.58884 1.03518,-14.5 l 0,-12.56574 -3.87756,0 c -2.1698,0 -4.40828,-0.63949 -5.08261,-1.45201 -1.24104,-1.49536 -0.55882,-5.54799 0.93396,-5.54799 0.46145,0 0.33784,-1.63297 -0.27471,-3.62882 -1.03294,-3.36565 -0.9219,-3.78267 1.53111,-5.75 2.11246,-1.69421 2.44022,-2.48397 1.62833,-3.92354 -1.17499,-2.08337 0.17714,-4.25679 3.2562,-5.23405 1.8225,-0.57844 1.91827,-1.54716 1.65969,-16.78872 L 496.5,304.71933 l -8.79659,-0.28961 c -9.19763,-0.30282 -11.37812,-1.48756 -8.69284,-4.72312 1.89248,-2.28031 34.50457,-2.19319 35.38244,0.0945 0.33385,0.86998 0.60699,6.94879 0.60699,13.50847 0,11.35186 0.0891,11.87103 1.84907,10.77193 1.86779,-1.16646 5.39543,-0.69375 8.15037,1.09215 0.96192,0.62357 1.67887,3.21378 2,7.22564 0.49727,6.21247 0.52404,6.25915 4.06815,7.09302 6.33763,1.49115 7.36986,4.68373 7.34813,22.727 -0.0341,28.31848 -1.32794,52.4922 -3.00522,56.14866 -2.67827,5.83859 -2.971,6.18621 -6.98059,8.28967 -3.47213,1.82151 -5.386,2.02648 -16.42991,1.75956 -6.875,-0.16617 -14.525,-0.50463 -17,-0.75215 -7.63336,-0.7634 -20.73444,-0.75046 -39,0.0385 -9.625,0.41574 -18.4,0.66456 -19.5,0.55293 -1.1,-0.11163 -14.825,-0.3216 -30.5,-0.46661 -16.24066,-0.15023 -32.45311,-0.81737 -37.69001,-1.55092 -6.80649,-0.95342 -10.30786,-1.00857 -13.5,-0.21265 -2.42344,0.60424 -13.57159,1.0567 -25.46887,1.03366 -11.63738,-0.0225 -25.36238,0.25654 -30.5,0.62017 -14.44697,1.02251 -25.50539,1.1458 -35.34112,0.39401 z m 193,-14.53641 c -2.2,-0.16431 -7.15,-0.74708 -11,-1.29506 -3.85,-0.54798 -10.37476,-1.22685 -14.49946,-1.5086 -4.12471,-0.28176 -10.12755,-1.02933 -13.33964,-1.66127 -3.60649,-0.70953 -10.49113,-0.93079 -18.00054,-0.57851 -13.29236,0.62358 -21.57699,-0.74718 -24.95956,-4.12975 -1.01846,-1.01846 -2.09709,-3.68093 -2.39696,-5.9166 -0.52627,-3.92368 -0.40749,-4.13512 3.42016,-6.08783 5.97797,-3.04974 9.91031,-8.18157 12.161,-15.87048 3.65048,-12.47094 4.38986,-18.73142 3.89883,-33.01194 -0.42498,-12.35972 -0.7842,-14.54943 -3.53362,-21.53967 -3.85848,-9.80996 -7.00031,-13.93524 -12.72302,-16.70556 C 372.46387,303.74956 371,302.41291 371,301.09874 c 0,-4.49782 6.16536,-3.16441 17.6734,3.82229 8.88643,5.39508 13.45944,10.49537 18.19983,20.2983 l 3.62677,7.5 0,16.01409 0,16.01409 -4.66658,9.65249 c -2.64839,5.478 -6.32575,11.31036 -8.50301,13.48591 -4.22758,4.22426 -16.91522,11.33342 -20.22664,11.33342 -2.95521,0 -2.61774,2.50318 0.64623,4.79337 4.02418,2.82359 8.91272,3.4911 26.75,3.65255 16.97186,0.15363 39.4016,1.83946 45.92254,3.45156 4.25344,1.05153 37.40347,0.68958 54.91604,-0.5996 12.87001,-0.94742 14.06322,-1.83569 15.16,-11.28566 0.87287,-7.52069 2.51622,-7.97643 1.91099,-0.52995 -0.49523,6.09302 -1.92091,10.58675 -3.72213,11.73207 -0.65309,0.41527 -5.01244,0.76532 -9.68744,0.7779 -4.675,0.0126 -11.23458,0.46675 -14.57684,1.00926 -6.20021,1.00643 -30.69239,1.85695 -37.92316,1.31693 z m -242.29296,-2.51139 c -0.56712,-0.56712 -4.54265,-1.22765 -8.83451,-1.46784 -12.45852,-0.69725 -9.80078,-1.241 5.7623,-1.1789 7.90084,0.0315 16.79195,-0.4422 19.75802,-1.0527 3.52564,-0.72568 12.18162,-0.90088 25,-0.50599 24.7331,0.76194 92.15573,-1.21099 95.64024,-2.79864 4.11228,-1.87368 2.25911,-3.262 -5.26155,-3.94173 -9.79803,-0.88556 -13.5801,-2.3535 -17.63903,-6.84624 -4.50879,-4.9907 -5.61973,-9.23728 -5.62849,-21.515 -0.005,-7.5082 -0.4428,-10.87213 -1.75557,-13.5 -1.75417,-3.51146 -2.38999,-3.80901 -11.99845,-5.61516 -1.93566,-0.36386 -2.25,-1.04897 -2.25,-4.90389 0,-4.43824 0.0327,-4.48095 3.4349,-4.48095 4.54909,0 8.34518,-1.52219 10.63248,-4.26352 1.57515,-1.88781 1.87469,-4.02937 1.92131,-13.73648 0.0636,-13.2414 1.61391,-18.07268 7.15246,-22.2894 5.55728,-4.23096 21.94148,-7.22797 24.65885,-4.5106 2.00965,2.00965 1.41874,2.72848 -4.33439,5.27279 -6.97632,3.08526 -8.43399,6.19912 -9.09227,19.42286 -0.69002,13.86116 -4.46491,19.47108 -15.72521,23.36949 -1.96174,0.67917 -3.61259,1.62954 -3.66856,2.11194 -0.056,0.48239 3.17356,2.50739 7.17673,4.5 10.02051,4.98778 10.9626,6.56785 12.01886,20.15795 1.20279,15.47544 2.38451,17.3736 11.32484,18.19076 2.89987,0.26506 3.00982,0.45966 3.29413,5.83057 0.25239,4.768 -0.0601,5.93856 -2.20225,8.25 -2.19977,2.37359 -3.30408,2.71266 -9.29413,2.85369 -3.73876,0.088 -9.38263,0.27429 -12.54194,0.41391 -3.1593,0.13963 -5.98773,-0.1402 -6.2854,-0.62183 -0.30493,-0.4934 -1.65382,-0.45269 -3.08973,0.0932 -1.40168,0.53292 -2.87309,0.76835 -3.2698,0.52317 -0.3967,-0.24518 -2.49644,-0.0353 -4.66608,0.46629 -3.91303,0.90473 -23.08299,1.15323 -54.04142,0.70055 -11.89046,-0.17387 -16.52865,-0.594 -17.75,-1.60781 -1.33843,-1.11101 -1.94354,-1.13164 -3.17659,-0.1083 -0.92743,0.7697 -4.74104,1.30652 -9.75,1.37245 -4.52474,0.0596 -8.52148,0.51558 -8.88166,1.01338 -0.96027,1.32719 -5.44151,1.59853 -6.63809,0.40195 z m 211.9773,-10.38035 c -2.49546,-1.11841 -3.23758,-2.02021 -3,-3.64549 0.23981,-1.64058 1.4275,-2.44203 4.94279,-3.33538 2.54492,-0.64675 5.17834,-1.51658 5.85203,-1.93294 C 436.5458,390.14594 438,384.19272 438,375.27169 c 0,-11.68685 1.66366,-15.97873 7.75879,-20.01598 2.51126,-1.66339 6.08244,-3.57272 7.93595,-4.24296 4.79029,-1.73219 3.82794,-3.90608 -2.54554,-5.75025 -9.04971,-2.61853 -13.14591,-9.39462 -13.15478,-21.76105 -0.01,-13.30964 -2.39946,-18.01754 -9.74769,-19.20191 -3.21751,-0.51859 -3.79355,-1.01264 -4.07817,-3.49771 l -0.33145,-2.89381 10.30874,0.67557 c 18.79021,1.23139 21.09936,3.96231 21.87761,25.87349 0.60833,17.12716 0.791,17.49041 9.68481,19.25923 4.68921,0.9326 5.85127,1.5562 6.10452,3.27586 0.5725,3.88752 -1.41225,5.92191 -6.31674,6.47472 -8.61564,0.9711 -11.17592,5.4826 -9.33361,16.44682 2.78089,16.54998 -3.42571,27.5352 -17.16244,30.37626 -8.4199,1.74142 -9.6484,1.77555 -12.81566,0.35605 z M 253,348.52873 l 0,-49.2713 2.25,-0.46708 c 3.06515,-0.63631 31.94038,-1.34591 33.5,-0.82325 1.92704,0.64578 1.47935,4.05912 -0.68426,5.21705 -1.06384,0.56935 -5.26908,1.03518 -9.34497,1.03518 l -7.41071,0 -0.65503,13.65811 C 270.29476,325.3894 270,344.93202 270,361.30549 l 0,29.76993 5.25,0.57859 c 2.8875,0.31822 7.24003,0.6881 9.67228,0.82195 4.54607,0.25018 5.68641,1.23033 4.18718,3.59898 -0.66146,1.04503 -4.8961,1.39793 -18.48375,1.54035 L 253,397.80003 z M 522.01531,387.636 c 0.008,-2.70417 0.46186,-5.59167 1.00764,-6.41667 0.69255,-1.04686 0.85833,0.26802 0.54877,4.35258 -0.55343,7.30245 -1.57695,8.65982 -1.55641,2.06409 z m 1.10105,-12.41667 c 0.0513,-4.15442 0.12248,-4.27617 0.92714,-1.58535 0.51399,1.71878 0.4912,3.5651 -0.0555,4.5 -0.66317,1.13397 -0.91133,0.30413 -0.8716,-2.91465 z M 362.38,323.76722 c -0.76867,-2.00314 0.37207,-3.54789 2.62,-3.54789 2.7529,0 3.59125,2.0945 1.46165,3.6517 -2.36435,1.72885 -3.38838,1.70281 -4.08165,-0.10381 z m -14.89851,-0.57784 c -0.38897,-0.62937 -0.25423,-1.59731 0.29942,-2.15096 1.42061,-1.42061 4.71909,-0.58562 4.71909,1.1946 0,1.79784 -4.02446,2.56476 -5.01851,0.95636 z"
       id="path2996"
       style="fill:#000000" />
  </g>
</svg>
