<?xml version="1.0" encoding="UTF-8" standalone="no"?>
<!-- Created with Inkscape (http://www.inkscape.org/) -->
<svg xmlns:dc="http://purl.org/dc/elements/1.1/" xmlns:cc="http://creativecommons.org/ns#" xmlns:rdf="http://www.w3.org/1999/02/22-rdf-syntax-ns#" xmlns:svg="http://www.w3.org/2000/svg" xmlns="http://www.w3.org/2000/svg" xmlns:xlink="http://www.w3.org/1999/xlink" version="1.1" width="289" height="289" id="svg2">
  <metadata id="metadata8">
    <rdf:RDF>
      <cc:Work rdf:about="">
        <dc:format>image/svg+xml</dc:format>
        <dc:type rdf:resource="http://purl.org/dc/dcmitype/StillImage"/>
        <dc:title/>
      </cc:Work>
    </rdf:RDF>
  </metadata>
  <defs id="defs6"/>
  <path d="m 288.5,0 0,289 m -36,-289 0,289 m -36,-289 0,289 m -36,-289 0,289 m -36,-289 0,289 m -36,-289 0,289 m -36,-289 0,289 m -36,-289 0,289 M 0.5,0 l 0,289 m -0.5,-0.5 289,0 m -289,-36 289,0 m -289,-36 289,0 m -289,-36 289,0 m -289,-36 289,0 m -289,-36 289,0 m -289,-36 289,0 m -289,-36 289,0 M 0,0.5 l 289,0" id="path3023" style="fill:none;stroke:#000000;stroke-width:1px;stroke-linecap:butt;stroke-linejoin:miter;stroke-opacity:1"/>
  <text x="270.49988" y="66.5" id="text3027" xml:space="preserve" style="font-size:32px;font-style:normal;font-variant:normal;font-weight:bold;font-stretch:normal;text-align:center;line-height:120.00000477%;letter-spacing:0px;word-spacing:0px;text-anchor:middle;fill:#000000;fill-opacity:1;stroke:none;font-family:Liberation Sans;-inkscape-font-specification:Liberation Sans Bold"><tspan x="270.49988" y="66.5" id="tspan3029">4</tspan></text>
  <text x="162.49962" y="66.5" id="text3031" xml:space="preserve" style="font-size:32px;font-style:normal;font-variant:normal;font-weight:bold;font-stretch:normal;text-align:center;line-height:120.00000477%;letter-spacing:0px;word-spacing:0px;text-anchor:middle;fill:#000000;fill-opacity:1;stroke:none;font-family:Liberation Sans;-inkscape-font-specification:Sans Bold"><tspan x="162.49962" y="66.5" id="tspan3033">1</tspan></text>
  <text x="198.5" y="30.5" id="text3035" xml:space="preserve" style="font-size:32px;font-style:normal;font-variant:normal;font-weight:bold;font-stretch:normal;text-align:center;line-height:120.00000477%;letter-spacing:0px;word-spacing:0px;text-anchor:middle;fill:#000000;fill-opacity:1;stroke:none;font-family:Liberation Sans;-inkscape-font-specification:Sans Bold"><tspan x="198.5" y="30.5" id="tspan3037">2</tspan></text>
  <text x="162.5" y="30.5" id="text3039" xml:space="preserve" style="font-size:32px;font-style:normal;font-variant:normal;font-weight:bold;font-stretch:normal;text-align:center;line-height:120.00000477%;letter-spacing:0px;word-spacing:0px;text-anchor:middle;fill:#000000;fill-opacity:1;stroke:none;font-family:Liberation Sans;-inkscape-font-specification:Sans Bold"><tspan x="162.5" y="30.5" id="tspan3041">3</tspan></text>
  <text x="234.49988" y="66.500504" id="text3043" xml:space="preserve" style="font-size:32px;font-style:normal;font-variant:normal;font-weight:bold;font-stretch:normal;text-align:center;line-height:120.00000477%;letter-spacing:0px;word-spacing:0px;text-anchor:middle;fill:#000000;fill-opacity:1;stroke:none;font-family:Liberation Sans;-inkscape-font-specification:Sans Bold"><tspan x="234.49988" y="66.500504" id="tspan3045">5</tspan></text>
  <text x="126.5" y="30.5" id="text3047" xml:space="preserve" style="font-size:32px;font-style:normal;font-variant:normal;font-weight:bold;font-stretch:normal;text-align:center;line-height:120.00000477%;letter-spacing:0px;word-spacing:0px;text-anchor:middle;fill:#000000;fill-opacity:1;stroke:none;font-family:Liberation Sans;-inkscape-font-specification:Sans Bold"><tspan x="126.5" y="30.5" id="tspan3049">6</tspan></text>
  <text x="270.5" y="30.5" id="text3051" xml:space="preserve" style="font-size:32px;font-style:normal;font-variant:normal;font-weight:bold;font-stretch:normal;text-align:center;line-height:120.00000477%;letter-spacing:0px;word-spacing:0px;text-anchor:middle;fill:#000000;fill-opacity:1;stroke:none;font-family:Liberation Sans;-inkscape-font-specification:Sans Bold"><tspan x="270.5" y="30.5" id="tspan3053">7</tspan></text>
  <text x="54.5" y="30.5" id="text3055" xml:space="preserve" style="font-size:32px;font-style:normal;font-variant:normal;font-weight:bold;font-stretch:normal;text-align:center;line-height:120.00000477%;letter-spacing:0px;word-spacing:0px;text-anchor:middle;fill:#000000;fill-opacity:1;stroke:none;font-family:Liberation Sans;-inkscape-font-specification:Sans Bold"><tspan x="54.5" y="30.5" id="tspan3057">8</tspan></text>
  <use transform="translate(-72,36)" id="use3067" x="0" y="0" width="289" height="289" xlink:href="#text3035"/>
  <use transform="translate(-144,36)" id="use3069" x="0" y="0" width="289" height="289" xlink:href="#text3039"/>
  <use transform="translate(-72,36)" id="use3073" x="0" y="0" width="289" height="289" xlink:href="#text3047"/>
  <use transform="translate(-180,36)" id="use3075" x="0" y="0" width="289" height="289" xlink:href="#text3051"/>
  <use transform="translate(-179.99988,35.999998)" id="use3085" x="0" y="0" width="289" height="289" xlink:href="#text3027"/>
  <use transform="translate(108.00038,36.000006)" id="use3087" x="0" y="0" width="289" height="289" xlink:href="#text3031"/>
  <use transform="translate(-108,72)" id="use3091" x="0" y="0" width="289" height="289" xlink:href="#text3039"/>
  <use transform="translate(144,72)" id="use3099" x="0" y="0" width="289" height="289" xlink:href="#text3055"/>
  <use transform="translate(-107.99962,72.000006)" id="use3103" x="0" y="0" width="289" height="289" xlink:href="#text3031"/>
  <use transform="translate(-36,72)" id="use3105" x="0" y="0" width="289" height="289" xlink:href="#text3035"/>
  <use transform="translate(72,108)" id="use3107" x="0" y="0" width="289" height="289" xlink:href="#text3039"/>
  <use transform="translate(-107.99986,71.999507)" id="use3109" x="0" y="0" width="289" height="289" xlink:href="#text3043"/>
  <use transform="translate(-108,108)" id="use3113" x="0" y="0" width="289" height="289" xlink:href="#text3051"/>
  <use transform="translate(-251.99988,71.999998)" id="use3117" x="0" y="0" width="289" height="289" xlink:href="#text3027"/>
  <use transform="translate(-72,144)" id="use3123" x="0" y="0" width="289" height="289" xlink:href="#text3039"/>
  <use transform="translate(108,72)" id="use3125" x="0" y="0" width="289" height="289" xlink:href="#text3047"/>
  <use transform="translate(108,144)" id="use3127" x="0" y="0" width="289" height="289" xlink:href="#text3055"/>
  <use transform="translate(216,216)" id="use3129" x="0" y="0" width="289" height="289" xlink:href="#text3055"/>
  <use transform="translate(-108,216)" id="use3135" x="0" y="0" width="289" height="289" xlink:href="#text3035"/>
  <use transform="translate(-179.99986,143.99951)" id="use3139" x="0" y="0" width="289" height="289" xlink:href="#text3043"/>
  <use transform="translate(-144,180)" id="use3141" x="0" y="0" width="289" height="289" xlink:href="#text3051"/>
  <use transform="translate(-36,252)" id="use3143" x="0" y="0" width="289" height="289" xlink:href="#text3055"/>
  <use transform="translate(72.000384,108.00001)" id="use3145" x="0" y="0" width="289" height="289" xlink:href="#text3031"/>
  <use transform="translate(-35.999862,107.99951)" id="use3151" x="0" y="0" width="289" height="289" xlink:href="#text3043"/>
  <use transform="translate(-36,180)" id="use3153" x="0" y="0" width="289" height="289" xlink:href="#text3047"/>
  <use transform="translate(-252,144)" id="use3155" x="0" y="0" width="289" height="289" xlink:href="#text3051"/>
  <use transform="translate(36.000384,144.00001)" id="use3159" x="0" y="0" width="289" height="289" xlink:href="#text3031"/>
  <use transform="translate(72,144)" id="use3161" x="0" y="0" width="289" height="289" xlink:href="#text3035"/>
  <use transform="translate(-108,216)" id="use3165" x="0" y="0" width="289" height="289" xlink:href="#text3047"/>
  <use transform="translate(180,180)" id="use3167" x="0" y="0" width="289" height="289" xlink:href="#text3055"/>
  <use transform="translate(36,252)" id="use3175" x="0" y="0" width="289" height="289" xlink:href="#text3039"/>
  <use transform="translate(-71.999862,179.99951)" id="use3177" x="0" y="0" width="289" height="289" xlink:href="#text3043"/>
  <use transform="translate(-36,216)" id="use3181" x="0" y="0" width="289" height="289" xlink:href="#text3051"/>
  <use transform="translate(-71.999876,180)" id="use3185" x="0" y="0" width="289" height="289" xlink:href="#text3027"/>
  <use transform="translate(144,252)" id="use3195" x="0" y="0" width="289" height="289" xlink:href="#text3047"/>
  <use transform="translate(-71.99962,216.00001)" id="use3201" x="0" y="0" width="289" height="289" xlink:href="#text3031"/>
  <use transform="translate(-36,216)" id="use3205" x="0" y="0" width="289" height="289" xlink:href="#text3039"/>
  <use transform="translate(-216,252)" id="use3211" x="0" y="0" width="289" height="289" xlink:href="#text3051"/>
  <use transform="translate(-143.99988,216)" id="use3213" x="0" y="0" width="289" height="289" xlink:href="#text3027"/>
  <rect width="36" height="36" x="0.5" y="0.5" id="rect3146" style="fill:#000000;fill-opacity:1;fill-rule:nonzero;stroke:none"/>
  <use transform="translate(72,0)" id="use3148" x="0" y="0" width="289" height="289" xlink:href="#rect3146"/>
  <use transform="translate(216,0)" id="use3150" x="0" y="0" width="289" height="289" xlink:href="#rect3146"/>
  <use transform="translate(180,36)" id="use3152" x="0" y="0" width="289" height="289" xlink:href="#rect3146"/>
  <use transform="translate(0,72)" id="use3154" x="0" y="0" width="289" height="289" xlink:href="#rect3146"/>
  <use transform="translate(108,72)" id="use3156" x="0" y="0" width="289" height="289" xlink:href="#rect3146"/>
  <use transform="translate(72,108)" id="use3158" x="0" y="0" width="289" height="289" xlink:href="#rect3146"/>
  <use transform="translate(180,108)" id="use3160" x="0" y="0" width="289" height="289" xlink:href="#rect3146"/>
  <use transform="translate(252,108)" id="use3162" x="0" y="0" width="289" height="289" xlink:href="#rect3146"/>
  <use transform="translate(36,144)" id="use3164" x="0" y="0" width="289" height="289" xlink:href="#rect3146"/>
  <use transform="translate(108,144)" id="use3166" x="0" y="0" width="289" height="289" xlink:href="#rect3146"/>
  <use transform="translate(0,180)" id="use3168" x="0" y="0" width="289" height="289" xlink:href="#rect3146"/>
  <use transform="translate(144,180)" id="use3170" x="0" y="0" width="289" height="289" xlink:href="#rect3146"/>
  <use transform="translate(252,180)" id="use3172" x="0" y="0" width="289" height="289" xlink:href="#rect3146"/>
  <use transform="translate(36,216)" id="use3174" x="0" y="0" width="289" height="289" xlink:href="#rect3146"/>
  <use transform="translate(144,252)" id="use3176" x="0" y="0" width="289" height="289" xlink:href="#rect3146"/>
  <use transform="translate(216,252)" id="use3178" x="0" y="0" width="289" height="289" xlink:href="#rect3146"/>
</svg>