<?xml version="1.0" encoding="UTF-8" standalone="no"?>
<!-- Created with Inkscape (http://www.inkscape.org/) -->
<svg xmlns:dc="http://purl.org/dc/elements/1.1/" xmlns:cc="http://creativecommons.org/ns#" xmlns:rdf="http://www.w3.org/1999/02/22-rdf-syntax-ns#" xmlns:svg="http://www.w3.org/2000/svg" xmlns="http://www.w3.org/2000/svg" version="1.1" width="384.46875" height="328.8125" id="svg2">
  <defs id="defs4"/>
  <metadata id="metadata7">
    <rdf:RDF>
      <cc:Work rdf:about="">
        <dc:format>image/svg+xml</dc:format>
        <dc:type rdf:resource="http://purl.org/dc/dcmitype/StillImage"/>
        <dc:title/>
      </cc:Work>
    </rdf:RDF>
  </metadata>
  <g transform="translate(-227.875,-515.28125)" id="layer1">
    <path d="m 396.03957,508.58885 c 0.24086,1.18497 0.48172,2.16349 0.72258,2.69549 0.88889,1.96331 1.77777,9.62501 2.66666,11.49255 0.88888,1.86753 1.77777,9.14615 2.66665,10.91792 0.88889,1.77177 1.77777,8.6673 2.66666,10.34329 0.88888,1.676 1.77777,8.18844 2.66665,9.76867 0.88889,1.58022 1.77777,7.70958 2.66666,9.19404 0.88888,1.48445 1.77777,7.23073 2.66665,8.61941 0.88889,1.38868 1.77777,6.75187 2.66666,8.04479 0.88888,1.29291 1.77777,6.27301 2.66665,7.47015 0.88889,1.19714 1.77777,5.79416 2.66666,6.89553 0.88888,1.10137 1.77777,5.31531 2.66665,6.3209 0.88889,1.0056 1.77777,4.83645 2.66666,5.74628 0.88887,0.90983 1.77777,4.35759 2.66665,5.17165 0.88889,0.81405 1.77777,3.87873 2.66666,4.59702 0.88887,0.71828 1.77776,3.39988 2.66665,4.02239 0.88889,0.62251 1.77776,2.92102 2.66665,3.44776 0.88888,0.52675 1.77777,2.44217 2.66665,2.87314 0.8889,0.43097 1.77777,1.96331 2.66666,2.29851 0.88888,0.3352 1.77777,1.48446 2.66665,1.72388 0.88889,0.23943 1.77777,1.0056 2.66666,1.14926 0.88888,0.14366 1.77777,0.52674 2.66665,0.57463 0.88889,0.0479 1.77777,0.0479 2.66666,0 0.88888,-0.0479 1.77777,-0.43097 2.66665,-0.57463 0.88889,-0.14366 1.77777,-0.90983 2.66665,-1.14926 0.88889,-0.23942 1.77777,-1.38868 2.66666,-1.72388 0.88888,-0.3352 1.77777,-1.86754 2.66665,-2.29851 0.88889,-0.43097 1.77777,-2.34639 2.66666,-2.87314 0.88888,-0.52674 1.77777,-2.82525 2.66665,-3.44776 0.88889,-0.62251 1.77777,-3.30411 2.66666,-4.02239 0.88888,-0.71829 1.77777,-3.78297 2.66665,-4.59702 0.88889,-0.81406 1.77777,-4.26182 2.66666,-5.17165 0.88888,-0.90983 1.77777,-4.74068 2.66665,-5.74628 0.88889,-1.00559 1.77777,-5.21953 2.66666,-6.3209 0.88888,-1.10137 1.77777,-5.69839 2.66665,-6.89553 0.88889,-1.19714 1.77777,-6.17724 2.66666,-7.47015 0.88888,-1.29292 1.77777,-6.65611 2.66665,-8.04479 0.88889,-1.38868 1.77777,-7.13496 2.66666,-8.61941 0.88888,-1.48446 1.77777,-7.61382 2.66665,-9.19404 0.88889,-1.58023 1.77777,-8.09267 2.66666,-9.76867 0.88888,-1.67599 1.77777,-8.57152 2.66665,-10.34329 0.88889,-1.77177 1.77777,-9.05039 2.66666,-10.91792 0.88888,-1.86754 1.77777,-9.52924 2.66665,-11.49255 0.2406,-0.53141 0.48119,-1.50837 0.72179,-2.69158" id="path3972" style="fill:none;stroke:#ff8400;stroke-width:5.26800013;stroke-miterlimit:4;stroke-opacity:1;stroke-dasharray:none;stroke-dashoffset:0"/>
    <path d="m 235.63886,508.9611 c 0.184,1.29274 0.368,2.34535 0.552,2.98964 0.88889,3.1126 1.77777,15.3713 2.66666,18.3881 0.88888,3.0168 1.77777,14.8925 2.66665,17.8135 0.88889,2.921 1.77777,14.4136 2.66666,17.2388 0.88888,2.8253 1.77777,13.9347 2.66665,16.6642 0.88889,2.7295 1.77777,13.4559 2.66666,16.0896 0.88888,2.6337 1.77777,12.977 2.66665,15.5149 0.88889,2.5379 1.77777,12.4982 2.66666,14.9403 0.88888,2.4422 1.77777,12.0193 2.66665,14.3657 0.88889,2.3464 1.77777,11.5404 2.66666,13.7911 0.88888,2.2506 1.77777,11.0616 2.66665,13.2164 0.88889,2.1549 1.77777,10.5827 2.66666,12.6418 0.88888,2.0591 1.77777,10.1039 2.66665,12.0672 0.88889,1.9633 1.77777,9.625 2.66666,11.4925 0.88888,1.8676 1.77777,9.1462 2.66665,10.918 0.88889,1.7717 1.77777,8.6673 2.66666,10.3433 0.88888,1.6759 1.77777,8.1884 2.66665,9.7686 0.88889,1.5802 1.77777,7.7096 2.66666,9.1941 0.88888,1.4844 1.77776,7.2307 2.66665,8.6194 0.88888,1.3887 1.77777,6.7518 2.66665,8.0448 0.88889,1.2929 1.77777,6.273 2.66666,7.4701 0.88888,1.1972 1.77777,5.7942 2.66665,6.8955 0.88889,1.1014 1.77777,5.3153 2.66666,6.3209 0.88888,1.0056 1.77777,4.8365 2.66665,5.7463 0.88889,0.9098 1.77777,4.3576 2.66666,5.1717 0.88888,0.814 1.77777,3.8787 2.66665,4.597 0.88889,0.7183 1.77777,3.3999 2.66666,4.0224 0.88888,0.6225 1.77777,2.921 2.66665,3.4477 0.88889,0.5268 1.77777,2.4422 2.66666,2.8732 0.88888,0.431 1.77777,1.9633 2.66665,2.2985 0.88889,0.3352 1.77777,1.4844 2.66666,1.7239 0.88888,0.2394 1.77777,1.0056 2.66665,1.1492 0.88889,0.1437 1.77777,0.5268 2.66666,0.5747 0.88888,0.048 1.77777,0.048 2.66665,0 0.88889,-0.048 1.77777,-0.431 2.66666,-0.5747 0.88888,-0.1436 1.77777,-0.9098 2.66665,-1.1492 0.88889,-0.2395 1.77777,-1.3887 2.66666,-1.7239 0.88888,-0.3352 1.77777,-1.8675 2.66665,-2.2985 0.88889,-0.431 1.77777,-2.3464 2.66666,-2.8732 0.88888,-0.5267 1.77777,-2.8252 2.66665,-3.4477 0.88889,-0.6225 1.77777,-3.3041 2.66666,-4.0224 0.88888,-0.7183 1.77777,-3.783 2.66665,-4.597 0.88889,-0.8141 1.77777,-4.2619 2.66666,-5.1717 0.88888,-0.9098 1.77777,-4.7407 2.66665,-5.7463 0.88889,-1.0056 1.77777,-5.2195 2.66666,-6.3209 0.88888,-1.1013 1.77777,-5.6983 2.66665,-6.8955 0.88889,-1.1971 1.77777,-6.1772 2.66666,-7.4701 0.88888,-1.293 1.77777,-6.6561 2.66665,-8.0448 0.88889,-1.3887 1.77777,-7.135 2.66665,-8.6194 0.88889,-1.4845 1.77777,-7.6139 2.66666,-9.1941 0.88888,-1.5802 1.77777,-8.0927 2.66665,-9.7686 0.88889,-1.676 1.77777,-8.5716 2.66666,-10.3433 0.88888,-1.7718 1.77777,-9.0504 2.66665,-10.918 0.88889,-1.8675 1.77777,-9.5292 2.66666,-11.4925 0.88888,-1.9633 1.77777,-10.0081 2.66665,-12.0672 0.88889,-2.0591 1.77777,-10.4869 2.66666,-12.6418 0.88888,-2.1548 1.77777,-10.9658 2.66665,-13.2164 0.88889,-2.2507 1.77777,-11.4447 2.66666,-13.7911 0.88888,-2.3464 1.77777,-11.9235 2.66665,-14.3657 0.88889,-2.4421 1.77777,-12.4024 2.66666,-14.9403 0.88888,-2.5379 1.77777,-12.8812 2.66665,-15.5149 0.88889,-2.6337 1.77777,-13.3601 2.66666,-16.0896 0.88888,-2.7295 1.77777,-13.8389 2.66665,-16.6642 0.88889,-2.8252 1.77777,-14.3178 2.66666,-17.2388 0.88888,-2.921 1.77777,-14.7967 2.66665,-17.8135 0.88889,-3.0168 1.77777,-15.2755 2.66666,-18.3881 0.18388,-0.64387 0.36776,-1.69554 0.55164,-2.98714" id="path3963" style="fill:none;stroke:#0000ff;stroke-width:5.26800013;stroke-miterlimit:4;stroke-opacity:1;stroke-dasharray:none;stroke-dashoffset:0"/>
    <path d="m 616.50773,700.93362 -394.63084,0" id="path3827-4" style="fill:none;stroke:#000000;stroke-width:2;stroke-linecap:butt;stroke-linejoin:miter;stroke-miterlimit:4;stroke-opacity:1;stroke-dasharray:none"/>
    <path d="m -146.55172,555.81049 a 6.8965516,6.8965516 0 1 1 -13.7931,0 6.8965516,6.8965516 0 1 1 13.7931,0 z" transform="translate(422.4138,145.12313)" id="path3851" style="fill:#0000ff;stroke:#0000ff;stroke-width:2;stroke-miterlimit:4;stroke-opacity:1;stroke-dasharray:none;stroke-dashoffset:0"/>
    <path d="m -146.55172,555.81049 a 6.8965516,6.8965516 0 1 1 -13.7931,0 6.8965516,6.8965516 0 1 1 13.7931,0 z" transform="translate(528.44827,145.12313)" id="path3851-0" style="fill:#0000ff;stroke:#0000ff;stroke-width:2;stroke-miterlimit:4;stroke-opacity:1;stroke-dasharray:none;stroke-dashoffset:0"/>
    <path d="m -146.55172,555.81049 a 6.8965516,6.8965516 0 1 1 -13.7931,0 6.8965516,6.8965516 0 1 1 13.7931,0 z" transform="translate(675.86207,144.82756)" id="path3851-9" style="fill:#800000;stroke:#800000;stroke-width:2;stroke-miterlimit:4;stroke-opacity:1;stroke-dasharray:none;stroke-dashoffset:0"/>
    <path d="m -146.55172,555.81049 a 6.8965516,6.8965516 0 1 1 -13.7931,0 6.8965516,6.8965516 0 1 1 13.7931,0 z" transform="matrix(0.5,0,0,0.5,535.48703,423.02838)" id="path3851-9-4" style="fill:#000000;stroke:#000000;stroke-width:2;stroke-miterlimit:4;stroke-opacity:1;stroke-dasharray:none;stroke-dashoffset:0"/>
    <text x="493.47751" y="687.4137" id="text3907" xml:space="preserve" style="font-size:22px;font-style:normal;font-variant:normal;font-weight:normal;font-stretch:normal;text-align:start;line-height:125%;letter-spacing:0px;word-spacing:0px;writing-mode:lr-tb;text-anchor:start;fill:#800000;fill-opacity:1;stroke:none;font-family:Corbel;-inkscape-font-specification:Corbel"><tspan x="493.47751" y="687.4137" id="tspan3909" style="font-style:normal;font-variant:normal;font-weight:normal;font-stretch:normal;fill:#800000;fill-opacity:1;font-family:DejaVu Sans;-inkscape-font-specification:DejaVu Sans">Δ = 0</tspan></text>
    <text x="500.83362" y="586.14368" id="text3907-8" xml:space="preserve" style="font-size:22px;font-style:normal;font-variant:normal;font-weight:normal;font-stretch:normal;text-align:start;line-height:125%;letter-spacing:0px;word-spacing:0px;writing-mode:lr-tb;text-anchor:start;fill:#ff8400;fill-opacity:1;stroke:none;font-family:Corbel;-inkscape-font-specification:Corbel"><tspan x="500.83362" y="586.14368" id="tspan3909-8" style="font-style:normal;font-variant:normal;font-weight:normal;font-stretch:normal;fill:#ff8400;fill-opacity:1;font-family:DejaVu Sans;-inkscape-font-specification:DejaVu Sans">Δ &lt; 0</tspan></text>
    <text x="292.76273" y="683.0509" id="text3907-8-2" xml:space="preserve" style="font-size:22px;font-style:normal;font-variant:normal;font-weight:normal;font-stretch:normal;text-align:start;line-height:125%;letter-spacing:0px;word-spacing:0px;writing-mode:lr-tb;text-anchor:start;fill:#0000ff;fill-opacity:1;stroke:none;font-family:Corbel;-inkscape-font-specification:Corbel"><tspan x="292.76273" y="683.0509" id="tspan3909-8-4" style="font-style:normal;font-variant:normal;font-weight:normal;font-stretch:normal;fill:#0000ff;fill-opacity:1;font-family:DejaVu Sans;-inkscape-font-specification:DejaVu Sans">Δ &gt; 0</tspan></text>
    <path d="m 458.76289,507.60306 0,341.06464" id="path3827-1" style="fill:none;stroke:#000000;stroke-width:2;stroke-linecap:butt;stroke-linejoin:miter;stroke-miterlimit:4;stroke-opacity:1;stroke-dasharray:none"/>
    <path d="m 462.92456,847.95403 c 0.21571,-1.118 0.43142,-2.03291 0.64713,-2.55582 0.88889,-2.1549 1.77777,-10.5827 2.66666,-12.6418 0.88888,-2.0591 1.77777,-10.1039 2.66665,-12.0672 0.88889,-1.9633 1.77777,-9.625 2.66666,-11.4925 0.88888,-1.8676 1.77777,-9.1462 2.66665,-10.918 0.88889,-1.7717 1.77777,-8.6673 2.66666,-10.3433 0.88888,-1.6759 1.77777,-8.1884 2.66665,-9.7686 0.88889,-1.5802 1.77777,-7.7096 2.66666,-9.1941 0.88888,-1.4844 1.77776,-7.2307 2.66665,-8.6194 0.88888,-1.3887 1.77777,-6.7518 2.66665,-8.0448 0.88889,-1.2929 1.77777,-6.273 2.66666,-7.4701 0.88888,-1.1972 1.77777,-5.7942 2.66665,-6.8955 0.88889,-1.1014 1.77777,-5.3153 2.66666,-6.3209 0.88888,-1.0056 1.77777,-4.8365 2.66665,-5.7463 0.88889,-0.9098 1.77777,-4.3576 2.66666,-5.1717 0.88888,-0.814 1.77777,-3.8787 2.66665,-4.597 0.88889,-0.7183 1.77777,-3.3999 2.66666,-4.0224 0.88888,-0.6225 1.77777,-2.921 2.66665,-3.4477 0.88889,-0.5268 1.77777,-2.4422 2.66666,-2.8732 0.88888,-0.431 1.77777,-1.9633 2.66665,-2.2985 0.88889,-0.3352 1.77777,-1.4844 2.66666,-1.7239 0.88888,-0.2394 1.77777,-1.0056 2.66665,-1.1492 0.88889,-0.1437 1.77777,-0.5268 2.66666,-0.5747 0.88888,-0.048 1.77777,-0.048 2.66665,0 0.88889,0.048 1.77777,0.431 2.66666,0.5747 0.88888,0.1436 1.77777,0.9098 2.66665,1.1492 0.88889,0.2395 1.77777,1.3887 2.66666,1.7239 0.88888,0.3352 1.77777,1.8675 2.66665,2.2985 0.88889,0.431 1.77777,2.3464 2.66666,2.8732 0.88888,0.5267 1.77777,2.8252 2.66665,3.4477 0.88889,0.6225 1.77777,3.3041 2.66666,4.0224 0.88888,0.7183 1.77777,3.783 2.66665,4.597 0.88889,0.8141 1.77777,4.2619 2.66666,5.1717 0.88888,0.9098 1.77777,4.7407 2.66665,5.7463 0.88889,1.0056 1.77777,5.2195 2.66666,6.3209 0.88888,1.1013 1.77777,5.6983 2.66665,6.8955 0.88889,1.1971 1.77777,6.1772 2.66666,7.4701 0.88888,1.293 1.77777,6.6561 2.66665,8.0448 0.88889,1.3887 1.77777,7.135 2.66665,8.6194 0.88889,1.4845 1.77777,7.6139 2.66666,9.1941 0.88888,1.5802 1.77777,8.0927 2.66665,9.7686 0.88889,1.676 1.77777,8.5716 2.66666,10.3433 0.88888,1.7718 1.77777,9.0504 2.66665,10.918 0.88889,1.8675 1.77777,9.5292 2.66666,11.4925 0.88888,1.9633 1.77777,10.0081 2.66665,12.0672 0.88889,2.0591 1.77777,10.4869 2.66666,12.6418 0.21592,0.52342 0.43184,1.4396 0.64776,2.5591" id="path4015" style="fill:none;stroke:#800000;stroke-width:5.26800013;stroke-miterlimit:4;stroke-opacity:1;stroke-dasharray:none;stroke-dashoffset:0"/>
  </g>
</svg>