<?xml version="1.0" encoding="UTF-8" standalone="no"?>
<!DOCTYPE svg PUBLIC "-//W3C//DTD SVG 1.0//EN" "http://www.w3.org/TR/2001/PR-SVG-20010719/DTD/svg10.dtd">
<svg viewBox="278 198 223 513" xmlns="http://www.w3.org/2000/svg" xmlns:xlink="http://www.w3.org/1999/xlink">
  <g>
    <path style="fill: #90ee90" d="M 306.95 200 L 334.75,200 C 338.588,200 341.7,208.954 341.7,220 C 341.7,231.046 338.588,240 334.75,240 L 306.95,240 C 303.112,240 300,231.046 300,220 C 300,208.954 303.112,200 306.95,200z"/>
    <path style="fill: none; fill-opacity:0; stroke-width: 2; stroke: #000000" d="M 306.95 200 L 334.75,200 C 338.588,200 341.7,208.954 341.7,220 C 341.7,231.046 338.588,240 334.75,240 L 306.95,240 C 303.112,240 300,231.046 300,220 C 300,208.954 303.112,200 306.95,200"/>
    <text font-size="10.5438" style="fill: #000000;text-anchor:middle;font-family:sans-serif;font-style:normal;font-weight:normal" x="320.85" y="223.295">
      <tspan x="320.85" y="223.295"></tspan>
    </text>
  </g>
  <g>
    <polygon style="fill: #ffff00" points="320.451,330 360.902,360 320.451,390 280,360 "/>
    <polygon style="fill: none; fill-opacity:0; stroke-width: 2; stroke: #000000" points="320.451,330 360.902,360 320.451,390 280,360 "/>
    <text font-size="12.8" style="fill: #000000;text-anchor:middle;font-family:sans-serif;font-style:normal;font-weight:normal" x="320.451" y="363.9">
      <tspan x="320.451" y="363.9"></tspan>
    </text>
  </g>
  <g>
    <polygon style="fill: #ffc0cb" points="394.559,620 462.832,620 448.274,660 380,660 "/>
    <polygon style="fill: none; fill-opacity:0; stroke-width: 2; stroke: #000000" points="394.559,620 462.832,620 448.274,660 380,660 "/>
    <text font-size="12.8" style="fill: #000000;text-anchor:middle;font-family:sans-serif;font-style:normal;font-weight:normal" x="421.416" y="643.9">
      <tspan x="421.416" y="643.9">'error'</tspan>
    </text>
  </g>
  <g>
    <path style="fill: #a52a2a" d="M 466.667 670 L 493.333,670 C 497.015,670 500,678.954 500,690 C 500,701.046 497.015,710 493.333,710 L 466.667,710 C 462.985,710 460,701.046 460,690 C 460,678.954 462.985,670 466.667,670z"/>
    <path style="fill: none; fill-opacity:0; stroke-width: 2; stroke: #000000" d="M 466.667 670 L 493.333,670 C 497.015,670 500,678.954 500,690 C 500,701.046 497.015,710 493.333,710 L 466.667,710 C 462.985,710 460,701.046 460,690 C 460,678.954 462.985,670 466.667,670"/>
    <text font-size="10.5438" style="fill: #000000;text-anchor:middle;font-family:sans-serif;font-style:normal;font-weight:normal" x="480" y="693.295">
      <tspan x="480" y="693.295"></tspan>
    </text>
  </g>
  <text font-size="12.8" style="fill: #000000;text-anchor:middle;font-family:sans-serif;font-style:normal;font-weight:normal" x="300" y="394.425">
    <tspan x="300" y="394.425">False</tspan>
  </text>
  <text font-size="12.8" style="fill: #000000;text-anchor:middle;font-family:sans-serif;font-style:normal;font-weight:normal" x="360" y="344.425">
    <tspan x="360" y="344.425">True</tspan>
  </text>
  <g>
    <polygon style="fill: #ffc0cb" points="394.559,550 460,550 445.441,590 380,590 "/>
    <polygon style="fill: none; fill-opacity:0; stroke-width: 2; stroke: #000000" points="394.559,550 460,550 445.441,590 380,590 "/>
    <text font-size="12.8" style="fill: #000000;text-anchor:middle;font-family:sans-serif;font-style:normal;font-weight:normal" x="420" y="573.9">
      <tspan x="420" y="573.9">a / b</tspan>
    </text>
  </g>
  <g>
    <line style="fill: none; fill-opacity:0; stroke-width: 2; stroke: #000000" x1="361" y1="570" x2="376.902" y2="570"/>
    <polygon style="fill: #000000" points="384.402,570 374.402,575 376.902,570 374.402,565 "/>
    <polygon style="fill: none; fill-opacity:0; stroke-width: 2; stroke: #000000" points="384.402,570 374.402,575 376.902,570 374.402,565 "/>
  </g>
  <g>
    <polygon style="fill: #ffc0cb" points="394.559,340 460,340 445.441,380 380,380 "/>
    <polygon style="fill: none; fill-opacity:0; stroke-width: 2; stroke: #000000" points="394.559,340 460,340 445.441,380 380,380 "/>
    <text font-size="12.8" style="fill: #000000;text-anchor:middle;font-family:sans-serif;font-style:normal;font-weight:normal" x="420" y="363.9">
      <tspan x="420" y="363.9">a + b</tspan>
    </text>
  </g>
  <g>
    <line style="fill: none; fill-opacity:0; stroke-width: 2; stroke: #000000" x1="361.902" y1="360" x2="376.907" y2="360"/>
    <polygon style="fill: #000000" points="384.407,360 374.407,365 376.907,360 374.407,355 "/>
    <polygon style="fill: none; fill-opacity:0; stroke-width: 2; stroke: #000000" points="384.407,360 374.407,365 376.907,360 374.407,355 "/>
  </g>
  <g>
    <line style="fill: none; fill-opacity:0; stroke-width: 2; stroke: #000000" x1="320.252" y1="390.847" x2="320.261" y2="389.417"/>
    <polygon style="fill: #000000" points="320.213,396.917 315.278,386.885 320.261,389.417 325.277,386.949 "/>
    <polygon style="fill: none; fill-opacity:0; stroke-width: 2; stroke: #000000" points="320.213,396.917 315.278,386.885 320.261,389.417 325.277,386.949 "/>
  </g>
  <g>
    <polygon style="fill: #add8e6" points="294.559,260 361.432,260 346.874,300 280,300 "/>
    <polygon style="fill: none; fill-opacity:0; stroke-width: 2; stroke-dasharray: 10; stroke: #000000" points="294.559,260 361.432,260 346.874,300 280,300 "/>
    <text font-size="12.8" style="fill: #000000;text-anchor:middle;font-family:sans-serif;font-style:normal;font-weight:normal" x="320.716" y="283.9">
      <tspan x="320.716" y="283.9">a, b, op ?</tspan>
    </text>
  </g>
  <g>
    <line style="fill: none; fill-opacity:0; stroke-width: 2; stroke: #000000" x1="320.803" y1="240.991" x2="320.785" y2="249.273"/>
    <polygon style="fill: #000000" points="320.768,256.773 315.79,246.762 320.785,249.273 325.79,246.784 "/>
    <polygon style="fill: none; fill-opacity:0; stroke-width: 2; stroke: #000000" points="320.768,256.773 315.79,246.762 320.785,249.273 325.79,246.784 "/>
  </g>
  <g>
    <polygon style="fill: #ffff00" points="320,540 360,570 320,600 280,570 "/>
    <polygon style="fill: none; fill-opacity:0; stroke-width: 2; stroke: #000000" points="320,540 360,570 320,600 280,570 "/>
    <text font-size="10.5438" style="fill: #000000;text-anchor:middle;font-family:sans-serif;font-style:normal;font-weight:normal" x="320" y="573.21">
      <tspan x="320" y="573.21"></tspan>
    </text>
  </g>
  <g>
    <path style="fill: none; fill-opacity:0; stroke-width: 2; stroke: #000000" d="M 319.879 600.867 C 319.805,619.767 325.282,640 376.962,640"/>
    <polygon style="fill: #000000" points="384.462,640 374.462,645 376.962,640 374.462,635 "/>
    <polygon style="fill: none; fill-opacity:0; stroke-width: 2; stroke: #000000" points="384.462,640 374.462,645 376.962,640 374.462,635 "/>
  </g>
  <text font-size="12.8" style="fill: #000000;text-anchor:middle;font-family:sans-serif;font-style:normal;font-weight:normal" x="300" y="464.425">
    <tspan x="300" y="464.425">False</tspan>
  </text>
  <text font-size="12.8" style="fill: #000000;text-anchor:middle;font-family:sans-serif;font-style:normal;font-weight:normal" x="360" y="414.425">
    <tspan x="360" y="414.425">True</tspan>
  </text>
  <g>
    <line style="fill: none; fill-opacity:0; stroke-width: 2; stroke: #000000" x1="320.647" y1="300.977" x2="320.585" y2="319.483"/>
    <polygon style="fill: #000000" points="320.56,326.983 315.594,316.966 320.585,319.483 325.593,316.999 "/>
    <polygon style="fill: none; fill-opacity:0; stroke-width: 2; stroke: #000000" points="320.56,326.983 315.594,316.966 320.585,319.483 325.593,316.999 "/>
  </g>
  <g>
    <polygon style="fill: #ffff00" points="320,400 360,430 320,460 280,430 "/>
    <polygon style="fill: none; fill-opacity:0; stroke-width: 2; stroke: #000000" points="320,400 360,430 320,460 280,430 "/>
    <text font-size="12.8" style="fill: #000000;text-anchor:middle;font-family:sans-serif;font-style:normal;font-weight:normal" x="320" y="433.9">
      <tspan x="320" y="433.9"></tspan>
    </text>
  </g>
  <g>
    <polygon style="fill: #ffff00" points="320,470 360,500 320,530 280,500 "/>
    <polygon style="fill: none; fill-opacity:0; stroke-width: 2; stroke: #000000" points="320,470 360,500 320,530 280,500 "/>
    <text font-size="12.8" style="fill: #000000;text-anchor:middle;font-family:sans-serif;font-style:normal;font-weight:normal" x="320" y="503.9">
      <tspan x="320" y="503.9"></tspan>
    </text>
  </g>
  <g>
    <line style="fill: none; fill-opacity:0; stroke-width: 2; stroke: #000000" x1="320" y1="461" x2="320" y2="459.264"/>
    <polygon style="fill: #000000" points="320,466.764 315,456.764 320,459.264 325,456.764 "/>
    <polygon style="fill: none; fill-opacity:0; stroke-width: 2; stroke: #000000" points="320,466.764 315,456.764 320,459.264 325,456.764 "/>
  </g>
  <g>
    <polygon style="fill: #ffc0cb" points="394.559,410 460,410 445.441,450 380,450 "/>
    <polygon style="fill: none; fill-opacity:0; stroke-width: 2; stroke: #000000" points="394.559,410 460,410 445.441,450 380,450 "/>
    <text font-size="12.8" style="fill: #000000;text-anchor:middle;font-family:sans-serif;font-style:normal;font-weight:normal" x="420" y="433.9">
      <tspan x="420" y="433.9">a - b</tspan>
    </text>
  </g>
  <g>
    <line style="fill: none; fill-opacity:0; stroke-width: 2; stroke: #000000" x1="361" y1="430" x2="376.902" y2="430"/>
    <polygon style="fill: #000000" points="384.402,430 374.402,435 376.902,430 374.402,425 "/>
    <polygon style="fill: none; fill-opacity:0; stroke-width: 2; stroke: #000000" points="384.402,430 374.402,435 376.902,430 374.402,425 "/>
  </g>
  <g>
    <polygon style="fill: #ffc0cb" points="394.559,480 460,480 445.441,520 380,520 "/>
    <polygon style="fill: none; fill-opacity:0; stroke-width: 2; stroke: #000000" points="394.559,480 460,480 445.441,520 380,520 "/>
    <text font-size="12.8" style="fill: #000000;text-anchor:middle;font-family:sans-serif;font-style:normal;font-weight:normal" x="420" y="503.9">
      <tspan x="420" y="503.9">a * b</tspan>
    </text>
  </g>
  <g>
    <line style="fill: none; fill-opacity:0; stroke-width: 2; stroke: #000000" x1="361" y1="500" x2="376.902" y2="500"/>
    <polygon style="fill: #000000" points="384.402,500 374.402,505 376.902,500 374.402,495 "/>
    <polygon style="fill: none; fill-opacity:0; stroke-width: 2; stroke: #000000" points="384.402,500 374.402,505 376.902,500 374.402,495 "/>
  </g>
  <g>
    <line style="fill: none; fill-opacity:0; stroke-width: 2; stroke: #000000" x1="320" y1="531" x2="320" y2="529.264"/>
    <polygon style="fill: #000000" points="320,536.764 315,526.764 320,529.264 325,526.764 "/>
    <polygon style="fill: none; fill-opacity:0; stroke-width: 2; stroke: #000000" points="320,536.764 315,526.764 320,529.264 325,526.764 "/>
  </g>
  <text font-size="12.8" style="fill: #000000;text-anchor:middle;font-family:sans-serif;font-style:normal;font-weight:normal" x="360" y="484.425">
    <tspan x="360" y="484.425">True</tspan>
  </text>
  <text font-size="12.8" style="fill: #000000;text-anchor:middle;font-family:sans-serif;font-style:normal;font-weight:normal" x="360" y="554.425">
    <tspan x="360" y="554.425">True</tspan>
  </text>
  <text font-size="12.8" style="fill: #000000;text-anchor:middle;font-family:sans-serif;font-style:normal;font-weight:normal" x="300" y="534.425">
    <tspan x="300" y="534.425">False</tspan>
  </text>
  <text font-size="12.8" style="fill: #000000;text-anchor:middle;font-family:sans-serif;font-style:normal;font-weight:normal" x="300" y="614.425">
    <tspan x="300" y="614.425">False</tspan>
  </text>
  <g>
    <line style="fill: none; fill-opacity:0; stroke-width: 2; stroke: #000000" x1="480" y1="400" x2="480" y2="659.263"/>
    <polygon style="fill: #000000" points="480,666.763 475,656.763 480,659.263 485,656.763 "/>
    <polygon style="fill: none; fill-opacity:0; stroke-width: 2; stroke: #000000" points="480,666.763 475,656.763 480,659.263 485,656.763 "/>
  </g>
  <g>
    <line style="fill: none; fill-opacity:0; stroke-width: 2; stroke: #000000" x1="453.354" y1="430" x2="470.264" y2="430"/>
    <polygon style="fill: #000000" points="477.764,430 467.764,435 470.264,430 467.764,425 "/>
    <polygon style="fill: none; fill-opacity:0; stroke-width: 2; stroke: #000000" points="477.764,430 467.764,435 470.264,430 467.764,425 "/>
  </g>
  <g>
    <line style="fill: none; fill-opacity:0; stroke-width: 2; stroke: #000000" x1="453.354" y1="500" x2="470.264" y2="500"/>
    <polygon style="fill: #000000" points="477.764,500 467.764,505 470.264,500 467.764,495 "/>
    <polygon style="fill: none; fill-opacity:0; stroke-width: 2; stroke: #000000" points="477.764,500 467.764,505 470.264,500 467.764,495 "/>
  </g>
  <g>
    <line style="fill: none; fill-opacity:0; stroke-width: 2; stroke: #000000" x1="453.354" y1="570" x2="470.264" y2="570"/>
    <polygon style="fill: #000000" points="477.764,570 467.764,575 470.264,570 467.764,565 "/>
    <polygon style="fill: none; fill-opacity:0; stroke-width: 2; stroke: #000000" points="477.764,570 467.764,575 470.264,570 467.764,565 "/>
  </g>
  <g>
    <line style="fill: none; fill-opacity:0; stroke-width: 2; stroke: #000000" x1="455.285" y1="640" x2="470.264" y2="640"/>
    <polygon style="fill: #000000" points="477.764,640 467.764,645 470.264,640 467.764,635 "/>
    <polygon style="fill: none; fill-opacity:0; stroke-width: 2; stroke: #000000" points="477.764,640 467.764,645 470.264,640 467.764,635 "/>
  </g>
  <path style="fill: none; fill-opacity:0; stroke-width: 2; stroke: #000000" d="M 453.353 360 C 473.353,360 480,380 480,400"/>
  <text font-size="12.8" style="fill: #000000;text-anchor:middle;font-family:sans-serif;font-style:normal;font-weight:normal" x="320.45" y="364.425">
    <tspan x="320.45" y="364.425">op=='+'</tspan>
  </text>
  <text font-size="12.8" style="fill: #000000;text-anchor:middle;font-family:sans-serif;font-style:normal;font-weight:normal" x="320" y="434.425">
    <tspan x="320" y="434.425">op=='-'</tspan>
  </text>
  <text font-size="12.8" style="fill: #000000;text-anchor:middle;font-family:sans-serif;font-style:normal;font-weight:normal" x="320" y="504.425">
    <tspan x="320" y="504.425">op=='*'</tspan>
  </text>
  <text font-size="10.16" style="fill: #000000;text-anchor:middle;font-family:sans-serif;font-style:normal;font-weight:normal" x="320" y="567.175">
    <tspan x="320" y="567.175">op=='/'</tspan>
    <tspan x="320" y="579.875">and b!=0</tspan>
  </text>
  <text font-size="12.8" style="fill: #000000;text-anchor:middle;font-family:sans-serif;font-style:normal;font-weight:normal" x="320.85" y="224.425">
    <tspan x="320.85" y="224.425">Start</tspan>
  </text>
  <text font-size="12.8" style="fill: #000000;text-anchor:middle;font-family:sans-serif;font-style:normal;font-weight:normal" x="480" y="694.425">
    <tspan x="480" y="694.425">Stop</tspan>
  </text>
</svg>
