<?xml version="1.0" encoding="UTF-8" standalone="no"?>
<!DOCTYPE svg PUBLIC "-//W3C//DTD SVG 1.0//EN" "http://www.w3.org/TR/2001/PR-SVG-20010719/DTD/svg10.dtd">
<svg width="12cm" height="18cm" viewBox="258 37 223 345" xmlns="http://www.w3.org/2000/svg" xmlns:xlink="http://www.w3.org/1999/xlink">
  <g id="Background">
    <g>
      <path style="fill: #90ee90; fill-opacity: 1; stroke-opacity: 1; stroke-width: 2; stroke: #000000" fill-rule="evenodd" d="M 290 40 L 330,40 C 335.523,40 340,48.9543 340,60 C 340,71.0457 335.523,80 330,80 L 290,80 C 284.477,80 280,71.0457 280,60 C 280,48.9543 284.477,40 290,40z"/>
      <text font-size="12.8" style="fill: #000000; fill-opacity: 1; stroke: none;text-anchor:middle;font-family:sans-serif;font-style:normal;font-weight:normal" x="310" y="64">
        <tspan x="310" y="64">Start</tspan>
      </text>
    </g>
    <g>
      <rect style="fill: #bfbfbf; fill-opacity: 1; stroke-opacity: 1; stroke-width: 2; stroke: #000000" x="260" y="160" width="100" height="40" rx="0" ry="0"/>
      <text font-size="12.8" style="fill: #000000; fill-opacity: 1; stroke: none;text-anchor:middle;font-family:sans-serif;font-style:normal;font-weight:normal" x="310" y="183.9">
        <tspan x="310" y="183.9">count = 1</tspan>
      </text>
    </g>
    <g>
      <polygon style="fill: #add8e6; fill-opacity: 1; stroke-opacity: 1; stroke-width: 2; stroke-dasharray: 10; stroke: #000000" fill-rule="evenodd" points="274.559,100 360,100 345.441,140 260,140 "/>
      <text font-size="12.8" style="fill: #000000; fill-opacity: 1; stroke: none;text-anchor:middle;font-family:sans-serif;font-style:normal;font-weight:normal" x="310" y="123.9">
        <tspan x="310" y="123.9">n ?</tspan>
      </text>
    </g>
    <g>
      <line style="fill: none; stroke-opacity: 1; stroke-width: 2; stroke: #000000" x1="310" y1="80" x2="310" y2="89.2874"/>
      <polygon style="fill: #000000; fill-opacity: 1; stroke-opacity: 1; stroke-width: 2; stroke: #000000" fill-rule="evenodd" points="310,96.7874 305,86.7874 310,89.2874 315,86.7874 "/>
    </g>
    <g>
      <line style="fill: none; stroke-opacity: 1; stroke-width: 2; stroke: #000000" x1="310" y1="140.991" x2="310" y2="149.273"/>
      <polygon style="fill: #000000; fill-opacity: 1; stroke-opacity: 1; stroke-width: 2; stroke: #000000" fill-rule="evenodd" points="310,156.773 305,146.773 310,149.273 315,146.773 "/>
    </g>
    <g>
      <polygon style="fill: #ffff00; fill-opacity: 1; stroke-opacity: 1; stroke-width: 2; stroke: #000000" fill-rule="evenodd" points="310,240 360,280 310,320 260,280 "/>
      <text font-size="12.8" style="fill: #000000; fill-opacity: 1; stroke: none;text-anchor:middle;font-family:sans-serif;font-style:normal;font-weight:normal" x="310" y="283.9">
        <tspan x="310" y="283.9">count &lt;= n</tspan>
      </text>
    </g>
    <g>
      <rect style="fill: #bfbfbf; fill-opacity: 1; stroke-opacity: 1; stroke-width: 2; stroke: #000000" x="380" y="200" width="100.5" height="40" rx="0" ry="0"/>
      <text font-size="12.8" style="fill: #000000; fill-opacity: 1; stroke: none;text-anchor:middle;font-family:sans-serif;font-style:normal;font-weight:normal" x="430.25" y="223.9">
        <tspan x="430.25" y="223.9">count += 1</tspan>
      </text>
    </g>
    <g>
      <line style="fill: none; stroke-opacity: 1; stroke-width: 2; stroke: #000000" x1="361" y1="280" x2="377.021" y2="280"/>
      <polygon style="fill: #000000; fill-opacity: 1; stroke-opacity: 1; stroke-width: 2; stroke: #000000" fill-rule="evenodd" points="384.521,280 374.521,285 377.021,280 374.521,275 "/>
    </g>
    <g>
      <line style="fill: none; stroke-opacity: 1; stroke-width: 2; stroke: #000000" x1="310" y1="201.002" x2="310" y2="229.264"/>
      <polygon style="fill: #000000; fill-opacity: 1; stroke-opacity: 1; stroke-width: 2; stroke: #000000" fill-rule="evenodd" points="310,236.764 305,226.764 310,229.264 315,226.764 "/>
    </g>
    <g>
      <line style="fill: none; stroke-opacity: 1; stroke-width: 2; stroke: #000000" x1="310" y1="321" x2="310" y2="329.287"/>
      <polygon style="fill: #000000; fill-opacity: 1; stroke-opacity: 1; stroke-width: 2; stroke: #000000" fill-rule="evenodd" points="310,336.787 305,326.787 310,329.287 315,326.787 "/>
    </g>
    <g>
      <path style="fill: #a52a2a; fill-opacity: 1; stroke-opacity: 1; stroke-width: 2; stroke: #000000" fill-rule="evenodd" d="M 290 340 L 330,340 C 335.523,340 340,348.954 340,360 C 340,371.046 335.523,380 330,380 L 290,380 C 284.477,380 280,371.046 280,360 C 280,348.954 284.477,340 290,340z"/>
      <text font-size="12.8" style="fill: #000000; fill-opacity: 1; stroke: none;text-anchor:middle;font-family:sans-serif;font-style:normal;font-weight:normal" x="310" y="364">
        <tspan x="310" y="364">Stop</tspan>
      </text>
    </g>
    <g>
      <line style="fill: none; stroke-opacity: 1; stroke-width: 2; stroke: #000000" x1="430.087" y1="259.009" x2="430.122" y2="250.727"/>
      <polygon style="fill: #000000; fill-opacity: 1; stroke-opacity: 1; stroke-width: 2; stroke: #000000" fill-rule="evenodd" points="430.153,243.227 435.111,253.248 430.122,250.727 425.111,253.206 "/>
    </g>
    <text font-size="12.8" style="fill: #000000; fill-opacity: 1; stroke: none;text-anchor:middle;font-family:sans-serif;font-style:normal;font-weight:normal" x="360" y="260">
      <tspan x="360" y="260">True</tspan>
    </text>
    <text font-size="12.8" style="fill: #000000; fill-opacity: 1; stroke: none;text-anchor:middle;font-family:sans-serif;font-style:normal;font-weight:normal" x="280" y="320">
      <tspan x="280" y="320">False</tspan>
    </text>
    <g>
      <polygon style="fill: #ffc0cb; fill-opacity: 1; stroke-opacity: 1; stroke-width: 2; stroke: #000000" fill-rule="evenodd" points="394.559,260 479.999,260 465.44,300 380,300 "/>
      <text font-size="12.8" style="fill: #000000; fill-opacity: 1; stroke: none;text-anchor:middle;font-family:sans-serif;font-style:normal;font-weight:normal" x="430" y="283.9">
        <tspan x="430" y="283.9">count</tspan>
      </text>
    </g>
    <g>
      <line style="fill: none; stroke-opacity: 1; stroke-width: 2; stroke: #000000" x1="379.02" y1="220" x2="319.736" y2="220.001"/>
      <polygon style="fill: #000000; fill-opacity: 1; stroke-opacity: 1; stroke-width: 2; stroke: #000000" fill-rule="evenodd" points="312.236,220.001 322.236,215.001 319.736,220.001 322.236,225.001 "/>
    </g>
  </g>
</svg>
