<?xml version="1.0" encoding="UTF-8" standalone="no"?>
<!DOCTYPE svg PUBLIC "-//W3C//DTD SVG 1.0//EN" "http://www.w3.org/TR/2001/PR-SVG-20010719/DTD/svg10.dtd">
<svg viewBox="38 38 263 43" xmlns="http://www.w3.org/2000/svg" xmlns:xlink="http://www.w3.org/1999/xlink">
  <g>
    <path style="fill: #90ee90" d="M 50 40 L 90,40 C 95.5229,40 100,48.9543 100,60 C 100,71.0457 95.5229,80 90,80 L 50,80 C 44.4771,80 40,71.0457 40,60 C 40,48.9543 44.4771,40 50,40z"/>
    <path style="fill: none; fill-opacity:0; stroke-width: 2; stroke: #000000" d="M 50 40 L 90,40 C 95.5229,40 100,48.9543 100,60 C 100,71.0457 95.5229,80 90,80 L 50,80 C 44.4771,80 40,71.0457 40,60 C 40,48.9543 44.4771,40 50,40"/>
    <text font-size="12.8" style="fill: #000000;text-anchor:middle;font-family:sans-serif;font-style:normal;font-weight:normal" x="70" y="64">
      <tspan x="70" y="64">Start</tspan>
    </text>
  </g>
  <g>
    <line style="fill: none; fill-opacity:0; stroke-width: 2; stroke: #000000" x1="99.9927" y1="60" x2="117.1" y2="60"/>
    <polygon style="fill: #000000" points="124.6,60 114.6,65 117.1,60 114.6,55 "/>
    <polygon style="fill: none; fill-opacity:0; stroke-width: 2; stroke: #000000" points="124.6,60 114.6,65 117.1,60 114.6,55 "/>
  </g>
  <g>
    <polygon style="fill: #ffc0cb" points="134.559,40 220,40 205.441,80 120,80 "/>
    <polygon style="fill: none; fill-opacity:0; stroke-width: 2; stroke: #000000" points="134.559,40 220,40 205.441,80 120,80 "/>
    <text font-size="12.8" style="fill: #000000;text-anchor:middle;font-family:sans-serif;font-style:normal;font-weight:normal" x="170" y="63.9">
      <tspan x="170" y="63.9">'Hello'</tspan>
    </text>
  </g>
  <g>
    <path style="fill: #a52a2a" d="M 250 40 L 290,40 C 295.523,40 300,48.9543 300,60 C 300,71.0457 295.523,80 290,80 L 250,80 C 244.477,80 240,71.0457 240,60 C 240,48.9543 244.477,40 250,40z"/>
    <path style="fill: none; fill-opacity:0; stroke-width: 2; stroke: #000000" d="M 250 40 L 290,40 C 295.523,40 300,48.9543 300,60 C 300,71.0457 295.523,80 290,80 L 250,80 C 244.477,80 240,71.0457 240,60 C 240,48.9543 244.477,40 250,40"/>
    <text font-size="12.8" style="fill: #000000;text-anchor:middle;font-family:sans-serif;font-style:normal;font-weight:normal" x="270" y="64">
      <tspan x="270" y="64">Stop</tspan>
    </text>
  </g>
  <g>
    <line style="fill: none; fill-opacity:0; stroke-width: 2; stroke: #000000" x1="213.164" y1="60" x2="230.271" y2="60"/>
    <polygon style="fill: #000000" points="237.771,60 227.771,65 230.271,60 227.771,55 "/>
    <polygon style="fill: none; fill-opacity:0; stroke-width: 2; stroke: #000000" points="237.771,60 227.771,65 230.271,60 227.771,55 "/>
  </g>
</svg>
