<?xml version="1.0" encoding="UTF-8" standalone="no"?>
<!DOCTYPE svg PUBLIC "-//W3C//DTD SVG 1.0//EN" "http://www.w3.org/TR/2001/PR-SVG-20010719/DTD/svg10.dtd">
<svg width="12cm" height="27cm" viewBox="238 37 226 525" xmlns="http://www.w3.org/2000/svg" xmlns:xlink="http://www.w3.org/1999/xlink">
  <g id="Background">
    <g>
      <path style="fill: #90ee90; fill-opacity: 1; stroke-opacity: 1; stroke-width: 2; stroke: #000000" fill-rule="evenodd" d="M 270 40 L 310,40 C 315.523,40 320,48.9543 320,60 C 320,71.0457 315.523,80 310,80 L 270,80 C 264.477,80 260,71.0457 260,60 C 260,48.9543 264.477,40 270,40z"/>
      <text font-size="12.8" style="fill: #000000; fill-opacity: 1; stroke: none;text-anchor:middle;font-family:sans-serif;font-style:normal;font-weight:normal" x="290" y="64">
        <tspan x="290" y="64">Start</tspan>
      </text>
    </g>
    <g>
      <polygon style="fill: #ffff00; fill-opacity: 1; stroke-opacity: 1; stroke-width: 2; stroke: #000000" fill-rule="evenodd" points="290,240 340,280.307 290,320.613 240,280.307 "/>
      <text font-size="12.8" style="fill: #000000; fill-opacity: 1; stroke: none;text-anchor:middle;font-family:sans-serif;font-style:normal;font-weight:normal" x="290" y="284.207">
        <tspan x="290" y="284.207">i*i &lt; n</tspan>
      </text>
    </g>
    <g>
      <rect style="fill: #bfbfbf; fill-opacity: 1; stroke-opacity: 1; stroke-width: 2; stroke: #000000" x="360" y="260" width="100" height="40" rx="0" ry="0"/>
      <text font-size="12.8" style="fill: #000000; fill-opacity: 1; stroke: none;text-anchor:middle;font-family:sans-serif;font-style:normal;font-weight:normal" x="410" y="283.9">
        <tspan x="410" y="283.9">i += 1</tspan>
      </text>
    </g>
    <g>
      <line style="fill: none; stroke-opacity: 1; stroke-width: 2; stroke: #000000" x1="341" y1="280.176" x2="349.273" y2="280.155"/>
      <polygon style="fill: #000000; fill-opacity: 1; stroke-opacity: 1; stroke-width: 2; stroke: #000000" fill-rule="evenodd" points="356.773,280.136 346.786,285.162 349.273,280.155 346.76,275.162 "/>
    </g>
    <g>
      <line style="fill: none; stroke-opacity: 1; stroke-width: 2; stroke: #000000" x1="290" y1="200.987" x2="290" y2="229.264"/>
      <polygon style="fill: #000000; fill-opacity: 1; stroke-opacity: 1; stroke-width: 2; stroke: #000000" fill-rule="evenodd" points="290,236.764 285,226.764 290,229.264 295,226.764 "/>
    </g>
    <g>
      <path style="fill: none; stroke-opacity: 1; stroke-width: 2; stroke: #000000" d="M 410 258.995 C 410,218.995 359.996,221.076 299.735,220.144"/>
      <polygon style="fill: #000000; fill-opacity: 1; stroke-opacity: 1; stroke-width: 2; stroke: #000000" fill-rule="evenodd" points="292.236,220.028 302.312,215.183 299.735,220.144 302.157,225.182 "/>
    </g>
    <g>
      <polygon style="fill: #ffc0cb; fill-opacity: 1; stroke-opacity: 1; stroke-width: 2; stroke: #000000" fill-rule="evenodd" points="254.559,440 341.192,440 326.633,480 240,480 "/>
      <text font-size="12.8" style="fill: #000000; fill-opacity: 1; stroke: none;text-anchor:middle;font-family:sans-serif;font-style:normal;font-weight:normal" x="290.596" y="463.9">
        <tspan x="290.596" y="463.9">i</tspan>
      </text>
    </g>
    <g>
      <line style="fill: none; stroke-opacity: 1; stroke-width: 2; stroke: #000000" x1="290" y1="422.032" x2="290.114" y2="429.27"/>
      <polygon style="fill: #000000; fill-opacity: 1; stroke-opacity: 1; stroke-width: 2; stroke: #000000" fill-rule="evenodd" points="290.231,436.769 285.075,426.848 290.114,429.27 295.074,426.691 "/>
    </g>
    <g>
      <path style="fill: #a52a2a; fill-opacity: 1; stroke-opacity: 1; stroke-width: 2; stroke: #000000" fill-rule="evenodd" d="M 270 520 L 310,520 C 315.523,520 320,528.954 320,540 C 320,551.046 315.523,560 310,560 L 270,560 C 264.477,560 260,551.046 260,540 C 260,528.954 264.477,520 270,520z"/>
      <text font-size="12.8" style="fill: #000000; fill-opacity: 1; stroke: none;text-anchor:middle;font-family:sans-serif;font-style:normal;font-weight:normal" x="290" y="544">
        <tspan x="290" y="544">Stop</tspan>
      </text>
    </g>
    <g>
      <line style="fill: none; stroke-opacity: 1; stroke-width: 2; stroke: #000000" x1="290.44" y1="480.977" x2="290.229" y2="509.288"/>
      <polygon style="fill: #000000; fill-opacity: 1; stroke-opacity: 1; stroke-width: 2; stroke: #000000" fill-rule="evenodd" points="290.173,516.787 285.248,506.75 290.229,509.288 295.247,506.825 "/>
    </g>
    <text font-size="12.8" style="fill: #000000; fill-opacity: 1; stroke: none;text-anchor:middle;font-family:sans-serif;font-style:normal;font-weight:normal" x="340" y="260">
      <tspan x="340" y="260">True</tspan>
    </text>
    <text font-size="12.8" style="fill: #000000; fill-opacity: 1; stroke: none;text-anchor:middle;font-family:sans-serif;font-style:normal;font-weight:normal" x="260" y="320">
      <tspan x="260" y="320">False</tspan>
    </text>
    <g>
      <polygon style="fill: #ffff00; fill-opacity: 1; stroke-opacity: 1; stroke-width: 2; stroke: #000000" fill-rule="evenodd" points="290,337.968 340,380 290,422.033 240,380 "/>
      <text font-size="12.8" style="fill: #000000; fill-opacity: 1; stroke: none;text-anchor:middle;font-family:sans-serif;font-style:normal;font-weight:normal" x="290" y="383.9">
        <tspan x="290" y="383.9">i*i == n</tspan>
      </text>
    </g>
    <g>
      <line style="fill: none; stroke-opacity: 1; stroke-width: 2; stroke: #000000" x1="290" y1="321.613" x2="290" y2="328.232"/>
      <polygon style="fill: #000000; fill-opacity: 1; stroke-opacity: 1; stroke-width: 2; stroke: #000000" fill-rule="evenodd" points="290,335.732 285,325.732 290,328.232 295,325.732 "/>
    </g>
    <g>
      <polygon style="fill: #ffc0cb; fill-opacity: 1; stroke-opacity: 1; stroke-width: 2; stroke: #000000" fill-rule="evenodd" points="372.984,440 463.207,440 448.649,480 358.425,480 "/>
      <text font-size="12.8" style="fill: #000000; fill-opacity: 1; stroke: none;text-anchor:middle;font-family:sans-serif;font-style:normal;font-weight:normal" x="410.816" y="463.9">
        <tspan x="410.816" y="463.9">“No”</tspan>
      </text>
    </g>
    <g>
      <path style="fill: none; stroke-opacity: 1; stroke-width: 2; stroke: #000000" d="M 339.291 378.462 C 409.291,376.278 409.572,399.026 410.19,429.292"/>
      <polygon style="fill: #000000; fill-opacity: 1; stroke-opacity: 1; stroke-width: 2; stroke: #000000" fill-rule="evenodd" points="410.343,436.791 405.14,426.895 410.19,429.292 415.138,426.691 "/>
    </g>
    <g>
      <path style="fill: none; stroke-opacity: 1; stroke-width: 2; stroke: #000000" d="M 409.96 480.971 C 409.144,500.971 330.31,500 300.034,500"/>
      <polygon style="fill: #000000; fill-opacity: 1; stroke-opacity: 1; stroke-width: 2; stroke: #000000" fill-rule="evenodd" points="292.534,500 302.534,495 300.034,500 302.534,505 "/>
    </g>
    <text font-size="12.8" style="fill: #000000; fill-opacity: 1; stroke: none;text-anchor:middle;font-family:sans-serif;font-style:normal;font-weight:normal" x="340" y="360">
      <tspan x="340" y="360">False</tspan>
    </text>
    <text font-size="12.8" style="fill: #000000; fill-opacity: 1; stroke: none;text-anchor:middle;font-family:sans-serif;font-style:normal;font-weight:normal" x="260" y="420">
      <tspan x="260" y="420">True</tspan>
    </text>
    <g>
      <line style="fill: none; stroke-opacity: 1; stroke-width: 2; stroke: #000000" x1="290" y1="140.991" x2="290" y2="149.273"/>
      <polygon style="fill: #000000; fill-opacity: 1; stroke-opacity: 1; stroke-width: 2; stroke: #000000" fill-rule="evenodd" points="290,156.773 285,146.773 290,149.273 295,146.773 "/>
    </g>
    <g>
      <polygon style="fill: #add8e6; fill-opacity: 1; stroke-opacity: 1; stroke-width: 2; stroke-dasharray: 10; stroke: #000000" fill-rule="evenodd" points="254.559,100 340,100 325.441,140 240,140 "/>
      <text font-size="12.8" style="fill: #000000; fill-opacity: 1; stroke: none;text-anchor:middle;font-family:sans-serif;font-style:normal;font-weight:normal" x="290" y="123.9">
        <tspan x="290" y="123.9">n ?</tspan>
      </text>
    </g>
    <g>
      <rect style="fill: #bfbfbf; fill-opacity: 1; stroke-opacity: 1; stroke-width: 2; stroke: #000000" x="240" y="160" width="100" height="40" rx="0" ry="0"/>
      <text font-size="12.8" style="fill: #000000; fill-opacity: 1; stroke: none;text-anchor:middle;font-family:sans-serif;font-style:normal;font-weight:normal" x="290" y="183.9">
        <tspan x="290" y="183.9">i=1</tspan>
      </text>
    </g>
    <g>
      <line style="fill: none; stroke-opacity: 1; stroke-width: 2; stroke: #000000" x1="290" y1="80.9912" x2="290" y2="89.2727"/>
      <polygon style="fill: #000000; fill-opacity: 1; stroke-opacity: 1; stroke-width: 2; stroke: #000000" fill-rule="evenodd" points="290,96.7727 285,86.7727 290,89.2727 295,86.7727 "/>
    </g>
  </g>
</svg>
