<?xml version="1.0" encoding="UTF-8" standalone="no"?>
<!DOCTYPE svg PUBLIC "-//W3C//DTD SVG 1.0//EN" "http://www.w3.org/TR/2001/PR-SVG-20010719/DTD/svg10.dtd">
<svg viewBox="258 98 223 343" xmlns="http://www.w3.org/2000/svg" xmlns:xlink="http://www.w3.org/1999/xlink">
  <g>
    <path style="fill: #90ee90" d="M 290 100 L 330,100 C 335.523,100 340,108.954 340,120 C 340,131.046 335.523,140 330,140 L 290,140 C 284.477,140 280,131.046 280,120 C 280,108.954 284.477,100 290,100z"/>
    <path style="fill: none; fill-opacity:0; stroke-width: 2; stroke: #000000" d="M 290 100 L 330,100 C 335.523,100 340,108.954 340,120 C 340,131.046 335.523,140 330,140 L 290,140 C 284.477,140 280,131.046 280,120 C 280,108.954 284.477,100 290,100"/>
    <text font-size="12.8" style="fill: #000000;text-anchor:middle;font-family:sans-serif;font-style:normal;font-weight:normal" x="310" y="124">
      <tspan x="310" y="124"></tspan>
    </text>
  </g>
  <g>
    <rect style="fill: #bfbfbf" x="260" y="160" width="100" height="40"/>
    <rect style="fill: none; fill-opacity:0; stroke-width: 2; stroke: #000000" x="260" y="160" width="100" height="40"/>
    <text font-size="12.8" style="fill: #000000;text-anchor:middle;font-family:sans-serif;font-style:normal;font-weight:normal" x="310" y="175.9">
      <tspan x="310" y="175.9">total = 0</tspan>
      <tspan x="310" y="191.9">i = 1</tspan>
    </text>
  </g>
  <g>
    <line style="fill: none; fill-opacity:0; stroke-width: 2; stroke: #000000" x1="310" y1="140.991" x2="310" y2="149.273"/>
    <polygon style="fill: #000000" points="310,156.773 305,146.773 310,149.273 315,146.773 "/>
    <polygon style="fill: none; fill-opacity:0; stroke-width: 2; stroke: #000000" points="310,156.773 305,146.773 310,149.273 315,146.773 "/>
  </g>
  <g>
    <polygon style="fill: #ffff00" points="310,240 360,280 310,320 260,280 "/>
    <polygon style="fill: none; fill-opacity:0; stroke-width: 2; stroke: #000000" points="310,240 360,280 310,320 260,280 "/>
    <text font-size="12.8" style="fill: #000000;text-anchor:middle;font-family:sans-serif;font-style:normal;font-weight:normal" x="310" y="283.9">
      <tspan x="310" y="283.9">i &lt; 101</tspan>
    </text>
  </g>
  <g>
    <rect style="fill: #bfbfbf" x="380" y="260" width="100" height="40"/>
    <rect style="fill: none; fill-opacity:0; stroke-width: 2; stroke: #000000" x="380" y="260" width="100" height="40"/>
    <text font-size="12.8" style="fill: #000000;text-anchor:middle;font-family:sans-serif;font-style:normal;font-weight:normal" x="430" y="275.9">
      <tspan x="430" y="275.9">total += i</tspan>
      <tspan x="430" y="291.9">i += 1</tspan>
    </text>
  </g>
  <g>
    <line style="fill: none; fill-opacity:0; stroke-width: 2; stroke: #000000" x1="361" y1="280" x2="369.273" y2="280"/>
    <polygon style="fill: #000000" points="376.773,280 366.773,285 369.273,280 366.773,275 "/>
    <polygon style="fill: none; fill-opacity:0; stroke-width: 2; stroke: #000000" points="376.773,280 366.773,285 369.273,280 366.773,275 "/>
  </g>
  <g>
    <line style="fill: none; fill-opacity:0; stroke-width: 2; stroke: #000000" x1="310" y1="201.002" x2="310" y2="229.264"/>
    <polygon style="fill: #000000" points="310,236.764 305,226.764 310,229.264 315,226.764 "/>
    <polygon style="fill: none; fill-opacity:0; stroke-width: 2; stroke: #000000" points="310,236.764 305,226.764 310,229.264 315,226.764 "/>
  </g>
  <g>
    <path style="fill: none; fill-opacity:0; stroke-width: 2; stroke: #000000" d="M 430 258.996 C 430,228.996 410,220 319.736,220.002"/>
    <polygon style="fill: #000000" points="312.236,220.002 322.236,215.002 319.736,220.002 322.236,225.002 "/>
    <polygon style="fill: none; fill-opacity:0; stroke-width: 2; stroke: #000000" points="312.236,220.002 322.236,215.002 319.736,220.002 322.236,225.002 "/>
  </g>
  <g>
    <polygon style="fill: #ffc0cb" points="274.559,340 359.999,340 345.44,380 260,380 "/>
    <polygon style="fill: none; fill-opacity:0; stroke-width: 2; stroke: #000000" points="274.559,340 359.999,340 345.44,380 260,380 "/>
    <text font-size="12.8" style="fill: #000000;text-anchor:middle;font-family:sans-serif;font-style:normal;font-weight:normal" x="310" y="363.9">
      <tspan x="310" y="363.9">total</tspan>
    </text>
  </g>
  <g>
    <line style="fill: none; fill-opacity:0; stroke-width: 2; stroke: #000000" x1="310" y1="321" x2="310" y2="329.287"/>
    <polygon style="fill: #000000" points="310,336.787 305,326.787 310,329.287 315,326.787 "/>
    <polygon style="fill: none; fill-opacity:0; stroke-width: 2; stroke: #000000" points="310,336.787 305,326.787 310,329.287 315,326.787 "/>
  </g>
  <g>
    <path style="fill: #a52a2a" d="M 290 400 L 330,400 C 335.523,400 340,408.954 340,420 C 340,431.046 335.523,440 330,440 L 290,440 C 284.477,440 280,431.046 280,420 C 280,408.954 284.477,400 290,400z"/>
    <path style="fill: none; fill-opacity:0; stroke-width: 2; stroke: #000000" d="M 290 400 L 330,400 C 335.523,400 340,408.954 340,420 C 340,431.046 335.523,440 330,440 L 290,440 C 284.477,440 280,431.046 280,420 C 280,408.954 284.477,400 290,400"/>
    <text font-size="12.8" style="fill: #000000;text-anchor:middle;font-family:sans-serif;font-style:normal;font-weight:normal" x="310" y="424">
      <tspan x="310" y="424"></tspan>
    </text>
  </g>
  <g>
    <line style="fill: none; fill-opacity:0; stroke-width: 2; stroke: #000000" x1="310" y1="380.991" x2="310" y2="389.273"/>
    <polygon style="fill: #000000" points="310,396.773 305,386.773 310,389.273 315,386.773 "/>
    <polygon style="fill: none; fill-opacity:0; stroke-width: 2; stroke: #000000" points="310,396.773 305,386.773 310,389.273 315,386.773 "/>
  </g>
  <text font-size="12.8" style="fill: #000000;text-anchor:middle;font-family:sans-serif;font-style:normal;font-weight:normal" x="360" y="264.425">
    <tspan x="360" y="264.425">True</tspan>
  </text>
  <text font-size="12.8" style="fill: #000000;text-anchor:middle;font-family:sans-serif;font-style:normal;font-weight:normal" x="280" y="324.425">
    <tspan x="280" y="324.425">False</tspan>
  </text>
  <text font-size="12.8" style="fill: #000000;text-anchor:middle;font-family:sans-serif;font-style:normal;font-weight:normal" x="310" y="124.425">
    <tspan x="310" y="124.425">Start</tspan>
  </text>
  <text font-size="12.8" style="fill: #000000;text-anchor:middle;font-family:sans-serif;font-style:normal;font-weight:normal" x="310" y="424.425">
    <tspan x="310" y="424.425">Stop</tspan>
  </text>
</svg>
