<?xml version="1.0" encoding="UTF-8" standalone="no"?>
<!DOCTYPE svg PUBLIC "-//W3C//DTD SVG 1.0//EN" "http://www.w3.org/TR/2001/PR-SVG-20010719/DTD/svg10.dtd">
<svg viewBox="218 38 163 283" xmlns="http://www.w3.org/2000/svg" xmlns:xlink="http://www.w3.org/1999/xlink">
  <g>
    <path style="fill: #90ee90" d="M 273.333 40 L 326.667,40 C 334.03,40 340,48.9543 340,60 C 340,71.0457 334.03,80 326.667,80 L 273.333,80 C 265.97,80 260,71.0457 260,60 C 260,48.9543 265.97,40 273.333,40z"/>
    <path style="fill: none; fill-opacity:0; stroke-width: 2; stroke: #000000" d="M 273.333 40 L 326.667,40 C 334.03,40 340,48.9543 340,60 C 340,71.0457 334.03,80 326.667,80 L 273.333,80 C 265.97,80 260,71.0457 260,60 C 260,48.9543 265.97,40 273.333,40"/>
    <text font-size="12.8" style="fill: #000000;text-anchor:middle;font-family:sans-serif;font-style:normal;font-weight:normal" x="300" y="64">
      <tspan x="300" y="64">Start</tspan>
    </text>
  </g>
  <g>
    <rect style="fill: #bfbfbf" x="220" y="160" width="160" height="40"/>
    <rect style="fill: none; fill-opacity:0; stroke-width: 2; stroke: #000000" x="220" y="160" width="160" height="40"/>
    <text font-size="12.8" style="fill: #000000;text-anchor:middle;font-family:sans-serif;font-style:normal;font-weight:normal" x="300" y="183.9">
      <tspan x="300" y="183.9">total = a + b + c</tspan>
    </text>
  </g>
  <g>
    <polygon style="fill: #add8e6" points="254.559,100 360,100 345.441,140 240,140 "/>
    <polygon style="fill: none; fill-opacity:0; stroke-width: 2; stroke-dasharray: 10; stroke: #000000" points="254.559,100 360,100 345.441,140 240,140 "/>
    <text font-size="12.8" style="fill: #000000;text-anchor:middle;font-family:sans-serif;font-style:normal;font-weight:normal" x="300" y="123.9">
      <tspan x="300" y="123.9">a, b, c ?</tspan>
    </text>
  </g>
  <g>
    <line style="fill: none; fill-opacity:0; stroke-width: 2; stroke: #000000" x1="300" y1="80.9912" x2="300" y2="89.2727"/>
    <polygon style="fill: #000000" points="300,96.7727 295,86.7727 300,89.2727 305,86.7727 "/>
    <polygon style="fill: none; fill-opacity:0; stroke-width: 2; stroke: #000000" points="300,96.7727 295,86.7727 300,89.2727 305,86.7727 "/>
  </g>
  <g>
    <line style="fill: none; fill-opacity:0; stroke-width: 2; stroke: #000000" x1="300" y1="140.991" x2="300" y2="149.273"/>
    <polygon style="fill: #000000" points="300,156.773 295,146.773 300,149.273 305,146.773 "/>
    <polygon style="fill: none; fill-opacity:0; stroke-width: 2; stroke: #000000" points="300,156.773 295,146.773 300,149.273 305,146.773 "/>
  </g>
  <g>
    <line style="fill: none; fill-opacity:0; stroke-width: 2; stroke: #000000" x1="299.791" y1="200.991" x2="299.709" y2="209.273"/>
    <polygon style="fill: #000000" points="299.634,216.773 294.734,206.724 299.709,209.273 304.734,206.823 "/>
    <polygon style="fill: none; fill-opacity:0; stroke-width: 2; stroke: #000000" points="299.634,216.773 294.734,206.724 299.709,209.273 304.734,206.823 "/>
  </g>
  <g>
    <polygon style="fill: #ffc0cb" points="253.367,220 359.999,220 345.44,260 238.808,260 "/>
    <polygon style="fill: none; fill-opacity:0; stroke-width: 2; stroke: #000000" points="253.367,220 359.999,220 345.44,260 238.808,260 "/>
    <text font-size="12.8" style="fill: #000000;text-anchor:middle;font-family:sans-serif;font-style:normal;font-weight:normal" x="299.404" y="243.9">
      <tspan x="299.404" y="243.9">total</tspan>
    </text>
  </g>
  <g>
    <path style="fill: #a52a2a" d="M 273.333 280 L 326.667,280 C 334.03,280 340,288.954 340,300 C 340,311.046 334.03,320 326.667,320 L 273.333,320 C 265.97,320 260,311.046 260,300 C 260,288.954 265.97,280 273.333,280z"/>
    <path style="fill: none; fill-opacity:0; stroke-width: 2; stroke: #000000" d="M 273.333 280 L 326.667,280 C 334.03,280 340,288.954 340,300 C 340,311.046 334.03,320 326.667,320 L 273.333,320 C 265.97,320 260,311.046 260,300 C 260,288.954 265.97,280 273.333,280"/>
    <text font-size="12.8" style="fill: #000000;text-anchor:middle;font-family:sans-serif;font-style:normal;font-weight:normal" x="300" y="304">
      <tspan x="300" y="304">Stop</tspan>
    </text>
  </g>
  <g>
    <line style="fill: none; fill-opacity:0; stroke-width: 2; stroke: #000000" x1="299.612" y1="260.991" x2="299.695" y2="269.273"/>
    <polygon style="fill: #000000" points="299.769,276.773 294.67,266.823 299.695,269.273 304.669,266.724 "/>
    <polygon style="fill: none; fill-opacity:0; stroke-width: 2; stroke: #000000" points="299.769,276.773 294.67,266.823 299.695,269.273 304.669,266.724 "/>
  </g>
</svg>
