<?xml version="1.0" encoding="UTF-8" standalone="no"?>
<!-- Created with Inkscape (http://www.inkscape.org/) -->

<svg
   xmlns:dc="http://purl.org/dc/elements/1.1/"
   xmlns:cc="http://creativecommons.org/ns#"
   xmlns:rdf="http://www.w3.org/1999/02/22-rdf-syntax-ns#"
   xmlns:svg="http://www.w3.org/2000/svg"
   xmlns="http://www.w3.org/2000/svg"
   version="1.1"
   viewBox="0 0 82 96"
   id="svg2">
  <metadata
     id="metadata8">
    <rdf:RDF>
      <cc:Work
         rdf:about="">
        <dc:format>image/svg+xml</dc:format>
        <dc:type
           rdf:resource="http://purl.org/dc/dcmitype/StillImage" />
        <dc:title></dc:title>
      </cc:Work>
    </rdf:RDF>
  </metadata>
  <defs
     id="defs6" />
  <g
     id="g3123">
    <path
       d="M 16.75,91.283139 C 6.6125219,88.524095 0,86.237983 0,85.492251 0,84.336261 2.8140091,74.419572 8.5785538,55.261059 L 11.057543,47.022118 18.59683,41.93466 c 6.847875,-4.620899 7.898391,-5.026789 11.455024,-4.425899 3.277623,0.553751 4.448001,0.243587 7.181941,-1.903299 1.796413,-1.410673 7.20273,-3.811495 12.014038,-5.335161 L 57.995667,27.5 l 0.0022,-5.781385 c 0.0026,-6.989239 -1.215537,-7.809431 -7.200644,-4.848235 -3.189119,1.57785 -4.393402,1.785162 -4.971973,0.855903 -1.210918,-1.944836 2.840945,-5.241705 14.20207,-11.5557875 L 70.5,0.35017742 71.044463,13.425089 c 0.299455,7.191201 0.636955,12.062411 0.75,10.824911 0.135771,-1.486281 0.861525,-2.25 2.138149,-2.25 2.311844,0 3.448282,2.989315 2.601728,6.843649 -0.507361,2.310001 -0.186281,2.993907 1.838746,3.916571 2.812966,1.281673 4.341971,4.924723 2.739495,6.527199 -0.781457,0.781457 -1.791027,0.423842 -3.599337,-1.274977 L 75,35.651372 75,38.325686 C 75,39.796559 74.650608,41 74.223574,41 c -0.427034,0 -0.594999,-1.902435 -0.373256,-4.227633 0.373023,-3.911516 0.273952,-4.120391 -1.324943,-2.793426 -1.490869,1.237311 -1.679553,2.96391 -1.3744,12.576762 C 71.5594,59.421777 72.321121,61 78.122445,61 81.209925,61 82,61.371994 82,62.825686 c 0,1.004127 -1.041503,2.804127 -2.314451,4 C 77.512325,68.867323 76.413965,69 61.685549,69 51.261018,69 46,68.642941 46,67.93544 c 0,-1.667434 6.052932,-6.380579 8.916202,-6.942644 2.501818,-0.491111 2.593068,-0.772151 2.875979,-8.857629 l 0.292182,-8.350425 -3.292182,1.98635 C 52.981482,46.863585 49.8125,48.296916 47.75,48.956273 c -4.286388,1.370308 -4.221127,1.231987 -2.317802,4.912613 1.310145,2.533541 1.092672,4.127206 -2.551867,18.70034 C 36.75851,97.048068 37.100017,96.008182 35.211456,95.920933 34.270155,95.877447 25.9625,93.790439 16.75,91.283139 z M 31.41655,48.356872 c 0.34679,-0.903721 0.394935,-1.878721 0.106989,-2.166667 -0.287947,-0.287946 -0.53043,0.113962 -0.538852,0.893128 -0.0128,1.184328 -0.167888,1.17541 -0.945627,-0.05437 -1.152134,-1.821787 -2.503797,-0.682429 -1.693983,1.427912 0.774174,2.017466 2.277709,1.968515 3.071473,-0.1 z M 52.75,45.346403 58,42.852902 l 0,-6.820153 0,-6.820154 -3.982561,0.894822 c -5.511638,1.238383 -11.973299,3.847058 -15.388558,6.212606 -2.868334,1.986725 -2.8691,1.990201 -0.789173,3.584315 1.14507,0.877614 2.791092,3.308244 3.657827,5.401399 1.789012,4.320443 2.238088,4.322066 11.252465,0.04067 z M 80.350966,36.47222 C 79.732378,34.860204 76,32.427282 76,33.636076 76,34.654252 79.161498,38 80.123603,38 c 0.447495,0 0.549809,-0.687501 0.227363,-1.52778 z M 72.457295,32.069098 C 72.773726,31.557102 72.575283,30.855545 72.016312,30.510081 71.45734,30.164618 71,30.583524 71,31.440983 c 0,1.756526 0.600055,2.015159 1.457295,0.628115 z m 2.903904,-7.570212 C 74.443277,22.10682 72.703249,22.763094 73.369714,25.25 c 0.331637,1.2375 0.637645,2.925 0.680018,3.75 0.04457,0.867815 0.458375,0.551253 0.981842,-0.751114 0.497641,-1.238112 0.645972,-2.925612 0.329625,-3.75 z"
       id="path3137"
       style="fill:#fb7979" />
    <path
       d="M 16.75,91.283139 C 6.6125219,88.524095 0,86.237983 0,85.492251 0,84.336261 2.8140091,74.419572 8.5785538,55.261059 L 11.057543,47.022118 18.59683,41.93466 c 6.847875,-4.620899 7.898391,-5.026789 11.455024,-4.425899 3.277623,0.553751 4.448001,0.243587 7.181941,-1.903299 1.796413,-1.410673 7.20273,-3.811495 12.014038,-5.335161 L 57.995667,27.5 l 0.0022,-5.781385 c 0.0026,-6.989239 -1.215537,-7.809431 -7.200644,-4.848235 -3.189119,1.57785 -4.393402,1.785162 -4.971973,0.855903 -1.210918,-1.944836 2.840945,-5.241705 14.20207,-11.5557875 L 70.5,0.35017742 71.044463,13.425089 c 0.299455,7.191201 0.636955,12.062411 0.75,10.824911 0.135771,-1.486281 0.861525,-2.25 2.138149,-2.25 2.311844,0 3.448282,2.989315 2.601728,6.843649 -0.507361,2.310001 -0.186281,2.993907 1.838746,3.916571 2.812966,1.281673 4.341971,4.924723 2.739495,6.527199 -0.781457,0.781457 -1.791027,0.423842 -3.599337,-1.274977 L 75,35.651372 75,38.325686 C 75,39.796559 74.650608,41 74.223574,41 c -0.427034,0 -0.594999,-1.902435 -0.373256,-4.227633 0.373023,-3.911516 0.273952,-4.120391 -1.324943,-2.793426 -1.490869,1.237311 -1.679553,2.96391 -1.3744,12.576762 C 71.5594,59.421777 72.321121,61 78.122445,61 81.209925,61 82,61.371994 82,62.825686 c 0,1.004127 -1.041503,2.804127 -2.314451,4 C 77.512325,68.867323 76.413965,69 61.685549,69 51.261018,69 46,68.642941 46,67.93544 c 0,-1.667434 6.052932,-6.380579 8.916202,-6.942644 2.501818,-0.491111 2.593068,-0.772151 2.875979,-8.857629 l 0.292182,-8.350425 -3.292182,1.98635 C 52.981482,46.863585 49.8125,48.296916 47.75,48.956273 c -4.286388,1.370308 -4.221127,1.231987 -2.317802,4.912613 1.310145,2.533541 1.092672,4.127206 -2.551867,18.70034 C 36.75851,97.048068 37.100017,96.008182 35.211456,95.920933 34.270155,95.877447 25.9625,93.790439 16.75,91.283139 z M 35.909085,89.25 C 36.45148,87.1875 38.488426,79.131832 40.435631,71.348515 L 43.976003,57.19703 40.577006,49.738421 C 38.191766,44.504356 36.525459,42.109167 34.990091,41.70766 33.10998,41.216 32.897789,41.442516 33.48182,43.317753 c 1.795166,5.764013 1.72808,6.498609 -0.741231,8.116564 -2.771824,1.816169 -5.310963,1.236963 -6.803553,-1.551966 -1.338799,-2.501569 0.385494,-5.674279 3.786605,-6.967379 1.535283,-0.583714 2.227802,-1.349764 1.689198,-1.868558 -2.082036,-2.005459 -4.78871,-1.313451 -11.259419,2.878665 L 13.323122,48.350157 8.1083533,66.288538 C 5.2402307,76.154647 3.0548985,84.388232 3.2520597,84.585393 3.6978101,85.031143 32.047666,92.774573 33.711456,92.905019 34.377757,92.957258 35.36669,91.3125 35.909085,89.25 z M 24.278644,87.012465 c -1.166052,-1.36185 -2.438742,-1.698466 -4.907141,-1.2979 C 15.161863,86.397696 11,83.880492 11,80.651261 c 0,-3.529455 3.953222,-6.548236 9.556597,-7.29766 5.299849,-0.708829 6.404051,-1.582241 6.42809,-5.084549 0.01095,-1.595377 -0.753132,-2.423815 -2.68204,-2.90794 -1.553015,-0.389782 -2.841049,-0.245905 -3.036063,0.339137 -0.186291,0.558872 -0.969979,1.867445 -1.741529,2.907941 -1.354996,1.827316 -1.464562,1.829952 -3.213937,0.0773 -1.748317,-1.751593 -1.729257,-1.881626 0.549666,-3.75 3.016232,-2.472856 6.775931,-2.454366 10.889216,0.05355 3.78811,2.309655 4.206359,5.540549 1.760824,13.602029 C 27.622066,84.817187 27.62976,86 29.559017,86 c 2.114801,0 0.973001,1.627611 -1.616925,2.304892 -1.317314,0.344486 -2.670691,-0.132972 -3.663448,-1.292427 z M 22.295399,82.75 c 0.922712,-0.6875 1.979033,-2.782813 2.34738,-4.65625 L 25.3125,74.6875 22.001558,75.349688 c -1.821018,0.364204 -3.916331,1.164617 -4.65625,1.778695 -1.885704,1.564996 -1.675012,4.580202 0.404692,5.791518 2.273962,1.324461 2.553815,1.314001 4.545399,-0.169901 z M 31.41655,48.356872 c 0.34679,-0.903721 0.394935,-1.878721 0.106989,-2.166667 -0.287947,-0.287946 -0.53043,0.113962 -0.538852,0.893128 -0.0128,1.184328 -0.167888,1.17541 -0.945627,-0.05437 -1.152134,-1.821787 -2.503797,-0.682429 -1.693983,1.427912 0.774174,2.017466 2.277709,1.968515 3.071473,-0.1 z M 52.75,45.346403 58,42.852902 l 0,-6.820153 0,-6.820154 -3.982561,0.894822 c -5.511638,1.238383 -11.973299,3.847058 -15.388558,6.212606 -2.868334,1.986725 -2.8691,1.990201 -0.789173,3.584315 1.14507,0.877614 2.791092,3.308244 3.657827,5.401399 1.789012,4.320443 2.238088,4.322066 11.252465,0.04067 z M 80.350966,36.47222 C 79.732378,34.860204 76,32.427282 76,33.636076 76,34.654252 79.161498,38 80.123603,38 c 0.447495,0 0.549809,-0.687501 0.227363,-1.52778 z M 72.457295,32.069098 C 72.773726,31.557102 72.575283,30.855545 72.016312,30.510081 71.45734,30.164618 71,30.583524 71,31.440983 c 0,1.756526 0.600055,2.015159 1.457295,0.628115 z m 2.903904,-7.570212 C 74.443277,22.10682 72.703249,22.763094 73.369714,25.25 c 0.331637,1.2375 0.637645,2.925 0.680018,3.75 0.04457,0.867815 0.458375,0.551253 0.981842,-0.751114 0.497641,-1.238112 0.645972,-2.925612 0.329625,-3.75 z"
       id="path3135"
       style="fill:#999999" />
    <path
       d="M 17.5,91.258653 C 8.15,88.737885 0.34062902,86.551594 0.14584227,86.400228 -0.04894449,86.248863 2.1145141,78.109389 4.9535279,68.312509 7.7925418,58.515629 10.329973,49.759018 10.592264,48.853374 c 0.26229,-0.905644 4.023179,-3.97483 8.357531,-6.820413 7.353719,-4.827855 8.117305,-5.108442 11.420231,-4.19646 2.791059,0.770649 3.800209,0.663305 4.771969,-0.507595 1.851172,-2.230525 9.904126,-6.055309 16.765997,-7.963078 L 58,27.672098 58,21.336049 c 0,-7.20083 -0.917105,-7.773822 -7.453516,-4.656825 -1.936753,0.923573 -3.824261,1.376332 -4.194462,1.006131 C 45.201218,16.534551 49.288955,12.803655 54,10.705011 56.475,9.6024641 59.85,7.7091841 61.5,6.4977215 66.164001,3.0733199 67.444855,2.4571077 66.493258,4.0954915 66.044591,4.8679712 66.875062,4.4090587 68.33875,3.075686 L 71,0.65137195 71.063386,13.575686 C 71.106319,22.329641 71.418597,25.77398 72.031162,24.25 72.528576,23.0125 73.616479,22 74.448724,22 c 2.001881,0 3.035891,4.374516 1.578383,6.677563 -1.016217,1.605754 -1.091341,1.524206 -0.631836,-0.685871 0.520137,-2.501699 -0.782846,-5.93745 -1.847842,-4.872454 -0.308725,0.308725 -0.265976,2.038028 0.095,3.842896 0.454671,2.273356 1.67213,3.880924 3.962603,5.232337 3.445132,2.032677 5.234885,5.365614 3.703578,6.896921 -1.069535,1.069535 -5.322875,-1.669482 -5.276805,-3.398096 0.01763,-0.661687 0.623619,-0.413677 1.360243,0.556704 C 78.814039,38.123242 81,38.612002 81,37.056704 81,36.537891 80.009772,35.419825 78.799494,34.572113 76.204584,32.754568 75.039608,33.88682 75.015313,38.25 75.006891,39.7625 74.650608,41 74.223574,41 73.79654,41 73.628575,39.097565 73.850318,36.772367 74.21382,32.96069 74.093433,32.677568 72.626744,33.894812 71.370546,34.937364 71,37.081533 71,43.307993 c 0,6.937354 -0.314139,8.420148 -2.25,10.620402 -2.073747,2.356972 -2.082781,2.416806 -0.115317,0.763823 2.113306,-1.775512 2.139487,-1.755411 2.614297,2.007154 C 71.575899,59.29 71.21465,61.136737 70.114297,62.5 c -1.565886,1.940023 -1.553727,1.949121 0.405457,0.303382 1.57665,-1.324405 2.827132,-1.514525 5.699936,-0.866602 2.0241,0.456508 3.92771,0.582486 4.230246,0.279951 C 80.752471,61.914196 81,62.338225 81,63.159019 81,63.979813 79.958497,65.629813 78.685549,66.825686 76.526154,68.854332 75.387242,69 61.685549,69 50.050499,69 47,68.720612 47,67.654988 47,65.780566 50.648567,62.672582 53.294547,62.29306 57.869697,61.636831 58,61.367966 58,52.583924 l 0,-8.478845 -6.75,3.110267 c -3.7125,1.710647 -6.847884,3.172389 -6.967519,3.248314 -0.119636,0.07593 0.281285,1.763299 0.890935,3.749721 0.970176,3.161123 0.514643,5.992815 -3.651602,22.699147 -2.74894,11.023044 -5.237851,19.054066 -5.890935,19.008405 C 35.008895,95.877447 26.85,93.779421 17.5,91.258653 z M 35.909085,89.25 C 36.45148,87.1875 38.488426,79.131832 40.435631,71.348515 L 43.976003,57.19703 40.577006,49.738421 C 38.191766,44.504356 36.525459,42.109167 34.990091,41.70766 33.10998,41.216 32.897789,41.442516 33.48182,43.317753 c 1.795166,5.764013 1.72808,6.498609 -0.741231,8.116564 -2.771824,1.816169 -5.310963,1.236963 -6.803553,-1.551966 -1.338799,-2.501569 0.385494,-5.674279 3.786605,-6.967379 1.535283,-0.583714 2.227802,-1.349764 1.689198,-1.868558 -2.082036,-2.005459 -4.78871,-1.313451 -11.259419,2.878665 L 13.323122,48.350157 8.1083533,66.288538 C 5.2402307,76.154647 3.0548985,84.388232 3.2520597,84.585393 3.6978101,85.031143 32.047666,92.774573 33.711456,92.905019 34.377757,92.957258 35.36669,91.3125 35.909085,89.25 z M 24.278644,87.012465 c -1.166052,-1.36185 -2.438742,-1.698466 -4.907141,-1.2979 C 15.161863,86.397696 11,83.880492 11,80.651261 c 0,-3.529455 3.953222,-6.548236 9.556597,-7.29766 5.299849,-0.708829 6.404051,-1.582241 6.42809,-5.084549 0.01095,-1.595377 -0.753132,-2.423815 -2.68204,-2.90794 -1.553015,-0.389782 -2.841049,-0.245905 -3.036063,0.339137 -0.186291,0.558872 -0.969979,1.867445 -1.741529,2.907941 -1.354996,1.827316 -1.464562,1.829952 -3.213937,0.0773 -1.748317,-1.751593 -1.729257,-1.881626 0.549666,-3.75 3.016232,-2.472856 6.775931,-2.454366 10.889216,0.05355 3.78811,2.309655 4.206359,5.540549 1.760824,13.602029 C 27.622066,84.817187 27.62976,86 29.559017,86 c 2.114801,0 0.973001,1.627611 -1.616925,2.304892 -1.317314,0.344486 -2.670691,-0.132972 -3.663448,-1.292427 z M 22.295399,82.75 c 0.922712,-0.6875 1.979033,-2.782813 2.34738,-4.65625 L 25.3125,74.6875 22.001558,75.349688 c -1.821018,0.364204 -3.916331,1.164617 -4.65625,1.778695 -1.885704,1.564996 -1.675012,4.580202 0.404692,5.791518 2.273962,1.324461 2.553815,1.314001 4.545399,-0.169901 z M 31.393011,48.418213 C 32.302907,46.047061 32.096706,45.302968 31,47 30.192104,48.250131 30.028075,48.17517 30.015313,46.55 30.003908,45.097617 29.710928,44.889072 28.867217,45.732783 27.64295,46.95705 28.352063,50 29.861626,50 c 0.508418,0 1.197541,-0.711804 1.531385,-1.581787 z M 52.75,45.458895 58,43.110647 l 0,-7.074375 0,-7.074376 -2.75,0.674963 C 49.160253,31.131533 41.75927,34.035226 38.961325,36.027539 35.845363,38.2463 35.112271,40 37.300734,40 c 0.715404,0 2.298101,2.052881 3.517105,4.561959 2.48896,5.123029 2.484583,5.1227 11.932161,0.896936 z M 72.457295,32.069098 C 72.773726,31.557102 72.575283,30.855545 72.016312,30.510081 71.45734,30.164618 71,30.583524 71,31.440983 c 0,1.756526 0.600055,2.015159 1.457295,0.628115 z"
       id="path3133"
       style="fill:#c79164" />
    <path
       d="M 17.5,91.258653 C 8.15,88.737885 0.34062902,86.551594 0.14584227,86.400228 -0.04894449,86.248863 2.1145141,78.109389 4.9535279,68.312509 7.7925418,58.515629 10.329973,49.759018 10.592264,48.853374 c 0.26229,-0.905644 4.023179,-3.97483 8.357531,-6.820413 7.308595,-4.798231 8.133249,-5.104039 11.360668,-4.212906 2.781266,0.767944 3.841452,0.631489 5.280014,-0.679586 1.68698,-1.537478 1.714623,-1.527424 0.440303,0.160146 -1.189942,1.575828 -1.109869,1.865942 0.641413,2.323912 1.100602,0.287814 2.968757,2.515038 4.151454,4.949386 C 42.006345,47.008261 43.456413,49 44.04602,49 c 0.589608,0 0.839788,0.375749 0.555957,0.834998 -0.283831,0.459249 -0.02197,2.444886 0.581918,4.412528 0.95666,3.117082 0.48533,6.034195 -3.662081,22.665002 -2.74894,11.023044 -5.237851,19.054066 -5.890935,19.008405 C 35.008895,95.877447 26.85,93.779421 17.5,91.258653 z M 35.891295,89.25 c 0.532611,-2.0625 2.604001,-10.073835 4.603088,-17.802967 l 3.634705,-14.052967 -3.439612,-7.547731 c -2.366763,-5.193519 -4.102089,-7.720973 -5.563548,-8.103153 -2.755155,-0.720489 -3.685175,0.840428 -1.689686,2.835917 1.816338,1.816338 1.931835,2.864626 0.591538,5.368993 -1.913571,3.575541 -6.160457,3.541033 -8.090744,-0.06574 -1.338799,-2.501569 0.385494,-5.674279 3.786605,-6.967379 1.535283,-0.583714 2.227802,-1.349764 1.689198,-1.868558 -2.08269,-2.006089 -4.789757,-1.31277 -11.272149,2.886958 L 13.297663,48.366745 8.060832,66.26204 C 5.1805751,76.104452 2.9978104,84.331144 3.2102438,84.543577 3.6933409,85.026674 32.058436,92.820109 33.711456,92.92392 34.377757,92.965764 35.358684,91.3125 35.891295,89.25 z M 23.659245,86.554391 C 23.257706,85.507996 22.12888,85.267104 19.571623,85.68209 15.156924,86.398497 11,83.958729 11,80.651261 c 0,-3.628838 3.919964,-6.512937 10.041224,-7.387794 5.221809,-0.746306 5.472268,-0.919405 5.769575,-3.987509 0.26927,-2.778767 -0.05775,-3.299834 -2.447353,-3.899587 -1.606509,-0.403208 -2.899578,-0.267975 -3.096862,0.323878 -0.186291,0.558872 -0.969979,1.867445 -1.741529,2.907941 -1.301825,1.755611 -1.522923,1.773534 -3.07108,0.248953 -1.556616,-1.532912 -1.527244,-1.783874 0.438882,-3.75 2.640527,-2.640527 6.648561,-2.684126 10.857143,-0.118103 3.779927,2.304666 4.178385,5.379262 1.739176,13.419891 C 27.604787,84.620645 27.617478,86 29.559017,86 c 0.857459,0 1.280902,0.45 0.940983,1 -0.946388,1.531287 -6.213817,1.188165 -6.840755,-0.445609 z m -0.787628,-3.899699 c 0.614078,-0.739919 1.400428,-2.764919 1.747445,-4.5 C 25.186916,75.315418 25.00979,75 22.847506,75 19.721943,75 16,77.639848 16,79.856704 c 0,3.663754 4.598967,5.536364 6.871617,2.797988 z M 31.393011,48.418213 C 32.302907,46.047061 32.096706,45.302968 31,47 30.192104,48.250131 30.028075,48.17517 30.015313,46.55 30.003908,45.097617 29.710928,44.889072 28.867217,45.732783 27.64295,46.95705 28.352063,50 29.861626,50 c 0.508418,0 1.197541,-0.711804 1.531385,-1.581787 z M 47,67.654988 c 0,-1.874422 3.648567,-4.982406 6.294547,-5.361928 4.759877,-0.682725 4.635507,-0.03623 4.664855,-24.248526 C 57.986347,15.814969 57.918028,15 56.027594,15 c -1.077857,0 -3.544356,0.755651 -5.48111,1.679224 -1.936753,0.923573 -3.824261,1.376332 -4.194462,1.006131 C 45.201218,16.534551 49.288955,12.803655 54,10.705011 56.475,9.6024641 59.85,7.7091841 61.5,6.4977215 66.164001,3.0733199 67.444855,2.4571077 66.493258,4.0954915 66.044591,4.8679712 66.875062,4.4090587 68.33875,3.075686 L 71,0.65137195 71.118421,14.075686 c 0.06513,7.383373 0.07053,13.745619 0.012,14.138326 -0.05853,0.392706 0.563177,0.457061 1.381579,0.143011 0.818398,-0.31405 1.488,-0.0463 1.488,0.595005 0,0.649787 0.553405,0.847536 1.25,0.446664 0.6875,-0.395639 0.916404,-0.3511 0.508676,0.09897 -0.407728,0.450074 -0.182728,1.508602 0.5,2.352284 0.685091,0.846603 0.748956,1.239332 0.142525,0.87644 -0.69664,-0.416874 -1.130728,0.465457 -1.186037,2.410745 -0.104004,3.65797 -1.209162,5.258421 -1.228819,1.779533 C 73.966812,33.459527 72.914961,30 71.883369,30 71.397516,30 71,34.808497 71,40.685549 c 0,9.656925 -0.216592,10.931722 -2.25,13.242846 -2.073747,2.356972 -2.082781,2.416806 -0.115317,0.763823 2.113306,-1.775512 2.139487,-1.755411 2.614297,2.007154 C 71.575899,59.29 71.21465,61.136737 70.114297,62.5 c -1.565886,1.940023 -1.553727,1.949121 0.405457,0.303382 1.57665,-1.324405 2.827132,-1.514525 5.699936,-0.866602 2.0241,0.456508 3.92771,0.582486 4.230246,0.279951 C 80.752471,61.914196 81,62.338225 81,63.159019 81,63.979813 79.958497,65.629813 78.685549,66.825686 76.526154,68.854332 75.387242,69 61.685549,69 50.050499,69 47,68.720612 47,67.654988 z M 72.116001,24.809017 c -0.153229,-2.233668 1.757089,-3.338321 3.221131,-1.862639 0.886363,0.89341 0.767553,1.021678 -0.499667,0.539442 -1.110034,-0.422419 -1.819215,-0.0267 -2.133999,1.190755 -0.404309,1.563699 -0.487986,1.582563 -0.587465,0.132442 z"
       id="path3131"
       style="fill:#737372" />
    <path
       d="M 18,91.107523 C 5.45683,87.702204 0.52955457,85.951938 0.60434188,84.928242 0.66172992,84.142709 3.1164708,75.283676 6.0593215,65.241502 l 5.3506375,-18.258497 7.766914,-5.099126 c 7.251416,-4.760691 7.978853,-5.025243 10.960152,-3.985956 2.657643,0.926459 3.542928,0.823165 5.278106,-0.615844 C 36.561809,36.331122 36.9375,36.193627 36.25,36.976534 34.480658,38.991413 34.697804,40 36.900945,40 c 1.311907,0 2.473903,1.393233 3.75,4.496252 1.01698,2.472938 2.524055,4.533464 3.349055,4.578947 0.955024,0.05265 1.063383,0.260105 0.298248,0.570999 -0.89217,0.362512 -0.774666,1.383912 0.456137,3.964931 1.624666,3.406961 1.558573,3.866479 -3.298248,22.931453 C 38.730261,87.242735 36.275,95.966166 36,95.927984 35.725,95.889801 27.625,93.720594 18,91.107523 z M 35.891295,89.25 c 0.532611,-2.0625 2.604001,-10.073835 4.603088,-17.802967 l 3.634705,-14.052967 -3.439612,-7.547731 c -2.366763,-5.193519 -4.102089,-7.720973 -5.563548,-8.103153 -2.755155,-0.720489 -3.685175,0.840428 -1.689686,2.835917 1.816338,1.816338 1.931835,2.864626 0.591538,5.368993 -1.913571,3.575541 -6.160457,3.541033 -8.090744,-0.06574 -1.338799,-2.501569 0.385494,-5.674279 3.786605,-6.967379 1.535283,-0.583714 2.227802,-1.349764 1.689198,-1.868558 -2.08269,-2.006089 -4.789757,-1.31277 -11.272149,2.886958 L 13.297663,48.366745 8.060832,66.26204 C 5.1805751,76.104452 2.9978104,84.331144 3.2102438,84.543577 3.6933409,85.026674 32.058436,92.820109 33.711456,92.92392 34.377757,92.965764 35.358684,91.3125 35.891295,89.25 z M 23.659245,86.554391 C 23.257706,85.507996 22.12888,85.267104 19.571623,85.68209 15.156924,86.398497 11,83.958729 11,80.651261 c 0,-3.628838 3.919964,-6.512937 10.041224,-7.387794 5.221809,-0.746306 5.472268,-0.919405 5.769575,-3.987509 0.26927,-2.778767 -0.05775,-3.299834 -2.447353,-3.899587 -1.606509,-0.403208 -2.899578,-0.267975 -3.096862,0.323878 -0.186291,0.558872 -0.969979,1.867445 -1.741529,2.907941 -1.301825,1.755611 -1.522923,1.773534 -3.07108,0.248953 -1.556616,-1.532912 -1.527244,-1.783874 0.438882,-3.75 2.640527,-2.640527 6.648561,-2.684126 10.857143,-0.118103 3.779927,2.304666 4.178385,5.379262 1.739176,13.419891 C 27.604787,84.620645 27.617478,86 29.559017,86 c 0.857459,0 1.280902,0.45 0.940983,1 -0.946388,1.531287 -6.213817,1.188165 -6.840755,-0.445609 z m -0.787628,-3.899699 c 0.614078,-0.739919 1.400428,-2.764919 1.747445,-4.5 C 25.186916,75.315418 25.00979,75 22.847506,75 19.721943,75 16,77.639848 16,79.856704 c 0,3.663754 4.598967,5.536364 6.871617,2.797988 z M 31.393011,48.418213 C 32.302907,46.047061 32.096706,45.302968 31,47 30.192104,48.250131 30.028075,48.17517 30.015313,46.55 30.003908,45.097617 29.710928,44.889072 28.867217,45.732783 27.64295,46.95705 28.352063,50 29.861626,50 c 0.508418,0 1.197541,-0.711804 1.531385,-1.581787 z M 47,67.5 c 0,-1.079738 1.104811,-1.5 3.943296,-1.5 6.756466,0 6.989348,-0.916747 7.017039,-27.622753 0.01429,-13.780495 -0.36649,-23.510231 -0.933808,-23.860852 -0.526864,-0.32562 -2.75544,0.324983 -4.952392,1.445784 C 49.877182,17.082981 47.574249,18 46.956505,18 44.289628,18 47.123504,15.681193 56,10.6002 L 65.5,5.1623075 65.781735,16.581154 66.063471,28 l 2.718264,0.118483 c 1.495046,0.06517 3.280765,0.04544 3.968265,-0.04384 0.6875,-0.08928 1.25,0.333965 1.25,0.940534 0,0.60657 0.5625,0.77915 1.25,0.383512 0.6875,-0.395639 0.916404,-0.3511 0.508676,0.09897 -0.407728,0.450074 -0.182728,1.508602 0.5,2.352284 1.002653,1.23903 0.988126,1.381629 -0.07556,0.741657 -0.846616,-0.509372 -1.250687,-0.310093 -1.131517,0.558042 0.10195,0.742694 0.08274,2.475352 -0.04268,3.850352 -0.160577,1.760343 -0.483042,1.201725 -1.089912,-1.888096 -1.018231,-5.184231 -0.614641,-4.705892 -4.71126,-5.583824 l -3.292254,-0.705552 0.292254,16.936061 C 66.538741,64.939664 66.900964,66 73.122445,66 75.902494,66 77,66.424561 77,67.5 77,68.766667 74.666667,69 62,69 49.333333,69 47,68.766667 47,67.5 z M 69.139216,25.966731 C 67.389188,24.508811 67.186054,24 68.354032,24 c 0.86658,0 2.057266,0.9 2.645968,2 1.314065,2.455353 1.122343,2.451926 -1.860784,-0.03327 z m 2.976785,-1.157714 c -0.153229,-2.233668 1.757089,-3.338321 3.221131,-1.862639 0.886363,0.89341 0.767553,1.021678 -0.499667,0.539442 -1.110034,-0.422419 -1.819215,-0.0267 -2.133999,1.190755 -0.404309,1.563699 -0.487986,1.582563 -0.587465,0.132442 z"
       id="path3129"
       style="fill:#a2594d" />
    <path
       d="M 18,91.107523 C 5.45683,87.702204 0.52955457,85.951938 0.60434188,84.928242 0.66172992,84.142709 3.1164708,75.283676 6.0593215,65.241502 l 5.3506375,-18.258497 7.675897,-5.039371 7.675897,-5.039371 6.068092,1.788349 6.068093,1.788348 3.736306,8.385201 3.736305,8.3852 -4.935274,19.373023 C 38.720874,87.279546 36.275,95.966166 36,95.927984 35.725,95.889801 27.625,93.720594 18,91.107523 z M 39.918942,74.897758 44.448696,57.295515 40.974348,49.727021 C 38.842779,45.083626 36.727033,41.89002 35.5,41.463785 34.4,41.081677 33.275,40.69131 33,40.596303 27.871706,38.824568 26.900233,39.050401 20.047189,43.607367 13.688924,47.835329 12.93729,48.70141 11.571701,53.373383 10.747537,56.193022 8.3242209,64.470862 6.1865536,71.768581 l -3.8866679,13.268581 2.6000571,0.64037 C 6.3299743,86.029736 12.9,87.792091 19.5,89.593877 c 6.6,1.801786 12.875067,3.192758 13.944594,3.091049 1.650861,-0.156993 2.628818,-2.843764 6.474348,-17.787168 z M 24.40054,86.601407 c -0.372448,-0.970583 -2.07011,-1.353119 -5.547397,-1.25 C 13.760856,85.502419 11,83.713682 11,80.263416 c 0,-3.033543 4.666889,-6.077884 10.418926,-6.796553 l 5.687275,-0.710579 -0.3031,-3.628142 c -0.263189,-3.150392 -0.675011,-3.670753 -3.127474,-3.951741 -2.168676,-0.248473 -2.950262,0.157801 -3.366631,1.75 C 19.612794,69.588678 16,69.732406 16,67.097825 c 0,-2.707849 4.9025,-4.239645 9.503261,-2.969313 5.296672,1.462481 6.300691,4.423992 4.187926,12.35294 -2.13038,7.995054 -2.121005,9.514787 0.05881,9.533861 1.495547,0.01309 1.531897,0.156261 0.25,0.984687 -2.184913,1.411999 -4.98105,1.212959 -5.59946,-0.398593 z m -1.785321,-3.36672 c 0.61337,-0.404078 1.40087,-1.747187 1.75,-2.984687 0.349129,-1.2375 0.895687,-3.167585 1.214572,-4.289078 0.5126,-1.802774 0.251852,-1.962819 -2.25,-1.381033 C 19.15155,75.551506 16,77.805881 16,79.823053 c 0,3.352265 3.761032,5.291924 6.615219,3.411634 z m 3.756579,-33.889464 c -1.300827,-5.182907 2.596316,-7.811129 6.679589,-4.504696 2.103557,1.703357 2.239635,2.225333 1.184091,4.542 -1.719799,3.774548 -6.91315,3.749912 -7.86368,-0.0373 z m 5.292369,-0.91244 c 0.83346,-2.171962 -1.282435,-4.214515 -2.79695,-2.7 C 27.587184,47.012816 28.380166,50 30,50 c 0.584523,0 1.333399,-0.705248 1.664167,-1.567217 z M 47,67.5 C 47,66.420262 48.104811,66 50.943296,66 57.425463,66 58,64.318801 58,45.350818 58,30.75916 58.174146,29.101139 59.75,28.689326 c 1.666667,-0.435546 1.666667,-0.462847 0,-0.573325 C 58.276472,28.018326 58,26.982429 58,21.559017 c 0,-3.542541 -0.434567,-6.70956 -0.965704,-7.037821 -0.531136,-0.32826 -2.763209,0.320182 -4.960161,1.440983 -4.349934,2.219171 -6.428805,2.591088 -5.907468,1.056868 0.580271,-1.707658 19.318191,-11.9537482 19.563771,-10.6976746 0.126741,0.6482452 0.351741,13.5976866 0.5,28.7765366 C 66.531916,65.963402 66.540078,66 73.122445,66 75.902494,66 77,66.424561 77,67.5 77,68.766667 74.666667,69 62,69 49.333333,69 47,68.766667 47,67.5 z"
       id="path3127"
       style="fill:#5e2d2b" />
    <path
       d="M 18,91.010207 C 8.375,88.373498 0.54893911,85.830048 0.60875357,85.358095 0.66856804,84.886143 3.139712,76.131481 6.1001847,65.903291 l 5.3826773,-18.596709 7.590154,-5.046814 c 5.822689,-3.871598 8.214969,-4.927372 10.273346,-4.533889 1.475756,0.282109 2.945839,0.937895 3.26685,1.457303 0.348971,0.564646 -0.762738,0.695082 -2.764777,0.324388 -2.882062,-0.533636 -4.311194,0.04942 -10.260789,4.186221 L 12.675292,48.5 7.3891889,66.468209 C 4.481832,76.350725 2.332625,84.665958 2.6131733,84.946507 c 1.0696403,1.06964 31.9203857,8.856798 32.5715597,8.221515 0.376603,-0.367412 2.672689,-8.59632 5.102413,-18.286462 L 44.704827,57.263119 41.263398,49.744654 C 39.244205,45.333337 36.928901,41.794152 35.660984,41.180775 L 33.5,40.135361 35.738839,40.06768 c 1.824771,-0.05516 3.007644,1.45814 6.395708,8.18232 l 4.156869,8.25 -4.86053,19.75 C 38.757595,87.1125 36.329526,95.95595 36.035178,95.902112 35.74083,95.848273 27.625,93.646916 18,91.010207 z m 6.13825,-5.165517 c -0.481722,-1.302221 -0.252057,-3.737892 0.580246,-6.153668 0.75765,-2.199097 1.14506,-4.604207 0.86091,-5.34469 C 25.295256,73.605849 25.449863,73 25.922977,73 27.391192,73 28.162493,67.900719 26.920615,66.404347 25.108947,64.22142 20.333705,64.615906 19.710251,67 19.136164,69.19531 16,69.786999 16,67.7 c 0,-3.395255 6.67656,-5.013835 11.042823,-2.677082 3.751542,2.007764 4.146483,4.421342 2.057696,12.575056 -1.951906,7.619391 -1.951845,7.628144 0.05727,8.153541 1.538741,0.402389 1.697738,0.72471 0.676743,1.37191 C 27.4709,88.621712 24.956756,88.057322 24.13825,85.84469 z M 13.2,83.8 c -1.346144,-1.346144 -1.559483,-4.686483 -0.414335,-6.487439 0.889436,-1.398802 5.624748,-3.329282 8.029435,-3.273419 0.930413,0.02161 0.294602,0.644344 -1.419877,1.390664 -5.32844,2.319493 -4.947788,7.898105 0.604777,8.863271 1.650541,0.286903 1.123876,0.480831 -1.55,0.570741 C 16.2225,84.938718 13.86,84.46 13.2,83.8 z M 51,66.804549 c 2.475,-0.539697 4.95,-1.412545 5.5,-1.939661 0.55,-0.527116 1.225,-8.699855 1.5,-18.161641 L 58.5,29.5 62.25,29.189635 66,28.879269 66,45.748505 c 0,11.920487 0.366699,17.368809 1.25,18.572176 0.6875,0.936618 3.275,2.098322 5.75,2.581564 3.384898,0.6609 0.659094,0.879237 -11,0.881097 -12.52239,0.002 -14.635532,-0.186032 -11,-0.978793 z M 27.010777,50.512986 c -1.507273,-1.816153 -0.589155,-6.077064 1.480591,-6.8713 1.916872,-0.735573 1.960331,0.738548 0.06807,2.308982 C 26.702413,47.491865 27.660956,50 30.106989,50 31.551784,50 32,49.275704 32,46.940983 32,45.156282 32.416577,44.139425 33,44.5 c 1.382265,0.854287 1.255595,4.844405 -0.2,6.3 -1.63946,1.63946 -4.299855,1.507565 -5.789223,-0.287014 z M 58,21 c 0,-7.99384 -0.480683,-8.325907 -7.136743,-4.930239 -2.231387,1.138369 -4.31346,1.813369 -4.626829,1.5 C 45.923059,17.256393 45.854167,16.858936 46.083333,16.686524 47.267487,15.795634 65.058249,6 65.492124,6 65.771456,6 66,10.95 66,17 l 0,11 -4,0 -4,0 0,-7 z"
       id="path3125"
       style="fill:#080606" />
  </g>
</svg>
